G04 #@! TF.GenerationSoftware,KiCad,Pcbnew,5.0.2+dfsg1-1*
G04 #@! TF.CreationDate,2020-04-26T20:48:58+02:00*
G04 #@! TF.ProjectId,midirouter,6d696469-726f-4757-9465-722e6b696361,rev?*
G04 #@! TF.SameCoordinates,Original*
G04 #@! TF.FileFunction,Copper,L2,Bot*
G04 #@! TF.FilePolarity,Positive*
%FSLAX46Y46*%
G04 Gerber Fmt 4.6, Leading zero omitted, Abs format (unit mm)*
G04 Created by KiCad (PCBNEW 5.0.2+dfsg1-1) date Sun 26 Apr 2020 08:48:58 PM CEST*
%MOMM*%
%LPD*%
G01*
G04 APERTURE LIST*
G04 #@! TA.AperFunction,Conductor*
%ADD10C,0.100000*%
G04 #@! TD*
G04 #@! TA.AperFunction,SMDPad,CuDef*
%ADD11C,0.975000*%
G04 #@! TD*
G04 #@! TA.AperFunction,ComponentPad*
%ADD12O,1.700000X1.700000*%
G04 #@! TD*
G04 #@! TA.AperFunction,ComponentPad*
%ADD13R,1.700000X1.700000*%
G04 #@! TD*
G04 #@! TA.AperFunction,ComponentPad*
%ADD14C,1.800000*%
G04 #@! TD*
G04 #@! TA.AperFunction,ComponentPad*
%ADD15R,1.800000X1.800000*%
G04 #@! TD*
G04 #@! TA.AperFunction,ComponentPad*
%ADD16C,2.100000*%
G04 #@! TD*
G04 #@! TA.AperFunction,ComponentPad*
%ADD17R,2.100000X2.100000*%
G04 #@! TD*
G04 #@! TA.AperFunction,SMDPad,CuDef*
%ADD18R,1.300000X0.800000*%
G04 #@! TD*
G04 #@! TA.AperFunction,SMDPad,CuDef*
%ADD19C,1.150000*%
G04 #@! TD*
G04 #@! TA.AperFunction,ViaPad*
%ADD20C,0.800000*%
G04 #@! TD*
G04 #@! TA.AperFunction,Conductor*
%ADD21C,0.250000*%
G04 #@! TD*
G04 #@! TA.AperFunction,Conductor*
%ADD22C,0.500000*%
G04 #@! TD*
G04 APERTURE END LIST*
D10*
G04 #@! TO.N,GND*
G04 #@! TO.C,C4*
G36*
X83330142Y-74301174D02*
X83353803Y-74304684D01*
X83377007Y-74310496D01*
X83399529Y-74318554D01*
X83421153Y-74328782D01*
X83441670Y-74341079D01*
X83460883Y-74355329D01*
X83478607Y-74371393D01*
X83494671Y-74389117D01*
X83508921Y-74408330D01*
X83521218Y-74428847D01*
X83531446Y-74450471D01*
X83539504Y-74472993D01*
X83545316Y-74496197D01*
X83548826Y-74519858D01*
X83550000Y-74543750D01*
X83550000Y-75456250D01*
X83548826Y-75480142D01*
X83545316Y-75503803D01*
X83539504Y-75527007D01*
X83531446Y-75549529D01*
X83521218Y-75571153D01*
X83508921Y-75591670D01*
X83494671Y-75610883D01*
X83478607Y-75628607D01*
X83460883Y-75644671D01*
X83441670Y-75658921D01*
X83421153Y-75671218D01*
X83399529Y-75681446D01*
X83377007Y-75689504D01*
X83353803Y-75695316D01*
X83330142Y-75698826D01*
X83306250Y-75700000D01*
X82818750Y-75700000D01*
X82794858Y-75698826D01*
X82771197Y-75695316D01*
X82747993Y-75689504D01*
X82725471Y-75681446D01*
X82703847Y-75671218D01*
X82683330Y-75658921D01*
X82664117Y-75644671D01*
X82646393Y-75628607D01*
X82630329Y-75610883D01*
X82616079Y-75591670D01*
X82603782Y-75571153D01*
X82593554Y-75549529D01*
X82585496Y-75527007D01*
X82579684Y-75503803D01*
X82576174Y-75480142D01*
X82575000Y-75456250D01*
X82575000Y-74543750D01*
X82576174Y-74519858D01*
X82579684Y-74496197D01*
X82585496Y-74472993D01*
X82593554Y-74450471D01*
X82603782Y-74428847D01*
X82616079Y-74408330D01*
X82630329Y-74389117D01*
X82646393Y-74371393D01*
X82664117Y-74355329D01*
X82683330Y-74341079D01*
X82703847Y-74328782D01*
X82725471Y-74318554D01*
X82747993Y-74310496D01*
X82771197Y-74304684D01*
X82794858Y-74301174D01*
X82818750Y-74300000D01*
X83306250Y-74300000D01*
X83330142Y-74301174D01*
X83330142Y-74301174D01*
G37*
D11*
G04 #@! TD*
G04 #@! TO.P,C4,2*
G04 #@! TO.N,GND*
X83062500Y-75000000D03*
D10*
G04 #@! TO.N,Net-(C4-Pad1)*
G04 #@! TO.C,C4*
G36*
X85205142Y-74301174D02*
X85228803Y-74304684D01*
X85252007Y-74310496D01*
X85274529Y-74318554D01*
X85296153Y-74328782D01*
X85316670Y-74341079D01*
X85335883Y-74355329D01*
X85353607Y-74371393D01*
X85369671Y-74389117D01*
X85383921Y-74408330D01*
X85396218Y-74428847D01*
X85406446Y-74450471D01*
X85414504Y-74472993D01*
X85420316Y-74496197D01*
X85423826Y-74519858D01*
X85425000Y-74543750D01*
X85425000Y-75456250D01*
X85423826Y-75480142D01*
X85420316Y-75503803D01*
X85414504Y-75527007D01*
X85406446Y-75549529D01*
X85396218Y-75571153D01*
X85383921Y-75591670D01*
X85369671Y-75610883D01*
X85353607Y-75628607D01*
X85335883Y-75644671D01*
X85316670Y-75658921D01*
X85296153Y-75671218D01*
X85274529Y-75681446D01*
X85252007Y-75689504D01*
X85228803Y-75695316D01*
X85205142Y-75698826D01*
X85181250Y-75700000D01*
X84693750Y-75700000D01*
X84669858Y-75698826D01*
X84646197Y-75695316D01*
X84622993Y-75689504D01*
X84600471Y-75681446D01*
X84578847Y-75671218D01*
X84558330Y-75658921D01*
X84539117Y-75644671D01*
X84521393Y-75628607D01*
X84505329Y-75610883D01*
X84491079Y-75591670D01*
X84478782Y-75571153D01*
X84468554Y-75549529D01*
X84460496Y-75527007D01*
X84454684Y-75503803D01*
X84451174Y-75480142D01*
X84450000Y-75456250D01*
X84450000Y-74543750D01*
X84451174Y-74519858D01*
X84454684Y-74496197D01*
X84460496Y-74472993D01*
X84468554Y-74450471D01*
X84478782Y-74428847D01*
X84491079Y-74408330D01*
X84505329Y-74389117D01*
X84521393Y-74371393D01*
X84539117Y-74355329D01*
X84558330Y-74341079D01*
X84578847Y-74328782D01*
X84600471Y-74318554D01*
X84622993Y-74310496D01*
X84646197Y-74304684D01*
X84669858Y-74301174D01*
X84693750Y-74300000D01*
X85181250Y-74300000D01*
X85205142Y-74301174D01*
X85205142Y-74301174D01*
G37*
D11*
G04 #@! TD*
G04 #@! TO.P,C4,1*
G04 #@! TO.N,Net-(C4-Pad1)*
X84937500Y-75000000D03*
D10*
G04 #@! TO.N,GND*
G04 #@! TO.C,C3*
G36*
X83330142Y-96301174D02*
X83353803Y-96304684D01*
X83377007Y-96310496D01*
X83399529Y-96318554D01*
X83421153Y-96328782D01*
X83441670Y-96341079D01*
X83460883Y-96355329D01*
X83478607Y-96371393D01*
X83494671Y-96389117D01*
X83508921Y-96408330D01*
X83521218Y-96428847D01*
X83531446Y-96450471D01*
X83539504Y-96472993D01*
X83545316Y-96496197D01*
X83548826Y-96519858D01*
X83550000Y-96543750D01*
X83550000Y-97456250D01*
X83548826Y-97480142D01*
X83545316Y-97503803D01*
X83539504Y-97527007D01*
X83531446Y-97549529D01*
X83521218Y-97571153D01*
X83508921Y-97591670D01*
X83494671Y-97610883D01*
X83478607Y-97628607D01*
X83460883Y-97644671D01*
X83441670Y-97658921D01*
X83421153Y-97671218D01*
X83399529Y-97681446D01*
X83377007Y-97689504D01*
X83353803Y-97695316D01*
X83330142Y-97698826D01*
X83306250Y-97700000D01*
X82818750Y-97700000D01*
X82794858Y-97698826D01*
X82771197Y-97695316D01*
X82747993Y-97689504D01*
X82725471Y-97681446D01*
X82703847Y-97671218D01*
X82683330Y-97658921D01*
X82664117Y-97644671D01*
X82646393Y-97628607D01*
X82630329Y-97610883D01*
X82616079Y-97591670D01*
X82603782Y-97571153D01*
X82593554Y-97549529D01*
X82585496Y-97527007D01*
X82579684Y-97503803D01*
X82576174Y-97480142D01*
X82575000Y-97456250D01*
X82575000Y-96543750D01*
X82576174Y-96519858D01*
X82579684Y-96496197D01*
X82585496Y-96472993D01*
X82593554Y-96450471D01*
X82603782Y-96428847D01*
X82616079Y-96408330D01*
X82630329Y-96389117D01*
X82646393Y-96371393D01*
X82664117Y-96355329D01*
X82683330Y-96341079D01*
X82703847Y-96328782D01*
X82725471Y-96318554D01*
X82747993Y-96310496D01*
X82771197Y-96304684D01*
X82794858Y-96301174D01*
X82818750Y-96300000D01*
X83306250Y-96300000D01*
X83330142Y-96301174D01*
X83330142Y-96301174D01*
G37*
D11*
G04 #@! TD*
G04 #@! TO.P,C3,2*
G04 #@! TO.N,GND*
X83062500Y-97000000D03*
D10*
G04 #@! TO.N,Net-(C3-Pad1)*
G04 #@! TO.C,C3*
G36*
X85205142Y-96301174D02*
X85228803Y-96304684D01*
X85252007Y-96310496D01*
X85274529Y-96318554D01*
X85296153Y-96328782D01*
X85316670Y-96341079D01*
X85335883Y-96355329D01*
X85353607Y-96371393D01*
X85369671Y-96389117D01*
X85383921Y-96408330D01*
X85396218Y-96428847D01*
X85406446Y-96450471D01*
X85414504Y-96472993D01*
X85420316Y-96496197D01*
X85423826Y-96519858D01*
X85425000Y-96543750D01*
X85425000Y-97456250D01*
X85423826Y-97480142D01*
X85420316Y-97503803D01*
X85414504Y-97527007D01*
X85406446Y-97549529D01*
X85396218Y-97571153D01*
X85383921Y-97591670D01*
X85369671Y-97610883D01*
X85353607Y-97628607D01*
X85335883Y-97644671D01*
X85316670Y-97658921D01*
X85296153Y-97671218D01*
X85274529Y-97681446D01*
X85252007Y-97689504D01*
X85228803Y-97695316D01*
X85205142Y-97698826D01*
X85181250Y-97700000D01*
X84693750Y-97700000D01*
X84669858Y-97698826D01*
X84646197Y-97695316D01*
X84622993Y-97689504D01*
X84600471Y-97681446D01*
X84578847Y-97671218D01*
X84558330Y-97658921D01*
X84539117Y-97644671D01*
X84521393Y-97628607D01*
X84505329Y-97610883D01*
X84491079Y-97591670D01*
X84478782Y-97571153D01*
X84468554Y-97549529D01*
X84460496Y-97527007D01*
X84454684Y-97503803D01*
X84451174Y-97480142D01*
X84450000Y-97456250D01*
X84450000Y-96543750D01*
X84451174Y-96519858D01*
X84454684Y-96496197D01*
X84460496Y-96472993D01*
X84468554Y-96450471D01*
X84478782Y-96428847D01*
X84491079Y-96408330D01*
X84505329Y-96389117D01*
X84521393Y-96371393D01*
X84539117Y-96355329D01*
X84558330Y-96341079D01*
X84578847Y-96328782D01*
X84600471Y-96318554D01*
X84622993Y-96310496D01*
X84646197Y-96304684D01*
X84669858Y-96301174D01*
X84693750Y-96300000D01*
X85181250Y-96300000D01*
X85205142Y-96301174D01*
X85205142Y-96301174D01*
G37*
D11*
G04 #@! TD*
G04 #@! TO.P,C3,1*
G04 #@! TO.N,Net-(C3-Pad1)*
X84937500Y-97000000D03*
D10*
G04 #@! TO.N,GND*
G04 #@! TO.C,C2*
G36*
X83330142Y-118301174D02*
X83353803Y-118304684D01*
X83377007Y-118310496D01*
X83399529Y-118318554D01*
X83421153Y-118328782D01*
X83441670Y-118341079D01*
X83460883Y-118355329D01*
X83478607Y-118371393D01*
X83494671Y-118389117D01*
X83508921Y-118408330D01*
X83521218Y-118428847D01*
X83531446Y-118450471D01*
X83539504Y-118472993D01*
X83545316Y-118496197D01*
X83548826Y-118519858D01*
X83550000Y-118543750D01*
X83550000Y-119456250D01*
X83548826Y-119480142D01*
X83545316Y-119503803D01*
X83539504Y-119527007D01*
X83531446Y-119549529D01*
X83521218Y-119571153D01*
X83508921Y-119591670D01*
X83494671Y-119610883D01*
X83478607Y-119628607D01*
X83460883Y-119644671D01*
X83441670Y-119658921D01*
X83421153Y-119671218D01*
X83399529Y-119681446D01*
X83377007Y-119689504D01*
X83353803Y-119695316D01*
X83330142Y-119698826D01*
X83306250Y-119700000D01*
X82818750Y-119700000D01*
X82794858Y-119698826D01*
X82771197Y-119695316D01*
X82747993Y-119689504D01*
X82725471Y-119681446D01*
X82703847Y-119671218D01*
X82683330Y-119658921D01*
X82664117Y-119644671D01*
X82646393Y-119628607D01*
X82630329Y-119610883D01*
X82616079Y-119591670D01*
X82603782Y-119571153D01*
X82593554Y-119549529D01*
X82585496Y-119527007D01*
X82579684Y-119503803D01*
X82576174Y-119480142D01*
X82575000Y-119456250D01*
X82575000Y-118543750D01*
X82576174Y-118519858D01*
X82579684Y-118496197D01*
X82585496Y-118472993D01*
X82593554Y-118450471D01*
X82603782Y-118428847D01*
X82616079Y-118408330D01*
X82630329Y-118389117D01*
X82646393Y-118371393D01*
X82664117Y-118355329D01*
X82683330Y-118341079D01*
X82703847Y-118328782D01*
X82725471Y-118318554D01*
X82747993Y-118310496D01*
X82771197Y-118304684D01*
X82794858Y-118301174D01*
X82818750Y-118300000D01*
X83306250Y-118300000D01*
X83330142Y-118301174D01*
X83330142Y-118301174D01*
G37*
D11*
G04 #@! TD*
G04 #@! TO.P,C2,2*
G04 #@! TO.N,GND*
X83062500Y-119000000D03*
D10*
G04 #@! TO.N,Net-(C2-Pad1)*
G04 #@! TO.C,C2*
G36*
X85205142Y-118301174D02*
X85228803Y-118304684D01*
X85252007Y-118310496D01*
X85274529Y-118318554D01*
X85296153Y-118328782D01*
X85316670Y-118341079D01*
X85335883Y-118355329D01*
X85353607Y-118371393D01*
X85369671Y-118389117D01*
X85383921Y-118408330D01*
X85396218Y-118428847D01*
X85406446Y-118450471D01*
X85414504Y-118472993D01*
X85420316Y-118496197D01*
X85423826Y-118519858D01*
X85425000Y-118543750D01*
X85425000Y-119456250D01*
X85423826Y-119480142D01*
X85420316Y-119503803D01*
X85414504Y-119527007D01*
X85406446Y-119549529D01*
X85396218Y-119571153D01*
X85383921Y-119591670D01*
X85369671Y-119610883D01*
X85353607Y-119628607D01*
X85335883Y-119644671D01*
X85316670Y-119658921D01*
X85296153Y-119671218D01*
X85274529Y-119681446D01*
X85252007Y-119689504D01*
X85228803Y-119695316D01*
X85205142Y-119698826D01*
X85181250Y-119700000D01*
X84693750Y-119700000D01*
X84669858Y-119698826D01*
X84646197Y-119695316D01*
X84622993Y-119689504D01*
X84600471Y-119681446D01*
X84578847Y-119671218D01*
X84558330Y-119658921D01*
X84539117Y-119644671D01*
X84521393Y-119628607D01*
X84505329Y-119610883D01*
X84491079Y-119591670D01*
X84478782Y-119571153D01*
X84468554Y-119549529D01*
X84460496Y-119527007D01*
X84454684Y-119503803D01*
X84451174Y-119480142D01*
X84450000Y-119456250D01*
X84450000Y-118543750D01*
X84451174Y-118519858D01*
X84454684Y-118496197D01*
X84460496Y-118472993D01*
X84468554Y-118450471D01*
X84478782Y-118428847D01*
X84491079Y-118408330D01*
X84505329Y-118389117D01*
X84521393Y-118371393D01*
X84539117Y-118355329D01*
X84558330Y-118341079D01*
X84578847Y-118328782D01*
X84600471Y-118318554D01*
X84622993Y-118310496D01*
X84646197Y-118304684D01*
X84669858Y-118301174D01*
X84693750Y-118300000D01*
X85181250Y-118300000D01*
X85205142Y-118301174D01*
X85205142Y-118301174D01*
G37*
D11*
G04 #@! TD*
G04 #@! TO.P,C2,1*
G04 #@! TO.N,Net-(C2-Pad1)*
X84937500Y-119000000D03*
D10*
G04 #@! TO.N,GND*
G04 #@! TO.C,C1*
G36*
X83330142Y-140301174D02*
X83353803Y-140304684D01*
X83377007Y-140310496D01*
X83399529Y-140318554D01*
X83421153Y-140328782D01*
X83441670Y-140341079D01*
X83460883Y-140355329D01*
X83478607Y-140371393D01*
X83494671Y-140389117D01*
X83508921Y-140408330D01*
X83521218Y-140428847D01*
X83531446Y-140450471D01*
X83539504Y-140472993D01*
X83545316Y-140496197D01*
X83548826Y-140519858D01*
X83550000Y-140543750D01*
X83550000Y-141456250D01*
X83548826Y-141480142D01*
X83545316Y-141503803D01*
X83539504Y-141527007D01*
X83531446Y-141549529D01*
X83521218Y-141571153D01*
X83508921Y-141591670D01*
X83494671Y-141610883D01*
X83478607Y-141628607D01*
X83460883Y-141644671D01*
X83441670Y-141658921D01*
X83421153Y-141671218D01*
X83399529Y-141681446D01*
X83377007Y-141689504D01*
X83353803Y-141695316D01*
X83330142Y-141698826D01*
X83306250Y-141700000D01*
X82818750Y-141700000D01*
X82794858Y-141698826D01*
X82771197Y-141695316D01*
X82747993Y-141689504D01*
X82725471Y-141681446D01*
X82703847Y-141671218D01*
X82683330Y-141658921D01*
X82664117Y-141644671D01*
X82646393Y-141628607D01*
X82630329Y-141610883D01*
X82616079Y-141591670D01*
X82603782Y-141571153D01*
X82593554Y-141549529D01*
X82585496Y-141527007D01*
X82579684Y-141503803D01*
X82576174Y-141480142D01*
X82575000Y-141456250D01*
X82575000Y-140543750D01*
X82576174Y-140519858D01*
X82579684Y-140496197D01*
X82585496Y-140472993D01*
X82593554Y-140450471D01*
X82603782Y-140428847D01*
X82616079Y-140408330D01*
X82630329Y-140389117D01*
X82646393Y-140371393D01*
X82664117Y-140355329D01*
X82683330Y-140341079D01*
X82703847Y-140328782D01*
X82725471Y-140318554D01*
X82747993Y-140310496D01*
X82771197Y-140304684D01*
X82794858Y-140301174D01*
X82818750Y-140300000D01*
X83306250Y-140300000D01*
X83330142Y-140301174D01*
X83330142Y-140301174D01*
G37*
D11*
G04 #@! TD*
G04 #@! TO.P,C1,2*
G04 #@! TO.N,GND*
X83062500Y-141000000D03*
D10*
G04 #@! TO.N,Net-(C1-Pad1)*
G04 #@! TO.C,C1*
G36*
X85205142Y-140301174D02*
X85228803Y-140304684D01*
X85252007Y-140310496D01*
X85274529Y-140318554D01*
X85296153Y-140328782D01*
X85316670Y-140341079D01*
X85335883Y-140355329D01*
X85353607Y-140371393D01*
X85369671Y-140389117D01*
X85383921Y-140408330D01*
X85396218Y-140428847D01*
X85406446Y-140450471D01*
X85414504Y-140472993D01*
X85420316Y-140496197D01*
X85423826Y-140519858D01*
X85425000Y-140543750D01*
X85425000Y-141456250D01*
X85423826Y-141480142D01*
X85420316Y-141503803D01*
X85414504Y-141527007D01*
X85406446Y-141549529D01*
X85396218Y-141571153D01*
X85383921Y-141591670D01*
X85369671Y-141610883D01*
X85353607Y-141628607D01*
X85335883Y-141644671D01*
X85316670Y-141658921D01*
X85296153Y-141671218D01*
X85274529Y-141681446D01*
X85252007Y-141689504D01*
X85228803Y-141695316D01*
X85205142Y-141698826D01*
X85181250Y-141700000D01*
X84693750Y-141700000D01*
X84669858Y-141698826D01*
X84646197Y-141695316D01*
X84622993Y-141689504D01*
X84600471Y-141681446D01*
X84578847Y-141671218D01*
X84558330Y-141658921D01*
X84539117Y-141644671D01*
X84521393Y-141628607D01*
X84505329Y-141610883D01*
X84491079Y-141591670D01*
X84478782Y-141571153D01*
X84468554Y-141549529D01*
X84460496Y-141527007D01*
X84454684Y-141503803D01*
X84451174Y-141480142D01*
X84450000Y-141456250D01*
X84450000Y-140543750D01*
X84451174Y-140519858D01*
X84454684Y-140496197D01*
X84460496Y-140472993D01*
X84468554Y-140450471D01*
X84478782Y-140428847D01*
X84491079Y-140408330D01*
X84505329Y-140389117D01*
X84521393Y-140371393D01*
X84539117Y-140355329D01*
X84558330Y-140341079D01*
X84578847Y-140328782D01*
X84600471Y-140318554D01*
X84622993Y-140310496D01*
X84646197Y-140304684D01*
X84669858Y-140301174D01*
X84693750Y-140300000D01*
X85181250Y-140300000D01*
X85205142Y-140301174D01*
X85205142Y-140301174D01*
G37*
D11*
G04 #@! TD*
G04 #@! TO.P,C1,1*
G04 #@! TO.N,Net-(C1-Pad1)*
X84937500Y-141000000D03*
D10*
G04 #@! TO.N,Net-(L16-Pad2)*
G04 #@! TO.C,R16*
G36*
X107730142Y-77138674D02*
X107753803Y-77142184D01*
X107777007Y-77147996D01*
X107799529Y-77156054D01*
X107821153Y-77166282D01*
X107841670Y-77178579D01*
X107860883Y-77192829D01*
X107878607Y-77208893D01*
X107894671Y-77226617D01*
X107908921Y-77245830D01*
X107921218Y-77266347D01*
X107931446Y-77287971D01*
X107939504Y-77310493D01*
X107945316Y-77333697D01*
X107948826Y-77357358D01*
X107950000Y-77381250D01*
X107950000Y-77868750D01*
X107948826Y-77892642D01*
X107945316Y-77916303D01*
X107939504Y-77939507D01*
X107931446Y-77962029D01*
X107921218Y-77983653D01*
X107908921Y-78004170D01*
X107894671Y-78023383D01*
X107878607Y-78041107D01*
X107860883Y-78057171D01*
X107841670Y-78071421D01*
X107821153Y-78083718D01*
X107799529Y-78093946D01*
X107777007Y-78102004D01*
X107753803Y-78107816D01*
X107730142Y-78111326D01*
X107706250Y-78112500D01*
X106793750Y-78112500D01*
X106769858Y-78111326D01*
X106746197Y-78107816D01*
X106722993Y-78102004D01*
X106700471Y-78093946D01*
X106678847Y-78083718D01*
X106658330Y-78071421D01*
X106639117Y-78057171D01*
X106621393Y-78041107D01*
X106605329Y-78023383D01*
X106591079Y-78004170D01*
X106578782Y-77983653D01*
X106568554Y-77962029D01*
X106560496Y-77939507D01*
X106554684Y-77916303D01*
X106551174Y-77892642D01*
X106550000Y-77868750D01*
X106550000Y-77381250D01*
X106551174Y-77357358D01*
X106554684Y-77333697D01*
X106560496Y-77310493D01*
X106568554Y-77287971D01*
X106578782Y-77266347D01*
X106591079Y-77245830D01*
X106605329Y-77226617D01*
X106621393Y-77208893D01*
X106639117Y-77192829D01*
X106658330Y-77178579D01*
X106678847Y-77166282D01*
X106700471Y-77156054D01*
X106722993Y-77147996D01*
X106746197Y-77142184D01*
X106769858Y-77138674D01*
X106793750Y-77137500D01*
X107706250Y-77137500D01*
X107730142Y-77138674D01*
X107730142Y-77138674D01*
G37*
D11*
G04 #@! TD*
G04 #@! TO.P,R16,2*
G04 #@! TO.N,Net-(L16-Pad2)*
X107250000Y-77625000D03*
D10*
G04 #@! TO.N,MIDI_OUT_4*
G04 #@! TO.C,R16*
G36*
X107730142Y-79013674D02*
X107753803Y-79017184D01*
X107777007Y-79022996D01*
X107799529Y-79031054D01*
X107821153Y-79041282D01*
X107841670Y-79053579D01*
X107860883Y-79067829D01*
X107878607Y-79083893D01*
X107894671Y-79101617D01*
X107908921Y-79120830D01*
X107921218Y-79141347D01*
X107931446Y-79162971D01*
X107939504Y-79185493D01*
X107945316Y-79208697D01*
X107948826Y-79232358D01*
X107950000Y-79256250D01*
X107950000Y-79743750D01*
X107948826Y-79767642D01*
X107945316Y-79791303D01*
X107939504Y-79814507D01*
X107931446Y-79837029D01*
X107921218Y-79858653D01*
X107908921Y-79879170D01*
X107894671Y-79898383D01*
X107878607Y-79916107D01*
X107860883Y-79932171D01*
X107841670Y-79946421D01*
X107821153Y-79958718D01*
X107799529Y-79968946D01*
X107777007Y-79977004D01*
X107753803Y-79982816D01*
X107730142Y-79986326D01*
X107706250Y-79987500D01*
X106793750Y-79987500D01*
X106769858Y-79986326D01*
X106746197Y-79982816D01*
X106722993Y-79977004D01*
X106700471Y-79968946D01*
X106678847Y-79958718D01*
X106658330Y-79946421D01*
X106639117Y-79932171D01*
X106621393Y-79916107D01*
X106605329Y-79898383D01*
X106591079Y-79879170D01*
X106578782Y-79858653D01*
X106568554Y-79837029D01*
X106560496Y-79814507D01*
X106554684Y-79791303D01*
X106551174Y-79767642D01*
X106550000Y-79743750D01*
X106550000Y-79256250D01*
X106551174Y-79232358D01*
X106554684Y-79208697D01*
X106560496Y-79185493D01*
X106568554Y-79162971D01*
X106578782Y-79141347D01*
X106591079Y-79120830D01*
X106605329Y-79101617D01*
X106621393Y-79083893D01*
X106639117Y-79067829D01*
X106658330Y-79053579D01*
X106678847Y-79041282D01*
X106700471Y-79031054D01*
X106722993Y-79022996D01*
X106746197Y-79017184D01*
X106769858Y-79013674D01*
X106793750Y-79012500D01*
X107706250Y-79012500D01*
X107730142Y-79013674D01*
X107730142Y-79013674D01*
G37*
D11*
G04 #@! TD*
G04 #@! TO.P,R16,1*
G04 #@! TO.N,MIDI_OUT_4*
X107250000Y-79500000D03*
D10*
G04 #@! TO.N,Net-(L14-Pad2)*
G04 #@! TO.C,R15*
G36*
X107730142Y-99076174D02*
X107753803Y-99079684D01*
X107777007Y-99085496D01*
X107799529Y-99093554D01*
X107821153Y-99103782D01*
X107841670Y-99116079D01*
X107860883Y-99130329D01*
X107878607Y-99146393D01*
X107894671Y-99164117D01*
X107908921Y-99183330D01*
X107921218Y-99203847D01*
X107931446Y-99225471D01*
X107939504Y-99247993D01*
X107945316Y-99271197D01*
X107948826Y-99294858D01*
X107950000Y-99318750D01*
X107950000Y-99806250D01*
X107948826Y-99830142D01*
X107945316Y-99853803D01*
X107939504Y-99877007D01*
X107931446Y-99899529D01*
X107921218Y-99921153D01*
X107908921Y-99941670D01*
X107894671Y-99960883D01*
X107878607Y-99978607D01*
X107860883Y-99994671D01*
X107841670Y-100008921D01*
X107821153Y-100021218D01*
X107799529Y-100031446D01*
X107777007Y-100039504D01*
X107753803Y-100045316D01*
X107730142Y-100048826D01*
X107706250Y-100050000D01*
X106793750Y-100050000D01*
X106769858Y-100048826D01*
X106746197Y-100045316D01*
X106722993Y-100039504D01*
X106700471Y-100031446D01*
X106678847Y-100021218D01*
X106658330Y-100008921D01*
X106639117Y-99994671D01*
X106621393Y-99978607D01*
X106605329Y-99960883D01*
X106591079Y-99941670D01*
X106578782Y-99921153D01*
X106568554Y-99899529D01*
X106560496Y-99877007D01*
X106554684Y-99853803D01*
X106551174Y-99830142D01*
X106550000Y-99806250D01*
X106550000Y-99318750D01*
X106551174Y-99294858D01*
X106554684Y-99271197D01*
X106560496Y-99247993D01*
X106568554Y-99225471D01*
X106578782Y-99203847D01*
X106591079Y-99183330D01*
X106605329Y-99164117D01*
X106621393Y-99146393D01*
X106639117Y-99130329D01*
X106658330Y-99116079D01*
X106678847Y-99103782D01*
X106700471Y-99093554D01*
X106722993Y-99085496D01*
X106746197Y-99079684D01*
X106769858Y-99076174D01*
X106793750Y-99075000D01*
X107706250Y-99075000D01*
X107730142Y-99076174D01*
X107730142Y-99076174D01*
G37*
D11*
G04 #@! TD*
G04 #@! TO.P,R15,2*
G04 #@! TO.N,Net-(L14-Pad2)*
X107250000Y-99562500D03*
D10*
G04 #@! TO.N,MIDI_OUT_3*
G04 #@! TO.C,R15*
G36*
X107730142Y-100951174D02*
X107753803Y-100954684D01*
X107777007Y-100960496D01*
X107799529Y-100968554D01*
X107821153Y-100978782D01*
X107841670Y-100991079D01*
X107860883Y-101005329D01*
X107878607Y-101021393D01*
X107894671Y-101039117D01*
X107908921Y-101058330D01*
X107921218Y-101078847D01*
X107931446Y-101100471D01*
X107939504Y-101122993D01*
X107945316Y-101146197D01*
X107948826Y-101169858D01*
X107950000Y-101193750D01*
X107950000Y-101681250D01*
X107948826Y-101705142D01*
X107945316Y-101728803D01*
X107939504Y-101752007D01*
X107931446Y-101774529D01*
X107921218Y-101796153D01*
X107908921Y-101816670D01*
X107894671Y-101835883D01*
X107878607Y-101853607D01*
X107860883Y-101869671D01*
X107841670Y-101883921D01*
X107821153Y-101896218D01*
X107799529Y-101906446D01*
X107777007Y-101914504D01*
X107753803Y-101920316D01*
X107730142Y-101923826D01*
X107706250Y-101925000D01*
X106793750Y-101925000D01*
X106769858Y-101923826D01*
X106746197Y-101920316D01*
X106722993Y-101914504D01*
X106700471Y-101906446D01*
X106678847Y-101896218D01*
X106658330Y-101883921D01*
X106639117Y-101869671D01*
X106621393Y-101853607D01*
X106605329Y-101835883D01*
X106591079Y-101816670D01*
X106578782Y-101796153D01*
X106568554Y-101774529D01*
X106560496Y-101752007D01*
X106554684Y-101728803D01*
X106551174Y-101705142D01*
X106550000Y-101681250D01*
X106550000Y-101193750D01*
X106551174Y-101169858D01*
X106554684Y-101146197D01*
X106560496Y-101122993D01*
X106568554Y-101100471D01*
X106578782Y-101078847D01*
X106591079Y-101058330D01*
X106605329Y-101039117D01*
X106621393Y-101021393D01*
X106639117Y-101005329D01*
X106658330Y-100991079D01*
X106678847Y-100978782D01*
X106700471Y-100968554D01*
X106722993Y-100960496D01*
X106746197Y-100954684D01*
X106769858Y-100951174D01*
X106793750Y-100950000D01*
X107706250Y-100950000D01*
X107730142Y-100951174D01*
X107730142Y-100951174D01*
G37*
D11*
G04 #@! TD*
G04 #@! TO.P,R15,1*
G04 #@! TO.N,MIDI_OUT_3*
X107250000Y-101437500D03*
D10*
G04 #@! TO.N,Net-(L12-Pad2)*
G04 #@! TO.C,R14*
G36*
X108480142Y-120826174D02*
X108503803Y-120829684D01*
X108527007Y-120835496D01*
X108549529Y-120843554D01*
X108571153Y-120853782D01*
X108591670Y-120866079D01*
X108610883Y-120880329D01*
X108628607Y-120896393D01*
X108644671Y-120914117D01*
X108658921Y-120933330D01*
X108671218Y-120953847D01*
X108681446Y-120975471D01*
X108689504Y-120997993D01*
X108695316Y-121021197D01*
X108698826Y-121044858D01*
X108700000Y-121068750D01*
X108700000Y-121556250D01*
X108698826Y-121580142D01*
X108695316Y-121603803D01*
X108689504Y-121627007D01*
X108681446Y-121649529D01*
X108671218Y-121671153D01*
X108658921Y-121691670D01*
X108644671Y-121710883D01*
X108628607Y-121728607D01*
X108610883Y-121744671D01*
X108591670Y-121758921D01*
X108571153Y-121771218D01*
X108549529Y-121781446D01*
X108527007Y-121789504D01*
X108503803Y-121795316D01*
X108480142Y-121798826D01*
X108456250Y-121800000D01*
X107543750Y-121800000D01*
X107519858Y-121798826D01*
X107496197Y-121795316D01*
X107472993Y-121789504D01*
X107450471Y-121781446D01*
X107428847Y-121771218D01*
X107408330Y-121758921D01*
X107389117Y-121744671D01*
X107371393Y-121728607D01*
X107355329Y-121710883D01*
X107341079Y-121691670D01*
X107328782Y-121671153D01*
X107318554Y-121649529D01*
X107310496Y-121627007D01*
X107304684Y-121603803D01*
X107301174Y-121580142D01*
X107300000Y-121556250D01*
X107300000Y-121068750D01*
X107301174Y-121044858D01*
X107304684Y-121021197D01*
X107310496Y-120997993D01*
X107318554Y-120975471D01*
X107328782Y-120953847D01*
X107341079Y-120933330D01*
X107355329Y-120914117D01*
X107371393Y-120896393D01*
X107389117Y-120880329D01*
X107408330Y-120866079D01*
X107428847Y-120853782D01*
X107450471Y-120843554D01*
X107472993Y-120835496D01*
X107496197Y-120829684D01*
X107519858Y-120826174D01*
X107543750Y-120825000D01*
X108456250Y-120825000D01*
X108480142Y-120826174D01*
X108480142Y-120826174D01*
G37*
D11*
G04 #@! TD*
G04 #@! TO.P,R14,2*
G04 #@! TO.N,Net-(L12-Pad2)*
X108000000Y-121312500D03*
D10*
G04 #@! TO.N,MIDI_OUT_2*
G04 #@! TO.C,R14*
G36*
X108480142Y-122701174D02*
X108503803Y-122704684D01*
X108527007Y-122710496D01*
X108549529Y-122718554D01*
X108571153Y-122728782D01*
X108591670Y-122741079D01*
X108610883Y-122755329D01*
X108628607Y-122771393D01*
X108644671Y-122789117D01*
X108658921Y-122808330D01*
X108671218Y-122828847D01*
X108681446Y-122850471D01*
X108689504Y-122872993D01*
X108695316Y-122896197D01*
X108698826Y-122919858D01*
X108700000Y-122943750D01*
X108700000Y-123431250D01*
X108698826Y-123455142D01*
X108695316Y-123478803D01*
X108689504Y-123502007D01*
X108681446Y-123524529D01*
X108671218Y-123546153D01*
X108658921Y-123566670D01*
X108644671Y-123585883D01*
X108628607Y-123603607D01*
X108610883Y-123619671D01*
X108591670Y-123633921D01*
X108571153Y-123646218D01*
X108549529Y-123656446D01*
X108527007Y-123664504D01*
X108503803Y-123670316D01*
X108480142Y-123673826D01*
X108456250Y-123675000D01*
X107543750Y-123675000D01*
X107519858Y-123673826D01*
X107496197Y-123670316D01*
X107472993Y-123664504D01*
X107450471Y-123656446D01*
X107428847Y-123646218D01*
X107408330Y-123633921D01*
X107389117Y-123619671D01*
X107371393Y-123603607D01*
X107355329Y-123585883D01*
X107341079Y-123566670D01*
X107328782Y-123546153D01*
X107318554Y-123524529D01*
X107310496Y-123502007D01*
X107304684Y-123478803D01*
X107301174Y-123455142D01*
X107300000Y-123431250D01*
X107300000Y-122943750D01*
X107301174Y-122919858D01*
X107304684Y-122896197D01*
X107310496Y-122872993D01*
X107318554Y-122850471D01*
X107328782Y-122828847D01*
X107341079Y-122808330D01*
X107355329Y-122789117D01*
X107371393Y-122771393D01*
X107389117Y-122755329D01*
X107408330Y-122741079D01*
X107428847Y-122728782D01*
X107450471Y-122718554D01*
X107472993Y-122710496D01*
X107496197Y-122704684D01*
X107519858Y-122701174D01*
X107543750Y-122700000D01*
X108456250Y-122700000D01*
X108480142Y-122701174D01*
X108480142Y-122701174D01*
G37*
D11*
G04 #@! TD*
G04 #@! TO.P,R14,1*
G04 #@! TO.N,MIDI_OUT_2*
X108000000Y-123187500D03*
D10*
G04 #@! TO.N,Net-(L10-Pad2)*
G04 #@! TO.C,R13*
G36*
X107730142Y-143076174D02*
X107753803Y-143079684D01*
X107777007Y-143085496D01*
X107799529Y-143093554D01*
X107821153Y-143103782D01*
X107841670Y-143116079D01*
X107860883Y-143130329D01*
X107878607Y-143146393D01*
X107894671Y-143164117D01*
X107908921Y-143183330D01*
X107921218Y-143203847D01*
X107931446Y-143225471D01*
X107939504Y-143247993D01*
X107945316Y-143271197D01*
X107948826Y-143294858D01*
X107950000Y-143318750D01*
X107950000Y-143806250D01*
X107948826Y-143830142D01*
X107945316Y-143853803D01*
X107939504Y-143877007D01*
X107931446Y-143899529D01*
X107921218Y-143921153D01*
X107908921Y-143941670D01*
X107894671Y-143960883D01*
X107878607Y-143978607D01*
X107860883Y-143994671D01*
X107841670Y-144008921D01*
X107821153Y-144021218D01*
X107799529Y-144031446D01*
X107777007Y-144039504D01*
X107753803Y-144045316D01*
X107730142Y-144048826D01*
X107706250Y-144050000D01*
X106793750Y-144050000D01*
X106769858Y-144048826D01*
X106746197Y-144045316D01*
X106722993Y-144039504D01*
X106700471Y-144031446D01*
X106678847Y-144021218D01*
X106658330Y-144008921D01*
X106639117Y-143994671D01*
X106621393Y-143978607D01*
X106605329Y-143960883D01*
X106591079Y-143941670D01*
X106578782Y-143921153D01*
X106568554Y-143899529D01*
X106560496Y-143877007D01*
X106554684Y-143853803D01*
X106551174Y-143830142D01*
X106550000Y-143806250D01*
X106550000Y-143318750D01*
X106551174Y-143294858D01*
X106554684Y-143271197D01*
X106560496Y-143247993D01*
X106568554Y-143225471D01*
X106578782Y-143203847D01*
X106591079Y-143183330D01*
X106605329Y-143164117D01*
X106621393Y-143146393D01*
X106639117Y-143130329D01*
X106658330Y-143116079D01*
X106678847Y-143103782D01*
X106700471Y-143093554D01*
X106722993Y-143085496D01*
X106746197Y-143079684D01*
X106769858Y-143076174D01*
X106793750Y-143075000D01*
X107706250Y-143075000D01*
X107730142Y-143076174D01*
X107730142Y-143076174D01*
G37*
D11*
G04 #@! TD*
G04 #@! TO.P,R13,2*
G04 #@! TO.N,Net-(L10-Pad2)*
X107250000Y-143562500D03*
D10*
G04 #@! TO.N,MIDI_OUT_1*
G04 #@! TO.C,R13*
G36*
X107730142Y-144951174D02*
X107753803Y-144954684D01*
X107777007Y-144960496D01*
X107799529Y-144968554D01*
X107821153Y-144978782D01*
X107841670Y-144991079D01*
X107860883Y-145005329D01*
X107878607Y-145021393D01*
X107894671Y-145039117D01*
X107908921Y-145058330D01*
X107921218Y-145078847D01*
X107931446Y-145100471D01*
X107939504Y-145122993D01*
X107945316Y-145146197D01*
X107948826Y-145169858D01*
X107950000Y-145193750D01*
X107950000Y-145681250D01*
X107948826Y-145705142D01*
X107945316Y-145728803D01*
X107939504Y-145752007D01*
X107931446Y-145774529D01*
X107921218Y-145796153D01*
X107908921Y-145816670D01*
X107894671Y-145835883D01*
X107878607Y-145853607D01*
X107860883Y-145869671D01*
X107841670Y-145883921D01*
X107821153Y-145896218D01*
X107799529Y-145906446D01*
X107777007Y-145914504D01*
X107753803Y-145920316D01*
X107730142Y-145923826D01*
X107706250Y-145925000D01*
X106793750Y-145925000D01*
X106769858Y-145923826D01*
X106746197Y-145920316D01*
X106722993Y-145914504D01*
X106700471Y-145906446D01*
X106678847Y-145896218D01*
X106658330Y-145883921D01*
X106639117Y-145869671D01*
X106621393Y-145853607D01*
X106605329Y-145835883D01*
X106591079Y-145816670D01*
X106578782Y-145796153D01*
X106568554Y-145774529D01*
X106560496Y-145752007D01*
X106554684Y-145728803D01*
X106551174Y-145705142D01*
X106550000Y-145681250D01*
X106550000Y-145193750D01*
X106551174Y-145169858D01*
X106554684Y-145146197D01*
X106560496Y-145122993D01*
X106568554Y-145100471D01*
X106578782Y-145078847D01*
X106591079Y-145058330D01*
X106605329Y-145039117D01*
X106621393Y-145021393D01*
X106639117Y-145005329D01*
X106658330Y-144991079D01*
X106678847Y-144978782D01*
X106700471Y-144968554D01*
X106722993Y-144960496D01*
X106746197Y-144954684D01*
X106769858Y-144951174D01*
X106793750Y-144950000D01*
X107706250Y-144950000D01*
X107730142Y-144951174D01*
X107730142Y-144951174D01*
G37*
D11*
G04 #@! TD*
G04 #@! TO.P,R13,1*
G04 #@! TO.N,MIDI_OUT_1*
X107250000Y-145437500D03*
D10*
G04 #@! TO.N,+3V3*
G04 #@! TO.C,R12*
G36*
X105230142Y-78951174D02*
X105253803Y-78954684D01*
X105277007Y-78960496D01*
X105299529Y-78968554D01*
X105321153Y-78978782D01*
X105341670Y-78991079D01*
X105360883Y-79005329D01*
X105378607Y-79021393D01*
X105394671Y-79039117D01*
X105408921Y-79058330D01*
X105421218Y-79078847D01*
X105431446Y-79100471D01*
X105439504Y-79122993D01*
X105445316Y-79146197D01*
X105448826Y-79169858D01*
X105450000Y-79193750D01*
X105450000Y-79681250D01*
X105448826Y-79705142D01*
X105445316Y-79728803D01*
X105439504Y-79752007D01*
X105431446Y-79774529D01*
X105421218Y-79796153D01*
X105408921Y-79816670D01*
X105394671Y-79835883D01*
X105378607Y-79853607D01*
X105360883Y-79869671D01*
X105341670Y-79883921D01*
X105321153Y-79896218D01*
X105299529Y-79906446D01*
X105277007Y-79914504D01*
X105253803Y-79920316D01*
X105230142Y-79923826D01*
X105206250Y-79925000D01*
X104293750Y-79925000D01*
X104269858Y-79923826D01*
X104246197Y-79920316D01*
X104222993Y-79914504D01*
X104200471Y-79906446D01*
X104178847Y-79896218D01*
X104158330Y-79883921D01*
X104139117Y-79869671D01*
X104121393Y-79853607D01*
X104105329Y-79835883D01*
X104091079Y-79816670D01*
X104078782Y-79796153D01*
X104068554Y-79774529D01*
X104060496Y-79752007D01*
X104054684Y-79728803D01*
X104051174Y-79705142D01*
X104050000Y-79681250D01*
X104050000Y-79193750D01*
X104051174Y-79169858D01*
X104054684Y-79146197D01*
X104060496Y-79122993D01*
X104068554Y-79100471D01*
X104078782Y-79078847D01*
X104091079Y-79058330D01*
X104105329Y-79039117D01*
X104121393Y-79021393D01*
X104139117Y-79005329D01*
X104158330Y-78991079D01*
X104178847Y-78978782D01*
X104200471Y-78968554D01*
X104222993Y-78960496D01*
X104246197Y-78954684D01*
X104269858Y-78951174D01*
X104293750Y-78950000D01*
X105206250Y-78950000D01*
X105230142Y-78951174D01*
X105230142Y-78951174D01*
G37*
D11*
G04 #@! TD*
G04 #@! TO.P,R12,2*
G04 #@! TO.N,+3V3*
X104750000Y-79437500D03*
D10*
G04 #@! TO.N,Net-(L15-Pad1)*
G04 #@! TO.C,R12*
G36*
X105230142Y-77076174D02*
X105253803Y-77079684D01*
X105277007Y-77085496D01*
X105299529Y-77093554D01*
X105321153Y-77103782D01*
X105341670Y-77116079D01*
X105360883Y-77130329D01*
X105378607Y-77146393D01*
X105394671Y-77164117D01*
X105408921Y-77183330D01*
X105421218Y-77203847D01*
X105431446Y-77225471D01*
X105439504Y-77247993D01*
X105445316Y-77271197D01*
X105448826Y-77294858D01*
X105450000Y-77318750D01*
X105450000Y-77806250D01*
X105448826Y-77830142D01*
X105445316Y-77853803D01*
X105439504Y-77877007D01*
X105431446Y-77899529D01*
X105421218Y-77921153D01*
X105408921Y-77941670D01*
X105394671Y-77960883D01*
X105378607Y-77978607D01*
X105360883Y-77994671D01*
X105341670Y-78008921D01*
X105321153Y-78021218D01*
X105299529Y-78031446D01*
X105277007Y-78039504D01*
X105253803Y-78045316D01*
X105230142Y-78048826D01*
X105206250Y-78050000D01*
X104293750Y-78050000D01*
X104269858Y-78048826D01*
X104246197Y-78045316D01*
X104222993Y-78039504D01*
X104200471Y-78031446D01*
X104178847Y-78021218D01*
X104158330Y-78008921D01*
X104139117Y-77994671D01*
X104121393Y-77978607D01*
X104105329Y-77960883D01*
X104091079Y-77941670D01*
X104078782Y-77921153D01*
X104068554Y-77899529D01*
X104060496Y-77877007D01*
X104054684Y-77853803D01*
X104051174Y-77830142D01*
X104050000Y-77806250D01*
X104050000Y-77318750D01*
X104051174Y-77294858D01*
X104054684Y-77271197D01*
X104060496Y-77247993D01*
X104068554Y-77225471D01*
X104078782Y-77203847D01*
X104091079Y-77183330D01*
X104105329Y-77164117D01*
X104121393Y-77146393D01*
X104139117Y-77130329D01*
X104158330Y-77116079D01*
X104178847Y-77103782D01*
X104200471Y-77093554D01*
X104222993Y-77085496D01*
X104246197Y-77079684D01*
X104269858Y-77076174D01*
X104293750Y-77075000D01*
X105206250Y-77075000D01*
X105230142Y-77076174D01*
X105230142Y-77076174D01*
G37*
D11*
G04 #@! TD*
G04 #@! TO.P,R12,1*
G04 #@! TO.N,Net-(L15-Pad1)*
X104750000Y-77562500D03*
D10*
G04 #@! TO.N,+3V3*
G04 #@! TO.C,R11*
G36*
X105230142Y-100951174D02*
X105253803Y-100954684D01*
X105277007Y-100960496D01*
X105299529Y-100968554D01*
X105321153Y-100978782D01*
X105341670Y-100991079D01*
X105360883Y-101005329D01*
X105378607Y-101021393D01*
X105394671Y-101039117D01*
X105408921Y-101058330D01*
X105421218Y-101078847D01*
X105431446Y-101100471D01*
X105439504Y-101122993D01*
X105445316Y-101146197D01*
X105448826Y-101169858D01*
X105450000Y-101193750D01*
X105450000Y-101681250D01*
X105448826Y-101705142D01*
X105445316Y-101728803D01*
X105439504Y-101752007D01*
X105431446Y-101774529D01*
X105421218Y-101796153D01*
X105408921Y-101816670D01*
X105394671Y-101835883D01*
X105378607Y-101853607D01*
X105360883Y-101869671D01*
X105341670Y-101883921D01*
X105321153Y-101896218D01*
X105299529Y-101906446D01*
X105277007Y-101914504D01*
X105253803Y-101920316D01*
X105230142Y-101923826D01*
X105206250Y-101925000D01*
X104293750Y-101925000D01*
X104269858Y-101923826D01*
X104246197Y-101920316D01*
X104222993Y-101914504D01*
X104200471Y-101906446D01*
X104178847Y-101896218D01*
X104158330Y-101883921D01*
X104139117Y-101869671D01*
X104121393Y-101853607D01*
X104105329Y-101835883D01*
X104091079Y-101816670D01*
X104078782Y-101796153D01*
X104068554Y-101774529D01*
X104060496Y-101752007D01*
X104054684Y-101728803D01*
X104051174Y-101705142D01*
X104050000Y-101681250D01*
X104050000Y-101193750D01*
X104051174Y-101169858D01*
X104054684Y-101146197D01*
X104060496Y-101122993D01*
X104068554Y-101100471D01*
X104078782Y-101078847D01*
X104091079Y-101058330D01*
X104105329Y-101039117D01*
X104121393Y-101021393D01*
X104139117Y-101005329D01*
X104158330Y-100991079D01*
X104178847Y-100978782D01*
X104200471Y-100968554D01*
X104222993Y-100960496D01*
X104246197Y-100954684D01*
X104269858Y-100951174D01*
X104293750Y-100950000D01*
X105206250Y-100950000D01*
X105230142Y-100951174D01*
X105230142Y-100951174D01*
G37*
D11*
G04 #@! TD*
G04 #@! TO.P,R11,2*
G04 #@! TO.N,+3V3*
X104750000Y-101437500D03*
D10*
G04 #@! TO.N,Net-(L13-Pad1)*
G04 #@! TO.C,R11*
G36*
X105230142Y-99076174D02*
X105253803Y-99079684D01*
X105277007Y-99085496D01*
X105299529Y-99093554D01*
X105321153Y-99103782D01*
X105341670Y-99116079D01*
X105360883Y-99130329D01*
X105378607Y-99146393D01*
X105394671Y-99164117D01*
X105408921Y-99183330D01*
X105421218Y-99203847D01*
X105431446Y-99225471D01*
X105439504Y-99247993D01*
X105445316Y-99271197D01*
X105448826Y-99294858D01*
X105450000Y-99318750D01*
X105450000Y-99806250D01*
X105448826Y-99830142D01*
X105445316Y-99853803D01*
X105439504Y-99877007D01*
X105431446Y-99899529D01*
X105421218Y-99921153D01*
X105408921Y-99941670D01*
X105394671Y-99960883D01*
X105378607Y-99978607D01*
X105360883Y-99994671D01*
X105341670Y-100008921D01*
X105321153Y-100021218D01*
X105299529Y-100031446D01*
X105277007Y-100039504D01*
X105253803Y-100045316D01*
X105230142Y-100048826D01*
X105206250Y-100050000D01*
X104293750Y-100050000D01*
X104269858Y-100048826D01*
X104246197Y-100045316D01*
X104222993Y-100039504D01*
X104200471Y-100031446D01*
X104178847Y-100021218D01*
X104158330Y-100008921D01*
X104139117Y-99994671D01*
X104121393Y-99978607D01*
X104105329Y-99960883D01*
X104091079Y-99941670D01*
X104078782Y-99921153D01*
X104068554Y-99899529D01*
X104060496Y-99877007D01*
X104054684Y-99853803D01*
X104051174Y-99830142D01*
X104050000Y-99806250D01*
X104050000Y-99318750D01*
X104051174Y-99294858D01*
X104054684Y-99271197D01*
X104060496Y-99247993D01*
X104068554Y-99225471D01*
X104078782Y-99203847D01*
X104091079Y-99183330D01*
X104105329Y-99164117D01*
X104121393Y-99146393D01*
X104139117Y-99130329D01*
X104158330Y-99116079D01*
X104178847Y-99103782D01*
X104200471Y-99093554D01*
X104222993Y-99085496D01*
X104246197Y-99079684D01*
X104269858Y-99076174D01*
X104293750Y-99075000D01*
X105206250Y-99075000D01*
X105230142Y-99076174D01*
X105230142Y-99076174D01*
G37*
D11*
G04 #@! TD*
G04 #@! TO.P,R11,1*
G04 #@! TO.N,Net-(L13-Pad1)*
X104750000Y-99562500D03*
D10*
G04 #@! TO.N,+3V3*
G04 #@! TO.C,R10*
G36*
X104480142Y-122701174D02*
X104503803Y-122704684D01*
X104527007Y-122710496D01*
X104549529Y-122718554D01*
X104571153Y-122728782D01*
X104591670Y-122741079D01*
X104610883Y-122755329D01*
X104628607Y-122771393D01*
X104644671Y-122789117D01*
X104658921Y-122808330D01*
X104671218Y-122828847D01*
X104681446Y-122850471D01*
X104689504Y-122872993D01*
X104695316Y-122896197D01*
X104698826Y-122919858D01*
X104700000Y-122943750D01*
X104700000Y-123431250D01*
X104698826Y-123455142D01*
X104695316Y-123478803D01*
X104689504Y-123502007D01*
X104681446Y-123524529D01*
X104671218Y-123546153D01*
X104658921Y-123566670D01*
X104644671Y-123585883D01*
X104628607Y-123603607D01*
X104610883Y-123619671D01*
X104591670Y-123633921D01*
X104571153Y-123646218D01*
X104549529Y-123656446D01*
X104527007Y-123664504D01*
X104503803Y-123670316D01*
X104480142Y-123673826D01*
X104456250Y-123675000D01*
X103543750Y-123675000D01*
X103519858Y-123673826D01*
X103496197Y-123670316D01*
X103472993Y-123664504D01*
X103450471Y-123656446D01*
X103428847Y-123646218D01*
X103408330Y-123633921D01*
X103389117Y-123619671D01*
X103371393Y-123603607D01*
X103355329Y-123585883D01*
X103341079Y-123566670D01*
X103328782Y-123546153D01*
X103318554Y-123524529D01*
X103310496Y-123502007D01*
X103304684Y-123478803D01*
X103301174Y-123455142D01*
X103300000Y-123431250D01*
X103300000Y-122943750D01*
X103301174Y-122919858D01*
X103304684Y-122896197D01*
X103310496Y-122872993D01*
X103318554Y-122850471D01*
X103328782Y-122828847D01*
X103341079Y-122808330D01*
X103355329Y-122789117D01*
X103371393Y-122771393D01*
X103389117Y-122755329D01*
X103408330Y-122741079D01*
X103428847Y-122728782D01*
X103450471Y-122718554D01*
X103472993Y-122710496D01*
X103496197Y-122704684D01*
X103519858Y-122701174D01*
X103543750Y-122700000D01*
X104456250Y-122700000D01*
X104480142Y-122701174D01*
X104480142Y-122701174D01*
G37*
D11*
G04 #@! TD*
G04 #@! TO.P,R10,2*
G04 #@! TO.N,+3V3*
X104000000Y-123187500D03*
D10*
G04 #@! TO.N,Net-(L11-Pad1)*
G04 #@! TO.C,R10*
G36*
X104480142Y-120826174D02*
X104503803Y-120829684D01*
X104527007Y-120835496D01*
X104549529Y-120843554D01*
X104571153Y-120853782D01*
X104591670Y-120866079D01*
X104610883Y-120880329D01*
X104628607Y-120896393D01*
X104644671Y-120914117D01*
X104658921Y-120933330D01*
X104671218Y-120953847D01*
X104681446Y-120975471D01*
X104689504Y-120997993D01*
X104695316Y-121021197D01*
X104698826Y-121044858D01*
X104700000Y-121068750D01*
X104700000Y-121556250D01*
X104698826Y-121580142D01*
X104695316Y-121603803D01*
X104689504Y-121627007D01*
X104681446Y-121649529D01*
X104671218Y-121671153D01*
X104658921Y-121691670D01*
X104644671Y-121710883D01*
X104628607Y-121728607D01*
X104610883Y-121744671D01*
X104591670Y-121758921D01*
X104571153Y-121771218D01*
X104549529Y-121781446D01*
X104527007Y-121789504D01*
X104503803Y-121795316D01*
X104480142Y-121798826D01*
X104456250Y-121800000D01*
X103543750Y-121800000D01*
X103519858Y-121798826D01*
X103496197Y-121795316D01*
X103472993Y-121789504D01*
X103450471Y-121781446D01*
X103428847Y-121771218D01*
X103408330Y-121758921D01*
X103389117Y-121744671D01*
X103371393Y-121728607D01*
X103355329Y-121710883D01*
X103341079Y-121691670D01*
X103328782Y-121671153D01*
X103318554Y-121649529D01*
X103310496Y-121627007D01*
X103304684Y-121603803D01*
X103301174Y-121580142D01*
X103300000Y-121556250D01*
X103300000Y-121068750D01*
X103301174Y-121044858D01*
X103304684Y-121021197D01*
X103310496Y-120997993D01*
X103318554Y-120975471D01*
X103328782Y-120953847D01*
X103341079Y-120933330D01*
X103355329Y-120914117D01*
X103371393Y-120896393D01*
X103389117Y-120880329D01*
X103408330Y-120866079D01*
X103428847Y-120853782D01*
X103450471Y-120843554D01*
X103472993Y-120835496D01*
X103496197Y-120829684D01*
X103519858Y-120826174D01*
X103543750Y-120825000D01*
X104456250Y-120825000D01*
X104480142Y-120826174D01*
X104480142Y-120826174D01*
G37*
D11*
G04 #@! TD*
G04 #@! TO.P,R10,1*
G04 #@! TO.N,Net-(L11-Pad1)*
X104000000Y-121312500D03*
D10*
G04 #@! TO.N,+3V3*
G04 #@! TO.C,R9*
G36*
X105230142Y-144951174D02*
X105253803Y-144954684D01*
X105277007Y-144960496D01*
X105299529Y-144968554D01*
X105321153Y-144978782D01*
X105341670Y-144991079D01*
X105360883Y-145005329D01*
X105378607Y-145021393D01*
X105394671Y-145039117D01*
X105408921Y-145058330D01*
X105421218Y-145078847D01*
X105431446Y-145100471D01*
X105439504Y-145122993D01*
X105445316Y-145146197D01*
X105448826Y-145169858D01*
X105450000Y-145193750D01*
X105450000Y-145681250D01*
X105448826Y-145705142D01*
X105445316Y-145728803D01*
X105439504Y-145752007D01*
X105431446Y-145774529D01*
X105421218Y-145796153D01*
X105408921Y-145816670D01*
X105394671Y-145835883D01*
X105378607Y-145853607D01*
X105360883Y-145869671D01*
X105341670Y-145883921D01*
X105321153Y-145896218D01*
X105299529Y-145906446D01*
X105277007Y-145914504D01*
X105253803Y-145920316D01*
X105230142Y-145923826D01*
X105206250Y-145925000D01*
X104293750Y-145925000D01*
X104269858Y-145923826D01*
X104246197Y-145920316D01*
X104222993Y-145914504D01*
X104200471Y-145906446D01*
X104178847Y-145896218D01*
X104158330Y-145883921D01*
X104139117Y-145869671D01*
X104121393Y-145853607D01*
X104105329Y-145835883D01*
X104091079Y-145816670D01*
X104078782Y-145796153D01*
X104068554Y-145774529D01*
X104060496Y-145752007D01*
X104054684Y-145728803D01*
X104051174Y-145705142D01*
X104050000Y-145681250D01*
X104050000Y-145193750D01*
X104051174Y-145169858D01*
X104054684Y-145146197D01*
X104060496Y-145122993D01*
X104068554Y-145100471D01*
X104078782Y-145078847D01*
X104091079Y-145058330D01*
X104105329Y-145039117D01*
X104121393Y-145021393D01*
X104139117Y-145005329D01*
X104158330Y-144991079D01*
X104178847Y-144978782D01*
X104200471Y-144968554D01*
X104222993Y-144960496D01*
X104246197Y-144954684D01*
X104269858Y-144951174D01*
X104293750Y-144950000D01*
X105206250Y-144950000D01*
X105230142Y-144951174D01*
X105230142Y-144951174D01*
G37*
D11*
G04 #@! TD*
G04 #@! TO.P,R9,2*
G04 #@! TO.N,+3V3*
X104750000Y-145437500D03*
D10*
G04 #@! TO.N,Net-(L9-Pad1)*
G04 #@! TO.C,R9*
G36*
X105230142Y-143076174D02*
X105253803Y-143079684D01*
X105277007Y-143085496D01*
X105299529Y-143093554D01*
X105321153Y-143103782D01*
X105341670Y-143116079D01*
X105360883Y-143130329D01*
X105378607Y-143146393D01*
X105394671Y-143164117D01*
X105408921Y-143183330D01*
X105421218Y-143203847D01*
X105431446Y-143225471D01*
X105439504Y-143247993D01*
X105445316Y-143271197D01*
X105448826Y-143294858D01*
X105450000Y-143318750D01*
X105450000Y-143806250D01*
X105448826Y-143830142D01*
X105445316Y-143853803D01*
X105439504Y-143877007D01*
X105431446Y-143899529D01*
X105421218Y-143921153D01*
X105408921Y-143941670D01*
X105394671Y-143960883D01*
X105378607Y-143978607D01*
X105360883Y-143994671D01*
X105341670Y-144008921D01*
X105321153Y-144021218D01*
X105299529Y-144031446D01*
X105277007Y-144039504D01*
X105253803Y-144045316D01*
X105230142Y-144048826D01*
X105206250Y-144050000D01*
X104293750Y-144050000D01*
X104269858Y-144048826D01*
X104246197Y-144045316D01*
X104222993Y-144039504D01*
X104200471Y-144031446D01*
X104178847Y-144021218D01*
X104158330Y-144008921D01*
X104139117Y-143994671D01*
X104121393Y-143978607D01*
X104105329Y-143960883D01*
X104091079Y-143941670D01*
X104078782Y-143921153D01*
X104068554Y-143899529D01*
X104060496Y-143877007D01*
X104054684Y-143853803D01*
X104051174Y-143830142D01*
X104050000Y-143806250D01*
X104050000Y-143318750D01*
X104051174Y-143294858D01*
X104054684Y-143271197D01*
X104060496Y-143247993D01*
X104068554Y-143225471D01*
X104078782Y-143203847D01*
X104091079Y-143183330D01*
X104105329Y-143164117D01*
X104121393Y-143146393D01*
X104139117Y-143130329D01*
X104158330Y-143116079D01*
X104178847Y-143103782D01*
X104200471Y-143093554D01*
X104222993Y-143085496D01*
X104246197Y-143079684D01*
X104269858Y-143076174D01*
X104293750Y-143075000D01*
X105206250Y-143075000D01*
X105230142Y-143076174D01*
X105230142Y-143076174D01*
G37*
D11*
G04 #@! TD*
G04 #@! TO.P,R9,1*
G04 #@! TO.N,Net-(L9-Pad1)*
X104750000Y-143562500D03*
D10*
G04 #@! TO.N,+3V3*
G04 #@! TO.C,R8*
G36*
X103205142Y-103301174D02*
X103228803Y-103304684D01*
X103252007Y-103310496D01*
X103274529Y-103318554D01*
X103296153Y-103328782D01*
X103316670Y-103341079D01*
X103335883Y-103355329D01*
X103353607Y-103371393D01*
X103369671Y-103389117D01*
X103383921Y-103408330D01*
X103396218Y-103428847D01*
X103406446Y-103450471D01*
X103414504Y-103472993D01*
X103420316Y-103496197D01*
X103423826Y-103519858D01*
X103425000Y-103543750D01*
X103425000Y-104456250D01*
X103423826Y-104480142D01*
X103420316Y-104503803D01*
X103414504Y-104527007D01*
X103406446Y-104549529D01*
X103396218Y-104571153D01*
X103383921Y-104591670D01*
X103369671Y-104610883D01*
X103353607Y-104628607D01*
X103335883Y-104644671D01*
X103316670Y-104658921D01*
X103296153Y-104671218D01*
X103274529Y-104681446D01*
X103252007Y-104689504D01*
X103228803Y-104695316D01*
X103205142Y-104698826D01*
X103181250Y-104700000D01*
X102693750Y-104700000D01*
X102669858Y-104698826D01*
X102646197Y-104695316D01*
X102622993Y-104689504D01*
X102600471Y-104681446D01*
X102578847Y-104671218D01*
X102558330Y-104658921D01*
X102539117Y-104644671D01*
X102521393Y-104628607D01*
X102505329Y-104610883D01*
X102491079Y-104591670D01*
X102478782Y-104571153D01*
X102468554Y-104549529D01*
X102460496Y-104527007D01*
X102454684Y-104503803D01*
X102451174Y-104480142D01*
X102450000Y-104456250D01*
X102450000Y-103543750D01*
X102451174Y-103519858D01*
X102454684Y-103496197D01*
X102460496Y-103472993D01*
X102468554Y-103450471D01*
X102478782Y-103428847D01*
X102491079Y-103408330D01*
X102505329Y-103389117D01*
X102521393Y-103371393D01*
X102539117Y-103355329D01*
X102558330Y-103341079D01*
X102578847Y-103328782D01*
X102600471Y-103318554D01*
X102622993Y-103310496D01*
X102646197Y-103304684D01*
X102669858Y-103301174D01*
X102693750Y-103300000D01*
X103181250Y-103300000D01*
X103205142Y-103301174D01*
X103205142Y-103301174D01*
G37*
D11*
G04 #@! TD*
G04 #@! TO.P,R8,2*
G04 #@! TO.N,+3V3*
X102937500Y-104000000D03*
D10*
G04 #@! TO.N,MIDI_IN_4*
G04 #@! TO.C,R8*
G36*
X101330142Y-103301174D02*
X101353803Y-103304684D01*
X101377007Y-103310496D01*
X101399529Y-103318554D01*
X101421153Y-103328782D01*
X101441670Y-103341079D01*
X101460883Y-103355329D01*
X101478607Y-103371393D01*
X101494671Y-103389117D01*
X101508921Y-103408330D01*
X101521218Y-103428847D01*
X101531446Y-103450471D01*
X101539504Y-103472993D01*
X101545316Y-103496197D01*
X101548826Y-103519858D01*
X101550000Y-103543750D01*
X101550000Y-104456250D01*
X101548826Y-104480142D01*
X101545316Y-104503803D01*
X101539504Y-104527007D01*
X101531446Y-104549529D01*
X101521218Y-104571153D01*
X101508921Y-104591670D01*
X101494671Y-104610883D01*
X101478607Y-104628607D01*
X101460883Y-104644671D01*
X101441670Y-104658921D01*
X101421153Y-104671218D01*
X101399529Y-104681446D01*
X101377007Y-104689504D01*
X101353803Y-104695316D01*
X101330142Y-104698826D01*
X101306250Y-104700000D01*
X100818750Y-104700000D01*
X100794858Y-104698826D01*
X100771197Y-104695316D01*
X100747993Y-104689504D01*
X100725471Y-104681446D01*
X100703847Y-104671218D01*
X100683330Y-104658921D01*
X100664117Y-104644671D01*
X100646393Y-104628607D01*
X100630329Y-104610883D01*
X100616079Y-104591670D01*
X100603782Y-104571153D01*
X100593554Y-104549529D01*
X100585496Y-104527007D01*
X100579684Y-104503803D01*
X100576174Y-104480142D01*
X100575000Y-104456250D01*
X100575000Y-103543750D01*
X100576174Y-103519858D01*
X100579684Y-103496197D01*
X100585496Y-103472993D01*
X100593554Y-103450471D01*
X100603782Y-103428847D01*
X100616079Y-103408330D01*
X100630329Y-103389117D01*
X100646393Y-103371393D01*
X100664117Y-103355329D01*
X100683330Y-103341079D01*
X100703847Y-103328782D01*
X100725471Y-103318554D01*
X100747993Y-103310496D01*
X100771197Y-103304684D01*
X100794858Y-103301174D01*
X100818750Y-103300000D01*
X101306250Y-103300000D01*
X101330142Y-103301174D01*
X101330142Y-103301174D01*
G37*
D11*
G04 #@! TD*
G04 #@! TO.P,R8,1*
G04 #@! TO.N,MIDI_IN_4*
X101062500Y-104000000D03*
D10*
G04 #@! TO.N,+3V3*
G04 #@! TO.C,R7*
G36*
X103205142Y-105301174D02*
X103228803Y-105304684D01*
X103252007Y-105310496D01*
X103274529Y-105318554D01*
X103296153Y-105328782D01*
X103316670Y-105341079D01*
X103335883Y-105355329D01*
X103353607Y-105371393D01*
X103369671Y-105389117D01*
X103383921Y-105408330D01*
X103396218Y-105428847D01*
X103406446Y-105450471D01*
X103414504Y-105472993D01*
X103420316Y-105496197D01*
X103423826Y-105519858D01*
X103425000Y-105543750D01*
X103425000Y-106456250D01*
X103423826Y-106480142D01*
X103420316Y-106503803D01*
X103414504Y-106527007D01*
X103406446Y-106549529D01*
X103396218Y-106571153D01*
X103383921Y-106591670D01*
X103369671Y-106610883D01*
X103353607Y-106628607D01*
X103335883Y-106644671D01*
X103316670Y-106658921D01*
X103296153Y-106671218D01*
X103274529Y-106681446D01*
X103252007Y-106689504D01*
X103228803Y-106695316D01*
X103205142Y-106698826D01*
X103181250Y-106700000D01*
X102693750Y-106700000D01*
X102669858Y-106698826D01*
X102646197Y-106695316D01*
X102622993Y-106689504D01*
X102600471Y-106681446D01*
X102578847Y-106671218D01*
X102558330Y-106658921D01*
X102539117Y-106644671D01*
X102521393Y-106628607D01*
X102505329Y-106610883D01*
X102491079Y-106591670D01*
X102478782Y-106571153D01*
X102468554Y-106549529D01*
X102460496Y-106527007D01*
X102454684Y-106503803D01*
X102451174Y-106480142D01*
X102450000Y-106456250D01*
X102450000Y-105543750D01*
X102451174Y-105519858D01*
X102454684Y-105496197D01*
X102460496Y-105472993D01*
X102468554Y-105450471D01*
X102478782Y-105428847D01*
X102491079Y-105408330D01*
X102505329Y-105389117D01*
X102521393Y-105371393D01*
X102539117Y-105355329D01*
X102558330Y-105341079D01*
X102578847Y-105328782D01*
X102600471Y-105318554D01*
X102622993Y-105310496D01*
X102646197Y-105304684D01*
X102669858Y-105301174D01*
X102693750Y-105300000D01*
X103181250Y-105300000D01*
X103205142Y-105301174D01*
X103205142Y-105301174D01*
G37*
D11*
G04 #@! TD*
G04 #@! TO.P,R7,2*
G04 #@! TO.N,+3V3*
X102937500Y-106000000D03*
D10*
G04 #@! TO.N,MIDI_IN_3*
G04 #@! TO.C,R7*
G36*
X101330142Y-105301174D02*
X101353803Y-105304684D01*
X101377007Y-105310496D01*
X101399529Y-105318554D01*
X101421153Y-105328782D01*
X101441670Y-105341079D01*
X101460883Y-105355329D01*
X101478607Y-105371393D01*
X101494671Y-105389117D01*
X101508921Y-105408330D01*
X101521218Y-105428847D01*
X101531446Y-105450471D01*
X101539504Y-105472993D01*
X101545316Y-105496197D01*
X101548826Y-105519858D01*
X101550000Y-105543750D01*
X101550000Y-106456250D01*
X101548826Y-106480142D01*
X101545316Y-106503803D01*
X101539504Y-106527007D01*
X101531446Y-106549529D01*
X101521218Y-106571153D01*
X101508921Y-106591670D01*
X101494671Y-106610883D01*
X101478607Y-106628607D01*
X101460883Y-106644671D01*
X101441670Y-106658921D01*
X101421153Y-106671218D01*
X101399529Y-106681446D01*
X101377007Y-106689504D01*
X101353803Y-106695316D01*
X101330142Y-106698826D01*
X101306250Y-106700000D01*
X100818750Y-106700000D01*
X100794858Y-106698826D01*
X100771197Y-106695316D01*
X100747993Y-106689504D01*
X100725471Y-106681446D01*
X100703847Y-106671218D01*
X100683330Y-106658921D01*
X100664117Y-106644671D01*
X100646393Y-106628607D01*
X100630329Y-106610883D01*
X100616079Y-106591670D01*
X100603782Y-106571153D01*
X100593554Y-106549529D01*
X100585496Y-106527007D01*
X100579684Y-106503803D01*
X100576174Y-106480142D01*
X100575000Y-106456250D01*
X100575000Y-105543750D01*
X100576174Y-105519858D01*
X100579684Y-105496197D01*
X100585496Y-105472993D01*
X100593554Y-105450471D01*
X100603782Y-105428847D01*
X100616079Y-105408330D01*
X100630329Y-105389117D01*
X100646393Y-105371393D01*
X100664117Y-105355329D01*
X100683330Y-105341079D01*
X100703847Y-105328782D01*
X100725471Y-105318554D01*
X100747993Y-105310496D01*
X100771197Y-105304684D01*
X100794858Y-105301174D01*
X100818750Y-105300000D01*
X101306250Y-105300000D01*
X101330142Y-105301174D01*
X101330142Y-105301174D01*
G37*
D11*
G04 #@! TD*
G04 #@! TO.P,R7,1*
G04 #@! TO.N,MIDI_IN_3*
X101062500Y-106000000D03*
D10*
G04 #@! TO.N,+3V3*
G04 #@! TO.C,R6*
G36*
X103205142Y-107301174D02*
X103228803Y-107304684D01*
X103252007Y-107310496D01*
X103274529Y-107318554D01*
X103296153Y-107328782D01*
X103316670Y-107341079D01*
X103335883Y-107355329D01*
X103353607Y-107371393D01*
X103369671Y-107389117D01*
X103383921Y-107408330D01*
X103396218Y-107428847D01*
X103406446Y-107450471D01*
X103414504Y-107472993D01*
X103420316Y-107496197D01*
X103423826Y-107519858D01*
X103425000Y-107543750D01*
X103425000Y-108456250D01*
X103423826Y-108480142D01*
X103420316Y-108503803D01*
X103414504Y-108527007D01*
X103406446Y-108549529D01*
X103396218Y-108571153D01*
X103383921Y-108591670D01*
X103369671Y-108610883D01*
X103353607Y-108628607D01*
X103335883Y-108644671D01*
X103316670Y-108658921D01*
X103296153Y-108671218D01*
X103274529Y-108681446D01*
X103252007Y-108689504D01*
X103228803Y-108695316D01*
X103205142Y-108698826D01*
X103181250Y-108700000D01*
X102693750Y-108700000D01*
X102669858Y-108698826D01*
X102646197Y-108695316D01*
X102622993Y-108689504D01*
X102600471Y-108681446D01*
X102578847Y-108671218D01*
X102558330Y-108658921D01*
X102539117Y-108644671D01*
X102521393Y-108628607D01*
X102505329Y-108610883D01*
X102491079Y-108591670D01*
X102478782Y-108571153D01*
X102468554Y-108549529D01*
X102460496Y-108527007D01*
X102454684Y-108503803D01*
X102451174Y-108480142D01*
X102450000Y-108456250D01*
X102450000Y-107543750D01*
X102451174Y-107519858D01*
X102454684Y-107496197D01*
X102460496Y-107472993D01*
X102468554Y-107450471D01*
X102478782Y-107428847D01*
X102491079Y-107408330D01*
X102505329Y-107389117D01*
X102521393Y-107371393D01*
X102539117Y-107355329D01*
X102558330Y-107341079D01*
X102578847Y-107328782D01*
X102600471Y-107318554D01*
X102622993Y-107310496D01*
X102646197Y-107304684D01*
X102669858Y-107301174D01*
X102693750Y-107300000D01*
X103181250Y-107300000D01*
X103205142Y-107301174D01*
X103205142Y-107301174D01*
G37*
D11*
G04 #@! TD*
G04 #@! TO.P,R6,2*
G04 #@! TO.N,+3V3*
X102937500Y-108000000D03*
D10*
G04 #@! TO.N,MIDI_IN_2*
G04 #@! TO.C,R6*
G36*
X101330142Y-107301174D02*
X101353803Y-107304684D01*
X101377007Y-107310496D01*
X101399529Y-107318554D01*
X101421153Y-107328782D01*
X101441670Y-107341079D01*
X101460883Y-107355329D01*
X101478607Y-107371393D01*
X101494671Y-107389117D01*
X101508921Y-107408330D01*
X101521218Y-107428847D01*
X101531446Y-107450471D01*
X101539504Y-107472993D01*
X101545316Y-107496197D01*
X101548826Y-107519858D01*
X101550000Y-107543750D01*
X101550000Y-108456250D01*
X101548826Y-108480142D01*
X101545316Y-108503803D01*
X101539504Y-108527007D01*
X101531446Y-108549529D01*
X101521218Y-108571153D01*
X101508921Y-108591670D01*
X101494671Y-108610883D01*
X101478607Y-108628607D01*
X101460883Y-108644671D01*
X101441670Y-108658921D01*
X101421153Y-108671218D01*
X101399529Y-108681446D01*
X101377007Y-108689504D01*
X101353803Y-108695316D01*
X101330142Y-108698826D01*
X101306250Y-108700000D01*
X100818750Y-108700000D01*
X100794858Y-108698826D01*
X100771197Y-108695316D01*
X100747993Y-108689504D01*
X100725471Y-108681446D01*
X100703847Y-108671218D01*
X100683330Y-108658921D01*
X100664117Y-108644671D01*
X100646393Y-108628607D01*
X100630329Y-108610883D01*
X100616079Y-108591670D01*
X100603782Y-108571153D01*
X100593554Y-108549529D01*
X100585496Y-108527007D01*
X100579684Y-108503803D01*
X100576174Y-108480142D01*
X100575000Y-108456250D01*
X100575000Y-107543750D01*
X100576174Y-107519858D01*
X100579684Y-107496197D01*
X100585496Y-107472993D01*
X100593554Y-107450471D01*
X100603782Y-107428847D01*
X100616079Y-107408330D01*
X100630329Y-107389117D01*
X100646393Y-107371393D01*
X100664117Y-107355329D01*
X100683330Y-107341079D01*
X100703847Y-107328782D01*
X100725471Y-107318554D01*
X100747993Y-107310496D01*
X100771197Y-107304684D01*
X100794858Y-107301174D01*
X100818750Y-107300000D01*
X101306250Y-107300000D01*
X101330142Y-107301174D01*
X101330142Y-107301174D01*
G37*
D11*
G04 #@! TD*
G04 #@! TO.P,R6,1*
G04 #@! TO.N,MIDI_IN_2*
X101062500Y-108000000D03*
D10*
G04 #@! TO.N,Net-(L8-Pad2)*
G04 #@! TO.C,R5*
G36*
X83330142Y-78301174D02*
X83353803Y-78304684D01*
X83377007Y-78310496D01*
X83399529Y-78318554D01*
X83421153Y-78328782D01*
X83441670Y-78341079D01*
X83460883Y-78355329D01*
X83478607Y-78371393D01*
X83494671Y-78389117D01*
X83508921Y-78408330D01*
X83521218Y-78428847D01*
X83531446Y-78450471D01*
X83539504Y-78472993D01*
X83545316Y-78496197D01*
X83548826Y-78519858D01*
X83550000Y-78543750D01*
X83550000Y-79456250D01*
X83548826Y-79480142D01*
X83545316Y-79503803D01*
X83539504Y-79527007D01*
X83531446Y-79549529D01*
X83521218Y-79571153D01*
X83508921Y-79591670D01*
X83494671Y-79610883D01*
X83478607Y-79628607D01*
X83460883Y-79644671D01*
X83441670Y-79658921D01*
X83421153Y-79671218D01*
X83399529Y-79681446D01*
X83377007Y-79689504D01*
X83353803Y-79695316D01*
X83330142Y-79698826D01*
X83306250Y-79700000D01*
X82818750Y-79700000D01*
X82794858Y-79698826D01*
X82771197Y-79695316D01*
X82747993Y-79689504D01*
X82725471Y-79681446D01*
X82703847Y-79671218D01*
X82683330Y-79658921D01*
X82664117Y-79644671D01*
X82646393Y-79628607D01*
X82630329Y-79610883D01*
X82616079Y-79591670D01*
X82603782Y-79571153D01*
X82593554Y-79549529D01*
X82585496Y-79527007D01*
X82579684Y-79503803D01*
X82576174Y-79480142D01*
X82575000Y-79456250D01*
X82575000Y-78543750D01*
X82576174Y-78519858D01*
X82579684Y-78496197D01*
X82585496Y-78472993D01*
X82593554Y-78450471D01*
X82603782Y-78428847D01*
X82616079Y-78408330D01*
X82630329Y-78389117D01*
X82646393Y-78371393D01*
X82664117Y-78355329D01*
X82683330Y-78341079D01*
X82703847Y-78328782D01*
X82725471Y-78318554D01*
X82747993Y-78310496D01*
X82771197Y-78304684D01*
X82794858Y-78301174D01*
X82818750Y-78300000D01*
X83306250Y-78300000D01*
X83330142Y-78301174D01*
X83330142Y-78301174D01*
G37*
D11*
G04 #@! TD*
G04 #@! TO.P,R5,2*
G04 #@! TO.N,Net-(L8-Pad2)*
X83062500Y-79000000D03*
D10*
G04 #@! TO.N,Net-(R5-Pad1)*
G04 #@! TO.C,R5*
G36*
X85205142Y-78301174D02*
X85228803Y-78304684D01*
X85252007Y-78310496D01*
X85274529Y-78318554D01*
X85296153Y-78328782D01*
X85316670Y-78341079D01*
X85335883Y-78355329D01*
X85353607Y-78371393D01*
X85369671Y-78389117D01*
X85383921Y-78408330D01*
X85396218Y-78428847D01*
X85406446Y-78450471D01*
X85414504Y-78472993D01*
X85420316Y-78496197D01*
X85423826Y-78519858D01*
X85425000Y-78543750D01*
X85425000Y-79456250D01*
X85423826Y-79480142D01*
X85420316Y-79503803D01*
X85414504Y-79527007D01*
X85406446Y-79549529D01*
X85396218Y-79571153D01*
X85383921Y-79591670D01*
X85369671Y-79610883D01*
X85353607Y-79628607D01*
X85335883Y-79644671D01*
X85316670Y-79658921D01*
X85296153Y-79671218D01*
X85274529Y-79681446D01*
X85252007Y-79689504D01*
X85228803Y-79695316D01*
X85205142Y-79698826D01*
X85181250Y-79700000D01*
X84693750Y-79700000D01*
X84669858Y-79698826D01*
X84646197Y-79695316D01*
X84622993Y-79689504D01*
X84600471Y-79681446D01*
X84578847Y-79671218D01*
X84558330Y-79658921D01*
X84539117Y-79644671D01*
X84521393Y-79628607D01*
X84505329Y-79610883D01*
X84491079Y-79591670D01*
X84478782Y-79571153D01*
X84468554Y-79549529D01*
X84460496Y-79527007D01*
X84454684Y-79503803D01*
X84451174Y-79480142D01*
X84450000Y-79456250D01*
X84450000Y-78543750D01*
X84451174Y-78519858D01*
X84454684Y-78496197D01*
X84460496Y-78472993D01*
X84468554Y-78450471D01*
X84478782Y-78428847D01*
X84491079Y-78408330D01*
X84505329Y-78389117D01*
X84521393Y-78371393D01*
X84539117Y-78355329D01*
X84558330Y-78341079D01*
X84578847Y-78328782D01*
X84600471Y-78318554D01*
X84622993Y-78310496D01*
X84646197Y-78304684D01*
X84669858Y-78301174D01*
X84693750Y-78300000D01*
X85181250Y-78300000D01*
X85205142Y-78301174D01*
X85205142Y-78301174D01*
G37*
D11*
G04 #@! TD*
G04 #@! TO.P,R5,1*
G04 #@! TO.N,Net-(R5-Pad1)*
X84937500Y-79000000D03*
D10*
G04 #@! TO.N,Net-(L6-Pad2)*
G04 #@! TO.C,R4*
G36*
X83330142Y-100301174D02*
X83353803Y-100304684D01*
X83377007Y-100310496D01*
X83399529Y-100318554D01*
X83421153Y-100328782D01*
X83441670Y-100341079D01*
X83460883Y-100355329D01*
X83478607Y-100371393D01*
X83494671Y-100389117D01*
X83508921Y-100408330D01*
X83521218Y-100428847D01*
X83531446Y-100450471D01*
X83539504Y-100472993D01*
X83545316Y-100496197D01*
X83548826Y-100519858D01*
X83550000Y-100543750D01*
X83550000Y-101456250D01*
X83548826Y-101480142D01*
X83545316Y-101503803D01*
X83539504Y-101527007D01*
X83531446Y-101549529D01*
X83521218Y-101571153D01*
X83508921Y-101591670D01*
X83494671Y-101610883D01*
X83478607Y-101628607D01*
X83460883Y-101644671D01*
X83441670Y-101658921D01*
X83421153Y-101671218D01*
X83399529Y-101681446D01*
X83377007Y-101689504D01*
X83353803Y-101695316D01*
X83330142Y-101698826D01*
X83306250Y-101700000D01*
X82818750Y-101700000D01*
X82794858Y-101698826D01*
X82771197Y-101695316D01*
X82747993Y-101689504D01*
X82725471Y-101681446D01*
X82703847Y-101671218D01*
X82683330Y-101658921D01*
X82664117Y-101644671D01*
X82646393Y-101628607D01*
X82630329Y-101610883D01*
X82616079Y-101591670D01*
X82603782Y-101571153D01*
X82593554Y-101549529D01*
X82585496Y-101527007D01*
X82579684Y-101503803D01*
X82576174Y-101480142D01*
X82575000Y-101456250D01*
X82575000Y-100543750D01*
X82576174Y-100519858D01*
X82579684Y-100496197D01*
X82585496Y-100472993D01*
X82593554Y-100450471D01*
X82603782Y-100428847D01*
X82616079Y-100408330D01*
X82630329Y-100389117D01*
X82646393Y-100371393D01*
X82664117Y-100355329D01*
X82683330Y-100341079D01*
X82703847Y-100328782D01*
X82725471Y-100318554D01*
X82747993Y-100310496D01*
X82771197Y-100304684D01*
X82794858Y-100301174D01*
X82818750Y-100300000D01*
X83306250Y-100300000D01*
X83330142Y-100301174D01*
X83330142Y-100301174D01*
G37*
D11*
G04 #@! TD*
G04 #@! TO.P,R4,2*
G04 #@! TO.N,Net-(L6-Pad2)*
X83062500Y-101000000D03*
D10*
G04 #@! TO.N,Net-(R4-Pad1)*
G04 #@! TO.C,R4*
G36*
X85205142Y-100301174D02*
X85228803Y-100304684D01*
X85252007Y-100310496D01*
X85274529Y-100318554D01*
X85296153Y-100328782D01*
X85316670Y-100341079D01*
X85335883Y-100355329D01*
X85353607Y-100371393D01*
X85369671Y-100389117D01*
X85383921Y-100408330D01*
X85396218Y-100428847D01*
X85406446Y-100450471D01*
X85414504Y-100472993D01*
X85420316Y-100496197D01*
X85423826Y-100519858D01*
X85425000Y-100543750D01*
X85425000Y-101456250D01*
X85423826Y-101480142D01*
X85420316Y-101503803D01*
X85414504Y-101527007D01*
X85406446Y-101549529D01*
X85396218Y-101571153D01*
X85383921Y-101591670D01*
X85369671Y-101610883D01*
X85353607Y-101628607D01*
X85335883Y-101644671D01*
X85316670Y-101658921D01*
X85296153Y-101671218D01*
X85274529Y-101681446D01*
X85252007Y-101689504D01*
X85228803Y-101695316D01*
X85205142Y-101698826D01*
X85181250Y-101700000D01*
X84693750Y-101700000D01*
X84669858Y-101698826D01*
X84646197Y-101695316D01*
X84622993Y-101689504D01*
X84600471Y-101681446D01*
X84578847Y-101671218D01*
X84558330Y-101658921D01*
X84539117Y-101644671D01*
X84521393Y-101628607D01*
X84505329Y-101610883D01*
X84491079Y-101591670D01*
X84478782Y-101571153D01*
X84468554Y-101549529D01*
X84460496Y-101527007D01*
X84454684Y-101503803D01*
X84451174Y-101480142D01*
X84450000Y-101456250D01*
X84450000Y-100543750D01*
X84451174Y-100519858D01*
X84454684Y-100496197D01*
X84460496Y-100472993D01*
X84468554Y-100450471D01*
X84478782Y-100428847D01*
X84491079Y-100408330D01*
X84505329Y-100389117D01*
X84521393Y-100371393D01*
X84539117Y-100355329D01*
X84558330Y-100341079D01*
X84578847Y-100328782D01*
X84600471Y-100318554D01*
X84622993Y-100310496D01*
X84646197Y-100304684D01*
X84669858Y-100301174D01*
X84693750Y-100300000D01*
X85181250Y-100300000D01*
X85205142Y-100301174D01*
X85205142Y-100301174D01*
G37*
D11*
G04 #@! TD*
G04 #@! TO.P,R4,1*
G04 #@! TO.N,Net-(R4-Pad1)*
X84937500Y-101000000D03*
D10*
G04 #@! TO.N,Net-(L4-Pad2)*
G04 #@! TO.C,R3*
G36*
X83330142Y-122301174D02*
X83353803Y-122304684D01*
X83377007Y-122310496D01*
X83399529Y-122318554D01*
X83421153Y-122328782D01*
X83441670Y-122341079D01*
X83460883Y-122355329D01*
X83478607Y-122371393D01*
X83494671Y-122389117D01*
X83508921Y-122408330D01*
X83521218Y-122428847D01*
X83531446Y-122450471D01*
X83539504Y-122472993D01*
X83545316Y-122496197D01*
X83548826Y-122519858D01*
X83550000Y-122543750D01*
X83550000Y-123456250D01*
X83548826Y-123480142D01*
X83545316Y-123503803D01*
X83539504Y-123527007D01*
X83531446Y-123549529D01*
X83521218Y-123571153D01*
X83508921Y-123591670D01*
X83494671Y-123610883D01*
X83478607Y-123628607D01*
X83460883Y-123644671D01*
X83441670Y-123658921D01*
X83421153Y-123671218D01*
X83399529Y-123681446D01*
X83377007Y-123689504D01*
X83353803Y-123695316D01*
X83330142Y-123698826D01*
X83306250Y-123700000D01*
X82818750Y-123700000D01*
X82794858Y-123698826D01*
X82771197Y-123695316D01*
X82747993Y-123689504D01*
X82725471Y-123681446D01*
X82703847Y-123671218D01*
X82683330Y-123658921D01*
X82664117Y-123644671D01*
X82646393Y-123628607D01*
X82630329Y-123610883D01*
X82616079Y-123591670D01*
X82603782Y-123571153D01*
X82593554Y-123549529D01*
X82585496Y-123527007D01*
X82579684Y-123503803D01*
X82576174Y-123480142D01*
X82575000Y-123456250D01*
X82575000Y-122543750D01*
X82576174Y-122519858D01*
X82579684Y-122496197D01*
X82585496Y-122472993D01*
X82593554Y-122450471D01*
X82603782Y-122428847D01*
X82616079Y-122408330D01*
X82630329Y-122389117D01*
X82646393Y-122371393D01*
X82664117Y-122355329D01*
X82683330Y-122341079D01*
X82703847Y-122328782D01*
X82725471Y-122318554D01*
X82747993Y-122310496D01*
X82771197Y-122304684D01*
X82794858Y-122301174D01*
X82818750Y-122300000D01*
X83306250Y-122300000D01*
X83330142Y-122301174D01*
X83330142Y-122301174D01*
G37*
D11*
G04 #@! TD*
G04 #@! TO.P,R3,2*
G04 #@! TO.N,Net-(L4-Pad2)*
X83062500Y-123000000D03*
D10*
G04 #@! TO.N,Net-(R3-Pad1)*
G04 #@! TO.C,R3*
G36*
X85205142Y-122301174D02*
X85228803Y-122304684D01*
X85252007Y-122310496D01*
X85274529Y-122318554D01*
X85296153Y-122328782D01*
X85316670Y-122341079D01*
X85335883Y-122355329D01*
X85353607Y-122371393D01*
X85369671Y-122389117D01*
X85383921Y-122408330D01*
X85396218Y-122428847D01*
X85406446Y-122450471D01*
X85414504Y-122472993D01*
X85420316Y-122496197D01*
X85423826Y-122519858D01*
X85425000Y-122543750D01*
X85425000Y-123456250D01*
X85423826Y-123480142D01*
X85420316Y-123503803D01*
X85414504Y-123527007D01*
X85406446Y-123549529D01*
X85396218Y-123571153D01*
X85383921Y-123591670D01*
X85369671Y-123610883D01*
X85353607Y-123628607D01*
X85335883Y-123644671D01*
X85316670Y-123658921D01*
X85296153Y-123671218D01*
X85274529Y-123681446D01*
X85252007Y-123689504D01*
X85228803Y-123695316D01*
X85205142Y-123698826D01*
X85181250Y-123700000D01*
X84693750Y-123700000D01*
X84669858Y-123698826D01*
X84646197Y-123695316D01*
X84622993Y-123689504D01*
X84600471Y-123681446D01*
X84578847Y-123671218D01*
X84558330Y-123658921D01*
X84539117Y-123644671D01*
X84521393Y-123628607D01*
X84505329Y-123610883D01*
X84491079Y-123591670D01*
X84478782Y-123571153D01*
X84468554Y-123549529D01*
X84460496Y-123527007D01*
X84454684Y-123503803D01*
X84451174Y-123480142D01*
X84450000Y-123456250D01*
X84450000Y-122543750D01*
X84451174Y-122519858D01*
X84454684Y-122496197D01*
X84460496Y-122472993D01*
X84468554Y-122450471D01*
X84478782Y-122428847D01*
X84491079Y-122408330D01*
X84505329Y-122389117D01*
X84521393Y-122371393D01*
X84539117Y-122355329D01*
X84558330Y-122341079D01*
X84578847Y-122328782D01*
X84600471Y-122318554D01*
X84622993Y-122310496D01*
X84646197Y-122304684D01*
X84669858Y-122301174D01*
X84693750Y-122300000D01*
X85181250Y-122300000D01*
X85205142Y-122301174D01*
X85205142Y-122301174D01*
G37*
D11*
G04 #@! TD*
G04 #@! TO.P,R3,1*
G04 #@! TO.N,Net-(R3-Pad1)*
X84937500Y-123000000D03*
D10*
G04 #@! TO.N,Net-(L2-Pad2)*
G04 #@! TO.C,R2*
G36*
X83330142Y-144301174D02*
X83353803Y-144304684D01*
X83377007Y-144310496D01*
X83399529Y-144318554D01*
X83421153Y-144328782D01*
X83441670Y-144341079D01*
X83460883Y-144355329D01*
X83478607Y-144371393D01*
X83494671Y-144389117D01*
X83508921Y-144408330D01*
X83521218Y-144428847D01*
X83531446Y-144450471D01*
X83539504Y-144472993D01*
X83545316Y-144496197D01*
X83548826Y-144519858D01*
X83550000Y-144543750D01*
X83550000Y-145456250D01*
X83548826Y-145480142D01*
X83545316Y-145503803D01*
X83539504Y-145527007D01*
X83531446Y-145549529D01*
X83521218Y-145571153D01*
X83508921Y-145591670D01*
X83494671Y-145610883D01*
X83478607Y-145628607D01*
X83460883Y-145644671D01*
X83441670Y-145658921D01*
X83421153Y-145671218D01*
X83399529Y-145681446D01*
X83377007Y-145689504D01*
X83353803Y-145695316D01*
X83330142Y-145698826D01*
X83306250Y-145700000D01*
X82818750Y-145700000D01*
X82794858Y-145698826D01*
X82771197Y-145695316D01*
X82747993Y-145689504D01*
X82725471Y-145681446D01*
X82703847Y-145671218D01*
X82683330Y-145658921D01*
X82664117Y-145644671D01*
X82646393Y-145628607D01*
X82630329Y-145610883D01*
X82616079Y-145591670D01*
X82603782Y-145571153D01*
X82593554Y-145549529D01*
X82585496Y-145527007D01*
X82579684Y-145503803D01*
X82576174Y-145480142D01*
X82575000Y-145456250D01*
X82575000Y-144543750D01*
X82576174Y-144519858D01*
X82579684Y-144496197D01*
X82585496Y-144472993D01*
X82593554Y-144450471D01*
X82603782Y-144428847D01*
X82616079Y-144408330D01*
X82630329Y-144389117D01*
X82646393Y-144371393D01*
X82664117Y-144355329D01*
X82683330Y-144341079D01*
X82703847Y-144328782D01*
X82725471Y-144318554D01*
X82747993Y-144310496D01*
X82771197Y-144304684D01*
X82794858Y-144301174D01*
X82818750Y-144300000D01*
X83306250Y-144300000D01*
X83330142Y-144301174D01*
X83330142Y-144301174D01*
G37*
D11*
G04 #@! TD*
G04 #@! TO.P,R2,2*
G04 #@! TO.N,Net-(L2-Pad2)*
X83062500Y-145000000D03*
D10*
G04 #@! TO.N,Net-(R2-Pad1)*
G04 #@! TO.C,R2*
G36*
X85205142Y-144301174D02*
X85228803Y-144304684D01*
X85252007Y-144310496D01*
X85274529Y-144318554D01*
X85296153Y-144328782D01*
X85316670Y-144341079D01*
X85335883Y-144355329D01*
X85353607Y-144371393D01*
X85369671Y-144389117D01*
X85383921Y-144408330D01*
X85396218Y-144428847D01*
X85406446Y-144450471D01*
X85414504Y-144472993D01*
X85420316Y-144496197D01*
X85423826Y-144519858D01*
X85425000Y-144543750D01*
X85425000Y-145456250D01*
X85423826Y-145480142D01*
X85420316Y-145503803D01*
X85414504Y-145527007D01*
X85406446Y-145549529D01*
X85396218Y-145571153D01*
X85383921Y-145591670D01*
X85369671Y-145610883D01*
X85353607Y-145628607D01*
X85335883Y-145644671D01*
X85316670Y-145658921D01*
X85296153Y-145671218D01*
X85274529Y-145681446D01*
X85252007Y-145689504D01*
X85228803Y-145695316D01*
X85205142Y-145698826D01*
X85181250Y-145700000D01*
X84693750Y-145700000D01*
X84669858Y-145698826D01*
X84646197Y-145695316D01*
X84622993Y-145689504D01*
X84600471Y-145681446D01*
X84578847Y-145671218D01*
X84558330Y-145658921D01*
X84539117Y-145644671D01*
X84521393Y-145628607D01*
X84505329Y-145610883D01*
X84491079Y-145591670D01*
X84478782Y-145571153D01*
X84468554Y-145549529D01*
X84460496Y-145527007D01*
X84454684Y-145503803D01*
X84451174Y-145480142D01*
X84450000Y-145456250D01*
X84450000Y-144543750D01*
X84451174Y-144519858D01*
X84454684Y-144496197D01*
X84460496Y-144472993D01*
X84468554Y-144450471D01*
X84478782Y-144428847D01*
X84491079Y-144408330D01*
X84505329Y-144389117D01*
X84521393Y-144371393D01*
X84539117Y-144355329D01*
X84558330Y-144341079D01*
X84578847Y-144328782D01*
X84600471Y-144318554D01*
X84622993Y-144310496D01*
X84646197Y-144304684D01*
X84669858Y-144301174D01*
X84693750Y-144300000D01*
X85181250Y-144300000D01*
X85205142Y-144301174D01*
X85205142Y-144301174D01*
G37*
D11*
G04 #@! TD*
G04 #@! TO.P,R2,1*
G04 #@! TO.N,Net-(R2-Pad1)*
X84937500Y-145000000D03*
D10*
G04 #@! TO.N,+3V3*
G04 #@! TO.C,R1*
G36*
X103205142Y-109301174D02*
X103228803Y-109304684D01*
X103252007Y-109310496D01*
X103274529Y-109318554D01*
X103296153Y-109328782D01*
X103316670Y-109341079D01*
X103335883Y-109355329D01*
X103353607Y-109371393D01*
X103369671Y-109389117D01*
X103383921Y-109408330D01*
X103396218Y-109428847D01*
X103406446Y-109450471D01*
X103414504Y-109472993D01*
X103420316Y-109496197D01*
X103423826Y-109519858D01*
X103425000Y-109543750D01*
X103425000Y-110456250D01*
X103423826Y-110480142D01*
X103420316Y-110503803D01*
X103414504Y-110527007D01*
X103406446Y-110549529D01*
X103396218Y-110571153D01*
X103383921Y-110591670D01*
X103369671Y-110610883D01*
X103353607Y-110628607D01*
X103335883Y-110644671D01*
X103316670Y-110658921D01*
X103296153Y-110671218D01*
X103274529Y-110681446D01*
X103252007Y-110689504D01*
X103228803Y-110695316D01*
X103205142Y-110698826D01*
X103181250Y-110700000D01*
X102693750Y-110700000D01*
X102669858Y-110698826D01*
X102646197Y-110695316D01*
X102622993Y-110689504D01*
X102600471Y-110681446D01*
X102578847Y-110671218D01*
X102558330Y-110658921D01*
X102539117Y-110644671D01*
X102521393Y-110628607D01*
X102505329Y-110610883D01*
X102491079Y-110591670D01*
X102478782Y-110571153D01*
X102468554Y-110549529D01*
X102460496Y-110527007D01*
X102454684Y-110503803D01*
X102451174Y-110480142D01*
X102450000Y-110456250D01*
X102450000Y-109543750D01*
X102451174Y-109519858D01*
X102454684Y-109496197D01*
X102460496Y-109472993D01*
X102468554Y-109450471D01*
X102478782Y-109428847D01*
X102491079Y-109408330D01*
X102505329Y-109389117D01*
X102521393Y-109371393D01*
X102539117Y-109355329D01*
X102558330Y-109341079D01*
X102578847Y-109328782D01*
X102600471Y-109318554D01*
X102622993Y-109310496D01*
X102646197Y-109304684D01*
X102669858Y-109301174D01*
X102693750Y-109300000D01*
X103181250Y-109300000D01*
X103205142Y-109301174D01*
X103205142Y-109301174D01*
G37*
D11*
G04 #@! TD*
G04 #@! TO.P,R1,2*
G04 #@! TO.N,+3V3*
X102937500Y-110000000D03*
D10*
G04 #@! TO.N,MIDI_IN_1*
G04 #@! TO.C,R1*
G36*
X101330142Y-109301174D02*
X101353803Y-109304684D01*
X101377007Y-109310496D01*
X101399529Y-109318554D01*
X101421153Y-109328782D01*
X101441670Y-109341079D01*
X101460883Y-109355329D01*
X101478607Y-109371393D01*
X101494671Y-109389117D01*
X101508921Y-109408330D01*
X101521218Y-109428847D01*
X101531446Y-109450471D01*
X101539504Y-109472993D01*
X101545316Y-109496197D01*
X101548826Y-109519858D01*
X101550000Y-109543750D01*
X101550000Y-110456250D01*
X101548826Y-110480142D01*
X101545316Y-110503803D01*
X101539504Y-110527007D01*
X101531446Y-110549529D01*
X101521218Y-110571153D01*
X101508921Y-110591670D01*
X101494671Y-110610883D01*
X101478607Y-110628607D01*
X101460883Y-110644671D01*
X101441670Y-110658921D01*
X101421153Y-110671218D01*
X101399529Y-110681446D01*
X101377007Y-110689504D01*
X101353803Y-110695316D01*
X101330142Y-110698826D01*
X101306250Y-110700000D01*
X100818750Y-110700000D01*
X100794858Y-110698826D01*
X100771197Y-110695316D01*
X100747993Y-110689504D01*
X100725471Y-110681446D01*
X100703847Y-110671218D01*
X100683330Y-110658921D01*
X100664117Y-110644671D01*
X100646393Y-110628607D01*
X100630329Y-110610883D01*
X100616079Y-110591670D01*
X100603782Y-110571153D01*
X100593554Y-110549529D01*
X100585496Y-110527007D01*
X100579684Y-110503803D01*
X100576174Y-110480142D01*
X100575000Y-110456250D01*
X100575000Y-109543750D01*
X100576174Y-109519858D01*
X100579684Y-109496197D01*
X100585496Y-109472993D01*
X100593554Y-109450471D01*
X100603782Y-109428847D01*
X100616079Y-109408330D01*
X100630329Y-109389117D01*
X100646393Y-109371393D01*
X100664117Y-109355329D01*
X100683330Y-109341079D01*
X100703847Y-109328782D01*
X100725471Y-109318554D01*
X100747993Y-109310496D01*
X100771197Y-109304684D01*
X100794858Y-109301174D01*
X100818750Y-109300000D01*
X101306250Y-109300000D01*
X101330142Y-109301174D01*
X101330142Y-109301174D01*
G37*
D11*
G04 #@! TD*
G04 #@! TO.P,R1,1*
G04 #@! TO.N,MIDI_IN_1*
X101062500Y-110000000D03*
D12*
G04 #@! TO.P,J10,8*
G04 #@! TO.N,GND*
X86220000Y-128500000D03*
G04 #@! TO.P,J10,7*
G04 #@! TO.N,+3V3*
X88760000Y-128500000D03*
G04 #@! TO.P,J10,6*
G04 #@! TO.N,LEDK2*
X91300000Y-128500000D03*
G04 #@! TO.P,J10,5*
G04 #@! TO.N,LEDK1*
X93840000Y-128500000D03*
G04 #@! TO.P,J10,4*
G04 #@! TO.N,MIDI_OUT_4*
X96380000Y-128500000D03*
G04 #@! TO.P,J10,3*
G04 #@! TO.N,MIDI_OUT_3*
X98920000Y-128500000D03*
G04 #@! TO.P,J10,2*
G04 #@! TO.N,MIDI_OUT_2*
X101460000Y-128500000D03*
D13*
G04 #@! TO.P,J10,1*
G04 #@! TO.N,MIDI_OUT_1*
X104000000Y-128500000D03*
G04 #@! TD*
G04 #@! TO.P,J5,1*
G04 #@! TO.N,MIDI_IN_1*
X104000000Y-84500000D03*
D12*
G04 #@! TO.P,J5,2*
G04 #@! TO.N,MIDI_IN_2*
X101460000Y-84500000D03*
G04 #@! TO.P,J5,3*
G04 #@! TO.N,MIDI_IN_3*
X98920000Y-84500000D03*
G04 #@! TO.P,J5,4*
G04 #@! TO.N,MIDI_IN_4*
X96380000Y-84500000D03*
G04 #@! TO.P,J5,5*
G04 #@! TO.N,LED1*
X93840000Y-84500000D03*
G04 #@! TO.P,J5,6*
G04 #@! TO.N,LED2*
X91300000Y-84500000D03*
G04 #@! TO.P,J5,7*
G04 #@! TO.N,LED3*
X88760000Y-84500000D03*
G04 #@! TO.P,J5,8*
G04 #@! TO.N,LED4*
X86220000Y-84500000D03*
G04 #@! TD*
D14*
G04 #@! TO.P,D12,2*
G04 #@! TO.N,LED4*
X96710000Y-69000000D03*
D15*
G04 #@! TO.P,D12,1*
G04 #@! TO.N,LEDK2*
X99250000Y-69000000D03*
G04 #@! TD*
D14*
G04 #@! TO.P,D11,2*
G04 #@! TO.N,LED4*
X93290000Y-69000000D03*
D15*
G04 #@! TO.P,D11,1*
G04 #@! TO.N,LEDK1*
X90750000Y-69000000D03*
G04 #@! TD*
G04 #@! TO.P,D10,1*
G04 #@! TO.N,LEDK2*
X99250000Y-91000000D03*
D14*
G04 #@! TO.P,D10,2*
G04 #@! TO.N,LED3*
X96710000Y-91000000D03*
G04 #@! TD*
D15*
G04 #@! TO.P,D9,1*
G04 #@! TO.N,LEDK1*
X90750000Y-91000000D03*
D14*
G04 #@! TO.P,D9,2*
G04 #@! TO.N,LED3*
X93290000Y-91000000D03*
G04 #@! TD*
G04 #@! TO.P,D8,2*
G04 #@! TO.N,LED2*
X96710000Y-113000000D03*
D15*
G04 #@! TO.P,D8,1*
G04 #@! TO.N,LEDK2*
X99250000Y-113000000D03*
G04 #@! TD*
D14*
G04 #@! TO.P,D7,2*
G04 #@! TO.N,LED2*
X93290000Y-113000000D03*
D15*
G04 #@! TO.P,D7,1*
G04 #@! TO.N,LEDK1*
X90750000Y-113000000D03*
G04 #@! TD*
G04 #@! TO.P,D6,1*
G04 #@! TO.N,LEDK2*
X99250000Y-135000000D03*
D14*
G04 #@! TO.P,D6,2*
G04 #@! TO.N,LED1*
X96710000Y-135000000D03*
G04 #@! TD*
D15*
G04 #@! TO.P,D5,1*
G04 #@! TO.N,LEDK1*
X90750000Y-135000000D03*
D14*
G04 #@! TO.P,D5,2*
G04 #@! TO.N,LED1*
X93290000Y-135000000D03*
G04 #@! TD*
D16*
G04 #@! TO.P,J9,3*
G04 #@! TO.N,Net-(J9-Pad3)*
X111500000Y-77000000D03*
D17*
G04 #@! TO.P,J9,1*
G04 #@! TO.N,Net-(J9-Pad1)*
X100500000Y-77000000D03*
D16*
G04 #@! TO.P,J9,2*
G04 #@! TO.N,GND*
X106000000Y-71500000D03*
G04 #@! TO.P,J9,S*
G04 #@! TO.N,N/C*
X106000000Y-81500000D03*
G04 #@! TO.P,J9,4*
G04 #@! TO.N,Net-(J9-Pad4)*
X102110000Y-73110000D03*
G04 #@! TO.P,J9,5*
G04 #@! TO.N,Net-(J9-Pad5)*
X109890000Y-73110000D03*
G04 #@! TD*
G04 #@! TO.P,J8,3*
G04 #@! TO.N,Net-(J8-Pad3)*
X111500000Y-99000000D03*
D17*
G04 #@! TO.P,J8,1*
G04 #@! TO.N,Net-(J8-Pad1)*
X100500000Y-99000000D03*
D16*
G04 #@! TO.P,J8,2*
G04 #@! TO.N,GND*
X106000000Y-93500000D03*
G04 #@! TO.P,J8,S*
G04 #@! TO.N,N/C*
X106000000Y-103500000D03*
G04 #@! TO.P,J8,4*
G04 #@! TO.N,Net-(J8-Pad4)*
X102110000Y-95110000D03*
G04 #@! TO.P,J8,5*
G04 #@! TO.N,Net-(J8-Pad5)*
X109890000Y-95110000D03*
G04 #@! TD*
G04 #@! TO.P,J7,3*
G04 #@! TO.N,Net-(J7-Pad3)*
X111500000Y-121000000D03*
D17*
G04 #@! TO.P,J7,1*
G04 #@! TO.N,Net-(J7-Pad1)*
X100500000Y-121000000D03*
D16*
G04 #@! TO.P,J7,2*
G04 #@! TO.N,GND*
X106000000Y-115500000D03*
G04 #@! TO.P,J7,S*
G04 #@! TO.N,N/C*
X106000000Y-125500000D03*
G04 #@! TO.P,J7,4*
G04 #@! TO.N,Net-(J7-Pad4)*
X102110000Y-117110000D03*
G04 #@! TO.P,J7,5*
G04 #@! TO.N,Net-(J7-Pad5)*
X109890000Y-117110000D03*
G04 #@! TD*
G04 #@! TO.P,J6,3*
G04 #@! TO.N,Net-(J6-Pad3)*
X111500000Y-143000000D03*
D17*
G04 #@! TO.P,J6,1*
G04 #@! TO.N,Net-(J6-Pad1)*
X100500000Y-143000000D03*
D16*
G04 #@! TO.P,J6,2*
G04 #@! TO.N,GND*
X106000000Y-137500000D03*
G04 #@! TO.P,J6,S*
G04 #@! TO.N,N/C*
X106000000Y-147500000D03*
G04 #@! TO.P,J6,4*
G04 #@! TO.N,Net-(J6-Pad4)*
X102110000Y-139110000D03*
G04 #@! TO.P,J6,5*
G04 #@! TO.N,Net-(J6-Pad5)*
X109890000Y-139110000D03*
G04 #@! TD*
G04 #@! TO.P,J4,3*
G04 #@! TO.N,Net-(J4-Pad3)*
X89500000Y-77000000D03*
D17*
G04 #@! TO.P,J4,1*
G04 #@! TO.N,Net-(J4-Pad1)*
X78500000Y-77000000D03*
D16*
G04 #@! TO.P,J4,2*
G04 #@! TO.N,Net-(C4-Pad1)*
X84000000Y-71500000D03*
G04 #@! TO.P,J4,S*
G04 #@! TO.N,N/C*
X84000000Y-81500000D03*
G04 #@! TO.P,J4,4*
G04 #@! TO.N,Net-(J4-Pad4)*
X80110000Y-73110000D03*
G04 #@! TO.P,J4,5*
G04 #@! TO.N,Net-(J4-Pad5)*
X87890000Y-73110000D03*
G04 #@! TD*
G04 #@! TO.P,J3,3*
G04 #@! TO.N,Net-(J3-Pad3)*
X89500000Y-99000000D03*
D17*
G04 #@! TO.P,J3,1*
G04 #@! TO.N,Net-(J3-Pad1)*
X78500000Y-99000000D03*
D16*
G04 #@! TO.P,J3,2*
G04 #@! TO.N,Net-(C3-Pad1)*
X84000000Y-93500000D03*
G04 #@! TO.P,J3,S*
G04 #@! TO.N,N/C*
X84000000Y-103500000D03*
G04 #@! TO.P,J3,4*
G04 #@! TO.N,Net-(J3-Pad4)*
X80110000Y-95110000D03*
G04 #@! TO.P,J3,5*
G04 #@! TO.N,Net-(J3-Pad5)*
X87890000Y-95110000D03*
G04 #@! TD*
G04 #@! TO.P,J2,3*
G04 #@! TO.N,Net-(J2-Pad3)*
X89500000Y-121000000D03*
D17*
G04 #@! TO.P,J2,1*
G04 #@! TO.N,Net-(J2-Pad1)*
X78500000Y-121000000D03*
D16*
G04 #@! TO.P,J2,2*
G04 #@! TO.N,Net-(C2-Pad1)*
X84000000Y-115500000D03*
G04 #@! TO.P,J2,S*
G04 #@! TO.N,N/C*
X84000000Y-125500000D03*
G04 #@! TO.P,J2,4*
G04 #@! TO.N,Net-(J2-Pad4)*
X80110000Y-117110000D03*
G04 #@! TO.P,J2,5*
G04 #@! TO.N,Net-(J2-Pad5)*
X87890000Y-117110000D03*
G04 #@! TD*
G04 #@! TO.P,J1,3*
G04 #@! TO.N,Net-(J1-Pad3)*
X89500000Y-143000000D03*
D17*
G04 #@! TO.P,J1,1*
G04 #@! TO.N,Net-(J1-Pad1)*
X78500000Y-143000000D03*
D16*
G04 #@! TO.P,J1,2*
G04 #@! TO.N,Net-(C1-Pad1)*
X84000000Y-137500000D03*
G04 #@! TO.P,J1,S*
G04 #@! TO.N,N/C*
X84000000Y-147500000D03*
G04 #@! TO.P,J1,4*
G04 #@! TO.N,Net-(J1-Pad4)*
X80110000Y-139110000D03*
G04 #@! TO.P,J1,5*
G04 #@! TO.N,Net-(J1-Pad5)*
X87890000Y-139110000D03*
G04 #@! TD*
D18*
G04 #@! TO.P,U1,1*
G04 #@! TO.N,Net-(R2-Pad1)*
X91850000Y-109450000D03*
G04 #@! TO.P,U1,2*
G04 #@! TO.N,Net-(L3-Pad2)*
X91850000Y-108170000D03*
G04 #@! TO.P,U1,3*
G04 #@! TO.N,Net-(R3-Pad1)*
X91850000Y-106910000D03*
G04 #@! TO.P,U1,4*
G04 #@! TO.N,Net-(L5-Pad2)*
X91850000Y-105640000D03*
G04 #@! TO.P,U1,5*
G04 #@! TO.N,Net-(R4-Pad1)*
X91850000Y-104360000D03*
G04 #@! TO.P,U1,6*
G04 #@! TO.N,Net-(L7-Pad2)*
X91850000Y-103090000D03*
G04 #@! TO.P,U1,7*
G04 #@! TO.N,Net-(R5-Pad1)*
X91850000Y-101830000D03*
G04 #@! TO.P,U1,8*
G04 #@! TO.N,Net-(L1-Pad2)*
X91850000Y-100550000D03*
G04 #@! TO.P,U1,9*
G04 #@! TO.N,GND*
X98150000Y-100550000D03*
G04 #@! TO.P,U1,10*
G04 #@! TO.N,MIDI_IN_4*
X98150000Y-101830000D03*
G04 #@! TO.P,U1,11*
G04 #@! TO.N,GND*
X98150000Y-103090000D03*
G04 #@! TO.P,U1,12*
G04 #@! TO.N,MIDI_IN_3*
X98150000Y-104360000D03*
G04 #@! TO.P,U1,13*
G04 #@! TO.N,GND*
X98150000Y-105640000D03*
G04 #@! TO.P,U1,14*
G04 #@! TO.N,MIDI_IN_2*
X98150000Y-106910000D03*
G04 #@! TO.P,U1,15*
G04 #@! TO.N,GND*
X98150000Y-108170000D03*
G04 #@! TO.P,U1,16*
G04 #@! TO.N,MIDI_IN_1*
X98150000Y-109450000D03*
G04 #@! TD*
D10*
G04 #@! TO.N,Net-(L1-Pad2)*
G04 #@! TO.C,L1*
G36*
X87374505Y-76301204D02*
X87398773Y-76304804D01*
X87422572Y-76310765D01*
X87445671Y-76319030D01*
X87467850Y-76329520D01*
X87488893Y-76342132D01*
X87508599Y-76356747D01*
X87526777Y-76373223D01*
X87543253Y-76391401D01*
X87557868Y-76411107D01*
X87570480Y-76432150D01*
X87580970Y-76454329D01*
X87589235Y-76477428D01*
X87595196Y-76501227D01*
X87598796Y-76525495D01*
X87600000Y-76549999D01*
X87600000Y-77450001D01*
X87598796Y-77474505D01*
X87595196Y-77498773D01*
X87589235Y-77522572D01*
X87580970Y-77545671D01*
X87570480Y-77567850D01*
X87557868Y-77588893D01*
X87543253Y-77608599D01*
X87526777Y-77626777D01*
X87508599Y-77643253D01*
X87488893Y-77657868D01*
X87467850Y-77670480D01*
X87445671Y-77680970D01*
X87422572Y-77689235D01*
X87398773Y-77695196D01*
X87374505Y-77698796D01*
X87350001Y-77700000D01*
X86699999Y-77700000D01*
X86675495Y-77698796D01*
X86651227Y-77695196D01*
X86627428Y-77689235D01*
X86604329Y-77680970D01*
X86582150Y-77670480D01*
X86561107Y-77657868D01*
X86541401Y-77643253D01*
X86523223Y-77626777D01*
X86506747Y-77608599D01*
X86492132Y-77588893D01*
X86479520Y-77567850D01*
X86469030Y-77545671D01*
X86460765Y-77522572D01*
X86454804Y-77498773D01*
X86451204Y-77474505D01*
X86450000Y-77450001D01*
X86450000Y-76549999D01*
X86451204Y-76525495D01*
X86454804Y-76501227D01*
X86460765Y-76477428D01*
X86469030Y-76454329D01*
X86479520Y-76432150D01*
X86492132Y-76411107D01*
X86506747Y-76391401D01*
X86523223Y-76373223D01*
X86541401Y-76356747D01*
X86561107Y-76342132D01*
X86582150Y-76329520D01*
X86604329Y-76319030D01*
X86627428Y-76310765D01*
X86651227Y-76304804D01*
X86675495Y-76301204D01*
X86699999Y-76300000D01*
X87350001Y-76300000D01*
X87374505Y-76301204D01*
X87374505Y-76301204D01*
G37*
D19*
G04 #@! TD*
G04 #@! TO.P,L1,2*
G04 #@! TO.N,Net-(L1-Pad2)*
X87025000Y-77000000D03*
D10*
G04 #@! TO.N,Net-(J4-Pad5)*
G04 #@! TO.C,L1*
G36*
X85324505Y-76301204D02*
X85348773Y-76304804D01*
X85372572Y-76310765D01*
X85395671Y-76319030D01*
X85417850Y-76329520D01*
X85438893Y-76342132D01*
X85458599Y-76356747D01*
X85476777Y-76373223D01*
X85493253Y-76391401D01*
X85507868Y-76411107D01*
X85520480Y-76432150D01*
X85530970Y-76454329D01*
X85539235Y-76477428D01*
X85545196Y-76501227D01*
X85548796Y-76525495D01*
X85550000Y-76549999D01*
X85550000Y-77450001D01*
X85548796Y-77474505D01*
X85545196Y-77498773D01*
X85539235Y-77522572D01*
X85530970Y-77545671D01*
X85520480Y-77567850D01*
X85507868Y-77588893D01*
X85493253Y-77608599D01*
X85476777Y-77626777D01*
X85458599Y-77643253D01*
X85438893Y-77657868D01*
X85417850Y-77670480D01*
X85395671Y-77680970D01*
X85372572Y-77689235D01*
X85348773Y-77695196D01*
X85324505Y-77698796D01*
X85300001Y-77700000D01*
X84649999Y-77700000D01*
X84625495Y-77698796D01*
X84601227Y-77695196D01*
X84577428Y-77689235D01*
X84554329Y-77680970D01*
X84532150Y-77670480D01*
X84511107Y-77657868D01*
X84491401Y-77643253D01*
X84473223Y-77626777D01*
X84456747Y-77608599D01*
X84442132Y-77588893D01*
X84429520Y-77567850D01*
X84419030Y-77545671D01*
X84410765Y-77522572D01*
X84404804Y-77498773D01*
X84401204Y-77474505D01*
X84400000Y-77450001D01*
X84400000Y-76549999D01*
X84401204Y-76525495D01*
X84404804Y-76501227D01*
X84410765Y-76477428D01*
X84419030Y-76454329D01*
X84429520Y-76432150D01*
X84442132Y-76411107D01*
X84456747Y-76391401D01*
X84473223Y-76373223D01*
X84491401Y-76356747D01*
X84511107Y-76342132D01*
X84532150Y-76329520D01*
X84554329Y-76319030D01*
X84577428Y-76310765D01*
X84601227Y-76304804D01*
X84625495Y-76301204D01*
X84649999Y-76300000D01*
X85300001Y-76300000D01*
X85324505Y-76301204D01*
X85324505Y-76301204D01*
G37*
D19*
G04 #@! TD*
G04 #@! TO.P,L1,1*
G04 #@! TO.N,Net-(J4-Pad5)*
X84975000Y-77000000D03*
D10*
G04 #@! TO.N,Net-(J4-Pad4)*
G04 #@! TO.C,L8*
G36*
X81324505Y-76301204D02*
X81348773Y-76304804D01*
X81372572Y-76310765D01*
X81395671Y-76319030D01*
X81417850Y-76329520D01*
X81438893Y-76342132D01*
X81458599Y-76356747D01*
X81476777Y-76373223D01*
X81493253Y-76391401D01*
X81507868Y-76411107D01*
X81520480Y-76432150D01*
X81530970Y-76454329D01*
X81539235Y-76477428D01*
X81545196Y-76501227D01*
X81548796Y-76525495D01*
X81550000Y-76549999D01*
X81550000Y-77450001D01*
X81548796Y-77474505D01*
X81545196Y-77498773D01*
X81539235Y-77522572D01*
X81530970Y-77545671D01*
X81520480Y-77567850D01*
X81507868Y-77588893D01*
X81493253Y-77608599D01*
X81476777Y-77626777D01*
X81458599Y-77643253D01*
X81438893Y-77657868D01*
X81417850Y-77670480D01*
X81395671Y-77680970D01*
X81372572Y-77689235D01*
X81348773Y-77695196D01*
X81324505Y-77698796D01*
X81300001Y-77700000D01*
X80649999Y-77700000D01*
X80625495Y-77698796D01*
X80601227Y-77695196D01*
X80577428Y-77689235D01*
X80554329Y-77680970D01*
X80532150Y-77670480D01*
X80511107Y-77657868D01*
X80491401Y-77643253D01*
X80473223Y-77626777D01*
X80456747Y-77608599D01*
X80442132Y-77588893D01*
X80429520Y-77567850D01*
X80419030Y-77545671D01*
X80410765Y-77522572D01*
X80404804Y-77498773D01*
X80401204Y-77474505D01*
X80400000Y-77450001D01*
X80400000Y-76549999D01*
X80401204Y-76525495D01*
X80404804Y-76501227D01*
X80410765Y-76477428D01*
X80419030Y-76454329D01*
X80429520Y-76432150D01*
X80442132Y-76411107D01*
X80456747Y-76391401D01*
X80473223Y-76373223D01*
X80491401Y-76356747D01*
X80511107Y-76342132D01*
X80532150Y-76329520D01*
X80554329Y-76319030D01*
X80577428Y-76310765D01*
X80601227Y-76304804D01*
X80625495Y-76301204D01*
X80649999Y-76300000D01*
X81300001Y-76300000D01*
X81324505Y-76301204D01*
X81324505Y-76301204D01*
G37*
D19*
G04 #@! TD*
G04 #@! TO.P,L8,1*
G04 #@! TO.N,Net-(J4-Pad4)*
X80975000Y-77000000D03*
D10*
G04 #@! TO.N,Net-(L8-Pad2)*
G04 #@! TO.C,L8*
G36*
X83374505Y-76301204D02*
X83398773Y-76304804D01*
X83422572Y-76310765D01*
X83445671Y-76319030D01*
X83467850Y-76329520D01*
X83488893Y-76342132D01*
X83508599Y-76356747D01*
X83526777Y-76373223D01*
X83543253Y-76391401D01*
X83557868Y-76411107D01*
X83570480Y-76432150D01*
X83580970Y-76454329D01*
X83589235Y-76477428D01*
X83595196Y-76501227D01*
X83598796Y-76525495D01*
X83600000Y-76549999D01*
X83600000Y-77450001D01*
X83598796Y-77474505D01*
X83595196Y-77498773D01*
X83589235Y-77522572D01*
X83580970Y-77545671D01*
X83570480Y-77567850D01*
X83557868Y-77588893D01*
X83543253Y-77608599D01*
X83526777Y-77626777D01*
X83508599Y-77643253D01*
X83488893Y-77657868D01*
X83467850Y-77670480D01*
X83445671Y-77680970D01*
X83422572Y-77689235D01*
X83398773Y-77695196D01*
X83374505Y-77698796D01*
X83350001Y-77700000D01*
X82699999Y-77700000D01*
X82675495Y-77698796D01*
X82651227Y-77695196D01*
X82627428Y-77689235D01*
X82604329Y-77680970D01*
X82582150Y-77670480D01*
X82561107Y-77657868D01*
X82541401Y-77643253D01*
X82523223Y-77626777D01*
X82506747Y-77608599D01*
X82492132Y-77588893D01*
X82479520Y-77567850D01*
X82469030Y-77545671D01*
X82460765Y-77522572D01*
X82454804Y-77498773D01*
X82451204Y-77474505D01*
X82450000Y-77450001D01*
X82450000Y-76549999D01*
X82451204Y-76525495D01*
X82454804Y-76501227D01*
X82460765Y-76477428D01*
X82469030Y-76454329D01*
X82479520Y-76432150D01*
X82492132Y-76411107D01*
X82506747Y-76391401D01*
X82523223Y-76373223D01*
X82541401Y-76356747D01*
X82561107Y-76342132D01*
X82582150Y-76329520D01*
X82604329Y-76319030D01*
X82627428Y-76310765D01*
X82651227Y-76304804D01*
X82675495Y-76301204D01*
X82699999Y-76300000D01*
X83350001Y-76300000D01*
X83374505Y-76301204D01*
X83374505Y-76301204D01*
G37*
D19*
G04 #@! TD*
G04 #@! TO.P,L8,2*
G04 #@! TO.N,Net-(L8-Pad2)*
X83025000Y-77000000D03*
D10*
G04 #@! TO.N,Net-(L6-Pad2)*
G04 #@! TO.C,L6*
G36*
X83374505Y-98301204D02*
X83398773Y-98304804D01*
X83422572Y-98310765D01*
X83445671Y-98319030D01*
X83467850Y-98329520D01*
X83488893Y-98342132D01*
X83508599Y-98356747D01*
X83526777Y-98373223D01*
X83543253Y-98391401D01*
X83557868Y-98411107D01*
X83570480Y-98432150D01*
X83580970Y-98454329D01*
X83589235Y-98477428D01*
X83595196Y-98501227D01*
X83598796Y-98525495D01*
X83600000Y-98549999D01*
X83600000Y-99450001D01*
X83598796Y-99474505D01*
X83595196Y-99498773D01*
X83589235Y-99522572D01*
X83580970Y-99545671D01*
X83570480Y-99567850D01*
X83557868Y-99588893D01*
X83543253Y-99608599D01*
X83526777Y-99626777D01*
X83508599Y-99643253D01*
X83488893Y-99657868D01*
X83467850Y-99670480D01*
X83445671Y-99680970D01*
X83422572Y-99689235D01*
X83398773Y-99695196D01*
X83374505Y-99698796D01*
X83350001Y-99700000D01*
X82699999Y-99700000D01*
X82675495Y-99698796D01*
X82651227Y-99695196D01*
X82627428Y-99689235D01*
X82604329Y-99680970D01*
X82582150Y-99670480D01*
X82561107Y-99657868D01*
X82541401Y-99643253D01*
X82523223Y-99626777D01*
X82506747Y-99608599D01*
X82492132Y-99588893D01*
X82479520Y-99567850D01*
X82469030Y-99545671D01*
X82460765Y-99522572D01*
X82454804Y-99498773D01*
X82451204Y-99474505D01*
X82450000Y-99450001D01*
X82450000Y-98549999D01*
X82451204Y-98525495D01*
X82454804Y-98501227D01*
X82460765Y-98477428D01*
X82469030Y-98454329D01*
X82479520Y-98432150D01*
X82492132Y-98411107D01*
X82506747Y-98391401D01*
X82523223Y-98373223D01*
X82541401Y-98356747D01*
X82561107Y-98342132D01*
X82582150Y-98329520D01*
X82604329Y-98319030D01*
X82627428Y-98310765D01*
X82651227Y-98304804D01*
X82675495Y-98301204D01*
X82699999Y-98300000D01*
X83350001Y-98300000D01*
X83374505Y-98301204D01*
X83374505Y-98301204D01*
G37*
D19*
G04 #@! TD*
G04 #@! TO.P,L6,2*
G04 #@! TO.N,Net-(L6-Pad2)*
X83025000Y-99000000D03*
D10*
G04 #@! TO.N,Net-(J3-Pad4)*
G04 #@! TO.C,L6*
G36*
X81324505Y-98301204D02*
X81348773Y-98304804D01*
X81372572Y-98310765D01*
X81395671Y-98319030D01*
X81417850Y-98329520D01*
X81438893Y-98342132D01*
X81458599Y-98356747D01*
X81476777Y-98373223D01*
X81493253Y-98391401D01*
X81507868Y-98411107D01*
X81520480Y-98432150D01*
X81530970Y-98454329D01*
X81539235Y-98477428D01*
X81545196Y-98501227D01*
X81548796Y-98525495D01*
X81550000Y-98549999D01*
X81550000Y-99450001D01*
X81548796Y-99474505D01*
X81545196Y-99498773D01*
X81539235Y-99522572D01*
X81530970Y-99545671D01*
X81520480Y-99567850D01*
X81507868Y-99588893D01*
X81493253Y-99608599D01*
X81476777Y-99626777D01*
X81458599Y-99643253D01*
X81438893Y-99657868D01*
X81417850Y-99670480D01*
X81395671Y-99680970D01*
X81372572Y-99689235D01*
X81348773Y-99695196D01*
X81324505Y-99698796D01*
X81300001Y-99700000D01*
X80649999Y-99700000D01*
X80625495Y-99698796D01*
X80601227Y-99695196D01*
X80577428Y-99689235D01*
X80554329Y-99680970D01*
X80532150Y-99670480D01*
X80511107Y-99657868D01*
X80491401Y-99643253D01*
X80473223Y-99626777D01*
X80456747Y-99608599D01*
X80442132Y-99588893D01*
X80429520Y-99567850D01*
X80419030Y-99545671D01*
X80410765Y-99522572D01*
X80404804Y-99498773D01*
X80401204Y-99474505D01*
X80400000Y-99450001D01*
X80400000Y-98549999D01*
X80401204Y-98525495D01*
X80404804Y-98501227D01*
X80410765Y-98477428D01*
X80419030Y-98454329D01*
X80429520Y-98432150D01*
X80442132Y-98411107D01*
X80456747Y-98391401D01*
X80473223Y-98373223D01*
X80491401Y-98356747D01*
X80511107Y-98342132D01*
X80532150Y-98329520D01*
X80554329Y-98319030D01*
X80577428Y-98310765D01*
X80601227Y-98304804D01*
X80625495Y-98301204D01*
X80649999Y-98300000D01*
X81300001Y-98300000D01*
X81324505Y-98301204D01*
X81324505Y-98301204D01*
G37*
D19*
G04 #@! TD*
G04 #@! TO.P,L6,1*
G04 #@! TO.N,Net-(J3-Pad4)*
X80975000Y-99000000D03*
D10*
G04 #@! TO.N,Net-(J3-Pad5)*
G04 #@! TO.C,L7*
G36*
X85324505Y-98301204D02*
X85348773Y-98304804D01*
X85372572Y-98310765D01*
X85395671Y-98319030D01*
X85417850Y-98329520D01*
X85438893Y-98342132D01*
X85458599Y-98356747D01*
X85476777Y-98373223D01*
X85493253Y-98391401D01*
X85507868Y-98411107D01*
X85520480Y-98432150D01*
X85530970Y-98454329D01*
X85539235Y-98477428D01*
X85545196Y-98501227D01*
X85548796Y-98525495D01*
X85550000Y-98549999D01*
X85550000Y-99450001D01*
X85548796Y-99474505D01*
X85545196Y-99498773D01*
X85539235Y-99522572D01*
X85530970Y-99545671D01*
X85520480Y-99567850D01*
X85507868Y-99588893D01*
X85493253Y-99608599D01*
X85476777Y-99626777D01*
X85458599Y-99643253D01*
X85438893Y-99657868D01*
X85417850Y-99670480D01*
X85395671Y-99680970D01*
X85372572Y-99689235D01*
X85348773Y-99695196D01*
X85324505Y-99698796D01*
X85300001Y-99700000D01*
X84649999Y-99700000D01*
X84625495Y-99698796D01*
X84601227Y-99695196D01*
X84577428Y-99689235D01*
X84554329Y-99680970D01*
X84532150Y-99670480D01*
X84511107Y-99657868D01*
X84491401Y-99643253D01*
X84473223Y-99626777D01*
X84456747Y-99608599D01*
X84442132Y-99588893D01*
X84429520Y-99567850D01*
X84419030Y-99545671D01*
X84410765Y-99522572D01*
X84404804Y-99498773D01*
X84401204Y-99474505D01*
X84400000Y-99450001D01*
X84400000Y-98549999D01*
X84401204Y-98525495D01*
X84404804Y-98501227D01*
X84410765Y-98477428D01*
X84419030Y-98454329D01*
X84429520Y-98432150D01*
X84442132Y-98411107D01*
X84456747Y-98391401D01*
X84473223Y-98373223D01*
X84491401Y-98356747D01*
X84511107Y-98342132D01*
X84532150Y-98329520D01*
X84554329Y-98319030D01*
X84577428Y-98310765D01*
X84601227Y-98304804D01*
X84625495Y-98301204D01*
X84649999Y-98300000D01*
X85300001Y-98300000D01*
X85324505Y-98301204D01*
X85324505Y-98301204D01*
G37*
D19*
G04 #@! TD*
G04 #@! TO.P,L7,1*
G04 #@! TO.N,Net-(J3-Pad5)*
X84975000Y-99000000D03*
D10*
G04 #@! TO.N,Net-(L7-Pad2)*
G04 #@! TO.C,L7*
G36*
X87374505Y-98301204D02*
X87398773Y-98304804D01*
X87422572Y-98310765D01*
X87445671Y-98319030D01*
X87467850Y-98329520D01*
X87488893Y-98342132D01*
X87508599Y-98356747D01*
X87526777Y-98373223D01*
X87543253Y-98391401D01*
X87557868Y-98411107D01*
X87570480Y-98432150D01*
X87580970Y-98454329D01*
X87589235Y-98477428D01*
X87595196Y-98501227D01*
X87598796Y-98525495D01*
X87600000Y-98549999D01*
X87600000Y-99450001D01*
X87598796Y-99474505D01*
X87595196Y-99498773D01*
X87589235Y-99522572D01*
X87580970Y-99545671D01*
X87570480Y-99567850D01*
X87557868Y-99588893D01*
X87543253Y-99608599D01*
X87526777Y-99626777D01*
X87508599Y-99643253D01*
X87488893Y-99657868D01*
X87467850Y-99670480D01*
X87445671Y-99680970D01*
X87422572Y-99689235D01*
X87398773Y-99695196D01*
X87374505Y-99698796D01*
X87350001Y-99700000D01*
X86699999Y-99700000D01*
X86675495Y-99698796D01*
X86651227Y-99695196D01*
X86627428Y-99689235D01*
X86604329Y-99680970D01*
X86582150Y-99670480D01*
X86561107Y-99657868D01*
X86541401Y-99643253D01*
X86523223Y-99626777D01*
X86506747Y-99608599D01*
X86492132Y-99588893D01*
X86479520Y-99567850D01*
X86469030Y-99545671D01*
X86460765Y-99522572D01*
X86454804Y-99498773D01*
X86451204Y-99474505D01*
X86450000Y-99450001D01*
X86450000Y-98549999D01*
X86451204Y-98525495D01*
X86454804Y-98501227D01*
X86460765Y-98477428D01*
X86469030Y-98454329D01*
X86479520Y-98432150D01*
X86492132Y-98411107D01*
X86506747Y-98391401D01*
X86523223Y-98373223D01*
X86541401Y-98356747D01*
X86561107Y-98342132D01*
X86582150Y-98329520D01*
X86604329Y-98319030D01*
X86627428Y-98310765D01*
X86651227Y-98304804D01*
X86675495Y-98301204D01*
X86699999Y-98300000D01*
X87350001Y-98300000D01*
X87374505Y-98301204D01*
X87374505Y-98301204D01*
G37*
D19*
G04 #@! TD*
G04 #@! TO.P,L7,2*
G04 #@! TO.N,Net-(L7-Pad2)*
X87025000Y-99000000D03*
D10*
G04 #@! TO.N,Net-(J2-Pad4)*
G04 #@! TO.C,L4*
G36*
X81324505Y-120301204D02*
X81348773Y-120304804D01*
X81372572Y-120310765D01*
X81395671Y-120319030D01*
X81417850Y-120329520D01*
X81438893Y-120342132D01*
X81458599Y-120356747D01*
X81476777Y-120373223D01*
X81493253Y-120391401D01*
X81507868Y-120411107D01*
X81520480Y-120432150D01*
X81530970Y-120454329D01*
X81539235Y-120477428D01*
X81545196Y-120501227D01*
X81548796Y-120525495D01*
X81550000Y-120549999D01*
X81550000Y-121450001D01*
X81548796Y-121474505D01*
X81545196Y-121498773D01*
X81539235Y-121522572D01*
X81530970Y-121545671D01*
X81520480Y-121567850D01*
X81507868Y-121588893D01*
X81493253Y-121608599D01*
X81476777Y-121626777D01*
X81458599Y-121643253D01*
X81438893Y-121657868D01*
X81417850Y-121670480D01*
X81395671Y-121680970D01*
X81372572Y-121689235D01*
X81348773Y-121695196D01*
X81324505Y-121698796D01*
X81300001Y-121700000D01*
X80649999Y-121700000D01*
X80625495Y-121698796D01*
X80601227Y-121695196D01*
X80577428Y-121689235D01*
X80554329Y-121680970D01*
X80532150Y-121670480D01*
X80511107Y-121657868D01*
X80491401Y-121643253D01*
X80473223Y-121626777D01*
X80456747Y-121608599D01*
X80442132Y-121588893D01*
X80429520Y-121567850D01*
X80419030Y-121545671D01*
X80410765Y-121522572D01*
X80404804Y-121498773D01*
X80401204Y-121474505D01*
X80400000Y-121450001D01*
X80400000Y-120549999D01*
X80401204Y-120525495D01*
X80404804Y-120501227D01*
X80410765Y-120477428D01*
X80419030Y-120454329D01*
X80429520Y-120432150D01*
X80442132Y-120411107D01*
X80456747Y-120391401D01*
X80473223Y-120373223D01*
X80491401Y-120356747D01*
X80511107Y-120342132D01*
X80532150Y-120329520D01*
X80554329Y-120319030D01*
X80577428Y-120310765D01*
X80601227Y-120304804D01*
X80625495Y-120301204D01*
X80649999Y-120300000D01*
X81300001Y-120300000D01*
X81324505Y-120301204D01*
X81324505Y-120301204D01*
G37*
D19*
G04 #@! TD*
G04 #@! TO.P,L4,1*
G04 #@! TO.N,Net-(J2-Pad4)*
X80975000Y-121000000D03*
D10*
G04 #@! TO.N,Net-(L4-Pad2)*
G04 #@! TO.C,L4*
G36*
X83374505Y-120301204D02*
X83398773Y-120304804D01*
X83422572Y-120310765D01*
X83445671Y-120319030D01*
X83467850Y-120329520D01*
X83488893Y-120342132D01*
X83508599Y-120356747D01*
X83526777Y-120373223D01*
X83543253Y-120391401D01*
X83557868Y-120411107D01*
X83570480Y-120432150D01*
X83580970Y-120454329D01*
X83589235Y-120477428D01*
X83595196Y-120501227D01*
X83598796Y-120525495D01*
X83600000Y-120549999D01*
X83600000Y-121450001D01*
X83598796Y-121474505D01*
X83595196Y-121498773D01*
X83589235Y-121522572D01*
X83580970Y-121545671D01*
X83570480Y-121567850D01*
X83557868Y-121588893D01*
X83543253Y-121608599D01*
X83526777Y-121626777D01*
X83508599Y-121643253D01*
X83488893Y-121657868D01*
X83467850Y-121670480D01*
X83445671Y-121680970D01*
X83422572Y-121689235D01*
X83398773Y-121695196D01*
X83374505Y-121698796D01*
X83350001Y-121700000D01*
X82699999Y-121700000D01*
X82675495Y-121698796D01*
X82651227Y-121695196D01*
X82627428Y-121689235D01*
X82604329Y-121680970D01*
X82582150Y-121670480D01*
X82561107Y-121657868D01*
X82541401Y-121643253D01*
X82523223Y-121626777D01*
X82506747Y-121608599D01*
X82492132Y-121588893D01*
X82479520Y-121567850D01*
X82469030Y-121545671D01*
X82460765Y-121522572D01*
X82454804Y-121498773D01*
X82451204Y-121474505D01*
X82450000Y-121450001D01*
X82450000Y-120549999D01*
X82451204Y-120525495D01*
X82454804Y-120501227D01*
X82460765Y-120477428D01*
X82469030Y-120454329D01*
X82479520Y-120432150D01*
X82492132Y-120411107D01*
X82506747Y-120391401D01*
X82523223Y-120373223D01*
X82541401Y-120356747D01*
X82561107Y-120342132D01*
X82582150Y-120329520D01*
X82604329Y-120319030D01*
X82627428Y-120310765D01*
X82651227Y-120304804D01*
X82675495Y-120301204D01*
X82699999Y-120300000D01*
X83350001Y-120300000D01*
X83374505Y-120301204D01*
X83374505Y-120301204D01*
G37*
D19*
G04 #@! TD*
G04 #@! TO.P,L4,2*
G04 #@! TO.N,Net-(L4-Pad2)*
X83025000Y-121000000D03*
D10*
G04 #@! TO.N,Net-(L5-Pad2)*
G04 #@! TO.C,L5*
G36*
X87349505Y-120301204D02*
X87373773Y-120304804D01*
X87397572Y-120310765D01*
X87420671Y-120319030D01*
X87442850Y-120329520D01*
X87463893Y-120342132D01*
X87483599Y-120356747D01*
X87501777Y-120373223D01*
X87518253Y-120391401D01*
X87532868Y-120411107D01*
X87545480Y-120432150D01*
X87555970Y-120454329D01*
X87564235Y-120477428D01*
X87570196Y-120501227D01*
X87573796Y-120525495D01*
X87575000Y-120549999D01*
X87575000Y-121450001D01*
X87573796Y-121474505D01*
X87570196Y-121498773D01*
X87564235Y-121522572D01*
X87555970Y-121545671D01*
X87545480Y-121567850D01*
X87532868Y-121588893D01*
X87518253Y-121608599D01*
X87501777Y-121626777D01*
X87483599Y-121643253D01*
X87463893Y-121657868D01*
X87442850Y-121670480D01*
X87420671Y-121680970D01*
X87397572Y-121689235D01*
X87373773Y-121695196D01*
X87349505Y-121698796D01*
X87325001Y-121700000D01*
X86674999Y-121700000D01*
X86650495Y-121698796D01*
X86626227Y-121695196D01*
X86602428Y-121689235D01*
X86579329Y-121680970D01*
X86557150Y-121670480D01*
X86536107Y-121657868D01*
X86516401Y-121643253D01*
X86498223Y-121626777D01*
X86481747Y-121608599D01*
X86467132Y-121588893D01*
X86454520Y-121567850D01*
X86444030Y-121545671D01*
X86435765Y-121522572D01*
X86429804Y-121498773D01*
X86426204Y-121474505D01*
X86425000Y-121450001D01*
X86425000Y-120549999D01*
X86426204Y-120525495D01*
X86429804Y-120501227D01*
X86435765Y-120477428D01*
X86444030Y-120454329D01*
X86454520Y-120432150D01*
X86467132Y-120411107D01*
X86481747Y-120391401D01*
X86498223Y-120373223D01*
X86516401Y-120356747D01*
X86536107Y-120342132D01*
X86557150Y-120329520D01*
X86579329Y-120319030D01*
X86602428Y-120310765D01*
X86626227Y-120304804D01*
X86650495Y-120301204D01*
X86674999Y-120300000D01*
X87325001Y-120300000D01*
X87349505Y-120301204D01*
X87349505Y-120301204D01*
G37*
D19*
G04 #@! TD*
G04 #@! TO.P,L5,2*
G04 #@! TO.N,Net-(L5-Pad2)*
X87000000Y-121000000D03*
D10*
G04 #@! TO.N,Net-(J2-Pad5)*
G04 #@! TO.C,L5*
G36*
X85299505Y-120301204D02*
X85323773Y-120304804D01*
X85347572Y-120310765D01*
X85370671Y-120319030D01*
X85392850Y-120329520D01*
X85413893Y-120342132D01*
X85433599Y-120356747D01*
X85451777Y-120373223D01*
X85468253Y-120391401D01*
X85482868Y-120411107D01*
X85495480Y-120432150D01*
X85505970Y-120454329D01*
X85514235Y-120477428D01*
X85520196Y-120501227D01*
X85523796Y-120525495D01*
X85525000Y-120549999D01*
X85525000Y-121450001D01*
X85523796Y-121474505D01*
X85520196Y-121498773D01*
X85514235Y-121522572D01*
X85505970Y-121545671D01*
X85495480Y-121567850D01*
X85482868Y-121588893D01*
X85468253Y-121608599D01*
X85451777Y-121626777D01*
X85433599Y-121643253D01*
X85413893Y-121657868D01*
X85392850Y-121670480D01*
X85370671Y-121680970D01*
X85347572Y-121689235D01*
X85323773Y-121695196D01*
X85299505Y-121698796D01*
X85275001Y-121700000D01*
X84624999Y-121700000D01*
X84600495Y-121698796D01*
X84576227Y-121695196D01*
X84552428Y-121689235D01*
X84529329Y-121680970D01*
X84507150Y-121670480D01*
X84486107Y-121657868D01*
X84466401Y-121643253D01*
X84448223Y-121626777D01*
X84431747Y-121608599D01*
X84417132Y-121588893D01*
X84404520Y-121567850D01*
X84394030Y-121545671D01*
X84385765Y-121522572D01*
X84379804Y-121498773D01*
X84376204Y-121474505D01*
X84375000Y-121450001D01*
X84375000Y-120549999D01*
X84376204Y-120525495D01*
X84379804Y-120501227D01*
X84385765Y-120477428D01*
X84394030Y-120454329D01*
X84404520Y-120432150D01*
X84417132Y-120411107D01*
X84431747Y-120391401D01*
X84448223Y-120373223D01*
X84466401Y-120356747D01*
X84486107Y-120342132D01*
X84507150Y-120329520D01*
X84529329Y-120319030D01*
X84552428Y-120310765D01*
X84576227Y-120304804D01*
X84600495Y-120301204D01*
X84624999Y-120300000D01*
X85275001Y-120300000D01*
X85299505Y-120301204D01*
X85299505Y-120301204D01*
G37*
D19*
G04 #@! TD*
G04 #@! TO.P,L5,1*
G04 #@! TO.N,Net-(J2-Pad5)*
X84950000Y-121000000D03*
D10*
G04 #@! TO.N,Net-(L2-Pad2)*
G04 #@! TO.C,L2*
G36*
X83374505Y-142301204D02*
X83398773Y-142304804D01*
X83422572Y-142310765D01*
X83445671Y-142319030D01*
X83467850Y-142329520D01*
X83488893Y-142342132D01*
X83508599Y-142356747D01*
X83526777Y-142373223D01*
X83543253Y-142391401D01*
X83557868Y-142411107D01*
X83570480Y-142432150D01*
X83580970Y-142454329D01*
X83589235Y-142477428D01*
X83595196Y-142501227D01*
X83598796Y-142525495D01*
X83600000Y-142549999D01*
X83600000Y-143450001D01*
X83598796Y-143474505D01*
X83595196Y-143498773D01*
X83589235Y-143522572D01*
X83580970Y-143545671D01*
X83570480Y-143567850D01*
X83557868Y-143588893D01*
X83543253Y-143608599D01*
X83526777Y-143626777D01*
X83508599Y-143643253D01*
X83488893Y-143657868D01*
X83467850Y-143670480D01*
X83445671Y-143680970D01*
X83422572Y-143689235D01*
X83398773Y-143695196D01*
X83374505Y-143698796D01*
X83350001Y-143700000D01*
X82699999Y-143700000D01*
X82675495Y-143698796D01*
X82651227Y-143695196D01*
X82627428Y-143689235D01*
X82604329Y-143680970D01*
X82582150Y-143670480D01*
X82561107Y-143657868D01*
X82541401Y-143643253D01*
X82523223Y-143626777D01*
X82506747Y-143608599D01*
X82492132Y-143588893D01*
X82479520Y-143567850D01*
X82469030Y-143545671D01*
X82460765Y-143522572D01*
X82454804Y-143498773D01*
X82451204Y-143474505D01*
X82450000Y-143450001D01*
X82450000Y-142549999D01*
X82451204Y-142525495D01*
X82454804Y-142501227D01*
X82460765Y-142477428D01*
X82469030Y-142454329D01*
X82479520Y-142432150D01*
X82492132Y-142411107D01*
X82506747Y-142391401D01*
X82523223Y-142373223D01*
X82541401Y-142356747D01*
X82561107Y-142342132D01*
X82582150Y-142329520D01*
X82604329Y-142319030D01*
X82627428Y-142310765D01*
X82651227Y-142304804D01*
X82675495Y-142301204D01*
X82699999Y-142300000D01*
X83350001Y-142300000D01*
X83374505Y-142301204D01*
X83374505Y-142301204D01*
G37*
D19*
G04 #@! TD*
G04 #@! TO.P,L2,2*
G04 #@! TO.N,Net-(L2-Pad2)*
X83025000Y-143000000D03*
D10*
G04 #@! TO.N,Net-(J1-Pad4)*
G04 #@! TO.C,L2*
G36*
X81324505Y-142301204D02*
X81348773Y-142304804D01*
X81372572Y-142310765D01*
X81395671Y-142319030D01*
X81417850Y-142329520D01*
X81438893Y-142342132D01*
X81458599Y-142356747D01*
X81476777Y-142373223D01*
X81493253Y-142391401D01*
X81507868Y-142411107D01*
X81520480Y-142432150D01*
X81530970Y-142454329D01*
X81539235Y-142477428D01*
X81545196Y-142501227D01*
X81548796Y-142525495D01*
X81550000Y-142549999D01*
X81550000Y-143450001D01*
X81548796Y-143474505D01*
X81545196Y-143498773D01*
X81539235Y-143522572D01*
X81530970Y-143545671D01*
X81520480Y-143567850D01*
X81507868Y-143588893D01*
X81493253Y-143608599D01*
X81476777Y-143626777D01*
X81458599Y-143643253D01*
X81438893Y-143657868D01*
X81417850Y-143670480D01*
X81395671Y-143680970D01*
X81372572Y-143689235D01*
X81348773Y-143695196D01*
X81324505Y-143698796D01*
X81300001Y-143700000D01*
X80649999Y-143700000D01*
X80625495Y-143698796D01*
X80601227Y-143695196D01*
X80577428Y-143689235D01*
X80554329Y-143680970D01*
X80532150Y-143670480D01*
X80511107Y-143657868D01*
X80491401Y-143643253D01*
X80473223Y-143626777D01*
X80456747Y-143608599D01*
X80442132Y-143588893D01*
X80429520Y-143567850D01*
X80419030Y-143545671D01*
X80410765Y-143522572D01*
X80404804Y-143498773D01*
X80401204Y-143474505D01*
X80400000Y-143450001D01*
X80400000Y-142549999D01*
X80401204Y-142525495D01*
X80404804Y-142501227D01*
X80410765Y-142477428D01*
X80419030Y-142454329D01*
X80429520Y-142432150D01*
X80442132Y-142411107D01*
X80456747Y-142391401D01*
X80473223Y-142373223D01*
X80491401Y-142356747D01*
X80511107Y-142342132D01*
X80532150Y-142329520D01*
X80554329Y-142319030D01*
X80577428Y-142310765D01*
X80601227Y-142304804D01*
X80625495Y-142301204D01*
X80649999Y-142300000D01*
X81300001Y-142300000D01*
X81324505Y-142301204D01*
X81324505Y-142301204D01*
G37*
D19*
G04 #@! TD*
G04 #@! TO.P,L2,1*
G04 #@! TO.N,Net-(J1-Pad4)*
X80975000Y-143000000D03*
D10*
G04 #@! TO.N,Net-(J1-Pad5)*
G04 #@! TO.C,L3*
G36*
X85324505Y-142301204D02*
X85348773Y-142304804D01*
X85372572Y-142310765D01*
X85395671Y-142319030D01*
X85417850Y-142329520D01*
X85438893Y-142342132D01*
X85458599Y-142356747D01*
X85476777Y-142373223D01*
X85493253Y-142391401D01*
X85507868Y-142411107D01*
X85520480Y-142432150D01*
X85530970Y-142454329D01*
X85539235Y-142477428D01*
X85545196Y-142501227D01*
X85548796Y-142525495D01*
X85550000Y-142549999D01*
X85550000Y-143450001D01*
X85548796Y-143474505D01*
X85545196Y-143498773D01*
X85539235Y-143522572D01*
X85530970Y-143545671D01*
X85520480Y-143567850D01*
X85507868Y-143588893D01*
X85493253Y-143608599D01*
X85476777Y-143626777D01*
X85458599Y-143643253D01*
X85438893Y-143657868D01*
X85417850Y-143670480D01*
X85395671Y-143680970D01*
X85372572Y-143689235D01*
X85348773Y-143695196D01*
X85324505Y-143698796D01*
X85300001Y-143700000D01*
X84649999Y-143700000D01*
X84625495Y-143698796D01*
X84601227Y-143695196D01*
X84577428Y-143689235D01*
X84554329Y-143680970D01*
X84532150Y-143670480D01*
X84511107Y-143657868D01*
X84491401Y-143643253D01*
X84473223Y-143626777D01*
X84456747Y-143608599D01*
X84442132Y-143588893D01*
X84429520Y-143567850D01*
X84419030Y-143545671D01*
X84410765Y-143522572D01*
X84404804Y-143498773D01*
X84401204Y-143474505D01*
X84400000Y-143450001D01*
X84400000Y-142549999D01*
X84401204Y-142525495D01*
X84404804Y-142501227D01*
X84410765Y-142477428D01*
X84419030Y-142454329D01*
X84429520Y-142432150D01*
X84442132Y-142411107D01*
X84456747Y-142391401D01*
X84473223Y-142373223D01*
X84491401Y-142356747D01*
X84511107Y-142342132D01*
X84532150Y-142329520D01*
X84554329Y-142319030D01*
X84577428Y-142310765D01*
X84601227Y-142304804D01*
X84625495Y-142301204D01*
X84649999Y-142300000D01*
X85300001Y-142300000D01*
X85324505Y-142301204D01*
X85324505Y-142301204D01*
G37*
D19*
G04 #@! TD*
G04 #@! TO.P,L3,1*
G04 #@! TO.N,Net-(J1-Pad5)*
X84975000Y-143000000D03*
D10*
G04 #@! TO.N,Net-(L3-Pad2)*
G04 #@! TO.C,L3*
G36*
X87374505Y-142301204D02*
X87398773Y-142304804D01*
X87422572Y-142310765D01*
X87445671Y-142319030D01*
X87467850Y-142329520D01*
X87488893Y-142342132D01*
X87508599Y-142356747D01*
X87526777Y-142373223D01*
X87543253Y-142391401D01*
X87557868Y-142411107D01*
X87570480Y-142432150D01*
X87580970Y-142454329D01*
X87589235Y-142477428D01*
X87595196Y-142501227D01*
X87598796Y-142525495D01*
X87600000Y-142549999D01*
X87600000Y-143450001D01*
X87598796Y-143474505D01*
X87595196Y-143498773D01*
X87589235Y-143522572D01*
X87580970Y-143545671D01*
X87570480Y-143567850D01*
X87557868Y-143588893D01*
X87543253Y-143608599D01*
X87526777Y-143626777D01*
X87508599Y-143643253D01*
X87488893Y-143657868D01*
X87467850Y-143670480D01*
X87445671Y-143680970D01*
X87422572Y-143689235D01*
X87398773Y-143695196D01*
X87374505Y-143698796D01*
X87350001Y-143700000D01*
X86699999Y-143700000D01*
X86675495Y-143698796D01*
X86651227Y-143695196D01*
X86627428Y-143689235D01*
X86604329Y-143680970D01*
X86582150Y-143670480D01*
X86561107Y-143657868D01*
X86541401Y-143643253D01*
X86523223Y-143626777D01*
X86506747Y-143608599D01*
X86492132Y-143588893D01*
X86479520Y-143567850D01*
X86469030Y-143545671D01*
X86460765Y-143522572D01*
X86454804Y-143498773D01*
X86451204Y-143474505D01*
X86450000Y-143450001D01*
X86450000Y-142549999D01*
X86451204Y-142525495D01*
X86454804Y-142501227D01*
X86460765Y-142477428D01*
X86469030Y-142454329D01*
X86479520Y-142432150D01*
X86492132Y-142411107D01*
X86506747Y-142391401D01*
X86523223Y-142373223D01*
X86541401Y-142356747D01*
X86561107Y-142342132D01*
X86582150Y-142329520D01*
X86604329Y-142319030D01*
X86627428Y-142310765D01*
X86651227Y-142304804D01*
X86675495Y-142301204D01*
X86699999Y-142300000D01*
X87350001Y-142300000D01*
X87374505Y-142301204D01*
X87374505Y-142301204D01*
G37*
D19*
G04 #@! TD*
G04 #@! TO.P,L3,2*
G04 #@! TO.N,Net-(L3-Pad2)*
X87025000Y-143000000D03*
D10*
G04 #@! TO.N,Net-(L15-Pad1)*
G04 #@! TO.C,L15*
G36*
X105124505Y-75051204D02*
X105148773Y-75054804D01*
X105172572Y-75060765D01*
X105195671Y-75069030D01*
X105217850Y-75079520D01*
X105238893Y-75092132D01*
X105258599Y-75106747D01*
X105276777Y-75123223D01*
X105293253Y-75141401D01*
X105307868Y-75161107D01*
X105320480Y-75182150D01*
X105330970Y-75204329D01*
X105339235Y-75227428D01*
X105345196Y-75251227D01*
X105348796Y-75275495D01*
X105350000Y-75299999D01*
X105350000Y-76200001D01*
X105348796Y-76224505D01*
X105345196Y-76248773D01*
X105339235Y-76272572D01*
X105330970Y-76295671D01*
X105320480Y-76317850D01*
X105307868Y-76338893D01*
X105293253Y-76358599D01*
X105276777Y-76376777D01*
X105258599Y-76393253D01*
X105238893Y-76407868D01*
X105217850Y-76420480D01*
X105195671Y-76430970D01*
X105172572Y-76439235D01*
X105148773Y-76445196D01*
X105124505Y-76448796D01*
X105100001Y-76450000D01*
X104449999Y-76450000D01*
X104425495Y-76448796D01*
X104401227Y-76445196D01*
X104377428Y-76439235D01*
X104354329Y-76430970D01*
X104332150Y-76420480D01*
X104311107Y-76407868D01*
X104291401Y-76393253D01*
X104273223Y-76376777D01*
X104256747Y-76358599D01*
X104242132Y-76338893D01*
X104229520Y-76317850D01*
X104219030Y-76295671D01*
X104210765Y-76272572D01*
X104204804Y-76248773D01*
X104201204Y-76224505D01*
X104200000Y-76200001D01*
X104200000Y-75299999D01*
X104201204Y-75275495D01*
X104204804Y-75251227D01*
X104210765Y-75227428D01*
X104219030Y-75204329D01*
X104229520Y-75182150D01*
X104242132Y-75161107D01*
X104256747Y-75141401D01*
X104273223Y-75123223D01*
X104291401Y-75106747D01*
X104311107Y-75092132D01*
X104332150Y-75079520D01*
X104354329Y-75069030D01*
X104377428Y-75060765D01*
X104401227Y-75054804D01*
X104425495Y-75051204D01*
X104449999Y-75050000D01*
X105100001Y-75050000D01*
X105124505Y-75051204D01*
X105124505Y-75051204D01*
G37*
D19*
G04 #@! TD*
G04 #@! TO.P,L15,1*
G04 #@! TO.N,Net-(L15-Pad1)*
X104775000Y-75750000D03*
D10*
G04 #@! TO.N,Net-(J9-Pad4)*
G04 #@! TO.C,L15*
G36*
X103074505Y-75051204D02*
X103098773Y-75054804D01*
X103122572Y-75060765D01*
X103145671Y-75069030D01*
X103167850Y-75079520D01*
X103188893Y-75092132D01*
X103208599Y-75106747D01*
X103226777Y-75123223D01*
X103243253Y-75141401D01*
X103257868Y-75161107D01*
X103270480Y-75182150D01*
X103280970Y-75204329D01*
X103289235Y-75227428D01*
X103295196Y-75251227D01*
X103298796Y-75275495D01*
X103300000Y-75299999D01*
X103300000Y-76200001D01*
X103298796Y-76224505D01*
X103295196Y-76248773D01*
X103289235Y-76272572D01*
X103280970Y-76295671D01*
X103270480Y-76317850D01*
X103257868Y-76338893D01*
X103243253Y-76358599D01*
X103226777Y-76376777D01*
X103208599Y-76393253D01*
X103188893Y-76407868D01*
X103167850Y-76420480D01*
X103145671Y-76430970D01*
X103122572Y-76439235D01*
X103098773Y-76445196D01*
X103074505Y-76448796D01*
X103050001Y-76450000D01*
X102399999Y-76450000D01*
X102375495Y-76448796D01*
X102351227Y-76445196D01*
X102327428Y-76439235D01*
X102304329Y-76430970D01*
X102282150Y-76420480D01*
X102261107Y-76407868D01*
X102241401Y-76393253D01*
X102223223Y-76376777D01*
X102206747Y-76358599D01*
X102192132Y-76338893D01*
X102179520Y-76317850D01*
X102169030Y-76295671D01*
X102160765Y-76272572D01*
X102154804Y-76248773D01*
X102151204Y-76224505D01*
X102150000Y-76200001D01*
X102150000Y-75299999D01*
X102151204Y-75275495D01*
X102154804Y-75251227D01*
X102160765Y-75227428D01*
X102169030Y-75204329D01*
X102179520Y-75182150D01*
X102192132Y-75161107D01*
X102206747Y-75141401D01*
X102223223Y-75123223D01*
X102241401Y-75106747D01*
X102261107Y-75092132D01*
X102282150Y-75079520D01*
X102304329Y-75069030D01*
X102327428Y-75060765D01*
X102351227Y-75054804D01*
X102375495Y-75051204D01*
X102399999Y-75050000D01*
X103050001Y-75050000D01*
X103074505Y-75051204D01*
X103074505Y-75051204D01*
G37*
D19*
G04 #@! TD*
G04 #@! TO.P,L15,2*
G04 #@! TO.N,Net-(J9-Pad4)*
X102725000Y-75750000D03*
D10*
G04 #@! TO.N,Net-(L16-Pad2)*
G04 #@! TO.C,L16*
G36*
X107574505Y-75051204D02*
X107598773Y-75054804D01*
X107622572Y-75060765D01*
X107645671Y-75069030D01*
X107667850Y-75079520D01*
X107688893Y-75092132D01*
X107708599Y-75106747D01*
X107726777Y-75123223D01*
X107743253Y-75141401D01*
X107757868Y-75161107D01*
X107770480Y-75182150D01*
X107780970Y-75204329D01*
X107789235Y-75227428D01*
X107795196Y-75251227D01*
X107798796Y-75275495D01*
X107800000Y-75299999D01*
X107800000Y-76200001D01*
X107798796Y-76224505D01*
X107795196Y-76248773D01*
X107789235Y-76272572D01*
X107780970Y-76295671D01*
X107770480Y-76317850D01*
X107757868Y-76338893D01*
X107743253Y-76358599D01*
X107726777Y-76376777D01*
X107708599Y-76393253D01*
X107688893Y-76407868D01*
X107667850Y-76420480D01*
X107645671Y-76430970D01*
X107622572Y-76439235D01*
X107598773Y-76445196D01*
X107574505Y-76448796D01*
X107550001Y-76450000D01*
X106899999Y-76450000D01*
X106875495Y-76448796D01*
X106851227Y-76445196D01*
X106827428Y-76439235D01*
X106804329Y-76430970D01*
X106782150Y-76420480D01*
X106761107Y-76407868D01*
X106741401Y-76393253D01*
X106723223Y-76376777D01*
X106706747Y-76358599D01*
X106692132Y-76338893D01*
X106679520Y-76317850D01*
X106669030Y-76295671D01*
X106660765Y-76272572D01*
X106654804Y-76248773D01*
X106651204Y-76224505D01*
X106650000Y-76200001D01*
X106650000Y-75299999D01*
X106651204Y-75275495D01*
X106654804Y-75251227D01*
X106660765Y-75227428D01*
X106669030Y-75204329D01*
X106679520Y-75182150D01*
X106692132Y-75161107D01*
X106706747Y-75141401D01*
X106723223Y-75123223D01*
X106741401Y-75106747D01*
X106761107Y-75092132D01*
X106782150Y-75079520D01*
X106804329Y-75069030D01*
X106827428Y-75060765D01*
X106851227Y-75054804D01*
X106875495Y-75051204D01*
X106899999Y-75050000D01*
X107550001Y-75050000D01*
X107574505Y-75051204D01*
X107574505Y-75051204D01*
G37*
D19*
G04 #@! TD*
G04 #@! TO.P,L16,2*
G04 #@! TO.N,Net-(L16-Pad2)*
X107225000Y-75750000D03*
D10*
G04 #@! TO.N,Net-(J9-Pad5)*
G04 #@! TO.C,L16*
G36*
X109624505Y-75051204D02*
X109648773Y-75054804D01*
X109672572Y-75060765D01*
X109695671Y-75069030D01*
X109717850Y-75079520D01*
X109738893Y-75092132D01*
X109758599Y-75106747D01*
X109776777Y-75123223D01*
X109793253Y-75141401D01*
X109807868Y-75161107D01*
X109820480Y-75182150D01*
X109830970Y-75204329D01*
X109839235Y-75227428D01*
X109845196Y-75251227D01*
X109848796Y-75275495D01*
X109850000Y-75299999D01*
X109850000Y-76200001D01*
X109848796Y-76224505D01*
X109845196Y-76248773D01*
X109839235Y-76272572D01*
X109830970Y-76295671D01*
X109820480Y-76317850D01*
X109807868Y-76338893D01*
X109793253Y-76358599D01*
X109776777Y-76376777D01*
X109758599Y-76393253D01*
X109738893Y-76407868D01*
X109717850Y-76420480D01*
X109695671Y-76430970D01*
X109672572Y-76439235D01*
X109648773Y-76445196D01*
X109624505Y-76448796D01*
X109600001Y-76450000D01*
X108949999Y-76450000D01*
X108925495Y-76448796D01*
X108901227Y-76445196D01*
X108877428Y-76439235D01*
X108854329Y-76430970D01*
X108832150Y-76420480D01*
X108811107Y-76407868D01*
X108791401Y-76393253D01*
X108773223Y-76376777D01*
X108756747Y-76358599D01*
X108742132Y-76338893D01*
X108729520Y-76317850D01*
X108719030Y-76295671D01*
X108710765Y-76272572D01*
X108704804Y-76248773D01*
X108701204Y-76224505D01*
X108700000Y-76200001D01*
X108700000Y-75299999D01*
X108701204Y-75275495D01*
X108704804Y-75251227D01*
X108710765Y-75227428D01*
X108719030Y-75204329D01*
X108729520Y-75182150D01*
X108742132Y-75161107D01*
X108756747Y-75141401D01*
X108773223Y-75123223D01*
X108791401Y-75106747D01*
X108811107Y-75092132D01*
X108832150Y-75079520D01*
X108854329Y-75069030D01*
X108877428Y-75060765D01*
X108901227Y-75054804D01*
X108925495Y-75051204D01*
X108949999Y-75050000D01*
X109600001Y-75050000D01*
X109624505Y-75051204D01*
X109624505Y-75051204D01*
G37*
D19*
G04 #@! TD*
G04 #@! TO.P,L16,1*
G04 #@! TO.N,Net-(J9-Pad5)*
X109275000Y-75750000D03*
D10*
G04 #@! TO.N,Net-(L13-Pad1)*
G04 #@! TO.C,L13*
G36*
X105374505Y-97051204D02*
X105398773Y-97054804D01*
X105422572Y-97060765D01*
X105445671Y-97069030D01*
X105467850Y-97079520D01*
X105488893Y-97092132D01*
X105508599Y-97106747D01*
X105526777Y-97123223D01*
X105543253Y-97141401D01*
X105557868Y-97161107D01*
X105570480Y-97182150D01*
X105580970Y-97204329D01*
X105589235Y-97227428D01*
X105595196Y-97251227D01*
X105598796Y-97275495D01*
X105600000Y-97299999D01*
X105600000Y-98200001D01*
X105598796Y-98224505D01*
X105595196Y-98248773D01*
X105589235Y-98272572D01*
X105580970Y-98295671D01*
X105570480Y-98317850D01*
X105557868Y-98338893D01*
X105543253Y-98358599D01*
X105526777Y-98376777D01*
X105508599Y-98393253D01*
X105488893Y-98407868D01*
X105467850Y-98420480D01*
X105445671Y-98430970D01*
X105422572Y-98439235D01*
X105398773Y-98445196D01*
X105374505Y-98448796D01*
X105350001Y-98450000D01*
X104699999Y-98450000D01*
X104675495Y-98448796D01*
X104651227Y-98445196D01*
X104627428Y-98439235D01*
X104604329Y-98430970D01*
X104582150Y-98420480D01*
X104561107Y-98407868D01*
X104541401Y-98393253D01*
X104523223Y-98376777D01*
X104506747Y-98358599D01*
X104492132Y-98338893D01*
X104479520Y-98317850D01*
X104469030Y-98295671D01*
X104460765Y-98272572D01*
X104454804Y-98248773D01*
X104451204Y-98224505D01*
X104450000Y-98200001D01*
X104450000Y-97299999D01*
X104451204Y-97275495D01*
X104454804Y-97251227D01*
X104460765Y-97227428D01*
X104469030Y-97204329D01*
X104479520Y-97182150D01*
X104492132Y-97161107D01*
X104506747Y-97141401D01*
X104523223Y-97123223D01*
X104541401Y-97106747D01*
X104561107Y-97092132D01*
X104582150Y-97079520D01*
X104604329Y-97069030D01*
X104627428Y-97060765D01*
X104651227Y-97054804D01*
X104675495Y-97051204D01*
X104699999Y-97050000D01*
X105350001Y-97050000D01*
X105374505Y-97051204D01*
X105374505Y-97051204D01*
G37*
D19*
G04 #@! TD*
G04 #@! TO.P,L13,1*
G04 #@! TO.N,Net-(L13-Pad1)*
X105025000Y-97750000D03*
D10*
G04 #@! TO.N,Net-(J8-Pad4)*
G04 #@! TO.C,L13*
G36*
X103324505Y-97051204D02*
X103348773Y-97054804D01*
X103372572Y-97060765D01*
X103395671Y-97069030D01*
X103417850Y-97079520D01*
X103438893Y-97092132D01*
X103458599Y-97106747D01*
X103476777Y-97123223D01*
X103493253Y-97141401D01*
X103507868Y-97161107D01*
X103520480Y-97182150D01*
X103530970Y-97204329D01*
X103539235Y-97227428D01*
X103545196Y-97251227D01*
X103548796Y-97275495D01*
X103550000Y-97299999D01*
X103550000Y-98200001D01*
X103548796Y-98224505D01*
X103545196Y-98248773D01*
X103539235Y-98272572D01*
X103530970Y-98295671D01*
X103520480Y-98317850D01*
X103507868Y-98338893D01*
X103493253Y-98358599D01*
X103476777Y-98376777D01*
X103458599Y-98393253D01*
X103438893Y-98407868D01*
X103417850Y-98420480D01*
X103395671Y-98430970D01*
X103372572Y-98439235D01*
X103348773Y-98445196D01*
X103324505Y-98448796D01*
X103300001Y-98450000D01*
X102649999Y-98450000D01*
X102625495Y-98448796D01*
X102601227Y-98445196D01*
X102577428Y-98439235D01*
X102554329Y-98430970D01*
X102532150Y-98420480D01*
X102511107Y-98407868D01*
X102491401Y-98393253D01*
X102473223Y-98376777D01*
X102456747Y-98358599D01*
X102442132Y-98338893D01*
X102429520Y-98317850D01*
X102419030Y-98295671D01*
X102410765Y-98272572D01*
X102404804Y-98248773D01*
X102401204Y-98224505D01*
X102400000Y-98200001D01*
X102400000Y-97299999D01*
X102401204Y-97275495D01*
X102404804Y-97251227D01*
X102410765Y-97227428D01*
X102419030Y-97204329D01*
X102429520Y-97182150D01*
X102442132Y-97161107D01*
X102456747Y-97141401D01*
X102473223Y-97123223D01*
X102491401Y-97106747D01*
X102511107Y-97092132D01*
X102532150Y-97079520D01*
X102554329Y-97069030D01*
X102577428Y-97060765D01*
X102601227Y-97054804D01*
X102625495Y-97051204D01*
X102649999Y-97050000D01*
X103300001Y-97050000D01*
X103324505Y-97051204D01*
X103324505Y-97051204D01*
G37*
D19*
G04 #@! TD*
G04 #@! TO.P,L13,2*
G04 #@! TO.N,Net-(J8-Pad4)*
X102975000Y-97750000D03*
D10*
G04 #@! TO.N,Net-(L14-Pad2)*
G04 #@! TO.C,L14*
G36*
X107574505Y-97051204D02*
X107598773Y-97054804D01*
X107622572Y-97060765D01*
X107645671Y-97069030D01*
X107667850Y-97079520D01*
X107688893Y-97092132D01*
X107708599Y-97106747D01*
X107726777Y-97123223D01*
X107743253Y-97141401D01*
X107757868Y-97161107D01*
X107770480Y-97182150D01*
X107780970Y-97204329D01*
X107789235Y-97227428D01*
X107795196Y-97251227D01*
X107798796Y-97275495D01*
X107800000Y-97299999D01*
X107800000Y-98200001D01*
X107798796Y-98224505D01*
X107795196Y-98248773D01*
X107789235Y-98272572D01*
X107780970Y-98295671D01*
X107770480Y-98317850D01*
X107757868Y-98338893D01*
X107743253Y-98358599D01*
X107726777Y-98376777D01*
X107708599Y-98393253D01*
X107688893Y-98407868D01*
X107667850Y-98420480D01*
X107645671Y-98430970D01*
X107622572Y-98439235D01*
X107598773Y-98445196D01*
X107574505Y-98448796D01*
X107550001Y-98450000D01*
X106899999Y-98450000D01*
X106875495Y-98448796D01*
X106851227Y-98445196D01*
X106827428Y-98439235D01*
X106804329Y-98430970D01*
X106782150Y-98420480D01*
X106761107Y-98407868D01*
X106741401Y-98393253D01*
X106723223Y-98376777D01*
X106706747Y-98358599D01*
X106692132Y-98338893D01*
X106679520Y-98317850D01*
X106669030Y-98295671D01*
X106660765Y-98272572D01*
X106654804Y-98248773D01*
X106651204Y-98224505D01*
X106650000Y-98200001D01*
X106650000Y-97299999D01*
X106651204Y-97275495D01*
X106654804Y-97251227D01*
X106660765Y-97227428D01*
X106669030Y-97204329D01*
X106679520Y-97182150D01*
X106692132Y-97161107D01*
X106706747Y-97141401D01*
X106723223Y-97123223D01*
X106741401Y-97106747D01*
X106761107Y-97092132D01*
X106782150Y-97079520D01*
X106804329Y-97069030D01*
X106827428Y-97060765D01*
X106851227Y-97054804D01*
X106875495Y-97051204D01*
X106899999Y-97050000D01*
X107550001Y-97050000D01*
X107574505Y-97051204D01*
X107574505Y-97051204D01*
G37*
D19*
G04 #@! TD*
G04 #@! TO.P,L14,2*
G04 #@! TO.N,Net-(L14-Pad2)*
X107225000Y-97750000D03*
D10*
G04 #@! TO.N,Net-(J8-Pad5)*
G04 #@! TO.C,L14*
G36*
X109624505Y-97051204D02*
X109648773Y-97054804D01*
X109672572Y-97060765D01*
X109695671Y-97069030D01*
X109717850Y-97079520D01*
X109738893Y-97092132D01*
X109758599Y-97106747D01*
X109776777Y-97123223D01*
X109793253Y-97141401D01*
X109807868Y-97161107D01*
X109820480Y-97182150D01*
X109830970Y-97204329D01*
X109839235Y-97227428D01*
X109845196Y-97251227D01*
X109848796Y-97275495D01*
X109850000Y-97299999D01*
X109850000Y-98200001D01*
X109848796Y-98224505D01*
X109845196Y-98248773D01*
X109839235Y-98272572D01*
X109830970Y-98295671D01*
X109820480Y-98317850D01*
X109807868Y-98338893D01*
X109793253Y-98358599D01*
X109776777Y-98376777D01*
X109758599Y-98393253D01*
X109738893Y-98407868D01*
X109717850Y-98420480D01*
X109695671Y-98430970D01*
X109672572Y-98439235D01*
X109648773Y-98445196D01*
X109624505Y-98448796D01*
X109600001Y-98450000D01*
X108949999Y-98450000D01*
X108925495Y-98448796D01*
X108901227Y-98445196D01*
X108877428Y-98439235D01*
X108854329Y-98430970D01*
X108832150Y-98420480D01*
X108811107Y-98407868D01*
X108791401Y-98393253D01*
X108773223Y-98376777D01*
X108756747Y-98358599D01*
X108742132Y-98338893D01*
X108729520Y-98317850D01*
X108719030Y-98295671D01*
X108710765Y-98272572D01*
X108704804Y-98248773D01*
X108701204Y-98224505D01*
X108700000Y-98200001D01*
X108700000Y-97299999D01*
X108701204Y-97275495D01*
X108704804Y-97251227D01*
X108710765Y-97227428D01*
X108719030Y-97204329D01*
X108729520Y-97182150D01*
X108742132Y-97161107D01*
X108756747Y-97141401D01*
X108773223Y-97123223D01*
X108791401Y-97106747D01*
X108811107Y-97092132D01*
X108832150Y-97079520D01*
X108854329Y-97069030D01*
X108877428Y-97060765D01*
X108901227Y-97054804D01*
X108925495Y-97051204D01*
X108949999Y-97050000D01*
X109600001Y-97050000D01*
X109624505Y-97051204D01*
X109624505Y-97051204D01*
G37*
D19*
G04 #@! TD*
G04 #@! TO.P,L14,1*
G04 #@! TO.N,Net-(J8-Pad5)*
X109275000Y-97750000D03*
D10*
G04 #@! TO.N,Net-(L11-Pad1)*
G04 #@! TO.C,L11*
G36*
X105124505Y-118801204D02*
X105148773Y-118804804D01*
X105172572Y-118810765D01*
X105195671Y-118819030D01*
X105217850Y-118829520D01*
X105238893Y-118842132D01*
X105258599Y-118856747D01*
X105276777Y-118873223D01*
X105293253Y-118891401D01*
X105307868Y-118911107D01*
X105320480Y-118932150D01*
X105330970Y-118954329D01*
X105339235Y-118977428D01*
X105345196Y-119001227D01*
X105348796Y-119025495D01*
X105350000Y-119049999D01*
X105350000Y-119950001D01*
X105348796Y-119974505D01*
X105345196Y-119998773D01*
X105339235Y-120022572D01*
X105330970Y-120045671D01*
X105320480Y-120067850D01*
X105307868Y-120088893D01*
X105293253Y-120108599D01*
X105276777Y-120126777D01*
X105258599Y-120143253D01*
X105238893Y-120157868D01*
X105217850Y-120170480D01*
X105195671Y-120180970D01*
X105172572Y-120189235D01*
X105148773Y-120195196D01*
X105124505Y-120198796D01*
X105100001Y-120200000D01*
X104449999Y-120200000D01*
X104425495Y-120198796D01*
X104401227Y-120195196D01*
X104377428Y-120189235D01*
X104354329Y-120180970D01*
X104332150Y-120170480D01*
X104311107Y-120157868D01*
X104291401Y-120143253D01*
X104273223Y-120126777D01*
X104256747Y-120108599D01*
X104242132Y-120088893D01*
X104229520Y-120067850D01*
X104219030Y-120045671D01*
X104210765Y-120022572D01*
X104204804Y-119998773D01*
X104201204Y-119974505D01*
X104200000Y-119950001D01*
X104200000Y-119049999D01*
X104201204Y-119025495D01*
X104204804Y-119001227D01*
X104210765Y-118977428D01*
X104219030Y-118954329D01*
X104229520Y-118932150D01*
X104242132Y-118911107D01*
X104256747Y-118891401D01*
X104273223Y-118873223D01*
X104291401Y-118856747D01*
X104311107Y-118842132D01*
X104332150Y-118829520D01*
X104354329Y-118819030D01*
X104377428Y-118810765D01*
X104401227Y-118804804D01*
X104425495Y-118801204D01*
X104449999Y-118800000D01*
X105100001Y-118800000D01*
X105124505Y-118801204D01*
X105124505Y-118801204D01*
G37*
D19*
G04 #@! TD*
G04 #@! TO.P,L11,1*
G04 #@! TO.N,Net-(L11-Pad1)*
X104775000Y-119500000D03*
D10*
G04 #@! TO.N,Net-(J7-Pad4)*
G04 #@! TO.C,L11*
G36*
X103074505Y-118801204D02*
X103098773Y-118804804D01*
X103122572Y-118810765D01*
X103145671Y-118819030D01*
X103167850Y-118829520D01*
X103188893Y-118842132D01*
X103208599Y-118856747D01*
X103226777Y-118873223D01*
X103243253Y-118891401D01*
X103257868Y-118911107D01*
X103270480Y-118932150D01*
X103280970Y-118954329D01*
X103289235Y-118977428D01*
X103295196Y-119001227D01*
X103298796Y-119025495D01*
X103300000Y-119049999D01*
X103300000Y-119950001D01*
X103298796Y-119974505D01*
X103295196Y-119998773D01*
X103289235Y-120022572D01*
X103280970Y-120045671D01*
X103270480Y-120067850D01*
X103257868Y-120088893D01*
X103243253Y-120108599D01*
X103226777Y-120126777D01*
X103208599Y-120143253D01*
X103188893Y-120157868D01*
X103167850Y-120170480D01*
X103145671Y-120180970D01*
X103122572Y-120189235D01*
X103098773Y-120195196D01*
X103074505Y-120198796D01*
X103050001Y-120200000D01*
X102399999Y-120200000D01*
X102375495Y-120198796D01*
X102351227Y-120195196D01*
X102327428Y-120189235D01*
X102304329Y-120180970D01*
X102282150Y-120170480D01*
X102261107Y-120157868D01*
X102241401Y-120143253D01*
X102223223Y-120126777D01*
X102206747Y-120108599D01*
X102192132Y-120088893D01*
X102179520Y-120067850D01*
X102169030Y-120045671D01*
X102160765Y-120022572D01*
X102154804Y-119998773D01*
X102151204Y-119974505D01*
X102150000Y-119950001D01*
X102150000Y-119049999D01*
X102151204Y-119025495D01*
X102154804Y-119001227D01*
X102160765Y-118977428D01*
X102169030Y-118954329D01*
X102179520Y-118932150D01*
X102192132Y-118911107D01*
X102206747Y-118891401D01*
X102223223Y-118873223D01*
X102241401Y-118856747D01*
X102261107Y-118842132D01*
X102282150Y-118829520D01*
X102304329Y-118819030D01*
X102327428Y-118810765D01*
X102351227Y-118804804D01*
X102375495Y-118801204D01*
X102399999Y-118800000D01*
X103050001Y-118800000D01*
X103074505Y-118801204D01*
X103074505Y-118801204D01*
G37*
D19*
G04 #@! TD*
G04 #@! TO.P,L11,2*
G04 #@! TO.N,Net-(J7-Pad4)*
X102725000Y-119500000D03*
D10*
G04 #@! TO.N,Net-(L12-Pad2)*
G04 #@! TO.C,L12*
G36*
X107574505Y-118801204D02*
X107598773Y-118804804D01*
X107622572Y-118810765D01*
X107645671Y-118819030D01*
X107667850Y-118829520D01*
X107688893Y-118842132D01*
X107708599Y-118856747D01*
X107726777Y-118873223D01*
X107743253Y-118891401D01*
X107757868Y-118911107D01*
X107770480Y-118932150D01*
X107780970Y-118954329D01*
X107789235Y-118977428D01*
X107795196Y-119001227D01*
X107798796Y-119025495D01*
X107800000Y-119049999D01*
X107800000Y-119950001D01*
X107798796Y-119974505D01*
X107795196Y-119998773D01*
X107789235Y-120022572D01*
X107780970Y-120045671D01*
X107770480Y-120067850D01*
X107757868Y-120088893D01*
X107743253Y-120108599D01*
X107726777Y-120126777D01*
X107708599Y-120143253D01*
X107688893Y-120157868D01*
X107667850Y-120170480D01*
X107645671Y-120180970D01*
X107622572Y-120189235D01*
X107598773Y-120195196D01*
X107574505Y-120198796D01*
X107550001Y-120200000D01*
X106899999Y-120200000D01*
X106875495Y-120198796D01*
X106851227Y-120195196D01*
X106827428Y-120189235D01*
X106804329Y-120180970D01*
X106782150Y-120170480D01*
X106761107Y-120157868D01*
X106741401Y-120143253D01*
X106723223Y-120126777D01*
X106706747Y-120108599D01*
X106692132Y-120088893D01*
X106679520Y-120067850D01*
X106669030Y-120045671D01*
X106660765Y-120022572D01*
X106654804Y-119998773D01*
X106651204Y-119974505D01*
X106650000Y-119950001D01*
X106650000Y-119049999D01*
X106651204Y-119025495D01*
X106654804Y-119001227D01*
X106660765Y-118977428D01*
X106669030Y-118954329D01*
X106679520Y-118932150D01*
X106692132Y-118911107D01*
X106706747Y-118891401D01*
X106723223Y-118873223D01*
X106741401Y-118856747D01*
X106761107Y-118842132D01*
X106782150Y-118829520D01*
X106804329Y-118819030D01*
X106827428Y-118810765D01*
X106851227Y-118804804D01*
X106875495Y-118801204D01*
X106899999Y-118800000D01*
X107550001Y-118800000D01*
X107574505Y-118801204D01*
X107574505Y-118801204D01*
G37*
D19*
G04 #@! TD*
G04 #@! TO.P,L12,2*
G04 #@! TO.N,Net-(L12-Pad2)*
X107225000Y-119500000D03*
D10*
G04 #@! TO.N,Net-(J7-Pad5)*
G04 #@! TO.C,L12*
G36*
X109624505Y-118801204D02*
X109648773Y-118804804D01*
X109672572Y-118810765D01*
X109695671Y-118819030D01*
X109717850Y-118829520D01*
X109738893Y-118842132D01*
X109758599Y-118856747D01*
X109776777Y-118873223D01*
X109793253Y-118891401D01*
X109807868Y-118911107D01*
X109820480Y-118932150D01*
X109830970Y-118954329D01*
X109839235Y-118977428D01*
X109845196Y-119001227D01*
X109848796Y-119025495D01*
X109850000Y-119049999D01*
X109850000Y-119950001D01*
X109848796Y-119974505D01*
X109845196Y-119998773D01*
X109839235Y-120022572D01*
X109830970Y-120045671D01*
X109820480Y-120067850D01*
X109807868Y-120088893D01*
X109793253Y-120108599D01*
X109776777Y-120126777D01*
X109758599Y-120143253D01*
X109738893Y-120157868D01*
X109717850Y-120170480D01*
X109695671Y-120180970D01*
X109672572Y-120189235D01*
X109648773Y-120195196D01*
X109624505Y-120198796D01*
X109600001Y-120200000D01*
X108949999Y-120200000D01*
X108925495Y-120198796D01*
X108901227Y-120195196D01*
X108877428Y-120189235D01*
X108854329Y-120180970D01*
X108832150Y-120170480D01*
X108811107Y-120157868D01*
X108791401Y-120143253D01*
X108773223Y-120126777D01*
X108756747Y-120108599D01*
X108742132Y-120088893D01*
X108729520Y-120067850D01*
X108719030Y-120045671D01*
X108710765Y-120022572D01*
X108704804Y-119998773D01*
X108701204Y-119974505D01*
X108700000Y-119950001D01*
X108700000Y-119049999D01*
X108701204Y-119025495D01*
X108704804Y-119001227D01*
X108710765Y-118977428D01*
X108719030Y-118954329D01*
X108729520Y-118932150D01*
X108742132Y-118911107D01*
X108756747Y-118891401D01*
X108773223Y-118873223D01*
X108791401Y-118856747D01*
X108811107Y-118842132D01*
X108832150Y-118829520D01*
X108854329Y-118819030D01*
X108877428Y-118810765D01*
X108901227Y-118804804D01*
X108925495Y-118801204D01*
X108949999Y-118800000D01*
X109600001Y-118800000D01*
X109624505Y-118801204D01*
X109624505Y-118801204D01*
G37*
D19*
G04 #@! TD*
G04 #@! TO.P,L12,1*
G04 #@! TO.N,Net-(J7-Pad5)*
X109275000Y-119500000D03*
D10*
G04 #@! TO.N,Net-(L9-Pad1)*
G04 #@! TO.C,L9*
G36*
X105349505Y-141051204D02*
X105373773Y-141054804D01*
X105397572Y-141060765D01*
X105420671Y-141069030D01*
X105442850Y-141079520D01*
X105463893Y-141092132D01*
X105483599Y-141106747D01*
X105501777Y-141123223D01*
X105518253Y-141141401D01*
X105532868Y-141161107D01*
X105545480Y-141182150D01*
X105555970Y-141204329D01*
X105564235Y-141227428D01*
X105570196Y-141251227D01*
X105573796Y-141275495D01*
X105575000Y-141299999D01*
X105575000Y-142200001D01*
X105573796Y-142224505D01*
X105570196Y-142248773D01*
X105564235Y-142272572D01*
X105555970Y-142295671D01*
X105545480Y-142317850D01*
X105532868Y-142338893D01*
X105518253Y-142358599D01*
X105501777Y-142376777D01*
X105483599Y-142393253D01*
X105463893Y-142407868D01*
X105442850Y-142420480D01*
X105420671Y-142430970D01*
X105397572Y-142439235D01*
X105373773Y-142445196D01*
X105349505Y-142448796D01*
X105325001Y-142450000D01*
X104674999Y-142450000D01*
X104650495Y-142448796D01*
X104626227Y-142445196D01*
X104602428Y-142439235D01*
X104579329Y-142430970D01*
X104557150Y-142420480D01*
X104536107Y-142407868D01*
X104516401Y-142393253D01*
X104498223Y-142376777D01*
X104481747Y-142358599D01*
X104467132Y-142338893D01*
X104454520Y-142317850D01*
X104444030Y-142295671D01*
X104435765Y-142272572D01*
X104429804Y-142248773D01*
X104426204Y-142224505D01*
X104425000Y-142200001D01*
X104425000Y-141299999D01*
X104426204Y-141275495D01*
X104429804Y-141251227D01*
X104435765Y-141227428D01*
X104444030Y-141204329D01*
X104454520Y-141182150D01*
X104467132Y-141161107D01*
X104481747Y-141141401D01*
X104498223Y-141123223D01*
X104516401Y-141106747D01*
X104536107Y-141092132D01*
X104557150Y-141079520D01*
X104579329Y-141069030D01*
X104602428Y-141060765D01*
X104626227Y-141054804D01*
X104650495Y-141051204D01*
X104674999Y-141050000D01*
X105325001Y-141050000D01*
X105349505Y-141051204D01*
X105349505Y-141051204D01*
G37*
D19*
G04 #@! TD*
G04 #@! TO.P,L9,1*
G04 #@! TO.N,Net-(L9-Pad1)*
X105000000Y-141750000D03*
D10*
G04 #@! TO.N,Net-(J6-Pad4)*
G04 #@! TO.C,L9*
G36*
X103299505Y-141051204D02*
X103323773Y-141054804D01*
X103347572Y-141060765D01*
X103370671Y-141069030D01*
X103392850Y-141079520D01*
X103413893Y-141092132D01*
X103433599Y-141106747D01*
X103451777Y-141123223D01*
X103468253Y-141141401D01*
X103482868Y-141161107D01*
X103495480Y-141182150D01*
X103505970Y-141204329D01*
X103514235Y-141227428D01*
X103520196Y-141251227D01*
X103523796Y-141275495D01*
X103525000Y-141299999D01*
X103525000Y-142200001D01*
X103523796Y-142224505D01*
X103520196Y-142248773D01*
X103514235Y-142272572D01*
X103505970Y-142295671D01*
X103495480Y-142317850D01*
X103482868Y-142338893D01*
X103468253Y-142358599D01*
X103451777Y-142376777D01*
X103433599Y-142393253D01*
X103413893Y-142407868D01*
X103392850Y-142420480D01*
X103370671Y-142430970D01*
X103347572Y-142439235D01*
X103323773Y-142445196D01*
X103299505Y-142448796D01*
X103275001Y-142450000D01*
X102624999Y-142450000D01*
X102600495Y-142448796D01*
X102576227Y-142445196D01*
X102552428Y-142439235D01*
X102529329Y-142430970D01*
X102507150Y-142420480D01*
X102486107Y-142407868D01*
X102466401Y-142393253D01*
X102448223Y-142376777D01*
X102431747Y-142358599D01*
X102417132Y-142338893D01*
X102404520Y-142317850D01*
X102394030Y-142295671D01*
X102385765Y-142272572D01*
X102379804Y-142248773D01*
X102376204Y-142224505D01*
X102375000Y-142200001D01*
X102375000Y-141299999D01*
X102376204Y-141275495D01*
X102379804Y-141251227D01*
X102385765Y-141227428D01*
X102394030Y-141204329D01*
X102404520Y-141182150D01*
X102417132Y-141161107D01*
X102431747Y-141141401D01*
X102448223Y-141123223D01*
X102466401Y-141106747D01*
X102486107Y-141092132D01*
X102507150Y-141079520D01*
X102529329Y-141069030D01*
X102552428Y-141060765D01*
X102576227Y-141054804D01*
X102600495Y-141051204D01*
X102624999Y-141050000D01*
X103275001Y-141050000D01*
X103299505Y-141051204D01*
X103299505Y-141051204D01*
G37*
D19*
G04 #@! TD*
G04 #@! TO.P,L9,2*
G04 #@! TO.N,Net-(J6-Pad4)*
X102950000Y-141750000D03*
D10*
G04 #@! TO.N,Net-(L10-Pad2)*
G04 #@! TO.C,L10*
G36*
X107324505Y-141051204D02*
X107348773Y-141054804D01*
X107372572Y-141060765D01*
X107395671Y-141069030D01*
X107417850Y-141079520D01*
X107438893Y-141092132D01*
X107458599Y-141106747D01*
X107476777Y-141123223D01*
X107493253Y-141141401D01*
X107507868Y-141161107D01*
X107520480Y-141182150D01*
X107530970Y-141204329D01*
X107539235Y-141227428D01*
X107545196Y-141251227D01*
X107548796Y-141275495D01*
X107550000Y-141299999D01*
X107550000Y-142200001D01*
X107548796Y-142224505D01*
X107545196Y-142248773D01*
X107539235Y-142272572D01*
X107530970Y-142295671D01*
X107520480Y-142317850D01*
X107507868Y-142338893D01*
X107493253Y-142358599D01*
X107476777Y-142376777D01*
X107458599Y-142393253D01*
X107438893Y-142407868D01*
X107417850Y-142420480D01*
X107395671Y-142430970D01*
X107372572Y-142439235D01*
X107348773Y-142445196D01*
X107324505Y-142448796D01*
X107300001Y-142450000D01*
X106649999Y-142450000D01*
X106625495Y-142448796D01*
X106601227Y-142445196D01*
X106577428Y-142439235D01*
X106554329Y-142430970D01*
X106532150Y-142420480D01*
X106511107Y-142407868D01*
X106491401Y-142393253D01*
X106473223Y-142376777D01*
X106456747Y-142358599D01*
X106442132Y-142338893D01*
X106429520Y-142317850D01*
X106419030Y-142295671D01*
X106410765Y-142272572D01*
X106404804Y-142248773D01*
X106401204Y-142224505D01*
X106400000Y-142200001D01*
X106400000Y-141299999D01*
X106401204Y-141275495D01*
X106404804Y-141251227D01*
X106410765Y-141227428D01*
X106419030Y-141204329D01*
X106429520Y-141182150D01*
X106442132Y-141161107D01*
X106456747Y-141141401D01*
X106473223Y-141123223D01*
X106491401Y-141106747D01*
X106511107Y-141092132D01*
X106532150Y-141079520D01*
X106554329Y-141069030D01*
X106577428Y-141060765D01*
X106601227Y-141054804D01*
X106625495Y-141051204D01*
X106649999Y-141050000D01*
X107300001Y-141050000D01*
X107324505Y-141051204D01*
X107324505Y-141051204D01*
G37*
D19*
G04 #@! TD*
G04 #@! TO.P,L10,2*
G04 #@! TO.N,Net-(L10-Pad2)*
X106975000Y-141750000D03*
D10*
G04 #@! TO.N,Net-(J6-Pad5)*
G04 #@! TO.C,L10*
G36*
X109374505Y-141051204D02*
X109398773Y-141054804D01*
X109422572Y-141060765D01*
X109445671Y-141069030D01*
X109467850Y-141079520D01*
X109488893Y-141092132D01*
X109508599Y-141106747D01*
X109526777Y-141123223D01*
X109543253Y-141141401D01*
X109557868Y-141161107D01*
X109570480Y-141182150D01*
X109580970Y-141204329D01*
X109589235Y-141227428D01*
X109595196Y-141251227D01*
X109598796Y-141275495D01*
X109600000Y-141299999D01*
X109600000Y-142200001D01*
X109598796Y-142224505D01*
X109595196Y-142248773D01*
X109589235Y-142272572D01*
X109580970Y-142295671D01*
X109570480Y-142317850D01*
X109557868Y-142338893D01*
X109543253Y-142358599D01*
X109526777Y-142376777D01*
X109508599Y-142393253D01*
X109488893Y-142407868D01*
X109467850Y-142420480D01*
X109445671Y-142430970D01*
X109422572Y-142439235D01*
X109398773Y-142445196D01*
X109374505Y-142448796D01*
X109350001Y-142450000D01*
X108699999Y-142450000D01*
X108675495Y-142448796D01*
X108651227Y-142445196D01*
X108627428Y-142439235D01*
X108604329Y-142430970D01*
X108582150Y-142420480D01*
X108561107Y-142407868D01*
X108541401Y-142393253D01*
X108523223Y-142376777D01*
X108506747Y-142358599D01*
X108492132Y-142338893D01*
X108479520Y-142317850D01*
X108469030Y-142295671D01*
X108460765Y-142272572D01*
X108454804Y-142248773D01*
X108451204Y-142224505D01*
X108450000Y-142200001D01*
X108450000Y-141299999D01*
X108451204Y-141275495D01*
X108454804Y-141251227D01*
X108460765Y-141227428D01*
X108469030Y-141204329D01*
X108479520Y-141182150D01*
X108492132Y-141161107D01*
X108506747Y-141141401D01*
X108523223Y-141123223D01*
X108541401Y-141106747D01*
X108561107Y-141092132D01*
X108582150Y-141079520D01*
X108604329Y-141069030D01*
X108627428Y-141060765D01*
X108651227Y-141054804D01*
X108675495Y-141051204D01*
X108699999Y-141050000D01*
X109350001Y-141050000D01*
X109374505Y-141051204D01*
X109374505Y-141051204D01*
G37*
D19*
G04 #@! TD*
G04 #@! TO.P,L10,1*
G04 #@! TO.N,Net-(J6-Pad5)*
X109025000Y-141750000D03*
D20*
G04 #@! TO.N,GND*
X97000000Y-100000000D03*
X97000000Y-103000000D03*
X97000000Y-106000000D03*
X82250000Y-74000000D03*
X82250000Y-96000000D03*
X82250000Y-118000000D03*
X82250000Y-140000000D03*
G04 #@! TO.N,LEDK1*
X93000000Y-111000000D03*
X93000000Y-124500000D03*
G04 #@! TO.N,LED1*
X95152710Y-127200012D03*
X94500000Y-124750000D03*
G04 #@! TO.N,LEDK2*
X99000000Y-95000000D03*
X93000000Y-125500000D03*
G04 #@! TO.N,MIDI_IN_1*
X102000000Y-93000000D03*
X96000000Y-96000000D03*
G04 #@! TD*
D21*
G04 #@! TO.N,Net-(C1-Pad1)*
X84187500Y-137687500D02*
X84000000Y-137500000D01*
X84937500Y-138437500D02*
X84000000Y-137500000D01*
X84937500Y-141000000D02*
X84937500Y-138437500D01*
D22*
G04 #@! TO.N,GND*
X97550000Y-100550000D02*
X97000000Y-100000000D01*
X98150000Y-100550000D02*
X97550000Y-100550000D01*
X98150000Y-103090000D02*
X97090000Y-103090000D01*
X97090000Y-103090000D02*
X97000000Y-103000000D01*
X97049999Y-106149999D02*
X97559998Y-105640000D01*
X97559998Y-105640000D02*
X98150000Y-105640000D01*
X97049999Y-107670001D02*
X97049999Y-106149999D01*
X97549998Y-108170000D02*
X97049999Y-107670001D01*
X98150000Y-108170000D02*
X97549998Y-108170000D01*
X97049999Y-106149999D02*
X97049999Y-106049999D01*
X97049999Y-106049999D02*
X97000000Y-106000000D01*
X83062500Y-75000000D02*
X83062500Y-74812500D01*
X83062500Y-74812500D02*
X82250000Y-74000000D01*
X83062500Y-97000000D02*
X83062500Y-96812500D01*
X83062500Y-96812500D02*
X82250000Y-96000000D01*
X83062500Y-119000000D02*
X83062500Y-118812500D01*
X83062500Y-118812500D02*
X82250000Y-118000000D01*
X83062500Y-141000000D02*
X83062500Y-140812500D01*
X83062500Y-140812500D02*
X82250000Y-140000000D01*
D21*
G04 #@! TO.N,Net-(C2-Pad1)*
X84187500Y-115687500D02*
X84000000Y-115500000D01*
X84937500Y-116437500D02*
X84000000Y-115500000D01*
X84937500Y-119000000D02*
X84937500Y-116437500D01*
G04 #@! TO.N,Net-(C3-Pad1)*
X84187500Y-93687500D02*
X84000000Y-93500000D01*
X84937500Y-94437500D02*
X84000000Y-93500000D01*
X84937500Y-97000000D02*
X84937500Y-94437500D01*
G04 #@! TO.N,Net-(C4-Pad1)*
X84187500Y-71687500D02*
X84000000Y-71500000D01*
X84000000Y-74062500D02*
X84000000Y-71500000D01*
X84937500Y-75000000D02*
X84000000Y-74062500D01*
G04 #@! TO.N,LEDK1*
X90875001Y-70275001D02*
X90875001Y-78124999D01*
X90750000Y-69000000D02*
X90750000Y-70150000D01*
X90750000Y-70150000D02*
X90875001Y-70275001D01*
X90855999Y-78124999D02*
X85044999Y-83935999D01*
X85044999Y-83935999D02*
X85044999Y-85044999D01*
X90875001Y-78124999D02*
X90855999Y-78124999D01*
X90750000Y-90750000D02*
X90750000Y-91000000D01*
X85044999Y-85044999D02*
X90750000Y-90750000D01*
X90750000Y-131590000D02*
X90750000Y-135000000D01*
X93840000Y-128500000D02*
X90750000Y-131590000D01*
X93500000Y-98500000D02*
X93500000Y-110500000D01*
X90750000Y-91000000D02*
X90750000Y-95750000D01*
X93500000Y-110500000D02*
X93000000Y-111000000D01*
X90750000Y-95750000D02*
X93500000Y-98500000D01*
X92064999Y-111935003D02*
X92064999Y-114564999D01*
X93000000Y-115500000D02*
X93000000Y-123934315D01*
X93000000Y-111000000D02*
X92064999Y-111935003D01*
X92064999Y-114564999D02*
X93000000Y-115500000D01*
X93000000Y-123934315D02*
X93000000Y-124500000D01*
G04 #@! TO.N,LED1*
X93290000Y-135000000D02*
X96710000Y-135000000D01*
X93290000Y-135000000D02*
X95152710Y-133137290D01*
X95152710Y-127765697D02*
X95152710Y-127200012D01*
X95152710Y-133137290D02*
X95152710Y-127765697D01*
X93840000Y-84500000D02*
X95000000Y-85660000D01*
X95000000Y-85660000D02*
X95000000Y-99017763D01*
X95000000Y-99017763D02*
X94649970Y-99367793D01*
X94649970Y-99367793D02*
X94649970Y-102995796D01*
X94899999Y-124350001D02*
X94500000Y-124750000D01*
X95484999Y-123765001D02*
X94899999Y-124350001D01*
X95484999Y-103830825D02*
X95484999Y-123765001D01*
X94649970Y-102995796D02*
X95484999Y-103830825D01*
G04 #@! TO.N,LEDK2*
X99250000Y-89850000D02*
X99250000Y-91000000D01*
X100095001Y-89004999D02*
X99250000Y-89850000D01*
X100095001Y-83935999D02*
X100095001Y-89004999D01*
X99124999Y-82965997D02*
X100095001Y-83935999D01*
X99124999Y-70275001D02*
X99124999Y-82965997D01*
X99250000Y-70150000D02*
X99124999Y-70275001D01*
X99250000Y-69000000D02*
X99250000Y-70150000D01*
X99000000Y-91250000D02*
X99250000Y-91000000D01*
X99000000Y-95000000D02*
X99000000Y-91250000D01*
X95073004Y-125500000D02*
X93565685Y-125500000D01*
X96500000Y-124073004D02*
X95073004Y-125500000D01*
X99250000Y-114150000D02*
X96500000Y-116900000D01*
X99250000Y-113000000D02*
X99250000Y-114150000D01*
X96500000Y-116900000D02*
X96500000Y-124073004D01*
X93565685Y-125500000D02*
X93000000Y-125500000D01*
G04 #@! TO.N,LED2*
X91300000Y-84500000D02*
X94515001Y-87715001D01*
X94199959Y-99181393D02*
X94199959Y-103182196D01*
X94189999Y-112100001D02*
X93290000Y-113000000D01*
X95000000Y-111290000D02*
X94189999Y-112100001D01*
X95000000Y-103982237D02*
X95000000Y-111290000D01*
X94515001Y-98866351D02*
X94199959Y-99181393D01*
X94199959Y-103182196D02*
X95000000Y-103982237D01*
X94515001Y-87715001D02*
X94515001Y-98866351D01*
G04 #@! TO.N,LED3*
X88760000Y-86470000D02*
X93290000Y-91000000D01*
X88760000Y-84500000D02*
X88760000Y-86470000D01*
G04 #@! TO.N,LED4*
X96710000Y-69000000D02*
X93290000Y-69000000D01*
X93290000Y-77430000D02*
X86220000Y-84500000D01*
X93290000Y-69000000D02*
X93290000Y-77430000D01*
G04 #@! TO.N,Net-(J1-Pad4)*
X80750000Y-139750000D02*
X80110000Y-139110000D01*
X80975000Y-139975000D02*
X80110000Y-139110000D01*
X80975000Y-143000000D02*
X80975000Y-139975000D01*
G04 #@! TO.N,Net-(J2-Pad4)*
X80750000Y-117750000D02*
X80110000Y-117110000D01*
X80975000Y-117975000D02*
X80110000Y-117110000D01*
X80975000Y-121000000D02*
X80975000Y-117975000D01*
G04 #@! TO.N,Net-(J3-Pad4)*
X80750000Y-95750000D02*
X80110000Y-95110000D01*
X80975000Y-95975000D02*
X80110000Y-95110000D01*
X80975000Y-99000000D02*
X80975000Y-95975000D01*
G04 #@! TO.N,Net-(J4-Pad4)*
X80500000Y-73500000D02*
X80110000Y-73110000D01*
X80975000Y-73975000D02*
X80110000Y-73110000D01*
X80975000Y-77000000D02*
X80975000Y-73975000D01*
G04 #@! TO.N,MIDI_IN_1*
X98700000Y-110000000D02*
X98150000Y-109450000D01*
X101062500Y-110000000D02*
X98700000Y-110000000D01*
X104000000Y-91000000D02*
X104000000Y-84500000D01*
X102000000Y-93000000D02*
X104000000Y-91000000D01*
X96000000Y-103709415D02*
X95099981Y-102809396D01*
X95099981Y-102809396D02*
X95099981Y-99554194D01*
X96000000Y-98654175D02*
X96000000Y-96565685D01*
X97900000Y-109450000D02*
X96000000Y-107550000D01*
X96000000Y-96565685D02*
X96000000Y-96000000D01*
X96000000Y-107550000D02*
X96000000Y-103709415D01*
X98150000Y-109450000D02*
X97900000Y-109450000D01*
X95099981Y-99554194D02*
X96000000Y-98654175D01*
G04 #@! TO.N,MIDI_IN_2*
X99972500Y-106910000D02*
X98150000Y-106910000D01*
X101062500Y-108000000D02*
X99972500Y-106910000D01*
X101460000Y-84500000D02*
X100610001Y-85349999D01*
X100610001Y-85349999D02*
X100610001Y-96204997D01*
X102000000Y-107062500D02*
X101062500Y-108000000D01*
X100610001Y-96204997D02*
X102000000Y-97594996D01*
X102000000Y-97594996D02*
X102000000Y-107062500D01*
G04 #@! TO.N,MIDI_IN_3*
X99422500Y-104360000D02*
X98150000Y-104360000D01*
X101062500Y-106000000D02*
X99422500Y-104360000D01*
X96725002Y-94651998D02*
X96725002Y-98565583D01*
X97420000Y-83000000D02*
X96000000Y-83000000D01*
X98920000Y-84500000D02*
X97420000Y-83000000D01*
X96000000Y-83000000D02*
X95204999Y-83795001D01*
X95204999Y-83795001D02*
X95204999Y-85228588D01*
X95204999Y-85228588D02*
X95450011Y-85473600D01*
X95549992Y-102622996D02*
X97286996Y-104360000D01*
X97286996Y-104360000D02*
X98150000Y-104360000D01*
X95549992Y-99740593D02*
X95549992Y-102622996D01*
X95450011Y-93377007D02*
X96725002Y-94651998D01*
X95450011Y-85473600D02*
X95450011Y-93377007D01*
X96725002Y-98565583D02*
X95549992Y-99740593D01*
G04 #@! TO.N,MIDI_IN_4*
X98892500Y-101830000D02*
X98150000Y-101830000D01*
X101062500Y-104000000D02*
X98892500Y-101830000D01*
X98000000Y-101730000D02*
X97900000Y-101830000D01*
X97900000Y-101830000D02*
X98150000Y-101830000D01*
X96380000Y-84500000D02*
X98000000Y-86120000D01*
X96830000Y-101830000D02*
X97900000Y-101830000D01*
X96000000Y-101000000D02*
X96830000Y-101830000D01*
X96000000Y-99926996D02*
X96000000Y-101000000D01*
X98000000Y-97926996D02*
X96000000Y-99926996D01*
X98000000Y-86120000D02*
X98000000Y-97926996D01*
G04 #@! TO.N,MIDI_OUT_1*
X106693763Y-144881263D02*
X107250000Y-145437500D01*
X106000000Y-144187500D02*
X106693763Y-144881263D01*
X104000000Y-128500000D02*
X104000000Y-138000000D01*
X106000000Y-140000000D02*
X106000000Y-144187500D01*
X104000000Y-138000000D02*
X106000000Y-140000000D01*
G04 #@! TO.N,MIDI_OUT_2*
X106277498Y-123187500D02*
X107200000Y-123187500D01*
X102309999Y-127154999D02*
X106277498Y-123187500D01*
X102309999Y-127650001D02*
X102309999Y-127154999D01*
X107200000Y-123187500D02*
X108000000Y-123187500D01*
X101460000Y-128500000D02*
X102309999Y-127650001D01*
G04 #@! TO.N,MIDI_OUT_3*
X108000000Y-113000000D02*
X108000000Y-102187500D01*
X111500000Y-116500000D02*
X108000000Y-113000000D01*
X111500000Y-118964998D02*
X111500000Y-116500000D01*
X110000000Y-120464998D02*
X111500000Y-118964998D01*
X98920000Y-128500000D02*
X100095001Y-127324999D01*
X110000000Y-120816850D02*
X110000000Y-120464998D01*
X100095001Y-127324999D02*
X101366851Y-127324999D01*
X101366851Y-127324999D02*
X106566840Y-122125010D01*
X108000000Y-102187500D02*
X107250000Y-101437500D01*
X106566840Y-122125010D02*
X108691840Y-122125010D01*
X108691840Y-122125010D02*
X110000000Y-120816850D01*
G04 #@! TO.N,MIDI_OUT_4*
X97229999Y-129349999D02*
X96380000Y-128500000D01*
X97555001Y-129675001D02*
X97229999Y-129349999D01*
X102324999Y-129675001D02*
X97555001Y-129675001D01*
X102824999Y-129175001D02*
X102324999Y-129675001D01*
X102824999Y-127389999D02*
X102824999Y-129175001D01*
X103214998Y-127000000D02*
X102824999Y-127389999D01*
X107250000Y-79500000D02*
X107806237Y-80056237D01*
X107806237Y-80056237D02*
X107806237Y-83806237D01*
X107806237Y-83806237D02*
X113000000Y-89000000D01*
X113000000Y-122000000D02*
X108000000Y-127000000D01*
X113000000Y-89000000D02*
X113000000Y-122000000D01*
X108000000Y-127000000D02*
X103214998Y-127000000D01*
G04 #@! TO.N,Net-(J6-Pad5)*
X109275000Y-139725000D02*
X109890000Y-139110000D01*
X109275000Y-141750000D02*
X109275000Y-139725000D01*
G04 #@! TO.N,Net-(J6-Pad4)*
X102950000Y-139950000D02*
X102110000Y-139110000D01*
X102950000Y-141750000D02*
X102950000Y-139950000D01*
G04 #@! TO.N,Net-(J7-Pad5)*
X109275000Y-117725000D02*
X109890000Y-117110000D01*
X109275000Y-119500000D02*
X109275000Y-117725000D01*
G04 #@! TO.N,Net-(J7-Pad4)*
X102725000Y-117725000D02*
X102110000Y-117110000D01*
X102725000Y-119500000D02*
X102725000Y-117725000D01*
G04 #@! TO.N,Net-(J8-Pad4)*
X102700000Y-95700000D02*
X102110000Y-95110000D01*
X102700000Y-97750000D02*
X102700000Y-95700000D01*
G04 #@! TO.N,Net-(J8-Pad5)*
X109275000Y-95725000D02*
X109890000Y-95110000D01*
X109275000Y-97750000D02*
X109275000Y-95725000D01*
G04 #@! TO.N,Net-(J9-Pad5)*
X109275000Y-73725000D02*
X109890000Y-73110000D01*
X109275000Y-75750000D02*
X109275000Y-73725000D01*
G04 #@! TO.N,Net-(J9-Pad4)*
X102725000Y-73725000D02*
X102110000Y-73110000D01*
X102725000Y-75750000D02*
X102725000Y-73725000D01*
D22*
G04 #@! TO.N,+3V3*
X104125000Y-102062500D02*
X104750000Y-101437500D01*
X88760000Y-129702081D02*
X88760000Y-128500000D01*
X88760000Y-135620002D02*
X88760000Y-129702081D01*
X104193763Y-144881263D02*
X98021261Y-144881263D01*
X98021261Y-144881263D02*
X88760000Y-135620002D01*
X104750000Y-145437500D02*
X104193763Y-144881263D01*
X104125000Y-102812500D02*
X102937500Y-104000000D01*
X104125000Y-102062500D02*
X104125000Y-102812500D01*
X102937500Y-104000000D02*
X102937500Y-106000000D01*
X102937500Y-108000000D02*
X102937500Y-106000000D01*
X102937500Y-110000000D02*
X102937500Y-108000000D01*
X102937500Y-115137480D02*
X102937500Y-110000000D01*
X105900010Y-118099990D02*
X102937500Y-115137480D01*
X105900010Y-121287490D02*
X105900010Y-118099990D01*
X104000000Y-123187500D02*
X105900010Y-121287490D01*
X103443763Y-123743737D02*
X104000000Y-123187500D01*
X88760000Y-128500000D02*
X90909998Y-126350002D01*
X100837498Y-126350002D02*
X103443763Y-123743737D01*
X90909998Y-126350002D02*
X100837498Y-126350002D01*
X105306237Y-100881263D02*
X104750000Y-101437500D01*
X106050010Y-100137490D02*
X105306237Y-100881263D01*
X108050001Y-86039999D02*
X108050001Y-93949999D01*
X104193763Y-79993737D02*
X104193763Y-82183761D01*
X104750000Y-79437500D02*
X104193763Y-79993737D01*
X104193763Y-82183761D02*
X108050001Y-86039999D01*
X106050010Y-95949990D02*
X106050010Y-100137490D01*
X108050001Y-93949999D02*
X106050010Y-95949990D01*
D21*
G04 #@! TO.N,Net-(J1-Pad5)*
X87625000Y-139375000D02*
X87890000Y-139110000D01*
X87890000Y-140085000D02*
X87890000Y-139110000D01*
X84975000Y-143000000D02*
X87890000Y-140085000D01*
G04 #@! TO.N,Net-(J2-Pad5)*
X87625000Y-117375000D02*
X87890000Y-117110000D01*
X87890000Y-118060000D02*
X87890000Y-117110000D01*
X84950000Y-121000000D02*
X87890000Y-118060000D01*
G04 #@! TO.N,Net-(J3-Pad5)*
X87375000Y-95625000D02*
X87890000Y-95110000D01*
X87890000Y-96085000D02*
X87890000Y-95110000D01*
X84975000Y-99000000D02*
X87890000Y-96085000D01*
G04 #@! TO.N,Net-(J4-Pad5)*
X87375000Y-73625000D02*
X87890000Y-73110000D01*
X87890000Y-74085000D02*
X87890000Y-73110000D01*
X84975000Y-77000000D02*
X87890000Y-74085000D01*
G04 #@! TO.N,Net-(L2-Pad2)*
X83062500Y-143037500D02*
X83025000Y-143000000D01*
X83062500Y-145000000D02*
X83062500Y-143037500D01*
G04 #@! TO.N,Net-(L4-Pad2)*
X83062500Y-121037500D02*
X83025000Y-121000000D01*
X83062500Y-123000000D02*
X83062500Y-121037500D01*
G04 #@! TO.N,Net-(L6-Pad2)*
X83062500Y-99037500D02*
X83025000Y-99000000D01*
X83062500Y-101000000D02*
X83062500Y-99037500D01*
G04 #@! TO.N,Net-(L8-Pad2)*
X83062500Y-77037500D02*
X83025000Y-77000000D01*
X83062500Y-79000000D02*
X83062500Y-77037500D01*
G04 #@! TO.N,Net-(L9-Pad1)*
X104875000Y-143437500D02*
X104750000Y-143562500D01*
X104750000Y-142000000D02*
X105000000Y-141750000D01*
X104750000Y-143562500D02*
X104750000Y-142000000D01*
G04 #@! TO.N,Net-(L10-Pad2)*
X107250000Y-141775000D02*
X107225000Y-141750000D01*
X107250000Y-142025000D02*
X106975000Y-141750000D01*
X107250000Y-143562500D02*
X107250000Y-142025000D01*
G04 #@! TO.N,Net-(L11-Pad1)*
X104000000Y-120275000D02*
X104775000Y-119500000D01*
X104000000Y-121312500D02*
X104000000Y-120275000D01*
G04 #@! TO.N,Net-(L12-Pad2)*
X108000000Y-120275000D02*
X107225000Y-119500000D01*
X108000000Y-121312500D02*
X108000000Y-120275000D01*
G04 #@! TO.N,Net-(L13-Pad1)*
X104750000Y-98025000D02*
X105025000Y-97750000D01*
X104750000Y-99562500D02*
X104750000Y-98025000D01*
G04 #@! TO.N,Net-(L14-Pad2)*
X107250000Y-97775000D02*
X107225000Y-97750000D01*
X107250000Y-99562500D02*
X107250000Y-97775000D01*
G04 #@! TO.N,Net-(L15-Pad1)*
X104750000Y-75775000D02*
X104775000Y-75750000D01*
X104750000Y-77562500D02*
X104750000Y-75775000D01*
G04 #@! TO.N,Net-(L16-Pad2)*
X107250000Y-75775000D02*
X107225000Y-75750000D01*
X107250000Y-77625000D02*
X107250000Y-75775000D01*
G04 #@! TO.N,Net-(L1-Pad2)*
X91850000Y-99900000D02*
X91850000Y-100550000D01*
X89950011Y-93813600D02*
X89950011Y-96200011D01*
X91850000Y-98100000D02*
X91850000Y-99900000D01*
X89950011Y-96200011D02*
X91850000Y-98100000D01*
X87025000Y-77000000D02*
X87025000Y-80975000D01*
X84549989Y-83450011D02*
X84549989Y-85186400D01*
X84549989Y-85186400D02*
X89265001Y-89901411D01*
X87025000Y-80975000D02*
X84549989Y-83450011D01*
X89265001Y-89901411D02*
X89265001Y-93128591D01*
X89265001Y-93128591D02*
X89950011Y-93813600D01*
G04 #@! TO.N,Net-(L3-Pad2)*
X89074988Y-109675012D02*
X90580000Y-108170000D01*
X89074988Y-114346401D02*
X89074988Y-109675012D01*
X91000000Y-116271413D02*
X89074988Y-114346401D01*
X91000000Y-122000000D02*
X91000000Y-116271413D01*
X87025000Y-142010003D02*
X89500000Y-139535003D01*
X85000000Y-130000000D02*
X85000000Y-128000000D01*
X89500000Y-139535003D02*
X89500000Y-138000000D01*
X85000000Y-128000000D02*
X91000000Y-122000000D01*
X87025000Y-143000000D02*
X87025000Y-142010003D01*
X89500000Y-138000000D02*
X86500000Y-135000000D01*
X90580000Y-108170000D02*
X91850000Y-108170000D01*
X86500000Y-135000000D02*
X86500000Y-131500000D01*
X86500000Y-131500000D02*
X85000000Y-130000000D01*
G04 #@! TO.N,Net-(L5-Pad2)*
X89860000Y-105640000D02*
X91850000Y-105640000D01*
X87000000Y-120200000D02*
X89500000Y-117700000D01*
X87000000Y-121000000D02*
X87000000Y-120200000D01*
X89500000Y-117700000D02*
X89500000Y-116250000D01*
X89500000Y-116250000D02*
X88000000Y-114750000D01*
X88000000Y-114750000D02*
X88000000Y-107500000D01*
X88000000Y-107500000D02*
X89860000Y-105640000D01*
G04 #@! TO.N,Net-(L7-Pad2)*
X87000000Y-101250000D02*
X87000000Y-99025000D01*
X87000000Y-99025000D02*
X87025000Y-99000000D01*
X91850000Y-103090000D02*
X88840000Y-103090000D01*
X88840000Y-103090000D02*
X87000000Y-101250000D01*
G04 #@! TO.N,Net-(R2-Pad1)*
X85525000Y-145000000D02*
X84937500Y-145000000D01*
X86613190Y-145000000D02*
X85525000Y-145000000D01*
X87395001Y-135258591D02*
X89950011Y-137813600D01*
X88000000Y-143613190D02*
X86613190Y-145000000D01*
X89950011Y-137813600D02*
X89950011Y-139721403D01*
X87395001Y-126604999D02*
X87395001Y-135258591D01*
X91850000Y-109450000D02*
X90800000Y-109450000D01*
X88000000Y-141671413D02*
X88000000Y-143613190D01*
X90800000Y-109450000D02*
X89524999Y-110725001D01*
X89524999Y-110725001D02*
X89524999Y-114160001D01*
X89950011Y-139721403D02*
X88000000Y-141671413D01*
X91975001Y-122024999D02*
X87395001Y-126604999D01*
X89524999Y-114160001D02*
X91975001Y-116610003D01*
X91975001Y-116610003D02*
X91975001Y-122024999D01*
G04 #@! TO.N,Net-(R3-Pad1)*
X86588190Y-123000000D02*
X84937500Y-123000000D01*
X88124999Y-121463191D02*
X86588190Y-123000000D01*
X88124999Y-120375001D02*
X88124999Y-121463191D01*
X90340000Y-106910000D02*
X88624977Y-108625023D01*
X88624977Y-108625023D02*
X88624977Y-114624977D01*
X91850000Y-106910000D02*
X90340000Y-106910000D01*
X88624977Y-114624977D02*
X90250000Y-116250000D01*
X90250000Y-118250000D02*
X88124999Y-120375001D01*
X90250000Y-116250000D02*
X90250000Y-118250000D01*
G04 #@! TO.N,Net-(R4-Pad1)*
X87687500Y-103750000D02*
X84937500Y-101000000D01*
X91850000Y-104360000D02*
X88297500Y-104360000D01*
X88297500Y-104360000D02*
X87687500Y-103750000D01*
G04 #@! TO.N,Net-(R5-Pad1)*
X83912490Y-80025010D02*
X84937500Y-79000000D01*
X83412490Y-80025010D02*
X83912490Y-80025010D01*
X83150998Y-90000000D02*
X82000000Y-88849002D01*
X85500000Y-90000000D02*
X83150998Y-90000000D01*
X82000000Y-81437500D02*
X83412490Y-80025010D01*
X91850000Y-101830000D02*
X89830000Y-101830000D01*
X89830000Y-101830000D02*
X88000000Y-100000000D01*
X88000000Y-97035002D02*
X89500000Y-95535002D01*
X88000000Y-100000000D02*
X88000000Y-97035002D01*
X82000000Y-88849002D02*
X82000000Y-81437500D01*
X89500000Y-94000000D02*
X85500000Y-90000000D01*
X89500000Y-95535002D02*
X89500000Y-94000000D01*
G04 #@! TD*
M02*
