G04 #@! TF.GenerationSoftware,KiCad,Pcbnew,5.0.2+dfsg1-1*
G04 #@! TF.CreationDate,2020-04-26T20:48:58+02:00*
G04 #@! TF.ProjectId,midirouter,6d696469-726f-4757-9465-722e6b696361,rev?*
G04 #@! TF.SameCoordinates,Original*
G04 #@! TF.FileFunction,Copper,L1,Top*
G04 #@! TF.FilePolarity,Positive*
%FSLAX46Y46*%
G04 Gerber Fmt 4.6, Leading zero omitted, Abs format (unit mm)*
G04 Created by KiCad (PCBNEW 5.0.2+dfsg1-1) date Sun 26 Apr 2020 08:48:58 PM CEST*
%MOMM*%
%LPD*%
G01*
G04 APERTURE LIST*
G04 #@! TA.AperFunction,ComponentPad*
%ADD10O,1.700000X1.700000*%
G04 #@! TD*
G04 #@! TA.AperFunction,ComponentPad*
%ADD11R,1.700000X1.700000*%
G04 #@! TD*
G04 #@! TA.AperFunction,ComponentPad*
%ADD12C,1.800000*%
G04 #@! TD*
G04 #@! TA.AperFunction,ComponentPad*
%ADD13R,1.800000X1.800000*%
G04 #@! TD*
G04 #@! TA.AperFunction,ComponentPad*
%ADD14C,2.100000*%
G04 #@! TD*
G04 #@! TA.AperFunction,ComponentPad*
%ADD15R,2.100000X2.100000*%
G04 #@! TD*
G04 #@! TA.AperFunction,ViaPad*
%ADD16C,0.800000*%
G04 #@! TD*
G04 #@! TA.AperFunction,Conductor*
%ADD17C,0.250000*%
G04 #@! TD*
G04 #@! TA.AperFunction,Conductor*
%ADD18C,0.254000*%
G04 #@! TD*
G04 APERTURE END LIST*
D10*
G04 #@! TO.P,J10,8*
G04 #@! TO.N,GND*
X86220000Y-128500000D03*
G04 #@! TO.P,J10,7*
G04 #@! TO.N,+3V3*
X88760000Y-128500000D03*
G04 #@! TO.P,J10,6*
G04 #@! TO.N,LEDK2*
X91300000Y-128500000D03*
G04 #@! TO.P,J10,5*
G04 #@! TO.N,LEDK1*
X93840000Y-128500000D03*
G04 #@! TO.P,J10,4*
G04 #@! TO.N,MIDI_OUT_4*
X96380000Y-128500000D03*
G04 #@! TO.P,J10,3*
G04 #@! TO.N,MIDI_OUT_3*
X98920000Y-128500000D03*
G04 #@! TO.P,J10,2*
G04 #@! TO.N,MIDI_OUT_2*
X101460000Y-128500000D03*
D11*
G04 #@! TO.P,J10,1*
G04 #@! TO.N,MIDI_OUT_1*
X104000000Y-128500000D03*
G04 #@! TD*
G04 #@! TO.P,J5,1*
G04 #@! TO.N,MIDI_IN_1*
X104000000Y-84500000D03*
D10*
G04 #@! TO.P,J5,2*
G04 #@! TO.N,MIDI_IN_2*
X101460000Y-84500000D03*
G04 #@! TO.P,J5,3*
G04 #@! TO.N,MIDI_IN_3*
X98920000Y-84500000D03*
G04 #@! TO.P,J5,4*
G04 #@! TO.N,MIDI_IN_4*
X96380000Y-84500000D03*
G04 #@! TO.P,J5,5*
G04 #@! TO.N,LED1*
X93840000Y-84500000D03*
G04 #@! TO.P,J5,6*
G04 #@! TO.N,LED2*
X91300000Y-84500000D03*
G04 #@! TO.P,J5,7*
G04 #@! TO.N,LED3*
X88760000Y-84500000D03*
G04 #@! TO.P,J5,8*
G04 #@! TO.N,LED4*
X86220000Y-84500000D03*
G04 #@! TD*
D12*
G04 #@! TO.P,D12,2*
G04 #@! TO.N,LED4*
X96710000Y-69000000D03*
D13*
G04 #@! TO.P,D12,1*
G04 #@! TO.N,LEDK2*
X99250000Y-69000000D03*
G04 #@! TD*
D12*
G04 #@! TO.P,D11,2*
G04 #@! TO.N,LED4*
X93290000Y-69000000D03*
D13*
G04 #@! TO.P,D11,1*
G04 #@! TO.N,LEDK1*
X90750000Y-69000000D03*
G04 #@! TD*
G04 #@! TO.P,D10,1*
G04 #@! TO.N,LEDK2*
X99250000Y-91000000D03*
D12*
G04 #@! TO.P,D10,2*
G04 #@! TO.N,LED3*
X96710000Y-91000000D03*
G04 #@! TD*
D13*
G04 #@! TO.P,D9,1*
G04 #@! TO.N,LEDK1*
X90750000Y-91000000D03*
D12*
G04 #@! TO.P,D9,2*
G04 #@! TO.N,LED3*
X93290000Y-91000000D03*
G04 #@! TD*
G04 #@! TO.P,D8,2*
G04 #@! TO.N,LED2*
X96710000Y-113000000D03*
D13*
G04 #@! TO.P,D8,1*
G04 #@! TO.N,LEDK2*
X99250000Y-113000000D03*
G04 #@! TD*
D12*
G04 #@! TO.P,D7,2*
G04 #@! TO.N,LED2*
X93290000Y-113000000D03*
D13*
G04 #@! TO.P,D7,1*
G04 #@! TO.N,LEDK1*
X90750000Y-113000000D03*
G04 #@! TD*
G04 #@! TO.P,D6,1*
G04 #@! TO.N,LEDK2*
X99250000Y-135000000D03*
D12*
G04 #@! TO.P,D6,2*
G04 #@! TO.N,LED1*
X96710000Y-135000000D03*
G04 #@! TD*
D13*
G04 #@! TO.P,D5,1*
G04 #@! TO.N,LEDK1*
X90750000Y-135000000D03*
D12*
G04 #@! TO.P,D5,2*
G04 #@! TO.N,LED1*
X93290000Y-135000000D03*
G04 #@! TD*
D14*
G04 #@! TO.P,J9,3*
G04 #@! TO.N,Net-(J9-Pad3)*
X111500000Y-77000000D03*
D15*
G04 #@! TO.P,J9,1*
G04 #@! TO.N,Net-(J9-Pad1)*
X100500000Y-77000000D03*
D14*
G04 #@! TO.P,J9,2*
G04 #@! TO.N,GND*
X106000000Y-71500000D03*
G04 #@! TO.P,J9,S*
G04 #@! TO.N,N/C*
X106000000Y-81500000D03*
G04 #@! TO.P,J9,4*
G04 #@! TO.N,Net-(J9-Pad4)*
X102110000Y-73110000D03*
G04 #@! TO.P,J9,5*
G04 #@! TO.N,Net-(J9-Pad5)*
X109890000Y-73110000D03*
G04 #@! TD*
G04 #@! TO.P,J8,3*
G04 #@! TO.N,Net-(J8-Pad3)*
X111500000Y-99000000D03*
D15*
G04 #@! TO.P,J8,1*
G04 #@! TO.N,Net-(J8-Pad1)*
X100500000Y-99000000D03*
D14*
G04 #@! TO.P,J8,2*
G04 #@! TO.N,GND*
X106000000Y-93500000D03*
G04 #@! TO.P,J8,S*
G04 #@! TO.N,N/C*
X106000000Y-103500000D03*
G04 #@! TO.P,J8,4*
G04 #@! TO.N,Net-(J8-Pad4)*
X102110000Y-95110000D03*
G04 #@! TO.P,J8,5*
G04 #@! TO.N,Net-(J8-Pad5)*
X109890000Y-95110000D03*
G04 #@! TD*
G04 #@! TO.P,J7,3*
G04 #@! TO.N,Net-(J7-Pad3)*
X111500000Y-121000000D03*
D15*
G04 #@! TO.P,J7,1*
G04 #@! TO.N,Net-(J7-Pad1)*
X100500000Y-121000000D03*
D14*
G04 #@! TO.P,J7,2*
G04 #@! TO.N,GND*
X106000000Y-115500000D03*
G04 #@! TO.P,J7,S*
G04 #@! TO.N,N/C*
X106000000Y-125500000D03*
G04 #@! TO.P,J7,4*
G04 #@! TO.N,Net-(J7-Pad4)*
X102110000Y-117110000D03*
G04 #@! TO.P,J7,5*
G04 #@! TO.N,Net-(J7-Pad5)*
X109890000Y-117110000D03*
G04 #@! TD*
G04 #@! TO.P,J6,3*
G04 #@! TO.N,Net-(J6-Pad3)*
X111500000Y-143000000D03*
D15*
G04 #@! TO.P,J6,1*
G04 #@! TO.N,Net-(J6-Pad1)*
X100500000Y-143000000D03*
D14*
G04 #@! TO.P,J6,2*
G04 #@! TO.N,GND*
X106000000Y-137500000D03*
G04 #@! TO.P,J6,S*
G04 #@! TO.N,N/C*
X106000000Y-147500000D03*
G04 #@! TO.P,J6,4*
G04 #@! TO.N,Net-(J6-Pad4)*
X102110000Y-139110000D03*
G04 #@! TO.P,J6,5*
G04 #@! TO.N,Net-(J6-Pad5)*
X109890000Y-139110000D03*
G04 #@! TD*
G04 #@! TO.P,J4,3*
G04 #@! TO.N,Net-(J4-Pad3)*
X89500000Y-77000000D03*
D15*
G04 #@! TO.P,J4,1*
G04 #@! TO.N,Net-(J4-Pad1)*
X78500000Y-77000000D03*
D14*
G04 #@! TO.P,J4,2*
G04 #@! TO.N,Net-(C4-Pad1)*
X84000000Y-71500000D03*
G04 #@! TO.P,J4,S*
G04 #@! TO.N,N/C*
X84000000Y-81500000D03*
G04 #@! TO.P,J4,4*
G04 #@! TO.N,Net-(J4-Pad4)*
X80110000Y-73110000D03*
G04 #@! TO.P,J4,5*
G04 #@! TO.N,Net-(J4-Pad5)*
X87890000Y-73110000D03*
G04 #@! TD*
G04 #@! TO.P,J3,3*
G04 #@! TO.N,Net-(J3-Pad3)*
X89500000Y-99000000D03*
D15*
G04 #@! TO.P,J3,1*
G04 #@! TO.N,Net-(J3-Pad1)*
X78500000Y-99000000D03*
D14*
G04 #@! TO.P,J3,2*
G04 #@! TO.N,Net-(C3-Pad1)*
X84000000Y-93500000D03*
G04 #@! TO.P,J3,S*
G04 #@! TO.N,N/C*
X84000000Y-103500000D03*
G04 #@! TO.P,J3,4*
G04 #@! TO.N,Net-(J3-Pad4)*
X80110000Y-95110000D03*
G04 #@! TO.P,J3,5*
G04 #@! TO.N,Net-(J3-Pad5)*
X87890000Y-95110000D03*
G04 #@! TD*
G04 #@! TO.P,J2,3*
G04 #@! TO.N,Net-(J2-Pad3)*
X89500000Y-121000000D03*
D15*
G04 #@! TO.P,J2,1*
G04 #@! TO.N,Net-(J2-Pad1)*
X78500000Y-121000000D03*
D14*
G04 #@! TO.P,J2,2*
G04 #@! TO.N,Net-(C2-Pad1)*
X84000000Y-115500000D03*
G04 #@! TO.P,J2,S*
G04 #@! TO.N,N/C*
X84000000Y-125500000D03*
G04 #@! TO.P,J2,4*
G04 #@! TO.N,Net-(J2-Pad4)*
X80110000Y-117110000D03*
G04 #@! TO.P,J2,5*
G04 #@! TO.N,Net-(J2-Pad5)*
X87890000Y-117110000D03*
G04 #@! TD*
G04 #@! TO.P,J1,3*
G04 #@! TO.N,Net-(J1-Pad3)*
X89500000Y-143000000D03*
D15*
G04 #@! TO.P,J1,1*
G04 #@! TO.N,Net-(J1-Pad1)*
X78500000Y-143000000D03*
D14*
G04 #@! TO.P,J1,2*
G04 #@! TO.N,Net-(C1-Pad1)*
X84000000Y-137500000D03*
G04 #@! TO.P,J1,S*
G04 #@! TO.N,N/C*
X84000000Y-147500000D03*
G04 #@! TO.P,J1,4*
G04 #@! TO.N,Net-(J1-Pad4)*
X80110000Y-139110000D03*
G04 #@! TO.P,J1,5*
G04 #@! TO.N,Net-(J1-Pad5)*
X87890000Y-139110000D03*
G04 #@! TD*
D16*
G04 #@! TO.N,GND*
X97000000Y-100000000D03*
X97000000Y-103000000D03*
X97000000Y-106000000D03*
X82250000Y-74000000D03*
X82250000Y-96000000D03*
X82250000Y-118000000D03*
X82250000Y-140000000D03*
G04 #@! TO.N,LEDK1*
X93000000Y-111000000D03*
X93000000Y-124500000D03*
G04 #@! TO.N,LED1*
X95152710Y-127200012D03*
X94500000Y-124750000D03*
G04 #@! TO.N,LEDK2*
X99000000Y-95000000D03*
X93000000Y-125500000D03*
G04 #@! TO.N,MIDI_IN_1*
X102000000Y-93000000D03*
X96000000Y-96000000D03*
G04 #@! TD*
D17*
G04 #@! TO.N,LEDK1*
X91000000Y-113000000D02*
X90750000Y-113000000D01*
X93000000Y-111000000D02*
X91000000Y-113000000D01*
X93250000Y-124500000D02*
X93000000Y-124500000D01*
X93840000Y-128500000D02*
X93840000Y-125090000D01*
X93840000Y-125090000D02*
X93250000Y-124500000D01*
G04 #@! TO.N,LED1*
X95152710Y-125402710D02*
X94899999Y-125149999D01*
X94899999Y-125149999D02*
X94500000Y-124750000D01*
X95152710Y-127200012D02*
X95152710Y-125402710D01*
G04 #@! TO.N,LEDK2*
X99000000Y-111600000D02*
X99000000Y-95000000D01*
X99250000Y-113000000D02*
X99250000Y-111850000D01*
X99250000Y-111850000D02*
X99000000Y-111600000D01*
X95075001Y-129675001D02*
X99250000Y-133850000D01*
X99250000Y-133850000D02*
X99250000Y-135000000D01*
X92475001Y-129675001D02*
X95075001Y-129675001D01*
X91300000Y-128500000D02*
X92475001Y-129675001D01*
X94404001Y-129675001D02*
X92475001Y-129675001D01*
X93000000Y-126250000D02*
X93000000Y-125500000D01*
X91300000Y-128500000D02*
X91300000Y-127950000D01*
X91300000Y-127950000D02*
X93000000Y-126250000D01*
G04 #@! TO.N,LED2*
X93290000Y-113000000D02*
X96710000Y-113000000D01*
G04 #@! TO.N,LED3*
X96710000Y-91000000D02*
X93290000Y-91000000D01*
G04 #@! TO.N,MIDI_IN_1*
X102000000Y-93000000D02*
X99000000Y-93000000D01*
X96399999Y-95600001D02*
X96000000Y-96000000D01*
X99000000Y-93000000D02*
X96399999Y-95600001D01*
G04 #@! TD*
D18*
G04 #@! TO.N,GND*
G36*
X113815000Y-150815000D02*
X76185000Y-150815000D01*
X76185000Y-147164833D01*
X82315000Y-147164833D01*
X82315000Y-147835167D01*
X82571526Y-148454476D01*
X83045524Y-148928474D01*
X83664833Y-149185000D01*
X84335167Y-149185000D01*
X84954476Y-148928474D01*
X85428474Y-148454476D01*
X85685000Y-147835167D01*
X85685000Y-147164833D01*
X104315000Y-147164833D01*
X104315000Y-147835167D01*
X104571526Y-148454476D01*
X105045524Y-148928474D01*
X105664833Y-149185000D01*
X106335167Y-149185000D01*
X106954476Y-148928474D01*
X107428474Y-148454476D01*
X107685000Y-147835167D01*
X107685000Y-147164833D01*
X107428474Y-146545524D01*
X106954476Y-146071526D01*
X106335167Y-145815000D01*
X105664833Y-145815000D01*
X105045524Y-146071526D01*
X104571526Y-146545524D01*
X104315000Y-147164833D01*
X85685000Y-147164833D01*
X85428474Y-146545524D01*
X84954476Y-146071526D01*
X84335167Y-145815000D01*
X83664833Y-145815000D01*
X83045524Y-146071526D01*
X82571526Y-146545524D01*
X82315000Y-147164833D01*
X76185000Y-147164833D01*
X76185000Y-141950000D01*
X76802560Y-141950000D01*
X76802560Y-144050000D01*
X76851843Y-144297765D01*
X76992191Y-144507809D01*
X77202235Y-144648157D01*
X77450000Y-144697440D01*
X79550000Y-144697440D01*
X79797765Y-144648157D01*
X80007809Y-144507809D01*
X80148157Y-144297765D01*
X80197440Y-144050000D01*
X80197440Y-142664833D01*
X87815000Y-142664833D01*
X87815000Y-143335167D01*
X88071526Y-143954476D01*
X88545524Y-144428474D01*
X89164833Y-144685000D01*
X89835167Y-144685000D01*
X90454476Y-144428474D01*
X90928474Y-143954476D01*
X91185000Y-143335167D01*
X91185000Y-142664833D01*
X90928474Y-142045524D01*
X90832950Y-141950000D01*
X98802560Y-141950000D01*
X98802560Y-144050000D01*
X98851843Y-144297765D01*
X98992191Y-144507809D01*
X99202235Y-144648157D01*
X99450000Y-144697440D01*
X101550000Y-144697440D01*
X101797765Y-144648157D01*
X102007809Y-144507809D01*
X102148157Y-144297765D01*
X102197440Y-144050000D01*
X102197440Y-142664833D01*
X109815000Y-142664833D01*
X109815000Y-143335167D01*
X110071526Y-143954476D01*
X110545524Y-144428474D01*
X111164833Y-144685000D01*
X111835167Y-144685000D01*
X112454476Y-144428474D01*
X112928474Y-143954476D01*
X113185000Y-143335167D01*
X113185000Y-142664833D01*
X112928474Y-142045524D01*
X112454476Y-141571526D01*
X111835167Y-141315000D01*
X111164833Y-141315000D01*
X110545524Y-141571526D01*
X110071526Y-142045524D01*
X109815000Y-142664833D01*
X102197440Y-142664833D01*
X102197440Y-141950000D01*
X102148157Y-141702235D01*
X102007809Y-141492191D01*
X101797765Y-141351843D01*
X101550000Y-141302560D01*
X99450000Y-141302560D01*
X99202235Y-141351843D01*
X98992191Y-141492191D01*
X98851843Y-141702235D01*
X98802560Y-141950000D01*
X90832950Y-141950000D01*
X90454476Y-141571526D01*
X89835167Y-141315000D01*
X89164833Y-141315000D01*
X88545524Y-141571526D01*
X88071526Y-142045524D01*
X87815000Y-142664833D01*
X80197440Y-142664833D01*
X80197440Y-141950000D01*
X80148157Y-141702235D01*
X80007809Y-141492191D01*
X79797765Y-141351843D01*
X79550000Y-141302560D01*
X77450000Y-141302560D01*
X77202235Y-141351843D01*
X76992191Y-141492191D01*
X76851843Y-141702235D01*
X76802560Y-141950000D01*
X76185000Y-141950000D01*
X76185000Y-138774833D01*
X78425000Y-138774833D01*
X78425000Y-139445167D01*
X78681526Y-140064476D01*
X79155524Y-140538474D01*
X79774833Y-140795000D01*
X80445167Y-140795000D01*
X81064476Y-140538474D01*
X81538474Y-140064476D01*
X81795000Y-139445167D01*
X81795000Y-138774833D01*
X81538474Y-138155524D01*
X81064476Y-137681526D01*
X80445167Y-137425000D01*
X79774833Y-137425000D01*
X79155524Y-137681526D01*
X78681526Y-138155524D01*
X78425000Y-138774833D01*
X76185000Y-138774833D01*
X76185000Y-137164833D01*
X82315000Y-137164833D01*
X82315000Y-137835167D01*
X82571526Y-138454476D01*
X83045524Y-138928474D01*
X83664833Y-139185000D01*
X84335167Y-139185000D01*
X84954476Y-138928474D01*
X85108117Y-138774833D01*
X86205000Y-138774833D01*
X86205000Y-139445167D01*
X86461526Y-140064476D01*
X86935524Y-140538474D01*
X87554833Y-140795000D01*
X88225167Y-140795000D01*
X88844476Y-140538474D01*
X89318474Y-140064476D01*
X89575000Y-139445167D01*
X89575000Y-138774833D01*
X100425000Y-138774833D01*
X100425000Y-139445167D01*
X100681526Y-140064476D01*
X101155524Y-140538474D01*
X101774833Y-140795000D01*
X102445167Y-140795000D01*
X103064476Y-140538474D01*
X103538474Y-140064476D01*
X103795000Y-139445167D01*
X103795000Y-138774833D01*
X103759324Y-138688703D01*
X104990902Y-138688703D01*
X105095687Y-138960745D01*
X105723526Y-139195619D01*
X106393456Y-139172349D01*
X106904313Y-138960745D01*
X106975922Y-138774833D01*
X108205000Y-138774833D01*
X108205000Y-139445167D01*
X108461526Y-140064476D01*
X108935524Y-140538474D01*
X109554833Y-140795000D01*
X110225167Y-140795000D01*
X110844476Y-140538474D01*
X111318474Y-140064476D01*
X111575000Y-139445167D01*
X111575000Y-138774833D01*
X111318474Y-138155524D01*
X110844476Y-137681526D01*
X110225167Y-137425000D01*
X109554833Y-137425000D01*
X108935524Y-137681526D01*
X108461526Y-138155524D01*
X108205000Y-138774833D01*
X106975922Y-138774833D01*
X107009098Y-138688703D01*
X106000000Y-137679605D01*
X104990902Y-138688703D01*
X103759324Y-138688703D01*
X103538474Y-138155524D01*
X103064476Y-137681526D01*
X102445167Y-137425000D01*
X101774833Y-137425000D01*
X101155524Y-137681526D01*
X100681526Y-138155524D01*
X100425000Y-138774833D01*
X89575000Y-138774833D01*
X89318474Y-138155524D01*
X88844476Y-137681526D01*
X88225167Y-137425000D01*
X87554833Y-137425000D01*
X86935524Y-137681526D01*
X86461526Y-138155524D01*
X86205000Y-138774833D01*
X85108117Y-138774833D01*
X85428474Y-138454476D01*
X85685000Y-137835167D01*
X85685000Y-137223526D01*
X104304381Y-137223526D01*
X104327651Y-137893456D01*
X104539255Y-138404313D01*
X104811297Y-138509098D01*
X105820395Y-137500000D01*
X106179605Y-137500000D01*
X107188703Y-138509098D01*
X107460745Y-138404313D01*
X107695619Y-137776474D01*
X107672349Y-137106544D01*
X107460745Y-136595687D01*
X107188703Y-136490902D01*
X106179605Y-137500000D01*
X105820395Y-137500000D01*
X104811297Y-136490902D01*
X104539255Y-136595687D01*
X104304381Y-137223526D01*
X85685000Y-137223526D01*
X85685000Y-137164833D01*
X85428474Y-136545524D01*
X84954476Y-136071526D01*
X84335167Y-135815000D01*
X83664833Y-135815000D01*
X83045524Y-136071526D01*
X82571526Y-136545524D01*
X82315000Y-137164833D01*
X76185000Y-137164833D01*
X76185000Y-131555431D01*
X81765000Y-131555431D01*
X81765000Y-132444569D01*
X82105259Y-133266026D01*
X82733974Y-133894741D01*
X83555431Y-134235000D01*
X84444569Y-134235000D01*
X84770487Y-134100000D01*
X89202560Y-134100000D01*
X89202560Y-135900000D01*
X89251843Y-136147765D01*
X89392191Y-136357809D01*
X89602235Y-136498157D01*
X89850000Y-136547440D01*
X91650000Y-136547440D01*
X91897765Y-136498157D01*
X92107809Y-136357809D01*
X92248157Y-136147765D01*
X92251275Y-136132092D01*
X92420493Y-136301310D01*
X92984670Y-136535000D01*
X93595330Y-136535000D01*
X94159507Y-136301310D01*
X94591310Y-135869507D01*
X94825000Y-135305330D01*
X94825000Y-134694670D01*
X94591310Y-134130493D01*
X94159507Y-133698690D01*
X93595330Y-133465000D01*
X92984670Y-133465000D01*
X92420493Y-133698690D01*
X92251275Y-133867908D01*
X92248157Y-133852235D01*
X92107809Y-133642191D01*
X91897765Y-133501843D01*
X91650000Y-133452560D01*
X89850000Y-133452560D01*
X89602235Y-133501843D01*
X89392191Y-133642191D01*
X89251843Y-133852235D01*
X89202560Y-134100000D01*
X84770487Y-134100000D01*
X85266026Y-133894741D01*
X85894741Y-133266026D01*
X86235000Y-132444569D01*
X86235000Y-131555431D01*
X85894741Y-130733974D01*
X85266026Y-130105259D01*
X84444569Y-129765000D01*
X83555431Y-129765000D01*
X82733974Y-130105259D01*
X82105259Y-130733974D01*
X81765000Y-131555431D01*
X76185000Y-131555431D01*
X76185000Y-128856892D01*
X84778514Y-128856892D01*
X85024817Y-129381358D01*
X85453076Y-129771645D01*
X85863110Y-129941476D01*
X86093000Y-129820155D01*
X86093000Y-128627000D01*
X84899181Y-128627000D01*
X84778514Y-128856892D01*
X76185000Y-128856892D01*
X76185000Y-128143108D01*
X84778514Y-128143108D01*
X84899181Y-128373000D01*
X86093000Y-128373000D01*
X86093000Y-127179845D01*
X86347000Y-127179845D01*
X86347000Y-128373000D01*
X86367000Y-128373000D01*
X86367000Y-128627000D01*
X86347000Y-128627000D01*
X86347000Y-129820155D01*
X86576890Y-129941476D01*
X86986924Y-129771645D01*
X87415183Y-129381358D01*
X87476157Y-129251522D01*
X87689375Y-129570625D01*
X88180582Y-129898839D01*
X88613744Y-129985000D01*
X88906256Y-129985000D01*
X89339418Y-129898839D01*
X89830625Y-129570625D01*
X90030000Y-129272239D01*
X90229375Y-129570625D01*
X90720582Y-129898839D01*
X91153744Y-129985000D01*
X91446256Y-129985000D01*
X91666407Y-129941209D01*
X91884674Y-130159477D01*
X91927072Y-130222930D01*
X91990525Y-130265328D01*
X91990527Y-130265330D01*
X92115903Y-130349103D01*
X92178464Y-130390905D01*
X92400149Y-130435001D01*
X92400153Y-130435001D01*
X92475000Y-130449889D01*
X92549847Y-130435001D01*
X94760200Y-130435001D01*
X97937269Y-133612071D01*
X97892191Y-133642191D01*
X97751843Y-133852235D01*
X97748725Y-133867908D01*
X97579507Y-133698690D01*
X97015330Y-133465000D01*
X96404670Y-133465000D01*
X95840493Y-133698690D01*
X95408690Y-134130493D01*
X95175000Y-134694670D01*
X95175000Y-135305330D01*
X95408690Y-135869507D01*
X95840493Y-136301310D01*
X96404670Y-136535000D01*
X97015330Y-136535000D01*
X97579507Y-136301310D01*
X97748725Y-136132092D01*
X97751843Y-136147765D01*
X97892191Y-136357809D01*
X98102235Y-136498157D01*
X98350000Y-136547440D01*
X100150000Y-136547440D01*
X100397765Y-136498157D01*
X100607809Y-136357809D01*
X100638887Y-136311297D01*
X104990902Y-136311297D01*
X106000000Y-137320395D01*
X107009098Y-136311297D01*
X106904313Y-136039255D01*
X106276474Y-135804381D01*
X105606544Y-135827651D01*
X105095687Y-136039255D01*
X104990902Y-136311297D01*
X100638887Y-136311297D01*
X100748157Y-136147765D01*
X100797440Y-135900000D01*
X100797440Y-134100000D01*
X100748157Y-133852235D01*
X100607809Y-133642191D01*
X100397765Y-133501843D01*
X100150000Y-133452560D01*
X99898483Y-133452560D01*
X99797929Y-133302071D01*
X99734473Y-133259671D01*
X98030233Y-131555431D01*
X103765000Y-131555431D01*
X103765000Y-132444569D01*
X104105259Y-133266026D01*
X104733974Y-133894741D01*
X105555431Y-134235000D01*
X106444569Y-134235000D01*
X107266026Y-133894741D01*
X107894741Y-133266026D01*
X108235000Y-132444569D01*
X108235000Y-131555431D01*
X107894741Y-130733974D01*
X107266026Y-130105259D01*
X106444569Y-129765000D01*
X105555431Y-129765000D01*
X104733974Y-130105259D01*
X104105259Y-130733974D01*
X103765000Y-131555431D01*
X98030233Y-131555431D01*
X96459801Y-129985000D01*
X96526256Y-129985000D01*
X96959418Y-129898839D01*
X97450625Y-129570625D01*
X97650000Y-129272239D01*
X97849375Y-129570625D01*
X98340582Y-129898839D01*
X98773744Y-129985000D01*
X99066256Y-129985000D01*
X99499418Y-129898839D01*
X99990625Y-129570625D01*
X100190000Y-129272239D01*
X100389375Y-129570625D01*
X100880582Y-129898839D01*
X101313744Y-129985000D01*
X101606256Y-129985000D01*
X102039418Y-129898839D01*
X102530625Y-129570625D01*
X102542816Y-129552381D01*
X102551843Y-129597765D01*
X102692191Y-129807809D01*
X102902235Y-129948157D01*
X103150000Y-129997440D01*
X104850000Y-129997440D01*
X105097765Y-129948157D01*
X105307809Y-129807809D01*
X105448157Y-129597765D01*
X105497440Y-129350000D01*
X105497440Y-127650000D01*
X105448157Y-127402235D01*
X105307809Y-127192191D01*
X105097765Y-127051843D01*
X104850000Y-127002560D01*
X103150000Y-127002560D01*
X102902235Y-127051843D01*
X102692191Y-127192191D01*
X102551843Y-127402235D01*
X102542816Y-127447619D01*
X102530625Y-127429375D01*
X102039418Y-127101161D01*
X101606256Y-127015000D01*
X101313744Y-127015000D01*
X100880582Y-127101161D01*
X100389375Y-127429375D01*
X100190000Y-127727761D01*
X99990625Y-127429375D01*
X99499418Y-127101161D01*
X99066256Y-127015000D01*
X98773744Y-127015000D01*
X98340582Y-127101161D01*
X97849375Y-127429375D01*
X97650000Y-127727761D01*
X97450625Y-127429375D01*
X96959418Y-127101161D01*
X96526256Y-127015000D01*
X96233744Y-127015000D01*
X96187710Y-127024157D01*
X96187710Y-126994138D01*
X96030141Y-126613732D01*
X95912710Y-126496301D01*
X95912710Y-125477556D01*
X95927598Y-125402709D01*
X95912710Y-125327862D01*
X95912710Y-125327858D01*
X95880283Y-125164833D01*
X104315000Y-125164833D01*
X104315000Y-125835167D01*
X104571526Y-126454476D01*
X105045524Y-126928474D01*
X105664833Y-127185000D01*
X106335167Y-127185000D01*
X106954476Y-126928474D01*
X107428474Y-126454476D01*
X107685000Y-125835167D01*
X107685000Y-125164833D01*
X107428474Y-124545524D01*
X106954476Y-124071526D01*
X106335167Y-123815000D01*
X105664833Y-123815000D01*
X105045524Y-124071526D01*
X104571526Y-124545524D01*
X104315000Y-125164833D01*
X95880283Y-125164833D01*
X95868614Y-125106173D01*
X95700639Y-124854781D01*
X95637182Y-124812380D01*
X95535000Y-124710199D01*
X95535000Y-124544126D01*
X95377431Y-124163720D01*
X95086280Y-123872569D01*
X94705874Y-123715000D01*
X94294126Y-123715000D01*
X93913720Y-123872569D01*
X93875000Y-123911289D01*
X93586280Y-123622569D01*
X93205874Y-123465000D01*
X92794126Y-123465000D01*
X92413720Y-123622569D01*
X92122569Y-123913720D01*
X91965000Y-124294126D01*
X91965000Y-124705874D01*
X92086831Y-125000000D01*
X91965000Y-125294126D01*
X91965000Y-125705874D01*
X92112713Y-126062485D01*
X91160199Y-127015000D01*
X91153744Y-127015000D01*
X90720582Y-127101161D01*
X90229375Y-127429375D01*
X90030000Y-127727761D01*
X89830625Y-127429375D01*
X89339418Y-127101161D01*
X88906256Y-127015000D01*
X88613744Y-127015000D01*
X88180582Y-127101161D01*
X87689375Y-127429375D01*
X87476157Y-127748478D01*
X87415183Y-127618642D01*
X86986924Y-127228355D01*
X86576890Y-127058524D01*
X86347000Y-127179845D01*
X86093000Y-127179845D01*
X85863110Y-127058524D01*
X85453076Y-127228355D01*
X85024817Y-127618642D01*
X84778514Y-128143108D01*
X76185000Y-128143108D01*
X76185000Y-125164833D01*
X82315000Y-125164833D01*
X82315000Y-125835167D01*
X82571526Y-126454476D01*
X83045524Y-126928474D01*
X83664833Y-127185000D01*
X84335167Y-127185000D01*
X84954476Y-126928474D01*
X85428474Y-126454476D01*
X85685000Y-125835167D01*
X85685000Y-125164833D01*
X85428474Y-124545524D01*
X84954476Y-124071526D01*
X84335167Y-123815000D01*
X83664833Y-123815000D01*
X83045524Y-124071526D01*
X82571526Y-124545524D01*
X82315000Y-125164833D01*
X76185000Y-125164833D01*
X76185000Y-119950000D01*
X76802560Y-119950000D01*
X76802560Y-122050000D01*
X76851843Y-122297765D01*
X76992191Y-122507809D01*
X77202235Y-122648157D01*
X77450000Y-122697440D01*
X79550000Y-122697440D01*
X79797765Y-122648157D01*
X80007809Y-122507809D01*
X80148157Y-122297765D01*
X80197440Y-122050000D01*
X80197440Y-120664833D01*
X87815000Y-120664833D01*
X87815000Y-121335167D01*
X88071526Y-121954476D01*
X88545524Y-122428474D01*
X89164833Y-122685000D01*
X89835167Y-122685000D01*
X90454476Y-122428474D01*
X90928474Y-121954476D01*
X91185000Y-121335167D01*
X91185000Y-120664833D01*
X90928474Y-120045524D01*
X90832950Y-119950000D01*
X98802560Y-119950000D01*
X98802560Y-122050000D01*
X98851843Y-122297765D01*
X98992191Y-122507809D01*
X99202235Y-122648157D01*
X99450000Y-122697440D01*
X101550000Y-122697440D01*
X101797765Y-122648157D01*
X102007809Y-122507809D01*
X102148157Y-122297765D01*
X102197440Y-122050000D01*
X102197440Y-120664833D01*
X109815000Y-120664833D01*
X109815000Y-121335167D01*
X110071526Y-121954476D01*
X110545524Y-122428474D01*
X111164833Y-122685000D01*
X111835167Y-122685000D01*
X112454476Y-122428474D01*
X112928474Y-121954476D01*
X113185000Y-121335167D01*
X113185000Y-120664833D01*
X112928474Y-120045524D01*
X112454476Y-119571526D01*
X111835167Y-119315000D01*
X111164833Y-119315000D01*
X110545524Y-119571526D01*
X110071526Y-120045524D01*
X109815000Y-120664833D01*
X102197440Y-120664833D01*
X102197440Y-119950000D01*
X102148157Y-119702235D01*
X102007809Y-119492191D01*
X101797765Y-119351843D01*
X101550000Y-119302560D01*
X99450000Y-119302560D01*
X99202235Y-119351843D01*
X98992191Y-119492191D01*
X98851843Y-119702235D01*
X98802560Y-119950000D01*
X90832950Y-119950000D01*
X90454476Y-119571526D01*
X89835167Y-119315000D01*
X89164833Y-119315000D01*
X88545524Y-119571526D01*
X88071526Y-120045524D01*
X87815000Y-120664833D01*
X80197440Y-120664833D01*
X80197440Y-119950000D01*
X80148157Y-119702235D01*
X80007809Y-119492191D01*
X79797765Y-119351843D01*
X79550000Y-119302560D01*
X77450000Y-119302560D01*
X77202235Y-119351843D01*
X76992191Y-119492191D01*
X76851843Y-119702235D01*
X76802560Y-119950000D01*
X76185000Y-119950000D01*
X76185000Y-116774833D01*
X78425000Y-116774833D01*
X78425000Y-117445167D01*
X78681526Y-118064476D01*
X79155524Y-118538474D01*
X79774833Y-118795000D01*
X80445167Y-118795000D01*
X81064476Y-118538474D01*
X81538474Y-118064476D01*
X81795000Y-117445167D01*
X81795000Y-116774833D01*
X81538474Y-116155524D01*
X81064476Y-115681526D01*
X80445167Y-115425000D01*
X79774833Y-115425000D01*
X79155524Y-115681526D01*
X78681526Y-116155524D01*
X78425000Y-116774833D01*
X76185000Y-116774833D01*
X76185000Y-115164833D01*
X82315000Y-115164833D01*
X82315000Y-115835167D01*
X82571526Y-116454476D01*
X83045524Y-116928474D01*
X83664833Y-117185000D01*
X84335167Y-117185000D01*
X84954476Y-116928474D01*
X85108117Y-116774833D01*
X86205000Y-116774833D01*
X86205000Y-117445167D01*
X86461526Y-118064476D01*
X86935524Y-118538474D01*
X87554833Y-118795000D01*
X88225167Y-118795000D01*
X88844476Y-118538474D01*
X89318474Y-118064476D01*
X89575000Y-117445167D01*
X89575000Y-116774833D01*
X100425000Y-116774833D01*
X100425000Y-117445167D01*
X100681526Y-118064476D01*
X101155524Y-118538474D01*
X101774833Y-118795000D01*
X102445167Y-118795000D01*
X103064476Y-118538474D01*
X103538474Y-118064476D01*
X103795000Y-117445167D01*
X103795000Y-116774833D01*
X103759324Y-116688703D01*
X104990902Y-116688703D01*
X105095687Y-116960745D01*
X105723526Y-117195619D01*
X106393456Y-117172349D01*
X106904313Y-116960745D01*
X106975922Y-116774833D01*
X108205000Y-116774833D01*
X108205000Y-117445167D01*
X108461526Y-118064476D01*
X108935524Y-118538474D01*
X109554833Y-118795000D01*
X110225167Y-118795000D01*
X110844476Y-118538474D01*
X111318474Y-118064476D01*
X111575000Y-117445167D01*
X111575000Y-116774833D01*
X111318474Y-116155524D01*
X110844476Y-115681526D01*
X110225167Y-115425000D01*
X109554833Y-115425000D01*
X108935524Y-115681526D01*
X108461526Y-116155524D01*
X108205000Y-116774833D01*
X106975922Y-116774833D01*
X107009098Y-116688703D01*
X106000000Y-115679605D01*
X104990902Y-116688703D01*
X103759324Y-116688703D01*
X103538474Y-116155524D01*
X103064476Y-115681526D01*
X102445167Y-115425000D01*
X101774833Y-115425000D01*
X101155524Y-115681526D01*
X100681526Y-116155524D01*
X100425000Y-116774833D01*
X89575000Y-116774833D01*
X89318474Y-116155524D01*
X88844476Y-115681526D01*
X88225167Y-115425000D01*
X87554833Y-115425000D01*
X86935524Y-115681526D01*
X86461526Y-116155524D01*
X86205000Y-116774833D01*
X85108117Y-116774833D01*
X85428474Y-116454476D01*
X85685000Y-115835167D01*
X85685000Y-115223526D01*
X104304381Y-115223526D01*
X104327651Y-115893456D01*
X104539255Y-116404313D01*
X104811297Y-116509098D01*
X105820395Y-115500000D01*
X106179605Y-115500000D01*
X107188703Y-116509098D01*
X107460745Y-116404313D01*
X107695619Y-115776474D01*
X107672349Y-115106544D01*
X107460745Y-114595687D01*
X107188703Y-114490902D01*
X106179605Y-115500000D01*
X105820395Y-115500000D01*
X104811297Y-114490902D01*
X104539255Y-114595687D01*
X104304381Y-115223526D01*
X85685000Y-115223526D01*
X85685000Y-115164833D01*
X85428474Y-114545524D01*
X84954476Y-114071526D01*
X84335167Y-113815000D01*
X83664833Y-113815000D01*
X83045524Y-114071526D01*
X82571526Y-114545524D01*
X82315000Y-115164833D01*
X76185000Y-115164833D01*
X76185000Y-103164833D01*
X82315000Y-103164833D01*
X82315000Y-103835167D01*
X82571526Y-104454476D01*
X83045524Y-104928474D01*
X83664833Y-105185000D01*
X84335167Y-105185000D01*
X84954476Y-104928474D01*
X85428474Y-104454476D01*
X85685000Y-103835167D01*
X85685000Y-103164833D01*
X85428474Y-102545524D01*
X84954476Y-102071526D01*
X84335167Y-101815000D01*
X83664833Y-101815000D01*
X83045524Y-102071526D01*
X82571526Y-102545524D01*
X82315000Y-103164833D01*
X76185000Y-103164833D01*
X76185000Y-97950000D01*
X76802560Y-97950000D01*
X76802560Y-100050000D01*
X76851843Y-100297765D01*
X76992191Y-100507809D01*
X77202235Y-100648157D01*
X77450000Y-100697440D01*
X79550000Y-100697440D01*
X79797765Y-100648157D01*
X80007809Y-100507809D01*
X80148157Y-100297765D01*
X80197440Y-100050000D01*
X80197440Y-98664833D01*
X87815000Y-98664833D01*
X87815000Y-99335167D01*
X88071526Y-99954476D01*
X88545524Y-100428474D01*
X89164833Y-100685000D01*
X89835167Y-100685000D01*
X90454476Y-100428474D01*
X90928474Y-99954476D01*
X91185000Y-99335167D01*
X91185000Y-98664833D01*
X90928474Y-98045524D01*
X90454476Y-97571526D01*
X89835167Y-97315000D01*
X89164833Y-97315000D01*
X88545524Y-97571526D01*
X88071526Y-98045524D01*
X87815000Y-98664833D01*
X80197440Y-98664833D01*
X80197440Y-97950000D01*
X80148157Y-97702235D01*
X80007809Y-97492191D01*
X79797765Y-97351843D01*
X79550000Y-97302560D01*
X77450000Y-97302560D01*
X77202235Y-97351843D01*
X76992191Y-97492191D01*
X76851843Y-97702235D01*
X76802560Y-97950000D01*
X76185000Y-97950000D01*
X76185000Y-94774833D01*
X78425000Y-94774833D01*
X78425000Y-95445167D01*
X78681526Y-96064476D01*
X79155524Y-96538474D01*
X79774833Y-96795000D01*
X80445167Y-96795000D01*
X81064476Y-96538474D01*
X81538474Y-96064476D01*
X81795000Y-95445167D01*
X81795000Y-94774833D01*
X81538474Y-94155524D01*
X81064476Y-93681526D01*
X80445167Y-93425000D01*
X79774833Y-93425000D01*
X79155524Y-93681526D01*
X78681526Y-94155524D01*
X78425000Y-94774833D01*
X76185000Y-94774833D01*
X76185000Y-93164833D01*
X82315000Y-93164833D01*
X82315000Y-93835167D01*
X82571526Y-94454476D01*
X83045524Y-94928474D01*
X83664833Y-95185000D01*
X84335167Y-95185000D01*
X84954476Y-94928474D01*
X85108117Y-94774833D01*
X86205000Y-94774833D01*
X86205000Y-95445167D01*
X86461526Y-96064476D01*
X86935524Y-96538474D01*
X87554833Y-96795000D01*
X88225167Y-96795000D01*
X88844476Y-96538474D01*
X89318474Y-96064476D01*
X89575000Y-95445167D01*
X89575000Y-94774833D01*
X89318474Y-94155524D01*
X88844476Y-93681526D01*
X88225167Y-93425000D01*
X87554833Y-93425000D01*
X86935524Y-93681526D01*
X86461526Y-94155524D01*
X86205000Y-94774833D01*
X85108117Y-94774833D01*
X85428474Y-94454476D01*
X85685000Y-93835167D01*
X85685000Y-93164833D01*
X85428474Y-92545524D01*
X84954476Y-92071526D01*
X84335167Y-91815000D01*
X83664833Y-91815000D01*
X83045524Y-92071526D01*
X82571526Y-92545524D01*
X82315000Y-93164833D01*
X76185000Y-93164833D01*
X76185000Y-87555431D01*
X81765000Y-87555431D01*
X81765000Y-88444569D01*
X82105259Y-89266026D01*
X82733974Y-89894741D01*
X83555431Y-90235000D01*
X84444569Y-90235000D01*
X84770487Y-90100000D01*
X89202560Y-90100000D01*
X89202560Y-91900000D01*
X89251843Y-92147765D01*
X89392191Y-92357809D01*
X89602235Y-92498157D01*
X89850000Y-92547440D01*
X91650000Y-92547440D01*
X91897765Y-92498157D01*
X92107809Y-92357809D01*
X92248157Y-92147765D01*
X92251275Y-92132092D01*
X92420493Y-92301310D01*
X92984670Y-92535000D01*
X93595330Y-92535000D01*
X94159507Y-92301310D01*
X94591310Y-91869507D01*
X94636669Y-91760000D01*
X95363331Y-91760000D01*
X95408690Y-91869507D01*
X95840493Y-92301310D01*
X96404670Y-92535000D01*
X97015330Y-92535000D01*
X97579507Y-92301310D01*
X97748725Y-92132092D01*
X97751843Y-92147765D01*
X97892191Y-92357809D01*
X98102235Y-92498157D01*
X98350000Y-92547440D01*
X98377758Y-92547440D01*
X95960199Y-94965000D01*
X95794126Y-94965000D01*
X95413720Y-95122569D01*
X95122569Y-95413720D01*
X94965000Y-95794126D01*
X94965000Y-96205874D01*
X95122569Y-96586280D01*
X95413720Y-96877431D01*
X95794126Y-97035000D01*
X96205874Y-97035000D01*
X96586280Y-96877431D01*
X96877431Y-96586280D01*
X97035000Y-96205874D01*
X97035000Y-96039801D01*
X97965000Y-95109801D01*
X97965000Y-95205874D01*
X98122569Y-95586280D01*
X98240001Y-95703712D01*
X98240000Y-111474440D01*
X98102235Y-111501843D01*
X97892191Y-111642191D01*
X97751843Y-111852235D01*
X97748725Y-111867908D01*
X97579507Y-111698690D01*
X97015330Y-111465000D01*
X96404670Y-111465000D01*
X95840493Y-111698690D01*
X95408690Y-112130493D01*
X95363331Y-112240000D01*
X94636669Y-112240000D01*
X94591310Y-112130493D01*
X94159507Y-111698690D01*
X93878997Y-111582499D01*
X94035000Y-111205874D01*
X94035000Y-110794126D01*
X93877431Y-110413720D01*
X93586280Y-110122569D01*
X93205874Y-109965000D01*
X92794126Y-109965000D01*
X92413720Y-110122569D01*
X92122569Y-110413720D01*
X91965000Y-110794126D01*
X91965000Y-110960198D01*
X91472638Y-111452560D01*
X89850000Y-111452560D01*
X89602235Y-111501843D01*
X89392191Y-111642191D01*
X89251843Y-111852235D01*
X89202560Y-112100000D01*
X89202560Y-113900000D01*
X89251843Y-114147765D01*
X89392191Y-114357809D01*
X89602235Y-114498157D01*
X89850000Y-114547440D01*
X91650000Y-114547440D01*
X91897765Y-114498157D01*
X92107809Y-114357809D01*
X92248157Y-114147765D01*
X92251275Y-114132092D01*
X92420493Y-114301310D01*
X92984670Y-114535000D01*
X93595330Y-114535000D01*
X94159507Y-114301310D01*
X94591310Y-113869507D01*
X94636669Y-113760000D01*
X95363331Y-113760000D01*
X95408690Y-113869507D01*
X95840493Y-114301310D01*
X96404670Y-114535000D01*
X97015330Y-114535000D01*
X97579507Y-114301310D01*
X97748725Y-114132092D01*
X97751843Y-114147765D01*
X97892191Y-114357809D01*
X98102235Y-114498157D01*
X98350000Y-114547440D01*
X100150000Y-114547440D01*
X100397765Y-114498157D01*
X100607809Y-114357809D01*
X100638887Y-114311297D01*
X104990902Y-114311297D01*
X106000000Y-115320395D01*
X107009098Y-114311297D01*
X106904313Y-114039255D01*
X106276474Y-113804381D01*
X105606544Y-113827651D01*
X105095687Y-114039255D01*
X104990902Y-114311297D01*
X100638887Y-114311297D01*
X100748157Y-114147765D01*
X100797440Y-113900000D01*
X100797440Y-112100000D01*
X100748157Y-111852235D01*
X100607809Y-111642191D01*
X100397765Y-111501843D01*
X100150000Y-111452560D01*
X99898483Y-111452560D01*
X99797929Y-111302071D01*
X99760000Y-111276728D01*
X99760000Y-103164833D01*
X104315000Y-103164833D01*
X104315000Y-103835167D01*
X104571526Y-104454476D01*
X105045524Y-104928474D01*
X105664833Y-105185000D01*
X106335167Y-105185000D01*
X106954476Y-104928474D01*
X107428474Y-104454476D01*
X107685000Y-103835167D01*
X107685000Y-103164833D01*
X107428474Y-102545524D01*
X106954476Y-102071526D01*
X106335167Y-101815000D01*
X105664833Y-101815000D01*
X105045524Y-102071526D01*
X104571526Y-102545524D01*
X104315000Y-103164833D01*
X99760000Y-103164833D01*
X99760000Y-100697440D01*
X101550000Y-100697440D01*
X101797765Y-100648157D01*
X102007809Y-100507809D01*
X102148157Y-100297765D01*
X102197440Y-100050000D01*
X102197440Y-98664833D01*
X109815000Y-98664833D01*
X109815000Y-99335167D01*
X110071526Y-99954476D01*
X110545524Y-100428474D01*
X111164833Y-100685000D01*
X111835167Y-100685000D01*
X112454476Y-100428474D01*
X112928474Y-99954476D01*
X113185000Y-99335167D01*
X113185000Y-98664833D01*
X112928474Y-98045524D01*
X112454476Y-97571526D01*
X111835167Y-97315000D01*
X111164833Y-97315000D01*
X110545524Y-97571526D01*
X110071526Y-98045524D01*
X109815000Y-98664833D01*
X102197440Y-98664833D01*
X102197440Y-97950000D01*
X102148157Y-97702235D01*
X102007809Y-97492191D01*
X101797765Y-97351843D01*
X101550000Y-97302560D01*
X99760000Y-97302560D01*
X99760000Y-95703711D01*
X99877431Y-95586280D01*
X100035000Y-95205874D01*
X100035000Y-94794126D01*
X99877431Y-94413720D01*
X99586280Y-94122569D01*
X99205874Y-93965000D01*
X99109802Y-93965000D01*
X99314802Y-93760000D01*
X101077050Y-93760000D01*
X100681526Y-94155524D01*
X100425000Y-94774833D01*
X100425000Y-95445167D01*
X100681526Y-96064476D01*
X101155524Y-96538474D01*
X101774833Y-96795000D01*
X102445167Y-96795000D01*
X103064476Y-96538474D01*
X103538474Y-96064476D01*
X103795000Y-95445167D01*
X103795000Y-94774833D01*
X103759324Y-94688703D01*
X104990902Y-94688703D01*
X105095687Y-94960745D01*
X105723526Y-95195619D01*
X106393456Y-95172349D01*
X106904313Y-94960745D01*
X106975922Y-94774833D01*
X108205000Y-94774833D01*
X108205000Y-95445167D01*
X108461526Y-96064476D01*
X108935524Y-96538474D01*
X109554833Y-96795000D01*
X110225167Y-96795000D01*
X110844476Y-96538474D01*
X111318474Y-96064476D01*
X111575000Y-95445167D01*
X111575000Y-94774833D01*
X111318474Y-94155524D01*
X110844476Y-93681526D01*
X110225167Y-93425000D01*
X109554833Y-93425000D01*
X108935524Y-93681526D01*
X108461526Y-94155524D01*
X108205000Y-94774833D01*
X106975922Y-94774833D01*
X107009098Y-94688703D01*
X106000000Y-93679605D01*
X104990902Y-94688703D01*
X103759324Y-94688703D01*
X103538474Y-94155524D01*
X103064476Y-93681526D01*
X102864866Y-93598845D01*
X102877431Y-93586280D01*
X103027688Y-93223526D01*
X104304381Y-93223526D01*
X104327651Y-93893456D01*
X104539255Y-94404313D01*
X104811297Y-94509098D01*
X105820395Y-93500000D01*
X106179605Y-93500000D01*
X107188703Y-94509098D01*
X107460745Y-94404313D01*
X107695619Y-93776474D01*
X107672349Y-93106544D01*
X107460745Y-92595687D01*
X107188703Y-92490902D01*
X106179605Y-93500000D01*
X105820395Y-93500000D01*
X104811297Y-92490902D01*
X104539255Y-92595687D01*
X104304381Y-93223526D01*
X103027688Y-93223526D01*
X103035000Y-93205874D01*
X103035000Y-92794126D01*
X102877431Y-92413720D01*
X102775008Y-92311297D01*
X104990902Y-92311297D01*
X106000000Y-93320395D01*
X107009098Y-92311297D01*
X106904313Y-92039255D01*
X106276474Y-91804381D01*
X105606544Y-91827651D01*
X105095687Y-92039255D01*
X104990902Y-92311297D01*
X102775008Y-92311297D01*
X102586280Y-92122569D01*
X102205874Y-91965000D01*
X101794126Y-91965000D01*
X101413720Y-92122569D01*
X101296289Y-92240000D01*
X100686527Y-92240000D01*
X100748157Y-92147765D01*
X100797440Y-91900000D01*
X100797440Y-90100000D01*
X100748157Y-89852235D01*
X100607809Y-89642191D01*
X100397765Y-89501843D01*
X100150000Y-89452560D01*
X98350000Y-89452560D01*
X98102235Y-89501843D01*
X97892191Y-89642191D01*
X97751843Y-89852235D01*
X97748725Y-89867908D01*
X97579507Y-89698690D01*
X97015330Y-89465000D01*
X96404670Y-89465000D01*
X95840493Y-89698690D01*
X95408690Y-90130493D01*
X95363331Y-90240000D01*
X94636669Y-90240000D01*
X94591310Y-90130493D01*
X94159507Y-89698690D01*
X93595330Y-89465000D01*
X92984670Y-89465000D01*
X92420493Y-89698690D01*
X92251275Y-89867908D01*
X92248157Y-89852235D01*
X92107809Y-89642191D01*
X91897765Y-89501843D01*
X91650000Y-89452560D01*
X89850000Y-89452560D01*
X89602235Y-89501843D01*
X89392191Y-89642191D01*
X89251843Y-89852235D01*
X89202560Y-90100000D01*
X84770487Y-90100000D01*
X85266026Y-89894741D01*
X85894741Y-89266026D01*
X86235000Y-88444569D01*
X86235000Y-87555431D01*
X103765000Y-87555431D01*
X103765000Y-88444569D01*
X104105259Y-89266026D01*
X104733974Y-89894741D01*
X105555431Y-90235000D01*
X106444569Y-90235000D01*
X107266026Y-89894741D01*
X107894741Y-89266026D01*
X108235000Y-88444569D01*
X108235000Y-87555431D01*
X107894741Y-86733974D01*
X107266026Y-86105259D01*
X106444569Y-85765000D01*
X105555431Y-85765000D01*
X104733974Y-86105259D01*
X104105259Y-86733974D01*
X103765000Y-87555431D01*
X86235000Y-87555431D01*
X85894741Y-86733974D01*
X85266026Y-86105259D01*
X84444569Y-85765000D01*
X83555431Y-85765000D01*
X82733974Y-86105259D01*
X82105259Y-86733974D01*
X81765000Y-87555431D01*
X76185000Y-87555431D01*
X76185000Y-84500000D01*
X84705908Y-84500000D01*
X84821161Y-85079418D01*
X85149375Y-85570625D01*
X85640582Y-85898839D01*
X86073744Y-85985000D01*
X86366256Y-85985000D01*
X86799418Y-85898839D01*
X87290625Y-85570625D01*
X87490000Y-85272239D01*
X87689375Y-85570625D01*
X88180582Y-85898839D01*
X88613744Y-85985000D01*
X88906256Y-85985000D01*
X89339418Y-85898839D01*
X89830625Y-85570625D01*
X90030000Y-85272239D01*
X90229375Y-85570625D01*
X90720582Y-85898839D01*
X91153744Y-85985000D01*
X91446256Y-85985000D01*
X91879418Y-85898839D01*
X92370625Y-85570625D01*
X92570000Y-85272239D01*
X92769375Y-85570625D01*
X93260582Y-85898839D01*
X93693744Y-85985000D01*
X93986256Y-85985000D01*
X94419418Y-85898839D01*
X94910625Y-85570625D01*
X95110000Y-85272239D01*
X95309375Y-85570625D01*
X95800582Y-85898839D01*
X96233744Y-85985000D01*
X96526256Y-85985000D01*
X96959418Y-85898839D01*
X97450625Y-85570625D01*
X97650000Y-85272239D01*
X97849375Y-85570625D01*
X98340582Y-85898839D01*
X98773744Y-85985000D01*
X99066256Y-85985000D01*
X99499418Y-85898839D01*
X99990625Y-85570625D01*
X100190000Y-85272239D01*
X100389375Y-85570625D01*
X100880582Y-85898839D01*
X101313744Y-85985000D01*
X101606256Y-85985000D01*
X102039418Y-85898839D01*
X102530625Y-85570625D01*
X102542816Y-85552381D01*
X102551843Y-85597765D01*
X102692191Y-85807809D01*
X102902235Y-85948157D01*
X103150000Y-85997440D01*
X104850000Y-85997440D01*
X105097765Y-85948157D01*
X105307809Y-85807809D01*
X105448157Y-85597765D01*
X105497440Y-85350000D01*
X105497440Y-83650000D01*
X105448157Y-83402235D01*
X105307809Y-83192191D01*
X105097765Y-83051843D01*
X104850000Y-83002560D01*
X103150000Y-83002560D01*
X102902235Y-83051843D01*
X102692191Y-83192191D01*
X102551843Y-83402235D01*
X102542816Y-83447619D01*
X102530625Y-83429375D01*
X102039418Y-83101161D01*
X101606256Y-83015000D01*
X101313744Y-83015000D01*
X100880582Y-83101161D01*
X100389375Y-83429375D01*
X100190000Y-83727761D01*
X99990625Y-83429375D01*
X99499418Y-83101161D01*
X99066256Y-83015000D01*
X98773744Y-83015000D01*
X98340582Y-83101161D01*
X97849375Y-83429375D01*
X97650000Y-83727761D01*
X97450625Y-83429375D01*
X96959418Y-83101161D01*
X96526256Y-83015000D01*
X96233744Y-83015000D01*
X95800582Y-83101161D01*
X95309375Y-83429375D01*
X95110000Y-83727761D01*
X94910625Y-83429375D01*
X94419418Y-83101161D01*
X93986256Y-83015000D01*
X93693744Y-83015000D01*
X93260582Y-83101161D01*
X92769375Y-83429375D01*
X92570000Y-83727761D01*
X92370625Y-83429375D01*
X91879418Y-83101161D01*
X91446256Y-83015000D01*
X91153744Y-83015000D01*
X90720582Y-83101161D01*
X90229375Y-83429375D01*
X90030000Y-83727761D01*
X89830625Y-83429375D01*
X89339418Y-83101161D01*
X88906256Y-83015000D01*
X88613744Y-83015000D01*
X88180582Y-83101161D01*
X87689375Y-83429375D01*
X87490000Y-83727761D01*
X87290625Y-83429375D01*
X86799418Y-83101161D01*
X86366256Y-83015000D01*
X86073744Y-83015000D01*
X85640582Y-83101161D01*
X85149375Y-83429375D01*
X84821161Y-83920582D01*
X84705908Y-84500000D01*
X76185000Y-84500000D01*
X76185000Y-81164833D01*
X82315000Y-81164833D01*
X82315000Y-81835167D01*
X82571526Y-82454476D01*
X83045524Y-82928474D01*
X83664833Y-83185000D01*
X84335167Y-83185000D01*
X84954476Y-82928474D01*
X85428474Y-82454476D01*
X85685000Y-81835167D01*
X85685000Y-81164833D01*
X104315000Y-81164833D01*
X104315000Y-81835167D01*
X104571526Y-82454476D01*
X105045524Y-82928474D01*
X105664833Y-83185000D01*
X106335167Y-83185000D01*
X106954476Y-82928474D01*
X107428474Y-82454476D01*
X107685000Y-81835167D01*
X107685000Y-81164833D01*
X107428474Y-80545524D01*
X106954476Y-80071526D01*
X106335167Y-79815000D01*
X105664833Y-79815000D01*
X105045524Y-80071526D01*
X104571526Y-80545524D01*
X104315000Y-81164833D01*
X85685000Y-81164833D01*
X85428474Y-80545524D01*
X84954476Y-80071526D01*
X84335167Y-79815000D01*
X83664833Y-79815000D01*
X83045524Y-80071526D01*
X82571526Y-80545524D01*
X82315000Y-81164833D01*
X76185000Y-81164833D01*
X76185000Y-75950000D01*
X76802560Y-75950000D01*
X76802560Y-78050000D01*
X76851843Y-78297765D01*
X76992191Y-78507809D01*
X77202235Y-78648157D01*
X77450000Y-78697440D01*
X79550000Y-78697440D01*
X79797765Y-78648157D01*
X80007809Y-78507809D01*
X80148157Y-78297765D01*
X80197440Y-78050000D01*
X80197440Y-76664833D01*
X87815000Y-76664833D01*
X87815000Y-77335167D01*
X88071526Y-77954476D01*
X88545524Y-78428474D01*
X89164833Y-78685000D01*
X89835167Y-78685000D01*
X90454476Y-78428474D01*
X90928474Y-77954476D01*
X91185000Y-77335167D01*
X91185000Y-76664833D01*
X90928474Y-76045524D01*
X90832950Y-75950000D01*
X98802560Y-75950000D01*
X98802560Y-78050000D01*
X98851843Y-78297765D01*
X98992191Y-78507809D01*
X99202235Y-78648157D01*
X99450000Y-78697440D01*
X101550000Y-78697440D01*
X101797765Y-78648157D01*
X102007809Y-78507809D01*
X102148157Y-78297765D01*
X102197440Y-78050000D01*
X102197440Y-76664833D01*
X109815000Y-76664833D01*
X109815000Y-77335167D01*
X110071526Y-77954476D01*
X110545524Y-78428474D01*
X111164833Y-78685000D01*
X111835167Y-78685000D01*
X112454476Y-78428474D01*
X112928474Y-77954476D01*
X113185000Y-77335167D01*
X113185000Y-76664833D01*
X112928474Y-76045524D01*
X112454476Y-75571526D01*
X111835167Y-75315000D01*
X111164833Y-75315000D01*
X110545524Y-75571526D01*
X110071526Y-76045524D01*
X109815000Y-76664833D01*
X102197440Y-76664833D01*
X102197440Y-75950000D01*
X102148157Y-75702235D01*
X102007809Y-75492191D01*
X101797765Y-75351843D01*
X101550000Y-75302560D01*
X99450000Y-75302560D01*
X99202235Y-75351843D01*
X98992191Y-75492191D01*
X98851843Y-75702235D01*
X98802560Y-75950000D01*
X90832950Y-75950000D01*
X90454476Y-75571526D01*
X89835167Y-75315000D01*
X89164833Y-75315000D01*
X88545524Y-75571526D01*
X88071526Y-76045524D01*
X87815000Y-76664833D01*
X80197440Y-76664833D01*
X80197440Y-75950000D01*
X80148157Y-75702235D01*
X80007809Y-75492191D01*
X79797765Y-75351843D01*
X79550000Y-75302560D01*
X77450000Y-75302560D01*
X77202235Y-75351843D01*
X76992191Y-75492191D01*
X76851843Y-75702235D01*
X76802560Y-75950000D01*
X76185000Y-75950000D01*
X76185000Y-72774833D01*
X78425000Y-72774833D01*
X78425000Y-73445167D01*
X78681526Y-74064476D01*
X79155524Y-74538474D01*
X79774833Y-74795000D01*
X80445167Y-74795000D01*
X81064476Y-74538474D01*
X81538474Y-74064476D01*
X81795000Y-73445167D01*
X81795000Y-72774833D01*
X81538474Y-72155524D01*
X81064476Y-71681526D01*
X80445167Y-71425000D01*
X79774833Y-71425000D01*
X79155524Y-71681526D01*
X78681526Y-72155524D01*
X78425000Y-72774833D01*
X76185000Y-72774833D01*
X76185000Y-71164833D01*
X82315000Y-71164833D01*
X82315000Y-71835167D01*
X82571526Y-72454476D01*
X83045524Y-72928474D01*
X83664833Y-73185000D01*
X84335167Y-73185000D01*
X84954476Y-72928474D01*
X85108117Y-72774833D01*
X86205000Y-72774833D01*
X86205000Y-73445167D01*
X86461526Y-74064476D01*
X86935524Y-74538474D01*
X87554833Y-74795000D01*
X88225167Y-74795000D01*
X88844476Y-74538474D01*
X89318474Y-74064476D01*
X89575000Y-73445167D01*
X89575000Y-72774833D01*
X100425000Y-72774833D01*
X100425000Y-73445167D01*
X100681526Y-74064476D01*
X101155524Y-74538474D01*
X101774833Y-74795000D01*
X102445167Y-74795000D01*
X103064476Y-74538474D01*
X103538474Y-74064476D01*
X103795000Y-73445167D01*
X103795000Y-72774833D01*
X103759324Y-72688703D01*
X104990902Y-72688703D01*
X105095687Y-72960745D01*
X105723526Y-73195619D01*
X106393456Y-73172349D01*
X106904313Y-72960745D01*
X106975922Y-72774833D01*
X108205000Y-72774833D01*
X108205000Y-73445167D01*
X108461526Y-74064476D01*
X108935524Y-74538474D01*
X109554833Y-74795000D01*
X110225167Y-74795000D01*
X110844476Y-74538474D01*
X111318474Y-74064476D01*
X111575000Y-73445167D01*
X111575000Y-72774833D01*
X111318474Y-72155524D01*
X110844476Y-71681526D01*
X110225167Y-71425000D01*
X109554833Y-71425000D01*
X108935524Y-71681526D01*
X108461526Y-72155524D01*
X108205000Y-72774833D01*
X106975922Y-72774833D01*
X107009098Y-72688703D01*
X106000000Y-71679605D01*
X104990902Y-72688703D01*
X103759324Y-72688703D01*
X103538474Y-72155524D01*
X103064476Y-71681526D01*
X102445167Y-71425000D01*
X101774833Y-71425000D01*
X101155524Y-71681526D01*
X100681526Y-72155524D01*
X100425000Y-72774833D01*
X89575000Y-72774833D01*
X89318474Y-72155524D01*
X88844476Y-71681526D01*
X88225167Y-71425000D01*
X87554833Y-71425000D01*
X86935524Y-71681526D01*
X86461526Y-72155524D01*
X86205000Y-72774833D01*
X85108117Y-72774833D01*
X85428474Y-72454476D01*
X85685000Y-71835167D01*
X85685000Y-71223526D01*
X104304381Y-71223526D01*
X104327651Y-71893456D01*
X104539255Y-72404313D01*
X104811297Y-72509098D01*
X105820395Y-71500000D01*
X106179605Y-71500000D01*
X107188703Y-72509098D01*
X107460745Y-72404313D01*
X107695619Y-71776474D01*
X107672349Y-71106544D01*
X107460745Y-70595687D01*
X107188703Y-70490902D01*
X106179605Y-71500000D01*
X105820395Y-71500000D01*
X104811297Y-70490902D01*
X104539255Y-70595687D01*
X104304381Y-71223526D01*
X85685000Y-71223526D01*
X85685000Y-71164833D01*
X85428474Y-70545524D01*
X84954476Y-70071526D01*
X84335167Y-69815000D01*
X83664833Y-69815000D01*
X83045524Y-70071526D01*
X82571526Y-70545524D01*
X82315000Y-71164833D01*
X76185000Y-71164833D01*
X76185000Y-68100000D01*
X89202560Y-68100000D01*
X89202560Y-69900000D01*
X89251843Y-70147765D01*
X89392191Y-70357809D01*
X89602235Y-70498157D01*
X89850000Y-70547440D01*
X91650000Y-70547440D01*
X91897765Y-70498157D01*
X92107809Y-70357809D01*
X92248157Y-70147765D01*
X92251275Y-70132092D01*
X92420493Y-70301310D01*
X92984670Y-70535000D01*
X93595330Y-70535000D01*
X94159507Y-70301310D01*
X94591310Y-69869507D01*
X94825000Y-69305330D01*
X94825000Y-68694670D01*
X95175000Y-68694670D01*
X95175000Y-69305330D01*
X95408690Y-69869507D01*
X95840493Y-70301310D01*
X96404670Y-70535000D01*
X97015330Y-70535000D01*
X97579507Y-70301310D01*
X97748725Y-70132092D01*
X97751843Y-70147765D01*
X97892191Y-70357809D01*
X98102235Y-70498157D01*
X98350000Y-70547440D01*
X100150000Y-70547440D01*
X100397765Y-70498157D01*
X100607809Y-70357809D01*
X100638887Y-70311297D01*
X104990902Y-70311297D01*
X106000000Y-71320395D01*
X107009098Y-70311297D01*
X106904313Y-70039255D01*
X106276474Y-69804381D01*
X105606544Y-69827651D01*
X105095687Y-70039255D01*
X104990902Y-70311297D01*
X100638887Y-70311297D01*
X100748157Y-70147765D01*
X100797440Y-69900000D01*
X100797440Y-68100000D01*
X100748157Y-67852235D01*
X100607809Y-67642191D01*
X100397765Y-67501843D01*
X100150000Y-67452560D01*
X98350000Y-67452560D01*
X98102235Y-67501843D01*
X97892191Y-67642191D01*
X97751843Y-67852235D01*
X97748725Y-67867908D01*
X97579507Y-67698690D01*
X97015330Y-67465000D01*
X96404670Y-67465000D01*
X95840493Y-67698690D01*
X95408690Y-68130493D01*
X95175000Y-68694670D01*
X94825000Y-68694670D01*
X94591310Y-68130493D01*
X94159507Y-67698690D01*
X93595330Y-67465000D01*
X92984670Y-67465000D01*
X92420493Y-67698690D01*
X92251275Y-67867908D01*
X92248157Y-67852235D01*
X92107809Y-67642191D01*
X91897765Y-67501843D01*
X91650000Y-67452560D01*
X89850000Y-67452560D01*
X89602235Y-67501843D01*
X89392191Y-67642191D01*
X89251843Y-67852235D01*
X89202560Y-68100000D01*
X76185000Y-68100000D01*
X76185000Y-67185000D01*
X113815001Y-67185000D01*
X113815000Y-150815000D01*
X113815000Y-150815000D01*
G37*
X113815000Y-150815000D02*
X76185000Y-150815000D01*
X76185000Y-147164833D01*
X82315000Y-147164833D01*
X82315000Y-147835167D01*
X82571526Y-148454476D01*
X83045524Y-148928474D01*
X83664833Y-149185000D01*
X84335167Y-149185000D01*
X84954476Y-148928474D01*
X85428474Y-148454476D01*
X85685000Y-147835167D01*
X85685000Y-147164833D01*
X104315000Y-147164833D01*
X104315000Y-147835167D01*
X104571526Y-148454476D01*
X105045524Y-148928474D01*
X105664833Y-149185000D01*
X106335167Y-149185000D01*
X106954476Y-148928474D01*
X107428474Y-148454476D01*
X107685000Y-147835167D01*
X107685000Y-147164833D01*
X107428474Y-146545524D01*
X106954476Y-146071526D01*
X106335167Y-145815000D01*
X105664833Y-145815000D01*
X105045524Y-146071526D01*
X104571526Y-146545524D01*
X104315000Y-147164833D01*
X85685000Y-147164833D01*
X85428474Y-146545524D01*
X84954476Y-146071526D01*
X84335167Y-145815000D01*
X83664833Y-145815000D01*
X83045524Y-146071526D01*
X82571526Y-146545524D01*
X82315000Y-147164833D01*
X76185000Y-147164833D01*
X76185000Y-141950000D01*
X76802560Y-141950000D01*
X76802560Y-144050000D01*
X76851843Y-144297765D01*
X76992191Y-144507809D01*
X77202235Y-144648157D01*
X77450000Y-144697440D01*
X79550000Y-144697440D01*
X79797765Y-144648157D01*
X80007809Y-144507809D01*
X80148157Y-144297765D01*
X80197440Y-144050000D01*
X80197440Y-142664833D01*
X87815000Y-142664833D01*
X87815000Y-143335167D01*
X88071526Y-143954476D01*
X88545524Y-144428474D01*
X89164833Y-144685000D01*
X89835167Y-144685000D01*
X90454476Y-144428474D01*
X90928474Y-143954476D01*
X91185000Y-143335167D01*
X91185000Y-142664833D01*
X90928474Y-142045524D01*
X90832950Y-141950000D01*
X98802560Y-141950000D01*
X98802560Y-144050000D01*
X98851843Y-144297765D01*
X98992191Y-144507809D01*
X99202235Y-144648157D01*
X99450000Y-144697440D01*
X101550000Y-144697440D01*
X101797765Y-144648157D01*
X102007809Y-144507809D01*
X102148157Y-144297765D01*
X102197440Y-144050000D01*
X102197440Y-142664833D01*
X109815000Y-142664833D01*
X109815000Y-143335167D01*
X110071526Y-143954476D01*
X110545524Y-144428474D01*
X111164833Y-144685000D01*
X111835167Y-144685000D01*
X112454476Y-144428474D01*
X112928474Y-143954476D01*
X113185000Y-143335167D01*
X113185000Y-142664833D01*
X112928474Y-142045524D01*
X112454476Y-141571526D01*
X111835167Y-141315000D01*
X111164833Y-141315000D01*
X110545524Y-141571526D01*
X110071526Y-142045524D01*
X109815000Y-142664833D01*
X102197440Y-142664833D01*
X102197440Y-141950000D01*
X102148157Y-141702235D01*
X102007809Y-141492191D01*
X101797765Y-141351843D01*
X101550000Y-141302560D01*
X99450000Y-141302560D01*
X99202235Y-141351843D01*
X98992191Y-141492191D01*
X98851843Y-141702235D01*
X98802560Y-141950000D01*
X90832950Y-141950000D01*
X90454476Y-141571526D01*
X89835167Y-141315000D01*
X89164833Y-141315000D01*
X88545524Y-141571526D01*
X88071526Y-142045524D01*
X87815000Y-142664833D01*
X80197440Y-142664833D01*
X80197440Y-141950000D01*
X80148157Y-141702235D01*
X80007809Y-141492191D01*
X79797765Y-141351843D01*
X79550000Y-141302560D01*
X77450000Y-141302560D01*
X77202235Y-141351843D01*
X76992191Y-141492191D01*
X76851843Y-141702235D01*
X76802560Y-141950000D01*
X76185000Y-141950000D01*
X76185000Y-138774833D01*
X78425000Y-138774833D01*
X78425000Y-139445167D01*
X78681526Y-140064476D01*
X79155524Y-140538474D01*
X79774833Y-140795000D01*
X80445167Y-140795000D01*
X81064476Y-140538474D01*
X81538474Y-140064476D01*
X81795000Y-139445167D01*
X81795000Y-138774833D01*
X81538474Y-138155524D01*
X81064476Y-137681526D01*
X80445167Y-137425000D01*
X79774833Y-137425000D01*
X79155524Y-137681526D01*
X78681526Y-138155524D01*
X78425000Y-138774833D01*
X76185000Y-138774833D01*
X76185000Y-137164833D01*
X82315000Y-137164833D01*
X82315000Y-137835167D01*
X82571526Y-138454476D01*
X83045524Y-138928474D01*
X83664833Y-139185000D01*
X84335167Y-139185000D01*
X84954476Y-138928474D01*
X85108117Y-138774833D01*
X86205000Y-138774833D01*
X86205000Y-139445167D01*
X86461526Y-140064476D01*
X86935524Y-140538474D01*
X87554833Y-140795000D01*
X88225167Y-140795000D01*
X88844476Y-140538474D01*
X89318474Y-140064476D01*
X89575000Y-139445167D01*
X89575000Y-138774833D01*
X100425000Y-138774833D01*
X100425000Y-139445167D01*
X100681526Y-140064476D01*
X101155524Y-140538474D01*
X101774833Y-140795000D01*
X102445167Y-140795000D01*
X103064476Y-140538474D01*
X103538474Y-140064476D01*
X103795000Y-139445167D01*
X103795000Y-138774833D01*
X103759324Y-138688703D01*
X104990902Y-138688703D01*
X105095687Y-138960745D01*
X105723526Y-139195619D01*
X106393456Y-139172349D01*
X106904313Y-138960745D01*
X106975922Y-138774833D01*
X108205000Y-138774833D01*
X108205000Y-139445167D01*
X108461526Y-140064476D01*
X108935524Y-140538474D01*
X109554833Y-140795000D01*
X110225167Y-140795000D01*
X110844476Y-140538474D01*
X111318474Y-140064476D01*
X111575000Y-139445167D01*
X111575000Y-138774833D01*
X111318474Y-138155524D01*
X110844476Y-137681526D01*
X110225167Y-137425000D01*
X109554833Y-137425000D01*
X108935524Y-137681526D01*
X108461526Y-138155524D01*
X108205000Y-138774833D01*
X106975922Y-138774833D01*
X107009098Y-138688703D01*
X106000000Y-137679605D01*
X104990902Y-138688703D01*
X103759324Y-138688703D01*
X103538474Y-138155524D01*
X103064476Y-137681526D01*
X102445167Y-137425000D01*
X101774833Y-137425000D01*
X101155524Y-137681526D01*
X100681526Y-138155524D01*
X100425000Y-138774833D01*
X89575000Y-138774833D01*
X89318474Y-138155524D01*
X88844476Y-137681526D01*
X88225167Y-137425000D01*
X87554833Y-137425000D01*
X86935524Y-137681526D01*
X86461526Y-138155524D01*
X86205000Y-138774833D01*
X85108117Y-138774833D01*
X85428474Y-138454476D01*
X85685000Y-137835167D01*
X85685000Y-137223526D01*
X104304381Y-137223526D01*
X104327651Y-137893456D01*
X104539255Y-138404313D01*
X104811297Y-138509098D01*
X105820395Y-137500000D01*
X106179605Y-137500000D01*
X107188703Y-138509098D01*
X107460745Y-138404313D01*
X107695619Y-137776474D01*
X107672349Y-137106544D01*
X107460745Y-136595687D01*
X107188703Y-136490902D01*
X106179605Y-137500000D01*
X105820395Y-137500000D01*
X104811297Y-136490902D01*
X104539255Y-136595687D01*
X104304381Y-137223526D01*
X85685000Y-137223526D01*
X85685000Y-137164833D01*
X85428474Y-136545524D01*
X84954476Y-136071526D01*
X84335167Y-135815000D01*
X83664833Y-135815000D01*
X83045524Y-136071526D01*
X82571526Y-136545524D01*
X82315000Y-137164833D01*
X76185000Y-137164833D01*
X76185000Y-131555431D01*
X81765000Y-131555431D01*
X81765000Y-132444569D01*
X82105259Y-133266026D01*
X82733974Y-133894741D01*
X83555431Y-134235000D01*
X84444569Y-134235000D01*
X84770487Y-134100000D01*
X89202560Y-134100000D01*
X89202560Y-135900000D01*
X89251843Y-136147765D01*
X89392191Y-136357809D01*
X89602235Y-136498157D01*
X89850000Y-136547440D01*
X91650000Y-136547440D01*
X91897765Y-136498157D01*
X92107809Y-136357809D01*
X92248157Y-136147765D01*
X92251275Y-136132092D01*
X92420493Y-136301310D01*
X92984670Y-136535000D01*
X93595330Y-136535000D01*
X94159507Y-136301310D01*
X94591310Y-135869507D01*
X94825000Y-135305330D01*
X94825000Y-134694670D01*
X94591310Y-134130493D01*
X94159507Y-133698690D01*
X93595330Y-133465000D01*
X92984670Y-133465000D01*
X92420493Y-133698690D01*
X92251275Y-133867908D01*
X92248157Y-133852235D01*
X92107809Y-133642191D01*
X91897765Y-133501843D01*
X91650000Y-133452560D01*
X89850000Y-133452560D01*
X89602235Y-133501843D01*
X89392191Y-133642191D01*
X89251843Y-133852235D01*
X89202560Y-134100000D01*
X84770487Y-134100000D01*
X85266026Y-133894741D01*
X85894741Y-133266026D01*
X86235000Y-132444569D01*
X86235000Y-131555431D01*
X85894741Y-130733974D01*
X85266026Y-130105259D01*
X84444569Y-129765000D01*
X83555431Y-129765000D01*
X82733974Y-130105259D01*
X82105259Y-130733974D01*
X81765000Y-131555431D01*
X76185000Y-131555431D01*
X76185000Y-128856892D01*
X84778514Y-128856892D01*
X85024817Y-129381358D01*
X85453076Y-129771645D01*
X85863110Y-129941476D01*
X86093000Y-129820155D01*
X86093000Y-128627000D01*
X84899181Y-128627000D01*
X84778514Y-128856892D01*
X76185000Y-128856892D01*
X76185000Y-128143108D01*
X84778514Y-128143108D01*
X84899181Y-128373000D01*
X86093000Y-128373000D01*
X86093000Y-127179845D01*
X86347000Y-127179845D01*
X86347000Y-128373000D01*
X86367000Y-128373000D01*
X86367000Y-128627000D01*
X86347000Y-128627000D01*
X86347000Y-129820155D01*
X86576890Y-129941476D01*
X86986924Y-129771645D01*
X87415183Y-129381358D01*
X87476157Y-129251522D01*
X87689375Y-129570625D01*
X88180582Y-129898839D01*
X88613744Y-129985000D01*
X88906256Y-129985000D01*
X89339418Y-129898839D01*
X89830625Y-129570625D01*
X90030000Y-129272239D01*
X90229375Y-129570625D01*
X90720582Y-129898839D01*
X91153744Y-129985000D01*
X91446256Y-129985000D01*
X91666407Y-129941209D01*
X91884674Y-130159477D01*
X91927072Y-130222930D01*
X91990525Y-130265328D01*
X91990527Y-130265330D01*
X92115903Y-130349103D01*
X92178464Y-130390905D01*
X92400149Y-130435001D01*
X92400153Y-130435001D01*
X92475000Y-130449889D01*
X92549847Y-130435001D01*
X94760200Y-130435001D01*
X97937269Y-133612071D01*
X97892191Y-133642191D01*
X97751843Y-133852235D01*
X97748725Y-133867908D01*
X97579507Y-133698690D01*
X97015330Y-133465000D01*
X96404670Y-133465000D01*
X95840493Y-133698690D01*
X95408690Y-134130493D01*
X95175000Y-134694670D01*
X95175000Y-135305330D01*
X95408690Y-135869507D01*
X95840493Y-136301310D01*
X96404670Y-136535000D01*
X97015330Y-136535000D01*
X97579507Y-136301310D01*
X97748725Y-136132092D01*
X97751843Y-136147765D01*
X97892191Y-136357809D01*
X98102235Y-136498157D01*
X98350000Y-136547440D01*
X100150000Y-136547440D01*
X100397765Y-136498157D01*
X100607809Y-136357809D01*
X100638887Y-136311297D01*
X104990902Y-136311297D01*
X106000000Y-137320395D01*
X107009098Y-136311297D01*
X106904313Y-136039255D01*
X106276474Y-135804381D01*
X105606544Y-135827651D01*
X105095687Y-136039255D01*
X104990902Y-136311297D01*
X100638887Y-136311297D01*
X100748157Y-136147765D01*
X100797440Y-135900000D01*
X100797440Y-134100000D01*
X100748157Y-133852235D01*
X100607809Y-133642191D01*
X100397765Y-133501843D01*
X100150000Y-133452560D01*
X99898483Y-133452560D01*
X99797929Y-133302071D01*
X99734473Y-133259671D01*
X98030233Y-131555431D01*
X103765000Y-131555431D01*
X103765000Y-132444569D01*
X104105259Y-133266026D01*
X104733974Y-133894741D01*
X105555431Y-134235000D01*
X106444569Y-134235000D01*
X107266026Y-133894741D01*
X107894741Y-133266026D01*
X108235000Y-132444569D01*
X108235000Y-131555431D01*
X107894741Y-130733974D01*
X107266026Y-130105259D01*
X106444569Y-129765000D01*
X105555431Y-129765000D01*
X104733974Y-130105259D01*
X104105259Y-130733974D01*
X103765000Y-131555431D01*
X98030233Y-131555431D01*
X96459801Y-129985000D01*
X96526256Y-129985000D01*
X96959418Y-129898839D01*
X97450625Y-129570625D01*
X97650000Y-129272239D01*
X97849375Y-129570625D01*
X98340582Y-129898839D01*
X98773744Y-129985000D01*
X99066256Y-129985000D01*
X99499418Y-129898839D01*
X99990625Y-129570625D01*
X100190000Y-129272239D01*
X100389375Y-129570625D01*
X100880582Y-129898839D01*
X101313744Y-129985000D01*
X101606256Y-129985000D01*
X102039418Y-129898839D01*
X102530625Y-129570625D01*
X102542816Y-129552381D01*
X102551843Y-129597765D01*
X102692191Y-129807809D01*
X102902235Y-129948157D01*
X103150000Y-129997440D01*
X104850000Y-129997440D01*
X105097765Y-129948157D01*
X105307809Y-129807809D01*
X105448157Y-129597765D01*
X105497440Y-129350000D01*
X105497440Y-127650000D01*
X105448157Y-127402235D01*
X105307809Y-127192191D01*
X105097765Y-127051843D01*
X104850000Y-127002560D01*
X103150000Y-127002560D01*
X102902235Y-127051843D01*
X102692191Y-127192191D01*
X102551843Y-127402235D01*
X102542816Y-127447619D01*
X102530625Y-127429375D01*
X102039418Y-127101161D01*
X101606256Y-127015000D01*
X101313744Y-127015000D01*
X100880582Y-127101161D01*
X100389375Y-127429375D01*
X100190000Y-127727761D01*
X99990625Y-127429375D01*
X99499418Y-127101161D01*
X99066256Y-127015000D01*
X98773744Y-127015000D01*
X98340582Y-127101161D01*
X97849375Y-127429375D01*
X97650000Y-127727761D01*
X97450625Y-127429375D01*
X96959418Y-127101161D01*
X96526256Y-127015000D01*
X96233744Y-127015000D01*
X96187710Y-127024157D01*
X96187710Y-126994138D01*
X96030141Y-126613732D01*
X95912710Y-126496301D01*
X95912710Y-125477556D01*
X95927598Y-125402709D01*
X95912710Y-125327862D01*
X95912710Y-125327858D01*
X95880283Y-125164833D01*
X104315000Y-125164833D01*
X104315000Y-125835167D01*
X104571526Y-126454476D01*
X105045524Y-126928474D01*
X105664833Y-127185000D01*
X106335167Y-127185000D01*
X106954476Y-126928474D01*
X107428474Y-126454476D01*
X107685000Y-125835167D01*
X107685000Y-125164833D01*
X107428474Y-124545524D01*
X106954476Y-124071526D01*
X106335167Y-123815000D01*
X105664833Y-123815000D01*
X105045524Y-124071526D01*
X104571526Y-124545524D01*
X104315000Y-125164833D01*
X95880283Y-125164833D01*
X95868614Y-125106173D01*
X95700639Y-124854781D01*
X95637182Y-124812380D01*
X95535000Y-124710199D01*
X95535000Y-124544126D01*
X95377431Y-124163720D01*
X95086280Y-123872569D01*
X94705874Y-123715000D01*
X94294126Y-123715000D01*
X93913720Y-123872569D01*
X93875000Y-123911289D01*
X93586280Y-123622569D01*
X93205874Y-123465000D01*
X92794126Y-123465000D01*
X92413720Y-123622569D01*
X92122569Y-123913720D01*
X91965000Y-124294126D01*
X91965000Y-124705874D01*
X92086831Y-125000000D01*
X91965000Y-125294126D01*
X91965000Y-125705874D01*
X92112713Y-126062485D01*
X91160199Y-127015000D01*
X91153744Y-127015000D01*
X90720582Y-127101161D01*
X90229375Y-127429375D01*
X90030000Y-127727761D01*
X89830625Y-127429375D01*
X89339418Y-127101161D01*
X88906256Y-127015000D01*
X88613744Y-127015000D01*
X88180582Y-127101161D01*
X87689375Y-127429375D01*
X87476157Y-127748478D01*
X87415183Y-127618642D01*
X86986924Y-127228355D01*
X86576890Y-127058524D01*
X86347000Y-127179845D01*
X86093000Y-127179845D01*
X85863110Y-127058524D01*
X85453076Y-127228355D01*
X85024817Y-127618642D01*
X84778514Y-128143108D01*
X76185000Y-128143108D01*
X76185000Y-125164833D01*
X82315000Y-125164833D01*
X82315000Y-125835167D01*
X82571526Y-126454476D01*
X83045524Y-126928474D01*
X83664833Y-127185000D01*
X84335167Y-127185000D01*
X84954476Y-126928474D01*
X85428474Y-126454476D01*
X85685000Y-125835167D01*
X85685000Y-125164833D01*
X85428474Y-124545524D01*
X84954476Y-124071526D01*
X84335167Y-123815000D01*
X83664833Y-123815000D01*
X83045524Y-124071526D01*
X82571526Y-124545524D01*
X82315000Y-125164833D01*
X76185000Y-125164833D01*
X76185000Y-119950000D01*
X76802560Y-119950000D01*
X76802560Y-122050000D01*
X76851843Y-122297765D01*
X76992191Y-122507809D01*
X77202235Y-122648157D01*
X77450000Y-122697440D01*
X79550000Y-122697440D01*
X79797765Y-122648157D01*
X80007809Y-122507809D01*
X80148157Y-122297765D01*
X80197440Y-122050000D01*
X80197440Y-120664833D01*
X87815000Y-120664833D01*
X87815000Y-121335167D01*
X88071526Y-121954476D01*
X88545524Y-122428474D01*
X89164833Y-122685000D01*
X89835167Y-122685000D01*
X90454476Y-122428474D01*
X90928474Y-121954476D01*
X91185000Y-121335167D01*
X91185000Y-120664833D01*
X90928474Y-120045524D01*
X90832950Y-119950000D01*
X98802560Y-119950000D01*
X98802560Y-122050000D01*
X98851843Y-122297765D01*
X98992191Y-122507809D01*
X99202235Y-122648157D01*
X99450000Y-122697440D01*
X101550000Y-122697440D01*
X101797765Y-122648157D01*
X102007809Y-122507809D01*
X102148157Y-122297765D01*
X102197440Y-122050000D01*
X102197440Y-120664833D01*
X109815000Y-120664833D01*
X109815000Y-121335167D01*
X110071526Y-121954476D01*
X110545524Y-122428474D01*
X111164833Y-122685000D01*
X111835167Y-122685000D01*
X112454476Y-122428474D01*
X112928474Y-121954476D01*
X113185000Y-121335167D01*
X113185000Y-120664833D01*
X112928474Y-120045524D01*
X112454476Y-119571526D01*
X111835167Y-119315000D01*
X111164833Y-119315000D01*
X110545524Y-119571526D01*
X110071526Y-120045524D01*
X109815000Y-120664833D01*
X102197440Y-120664833D01*
X102197440Y-119950000D01*
X102148157Y-119702235D01*
X102007809Y-119492191D01*
X101797765Y-119351843D01*
X101550000Y-119302560D01*
X99450000Y-119302560D01*
X99202235Y-119351843D01*
X98992191Y-119492191D01*
X98851843Y-119702235D01*
X98802560Y-119950000D01*
X90832950Y-119950000D01*
X90454476Y-119571526D01*
X89835167Y-119315000D01*
X89164833Y-119315000D01*
X88545524Y-119571526D01*
X88071526Y-120045524D01*
X87815000Y-120664833D01*
X80197440Y-120664833D01*
X80197440Y-119950000D01*
X80148157Y-119702235D01*
X80007809Y-119492191D01*
X79797765Y-119351843D01*
X79550000Y-119302560D01*
X77450000Y-119302560D01*
X77202235Y-119351843D01*
X76992191Y-119492191D01*
X76851843Y-119702235D01*
X76802560Y-119950000D01*
X76185000Y-119950000D01*
X76185000Y-116774833D01*
X78425000Y-116774833D01*
X78425000Y-117445167D01*
X78681526Y-118064476D01*
X79155524Y-118538474D01*
X79774833Y-118795000D01*
X80445167Y-118795000D01*
X81064476Y-118538474D01*
X81538474Y-118064476D01*
X81795000Y-117445167D01*
X81795000Y-116774833D01*
X81538474Y-116155524D01*
X81064476Y-115681526D01*
X80445167Y-115425000D01*
X79774833Y-115425000D01*
X79155524Y-115681526D01*
X78681526Y-116155524D01*
X78425000Y-116774833D01*
X76185000Y-116774833D01*
X76185000Y-115164833D01*
X82315000Y-115164833D01*
X82315000Y-115835167D01*
X82571526Y-116454476D01*
X83045524Y-116928474D01*
X83664833Y-117185000D01*
X84335167Y-117185000D01*
X84954476Y-116928474D01*
X85108117Y-116774833D01*
X86205000Y-116774833D01*
X86205000Y-117445167D01*
X86461526Y-118064476D01*
X86935524Y-118538474D01*
X87554833Y-118795000D01*
X88225167Y-118795000D01*
X88844476Y-118538474D01*
X89318474Y-118064476D01*
X89575000Y-117445167D01*
X89575000Y-116774833D01*
X100425000Y-116774833D01*
X100425000Y-117445167D01*
X100681526Y-118064476D01*
X101155524Y-118538474D01*
X101774833Y-118795000D01*
X102445167Y-118795000D01*
X103064476Y-118538474D01*
X103538474Y-118064476D01*
X103795000Y-117445167D01*
X103795000Y-116774833D01*
X103759324Y-116688703D01*
X104990902Y-116688703D01*
X105095687Y-116960745D01*
X105723526Y-117195619D01*
X106393456Y-117172349D01*
X106904313Y-116960745D01*
X106975922Y-116774833D01*
X108205000Y-116774833D01*
X108205000Y-117445167D01*
X108461526Y-118064476D01*
X108935524Y-118538474D01*
X109554833Y-118795000D01*
X110225167Y-118795000D01*
X110844476Y-118538474D01*
X111318474Y-118064476D01*
X111575000Y-117445167D01*
X111575000Y-116774833D01*
X111318474Y-116155524D01*
X110844476Y-115681526D01*
X110225167Y-115425000D01*
X109554833Y-115425000D01*
X108935524Y-115681526D01*
X108461526Y-116155524D01*
X108205000Y-116774833D01*
X106975922Y-116774833D01*
X107009098Y-116688703D01*
X106000000Y-115679605D01*
X104990902Y-116688703D01*
X103759324Y-116688703D01*
X103538474Y-116155524D01*
X103064476Y-115681526D01*
X102445167Y-115425000D01*
X101774833Y-115425000D01*
X101155524Y-115681526D01*
X100681526Y-116155524D01*
X100425000Y-116774833D01*
X89575000Y-116774833D01*
X89318474Y-116155524D01*
X88844476Y-115681526D01*
X88225167Y-115425000D01*
X87554833Y-115425000D01*
X86935524Y-115681526D01*
X86461526Y-116155524D01*
X86205000Y-116774833D01*
X85108117Y-116774833D01*
X85428474Y-116454476D01*
X85685000Y-115835167D01*
X85685000Y-115223526D01*
X104304381Y-115223526D01*
X104327651Y-115893456D01*
X104539255Y-116404313D01*
X104811297Y-116509098D01*
X105820395Y-115500000D01*
X106179605Y-115500000D01*
X107188703Y-116509098D01*
X107460745Y-116404313D01*
X107695619Y-115776474D01*
X107672349Y-115106544D01*
X107460745Y-114595687D01*
X107188703Y-114490902D01*
X106179605Y-115500000D01*
X105820395Y-115500000D01*
X104811297Y-114490902D01*
X104539255Y-114595687D01*
X104304381Y-115223526D01*
X85685000Y-115223526D01*
X85685000Y-115164833D01*
X85428474Y-114545524D01*
X84954476Y-114071526D01*
X84335167Y-113815000D01*
X83664833Y-113815000D01*
X83045524Y-114071526D01*
X82571526Y-114545524D01*
X82315000Y-115164833D01*
X76185000Y-115164833D01*
X76185000Y-103164833D01*
X82315000Y-103164833D01*
X82315000Y-103835167D01*
X82571526Y-104454476D01*
X83045524Y-104928474D01*
X83664833Y-105185000D01*
X84335167Y-105185000D01*
X84954476Y-104928474D01*
X85428474Y-104454476D01*
X85685000Y-103835167D01*
X85685000Y-103164833D01*
X85428474Y-102545524D01*
X84954476Y-102071526D01*
X84335167Y-101815000D01*
X83664833Y-101815000D01*
X83045524Y-102071526D01*
X82571526Y-102545524D01*
X82315000Y-103164833D01*
X76185000Y-103164833D01*
X76185000Y-97950000D01*
X76802560Y-97950000D01*
X76802560Y-100050000D01*
X76851843Y-100297765D01*
X76992191Y-100507809D01*
X77202235Y-100648157D01*
X77450000Y-100697440D01*
X79550000Y-100697440D01*
X79797765Y-100648157D01*
X80007809Y-100507809D01*
X80148157Y-100297765D01*
X80197440Y-100050000D01*
X80197440Y-98664833D01*
X87815000Y-98664833D01*
X87815000Y-99335167D01*
X88071526Y-99954476D01*
X88545524Y-100428474D01*
X89164833Y-100685000D01*
X89835167Y-100685000D01*
X90454476Y-100428474D01*
X90928474Y-99954476D01*
X91185000Y-99335167D01*
X91185000Y-98664833D01*
X90928474Y-98045524D01*
X90454476Y-97571526D01*
X89835167Y-97315000D01*
X89164833Y-97315000D01*
X88545524Y-97571526D01*
X88071526Y-98045524D01*
X87815000Y-98664833D01*
X80197440Y-98664833D01*
X80197440Y-97950000D01*
X80148157Y-97702235D01*
X80007809Y-97492191D01*
X79797765Y-97351843D01*
X79550000Y-97302560D01*
X77450000Y-97302560D01*
X77202235Y-97351843D01*
X76992191Y-97492191D01*
X76851843Y-97702235D01*
X76802560Y-97950000D01*
X76185000Y-97950000D01*
X76185000Y-94774833D01*
X78425000Y-94774833D01*
X78425000Y-95445167D01*
X78681526Y-96064476D01*
X79155524Y-96538474D01*
X79774833Y-96795000D01*
X80445167Y-96795000D01*
X81064476Y-96538474D01*
X81538474Y-96064476D01*
X81795000Y-95445167D01*
X81795000Y-94774833D01*
X81538474Y-94155524D01*
X81064476Y-93681526D01*
X80445167Y-93425000D01*
X79774833Y-93425000D01*
X79155524Y-93681526D01*
X78681526Y-94155524D01*
X78425000Y-94774833D01*
X76185000Y-94774833D01*
X76185000Y-93164833D01*
X82315000Y-93164833D01*
X82315000Y-93835167D01*
X82571526Y-94454476D01*
X83045524Y-94928474D01*
X83664833Y-95185000D01*
X84335167Y-95185000D01*
X84954476Y-94928474D01*
X85108117Y-94774833D01*
X86205000Y-94774833D01*
X86205000Y-95445167D01*
X86461526Y-96064476D01*
X86935524Y-96538474D01*
X87554833Y-96795000D01*
X88225167Y-96795000D01*
X88844476Y-96538474D01*
X89318474Y-96064476D01*
X89575000Y-95445167D01*
X89575000Y-94774833D01*
X89318474Y-94155524D01*
X88844476Y-93681526D01*
X88225167Y-93425000D01*
X87554833Y-93425000D01*
X86935524Y-93681526D01*
X86461526Y-94155524D01*
X86205000Y-94774833D01*
X85108117Y-94774833D01*
X85428474Y-94454476D01*
X85685000Y-93835167D01*
X85685000Y-93164833D01*
X85428474Y-92545524D01*
X84954476Y-92071526D01*
X84335167Y-91815000D01*
X83664833Y-91815000D01*
X83045524Y-92071526D01*
X82571526Y-92545524D01*
X82315000Y-93164833D01*
X76185000Y-93164833D01*
X76185000Y-87555431D01*
X81765000Y-87555431D01*
X81765000Y-88444569D01*
X82105259Y-89266026D01*
X82733974Y-89894741D01*
X83555431Y-90235000D01*
X84444569Y-90235000D01*
X84770487Y-90100000D01*
X89202560Y-90100000D01*
X89202560Y-91900000D01*
X89251843Y-92147765D01*
X89392191Y-92357809D01*
X89602235Y-92498157D01*
X89850000Y-92547440D01*
X91650000Y-92547440D01*
X91897765Y-92498157D01*
X92107809Y-92357809D01*
X92248157Y-92147765D01*
X92251275Y-92132092D01*
X92420493Y-92301310D01*
X92984670Y-92535000D01*
X93595330Y-92535000D01*
X94159507Y-92301310D01*
X94591310Y-91869507D01*
X94636669Y-91760000D01*
X95363331Y-91760000D01*
X95408690Y-91869507D01*
X95840493Y-92301310D01*
X96404670Y-92535000D01*
X97015330Y-92535000D01*
X97579507Y-92301310D01*
X97748725Y-92132092D01*
X97751843Y-92147765D01*
X97892191Y-92357809D01*
X98102235Y-92498157D01*
X98350000Y-92547440D01*
X98377758Y-92547440D01*
X95960199Y-94965000D01*
X95794126Y-94965000D01*
X95413720Y-95122569D01*
X95122569Y-95413720D01*
X94965000Y-95794126D01*
X94965000Y-96205874D01*
X95122569Y-96586280D01*
X95413720Y-96877431D01*
X95794126Y-97035000D01*
X96205874Y-97035000D01*
X96586280Y-96877431D01*
X96877431Y-96586280D01*
X97035000Y-96205874D01*
X97035000Y-96039801D01*
X97965000Y-95109801D01*
X97965000Y-95205874D01*
X98122569Y-95586280D01*
X98240001Y-95703712D01*
X98240000Y-111474440D01*
X98102235Y-111501843D01*
X97892191Y-111642191D01*
X97751843Y-111852235D01*
X97748725Y-111867908D01*
X97579507Y-111698690D01*
X97015330Y-111465000D01*
X96404670Y-111465000D01*
X95840493Y-111698690D01*
X95408690Y-112130493D01*
X95363331Y-112240000D01*
X94636669Y-112240000D01*
X94591310Y-112130493D01*
X94159507Y-111698690D01*
X93878997Y-111582499D01*
X94035000Y-111205874D01*
X94035000Y-110794126D01*
X93877431Y-110413720D01*
X93586280Y-110122569D01*
X93205874Y-109965000D01*
X92794126Y-109965000D01*
X92413720Y-110122569D01*
X92122569Y-110413720D01*
X91965000Y-110794126D01*
X91965000Y-110960198D01*
X91472638Y-111452560D01*
X89850000Y-111452560D01*
X89602235Y-111501843D01*
X89392191Y-111642191D01*
X89251843Y-111852235D01*
X89202560Y-112100000D01*
X89202560Y-113900000D01*
X89251843Y-114147765D01*
X89392191Y-114357809D01*
X89602235Y-114498157D01*
X89850000Y-114547440D01*
X91650000Y-114547440D01*
X91897765Y-114498157D01*
X92107809Y-114357809D01*
X92248157Y-114147765D01*
X92251275Y-114132092D01*
X92420493Y-114301310D01*
X92984670Y-114535000D01*
X93595330Y-114535000D01*
X94159507Y-114301310D01*
X94591310Y-113869507D01*
X94636669Y-113760000D01*
X95363331Y-113760000D01*
X95408690Y-113869507D01*
X95840493Y-114301310D01*
X96404670Y-114535000D01*
X97015330Y-114535000D01*
X97579507Y-114301310D01*
X97748725Y-114132092D01*
X97751843Y-114147765D01*
X97892191Y-114357809D01*
X98102235Y-114498157D01*
X98350000Y-114547440D01*
X100150000Y-114547440D01*
X100397765Y-114498157D01*
X100607809Y-114357809D01*
X100638887Y-114311297D01*
X104990902Y-114311297D01*
X106000000Y-115320395D01*
X107009098Y-114311297D01*
X106904313Y-114039255D01*
X106276474Y-113804381D01*
X105606544Y-113827651D01*
X105095687Y-114039255D01*
X104990902Y-114311297D01*
X100638887Y-114311297D01*
X100748157Y-114147765D01*
X100797440Y-113900000D01*
X100797440Y-112100000D01*
X100748157Y-111852235D01*
X100607809Y-111642191D01*
X100397765Y-111501843D01*
X100150000Y-111452560D01*
X99898483Y-111452560D01*
X99797929Y-111302071D01*
X99760000Y-111276728D01*
X99760000Y-103164833D01*
X104315000Y-103164833D01*
X104315000Y-103835167D01*
X104571526Y-104454476D01*
X105045524Y-104928474D01*
X105664833Y-105185000D01*
X106335167Y-105185000D01*
X106954476Y-104928474D01*
X107428474Y-104454476D01*
X107685000Y-103835167D01*
X107685000Y-103164833D01*
X107428474Y-102545524D01*
X106954476Y-102071526D01*
X106335167Y-101815000D01*
X105664833Y-101815000D01*
X105045524Y-102071526D01*
X104571526Y-102545524D01*
X104315000Y-103164833D01*
X99760000Y-103164833D01*
X99760000Y-100697440D01*
X101550000Y-100697440D01*
X101797765Y-100648157D01*
X102007809Y-100507809D01*
X102148157Y-100297765D01*
X102197440Y-100050000D01*
X102197440Y-98664833D01*
X109815000Y-98664833D01*
X109815000Y-99335167D01*
X110071526Y-99954476D01*
X110545524Y-100428474D01*
X111164833Y-100685000D01*
X111835167Y-100685000D01*
X112454476Y-100428474D01*
X112928474Y-99954476D01*
X113185000Y-99335167D01*
X113185000Y-98664833D01*
X112928474Y-98045524D01*
X112454476Y-97571526D01*
X111835167Y-97315000D01*
X111164833Y-97315000D01*
X110545524Y-97571526D01*
X110071526Y-98045524D01*
X109815000Y-98664833D01*
X102197440Y-98664833D01*
X102197440Y-97950000D01*
X102148157Y-97702235D01*
X102007809Y-97492191D01*
X101797765Y-97351843D01*
X101550000Y-97302560D01*
X99760000Y-97302560D01*
X99760000Y-95703711D01*
X99877431Y-95586280D01*
X100035000Y-95205874D01*
X100035000Y-94794126D01*
X99877431Y-94413720D01*
X99586280Y-94122569D01*
X99205874Y-93965000D01*
X99109802Y-93965000D01*
X99314802Y-93760000D01*
X101077050Y-93760000D01*
X100681526Y-94155524D01*
X100425000Y-94774833D01*
X100425000Y-95445167D01*
X100681526Y-96064476D01*
X101155524Y-96538474D01*
X101774833Y-96795000D01*
X102445167Y-96795000D01*
X103064476Y-96538474D01*
X103538474Y-96064476D01*
X103795000Y-95445167D01*
X103795000Y-94774833D01*
X103759324Y-94688703D01*
X104990902Y-94688703D01*
X105095687Y-94960745D01*
X105723526Y-95195619D01*
X106393456Y-95172349D01*
X106904313Y-94960745D01*
X106975922Y-94774833D01*
X108205000Y-94774833D01*
X108205000Y-95445167D01*
X108461526Y-96064476D01*
X108935524Y-96538474D01*
X109554833Y-96795000D01*
X110225167Y-96795000D01*
X110844476Y-96538474D01*
X111318474Y-96064476D01*
X111575000Y-95445167D01*
X111575000Y-94774833D01*
X111318474Y-94155524D01*
X110844476Y-93681526D01*
X110225167Y-93425000D01*
X109554833Y-93425000D01*
X108935524Y-93681526D01*
X108461526Y-94155524D01*
X108205000Y-94774833D01*
X106975922Y-94774833D01*
X107009098Y-94688703D01*
X106000000Y-93679605D01*
X104990902Y-94688703D01*
X103759324Y-94688703D01*
X103538474Y-94155524D01*
X103064476Y-93681526D01*
X102864866Y-93598845D01*
X102877431Y-93586280D01*
X103027688Y-93223526D01*
X104304381Y-93223526D01*
X104327651Y-93893456D01*
X104539255Y-94404313D01*
X104811297Y-94509098D01*
X105820395Y-93500000D01*
X106179605Y-93500000D01*
X107188703Y-94509098D01*
X107460745Y-94404313D01*
X107695619Y-93776474D01*
X107672349Y-93106544D01*
X107460745Y-92595687D01*
X107188703Y-92490902D01*
X106179605Y-93500000D01*
X105820395Y-93500000D01*
X104811297Y-92490902D01*
X104539255Y-92595687D01*
X104304381Y-93223526D01*
X103027688Y-93223526D01*
X103035000Y-93205874D01*
X103035000Y-92794126D01*
X102877431Y-92413720D01*
X102775008Y-92311297D01*
X104990902Y-92311297D01*
X106000000Y-93320395D01*
X107009098Y-92311297D01*
X106904313Y-92039255D01*
X106276474Y-91804381D01*
X105606544Y-91827651D01*
X105095687Y-92039255D01*
X104990902Y-92311297D01*
X102775008Y-92311297D01*
X102586280Y-92122569D01*
X102205874Y-91965000D01*
X101794126Y-91965000D01*
X101413720Y-92122569D01*
X101296289Y-92240000D01*
X100686527Y-92240000D01*
X100748157Y-92147765D01*
X100797440Y-91900000D01*
X100797440Y-90100000D01*
X100748157Y-89852235D01*
X100607809Y-89642191D01*
X100397765Y-89501843D01*
X100150000Y-89452560D01*
X98350000Y-89452560D01*
X98102235Y-89501843D01*
X97892191Y-89642191D01*
X97751843Y-89852235D01*
X97748725Y-89867908D01*
X97579507Y-89698690D01*
X97015330Y-89465000D01*
X96404670Y-89465000D01*
X95840493Y-89698690D01*
X95408690Y-90130493D01*
X95363331Y-90240000D01*
X94636669Y-90240000D01*
X94591310Y-90130493D01*
X94159507Y-89698690D01*
X93595330Y-89465000D01*
X92984670Y-89465000D01*
X92420493Y-89698690D01*
X92251275Y-89867908D01*
X92248157Y-89852235D01*
X92107809Y-89642191D01*
X91897765Y-89501843D01*
X91650000Y-89452560D01*
X89850000Y-89452560D01*
X89602235Y-89501843D01*
X89392191Y-89642191D01*
X89251843Y-89852235D01*
X89202560Y-90100000D01*
X84770487Y-90100000D01*
X85266026Y-89894741D01*
X85894741Y-89266026D01*
X86235000Y-88444569D01*
X86235000Y-87555431D01*
X103765000Y-87555431D01*
X103765000Y-88444569D01*
X104105259Y-89266026D01*
X104733974Y-89894741D01*
X105555431Y-90235000D01*
X106444569Y-90235000D01*
X107266026Y-89894741D01*
X107894741Y-89266026D01*
X108235000Y-88444569D01*
X108235000Y-87555431D01*
X107894741Y-86733974D01*
X107266026Y-86105259D01*
X106444569Y-85765000D01*
X105555431Y-85765000D01*
X104733974Y-86105259D01*
X104105259Y-86733974D01*
X103765000Y-87555431D01*
X86235000Y-87555431D01*
X85894741Y-86733974D01*
X85266026Y-86105259D01*
X84444569Y-85765000D01*
X83555431Y-85765000D01*
X82733974Y-86105259D01*
X82105259Y-86733974D01*
X81765000Y-87555431D01*
X76185000Y-87555431D01*
X76185000Y-84500000D01*
X84705908Y-84500000D01*
X84821161Y-85079418D01*
X85149375Y-85570625D01*
X85640582Y-85898839D01*
X86073744Y-85985000D01*
X86366256Y-85985000D01*
X86799418Y-85898839D01*
X87290625Y-85570625D01*
X87490000Y-85272239D01*
X87689375Y-85570625D01*
X88180582Y-85898839D01*
X88613744Y-85985000D01*
X88906256Y-85985000D01*
X89339418Y-85898839D01*
X89830625Y-85570625D01*
X90030000Y-85272239D01*
X90229375Y-85570625D01*
X90720582Y-85898839D01*
X91153744Y-85985000D01*
X91446256Y-85985000D01*
X91879418Y-85898839D01*
X92370625Y-85570625D01*
X92570000Y-85272239D01*
X92769375Y-85570625D01*
X93260582Y-85898839D01*
X93693744Y-85985000D01*
X93986256Y-85985000D01*
X94419418Y-85898839D01*
X94910625Y-85570625D01*
X95110000Y-85272239D01*
X95309375Y-85570625D01*
X95800582Y-85898839D01*
X96233744Y-85985000D01*
X96526256Y-85985000D01*
X96959418Y-85898839D01*
X97450625Y-85570625D01*
X97650000Y-85272239D01*
X97849375Y-85570625D01*
X98340582Y-85898839D01*
X98773744Y-85985000D01*
X99066256Y-85985000D01*
X99499418Y-85898839D01*
X99990625Y-85570625D01*
X100190000Y-85272239D01*
X100389375Y-85570625D01*
X100880582Y-85898839D01*
X101313744Y-85985000D01*
X101606256Y-85985000D01*
X102039418Y-85898839D01*
X102530625Y-85570625D01*
X102542816Y-85552381D01*
X102551843Y-85597765D01*
X102692191Y-85807809D01*
X102902235Y-85948157D01*
X103150000Y-85997440D01*
X104850000Y-85997440D01*
X105097765Y-85948157D01*
X105307809Y-85807809D01*
X105448157Y-85597765D01*
X105497440Y-85350000D01*
X105497440Y-83650000D01*
X105448157Y-83402235D01*
X105307809Y-83192191D01*
X105097765Y-83051843D01*
X104850000Y-83002560D01*
X103150000Y-83002560D01*
X102902235Y-83051843D01*
X102692191Y-83192191D01*
X102551843Y-83402235D01*
X102542816Y-83447619D01*
X102530625Y-83429375D01*
X102039418Y-83101161D01*
X101606256Y-83015000D01*
X101313744Y-83015000D01*
X100880582Y-83101161D01*
X100389375Y-83429375D01*
X100190000Y-83727761D01*
X99990625Y-83429375D01*
X99499418Y-83101161D01*
X99066256Y-83015000D01*
X98773744Y-83015000D01*
X98340582Y-83101161D01*
X97849375Y-83429375D01*
X97650000Y-83727761D01*
X97450625Y-83429375D01*
X96959418Y-83101161D01*
X96526256Y-83015000D01*
X96233744Y-83015000D01*
X95800582Y-83101161D01*
X95309375Y-83429375D01*
X95110000Y-83727761D01*
X94910625Y-83429375D01*
X94419418Y-83101161D01*
X93986256Y-83015000D01*
X93693744Y-83015000D01*
X93260582Y-83101161D01*
X92769375Y-83429375D01*
X92570000Y-83727761D01*
X92370625Y-83429375D01*
X91879418Y-83101161D01*
X91446256Y-83015000D01*
X91153744Y-83015000D01*
X90720582Y-83101161D01*
X90229375Y-83429375D01*
X90030000Y-83727761D01*
X89830625Y-83429375D01*
X89339418Y-83101161D01*
X88906256Y-83015000D01*
X88613744Y-83015000D01*
X88180582Y-83101161D01*
X87689375Y-83429375D01*
X87490000Y-83727761D01*
X87290625Y-83429375D01*
X86799418Y-83101161D01*
X86366256Y-83015000D01*
X86073744Y-83015000D01*
X85640582Y-83101161D01*
X85149375Y-83429375D01*
X84821161Y-83920582D01*
X84705908Y-84500000D01*
X76185000Y-84500000D01*
X76185000Y-81164833D01*
X82315000Y-81164833D01*
X82315000Y-81835167D01*
X82571526Y-82454476D01*
X83045524Y-82928474D01*
X83664833Y-83185000D01*
X84335167Y-83185000D01*
X84954476Y-82928474D01*
X85428474Y-82454476D01*
X85685000Y-81835167D01*
X85685000Y-81164833D01*
X104315000Y-81164833D01*
X104315000Y-81835167D01*
X104571526Y-82454476D01*
X105045524Y-82928474D01*
X105664833Y-83185000D01*
X106335167Y-83185000D01*
X106954476Y-82928474D01*
X107428474Y-82454476D01*
X107685000Y-81835167D01*
X107685000Y-81164833D01*
X107428474Y-80545524D01*
X106954476Y-80071526D01*
X106335167Y-79815000D01*
X105664833Y-79815000D01*
X105045524Y-80071526D01*
X104571526Y-80545524D01*
X104315000Y-81164833D01*
X85685000Y-81164833D01*
X85428474Y-80545524D01*
X84954476Y-80071526D01*
X84335167Y-79815000D01*
X83664833Y-79815000D01*
X83045524Y-80071526D01*
X82571526Y-80545524D01*
X82315000Y-81164833D01*
X76185000Y-81164833D01*
X76185000Y-75950000D01*
X76802560Y-75950000D01*
X76802560Y-78050000D01*
X76851843Y-78297765D01*
X76992191Y-78507809D01*
X77202235Y-78648157D01*
X77450000Y-78697440D01*
X79550000Y-78697440D01*
X79797765Y-78648157D01*
X80007809Y-78507809D01*
X80148157Y-78297765D01*
X80197440Y-78050000D01*
X80197440Y-76664833D01*
X87815000Y-76664833D01*
X87815000Y-77335167D01*
X88071526Y-77954476D01*
X88545524Y-78428474D01*
X89164833Y-78685000D01*
X89835167Y-78685000D01*
X90454476Y-78428474D01*
X90928474Y-77954476D01*
X91185000Y-77335167D01*
X91185000Y-76664833D01*
X90928474Y-76045524D01*
X90832950Y-75950000D01*
X98802560Y-75950000D01*
X98802560Y-78050000D01*
X98851843Y-78297765D01*
X98992191Y-78507809D01*
X99202235Y-78648157D01*
X99450000Y-78697440D01*
X101550000Y-78697440D01*
X101797765Y-78648157D01*
X102007809Y-78507809D01*
X102148157Y-78297765D01*
X102197440Y-78050000D01*
X102197440Y-76664833D01*
X109815000Y-76664833D01*
X109815000Y-77335167D01*
X110071526Y-77954476D01*
X110545524Y-78428474D01*
X111164833Y-78685000D01*
X111835167Y-78685000D01*
X112454476Y-78428474D01*
X112928474Y-77954476D01*
X113185000Y-77335167D01*
X113185000Y-76664833D01*
X112928474Y-76045524D01*
X112454476Y-75571526D01*
X111835167Y-75315000D01*
X111164833Y-75315000D01*
X110545524Y-75571526D01*
X110071526Y-76045524D01*
X109815000Y-76664833D01*
X102197440Y-76664833D01*
X102197440Y-75950000D01*
X102148157Y-75702235D01*
X102007809Y-75492191D01*
X101797765Y-75351843D01*
X101550000Y-75302560D01*
X99450000Y-75302560D01*
X99202235Y-75351843D01*
X98992191Y-75492191D01*
X98851843Y-75702235D01*
X98802560Y-75950000D01*
X90832950Y-75950000D01*
X90454476Y-75571526D01*
X89835167Y-75315000D01*
X89164833Y-75315000D01*
X88545524Y-75571526D01*
X88071526Y-76045524D01*
X87815000Y-76664833D01*
X80197440Y-76664833D01*
X80197440Y-75950000D01*
X80148157Y-75702235D01*
X80007809Y-75492191D01*
X79797765Y-75351843D01*
X79550000Y-75302560D01*
X77450000Y-75302560D01*
X77202235Y-75351843D01*
X76992191Y-75492191D01*
X76851843Y-75702235D01*
X76802560Y-75950000D01*
X76185000Y-75950000D01*
X76185000Y-72774833D01*
X78425000Y-72774833D01*
X78425000Y-73445167D01*
X78681526Y-74064476D01*
X79155524Y-74538474D01*
X79774833Y-74795000D01*
X80445167Y-74795000D01*
X81064476Y-74538474D01*
X81538474Y-74064476D01*
X81795000Y-73445167D01*
X81795000Y-72774833D01*
X81538474Y-72155524D01*
X81064476Y-71681526D01*
X80445167Y-71425000D01*
X79774833Y-71425000D01*
X79155524Y-71681526D01*
X78681526Y-72155524D01*
X78425000Y-72774833D01*
X76185000Y-72774833D01*
X76185000Y-71164833D01*
X82315000Y-71164833D01*
X82315000Y-71835167D01*
X82571526Y-72454476D01*
X83045524Y-72928474D01*
X83664833Y-73185000D01*
X84335167Y-73185000D01*
X84954476Y-72928474D01*
X85108117Y-72774833D01*
X86205000Y-72774833D01*
X86205000Y-73445167D01*
X86461526Y-74064476D01*
X86935524Y-74538474D01*
X87554833Y-74795000D01*
X88225167Y-74795000D01*
X88844476Y-74538474D01*
X89318474Y-74064476D01*
X89575000Y-73445167D01*
X89575000Y-72774833D01*
X100425000Y-72774833D01*
X100425000Y-73445167D01*
X100681526Y-74064476D01*
X101155524Y-74538474D01*
X101774833Y-74795000D01*
X102445167Y-74795000D01*
X103064476Y-74538474D01*
X103538474Y-74064476D01*
X103795000Y-73445167D01*
X103795000Y-72774833D01*
X103759324Y-72688703D01*
X104990902Y-72688703D01*
X105095687Y-72960745D01*
X105723526Y-73195619D01*
X106393456Y-73172349D01*
X106904313Y-72960745D01*
X106975922Y-72774833D01*
X108205000Y-72774833D01*
X108205000Y-73445167D01*
X108461526Y-74064476D01*
X108935524Y-74538474D01*
X109554833Y-74795000D01*
X110225167Y-74795000D01*
X110844476Y-74538474D01*
X111318474Y-74064476D01*
X111575000Y-73445167D01*
X111575000Y-72774833D01*
X111318474Y-72155524D01*
X110844476Y-71681526D01*
X110225167Y-71425000D01*
X109554833Y-71425000D01*
X108935524Y-71681526D01*
X108461526Y-72155524D01*
X108205000Y-72774833D01*
X106975922Y-72774833D01*
X107009098Y-72688703D01*
X106000000Y-71679605D01*
X104990902Y-72688703D01*
X103759324Y-72688703D01*
X103538474Y-72155524D01*
X103064476Y-71681526D01*
X102445167Y-71425000D01*
X101774833Y-71425000D01*
X101155524Y-71681526D01*
X100681526Y-72155524D01*
X100425000Y-72774833D01*
X89575000Y-72774833D01*
X89318474Y-72155524D01*
X88844476Y-71681526D01*
X88225167Y-71425000D01*
X87554833Y-71425000D01*
X86935524Y-71681526D01*
X86461526Y-72155524D01*
X86205000Y-72774833D01*
X85108117Y-72774833D01*
X85428474Y-72454476D01*
X85685000Y-71835167D01*
X85685000Y-71223526D01*
X104304381Y-71223526D01*
X104327651Y-71893456D01*
X104539255Y-72404313D01*
X104811297Y-72509098D01*
X105820395Y-71500000D01*
X106179605Y-71500000D01*
X107188703Y-72509098D01*
X107460745Y-72404313D01*
X107695619Y-71776474D01*
X107672349Y-71106544D01*
X107460745Y-70595687D01*
X107188703Y-70490902D01*
X106179605Y-71500000D01*
X105820395Y-71500000D01*
X104811297Y-70490902D01*
X104539255Y-70595687D01*
X104304381Y-71223526D01*
X85685000Y-71223526D01*
X85685000Y-71164833D01*
X85428474Y-70545524D01*
X84954476Y-70071526D01*
X84335167Y-69815000D01*
X83664833Y-69815000D01*
X83045524Y-70071526D01*
X82571526Y-70545524D01*
X82315000Y-71164833D01*
X76185000Y-71164833D01*
X76185000Y-68100000D01*
X89202560Y-68100000D01*
X89202560Y-69900000D01*
X89251843Y-70147765D01*
X89392191Y-70357809D01*
X89602235Y-70498157D01*
X89850000Y-70547440D01*
X91650000Y-70547440D01*
X91897765Y-70498157D01*
X92107809Y-70357809D01*
X92248157Y-70147765D01*
X92251275Y-70132092D01*
X92420493Y-70301310D01*
X92984670Y-70535000D01*
X93595330Y-70535000D01*
X94159507Y-70301310D01*
X94591310Y-69869507D01*
X94825000Y-69305330D01*
X94825000Y-68694670D01*
X95175000Y-68694670D01*
X95175000Y-69305330D01*
X95408690Y-69869507D01*
X95840493Y-70301310D01*
X96404670Y-70535000D01*
X97015330Y-70535000D01*
X97579507Y-70301310D01*
X97748725Y-70132092D01*
X97751843Y-70147765D01*
X97892191Y-70357809D01*
X98102235Y-70498157D01*
X98350000Y-70547440D01*
X100150000Y-70547440D01*
X100397765Y-70498157D01*
X100607809Y-70357809D01*
X100638887Y-70311297D01*
X104990902Y-70311297D01*
X106000000Y-71320395D01*
X107009098Y-70311297D01*
X106904313Y-70039255D01*
X106276474Y-69804381D01*
X105606544Y-69827651D01*
X105095687Y-70039255D01*
X104990902Y-70311297D01*
X100638887Y-70311297D01*
X100748157Y-70147765D01*
X100797440Y-69900000D01*
X100797440Y-68100000D01*
X100748157Y-67852235D01*
X100607809Y-67642191D01*
X100397765Y-67501843D01*
X100150000Y-67452560D01*
X98350000Y-67452560D01*
X98102235Y-67501843D01*
X97892191Y-67642191D01*
X97751843Y-67852235D01*
X97748725Y-67867908D01*
X97579507Y-67698690D01*
X97015330Y-67465000D01*
X96404670Y-67465000D01*
X95840493Y-67698690D01*
X95408690Y-68130493D01*
X95175000Y-68694670D01*
X94825000Y-68694670D01*
X94591310Y-68130493D01*
X94159507Y-67698690D01*
X93595330Y-67465000D01*
X92984670Y-67465000D01*
X92420493Y-67698690D01*
X92251275Y-67867908D01*
X92248157Y-67852235D01*
X92107809Y-67642191D01*
X91897765Y-67501843D01*
X91650000Y-67452560D01*
X89850000Y-67452560D01*
X89602235Y-67501843D01*
X89392191Y-67642191D01*
X89251843Y-67852235D01*
X89202560Y-68100000D01*
X76185000Y-68100000D01*
X76185000Y-67185000D01*
X113815001Y-67185000D01*
X113815000Y-150815000D01*
G04 #@! TD*
M02*
