G04 #@! TF.GenerationSoftware,KiCad,Pcbnew,5.0.2+dfsg1-1*
G04 #@! TF.CreationDate,2020-04-26T20:48:58+02:00*
G04 #@! TF.ProjectId,midirouter,6d696469-726f-4757-9465-722e6b696361,rev?*
G04 #@! TF.SameCoordinates,Original*
G04 #@! TF.FileFunction,Legend,Top*
G04 #@! TF.FilePolarity,Positive*
%FSLAX46Y46*%
G04 Gerber Fmt 4.6, Leading zero omitted, Abs format (unit mm)*
G04 Created by KiCad (PCBNEW 5.0.2+dfsg1-1) date Sun 26 Apr 2020 08:48:58 PM CEST*
%MOMM*%
%LPD*%
G01*
G04 APERTURE LIST*
%ADD10C,0.150000*%
%ADD11C,0.120000*%
%ADD12C,0.127000*%
%ADD13C,0.050000*%
G04 APERTURE END LIST*
D10*
X90380952Y-149452380D02*
X90380952Y-150166666D01*
X90333333Y-150309523D01*
X90238095Y-150404761D01*
X90095238Y-150452380D01*
X90000000Y-150452380D01*
X91333333Y-150452380D02*
X90857142Y-150452380D01*
X90857142Y-149452380D01*
X92238095Y-150357142D02*
X92190476Y-150404761D01*
X92047619Y-150452380D01*
X91952380Y-150452380D01*
X91809523Y-150404761D01*
X91714285Y-150309523D01*
X91666666Y-150214285D01*
X91619047Y-150023809D01*
X91619047Y-149880952D01*
X91666666Y-149690476D01*
X91714285Y-149595238D01*
X91809523Y-149500000D01*
X91952380Y-149452380D01*
X92047619Y-149452380D01*
X92190476Y-149500000D01*
X92238095Y-149547619D01*
X92952380Y-149452380D02*
X92952380Y-150166666D01*
X92904761Y-150309523D01*
X92809523Y-150404761D01*
X92666666Y-150452380D01*
X92571428Y-150452380D01*
X93904761Y-150452380D02*
X93428571Y-150452380D01*
X93428571Y-149452380D01*
X94809523Y-150357142D02*
X94761904Y-150404761D01*
X94619047Y-150452380D01*
X94523809Y-150452380D01*
X94380952Y-150404761D01*
X94285714Y-150309523D01*
X94238095Y-150214285D01*
X94190476Y-150023809D01*
X94190476Y-149880952D01*
X94238095Y-149690476D01*
X94285714Y-149595238D01*
X94380952Y-149500000D01*
X94523809Y-149452380D01*
X94619047Y-149452380D01*
X94761904Y-149500000D01*
X94809523Y-149547619D01*
X95523809Y-149452380D02*
X95523809Y-150166666D01*
X95476190Y-150309523D01*
X95380952Y-150404761D01*
X95238095Y-150452380D01*
X95142857Y-150452380D01*
X96476190Y-150452380D02*
X96000000Y-150452380D01*
X96000000Y-149452380D01*
X97380952Y-150357142D02*
X97333333Y-150404761D01*
X97190476Y-150452380D01*
X97095238Y-150452380D01*
X96952380Y-150404761D01*
X96857142Y-150309523D01*
X96809523Y-150214285D01*
X96761904Y-150023809D01*
X96761904Y-149880952D01*
X96809523Y-149690476D01*
X96857142Y-149595238D01*
X96952380Y-149500000D01*
X97095238Y-149452380D01*
X97190476Y-149452380D01*
X97333333Y-149500000D01*
X97380952Y-149547619D01*
X98095238Y-149452380D02*
X98095238Y-150166666D01*
X98047619Y-150309523D01*
X97952380Y-150404761D01*
X97809523Y-150452380D01*
X97714285Y-150452380D01*
X99047619Y-150452380D02*
X98571428Y-150452380D01*
X98571428Y-149452380D01*
X99952380Y-150357142D02*
X99904761Y-150404761D01*
X99761904Y-150452380D01*
X99666666Y-150452380D01*
X99523809Y-150404761D01*
X99428571Y-150309523D01*
X99380952Y-150214285D01*
X99333333Y-150023809D01*
X99333333Y-149880952D01*
X99380952Y-149690476D01*
X99428571Y-149595238D01*
X99523809Y-149500000D01*
X99666666Y-149452380D01*
X99761904Y-149452380D01*
X99904761Y-149500000D01*
X99952380Y-149547619D01*
D11*
G04 #@! TO.C,D12*
X99540000Y-67920000D02*
X99540000Y-67764000D01*
X99540000Y-70236000D02*
X99540000Y-70080000D01*
X96938870Y-67920163D02*
G75*
G02X99020961Y-67920000I1041130J-1079837D01*
G01*
X96938870Y-70079837D02*
G75*
G03X99020961Y-70080000I1041130J1079837D01*
G01*
X96307665Y-67921392D02*
G75*
G02X99540000Y-67764484I1672335J-1078608D01*
G01*
X96307665Y-70078608D02*
G75*
G03X99540000Y-70235516I1672335J1078608D01*
G01*
G04 #@! TO.C,D11*
X90460000Y-70080000D02*
X90460000Y-70236000D01*
X90460000Y-67764000D02*
X90460000Y-67920000D01*
X93061130Y-70079837D02*
G75*
G02X90979039Y-70080000I-1041130J1079837D01*
G01*
X93061130Y-67920163D02*
G75*
G03X90979039Y-67920000I-1041130J-1079837D01*
G01*
X93692335Y-70078608D02*
G75*
G02X90460000Y-70235516I-1672335J1078608D01*
G01*
X93692335Y-67921392D02*
G75*
G03X90460000Y-67764484I-1672335J-1078608D01*
G01*
G04 #@! TO.C,D10*
X96307665Y-92078608D02*
G75*
G03X99540000Y-92235516I1672335J1078608D01*
G01*
X96307665Y-89921392D02*
G75*
G02X99540000Y-89764484I1672335J-1078608D01*
G01*
X96938870Y-92079837D02*
G75*
G03X99020961Y-92080000I1041130J1079837D01*
G01*
X96938870Y-89920163D02*
G75*
G02X99020961Y-89920000I1041130J-1079837D01*
G01*
X99540000Y-92236000D02*
X99540000Y-92080000D01*
X99540000Y-89920000D02*
X99540000Y-89764000D01*
G04 #@! TO.C,D9*
X93692335Y-89921392D02*
G75*
G03X90460000Y-89764484I-1672335J-1078608D01*
G01*
X93692335Y-92078608D02*
G75*
G02X90460000Y-92235516I-1672335J1078608D01*
G01*
X93061130Y-89920163D02*
G75*
G03X90979039Y-89920000I-1041130J-1079837D01*
G01*
X93061130Y-92079837D02*
G75*
G02X90979039Y-92080000I-1041130J1079837D01*
G01*
X90460000Y-89764000D02*
X90460000Y-89920000D01*
X90460000Y-92080000D02*
X90460000Y-92236000D01*
G04 #@! TO.C,D8*
X99540000Y-111920000D02*
X99540000Y-111764000D01*
X99540000Y-114236000D02*
X99540000Y-114080000D01*
X96938870Y-111920163D02*
G75*
G02X99020961Y-111920000I1041130J-1079837D01*
G01*
X96938870Y-114079837D02*
G75*
G03X99020961Y-114080000I1041130J1079837D01*
G01*
X96307665Y-111921392D02*
G75*
G02X99540000Y-111764484I1672335J-1078608D01*
G01*
X96307665Y-114078608D02*
G75*
G03X99540000Y-114235516I1672335J1078608D01*
G01*
G04 #@! TO.C,D7*
X90460000Y-114080000D02*
X90460000Y-114236000D01*
X90460000Y-111764000D02*
X90460000Y-111920000D01*
X93061130Y-114079837D02*
G75*
G02X90979039Y-114080000I-1041130J1079837D01*
G01*
X93061130Y-111920163D02*
G75*
G03X90979039Y-111920000I-1041130J-1079837D01*
G01*
X93692335Y-114078608D02*
G75*
G02X90460000Y-114235516I-1672335J1078608D01*
G01*
X93692335Y-111921392D02*
G75*
G03X90460000Y-111764484I-1672335J-1078608D01*
G01*
G04 #@! TO.C,D6*
X96307665Y-136078608D02*
G75*
G03X99540000Y-136235516I1672335J1078608D01*
G01*
X96307665Y-133921392D02*
G75*
G02X99540000Y-133764484I1672335J-1078608D01*
G01*
X96938870Y-136079837D02*
G75*
G03X99020961Y-136080000I1041130J1079837D01*
G01*
X96938870Y-133920163D02*
G75*
G02X99020961Y-133920000I1041130J-1079837D01*
G01*
X99540000Y-136236000D02*
X99540000Y-136080000D01*
X99540000Y-133920000D02*
X99540000Y-133764000D01*
G04 #@! TO.C,D5*
X93692335Y-133921392D02*
G75*
G03X90460000Y-133764484I-1672335J-1078608D01*
G01*
X93692335Y-136078608D02*
G75*
G02X90460000Y-136235516I-1672335J1078608D01*
G01*
X93061130Y-133920163D02*
G75*
G03X90979039Y-133920000I-1041130J-1079837D01*
G01*
X93061130Y-136079837D02*
G75*
G02X90979039Y-136080000I-1041130J1079837D01*
G01*
X90460000Y-133764000D02*
X90460000Y-133920000D01*
X90460000Y-136080000D02*
X90460000Y-136236000D01*
D12*
G04 #@! TO.C,J9*
X114000000Y-77000000D02*
G75*
G03X114000000Y-77000000I-8000000J0D01*
G01*
G04 #@! TO.C,J8*
X114000000Y-99000000D02*
G75*
G03X114000000Y-99000000I-8000000J0D01*
G01*
G04 #@! TO.C,J7*
X114000000Y-121000000D02*
G75*
G03X114000000Y-121000000I-8000000J0D01*
G01*
G04 #@! TO.C,J6*
X114000000Y-143000000D02*
G75*
G03X114000000Y-143000000I-8000000J0D01*
G01*
G04 #@! TO.C,J4*
X92000000Y-77000000D02*
G75*
G03X92000000Y-77000000I-8000000J0D01*
G01*
G04 #@! TO.C,J3*
X92000000Y-99000000D02*
G75*
G03X92000000Y-99000000I-8000000J0D01*
G01*
G04 #@! TO.C,J2*
X92000000Y-121000000D02*
G75*
G03X92000000Y-121000000I-8000000J0D01*
G01*
G04 #@! TO.C,J1*
X92000000Y-143000000D02*
G75*
G03X92000000Y-143000000I-8000000J0D01*
G01*
G04 #@! TO.C,D12*
D10*
X96765714Y-72412380D02*
X96765714Y-71412380D01*
X97003809Y-71412380D01*
X97146666Y-71460000D01*
X97241904Y-71555238D01*
X97289523Y-71650476D01*
X97337142Y-71840952D01*
X97337142Y-71983809D01*
X97289523Y-72174285D01*
X97241904Y-72269523D01*
X97146666Y-72364761D01*
X97003809Y-72412380D01*
X96765714Y-72412380D01*
X98289523Y-72412380D02*
X97718095Y-72412380D01*
X98003809Y-72412380D02*
X98003809Y-71412380D01*
X97908571Y-71555238D01*
X97813333Y-71650476D01*
X97718095Y-71698095D01*
X98670476Y-71507619D02*
X98718095Y-71460000D01*
X98813333Y-71412380D01*
X99051428Y-71412380D01*
X99146666Y-71460000D01*
X99194285Y-71507619D01*
X99241904Y-71602857D01*
X99241904Y-71698095D01*
X99194285Y-71840952D01*
X98622857Y-72412380D01*
X99241904Y-72412380D01*
G04 #@! TO.C,D11*
X90805714Y-72452380D02*
X90805714Y-71452380D01*
X91043809Y-71452380D01*
X91186666Y-71500000D01*
X91281904Y-71595238D01*
X91329523Y-71690476D01*
X91377142Y-71880952D01*
X91377142Y-72023809D01*
X91329523Y-72214285D01*
X91281904Y-72309523D01*
X91186666Y-72404761D01*
X91043809Y-72452380D01*
X90805714Y-72452380D01*
X92329523Y-72452380D02*
X91758095Y-72452380D01*
X92043809Y-72452380D02*
X92043809Y-71452380D01*
X91948571Y-71595238D01*
X91853333Y-71690476D01*
X91758095Y-71738095D01*
X93281904Y-72452380D02*
X92710476Y-72452380D01*
X92996190Y-72452380D02*
X92996190Y-71452380D01*
X92900952Y-71595238D01*
X92805714Y-71690476D01*
X92710476Y-71738095D01*
G04 #@! TO.C,D10*
X96765714Y-88452380D02*
X96765714Y-87452380D01*
X97003809Y-87452380D01*
X97146666Y-87500000D01*
X97241904Y-87595238D01*
X97289523Y-87690476D01*
X97337142Y-87880952D01*
X97337142Y-88023809D01*
X97289523Y-88214285D01*
X97241904Y-88309523D01*
X97146666Y-88404761D01*
X97003809Y-88452380D01*
X96765714Y-88452380D01*
X98289523Y-88452380D02*
X97718095Y-88452380D01*
X98003809Y-88452380D02*
X98003809Y-87452380D01*
X97908571Y-87595238D01*
X97813333Y-87690476D01*
X97718095Y-87738095D01*
X98908571Y-87452380D02*
X99003809Y-87452380D01*
X99099047Y-87500000D01*
X99146666Y-87547619D01*
X99194285Y-87642857D01*
X99241904Y-87833333D01*
X99241904Y-88071428D01*
X99194285Y-88261904D01*
X99146666Y-88357142D01*
X99099047Y-88404761D01*
X99003809Y-88452380D01*
X98908571Y-88452380D01*
X98813333Y-88404761D01*
X98765714Y-88357142D01*
X98718095Y-88261904D01*
X98670476Y-88071428D01*
X98670476Y-87833333D01*
X98718095Y-87642857D01*
X98765714Y-87547619D01*
X98813333Y-87500000D01*
X98908571Y-87452380D01*
G04 #@! TO.C,D9*
X91281904Y-88492380D02*
X91281904Y-87492380D01*
X91520000Y-87492380D01*
X91662857Y-87540000D01*
X91758095Y-87635238D01*
X91805714Y-87730476D01*
X91853333Y-87920952D01*
X91853333Y-88063809D01*
X91805714Y-88254285D01*
X91758095Y-88349523D01*
X91662857Y-88444761D01*
X91520000Y-88492380D01*
X91281904Y-88492380D01*
X92329523Y-88492380D02*
X92520000Y-88492380D01*
X92615238Y-88444761D01*
X92662857Y-88397142D01*
X92758095Y-88254285D01*
X92805714Y-88063809D01*
X92805714Y-87682857D01*
X92758095Y-87587619D01*
X92710476Y-87540000D01*
X92615238Y-87492380D01*
X92424761Y-87492380D01*
X92329523Y-87540000D01*
X92281904Y-87587619D01*
X92234285Y-87682857D01*
X92234285Y-87920952D01*
X92281904Y-88016190D01*
X92329523Y-88063809D01*
X92424761Y-88111428D01*
X92615238Y-88111428D01*
X92710476Y-88063809D01*
X92758095Y-88016190D01*
X92805714Y-87920952D01*
G04 #@! TO.C,D8*
X97241904Y-110452380D02*
X97241904Y-109452380D01*
X97480000Y-109452380D01*
X97622857Y-109500000D01*
X97718095Y-109595238D01*
X97765714Y-109690476D01*
X97813333Y-109880952D01*
X97813333Y-110023809D01*
X97765714Y-110214285D01*
X97718095Y-110309523D01*
X97622857Y-110404761D01*
X97480000Y-110452380D01*
X97241904Y-110452380D01*
X98384761Y-109880952D02*
X98289523Y-109833333D01*
X98241904Y-109785714D01*
X98194285Y-109690476D01*
X98194285Y-109642857D01*
X98241904Y-109547619D01*
X98289523Y-109500000D01*
X98384761Y-109452380D01*
X98575238Y-109452380D01*
X98670476Y-109500000D01*
X98718095Y-109547619D01*
X98765714Y-109642857D01*
X98765714Y-109690476D01*
X98718095Y-109785714D01*
X98670476Y-109833333D01*
X98575238Y-109880952D01*
X98384761Y-109880952D01*
X98289523Y-109928571D01*
X98241904Y-109976190D01*
X98194285Y-110071428D01*
X98194285Y-110261904D01*
X98241904Y-110357142D01*
X98289523Y-110404761D01*
X98384761Y-110452380D01*
X98575238Y-110452380D01*
X98670476Y-110404761D01*
X98718095Y-110357142D01*
X98765714Y-110261904D01*
X98765714Y-110071428D01*
X98718095Y-109976190D01*
X98670476Y-109928571D01*
X98575238Y-109880952D01*
G04 #@! TO.C,D7*
X91281904Y-110492380D02*
X91281904Y-109492380D01*
X91520000Y-109492380D01*
X91662857Y-109540000D01*
X91758095Y-109635238D01*
X91805714Y-109730476D01*
X91853333Y-109920952D01*
X91853333Y-110063809D01*
X91805714Y-110254285D01*
X91758095Y-110349523D01*
X91662857Y-110444761D01*
X91520000Y-110492380D01*
X91281904Y-110492380D01*
X92186666Y-109492380D02*
X92853333Y-109492380D01*
X92424761Y-110492380D01*
G04 #@! TO.C,D6*
X97241904Y-132452380D02*
X97241904Y-131452380D01*
X97480000Y-131452380D01*
X97622857Y-131500000D01*
X97718095Y-131595238D01*
X97765714Y-131690476D01*
X97813333Y-131880952D01*
X97813333Y-132023809D01*
X97765714Y-132214285D01*
X97718095Y-132309523D01*
X97622857Y-132404761D01*
X97480000Y-132452380D01*
X97241904Y-132452380D01*
X98670476Y-131452380D02*
X98480000Y-131452380D01*
X98384761Y-131500000D01*
X98337142Y-131547619D01*
X98241904Y-131690476D01*
X98194285Y-131880952D01*
X98194285Y-132261904D01*
X98241904Y-132357142D01*
X98289523Y-132404761D01*
X98384761Y-132452380D01*
X98575238Y-132452380D01*
X98670476Y-132404761D01*
X98718095Y-132357142D01*
X98765714Y-132261904D01*
X98765714Y-132023809D01*
X98718095Y-131928571D01*
X98670476Y-131880952D01*
X98575238Y-131833333D01*
X98384761Y-131833333D01*
X98289523Y-131880952D01*
X98241904Y-131928571D01*
X98194285Y-132023809D01*
G04 #@! TO.C,D5*
X91281904Y-132492380D02*
X91281904Y-131492380D01*
X91520000Y-131492380D01*
X91662857Y-131540000D01*
X91758095Y-131635238D01*
X91805714Y-131730476D01*
X91853333Y-131920952D01*
X91853333Y-132063809D01*
X91805714Y-132254285D01*
X91758095Y-132349523D01*
X91662857Y-132444761D01*
X91520000Y-132492380D01*
X91281904Y-132492380D01*
X92758095Y-131492380D02*
X92281904Y-131492380D01*
X92234285Y-131968571D01*
X92281904Y-131920952D01*
X92377142Y-131873333D01*
X92615238Y-131873333D01*
X92710476Y-131920952D01*
X92758095Y-131968571D01*
X92805714Y-132063809D01*
X92805714Y-132301904D01*
X92758095Y-132397142D01*
X92710476Y-132444761D01*
X92615238Y-132492380D01*
X92377142Y-132492380D01*
X92281904Y-132444761D01*
X92234285Y-132397142D01*
G04 #@! TO.C,J9*
D13*
X105664180Y-76448295D02*
X105664180Y-77167910D01*
X105616205Y-77311832D01*
X105520257Y-77407781D01*
X105376334Y-77455755D01*
X105280385Y-77455755D01*
X106191897Y-77455755D02*
X106383794Y-77455755D01*
X106479742Y-77407781D01*
X106527717Y-77359807D01*
X106623665Y-77215884D01*
X106671640Y-77023987D01*
X106671640Y-76640192D01*
X106623665Y-76544244D01*
X106575691Y-76496270D01*
X106479742Y-76448295D01*
X106287845Y-76448295D01*
X106191897Y-76496270D01*
X106143922Y-76544244D01*
X106095948Y-76640192D01*
X106095948Y-76880064D01*
X106143922Y-76976012D01*
X106191897Y-77023987D01*
X106287845Y-77071961D01*
X106479742Y-77071961D01*
X106575691Y-77023987D01*
X106623665Y-76976012D01*
X106671640Y-76880064D01*
G04 #@! TO.C,J8*
X105664180Y-98448295D02*
X105664180Y-99167910D01*
X105616205Y-99311832D01*
X105520257Y-99407781D01*
X105376334Y-99455755D01*
X105280385Y-99455755D01*
X106287845Y-98880064D02*
X106191897Y-98832090D01*
X106143922Y-98784115D01*
X106095948Y-98688167D01*
X106095948Y-98640192D01*
X106143922Y-98544244D01*
X106191897Y-98496270D01*
X106287845Y-98448295D01*
X106479742Y-98448295D01*
X106575691Y-98496270D01*
X106623665Y-98544244D01*
X106671640Y-98640192D01*
X106671640Y-98688167D01*
X106623665Y-98784115D01*
X106575691Y-98832090D01*
X106479742Y-98880064D01*
X106287845Y-98880064D01*
X106191897Y-98928038D01*
X106143922Y-98976012D01*
X106095948Y-99071961D01*
X106095948Y-99263858D01*
X106143922Y-99359807D01*
X106191897Y-99407781D01*
X106287845Y-99455755D01*
X106479742Y-99455755D01*
X106575691Y-99407781D01*
X106623665Y-99359807D01*
X106671640Y-99263858D01*
X106671640Y-99071961D01*
X106623665Y-98976012D01*
X106575691Y-98928038D01*
X106479742Y-98880064D01*
G04 #@! TO.C,J7*
X105664180Y-119943795D02*
X105664180Y-120663410D01*
X105616205Y-120807332D01*
X105520257Y-120903281D01*
X105376334Y-120951255D01*
X105280385Y-120951255D01*
X106047974Y-119943795D02*
X106719614Y-119943795D01*
X106287845Y-120951255D01*
G04 #@! TO.C,J6*
X105664180Y-142448295D02*
X105664180Y-143167910D01*
X105616205Y-143311832D01*
X105520257Y-143407781D01*
X105376334Y-143455755D01*
X105280385Y-143455755D01*
X106575691Y-142448295D02*
X106383794Y-142448295D01*
X106287845Y-142496270D01*
X106239871Y-142544244D01*
X106143922Y-142688167D01*
X106095948Y-142880064D01*
X106095948Y-143263858D01*
X106143922Y-143359807D01*
X106191897Y-143407781D01*
X106287845Y-143455755D01*
X106479742Y-143455755D01*
X106575691Y-143407781D01*
X106623665Y-143359807D01*
X106671640Y-143263858D01*
X106671640Y-143023987D01*
X106623665Y-142928038D01*
X106575691Y-142880064D01*
X106479742Y-142832090D01*
X106287845Y-142832090D01*
X106191897Y-142880064D01*
X106143922Y-142928038D01*
X106095948Y-143023987D01*
G04 #@! TO.C,J4*
X83664180Y-76448295D02*
X83664180Y-77167910D01*
X83616205Y-77311832D01*
X83520257Y-77407781D01*
X83376334Y-77455755D01*
X83280385Y-77455755D01*
X84575691Y-76784115D02*
X84575691Y-77455755D01*
X84335820Y-76400321D02*
X84095948Y-77119935D01*
X84719614Y-77119935D01*
G04 #@! TO.C,J3*
X83664180Y-98448295D02*
X83664180Y-99167910D01*
X83616205Y-99311832D01*
X83520257Y-99407781D01*
X83376334Y-99455755D01*
X83280385Y-99455755D01*
X84047974Y-98448295D02*
X84671640Y-98448295D01*
X84335820Y-98832090D01*
X84479742Y-98832090D01*
X84575691Y-98880064D01*
X84623665Y-98928038D01*
X84671640Y-99023987D01*
X84671640Y-99263858D01*
X84623665Y-99359807D01*
X84575691Y-99407781D01*
X84479742Y-99455755D01*
X84191897Y-99455755D01*
X84095948Y-99407781D01*
X84047974Y-99359807D01*
G04 #@! TO.C,J2*
X83664180Y-120448295D02*
X83664180Y-121167910D01*
X83616205Y-121311832D01*
X83520257Y-121407781D01*
X83376334Y-121455755D01*
X83280385Y-121455755D01*
X84095948Y-120544244D02*
X84143922Y-120496270D01*
X84239871Y-120448295D01*
X84479742Y-120448295D01*
X84575691Y-120496270D01*
X84623665Y-120544244D01*
X84671640Y-120640192D01*
X84671640Y-120736141D01*
X84623665Y-120880064D01*
X84047974Y-121455755D01*
X84671640Y-121455755D01*
G04 #@! TO.C,J1*
X83664180Y-142448295D02*
X83664180Y-143167910D01*
X83616205Y-143311832D01*
X83520257Y-143407781D01*
X83376334Y-143455755D01*
X83280385Y-143455755D01*
X84671640Y-143455755D02*
X84095948Y-143455755D01*
X84383794Y-143455755D02*
X84383794Y-142448295D01*
X84287845Y-142592218D01*
X84191897Y-142688167D01*
X84095948Y-142736141D01*
G04 #@! TD*
M02*
