G04 #@! TF.GenerationSoftware,KiCad,Pcbnew,5.0.2+dfsg1-1*
G04 #@! TF.CreationDate,2020-04-26T20:48:58+02:00*
G04 #@! TF.ProjectId,midirouter,6d696469-726f-4757-9465-722e6b696361,rev?*
G04 #@! TF.SameCoordinates,Original*
G04 #@! TF.FileFunction,Soldermask,Bot*
G04 #@! TF.FilePolarity,Negative*
%FSLAX46Y46*%
G04 Gerber Fmt 4.6, Leading zero omitted, Abs format (unit mm)*
G04 Created by KiCad (PCBNEW 5.0.2+dfsg1-1) date Sun 26 Apr 2020 08:48:58 PM CEST*
%MOMM*%
%LPD*%
G01*
G04 APERTURE LIST*
%ADD10C,0.100000*%
G04 APERTURE END LIST*
D10*
G36*
X106125888Y-146454470D02*
X106306274Y-146490350D01*
X106497362Y-146569502D01*
X106669336Y-146684411D01*
X106815589Y-146830664D01*
X106930498Y-147002638D01*
X107009650Y-147193726D01*
X107050000Y-147396584D01*
X107050000Y-147603416D01*
X107009650Y-147806274D01*
X106930498Y-147997362D01*
X106815589Y-148169336D01*
X106669336Y-148315589D01*
X106497362Y-148430498D01*
X106306274Y-148509650D01*
X106125888Y-148545530D01*
X106103417Y-148550000D01*
X105896583Y-148550000D01*
X105874112Y-148545530D01*
X105693726Y-148509650D01*
X105502638Y-148430498D01*
X105330664Y-148315589D01*
X105184411Y-148169336D01*
X105069502Y-147997362D01*
X104990350Y-147806274D01*
X104950000Y-147603416D01*
X104950000Y-147396584D01*
X104990350Y-147193726D01*
X105069502Y-147002638D01*
X105184411Y-146830664D01*
X105330664Y-146684411D01*
X105502638Y-146569502D01*
X105693726Y-146490350D01*
X105874112Y-146454470D01*
X105896583Y-146450000D01*
X106103417Y-146450000D01*
X106125888Y-146454470D01*
X106125888Y-146454470D01*
G37*
G36*
X84125888Y-146454470D02*
X84306274Y-146490350D01*
X84497362Y-146569502D01*
X84669336Y-146684411D01*
X84815589Y-146830664D01*
X84930498Y-147002638D01*
X85009650Y-147193726D01*
X85050000Y-147396584D01*
X85050000Y-147603416D01*
X85009650Y-147806274D01*
X84930498Y-147997362D01*
X84815589Y-148169336D01*
X84669336Y-148315589D01*
X84497362Y-148430498D01*
X84306274Y-148509650D01*
X84125888Y-148545530D01*
X84103417Y-148550000D01*
X83896583Y-148550000D01*
X83874112Y-148545530D01*
X83693726Y-148509650D01*
X83502638Y-148430498D01*
X83330664Y-148315589D01*
X83184411Y-148169336D01*
X83069502Y-147997362D01*
X82990350Y-147806274D01*
X82950000Y-147603416D01*
X82950000Y-147396584D01*
X82990350Y-147193726D01*
X83069502Y-147002638D01*
X83184411Y-146830664D01*
X83330664Y-146684411D01*
X83502638Y-146569502D01*
X83693726Y-146490350D01*
X83874112Y-146454470D01*
X83896583Y-146450000D01*
X84103417Y-146450000D01*
X84125888Y-146454470D01*
X84125888Y-146454470D01*
G37*
G36*
X105303992Y-144954076D02*
X105337883Y-144964357D01*
X105369111Y-144981048D01*
X105396485Y-145003515D01*
X105418952Y-145030889D01*
X105435643Y-145062117D01*
X105445924Y-145096008D01*
X105450000Y-145137391D01*
X105450000Y-145737609D01*
X105445924Y-145778992D01*
X105435643Y-145812883D01*
X105418952Y-145844111D01*
X105396485Y-145871485D01*
X105369111Y-145893952D01*
X105337883Y-145910643D01*
X105303992Y-145920924D01*
X105262609Y-145925000D01*
X104237391Y-145925000D01*
X104196008Y-145920924D01*
X104162117Y-145910643D01*
X104130889Y-145893952D01*
X104103515Y-145871485D01*
X104081048Y-145844111D01*
X104064357Y-145812883D01*
X104054076Y-145778992D01*
X104050000Y-145737609D01*
X104050000Y-145137391D01*
X104054076Y-145096008D01*
X104064357Y-145062117D01*
X104081048Y-145030889D01*
X104103515Y-145003515D01*
X104130889Y-144981048D01*
X104162117Y-144964357D01*
X104196008Y-144954076D01*
X104237391Y-144950000D01*
X105262609Y-144950000D01*
X105303992Y-144954076D01*
X105303992Y-144954076D01*
G37*
G36*
X107803992Y-144954076D02*
X107837883Y-144964357D01*
X107869111Y-144981048D01*
X107896485Y-145003515D01*
X107918952Y-145030889D01*
X107935643Y-145062117D01*
X107945924Y-145096008D01*
X107950000Y-145137391D01*
X107950000Y-145737609D01*
X107945924Y-145778992D01*
X107935643Y-145812883D01*
X107918952Y-145844111D01*
X107896485Y-145871485D01*
X107869111Y-145893952D01*
X107837883Y-145910643D01*
X107803992Y-145920924D01*
X107762609Y-145925000D01*
X106737391Y-145925000D01*
X106696008Y-145920924D01*
X106662117Y-145910643D01*
X106630889Y-145893952D01*
X106603515Y-145871485D01*
X106581048Y-145844111D01*
X106564357Y-145812883D01*
X106554076Y-145778992D01*
X106550000Y-145737609D01*
X106550000Y-145137391D01*
X106554076Y-145096008D01*
X106564357Y-145062117D01*
X106581048Y-145030889D01*
X106603515Y-145003515D01*
X106630889Y-144981048D01*
X106662117Y-144964357D01*
X106696008Y-144954076D01*
X106737391Y-144950000D01*
X107762609Y-144950000D01*
X107803992Y-144954076D01*
X107803992Y-144954076D01*
G37*
G36*
X83403992Y-144304076D02*
X83437883Y-144314357D01*
X83469111Y-144331048D01*
X83496485Y-144353515D01*
X83518952Y-144380889D01*
X83535643Y-144412117D01*
X83545924Y-144446008D01*
X83550000Y-144487391D01*
X83550000Y-145512609D01*
X83545924Y-145553992D01*
X83535643Y-145587883D01*
X83518952Y-145619111D01*
X83496485Y-145646485D01*
X83469111Y-145668952D01*
X83437883Y-145685643D01*
X83403992Y-145695924D01*
X83362609Y-145700000D01*
X82762391Y-145700000D01*
X82721008Y-145695924D01*
X82687117Y-145685643D01*
X82655889Y-145668952D01*
X82628515Y-145646485D01*
X82606048Y-145619111D01*
X82589357Y-145587883D01*
X82579076Y-145553992D01*
X82575000Y-145512609D01*
X82575000Y-144487391D01*
X82579076Y-144446008D01*
X82589357Y-144412117D01*
X82606048Y-144380889D01*
X82628515Y-144353515D01*
X82655889Y-144331048D01*
X82687117Y-144314357D01*
X82721008Y-144304076D01*
X82762391Y-144300000D01*
X83362609Y-144300000D01*
X83403992Y-144304076D01*
X83403992Y-144304076D01*
G37*
G36*
X85278992Y-144304076D02*
X85312883Y-144314357D01*
X85344111Y-144331048D01*
X85371485Y-144353515D01*
X85393952Y-144380889D01*
X85410643Y-144412117D01*
X85420924Y-144446008D01*
X85425000Y-144487391D01*
X85425000Y-145512609D01*
X85420924Y-145553992D01*
X85410643Y-145587883D01*
X85393952Y-145619111D01*
X85371485Y-145646485D01*
X85344111Y-145668952D01*
X85312883Y-145685643D01*
X85278992Y-145695924D01*
X85237609Y-145700000D01*
X84637391Y-145700000D01*
X84596008Y-145695924D01*
X84562117Y-145685643D01*
X84530889Y-145668952D01*
X84503515Y-145646485D01*
X84481048Y-145619111D01*
X84464357Y-145587883D01*
X84454076Y-145553992D01*
X84450000Y-145512609D01*
X84450000Y-144487391D01*
X84454076Y-144446008D01*
X84464357Y-144412117D01*
X84481048Y-144380889D01*
X84503515Y-144353515D01*
X84530889Y-144331048D01*
X84562117Y-144314357D01*
X84596008Y-144304076D01*
X84637391Y-144300000D01*
X85237609Y-144300000D01*
X85278992Y-144304076D01*
X85278992Y-144304076D01*
G37*
G36*
X111625888Y-141954470D02*
X111806274Y-141990350D01*
X111997362Y-142069502D01*
X112169336Y-142184411D01*
X112315589Y-142330664D01*
X112430498Y-142502638D01*
X112509650Y-142693726D01*
X112545530Y-142874112D01*
X112550000Y-142896583D01*
X112550000Y-143103417D01*
X112547481Y-143116079D01*
X112509650Y-143306274D01*
X112430498Y-143497362D01*
X112315589Y-143669336D01*
X112169336Y-143815589D01*
X111997362Y-143930498D01*
X111806274Y-144009650D01*
X111626965Y-144045316D01*
X111603417Y-144050000D01*
X111396583Y-144050000D01*
X111373035Y-144045316D01*
X111193726Y-144009650D01*
X111002638Y-143930498D01*
X110830664Y-143815589D01*
X110684411Y-143669336D01*
X110569502Y-143497362D01*
X110490350Y-143306274D01*
X110452519Y-143116079D01*
X110450000Y-143103417D01*
X110450000Y-142896583D01*
X110454470Y-142874112D01*
X110490350Y-142693726D01*
X110569502Y-142502638D01*
X110684411Y-142330664D01*
X110830664Y-142184411D01*
X111002638Y-142069502D01*
X111193726Y-141990350D01*
X111374112Y-141954470D01*
X111396583Y-141950000D01*
X111603417Y-141950000D01*
X111625888Y-141954470D01*
X111625888Y-141954470D01*
G37*
G36*
X101550000Y-144050000D02*
X99450000Y-144050000D01*
X99450000Y-141950000D01*
X101550000Y-141950000D01*
X101550000Y-144050000D01*
X101550000Y-144050000D01*
G37*
G36*
X89625888Y-141954470D02*
X89806274Y-141990350D01*
X89997362Y-142069502D01*
X90169336Y-142184411D01*
X90315589Y-142330664D01*
X90430498Y-142502638D01*
X90509650Y-142693726D01*
X90545530Y-142874112D01*
X90550000Y-142896583D01*
X90550000Y-143103417D01*
X90547481Y-143116079D01*
X90509650Y-143306274D01*
X90430498Y-143497362D01*
X90315589Y-143669336D01*
X90169336Y-143815589D01*
X89997362Y-143930498D01*
X89806274Y-144009650D01*
X89626965Y-144045316D01*
X89603417Y-144050000D01*
X89396583Y-144050000D01*
X89373035Y-144045316D01*
X89193726Y-144009650D01*
X89002638Y-143930498D01*
X88830664Y-143815589D01*
X88684411Y-143669336D01*
X88569502Y-143497362D01*
X88490350Y-143306274D01*
X88452519Y-143116079D01*
X88450000Y-143103417D01*
X88450000Y-142896583D01*
X88454470Y-142874112D01*
X88490350Y-142693726D01*
X88569502Y-142502638D01*
X88684411Y-142330664D01*
X88830664Y-142184411D01*
X89002638Y-142069502D01*
X89193726Y-141990350D01*
X89374112Y-141954470D01*
X89396583Y-141950000D01*
X89603417Y-141950000D01*
X89625888Y-141954470D01*
X89625888Y-141954470D01*
G37*
G36*
X79550000Y-144050000D02*
X77450000Y-144050000D01*
X77450000Y-141950000D01*
X79550000Y-141950000D01*
X79550000Y-144050000D01*
X79550000Y-144050000D01*
G37*
G36*
X107803992Y-143079076D02*
X107837883Y-143089357D01*
X107869111Y-143106048D01*
X107896485Y-143128515D01*
X107918952Y-143155889D01*
X107935643Y-143187117D01*
X107945924Y-143221008D01*
X107950000Y-143262391D01*
X107950000Y-143862609D01*
X107945924Y-143903992D01*
X107935643Y-143937883D01*
X107918952Y-143969111D01*
X107896485Y-143996485D01*
X107869111Y-144018952D01*
X107837883Y-144035643D01*
X107803992Y-144045924D01*
X107762609Y-144050000D01*
X106737391Y-144050000D01*
X106696008Y-144045924D01*
X106662117Y-144035643D01*
X106630889Y-144018952D01*
X106603515Y-143996485D01*
X106581048Y-143969111D01*
X106564357Y-143937883D01*
X106554076Y-143903992D01*
X106550000Y-143862609D01*
X106550000Y-143262391D01*
X106554076Y-143221008D01*
X106564357Y-143187117D01*
X106581048Y-143155889D01*
X106603515Y-143128515D01*
X106630889Y-143106048D01*
X106662117Y-143089357D01*
X106696008Y-143079076D01*
X106737391Y-143075000D01*
X107762609Y-143075000D01*
X107803992Y-143079076D01*
X107803992Y-143079076D01*
G37*
G36*
X105303992Y-143079076D02*
X105337883Y-143089357D01*
X105369111Y-143106048D01*
X105396485Y-143128515D01*
X105418952Y-143155889D01*
X105435643Y-143187117D01*
X105445924Y-143221008D01*
X105450000Y-143262391D01*
X105450000Y-143862609D01*
X105445924Y-143903992D01*
X105435643Y-143937883D01*
X105418952Y-143969111D01*
X105396485Y-143996485D01*
X105369111Y-144018952D01*
X105337883Y-144035643D01*
X105303992Y-144045924D01*
X105262609Y-144050000D01*
X104237391Y-144050000D01*
X104196008Y-144045924D01*
X104162117Y-144035643D01*
X104130889Y-144018952D01*
X104103515Y-143996485D01*
X104081048Y-143969111D01*
X104064357Y-143937883D01*
X104054076Y-143903992D01*
X104050000Y-143862609D01*
X104050000Y-143262391D01*
X104054076Y-143221008D01*
X104064357Y-143187117D01*
X104081048Y-143155889D01*
X104103515Y-143128515D01*
X104130889Y-143106048D01*
X104162117Y-143089357D01*
X104196008Y-143079076D01*
X104237391Y-143075000D01*
X105262609Y-143075000D01*
X105303992Y-143079076D01*
X105303992Y-143079076D01*
G37*
G36*
X83455522Y-142304039D02*
X83489053Y-142314211D01*
X83519960Y-142330731D01*
X83547043Y-142352957D01*
X83569269Y-142380040D01*
X83585789Y-142410947D01*
X83595961Y-142444478D01*
X83600000Y-142485487D01*
X83600000Y-143514513D01*
X83595961Y-143555522D01*
X83585789Y-143589053D01*
X83569269Y-143619960D01*
X83547043Y-143647043D01*
X83519960Y-143669269D01*
X83489053Y-143685789D01*
X83455522Y-143695961D01*
X83414513Y-143700000D01*
X82635487Y-143700000D01*
X82594478Y-143695961D01*
X82560947Y-143685789D01*
X82530040Y-143669269D01*
X82502957Y-143647043D01*
X82480731Y-143619960D01*
X82464211Y-143589053D01*
X82454039Y-143555522D01*
X82450000Y-143514513D01*
X82450000Y-142485487D01*
X82454039Y-142444478D01*
X82464211Y-142410947D01*
X82480731Y-142380040D01*
X82502957Y-142352957D01*
X82530040Y-142330731D01*
X82560947Y-142314211D01*
X82594478Y-142304039D01*
X82635487Y-142300000D01*
X83414513Y-142300000D01*
X83455522Y-142304039D01*
X83455522Y-142304039D01*
G37*
G36*
X81405522Y-142304039D02*
X81439053Y-142314211D01*
X81469960Y-142330731D01*
X81497043Y-142352957D01*
X81519269Y-142380040D01*
X81535789Y-142410947D01*
X81545961Y-142444478D01*
X81550000Y-142485487D01*
X81550000Y-143514513D01*
X81545961Y-143555522D01*
X81535789Y-143589053D01*
X81519269Y-143619960D01*
X81497043Y-143647043D01*
X81469960Y-143669269D01*
X81439053Y-143685789D01*
X81405522Y-143695961D01*
X81364513Y-143700000D01*
X80585487Y-143700000D01*
X80544478Y-143695961D01*
X80510947Y-143685789D01*
X80480040Y-143669269D01*
X80452957Y-143647043D01*
X80430731Y-143619960D01*
X80414211Y-143589053D01*
X80404039Y-143555522D01*
X80400000Y-143514513D01*
X80400000Y-142485487D01*
X80404039Y-142444478D01*
X80414211Y-142410947D01*
X80430731Y-142380040D01*
X80452957Y-142352957D01*
X80480040Y-142330731D01*
X80510947Y-142314211D01*
X80544478Y-142304039D01*
X80585487Y-142300000D01*
X81364513Y-142300000D01*
X81405522Y-142304039D01*
X81405522Y-142304039D01*
G37*
G36*
X85405522Y-142304039D02*
X85439053Y-142314211D01*
X85469960Y-142330731D01*
X85497043Y-142352957D01*
X85519269Y-142380040D01*
X85535789Y-142410947D01*
X85545961Y-142444478D01*
X85550000Y-142485487D01*
X85550000Y-143514513D01*
X85545961Y-143555522D01*
X85535789Y-143589053D01*
X85519269Y-143619960D01*
X85497043Y-143647043D01*
X85469960Y-143669269D01*
X85439053Y-143685789D01*
X85405522Y-143695961D01*
X85364513Y-143700000D01*
X84585487Y-143700000D01*
X84544478Y-143695961D01*
X84510947Y-143685789D01*
X84480040Y-143669269D01*
X84452957Y-143647043D01*
X84430731Y-143619960D01*
X84414211Y-143589053D01*
X84404039Y-143555522D01*
X84400000Y-143514513D01*
X84400000Y-142485487D01*
X84404039Y-142444478D01*
X84414211Y-142410947D01*
X84430731Y-142380040D01*
X84452957Y-142352957D01*
X84480040Y-142330731D01*
X84510947Y-142314211D01*
X84544478Y-142304039D01*
X84585487Y-142300000D01*
X85364513Y-142300000D01*
X85405522Y-142304039D01*
X85405522Y-142304039D01*
G37*
G36*
X87455522Y-142304039D02*
X87489053Y-142314211D01*
X87519960Y-142330731D01*
X87547043Y-142352957D01*
X87569269Y-142380040D01*
X87585789Y-142410947D01*
X87595961Y-142444478D01*
X87600000Y-142485487D01*
X87600000Y-143514513D01*
X87595961Y-143555522D01*
X87585789Y-143589053D01*
X87569269Y-143619960D01*
X87547043Y-143647043D01*
X87519960Y-143669269D01*
X87489053Y-143685789D01*
X87455522Y-143695961D01*
X87414513Y-143700000D01*
X86635487Y-143700000D01*
X86594478Y-143695961D01*
X86560947Y-143685789D01*
X86530040Y-143669269D01*
X86502957Y-143647043D01*
X86480731Y-143619960D01*
X86464211Y-143589053D01*
X86454039Y-143555522D01*
X86450000Y-143514513D01*
X86450000Y-142485487D01*
X86454039Y-142444478D01*
X86464211Y-142410947D01*
X86480731Y-142380040D01*
X86502957Y-142352957D01*
X86530040Y-142330731D01*
X86560947Y-142314211D01*
X86594478Y-142304039D01*
X86635487Y-142300000D01*
X87414513Y-142300000D01*
X87455522Y-142304039D01*
X87455522Y-142304039D01*
G37*
G36*
X109455522Y-141054039D02*
X109489053Y-141064211D01*
X109519960Y-141080731D01*
X109547043Y-141102957D01*
X109569269Y-141130040D01*
X109585789Y-141160947D01*
X109595961Y-141194478D01*
X109600000Y-141235487D01*
X109600000Y-142264513D01*
X109595961Y-142305522D01*
X109585789Y-142339053D01*
X109569269Y-142369960D01*
X109547043Y-142397043D01*
X109519960Y-142419269D01*
X109489053Y-142435789D01*
X109455522Y-142445961D01*
X109414513Y-142450000D01*
X108635487Y-142450000D01*
X108594478Y-142445961D01*
X108560947Y-142435789D01*
X108530040Y-142419269D01*
X108502957Y-142397043D01*
X108480731Y-142369960D01*
X108464211Y-142339053D01*
X108454039Y-142305522D01*
X108450000Y-142264513D01*
X108450000Y-141235487D01*
X108454039Y-141194478D01*
X108464211Y-141160947D01*
X108480731Y-141130040D01*
X108502957Y-141102957D01*
X108530040Y-141080731D01*
X108560947Y-141064211D01*
X108594478Y-141054039D01*
X108635487Y-141050000D01*
X109414513Y-141050000D01*
X109455522Y-141054039D01*
X109455522Y-141054039D01*
G37*
G36*
X103380522Y-141054039D02*
X103414053Y-141064211D01*
X103444960Y-141080731D01*
X103472043Y-141102957D01*
X103494269Y-141130040D01*
X103510789Y-141160947D01*
X103520961Y-141194478D01*
X103525000Y-141235487D01*
X103525000Y-142264513D01*
X103520961Y-142305522D01*
X103510789Y-142339053D01*
X103494269Y-142369960D01*
X103472043Y-142397043D01*
X103444960Y-142419269D01*
X103414053Y-142435789D01*
X103380522Y-142445961D01*
X103339513Y-142450000D01*
X102560487Y-142450000D01*
X102519478Y-142445961D01*
X102485947Y-142435789D01*
X102455040Y-142419269D01*
X102427957Y-142397043D01*
X102405731Y-142369960D01*
X102389211Y-142339053D01*
X102379039Y-142305522D01*
X102375000Y-142264513D01*
X102375000Y-141235487D01*
X102379039Y-141194478D01*
X102389211Y-141160947D01*
X102405731Y-141130040D01*
X102427957Y-141102957D01*
X102455040Y-141080731D01*
X102485947Y-141064211D01*
X102519478Y-141054039D01*
X102560487Y-141050000D01*
X103339513Y-141050000D01*
X103380522Y-141054039D01*
X103380522Y-141054039D01*
G37*
G36*
X107405522Y-141054039D02*
X107439053Y-141064211D01*
X107469960Y-141080731D01*
X107497043Y-141102957D01*
X107519269Y-141130040D01*
X107535789Y-141160947D01*
X107545961Y-141194478D01*
X107550000Y-141235487D01*
X107550000Y-142264513D01*
X107545961Y-142305522D01*
X107535789Y-142339053D01*
X107519269Y-142369960D01*
X107497043Y-142397043D01*
X107469960Y-142419269D01*
X107439053Y-142435789D01*
X107405522Y-142445961D01*
X107364513Y-142450000D01*
X106585487Y-142450000D01*
X106544478Y-142445961D01*
X106510947Y-142435789D01*
X106480040Y-142419269D01*
X106452957Y-142397043D01*
X106430731Y-142369960D01*
X106414211Y-142339053D01*
X106404039Y-142305522D01*
X106400000Y-142264513D01*
X106400000Y-141235487D01*
X106404039Y-141194478D01*
X106414211Y-141160947D01*
X106430731Y-141130040D01*
X106452957Y-141102957D01*
X106480040Y-141080731D01*
X106510947Y-141064211D01*
X106544478Y-141054039D01*
X106585487Y-141050000D01*
X107364513Y-141050000D01*
X107405522Y-141054039D01*
X107405522Y-141054039D01*
G37*
G36*
X105430522Y-141054039D02*
X105464053Y-141064211D01*
X105494960Y-141080731D01*
X105522043Y-141102957D01*
X105544269Y-141130040D01*
X105560789Y-141160947D01*
X105570961Y-141194478D01*
X105575000Y-141235487D01*
X105575000Y-142264513D01*
X105570961Y-142305522D01*
X105560789Y-142339053D01*
X105544269Y-142369960D01*
X105522043Y-142397043D01*
X105494960Y-142419269D01*
X105464053Y-142435789D01*
X105430522Y-142445961D01*
X105389513Y-142450000D01*
X104610487Y-142450000D01*
X104569478Y-142445961D01*
X104535947Y-142435789D01*
X104505040Y-142419269D01*
X104477957Y-142397043D01*
X104455731Y-142369960D01*
X104439211Y-142339053D01*
X104429039Y-142305522D01*
X104425000Y-142264513D01*
X104425000Y-141235487D01*
X104429039Y-141194478D01*
X104439211Y-141160947D01*
X104455731Y-141130040D01*
X104477957Y-141102957D01*
X104505040Y-141080731D01*
X104535947Y-141064211D01*
X104569478Y-141054039D01*
X104610487Y-141050000D01*
X105389513Y-141050000D01*
X105430522Y-141054039D01*
X105430522Y-141054039D01*
G37*
G36*
X83403992Y-140304076D02*
X83437883Y-140314357D01*
X83469111Y-140331048D01*
X83496485Y-140353515D01*
X83518952Y-140380889D01*
X83535643Y-140412117D01*
X83545924Y-140446008D01*
X83550000Y-140487391D01*
X83550000Y-141512609D01*
X83545924Y-141553992D01*
X83535643Y-141587883D01*
X83518952Y-141619111D01*
X83496485Y-141646485D01*
X83469111Y-141668952D01*
X83437883Y-141685643D01*
X83403992Y-141695924D01*
X83362609Y-141700000D01*
X82762391Y-141700000D01*
X82721008Y-141695924D01*
X82687117Y-141685643D01*
X82655889Y-141668952D01*
X82628515Y-141646485D01*
X82606048Y-141619111D01*
X82589357Y-141587883D01*
X82579076Y-141553992D01*
X82575000Y-141512609D01*
X82575000Y-140487391D01*
X82579076Y-140446008D01*
X82589357Y-140412117D01*
X82606048Y-140380889D01*
X82628515Y-140353515D01*
X82655889Y-140331048D01*
X82687117Y-140314357D01*
X82721008Y-140304076D01*
X82762391Y-140300000D01*
X83362609Y-140300000D01*
X83403992Y-140304076D01*
X83403992Y-140304076D01*
G37*
G36*
X85278992Y-140304076D02*
X85312883Y-140314357D01*
X85344111Y-140331048D01*
X85371485Y-140353515D01*
X85393952Y-140380889D01*
X85410643Y-140412117D01*
X85420924Y-140446008D01*
X85425000Y-140487391D01*
X85425000Y-141512609D01*
X85420924Y-141553992D01*
X85410643Y-141587883D01*
X85393952Y-141619111D01*
X85371485Y-141646485D01*
X85344111Y-141668952D01*
X85312883Y-141685643D01*
X85278992Y-141695924D01*
X85237609Y-141700000D01*
X84637391Y-141700000D01*
X84596008Y-141695924D01*
X84562117Y-141685643D01*
X84530889Y-141668952D01*
X84503515Y-141646485D01*
X84481048Y-141619111D01*
X84464357Y-141587883D01*
X84454076Y-141553992D01*
X84450000Y-141512609D01*
X84450000Y-140487391D01*
X84454076Y-140446008D01*
X84464357Y-140412117D01*
X84481048Y-140380889D01*
X84503515Y-140353515D01*
X84530889Y-140331048D01*
X84562117Y-140314357D01*
X84596008Y-140304076D01*
X84637391Y-140300000D01*
X85237609Y-140300000D01*
X85278992Y-140304076D01*
X85278992Y-140304076D01*
G37*
G36*
X88015888Y-138064470D02*
X88196274Y-138100350D01*
X88387362Y-138179502D01*
X88559336Y-138294411D01*
X88705589Y-138440664D01*
X88820498Y-138612638D01*
X88899650Y-138803726D01*
X88940000Y-139006584D01*
X88940000Y-139213416D01*
X88899650Y-139416274D01*
X88820498Y-139607362D01*
X88705589Y-139779336D01*
X88559336Y-139925589D01*
X88387362Y-140040498D01*
X88196274Y-140119650D01*
X88015888Y-140155530D01*
X87993417Y-140160000D01*
X87786583Y-140160000D01*
X87764112Y-140155530D01*
X87583726Y-140119650D01*
X87392638Y-140040498D01*
X87220664Y-139925589D01*
X87074411Y-139779336D01*
X86959502Y-139607362D01*
X86880350Y-139416274D01*
X86840000Y-139213416D01*
X86840000Y-139006584D01*
X86880350Y-138803726D01*
X86959502Y-138612638D01*
X87074411Y-138440664D01*
X87220664Y-138294411D01*
X87392638Y-138179502D01*
X87583726Y-138100350D01*
X87764112Y-138064470D01*
X87786583Y-138060000D01*
X87993417Y-138060000D01*
X88015888Y-138064470D01*
X88015888Y-138064470D01*
G37*
G36*
X110015888Y-138064470D02*
X110196274Y-138100350D01*
X110387362Y-138179502D01*
X110559336Y-138294411D01*
X110705589Y-138440664D01*
X110820498Y-138612638D01*
X110899650Y-138803726D01*
X110940000Y-139006584D01*
X110940000Y-139213416D01*
X110899650Y-139416274D01*
X110820498Y-139607362D01*
X110705589Y-139779336D01*
X110559336Y-139925589D01*
X110387362Y-140040498D01*
X110196274Y-140119650D01*
X110015888Y-140155530D01*
X109993417Y-140160000D01*
X109786583Y-140160000D01*
X109764112Y-140155530D01*
X109583726Y-140119650D01*
X109392638Y-140040498D01*
X109220664Y-139925589D01*
X109074411Y-139779336D01*
X108959502Y-139607362D01*
X108880350Y-139416274D01*
X108840000Y-139213416D01*
X108840000Y-139006584D01*
X108880350Y-138803726D01*
X108959502Y-138612638D01*
X109074411Y-138440664D01*
X109220664Y-138294411D01*
X109392638Y-138179502D01*
X109583726Y-138100350D01*
X109764112Y-138064470D01*
X109786583Y-138060000D01*
X109993417Y-138060000D01*
X110015888Y-138064470D01*
X110015888Y-138064470D01*
G37*
G36*
X80235888Y-138064470D02*
X80416274Y-138100350D01*
X80607362Y-138179502D01*
X80779336Y-138294411D01*
X80925589Y-138440664D01*
X81040498Y-138612638D01*
X81119650Y-138803726D01*
X81160000Y-139006584D01*
X81160000Y-139213416D01*
X81119650Y-139416274D01*
X81040498Y-139607362D01*
X80925589Y-139779336D01*
X80779336Y-139925589D01*
X80607362Y-140040498D01*
X80416274Y-140119650D01*
X80235888Y-140155530D01*
X80213417Y-140160000D01*
X80006583Y-140160000D01*
X79984112Y-140155530D01*
X79803726Y-140119650D01*
X79612638Y-140040498D01*
X79440664Y-139925589D01*
X79294411Y-139779336D01*
X79179502Y-139607362D01*
X79100350Y-139416274D01*
X79060000Y-139213416D01*
X79060000Y-139006584D01*
X79100350Y-138803726D01*
X79179502Y-138612638D01*
X79294411Y-138440664D01*
X79440664Y-138294411D01*
X79612638Y-138179502D01*
X79803726Y-138100350D01*
X79984112Y-138064470D01*
X80006583Y-138060000D01*
X80213417Y-138060000D01*
X80235888Y-138064470D01*
X80235888Y-138064470D01*
G37*
G36*
X102235888Y-138064470D02*
X102416274Y-138100350D01*
X102607362Y-138179502D01*
X102779336Y-138294411D01*
X102925589Y-138440664D01*
X103040498Y-138612638D01*
X103119650Y-138803726D01*
X103160000Y-139006584D01*
X103160000Y-139213416D01*
X103119650Y-139416274D01*
X103040498Y-139607362D01*
X102925589Y-139779336D01*
X102779336Y-139925589D01*
X102607362Y-140040498D01*
X102416274Y-140119650D01*
X102235888Y-140155530D01*
X102213417Y-140160000D01*
X102006583Y-140160000D01*
X101984112Y-140155530D01*
X101803726Y-140119650D01*
X101612638Y-140040498D01*
X101440664Y-139925589D01*
X101294411Y-139779336D01*
X101179502Y-139607362D01*
X101100350Y-139416274D01*
X101060000Y-139213416D01*
X101060000Y-139006584D01*
X101100350Y-138803726D01*
X101179502Y-138612638D01*
X101294411Y-138440664D01*
X101440664Y-138294411D01*
X101612638Y-138179502D01*
X101803726Y-138100350D01*
X101984112Y-138064470D01*
X102006583Y-138060000D01*
X102213417Y-138060000D01*
X102235888Y-138064470D01*
X102235888Y-138064470D01*
G37*
G36*
X84125888Y-136454470D02*
X84306274Y-136490350D01*
X84497362Y-136569502D01*
X84669336Y-136684411D01*
X84815589Y-136830664D01*
X84930498Y-137002638D01*
X85009650Y-137193726D01*
X85050000Y-137396584D01*
X85050000Y-137603416D01*
X85009650Y-137806274D01*
X84930498Y-137997362D01*
X84815589Y-138169336D01*
X84669336Y-138315589D01*
X84497362Y-138430498D01*
X84306274Y-138509650D01*
X84125888Y-138545530D01*
X84103417Y-138550000D01*
X83896583Y-138550000D01*
X83874112Y-138545530D01*
X83693726Y-138509650D01*
X83502638Y-138430498D01*
X83330664Y-138315589D01*
X83184411Y-138169336D01*
X83069502Y-137997362D01*
X82990350Y-137806274D01*
X82950000Y-137603416D01*
X82950000Y-137396584D01*
X82990350Y-137193726D01*
X83069502Y-137002638D01*
X83184411Y-136830664D01*
X83330664Y-136684411D01*
X83502638Y-136569502D01*
X83693726Y-136490350D01*
X83874112Y-136454470D01*
X83896583Y-136450000D01*
X84103417Y-136450000D01*
X84125888Y-136454470D01*
X84125888Y-136454470D01*
G37*
G36*
X106125888Y-136454470D02*
X106306274Y-136490350D01*
X106497362Y-136569502D01*
X106669336Y-136684411D01*
X106815589Y-136830664D01*
X106930498Y-137002638D01*
X107009650Y-137193726D01*
X107050000Y-137396584D01*
X107050000Y-137603416D01*
X107009650Y-137806274D01*
X106930498Y-137997362D01*
X106815589Y-138169336D01*
X106669336Y-138315589D01*
X106497362Y-138430498D01*
X106306274Y-138509650D01*
X106125888Y-138545530D01*
X106103417Y-138550000D01*
X105896583Y-138550000D01*
X105874112Y-138545530D01*
X105693726Y-138509650D01*
X105502638Y-138430498D01*
X105330664Y-138315589D01*
X105184411Y-138169336D01*
X105069502Y-137997362D01*
X104990350Y-137806274D01*
X104950000Y-137603416D01*
X104950000Y-137396584D01*
X104990350Y-137193726D01*
X105069502Y-137002638D01*
X105184411Y-136830664D01*
X105330664Y-136684411D01*
X105502638Y-136569502D01*
X105693726Y-136490350D01*
X105874112Y-136454470D01*
X105896583Y-136450000D01*
X106103417Y-136450000D01*
X106125888Y-136454470D01*
X106125888Y-136454470D01*
G37*
G36*
X91650000Y-135900000D02*
X89850000Y-135900000D01*
X89850000Y-134100000D01*
X91650000Y-134100000D01*
X91650000Y-135900000D01*
X91650000Y-135900000D01*
G37*
G36*
X93552521Y-134134586D02*
X93716309Y-134202429D01*
X93863720Y-134300926D01*
X93989074Y-134426280D01*
X94087571Y-134573691D01*
X94155414Y-134737479D01*
X94190000Y-134911356D01*
X94190000Y-135088644D01*
X94155414Y-135262521D01*
X94087571Y-135426309D01*
X93989074Y-135573720D01*
X93863720Y-135699074D01*
X93716309Y-135797571D01*
X93552521Y-135865414D01*
X93378644Y-135900000D01*
X93201356Y-135900000D01*
X93027479Y-135865414D01*
X92863691Y-135797571D01*
X92716280Y-135699074D01*
X92590926Y-135573720D01*
X92492429Y-135426309D01*
X92424586Y-135262521D01*
X92390000Y-135088644D01*
X92390000Y-134911356D01*
X92424586Y-134737479D01*
X92492429Y-134573691D01*
X92590926Y-134426280D01*
X92716280Y-134300926D01*
X92863691Y-134202429D01*
X93027479Y-134134586D01*
X93201356Y-134100000D01*
X93378644Y-134100000D01*
X93552521Y-134134586D01*
X93552521Y-134134586D01*
G37*
G36*
X100150000Y-135900000D02*
X98350000Y-135900000D01*
X98350000Y-134100000D01*
X100150000Y-134100000D01*
X100150000Y-135900000D01*
X100150000Y-135900000D01*
G37*
G36*
X96972521Y-134134586D02*
X97136309Y-134202429D01*
X97283720Y-134300926D01*
X97409074Y-134426280D01*
X97507571Y-134573691D01*
X97575414Y-134737479D01*
X97610000Y-134911356D01*
X97610000Y-135088644D01*
X97575414Y-135262521D01*
X97507571Y-135426309D01*
X97409074Y-135573720D01*
X97283720Y-135699074D01*
X97136309Y-135797571D01*
X96972521Y-135865414D01*
X96798644Y-135900000D01*
X96621356Y-135900000D01*
X96447479Y-135865414D01*
X96283691Y-135797571D01*
X96136280Y-135699074D01*
X96010926Y-135573720D01*
X95912429Y-135426309D01*
X95844586Y-135262521D01*
X95810000Y-135088644D01*
X95810000Y-134911356D01*
X95844586Y-134737479D01*
X95912429Y-134573691D01*
X96010926Y-134426280D01*
X96136280Y-134300926D01*
X96283691Y-134202429D01*
X96447479Y-134134586D01*
X96621356Y-134100000D01*
X96798644Y-134100000D01*
X96972521Y-134134586D01*
X96972521Y-134134586D01*
G37*
G36*
X106466703Y-130461486D02*
X106757883Y-130582097D01*
X107019944Y-130757201D01*
X107242799Y-130980056D01*
X107417903Y-131242117D01*
X107538514Y-131533297D01*
X107600000Y-131842412D01*
X107600000Y-132157588D01*
X107538514Y-132466703D01*
X107417903Y-132757883D01*
X107242799Y-133019944D01*
X107019944Y-133242799D01*
X106757883Y-133417903D01*
X106466703Y-133538514D01*
X106157588Y-133600000D01*
X105842412Y-133600000D01*
X105533297Y-133538514D01*
X105242117Y-133417903D01*
X104980056Y-133242799D01*
X104757201Y-133019944D01*
X104582097Y-132757883D01*
X104461486Y-132466703D01*
X104400000Y-132157588D01*
X104400000Y-131842412D01*
X104461486Y-131533297D01*
X104582097Y-131242117D01*
X104757201Y-130980056D01*
X104980056Y-130757201D01*
X105242117Y-130582097D01*
X105533297Y-130461486D01*
X105842412Y-130400000D01*
X106157588Y-130400000D01*
X106466703Y-130461486D01*
X106466703Y-130461486D01*
G37*
G36*
X84466703Y-130461486D02*
X84757883Y-130582097D01*
X85019944Y-130757201D01*
X85242799Y-130980056D01*
X85417903Y-131242117D01*
X85538514Y-131533297D01*
X85600000Y-131842412D01*
X85600000Y-132157588D01*
X85538514Y-132466703D01*
X85417903Y-132757883D01*
X85242799Y-133019944D01*
X85019944Y-133242799D01*
X84757883Y-133417903D01*
X84466703Y-133538514D01*
X84157588Y-133600000D01*
X83842412Y-133600000D01*
X83533297Y-133538514D01*
X83242117Y-133417903D01*
X82980056Y-133242799D01*
X82757201Y-133019944D01*
X82582097Y-132757883D01*
X82461486Y-132466703D01*
X82400000Y-132157588D01*
X82400000Y-131842412D01*
X82461486Y-131533297D01*
X82582097Y-131242117D01*
X82757201Y-130980056D01*
X82980056Y-130757201D01*
X83242117Y-130582097D01*
X83533297Y-130461486D01*
X83842412Y-130400000D01*
X84157588Y-130400000D01*
X84466703Y-130461486D01*
X84466703Y-130461486D01*
G37*
G36*
X96546630Y-127662299D02*
X96706855Y-127710903D01*
X96854520Y-127789831D01*
X96983949Y-127896051D01*
X97090169Y-128025480D01*
X97169097Y-128173145D01*
X97217701Y-128333370D01*
X97234112Y-128500000D01*
X97217701Y-128666630D01*
X97169097Y-128826855D01*
X97090169Y-128974520D01*
X96983949Y-129103949D01*
X96854520Y-129210169D01*
X96706855Y-129289097D01*
X96546630Y-129337701D01*
X96421752Y-129350000D01*
X96338248Y-129350000D01*
X96213370Y-129337701D01*
X96053145Y-129289097D01*
X95905480Y-129210169D01*
X95776051Y-129103949D01*
X95669831Y-128974520D01*
X95590903Y-128826855D01*
X95542299Y-128666630D01*
X95525888Y-128500000D01*
X95542299Y-128333370D01*
X95590903Y-128173145D01*
X95669831Y-128025480D01*
X95776051Y-127896051D01*
X95905480Y-127789831D01*
X96053145Y-127710903D01*
X96213370Y-127662299D01*
X96338248Y-127650000D01*
X96421752Y-127650000D01*
X96546630Y-127662299D01*
X96546630Y-127662299D01*
G37*
G36*
X99086630Y-127662299D02*
X99246855Y-127710903D01*
X99394520Y-127789831D01*
X99523949Y-127896051D01*
X99630169Y-128025480D01*
X99709097Y-128173145D01*
X99757701Y-128333370D01*
X99774112Y-128500000D01*
X99757701Y-128666630D01*
X99709097Y-128826855D01*
X99630169Y-128974520D01*
X99523949Y-129103949D01*
X99394520Y-129210169D01*
X99246855Y-129289097D01*
X99086630Y-129337701D01*
X98961752Y-129350000D01*
X98878248Y-129350000D01*
X98753370Y-129337701D01*
X98593145Y-129289097D01*
X98445480Y-129210169D01*
X98316051Y-129103949D01*
X98209831Y-128974520D01*
X98130903Y-128826855D01*
X98082299Y-128666630D01*
X98065888Y-128500000D01*
X98082299Y-128333370D01*
X98130903Y-128173145D01*
X98209831Y-128025480D01*
X98316051Y-127896051D01*
X98445480Y-127789831D01*
X98593145Y-127710903D01*
X98753370Y-127662299D01*
X98878248Y-127650000D01*
X98961752Y-127650000D01*
X99086630Y-127662299D01*
X99086630Y-127662299D01*
G37*
G36*
X94006630Y-127662299D02*
X94166855Y-127710903D01*
X94314520Y-127789831D01*
X94443949Y-127896051D01*
X94550169Y-128025480D01*
X94629097Y-128173145D01*
X94677701Y-128333370D01*
X94694112Y-128500000D01*
X94677701Y-128666630D01*
X94629097Y-128826855D01*
X94550169Y-128974520D01*
X94443949Y-129103949D01*
X94314520Y-129210169D01*
X94166855Y-129289097D01*
X94006630Y-129337701D01*
X93881752Y-129350000D01*
X93798248Y-129350000D01*
X93673370Y-129337701D01*
X93513145Y-129289097D01*
X93365480Y-129210169D01*
X93236051Y-129103949D01*
X93129831Y-128974520D01*
X93050903Y-128826855D01*
X93002299Y-128666630D01*
X92985888Y-128500000D01*
X93002299Y-128333370D01*
X93050903Y-128173145D01*
X93129831Y-128025480D01*
X93236051Y-127896051D01*
X93365480Y-127789831D01*
X93513145Y-127710903D01*
X93673370Y-127662299D01*
X93798248Y-127650000D01*
X93881752Y-127650000D01*
X94006630Y-127662299D01*
X94006630Y-127662299D01*
G37*
G36*
X91466630Y-127662299D02*
X91626855Y-127710903D01*
X91774520Y-127789831D01*
X91903949Y-127896051D01*
X92010169Y-128025480D01*
X92089097Y-128173145D01*
X92137701Y-128333370D01*
X92154112Y-128500000D01*
X92137701Y-128666630D01*
X92089097Y-128826855D01*
X92010169Y-128974520D01*
X91903949Y-129103949D01*
X91774520Y-129210169D01*
X91626855Y-129289097D01*
X91466630Y-129337701D01*
X91341752Y-129350000D01*
X91258248Y-129350000D01*
X91133370Y-129337701D01*
X90973145Y-129289097D01*
X90825480Y-129210169D01*
X90696051Y-129103949D01*
X90589831Y-128974520D01*
X90510903Y-128826855D01*
X90462299Y-128666630D01*
X90445888Y-128500000D01*
X90462299Y-128333370D01*
X90510903Y-128173145D01*
X90589831Y-128025480D01*
X90696051Y-127896051D01*
X90825480Y-127789831D01*
X90973145Y-127710903D01*
X91133370Y-127662299D01*
X91258248Y-127650000D01*
X91341752Y-127650000D01*
X91466630Y-127662299D01*
X91466630Y-127662299D01*
G37*
G36*
X88926630Y-127662299D02*
X89086855Y-127710903D01*
X89234520Y-127789831D01*
X89363949Y-127896051D01*
X89470169Y-128025480D01*
X89549097Y-128173145D01*
X89597701Y-128333370D01*
X89614112Y-128500000D01*
X89597701Y-128666630D01*
X89549097Y-128826855D01*
X89470169Y-128974520D01*
X89363949Y-129103949D01*
X89234520Y-129210169D01*
X89086855Y-129289097D01*
X88926630Y-129337701D01*
X88801752Y-129350000D01*
X88718248Y-129350000D01*
X88593370Y-129337701D01*
X88433145Y-129289097D01*
X88285480Y-129210169D01*
X88156051Y-129103949D01*
X88049831Y-128974520D01*
X87970903Y-128826855D01*
X87922299Y-128666630D01*
X87905888Y-128500000D01*
X87922299Y-128333370D01*
X87970903Y-128173145D01*
X88049831Y-128025480D01*
X88156051Y-127896051D01*
X88285480Y-127789831D01*
X88433145Y-127710903D01*
X88593370Y-127662299D01*
X88718248Y-127650000D01*
X88801752Y-127650000D01*
X88926630Y-127662299D01*
X88926630Y-127662299D01*
G37*
G36*
X86386630Y-127662299D02*
X86546855Y-127710903D01*
X86694520Y-127789831D01*
X86823949Y-127896051D01*
X86930169Y-128025480D01*
X87009097Y-128173145D01*
X87057701Y-128333370D01*
X87074112Y-128500000D01*
X87057701Y-128666630D01*
X87009097Y-128826855D01*
X86930169Y-128974520D01*
X86823949Y-129103949D01*
X86694520Y-129210169D01*
X86546855Y-129289097D01*
X86386630Y-129337701D01*
X86261752Y-129350000D01*
X86178248Y-129350000D01*
X86053370Y-129337701D01*
X85893145Y-129289097D01*
X85745480Y-129210169D01*
X85616051Y-129103949D01*
X85509831Y-128974520D01*
X85430903Y-128826855D01*
X85382299Y-128666630D01*
X85365888Y-128500000D01*
X85382299Y-128333370D01*
X85430903Y-128173145D01*
X85509831Y-128025480D01*
X85616051Y-127896051D01*
X85745480Y-127789831D01*
X85893145Y-127710903D01*
X86053370Y-127662299D01*
X86178248Y-127650000D01*
X86261752Y-127650000D01*
X86386630Y-127662299D01*
X86386630Y-127662299D01*
G37*
G36*
X104850000Y-129350000D02*
X103150000Y-129350000D01*
X103150000Y-127650000D01*
X104850000Y-127650000D01*
X104850000Y-129350000D01*
X104850000Y-129350000D01*
G37*
G36*
X101626630Y-127662299D02*
X101786855Y-127710903D01*
X101934520Y-127789831D01*
X102063949Y-127896051D01*
X102170169Y-128025480D01*
X102249097Y-128173145D01*
X102297701Y-128333370D01*
X102314112Y-128500000D01*
X102297701Y-128666630D01*
X102249097Y-128826855D01*
X102170169Y-128974520D01*
X102063949Y-129103949D01*
X101934520Y-129210169D01*
X101786855Y-129289097D01*
X101626630Y-129337701D01*
X101501752Y-129350000D01*
X101418248Y-129350000D01*
X101293370Y-129337701D01*
X101133145Y-129289097D01*
X100985480Y-129210169D01*
X100856051Y-129103949D01*
X100749831Y-128974520D01*
X100670903Y-128826855D01*
X100622299Y-128666630D01*
X100605888Y-128500000D01*
X100622299Y-128333370D01*
X100670903Y-128173145D01*
X100749831Y-128025480D01*
X100856051Y-127896051D01*
X100985480Y-127789831D01*
X101133145Y-127710903D01*
X101293370Y-127662299D01*
X101418248Y-127650000D01*
X101501752Y-127650000D01*
X101626630Y-127662299D01*
X101626630Y-127662299D01*
G37*
G36*
X84125888Y-124454470D02*
X84306274Y-124490350D01*
X84497362Y-124569502D01*
X84669336Y-124684411D01*
X84815589Y-124830664D01*
X84930498Y-125002638D01*
X85009650Y-125193726D01*
X85050000Y-125396584D01*
X85050000Y-125603416D01*
X85009650Y-125806274D01*
X84930498Y-125997362D01*
X84815589Y-126169336D01*
X84669336Y-126315589D01*
X84497362Y-126430498D01*
X84306274Y-126509650D01*
X84125888Y-126545530D01*
X84103417Y-126550000D01*
X83896583Y-126550000D01*
X83874112Y-126545530D01*
X83693726Y-126509650D01*
X83502638Y-126430498D01*
X83330664Y-126315589D01*
X83184411Y-126169336D01*
X83069502Y-125997362D01*
X82990350Y-125806274D01*
X82950000Y-125603416D01*
X82950000Y-125396584D01*
X82990350Y-125193726D01*
X83069502Y-125002638D01*
X83184411Y-124830664D01*
X83330664Y-124684411D01*
X83502638Y-124569502D01*
X83693726Y-124490350D01*
X83874112Y-124454470D01*
X83896583Y-124450000D01*
X84103417Y-124450000D01*
X84125888Y-124454470D01*
X84125888Y-124454470D01*
G37*
G36*
X106125888Y-124454470D02*
X106306274Y-124490350D01*
X106497362Y-124569502D01*
X106669336Y-124684411D01*
X106815589Y-124830664D01*
X106930498Y-125002638D01*
X107009650Y-125193726D01*
X107050000Y-125396584D01*
X107050000Y-125603416D01*
X107009650Y-125806274D01*
X106930498Y-125997362D01*
X106815589Y-126169336D01*
X106669336Y-126315589D01*
X106497362Y-126430498D01*
X106306274Y-126509650D01*
X106125888Y-126545530D01*
X106103417Y-126550000D01*
X105896583Y-126550000D01*
X105874112Y-126545530D01*
X105693726Y-126509650D01*
X105502638Y-126430498D01*
X105330664Y-126315589D01*
X105184411Y-126169336D01*
X105069502Y-125997362D01*
X104990350Y-125806274D01*
X104950000Y-125603416D01*
X104950000Y-125396584D01*
X104990350Y-125193726D01*
X105069502Y-125002638D01*
X105184411Y-124830664D01*
X105330664Y-124684411D01*
X105502638Y-124569502D01*
X105693726Y-124490350D01*
X105874112Y-124454470D01*
X105896583Y-124450000D01*
X106103417Y-124450000D01*
X106125888Y-124454470D01*
X106125888Y-124454470D01*
G37*
G36*
X85278992Y-122304076D02*
X85312883Y-122314357D01*
X85344111Y-122331048D01*
X85371485Y-122353515D01*
X85393952Y-122380889D01*
X85410643Y-122412117D01*
X85420924Y-122446008D01*
X85425000Y-122487391D01*
X85425000Y-123512609D01*
X85420924Y-123553992D01*
X85410643Y-123587883D01*
X85393952Y-123619111D01*
X85371485Y-123646485D01*
X85344111Y-123668952D01*
X85312883Y-123685643D01*
X85278992Y-123695924D01*
X85237609Y-123700000D01*
X84637391Y-123700000D01*
X84596008Y-123695924D01*
X84562117Y-123685643D01*
X84530889Y-123668952D01*
X84503515Y-123646485D01*
X84481048Y-123619111D01*
X84464357Y-123587883D01*
X84454076Y-123553992D01*
X84450000Y-123512609D01*
X84450000Y-122487391D01*
X84454076Y-122446008D01*
X84464357Y-122412117D01*
X84481048Y-122380889D01*
X84503515Y-122353515D01*
X84530889Y-122331048D01*
X84562117Y-122314357D01*
X84596008Y-122304076D01*
X84637391Y-122300000D01*
X85237609Y-122300000D01*
X85278992Y-122304076D01*
X85278992Y-122304076D01*
G37*
G36*
X83403992Y-122304076D02*
X83437883Y-122314357D01*
X83469111Y-122331048D01*
X83496485Y-122353515D01*
X83518952Y-122380889D01*
X83535643Y-122412117D01*
X83545924Y-122446008D01*
X83550000Y-122487391D01*
X83550000Y-123512609D01*
X83545924Y-123553992D01*
X83535643Y-123587883D01*
X83518952Y-123619111D01*
X83496485Y-123646485D01*
X83469111Y-123668952D01*
X83437883Y-123685643D01*
X83403992Y-123695924D01*
X83362609Y-123700000D01*
X82762391Y-123700000D01*
X82721008Y-123695924D01*
X82687117Y-123685643D01*
X82655889Y-123668952D01*
X82628515Y-123646485D01*
X82606048Y-123619111D01*
X82589357Y-123587883D01*
X82579076Y-123553992D01*
X82575000Y-123512609D01*
X82575000Y-122487391D01*
X82579076Y-122446008D01*
X82589357Y-122412117D01*
X82606048Y-122380889D01*
X82628515Y-122353515D01*
X82655889Y-122331048D01*
X82687117Y-122314357D01*
X82721008Y-122304076D01*
X82762391Y-122300000D01*
X83362609Y-122300000D01*
X83403992Y-122304076D01*
X83403992Y-122304076D01*
G37*
G36*
X104553992Y-122704076D02*
X104587883Y-122714357D01*
X104619111Y-122731048D01*
X104646485Y-122753515D01*
X104668952Y-122780889D01*
X104685643Y-122812117D01*
X104695924Y-122846008D01*
X104700000Y-122887391D01*
X104700000Y-123487609D01*
X104695924Y-123528992D01*
X104685643Y-123562883D01*
X104668952Y-123594111D01*
X104646485Y-123621485D01*
X104619111Y-123643952D01*
X104587883Y-123660643D01*
X104553992Y-123670924D01*
X104512609Y-123675000D01*
X103487391Y-123675000D01*
X103446008Y-123670924D01*
X103412117Y-123660643D01*
X103380889Y-123643952D01*
X103353515Y-123621485D01*
X103331048Y-123594111D01*
X103314357Y-123562883D01*
X103304076Y-123528992D01*
X103300000Y-123487609D01*
X103300000Y-122887391D01*
X103304076Y-122846008D01*
X103314357Y-122812117D01*
X103331048Y-122780889D01*
X103353515Y-122753515D01*
X103380889Y-122731048D01*
X103412117Y-122714357D01*
X103446008Y-122704076D01*
X103487391Y-122700000D01*
X104512609Y-122700000D01*
X104553992Y-122704076D01*
X104553992Y-122704076D01*
G37*
G36*
X108553992Y-122704076D02*
X108587883Y-122714357D01*
X108619111Y-122731048D01*
X108646485Y-122753515D01*
X108668952Y-122780889D01*
X108685643Y-122812117D01*
X108695924Y-122846008D01*
X108700000Y-122887391D01*
X108700000Y-123487609D01*
X108695924Y-123528992D01*
X108685643Y-123562883D01*
X108668952Y-123594111D01*
X108646485Y-123621485D01*
X108619111Y-123643952D01*
X108587883Y-123660643D01*
X108553992Y-123670924D01*
X108512609Y-123675000D01*
X107487391Y-123675000D01*
X107446008Y-123670924D01*
X107412117Y-123660643D01*
X107380889Y-123643952D01*
X107353515Y-123621485D01*
X107331048Y-123594111D01*
X107314357Y-123562883D01*
X107304076Y-123528992D01*
X107300000Y-123487609D01*
X107300000Y-122887391D01*
X107304076Y-122846008D01*
X107314357Y-122812117D01*
X107331048Y-122780889D01*
X107353515Y-122753515D01*
X107380889Y-122731048D01*
X107412117Y-122714357D01*
X107446008Y-122704076D01*
X107487391Y-122700000D01*
X108512609Y-122700000D01*
X108553992Y-122704076D01*
X108553992Y-122704076D01*
G37*
G36*
X111625888Y-119954470D02*
X111806274Y-119990350D01*
X111997362Y-120069502D01*
X112169336Y-120184411D01*
X112315589Y-120330664D01*
X112430498Y-120502638D01*
X112509650Y-120693726D01*
X112550000Y-120896584D01*
X112550000Y-121103416D01*
X112509650Y-121306274D01*
X112430498Y-121497362D01*
X112315589Y-121669336D01*
X112169336Y-121815589D01*
X111997362Y-121930498D01*
X111806274Y-122009650D01*
X111625888Y-122045530D01*
X111603417Y-122050000D01*
X111396583Y-122050000D01*
X111374112Y-122045530D01*
X111193726Y-122009650D01*
X111002638Y-121930498D01*
X110830664Y-121815589D01*
X110684411Y-121669336D01*
X110569502Y-121497362D01*
X110490350Y-121306274D01*
X110450000Y-121103416D01*
X110450000Y-120896584D01*
X110490350Y-120693726D01*
X110569502Y-120502638D01*
X110684411Y-120330664D01*
X110830664Y-120184411D01*
X111002638Y-120069502D01*
X111193726Y-119990350D01*
X111374112Y-119954470D01*
X111396583Y-119950000D01*
X111603417Y-119950000D01*
X111625888Y-119954470D01*
X111625888Y-119954470D01*
G37*
G36*
X101550000Y-122050000D02*
X99450000Y-122050000D01*
X99450000Y-119950000D01*
X101550000Y-119950000D01*
X101550000Y-122050000D01*
X101550000Y-122050000D01*
G37*
G36*
X89625888Y-119954470D02*
X89806274Y-119990350D01*
X89997362Y-120069502D01*
X90169336Y-120184411D01*
X90315589Y-120330664D01*
X90430498Y-120502638D01*
X90509650Y-120693726D01*
X90550000Y-120896584D01*
X90550000Y-121103416D01*
X90509650Y-121306274D01*
X90430498Y-121497362D01*
X90315589Y-121669336D01*
X90169336Y-121815589D01*
X89997362Y-121930498D01*
X89806274Y-122009650D01*
X89625888Y-122045530D01*
X89603417Y-122050000D01*
X89396583Y-122050000D01*
X89374112Y-122045530D01*
X89193726Y-122009650D01*
X89002638Y-121930498D01*
X88830664Y-121815589D01*
X88684411Y-121669336D01*
X88569502Y-121497362D01*
X88490350Y-121306274D01*
X88450000Y-121103416D01*
X88450000Y-120896584D01*
X88490350Y-120693726D01*
X88569502Y-120502638D01*
X88684411Y-120330664D01*
X88830664Y-120184411D01*
X89002638Y-120069502D01*
X89193726Y-119990350D01*
X89374112Y-119954470D01*
X89396583Y-119950000D01*
X89603417Y-119950000D01*
X89625888Y-119954470D01*
X89625888Y-119954470D01*
G37*
G36*
X79550000Y-122050000D02*
X77450000Y-122050000D01*
X77450000Y-119950000D01*
X79550000Y-119950000D01*
X79550000Y-122050000D01*
X79550000Y-122050000D01*
G37*
G36*
X104553992Y-120829076D02*
X104587883Y-120839357D01*
X104619111Y-120856048D01*
X104646485Y-120878515D01*
X104668952Y-120905889D01*
X104685643Y-120937117D01*
X104695924Y-120971008D01*
X104700000Y-121012391D01*
X104700000Y-121612609D01*
X104695924Y-121653992D01*
X104685643Y-121687883D01*
X104668952Y-121719111D01*
X104646485Y-121746485D01*
X104619111Y-121768952D01*
X104587883Y-121785643D01*
X104553992Y-121795924D01*
X104512609Y-121800000D01*
X103487391Y-121800000D01*
X103446008Y-121795924D01*
X103412117Y-121785643D01*
X103380889Y-121768952D01*
X103353515Y-121746485D01*
X103331048Y-121719111D01*
X103314357Y-121687883D01*
X103304076Y-121653992D01*
X103300000Y-121612609D01*
X103300000Y-121012391D01*
X103304076Y-120971008D01*
X103314357Y-120937117D01*
X103331048Y-120905889D01*
X103353515Y-120878515D01*
X103380889Y-120856048D01*
X103412117Y-120839357D01*
X103446008Y-120829076D01*
X103487391Y-120825000D01*
X104512609Y-120825000D01*
X104553992Y-120829076D01*
X104553992Y-120829076D01*
G37*
G36*
X108553992Y-120829076D02*
X108587883Y-120839357D01*
X108619111Y-120856048D01*
X108646485Y-120878515D01*
X108668952Y-120905889D01*
X108685643Y-120937117D01*
X108695924Y-120971008D01*
X108700000Y-121012391D01*
X108700000Y-121612609D01*
X108695924Y-121653992D01*
X108685643Y-121687883D01*
X108668952Y-121719111D01*
X108646485Y-121746485D01*
X108619111Y-121768952D01*
X108587883Y-121785643D01*
X108553992Y-121795924D01*
X108512609Y-121800000D01*
X107487391Y-121800000D01*
X107446008Y-121795924D01*
X107412117Y-121785643D01*
X107380889Y-121768952D01*
X107353515Y-121746485D01*
X107331048Y-121719111D01*
X107314357Y-121687883D01*
X107304076Y-121653992D01*
X107300000Y-121612609D01*
X107300000Y-121012391D01*
X107304076Y-120971008D01*
X107314357Y-120937117D01*
X107331048Y-120905889D01*
X107353515Y-120878515D01*
X107380889Y-120856048D01*
X107412117Y-120839357D01*
X107446008Y-120829076D01*
X107487391Y-120825000D01*
X108512609Y-120825000D01*
X108553992Y-120829076D01*
X108553992Y-120829076D01*
G37*
G36*
X83455522Y-120304039D02*
X83489053Y-120314211D01*
X83519960Y-120330731D01*
X83547043Y-120352957D01*
X83569269Y-120380040D01*
X83585789Y-120410947D01*
X83595961Y-120444478D01*
X83600000Y-120485487D01*
X83600000Y-121514513D01*
X83595961Y-121555522D01*
X83585789Y-121589053D01*
X83569269Y-121619960D01*
X83547043Y-121647043D01*
X83519960Y-121669269D01*
X83489053Y-121685789D01*
X83455522Y-121695961D01*
X83414513Y-121700000D01*
X82635487Y-121700000D01*
X82594478Y-121695961D01*
X82560947Y-121685789D01*
X82530040Y-121669269D01*
X82502957Y-121647043D01*
X82480731Y-121619960D01*
X82464211Y-121589053D01*
X82454039Y-121555522D01*
X82450000Y-121514513D01*
X82450000Y-120485487D01*
X82454039Y-120444478D01*
X82464211Y-120410947D01*
X82480731Y-120380040D01*
X82502957Y-120352957D01*
X82530040Y-120330731D01*
X82560947Y-120314211D01*
X82594478Y-120304039D01*
X82635487Y-120300000D01*
X83414513Y-120300000D01*
X83455522Y-120304039D01*
X83455522Y-120304039D01*
G37*
G36*
X81405522Y-120304039D02*
X81439053Y-120314211D01*
X81469960Y-120330731D01*
X81497043Y-120352957D01*
X81519269Y-120380040D01*
X81535789Y-120410947D01*
X81545961Y-120444478D01*
X81550000Y-120485487D01*
X81550000Y-121514513D01*
X81545961Y-121555522D01*
X81535789Y-121589053D01*
X81519269Y-121619960D01*
X81497043Y-121647043D01*
X81469960Y-121669269D01*
X81439053Y-121685789D01*
X81405522Y-121695961D01*
X81364513Y-121700000D01*
X80585487Y-121700000D01*
X80544478Y-121695961D01*
X80510947Y-121685789D01*
X80480040Y-121669269D01*
X80452957Y-121647043D01*
X80430731Y-121619960D01*
X80414211Y-121589053D01*
X80404039Y-121555522D01*
X80400000Y-121514513D01*
X80400000Y-120485487D01*
X80404039Y-120444478D01*
X80414211Y-120410947D01*
X80430731Y-120380040D01*
X80452957Y-120352957D01*
X80480040Y-120330731D01*
X80510947Y-120314211D01*
X80544478Y-120304039D01*
X80585487Y-120300000D01*
X81364513Y-120300000D01*
X81405522Y-120304039D01*
X81405522Y-120304039D01*
G37*
G36*
X85380522Y-120304039D02*
X85414053Y-120314211D01*
X85444960Y-120330731D01*
X85472043Y-120352957D01*
X85494269Y-120380040D01*
X85510789Y-120410947D01*
X85520961Y-120444478D01*
X85525000Y-120485487D01*
X85525000Y-121514513D01*
X85520961Y-121555522D01*
X85510789Y-121589053D01*
X85494269Y-121619960D01*
X85472043Y-121647043D01*
X85444960Y-121669269D01*
X85414053Y-121685789D01*
X85380522Y-121695961D01*
X85339513Y-121700000D01*
X84560487Y-121700000D01*
X84519478Y-121695961D01*
X84485947Y-121685789D01*
X84455040Y-121669269D01*
X84427957Y-121647043D01*
X84405731Y-121619960D01*
X84389211Y-121589053D01*
X84379039Y-121555522D01*
X84375000Y-121514513D01*
X84375000Y-120485487D01*
X84379039Y-120444478D01*
X84389211Y-120410947D01*
X84405731Y-120380040D01*
X84427957Y-120352957D01*
X84455040Y-120330731D01*
X84485947Y-120314211D01*
X84519478Y-120304039D01*
X84560487Y-120300000D01*
X85339513Y-120300000D01*
X85380522Y-120304039D01*
X85380522Y-120304039D01*
G37*
G36*
X87430522Y-120304039D02*
X87464053Y-120314211D01*
X87494960Y-120330731D01*
X87522043Y-120352957D01*
X87544269Y-120380040D01*
X87560789Y-120410947D01*
X87570961Y-120444478D01*
X87575000Y-120485487D01*
X87575000Y-121514513D01*
X87570961Y-121555522D01*
X87560789Y-121589053D01*
X87544269Y-121619960D01*
X87522043Y-121647043D01*
X87494960Y-121669269D01*
X87464053Y-121685789D01*
X87430522Y-121695961D01*
X87389513Y-121700000D01*
X86610487Y-121700000D01*
X86569478Y-121695961D01*
X86535947Y-121685789D01*
X86505040Y-121669269D01*
X86477957Y-121647043D01*
X86455731Y-121619960D01*
X86439211Y-121589053D01*
X86429039Y-121555522D01*
X86425000Y-121514513D01*
X86425000Y-120485487D01*
X86429039Y-120444478D01*
X86439211Y-120410947D01*
X86455731Y-120380040D01*
X86477957Y-120352957D01*
X86505040Y-120330731D01*
X86535947Y-120314211D01*
X86569478Y-120304039D01*
X86610487Y-120300000D01*
X87389513Y-120300000D01*
X87430522Y-120304039D01*
X87430522Y-120304039D01*
G37*
G36*
X103155522Y-118804039D02*
X103189053Y-118814211D01*
X103219960Y-118830731D01*
X103247043Y-118852957D01*
X103269269Y-118880040D01*
X103285789Y-118910947D01*
X103295961Y-118944478D01*
X103300000Y-118985487D01*
X103300000Y-120014513D01*
X103295961Y-120055522D01*
X103285789Y-120089053D01*
X103269269Y-120119960D01*
X103247043Y-120147043D01*
X103219960Y-120169269D01*
X103189053Y-120185789D01*
X103155522Y-120195961D01*
X103114513Y-120200000D01*
X102335487Y-120200000D01*
X102294478Y-120195961D01*
X102260947Y-120185789D01*
X102230040Y-120169269D01*
X102202957Y-120147043D01*
X102180731Y-120119960D01*
X102164211Y-120089053D01*
X102154039Y-120055522D01*
X102150000Y-120014513D01*
X102150000Y-118985487D01*
X102154039Y-118944478D01*
X102164211Y-118910947D01*
X102180731Y-118880040D01*
X102202957Y-118852957D01*
X102230040Y-118830731D01*
X102260947Y-118814211D01*
X102294478Y-118804039D01*
X102335487Y-118800000D01*
X103114513Y-118800000D01*
X103155522Y-118804039D01*
X103155522Y-118804039D01*
G37*
G36*
X105205522Y-118804039D02*
X105239053Y-118814211D01*
X105269960Y-118830731D01*
X105297043Y-118852957D01*
X105319269Y-118880040D01*
X105335789Y-118910947D01*
X105345961Y-118944478D01*
X105350000Y-118985487D01*
X105350000Y-120014513D01*
X105345961Y-120055522D01*
X105335789Y-120089053D01*
X105319269Y-120119960D01*
X105297043Y-120147043D01*
X105269960Y-120169269D01*
X105239053Y-120185789D01*
X105205522Y-120195961D01*
X105164513Y-120200000D01*
X104385487Y-120200000D01*
X104344478Y-120195961D01*
X104310947Y-120185789D01*
X104280040Y-120169269D01*
X104252957Y-120147043D01*
X104230731Y-120119960D01*
X104214211Y-120089053D01*
X104204039Y-120055522D01*
X104200000Y-120014513D01*
X104200000Y-118985487D01*
X104204039Y-118944478D01*
X104214211Y-118910947D01*
X104230731Y-118880040D01*
X104252957Y-118852957D01*
X104280040Y-118830731D01*
X104310947Y-118814211D01*
X104344478Y-118804039D01*
X104385487Y-118800000D01*
X105164513Y-118800000D01*
X105205522Y-118804039D01*
X105205522Y-118804039D01*
G37*
G36*
X107655522Y-118804039D02*
X107689053Y-118814211D01*
X107719960Y-118830731D01*
X107747043Y-118852957D01*
X107769269Y-118880040D01*
X107785789Y-118910947D01*
X107795961Y-118944478D01*
X107800000Y-118985487D01*
X107800000Y-120014513D01*
X107795961Y-120055522D01*
X107785789Y-120089053D01*
X107769269Y-120119960D01*
X107747043Y-120147043D01*
X107719960Y-120169269D01*
X107689053Y-120185789D01*
X107655522Y-120195961D01*
X107614513Y-120200000D01*
X106835487Y-120200000D01*
X106794478Y-120195961D01*
X106760947Y-120185789D01*
X106730040Y-120169269D01*
X106702957Y-120147043D01*
X106680731Y-120119960D01*
X106664211Y-120089053D01*
X106654039Y-120055522D01*
X106650000Y-120014513D01*
X106650000Y-118985487D01*
X106654039Y-118944478D01*
X106664211Y-118910947D01*
X106680731Y-118880040D01*
X106702957Y-118852957D01*
X106730040Y-118830731D01*
X106760947Y-118814211D01*
X106794478Y-118804039D01*
X106835487Y-118800000D01*
X107614513Y-118800000D01*
X107655522Y-118804039D01*
X107655522Y-118804039D01*
G37*
G36*
X109705522Y-118804039D02*
X109739053Y-118814211D01*
X109769960Y-118830731D01*
X109797043Y-118852957D01*
X109819269Y-118880040D01*
X109835789Y-118910947D01*
X109845961Y-118944478D01*
X109850000Y-118985487D01*
X109850000Y-120014513D01*
X109845961Y-120055522D01*
X109835789Y-120089053D01*
X109819269Y-120119960D01*
X109797043Y-120147043D01*
X109769960Y-120169269D01*
X109739053Y-120185789D01*
X109705522Y-120195961D01*
X109664513Y-120200000D01*
X108885487Y-120200000D01*
X108844478Y-120195961D01*
X108810947Y-120185789D01*
X108780040Y-120169269D01*
X108752957Y-120147043D01*
X108730731Y-120119960D01*
X108714211Y-120089053D01*
X108704039Y-120055522D01*
X108700000Y-120014513D01*
X108700000Y-118985487D01*
X108704039Y-118944478D01*
X108714211Y-118910947D01*
X108730731Y-118880040D01*
X108752957Y-118852957D01*
X108780040Y-118830731D01*
X108810947Y-118814211D01*
X108844478Y-118804039D01*
X108885487Y-118800000D01*
X109664513Y-118800000D01*
X109705522Y-118804039D01*
X109705522Y-118804039D01*
G37*
G36*
X83403992Y-118304076D02*
X83437883Y-118314357D01*
X83469111Y-118331048D01*
X83496485Y-118353515D01*
X83518952Y-118380889D01*
X83535643Y-118412117D01*
X83545924Y-118446008D01*
X83550000Y-118487391D01*
X83550000Y-119512609D01*
X83545924Y-119553992D01*
X83535643Y-119587883D01*
X83518952Y-119619111D01*
X83496485Y-119646485D01*
X83469111Y-119668952D01*
X83437883Y-119685643D01*
X83403992Y-119695924D01*
X83362609Y-119700000D01*
X82762391Y-119700000D01*
X82721008Y-119695924D01*
X82687117Y-119685643D01*
X82655889Y-119668952D01*
X82628515Y-119646485D01*
X82606048Y-119619111D01*
X82589357Y-119587883D01*
X82579076Y-119553992D01*
X82575000Y-119512609D01*
X82575000Y-118487391D01*
X82579076Y-118446008D01*
X82589357Y-118412117D01*
X82606048Y-118380889D01*
X82628515Y-118353515D01*
X82655889Y-118331048D01*
X82687117Y-118314357D01*
X82721008Y-118304076D01*
X82762391Y-118300000D01*
X83362609Y-118300000D01*
X83403992Y-118304076D01*
X83403992Y-118304076D01*
G37*
G36*
X85278992Y-118304076D02*
X85312883Y-118314357D01*
X85344111Y-118331048D01*
X85371485Y-118353515D01*
X85393952Y-118380889D01*
X85410643Y-118412117D01*
X85420924Y-118446008D01*
X85425000Y-118487391D01*
X85425000Y-119512609D01*
X85420924Y-119553992D01*
X85410643Y-119587883D01*
X85393952Y-119619111D01*
X85371485Y-119646485D01*
X85344111Y-119668952D01*
X85312883Y-119685643D01*
X85278992Y-119695924D01*
X85237609Y-119700000D01*
X84637391Y-119700000D01*
X84596008Y-119695924D01*
X84562117Y-119685643D01*
X84530889Y-119668952D01*
X84503515Y-119646485D01*
X84481048Y-119619111D01*
X84464357Y-119587883D01*
X84454076Y-119553992D01*
X84450000Y-119512609D01*
X84450000Y-118487391D01*
X84454076Y-118446008D01*
X84464357Y-118412117D01*
X84481048Y-118380889D01*
X84503515Y-118353515D01*
X84530889Y-118331048D01*
X84562117Y-118314357D01*
X84596008Y-118304076D01*
X84637391Y-118300000D01*
X85237609Y-118300000D01*
X85278992Y-118304076D01*
X85278992Y-118304076D01*
G37*
G36*
X110015888Y-116064470D02*
X110196274Y-116100350D01*
X110387362Y-116179502D01*
X110559336Y-116294411D01*
X110705589Y-116440664D01*
X110820498Y-116612638D01*
X110899650Y-116803726D01*
X110940000Y-117006584D01*
X110940000Y-117213416D01*
X110899650Y-117416274D01*
X110820498Y-117607362D01*
X110705589Y-117779336D01*
X110559336Y-117925589D01*
X110387362Y-118040498D01*
X110196274Y-118119650D01*
X110015888Y-118155530D01*
X109993417Y-118160000D01*
X109786583Y-118160000D01*
X109764112Y-118155530D01*
X109583726Y-118119650D01*
X109392638Y-118040498D01*
X109220664Y-117925589D01*
X109074411Y-117779336D01*
X108959502Y-117607362D01*
X108880350Y-117416274D01*
X108840000Y-117213416D01*
X108840000Y-117006584D01*
X108880350Y-116803726D01*
X108959502Y-116612638D01*
X109074411Y-116440664D01*
X109220664Y-116294411D01*
X109392638Y-116179502D01*
X109583726Y-116100350D01*
X109764112Y-116064470D01*
X109786583Y-116060000D01*
X109993417Y-116060000D01*
X110015888Y-116064470D01*
X110015888Y-116064470D01*
G37*
G36*
X80235888Y-116064470D02*
X80416274Y-116100350D01*
X80607362Y-116179502D01*
X80779336Y-116294411D01*
X80925589Y-116440664D01*
X81040498Y-116612638D01*
X81119650Y-116803726D01*
X81160000Y-117006584D01*
X81160000Y-117213416D01*
X81119650Y-117416274D01*
X81040498Y-117607362D01*
X80925589Y-117779336D01*
X80779336Y-117925589D01*
X80607362Y-118040498D01*
X80416274Y-118119650D01*
X80235888Y-118155530D01*
X80213417Y-118160000D01*
X80006583Y-118160000D01*
X79984112Y-118155530D01*
X79803726Y-118119650D01*
X79612638Y-118040498D01*
X79440664Y-117925589D01*
X79294411Y-117779336D01*
X79179502Y-117607362D01*
X79100350Y-117416274D01*
X79060000Y-117213416D01*
X79060000Y-117006584D01*
X79100350Y-116803726D01*
X79179502Y-116612638D01*
X79294411Y-116440664D01*
X79440664Y-116294411D01*
X79612638Y-116179502D01*
X79803726Y-116100350D01*
X79984112Y-116064470D01*
X80006583Y-116060000D01*
X80213417Y-116060000D01*
X80235888Y-116064470D01*
X80235888Y-116064470D01*
G37*
G36*
X102235888Y-116064470D02*
X102416274Y-116100350D01*
X102607362Y-116179502D01*
X102779336Y-116294411D01*
X102925589Y-116440664D01*
X103040498Y-116612638D01*
X103119650Y-116803726D01*
X103160000Y-117006584D01*
X103160000Y-117213416D01*
X103119650Y-117416274D01*
X103040498Y-117607362D01*
X102925589Y-117779336D01*
X102779336Y-117925589D01*
X102607362Y-118040498D01*
X102416274Y-118119650D01*
X102235888Y-118155530D01*
X102213417Y-118160000D01*
X102006583Y-118160000D01*
X101984112Y-118155530D01*
X101803726Y-118119650D01*
X101612638Y-118040498D01*
X101440664Y-117925589D01*
X101294411Y-117779336D01*
X101179502Y-117607362D01*
X101100350Y-117416274D01*
X101060000Y-117213416D01*
X101060000Y-117006584D01*
X101100350Y-116803726D01*
X101179502Y-116612638D01*
X101294411Y-116440664D01*
X101440664Y-116294411D01*
X101612638Y-116179502D01*
X101803726Y-116100350D01*
X101984112Y-116064470D01*
X102006583Y-116060000D01*
X102213417Y-116060000D01*
X102235888Y-116064470D01*
X102235888Y-116064470D01*
G37*
G36*
X88015888Y-116064470D02*
X88196274Y-116100350D01*
X88387362Y-116179502D01*
X88559336Y-116294411D01*
X88705589Y-116440664D01*
X88820498Y-116612638D01*
X88899650Y-116803726D01*
X88940000Y-117006584D01*
X88940000Y-117213416D01*
X88899650Y-117416274D01*
X88820498Y-117607362D01*
X88705589Y-117779336D01*
X88559336Y-117925589D01*
X88387362Y-118040498D01*
X88196274Y-118119650D01*
X88015888Y-118155530D01*
X87993417Y-118160000D01*
X87786583Y-118160000D01*
X87764112Y-118155530D01*
X87583726Y-118119650D01*
X87392638Y-118040498D01*
X87220664Y-117925589D01*
X87074411Y-117779336D01*
X86959502Y-117607362D01*
X86880350Y-117416274D01*
X86840000Y-117213416D01*
X86840000Y-117006584D01*
X86880350Y-116803726D01*
X86959502Y-116612638D01*
X87074411Y-116440664D01*
X87220664Y-116294411D01*
X87392638Y-116179502D01*
X87583726Y-116100350D01*
X87764112Y-116064470D01*
X87786583Y-116060000D01*
X87993417Y-116060000D01*
X88015888Y-116064470D01*
X88015888Y-116064470D01*
G37*
G36*
X106125888Y-114454470D02*
X106306274Y-114490350D01*
X106497362Y-114569502D01*
X106669336Y-114684411D01*
X106815589Y-114830664D01*
X106930498Y-115002638D01*
X107009650Y-115193726D01*
X107050000Y-115396584D01*
X107050000Y-115603416D01*
X107009650Y-115806274D01*
X106930498Y-115997362D01*
X106815589Y-116169336D01*
X106669336Y-116315589D01*
X106497362Y-116430498D01*
X106306274Y-116509650D01*
X106125888Y-116545530D01*
X106103417Y-116550000D01*
X105896583Y-116550000D01*
X105874112Y-116545530D01*
X105693726Y-116509650D01*
X105502638Y-116430498D01*
X105330664Y-116315589D01*
X105184411Y-116169336D01*
X105069502Y-115997362D01*
X104990350Y-115806274D01*
X104950000Y-115603416D01*
X104950000Y-115396584D01*
X104990350Y-115193726D01*
X105069502Y-115002638D01*
X105184411Y-114830664D01*
X105330664Y-114684411D01*
X105502638Y-114569502D01*
X105693726Y-114490350D01*
X105874112Y-114454470D01*
X105896583Y-114450000D01*
X106103417Y-114450000D01*
X106125888Y-114454470D01*
X106125888Y-114454470D01*
G37*
G36*
X84125888Y-114454470D02*
X84306274Y-114490350D01*
X84497362Y-114569502D01*
X84669336Y-114684411D01*
X84815589Y-114830664D01*
X84930498Y-115002638D01*
X85009650Y-115193726D01*
X85050000Y-115396584D01*
X85050000Y-115603416D01*
X85009650Y-115806274D01*
X84930498Y-115997362D01*
X84815589Y-116169336D01*
X84669336Y-116315589D01*
X84497362Y-116430498D01*
X84306274Y-116509650D01*
X84125888Y-116545530D01*
X84103417Y-116550000D01*
X83896583Y-116550000D01*
X83874112Y-116545530D01*
X83693726Y-116509650D01*
X83502638Y-116430498D01*
X83330664Y-116315589D01*
X83184411Y-116169336D01*
X83069502Y-115997362D01*
X82990350Y-115806274D01*
X82950000Y-115603416D01*
X82950000Y-115396584D01*
X82990350Y-115193726D01*
X83069502Y-115002638D01*
X83184411Y-114830664D01*
X83330664Y-114684411D01*
X83502638Y-114569502D01*
X83693726Y-114490350D01*
X83874112Y-114454470D01*
X83896583Y-114450000D01*
X84103417Y-114450000D01*
X84125888Y-114454470D01*
X84125888Y-114454470D01*
G37*
G36*
X96972521Y-112134586D02*
X97136309Y-112202429D01*
X97283720Y-112300926D01*
X97409074Y-112426280D01*
X97507571Y-112573691D01*
X97575414Y-112737479D01*
X97610000Y-112911356D01*
X97610000Y-113088644D01*
X97575414Y-113262521D01*
X97507571Y-113426309D01*
X97409074Y-113573720D01*
X97283720Y-113699074D01*
X97136309Y-113797571D01*
X96972521Y-113865414D01*
X96798644Y-113900000D01*
X96621356Y-113900000D01*
X96447479Y-113865414D01*
X96283691Y-113797571D01*
X96136280Y-113699074D01*
X96010926Y-113573720D01*
X95912429Y-113426309D01*
X95844586Y-113262521D01*
X95810000Y-113088644D01*
X95810000Y-112911356D01*
X95844586Y-112737479D01*
X95912429Y-112573691D01*
X96010926Y-112426280D01*
X96136280Y-112300926D01*
X96283691Y-112202429D01*
X96447479Y-112134586D01*
X96621356Y-112100000D01*
X96798644Y-112100000D01*
X96972521Y-112134586D01*
X96972521Y-112134586D01*
G37*
G36*
X93552521Y-112134586D02*
X93716309Y-112202429D01*
X93863720Y-112300926D01*
X93989074Y-112426280D01*
X94087571Y-112573691D01*
X94155414Y-112737479D01*
X94190000Y-112911356D01*
X94190000Y-113088644D01*
X94155414Y-113262521D01*
X94087571Y-113426309D01*
X93989074Y-113573720D01*
X93863720Y-113699074D01*
X93716309Y-113797571D01*
X93552521Y-113865414D01*
X93378644Y-113900000D01*
X93201356Y-113900000D01*
X93027479Y-113865414D01*
X92863691Y-113797571D01*
X92716280Y-113699074D01*
X92590926Y-113573720D01*
X92492429Y-113426309D01*
X92424586Y-113262521D01*
X92390000Y-113088644D01*
X92390000Y-112911356D01*
X92424586Y-112737479D01*
X92492429Y-112573691D01*
X92590926Y-112426280D01*
X92716280Y-112300926D01*
X92863691Y-112202429D01*
X93027479Y-112134586D01*
X93201356Y-112100000D01*
X93378644Y-112100000D01*
X93552521Y-112134586D01*
X93552521Y-112134586D01*
G37*
G36*
X100150000Y-113900000D02*
X98350000Y-113900000D01*
X98350000Y-112100000D01*
X100150000Y-112100000D01*
X100150000Y-113900000D01*
X100150000Y-113900000D01*
G37*
G36*
X91650000Y-113900000D02*
X89850000Y-113900000D01*
X89850000Y-112100000D01*
X91650000Y-112100000D01*
X91650000Y-113900000D01*
X91650000Y-113900000D01*
G37*
G36*
X103278992Y-109304076D02*
X103312883Y-109314357D01*
X103344111Y-109331048D01*
X103371485Y-109353515D01*
X103393952Y-109380889D01*
X103410643Y-109412117D01*
X103420924Y-109446008D01*
X103425000Y-109487391D01*
X103425000Y-110512609D01*
X103420924Y-110553992D01*
X103410643Y-110587883D01*
X103393952Y-110619111D01*
X103371485Y-110646485D01*
X103344111Y-110668952D01*
X103312883Y-110685643D01*
X103278992Y-110695924D01*
X103237609Y-110700000D01*
X102637391Y-110700000D01*
X102596008Y-110695924D01*
X102562117Y-110685643D01*
X102530889Y-110668952D01*
X102503515Y-110646485D01*
X102481048Y-110619111D01*
X102464357Y-110587883D01*
X102454076Y-110553992D01*
X102450000Y-110512609D01*
X102450000Y-109487391D01*
X102454076Y-109446008D01*
X102464357Y-109412117D01*
X102481048Y-109380889D01*
X102503515Y-109353515D01*
X102530889Y-109331048D01*
X102562117Y-109314357D01*
X102596008Y-109304076D01*
X102637391Y-109300000D01*
X103237609Y-109300000D01*
X103278992Y-109304076D01*
X103278992Y-109304076D01*
G37*
G36*
X101403992Y-109304076D02*
X101437883Y-109314357D01*
X101469111Y-109331048D01*
X101496485Y-109353515D01*
X101518952Y-109380889D01*
X101535643Y-109412117D01*
X101545924Y-109446008D01*
X101550000Y-109487391D01*
X101550000Y-110512609D01*
X101545924Y-110553992D01*
X101535643Y-110587883D01*
X101518952Y-110619111D01*
X101496485Y-110646485D01*
X101469111Y-110668952D01*
X101437883Y-110685643D01*
X101403992Y-110695924D01*
X101362609Y-110700000D01*
X100762391Y-110700000D01*
X100721008Y-110695924D01*
X100687117Y-110685643D01*
X100655889Y-110668952D01*
X100628515Y-110646485D01*
X100606048Y-110619111D01*
X100589357Y-110587883D01*
X100579076Y-110553992D01*
X100575000Y-110512609D01*
X100575000Y-109487391D01*
X100579076Y-109446008D01*
X100589357Y-109412117D01*
X100606048Y-109380889D01*
X100628515Y-109353515D01*
X100655889Y-109331048D01*
X100687117Y-109314357D01*
X100721008Y-109304076D01*
X100762391Y-109300000D01*
X101362609Y-109300000D01*
X101403992Y-109304076D01*
X101403992Y-109304076D01*
G37*
G36*
X92500000Y-109850000D02*
X91200000Y-109850000D01*
X91200000Y-109050000D01*
X92500000Y-109050000D01*
X92500000Y-109850000D01*
X92500000Y-109850000D01*
G37*
G36*
X98800000Y-109850000D02*
X97500000Y-109850000D01*
X97500000Y-109050000D01*
X98800000Y-109050000D01*
X98800000Y-109850000D01*
X98800000Y-109850000D01*
G37*
G36*
X101403992Y-107304076D02*
X101437883Y-107314357D01*
X101469111Y-107331048D01*
X101496485Y-107353515D01*
X101518952Y-107380889D01*
X101535643Y-107412117D01*
X101545924Y-107446008D01*
X101550000Y-107487391D01*
X101550000Y-108512609D01*
X101545924Y-108553992D01*
X101535643Y-108587883D01*
X101518952Y-108619111D01*
X101496485Y-108646485D01*
X101469111Y-108668952D01*
X101437883Y-108685643D01*
X101403992Y-108695924D01*
X101362609Y-108700000D01*
X100762391Y-108700000D01*
X100721008Y-108695924D01*
X100687117Y-108685643D01*
X100655889Y-108668952D01*
X100628515Y-108646485D01*
X100606048Y-108619111D01*
X100589357Y-108587883D01*
X100579076Y-108553992D01*
X100575000Y-108512609D01*
X100575000Y-107487391D01*
X100579076Y-107446008D01*
X100589357Y-107412117D01*
X100606048Y-107380889D01*
X100628515Y-107353515D01*
X100655889Y-107331048D01*
X100687117Y-107314357D01*
X100721008Y-107304076D01*
X100762391Y-107300000D01*
X101362609Y-107300000D01*
X101403992Y-107304076D01*
X101403992Y-107304076D01*
G37*
G36*
X103278992Y-107304076D02*
X103312883Y-107314357D01*
X103344111Y-107331048D01*
X103371485Y-107353515D01*
X103393952Y-107380889D01*
X103410643Y-107412117D01*
X103420924Y-107446008D01*
X103425000Y-107487391D01*
X103425000Y-108512609D01*
X103420924Y-108553992D01*
X103410643Y-108587883D01*
X103393952Y-108619111D01*
X103371485Y-108646485D01*
X103344111Y-108668952D01*
X103312883Y-108685643D01*
X103278992Y-108695924D01*
X103237609Y-108700000D01*
X102637391Y-108700000D01*
X102596008Y-108695924D01*
X102562117Y-108685643D01*
X102530889Y-108668952D01*
X102503515Y-108646485D01*
X102481048Y-108619111D01*
X102464357Y-108587883D01*
X102454076Y-108553992D01*
X102450000Y-108512609D01*
X102450000Y-107487391D01*
X102454076Y-107446008D01*
X102464357Y-107412117D01*
X102481048Y-107380889D01*
X102503515Y-107353515D01*
X102530889Y-107331048D01*
X102562117Y-107314357D01*
X102596008Y-107304076D01*
X102637391Y-107300000D01*
X103237609Y-107300000D01*
X103278992Y-107304076D01*
X103278992Y-107304076D01*
G37*
G36*
X92500000Y-108570000D02*
X91200000Y-108570000D01*
X91200000Y-107770000D01*
X92500000Y-107770000D01*
X92500000Y-108570000D01*
X92500000Y-108570000D01*
G37*
G36*
X98800000Y-108570000D02*
X97500000Y-108570000D01*
X97500000Y-107770000D01*
X98800000Y-107770000D01*
X98800000Y-108570000D01*
X98800000Y-108570000D01*
G37*
G36*
X92500000Y-107310000D02*
X91200000Y-107310000D01*
X91200000Y-106510000D01*
X92500000Y-106510000D01*
X92500000Y-107310000D01*
X92500000Y-107310000D01*
G37*
G36*
X98800000Y-107310000D02*
X97500000Y-107310000D01*
X97500000Y-106510000D01*
X98800000Y-106510000D01*
X98800000Y-107310000D01*
X98800000Y-107310000D01*
G37*
G36*
X101403992Y-105304076D02*
X101437883Y-105314357D01*
X101469111Y-105331048D01*
X101496485Y-105353515D01*
X101518952Y-105380889D01*
X101535643Y-105412117D01*
X101545924Y-105446008D01*
X101550000Y-105487391D01*
X101550000Y-106512609D01*
X101545924Y-106553992D01*
X101535643Y-106587883D01*
X101518952Y-106619111D01*
X101496485Y-106646485D01*
X101469111Y-106668952D01*
X101437883Y-106685643D01*
X101403992Y-106695924D01*
X101362609Y-106700000D01*
X100762391Y-106700000D01*
X100721008Y-106695924D01*
X100687117Y-106685643D01*
X100655889Y-106668952D01*
X100628515Y-106646485D01*
X100606048Y-106619111D01*
X100589357Y-106587883D01*
X100579076Y-106553992D01*
X100575000Y-106512609D01*
X100575000Y-105487391D01*
X100579076Y-105446008D01*
X100589357Y-105412117D01*
X100606048Y-105380889D01*
X100628515Y-105353515D01*
X100655889Y-105331048D01*
X100687117Y-105314357D01*
X100721008Y-105304076D01*
X100762391Y-105300000D01*
X101362609Y-105300000D01*
X101403992Y-105304076D01*
X101403992Y-105304076D01*
G37*
G36*
X103278992Y-105304076D02*
X103312883Y-105314357D01*
X103344111Y-105331048D01*
X103371485Y-105353515D01*
X103393952Y-105380889D01*
X103410643Y-105412117D01*
X103420924Y-105446008D01*
X103425000Y-105487391D01*
X103425000Y-106512609D01*
X103420924Y-106553992D01*
X103410643Y-106587883D01*
X103393952Y-106619111D01*
X103371485Y-106646485D01*
X103344111Y-106668952D01*
X103312883Y-106685643D01*
X103278992Y-106695924D01*
X103237609Y-106700000D01*
X102637391Y-106700000D01*
X102596008Y-106695924D01*
X102562117Y-106685643D01*
X102530889Y-106668952D01*
X102503515Y-106646485D01*
X102481048Y-106619111D01*
X102464357Y-106587883D01*
X102454076Y-106553992D01*
X102450000Y-106512609D01*
X102450000Y-105487391D01*
X102454076Y-105446008D01*
X102464357Y-105412117D01*
X102481048Y-105380889D01*
X102503515Y-105353515D01*
X102530889Y-105331048D01*
X102562117Y-105314357D01*
X102596008Y-105304076D01*
X102637391Y-105300000D01*
X103237609Y-105300000D01*
X103278992Y-105304076D01*
X103278992Y-105304076D01*
G37*
G36*
X98800000Y-106040000D02*
X97500000Y-106040000D01*
X97500000Y-105240000D01*
X98800000Y-105240000D01*
X98800000Y-106040000D01*
X98800000Y-106040000D01*
G37*
G36*
X92500000Y-106040000D02*
X91200000Y-106040000D01*
X91200000Y-105240000D01*
X92500000Y-105240000D01*
X92500000Y-106040000D01*
X92500000Y-106040000D01*
G37*
G36*
X98800000Y-104760000D02*
X97500000Y-104760000D01*
X97500000Y-103960000D01*
X98800000Y-103960000D01*
X98800000Y-104760000D01*
X98800000Y-104760000D01*
G37*
G36*
X92500000Y-104760000D02*
X91200000Y-104760000D01*
X91200000Y-103960000D01*
X92500000Y-103960000D01*
X92500000Y-104760000D01*
X92500000Y-104760000D01*
G37*
G36*
X103278992Y-103304076D02*
X103312883Y-103314357D01*
X103344111Y-103331048D01*
X103371485Y-103353515D01*
X103393952Y-103380889D01*
X103410643Y-103412117D01*
X103420924Y-103446008D01*
X103425000Y-103487391D01*
X103425000Y-104512609D01*
X103420924Y-104553992D01*
X103410643Y-104587883D01*
X103393952Y-104619111D01*
X103371485Y-104646485D01*
X103344111Y-104668952D01*
X103312883Y-104685643D01*
X103278992Y-104695924D01*
X103237609Y-104700000D01*
X102637391Y-104700000D01*
X102596008Y-104695924D01*
X102562117Y-104685643D01*
X102530889Y-104668952D01*
X102503515Y-104646485D01*
X102481048Y-104619111D01*
X102464357Y-104587883D01*
X102454076Y-104553992D01*
X102450000Y-104512609D01*
X102450000Y-103487391D01*
X102454076Y-103446008D01*
X102464357Y-103412117D01*
X102481048Y-103380889D01*
X102503515Y-103353515D01*
X102530889Y-103331048D01*
X102562117Y-103314357D01*
X102596008Y-103304076D01*
X102637391Y-103300000D01*
X103237609Y-103300000D01*
X103278992Y-103304076D01*
X103278992Y-103304076D01*
G37*
G36*
X101403992Y-103304076D02*
X101437883Y-103314357D01*
X101469111Y-103331048D01*
X101496485Y-103353515D01*
X101518952Y-103380889D01*
X101535643Y-103412117D01*
X101545924Y-103446008D01*
X101550000Y-103487391D01*
X101550000Y-104512609D01*
X101545924Y-104553992D01*
X101535643Y-104587883D01*
X101518952Y-104619111D01*
X101496485Y-104646485D01*
X101469111Y-104668952D01*
X101437883Y-104685643D01*
X101403992Y-104695924D01*
X101362609Y-104700000D01*
X100762391Y-104700000D01*
X100721008Y-104695924D01*
X100687117Y-104685643D01*
X100655889Y-104668952D01*
X100628515Y-104646485D01*
X100606048Y-104619111D01*
X100589357Y-104587883D01*
X100579076Y-104553992D01*
X100575000Y-104512609D01*
X100575000Y-103487391D01*
X100579076Y-103446008D01*
X100589357Y-103412117D01*
X100606048Y-103380889D01*
X100628515Y-103353515D01*
X100655889Y-103331048D01*
X100687117Y-103314357D01*
X100721008Y-103304076D01*
X100762391Y-103300000D01*
X101362609Y-103300000D01*
X101403992Y-103304076D01*
X101403992Y-103304076D01*
G37*
G36*
X106125888Y-102454470D02*
X106306274Y-102490350D01*
X106497362Y-102569502D01*
X106669336Y-102684411D01*
X106815589Y-102830664D01*
X106930498Y-103002638D01*
X107009650Y-103193726D01*
X107050000Y-103396584D01*
X107050000Y-103603416D01*
X107009650Y-103806274D01*
X106930498Y-103997362D01*
X106815589Y-104169336D01*
X106669336Y-104315589D01*
X106497362Y-104430498D01*
X106306274Y-104509650D01*
X106125888Y-104545530D01*
X106103417Y-104550000D01*
X105896583Y-104550000D01*
X105874112Y-104545530D01*
X105693726Y-104509650D01*
X105502638Y-104430498D01*
X105330664Y-104315589D01*
X105184411Y-104169336D01*
X105069502Y-103997362D01*
X104990350Y-103806274D01*
X104950000Y-103603416D01*
X104950000Y-103396584D01*
X104990350Y-103193726D01*
X105069502Y-103002638D01*
X105184411Y-102830664D01*
X105330664Y-102684411D01*
X105502638Y-102569502D01*
X105693726Y-102490350D01*
X105874112Y-102454470D01*
X105896583Y-102450000D01*
X106103417Y-102450000D01*
X106125888Y-102454470D01*
X106125888Y-102454470D01*
G37*
G36*
X84125888Y-102454470D02*
X84306274Y-102490350D01*
X84497362Y-102569502D01*
X84669336Y-102684411D01*
X84815589Y-102830664D01*
X84930498Y-103002638D01*
X85009650Y-103193726D01*
X85050000Y-103396584D01*
X85050000Y-103603416D01*
X85009650Y-103806274D01*
X84930498Y-103997362D01*
X84815589Y-104169336D01*
X84669336Y-104315589D01*
X84497362Y-104430498D01*
X84306274Y-104509650D01*
X84125888Y-104545530D01*
X84103417Y-104550000D01*
X83896583Y-104550000D01*
X83874112Y-104545530D01*
X83693726Y-104509650D01*
X83502638Y-104430498D01*
X83330664Y-104315589D01*
X83184411Y-104169336D01*
X83069502Y-103997362D01*
X82990350Y-103806274D01*
X82950000Y-103603416D01*
X82950000Y-103396584D01*
X82990350Y-103193726D01*
X83069502Y-103002638D01*
X83184411Y-102830664D01*
X83330664Y-102684411D01*
X83502638Y-102569502D01*
X83693726Y-102490350D01*
X83874112Y-102454470D01*
X83896583Y-102450000D01*
X84103417Y-102450000D01*
X84125888Y-102454470D01*
X84125888Y-102454470D01*
G37*
G36*
X92500000Y-103490000D02*
X91200000Y-103490000D01*
X91200000Y-102690000D01*
X92500000Y-102690000D01*
X92500000Y-103490000D01*
X92500000Y-103490000D01*
G37*
G36*
X98800000Y-103490000D02*
X97500000Y-103490000D01*
X97500000Y-102690000D01*
X98800000Y-102690000D01*
X98800000Y-103490000D01*
X98800000Y-103490000D01*
G37*
G36*
X92500000Y-102230000D02*
X91200000Y-102230000D01*
X91200000Y-101430000D01*
X92500000Y-101430000D01*
X92500000Y-102230000D01*
X92500000Y-102230000D01*
G37*
G36*
X98800000Y-102230000D02*
X97500000Y-102230000D01*
X97500000Y-101430000D01*
X98800000Y-101430000D01*
X98800000Y-102230000D01*
X98800000Y-102230000D01*
G37*
G36*
X107803992Y-100954076D02*
X107837883Y-100964357D01*
X107869111Y-100981048D01*
X107896485Y-101003515D01*
X107918952Y-101030889D01*
X107935643Y-101062117D01*
X107945924Y-101096008D01*
X107950000Y-101137391D01*
X107950000Y-101737609D01*
X107945924Y-101778992D01*
X107935643Y-101812883D01*
X107918952Y-101844111D01*
X107896485Y-101871485D01*
X107869111Y-101893952D01*
X107837883Y-101910643D01*
X107803992Y-101920924D01*
X107762609Y-101925000D01*
X106737391Y-101925000D01*
X106696008Y-101920924D01*
X106662117Y-101910643D01*
X106630889Y-101893952D01*
X106603515Y-101871485D01*
X106581048Y-101844111D01*
X106564357Y-101812883D01*
X106554076Y-101778992D01*
X106550000Y-101737609D01*
X106550000Y-101137391D01*
X106554076Y-101096008D01*
X106564357Y-101062117D01*
X106581048Y-101030889D01*
X106603515Y-101003515D01*
X106630889Y-100981048D01*
X106662117Y-100964357D01*
X106696008Y-100954076D01*
X106737391Y-100950000D01*
X107762609Y-100950000D01*
X107803992Y-100954076D01*
X107803992Y-100954076D01*
G37*
G36*
X105303992Y-100954076D02*
X105337883Y-100964357D01*
X105369111Y-100981048D01*
X105396485Y-101003515D01*
X105418952Y-101030889D01*
X105435643Y-101062117D01*
X105445924Y-101096008D01*
X105450000Y-101137391D01*
X105450000Y-101737609D01*
X105445924Y-101778992D01*
X105435643Y-101812883D01*
X105418952Y-101844111D01*
X105396485Y-101871485D01*
X105369111Y-101893952D01*
X105337883Y-101910643D01*
X105303992Y-101920924D01*
X105262609Y-101925000D01*
X104237391Y-101925000D01*
X104196008Y-101920924D01*
X104162117Y-101910643D01*
X104130889Y-101893952D01*
X104103515Y-101871485D01*
X104081048Y-101844111D01*
X104064357Y-101812883D01*
X104054076Y-101778992D01*
X104050000Y-101737609D01*
X104050000Y-101137391D01*
X104054076Y-101096008D01*
X104064357Y-101062117D01*
X104081048Y-101030889D01*
X104103515Y-101003515D01*
X104130889Y-100981048D01*
X104162117Y-100964357D01*
X104196008Y-100954076D01*
X104237391Y-100950000D01*
X105262609Y-100950000D01*
X105303992Y-100954076D01*
X105303992Y-100954076D01*
G37*
G36*
X83403992Y-100304076D02*
X83437883Y-100314357D01*
X83469111Y-100331048D01*
X83496485Y-100353515D01*
X83518952Y-100380889D01*
X83535643Y-100412117D01*
X83545924Y-100446008D01*
X83550000Y-100487391D01*
X83550000Y-101512609D01*
X83545924Y-101553992D01*
X83535643Y-101587883D01*
X83518952Y-101619111D01*
X83496485Y-101646485D01*
X83469111Y-101668952D01*
X83437883Y-101685643D01*
X83403992Y-101695924D01*
X83362609Y-101700000D01*
X82762391Y-101700000D01*
X82721008Y-101695924D01*
X82687117Y-101685643D01*
X82655889Y-101668952D01*
X82628515Y-101646485D01*
X82606048Y-101619111D01*
X82589357Y-101587883D01*
X82579076Y-101553992D01*
X82575000Y-101512609D01*
X82575000Y-100487391D01*
X82579076Y-100446008D01*
X82589357Y-100412117D01*
X82606048Y-100380889D01*
X82628515Y-100353515D01*
X82655889Y-100331048D01*
X82687117Y-100314357D01*
X82721008Y-100304076D01*
X82762391Y-100300000D01*
X83362609Y-100300000D01*
X83403992Y-100304076D01*
X83403992Y-100304076D01*
G37*
G36*
X85278992Y-100304076D02*
X85312883Y-100314357D01*
X85344111Y-100331048D01*
X85371485Y-100353515D01*
X85393952Y-100380889D01*
X85410643Y-100412117D01*
X85420924Y-100446008D01*
X85425000Y-100487391D01*
X85425000Y-101512609D01*
X85420924Y-101553992D01*
X85410643Y-101587883D01*
X85393952Y-101619111D01*
X85371485Y-101646485D01*
X85344111Y-101668952D01*
X85312883Y-101685643D01*
X85278992Y-101695924D01*
X85237609Y-101700000D01*
X84637391Y-101700000D01*
X84596008Y-101695924D01*
X84562117Y-101685643D01*
X84530889Y-101668952D01*
X84503515Y-101646485D01*
X84481048Y-101619111D01*
X84464357Y-101587883D01*
X84454076Y-101553992D01*
X84450000Y-101512609D01*
X84450000Y-100487391D01*
X84454076Y-100446008D01*
X84464357Y-100412117D01*
X84481048Y-100380889D01*
X84503515Y-100353515D01*
X84530889Y-100331048D01*
X84562117Y-100314357D01*
X84596008Y-100304076D01*
X84637391Y-100300000D01*
X85237609Y-100300000D01*
X85278992Y-100304076D01*
X85278992Y-100304076D01*
G37*
G36*
X98800000Y-100950000D02*
X97500000Y-100950000D01*
X97500000Y-100150000D01*
X98800000Y-100150000D01*
X98800000Y-100950000D01*
X98800000Y-100950000D01*
G37*
G36*
X92500000Y-100950000D02*
X91200000Y-100950000D01*
X91200000Y-100150000D01*
X92500000Y-100150000D01*
X92500000Y-100950000D01*
X92500000Y-100950000D01*
G37*
G36*
X105303992Y-99079076D02*
X105337883Y-99089357D01*
X105369111Y-99106048D01*
X105396485Y-99128515D01*
X105418952Y-99155889D01*
X105435643Y-99187117D01*
X105445924Y-99221008D01*
X105450000Y-99262391D01*
X105450000Y-99862609D01*
X105445924Y-99903992D01*
X105435643Y-99937883D01*
X105418952Y-99969111D01*
X105396485Y-99996485D01*
X105369111Y-100018952D01*
X105337883Y-100035643D01*
X105303992Y-100045924D01*
X105262609Y-100050000D01*
X104237391Y-100050000D01*
X104196008Y-100045924D01*
X104162117Y-100035643D01*
X104130889Y-100018952D01*
X104103515Y-99996485D01*
X104081048Y-99969111D01*
X104064357Y-99937883D01*
X104054076Y-99903992D01*
X104050000Y-99862609D01*
X104050000Y-99262391D01*
X104054076Y-99221008D01*
X104064357Y-99187117D01*
X104081048Y-99155889D01*
X104103515Y-99128515D01*
X104130889Y-99106048D01*
X104162117Y-99089357D01*
X104196008Y-99079076D01*
X104237391Y-99075000D01*
X105262609Y-99075000D01*
X105303992Y-99079076D01*
X105303992Y-99079076D01*
G37*
G36*
X79550000Y-100050000D02*
X77450000Y-100050000D01*
X77450000Y-97950000D01*
X79550000Y-97950000D01*
X79550000Y-100050000D01*
X79550000Y-100050000D01*
G37*
G36*
X89625888Y-97954470D02*
X89806274Y-97990350D01*
X89997362Y-98069502D01*
X90169336Y-98184411D01*
X90315589Y-98330664D01*
X90430498Y-98502638D01*
X90509650Y-98693726D01*
X90545530Y-98874112D01*
X90550000Y-98896583D01*
X90550000Y-99103417D01*
X90547481Y-99116079D01*
X90509650Y-99306274D01*
X90430498Y-99497362D01*
X90315589Y-99669336D01*
X90169336Y-99815589D01*
X89997362Y-99930498D01*
X89806274Y-100009650D01*
X89626965Y-100045316D01*
X89603417Y-100050000D01*
X89396583Y-100050000D01*
X89373035Y-100045316D01*
X89193726Y-100009650D01*
X89002638Y-99930498D01*
X88830664Y-99815589D01*
X88684411Y-99669336D01*
X88569502Y-99497362D01*
X88490350Y-99306274D01*
X88452519Y-99116079D01*
X88450000Y-99103417D01*
X88450000Y-98896583D01*
X88454470Y-98874112D01*
X88490350Y-98693726D01*
X88569502Y-98502638D01*
X88684411Y-98330664D01*
X88830664Y-98184411D01*
X89002638Y-98069502D01*
X89193726Y-97990350D01*
X89374112Y-97954470D01*
X89396583Y-97950000D01*
X89603417Y-97950000D01*
X89625888Y-97954470D01*
X89625888Y-97954470D01*
G37*
G36*
X107803992Y-99079076D02*
X107837883Y-99089357D01*
X107869111Y-99106048D01*
X107896485Y-99128515D01*
X107918952Y-99155889D01*
X107935643Y-99187117D01*
X107945924Y-99221008D01*
X107950000Y-99262391D01*
X107950000Y-99862609D01*
X107945924Y-99903992D01*
X107935643Y-99937883D01*
X107918952Y-99969111D01*
X107896485Y-99996485D01*
X107869111Y-100018952D01*
X107837883Y-100035643D01*
X107803992Y-100045924D01*
X107762609Y-100050000D01*
X106737391Y-100050000D01*
X106696008Y-100045924D01*
X106662117Y-100035643D01*
X106630889Y-100018952D01*
X106603515Y-99996485D01*
X106581048Y-99969111D01*
X106564357Y-99937883D01*
X106554076Y-99903992D01*
X106550000Y-99862609D01*
X106550000Y-99262391D01*
X106554076Y-99221008D01*
X106564357Y-99187117D01*
X106581048Y-99155889D01*
X106603515Y-99128515D01*
X106630889Y-99106048D01*
X106662117Y-99089357D01*
X106696008Y-99079076D01*
X106737391Y-99075000D01*
X107762609Y-99075000D01*
X107803992Y-99079076D01*
X107803992Y-99079076D01*
G37*
G36*
X101550000Y-100050000D02*
X99450000Y-100050000D01*
X99450000Y-97950000D01*
X101550000Y-97950000D01*
X101550000Y-100050000D01*
X101550000Y-100050000D01*
G37*
G36*
X111625888Y-97954470D02*
X111806274Y-97990350D01*
X111997362Y-98069502D01*
X112169336Y-98184411D01*
X112315589Y-98330664D01*
X112430498Y-98502638D01*
X112509650Y-98693726D01*
X112545530Y-98874112D01*
X112550000Y-98896583D01*
X112550000Y-99103417D01*
X112547481Y-99116079D01*
X112509650Y-99306274D01*
X112430498Y-99497362D01*
X112315589Y-99669336D01*
X112169336Y-99815589D01*
X111997362Y-99930498D01*
X111806274Y-100009650D01*
X111626965Y-100045316D01*
X111603417Y-100050000D01*
X111396583Y-100050000D01*
X111373035Y-100045316D01*
X111193726Y-100009650D01*
X111002638Y-99930498D01*
X110830664Y-99815589D01*
X110684411Y-99669336D01*
X110569502Y-99497362D01*
X110490350Y-99306274D01*
X110452519Y-99116079D01*
X110450000Y-99103417D01*
X110450000Y-98896583D01*
X110454470Y-98874112D01*
X110490350Y-98693726D01*
X110569502Y-98502638D01*
X110684411Y-98330664D01*
X110830664Y-98184411D01*
X111002638Y-98069502D01*
X111193726Y-97990350D01*
X111374112Y-97954470D01*
X111396583Y-97950000D01*
X111603417Y-97950000D01*
X111625888Y-97954470D01*
X111625888Y-97954470D01*
G37*
G36*
X81405522Y-98304039D02*
X81439053Y-98314211D01*
X81469960Y-98330731D01*
X81497043Y-98352957D01*
X81519269Y-98380040D01*
X81535789Y-98410947D01*
X81545961Y-98444478D01*
X81550000Y-98485487D01*
X81550000Y-99514513D01*
X81545961Y-99555522D01*
X81535789Y-99589053D01*
X81519269Y-99619960D01*
X81497043Y-99647043D01*
X81469960Y-99669269D01*
X81439053Y-99685789D01*
X81405522Y-99695961D01*
X81364513Y-99700000D01*
X80585487Y-99700000D01*
X80544478Y-99695961D01*
X80510947Y-99685789D01*
X80480040Y-99669269D01*
X80452957Y-99647043D01*
X80430731Y-99619960D01*
X80414211Y-99589053D01*
X80404039Y-99555522D01*
X80400000Y-99514513D01*
X80400000Y-98485487D01*
X80404039Y-98444478D01*
X80414211Y-98410947D01*
X80430731Y-98380040D01*
X80452957Y-98352957D01*
X80480040Y-98330731D01*
X80510947Y-98314211D01*
X80544478Y-98304039D01*
X80585487Y-98300000D01*
X81364513Y-98300000D01*
X81405522Y-98304039D01*
X81405522Y-98304039D01*
G37*
G36*
X83455522Y-98304039D02*
X83489053Y-98314211D01*
X83519960Y-98330731D01*
X83547043Y-98352957D01*
X83569269Y-98380040D01*
X83585789Y-98410947D01*
X83595961Y-98444478D01*
X83600000Y-98485487D01*
X83600000Y-99514513D01*
X83595961Y-99555522D01*
X83585789Y-99589053D01*
X83569269Y-99619960D01*
X83547043Y-99647043D01*
X83519960Y-99669269D01*
X83489053Y-99685789D01*
X83455522Y-99695961D01*
X83414513Y-99700000D01*
X82635487Y-99700000D01*
X82594478Y-99695961D01*
X82560947Y-99685789D01*
X82530040Y-99669269D01*
X82502957Y-99647043D01*
X82480731Y-99619960D01*
X82464211Y-99589053D01*
X82454039Y-99555522D01*
X82450000Y-99514513D01*
X82450000Y-98485487D01*
X82454039Y-98444478D01*
X82464211Y-98410947D01*
X82480731Y-98380040D01*
X82502957Y-98352957D01*
X82530040Y-98330731D01*
X82560947Y-98314211D01*
X82594478Y-98304039D01*
X82635487Y-98300000D01*
X83414513Y-98300000D01*
X83455522Y-98304039D01*
X83455522Y-98304039D01*
G37*
G36*
X85405522Y-98304039D02*
X85439053Y-98314211D01*
X85469960Y-98330731D01*
X85497043Y-98352957D01*
X85519269Y-98380040D01*
X85535789Y-98410947D01*
X85545961Y-98444478D01*
X85550000Y-98485487D01*
X85550000Y-99514513D01*
X85545961Y-99555522D01*
X85535789Y-99589053D01*
X85519269Y-99619960D01*
X85497043Y-99647043D01*
X85469960Y-99669269D01*
X85439053Y-99685789D01*
X85405522Y-99695961D01*
X85364513Y-99700000D01*
X84585487Y-99700000D01*
X84544478Y-99695961D01*
X84510947Y-99685789D01*
X84480040Y-99669269D01*
X84452957Y-99647043D01*
X84430731Y-99619960D01*
X84414211Y-99589053D01*
X84404039Y-99555522D01*
X84400000Y-99514513D01*
X84400000Y-98485487D01*
X84404039Y-98444478D01*
X84414211Y-98410947D01*
X84430731Y-98380040D01*
X84452957Y-98352957D01*
X84480040Y-98330731D01*
X84510947Y-98314211D01*
X84544478Y-98304039D01*
X84585487Y-98300000D01*
X85364513Y-98300000D01*
X85405522Y-98304039D01*
X85405522Y-98304039D01*
G37*
G36*
X87455522Y-98304039D02*
X87489053Y-98314211D01*
X87519960Y-98330731D01*
X87547043Y-98352957D01*
X87569269Y-98380040D01*
X87585789Y-98410947D01*
X87595961Y-98444478D01*
X87600000Y-98485487D01*
X87600000Y-99514513D01*
X87595961Y-99555522D01*
X87585789Y-99589053D01*
X87569269Y-99619960D01*
X87547043Y-99647043D01*
X87519960Y-99669269D01*
X87489053Y-99685789D01*
X87455522Y-99695961D01*
X87414513Y-99700000D01*
X86635487Y-99700000D01*
X86594478Y-99695961D01*
X86560947Y-99685789D01*
X86530040Y-99669269D01*
X86502957Y-99647043D01*
X86480731Y-99619960D01*
X86464211Y-99589053D01*
X86454039Y-99555522D01*
X86450000Y-99514513D01*
X86450000Y-98485487D01*
X86454039Y-98444478D01*
X86464211Y-98410947D01*
X86480731Y-98380040D01*
X86502957Y-98352957D01*
X86530040Y-98330731D01*
X86560947Y-98314211D01*
X86594478Y-98304039D01*
X86635487Y-98300000D01*
X87414513Y-98300000D01*
X87455522Y-98304039D01*
X87455522Y-98304039D01*
G37*
G36*
X103405522Y-97054039D02*
X103439053Y-97064211D01*
X103469960Y-97080731D01*
X103497043Y-97102957D01*
X103519269Y-97130040D01*
X103535789Y-97160947D01*
X103545961Y-97194478D01*
X103550000Y-97235487D01*
X103550000Y-98264513D01*
X103545961Y-98305522D01*
X103535789Y-98339053D01*
X103519269Y-98369960D01*
X103497043Y-98397043D01*
X103469960Y-98419269D01*
X103439053Y-98435789D01*
X103405522Y-98445961D01*
X103364513Y-98450000D01*
X102585487Y-98450000D01*
X102544478Y-98445961D01*
X102510947Y-98435789D01*
X102480040Y-98419269D01*
X102452957Y-98397043D01*
X102430731Y-98369960D01*
X102414211Y-98339053D01*
X102404039Y-98305522D01*
X102400000Y-98264513D01*
X102400000Y-97235487D01*
X102404039Y-97194478D01*
X102414211Y-97160947D01*
X102430731Y-97130040D01*
X102452957Y-97102957D01*
X102480040Y-97080731D01*
X102510947Y-97064211D01*
X102544478Y-97054039D01*
X102585487Y-97050000D01*
X103364513Y-97050000D01*
X103405522Y-97054039D01*
X103405522Y-97054039D01*
G37*
G36*
X105455522Y-97054039D02*
X105489053Y-97064211D01*
X105519960Y-97080731D01*
X105547043Y-97102957D01*
X105569269Y-97130040D01*
X105585789Y-97160947D01*
X105595961Y-97194478D01*
X105600000Y-97235487D01*
X105600000Y-98264513D01*
X105595961Y-98305522D01*
X105585789Y-98339053D01*
X105569269Y-98369960D01*
X105547043Y-98397043D01*
X105519960Y-98419269D01*
X105489053Y-98435789D01*
X105455522Y-98445961D01*
X105414513Y-98450000D01*
X104635487Y-98450000D01*
X104594478Y-98445961D01*
X104560947Y-98435789D01*
X104530040Y-98419269D01*
X104502957Y-98397043D01*
X104480731Y-98369960D01*
X104464211Y-98339053D01*
X104454039Y-98305522D01*
X104450000Y-98264513D01*
X104450000Y-97235487D01*
X104454039Y-97194478D01*
X104464211Y-97160947D01*
X104480731Y-97130040D01*
X104502957Y-97102957D01*
X104530040Y-97080731D01*
X104560947Y-97064211D01*
X104594478Y-97054039D01*
X104635487Y-97050000D01*
X105414513Y-97050000D01*
X105455522Y-97054039D01*
X105455522Y-97054039D01*
G37*
G36*
X107655522Y-97054039D02*
X107689053Y-97064211D01*
X107719960Y-97080731D01*
X107747043Y-97102957D01*
X107769269Y-97130040D01*
X107785789Y-97160947D01*
X107795961Y-97194478D01*
X107800000Y-97235487D01*
X107800000Y-98264513D01*
X107795961Y-98305522D01*
X107785789Y-98339053D01*
X107769269Y-98369960D01*
X107747043Y-98397043D01*
X107719960Y-98419269D01*
X107689053Y-98435789D01*
X107655522Y-98445961D01*
X107614513Y-98450000D01*
X106835487Y-98450000D01*
X106794478Y-98445961D01*
X106760947Y-98435789D01*
X106730040Y-98419269D01*
X106702957Y-98397043D01*
X106680731Y-98369960D01*
X106664211Y-98339053D01*
X106654039Y-98305522D01*
X106650000Y-98264513D01*
X106650000Y-97235487D01*
X106654039Y-97194478D01*
X106664211Y-97160947D01*
X106680731Y-97130040D01*
X106702957Y-97102957D01*
X106730040Y-97080731D01*
X106760947Y-97064211D01*
X106794478Y-97054039D01*
X106835487Y-97050000D01*
X107614513Y-97050000D01*
X107655522Y-97054039D01*
X107655522Y-97054039D01*
G37*
G36*
X109705522Y-97054039D02*
X109739053Y-97064211D01*
X109769960Y-97080731D01*
X109797043Y-97102957D01*
X109819269Y-97130040D01*
X109835789Y-97160947D01*
X109845961Y-97194478D01*
X109850000Y-97235487D01*
X109850000Y-98264513D01*
X109845961Y-98305522D01*
X109835789Y-98339053D01*
X109819269Y-98369960D01*
X109797043Y-98397043D01*
X109769960Y-98419269D01*
X109739053Y-98435789D01*
X109705522Y-98445961D01*
X109664513Y-98450000D01*
X108885487Y-98450000D01*
X108844478Y-98445961D01*
X108810947Y-98435789D01*
X108780040Y-98419269D01*
X108752957Y-98397043D01*
X108730731Y-98369960D01*
X108714211Y-98339053D01*
X108704039Y-98305522D01*
X108700000Y-98264513D01*
X108700000Y-97235487D01*
X108704039Y-97194478D01*
X108714211Y-97160947D01*
X108730731Y-97130040D01*
X108752957Y-97102957D01*
X108780040Y-97080731D01*
X108810947Y-97064211D01*
X108844478Y-97054039D01*
X108885487Y-97050000D01*
X109664513Y-97050000D01*
X109705522Y-97054039D01*
X109705522Y-97054039D01*
G37*
G36*
X83403992Y-96304076D02*
X83437883Y-96314357D01*
X83469111Y-96331048D01*
X83496485Y-96353515D01*
X83518952Y-96380889D01*
X83535643Y-96412117D01*
X83545924Y-96446008D01*
X83550000Y-96487391D01*
X83550000Y-97512609D01*
X83545924Y-97553992D01*
X83535643Y-97587883D01*
X83518952Y-97619111D01*
X83496485Y-97646485D01*
X83469111Y-97668952D01*
X83437883Y-97685643D01*
X83403992Y-97695924D01*
X83362609Y-97700000D01*
X82762391Y-97700000D01*
X82721008Y-97695924D01*
X82687117Y-97685643D01*
X82655889Y-97668952D01*
X82628515Y-97646485D01*
X82606048Y-97619111D01*
X82589357Y-97587883D01*
X82579076Y-97553992D01*
X82575000Y-97512609D01*
X82575000Y-96487391D01*
X82579076Y-96446008D01*
X82589357Y-96412117D01*
X82606048Y-96380889D01*
X82628515Y-96353515D01*
X82655889Y-96331048D01*
X82687117Y-96314357D01*
X82721008Y-96304076D01*
X82762391Y-96300000D01*
X83362609Y-96300000D01*
X83403992Y-96304076D01*
X83403992Y-96304076D01*
G37*
G36*
X85278992Y-96304076D02*
X85312883Y-96314357D01*
X85344111Y-96331048D01*
X85371485Y-96353515D01*
X85393952Y-96380889D01*
X85410643Y-96412117D01*
X85420924Y-96446008D01*
X85425000Y-96487391D01*
X85425000Y-97512609D01*
X85420924Y-97553992D01*
X85410643Y-97587883D01*
X85393952Y-97619111D01*
X85371485Y-97646485D01*
X85344111Y-97668952D01*
X85312883Y-97685643D01*
X85278992Y-97695924D01*
X85237609Y-97700000D01*
X84637391Y-97700000D01*
X84596008Y-97695924D01*
X84562117Y-97685643D01*
X84530889Y-97668952D01*
X84503515Y-97646485D01*
X84481048Y-97619111D01*
X84464357Y-97587883D01*
X84454076Y-97553992D01*
X84450000Y-97512609D01*
X84450000Y-96487391D01*
X84454076Y-96446008D01*
X84464357Y-96412117D01*
X84481048Y-96380889D01*
X84503515Y-96353515D01*
X84530889Y-96331048D01*
X84562117Y-96314357D01*
X84596008Y-96304076D01*
X84637391Y-96300000D01*
X85237609Y-96300000D01*
X85278992Y-96304076D01*
X85278992Y-96304076D01*
G37*
G36*
X102235888Y-94064470D02*
X102416274Y-94100350D01*
X102607362Y-94179502D01*
X102779336Y-94294411D01*
X102925589Y-94440664D01*
X103040498Y-94612638D01*
X103119650Y-94803726D01*
X103160000Y-95006584D01*
X103160000Y-95213416D01*
X103119650Y-95416274D01*
X103040498Y-95607362D01*
X102925589Y-95779336D01*
X102779336Y-95925589D01*
X102607362Y-96040498D01*
X102416274Y-96119650D01*
X102235888Y-96155530D01*
X102213417Y-96160000D01*
X102006583Y-96160000D01*
X101984112Y-96155530D01*
X101803726Y-96119650D01*
X101612638Y-96040498D01*
X101440664Y-95925589D01*
X101294411Y-95779336D01*
X101179502Y-95607362D01*
X101100350Y-95416274D01*
X101060000Y-95213416D01*
X101060000Y-95006584D01*
X101100350Y-94803726D01*
X101179502Y-94612638D01*
X101294411Y-94440664D01*
X101440664Y-94294411D01*
X101612638Y-94179502D01*
X101803726Y-94100350D01*
X101984112Y-94064470D01*
X102006583Y-94060000D01*
X102213417Y-94060000D01*
X102235888Y-94064470D01*
X102235888Y-94064470D01*
G37*
G36*
X110015888Y-94064470D02*
X110196274Y-94100350D01*
X110387362Y-94179502D01*
X110559336Y-94294411D01*
X110705589Y-94440664D01*
X110820498Y-94612638D01*
X110899650Y-94803726D01*
X110940000Y-95006584D01*
X110940000Y-95213416D01*
X110899650Y-95416274D01*
X110820498Y-95607362D01*
X110705589Y-95779336D01*
X110559336Y-95925589D01*
X110387362Y-96040498D01*
X110196274Y-96119650D01*
X110015888Y-96155530D01*
X109993417Y-96160000D01*
X109786583Y-96160000D01*
X109764112Y-96155530D01*
X109583726Y-96119650D01*
X109392638Y-96040498D01*
X109220664Y-95925589D01*
X109074411Y-95779336D01*
X108959502Y-95607362D01*
X108880350Y-95416274D01*
X108840000Y-95213416D01*
X108840000Y-95006584D01*
X108880350Y-94803726D01*
X108959502Y-94612638D01*
X109074411Y-94440664D01*
X109220664Y-94294411D01*
X109392638Y-94179502D01*
X109583726Y-94100350D01*
X109764112Y-94064470D01*
X109786583Y-94060000D01*
X109993417Y-94060000D01*
X110015888Y-94064470D01*
X110015888Y-94064470D01*
G37*
G36*
X88015888Y-94064470D02*
X88196274Y-94100350D01*
X88387362Y-94179502D01*
X88559336Y-94294411D01*
X88705589Y-94440664D01*
X88820498Y-94612638D01*
X88899650Y-94803726D01*
X88940000Y-95006584D01*
X88940000Y-95213416D01*
X88899650Y-95416274D01*
X88820498Y-95607362D01*
X88705589Y-95779336D01*
X88559336Y-95925589D01*
X88387362Y-96040498D01*
X88196274Y-96119650D01*
X88015888Y-96155530D01*
X87993417Y-96160000D01*
X87786583Y-96160000D01*
X87764112Y-96155530D01*
X87583726Y-96119650D01*
X87392638Y-96040498D01*
X87220664Y-95925589D01*
X87074411Y-95779336D01*
X86959502Y-95607362D01*
X86880350Y-95416274D01*
X86840000Y-95213416D01*
X86840000Y-95006584D01*
X86880350Y-94803726D01*
X86959502Y-94612638D01*
X87074411Y-94440664D01*
X87220664Y-94294411D01*
X87392638Y-94179502D01*
X87583726Y-94100350D01*
X87764112Y-94064470D01*
X87786583Y-94060000D01*
X87993417Y-94060000D01*
X88015888Y-94064470D01*
X88015888Y-94064470D01*
G37*
G36*
X80235888Y-94064470D02*
X80416274Y-94100350D01*
X80607362Y-94179502D01*
X80779336Y-94294411D01*
X80925589Y-94440664D01*
X81040498Y-94612638D01*
X81119650Y-94803726D01*
X81160000Y-95006584D01*
X81160000Y-95213416D01*
X81119650Y-95416274D01*
X81040498Y-95607362D01*
X80925589Y-95779336D01*
X80779336Y-95925589D01*
X80607362Y-96040498D01*
X80416274Y-96119650D01*
X80235888Y-96155530D01*
X80213417Y-96160000D01*
X80006583Y-96160000D01*
X79984112Y-96155530D01*
X79803726Y-96119650D01*
X79612638Y-96040498D01*
X79440664Y-95925589D01*
X79294411Y-95779336D01*
X79179502Y-95607362D01*
X79100350Y-95416274D01*
X79060000Y-95213416D01*
X79060000Y-95006584D01*
X79100350Y-94803726D01*
X79179502Y-94612638D01*
X79294411Y-94440664D01*
X79440664Y-94294411D01*
X79612638Y-94179502D01*
X79803726Y-94100350D01*
X79984112Y-94064470D01*
X80006583Y-94060000D01*
X80213417Y-94060000D01*
X80235888Y-94064470D01*
X80235888Y-94064470D01*
G37*
G36*
X106125888Y-92454470D02*
X106306274Y-92490350D01*
X106497362Y-92569502D01*
X106669336Y-92684411D01*
X106815589Y-92830664D01*
X106930498Y-93002638D01*
X107009650Y-93193726D01*
X107050000Y-93396584D01*
X107050000Y-93603416D01*
X107009650Y-93806274D01*
X106930498Y-93997362D01*
X106815589Y-94169336D01*
X106669336Y-94315589D01*
X106497362Y-94430498D01*
X106306274Y-94509650D01*
X106125888Y-94545530D01*
X106103417Y-94550000D01*
X105896583Y-94550000D01*
X105874112Y-94545530D01*
X105693726Y-94509650D01*
X105502638Y-94430498D01*
X105330664Y-94315589D01*
X105184411Y-94169336D01*
X105069502Y-93997362D01*
X104990350Y-93806274D01*
X104950000Y-93603416D01*
X104950000Y-93396584D01*
X104990350Y-93193726D01*
X105069502Y-93002638D01*
X105184411Y-92830664D01*
X105330664Y-92684411D01*
X105502638Y-92569502D01*
X105693726Y-92490350D01*
X105874112Y-92454470D01*
X105896583Y-92450000D01*
X106103417Y-92450000D01*
X106125888Y-92454470D01*
X106125888Y-92454470D01*
G37*
G36*
X84125888Y-92454470D02*
X84306274Y-92490350D01*
X84497362Y-92569502D01*
X84669336Y-92684411D01*
X84815589Y-92830664D01*
X84930498Y-93002638D01*
X85009650Y-93193726D01*
X85050000Y-93396584D01*
X85050000Y-93603416D01*
X85009650Y-93806274D01*
X84930498Y-93997362D01*
X84815589Y-94169336D01*
X84669336Y-94315589D01*
X84497362Y-94430498D01*
X84306274Y-94509650D01*
X84125888Y-94545530D01*
X84103417Y-94550000D01*
X83896583Y-94550000D01*
X83874112Y-94545530D01*
X83693726Y-94509650D01*
X83502638Y-94430498D01*
X83330664Y-94315589D01*
X83184411Y-94169336D01*
X83069502Y-93997362D01*
X82990350Y-93806274D01*
X82950000Y-93603416D01*
X82950000Y-93396584D01*
X82990350Y-93193726D01*
X83069502Y-93002638D01*
X83184411Y-92830664D01*
X83330664Y-92684411D01*
X83502638Y-92569502D01*
X83693726Y-92490350D01*
X83874112Y-92454470D01*
X83896583Y-92450000D01*
X84103417Y-92450000D01*
X84125888Y-92454470D01*
X84125888Y-92454470D01*
G37*
G36*
X93552521Y-90134586D02*
X93716309Y-90202429D01*
X93863720Y-90300926D01*
X93989074Y-90426280D01*
X94087571Y-90573691D01*
X94155414Y-90737479D01*
X94190000Y-90911356D01*
X94190000Y-91088644D01*
X94155414Y-91262521D01*
X94087571Y-91426309D01*
X93989074Y-91573720D01*
X93863720Y-91699074D01*
X93716309Y-91797571D01*
X93552521Y-91865414D01*
X93378644Y-91900000D01*
X93201356Y-91900000D01*
X93027479Y-91865414D01*
X92863691Y-91797571D01*
X92716280Y-91699074D01*
X92590926Y-91573720D01*
X92492429Y-91426309D01*
X92424586Y-91262521D01*
X92390000Y-91088644D01*
X92390000Y-90911356D01*
X92424586Y-90737479D01*
X92492429Y-90573691D01*
X92590926Y-90426280D01*
X92716280Y-90300926D01*
X92863691Y-90202429D01*
X93027479Y-90134586D01*
X93201356Y-90100000D01*
X93378644Y-90100000D01*
X93552521Y-90134586D01*
X93552521Y-90134586D01*
G37*
G36*
X91650000Y-91900000D02*
X89850000Y-91900000D01*
X89850000Y-90100000D01*
X91650000Y-90100000D01*
X91650000Y-91900000D01*
X91650000Y-91900000D01*
G37*
G36*
X100150000Y-91900000D02*
X98350000Y-91900000D01*
X98350000Y-90100000D01*
X100150000Y-90100000D01*
X100150000Y-91900000D01*
X100150000Y-91900000D01*
G37*
G36*
X96972521Y-90134586D02*
X97136309Y-90202429D01*
X97283720Y-90300926D01*
X97409074Y-90426280D01*
X97507571Y-90573691D01*
X97575414Y-90737479D01*
X97610000Y-90911356D01*
X97610000Y-91088644D01*
X97575414Y-91262521D01*
X97507571Y-91426309D01*
X97409074Y-91573720D01*
X97283720Y-91699074D01*
X97136309Y-91797571D01*
X96972521Y-91865414D01*
X96798644Y-91900000D01*
X96621356Y-91900000D01*
X96447479Y-91865414D01*
X96283691Y-91797571D01*
X96136280Y-91699074D01*
X96010926Y-91573720D01*
X95912429Y-91426309D01*
X95844586Y-91262521D01*
X95810000Y-91088644D01*
X95810000Y-90911356D01*
X95844586Y-90737479D01*
X95912429Y-90573691D01*
X96010926Y-90426280D01*
X96136280Y-90300926D01*
X96283691Y-90202429D01*
X96447479Y-90134586D01*
X96621356Y-90100000D01*
X96798644Y-90100000D01*
X96972521Y-90134586D01*
X96972521Y-90134586D01*
G37*
G36*
X84466703Y-86461486D02*
X84757883Y-86582097D01*
X85019944Y-86757201D01*
X85242799Y-86980056D01*
X85417903Y-87242117D01*
X85538514Y-87533297D01*
X85600000Y-87842412D01*
X85600000Y-88157588D01*
X85538514Y-88466703D01*
X85417903Y-88757883D01*
X85242799Y-89019944D01*
X85019944Y-89242799D01*
X84757883Y-89417903D01*
X84466703Y-89538514D01*
X84157588Y-89600000D01*
X83842412Y-89600000D01*
X83533297Y-89538514D01*
X83242117Y-89417903D01*
X82980056Y-89242799D01*
X82757201Y-89019944D01*
X82582097Y-88757883D01*
X82461486Y-88466703D01*
X82400000Y-88157588D01*
X82400000Y-87842412D01*
X82461486Y-87533297D01*
X82582097Y-87242117D01*
X82757201Y-86980056D01*
X82980056Y-86757201D01*
X83242117Y-86582097D01*
X83533297Y-86461486D01*
X83842412Y-86400000D01*
X84157588Y-86400000D01*
X84466703Y-86461486D01*
X84466703Y-86461486D01*
G37*
G36*
X106466703Y-86461486D02*
X106757883Y-86582097D01*
X107019944Y-86757201D01*
X107242799Y-86980056D01*
X107417903Y-87242117D01*
X107538514Y-87533297D01*
X107600000Y-87842412D01*
X107600000Y-88157588D01*
X107538514Y-88466703D01*
X107417903Y-88757883D01*
X107242799Y-89019944D01*
X107019944Y-89242799D01*
X106757883Y-89417903D01*
X106466703Y-89538514D01*
X106157588Y-89600000D01*
X105842412Y-89600000D01*
X105533297Y-89538514D01*
X105242117Y-89417903D01*
X104980056Y-89242799D01*
X104757201Y-89019944D01*
X104582097Y-88757883D01*
X104461486Y-88466703D01*
X104400000Y-88157588D01*
X104400000Y-87842412D01*
X104461486Y-87533297D01*
X104582097Y-87242117D01*
X104757201Y-86980056D01*
X104980056Y-86757201D01*
X105242117Y-86582097D01*
X105533297Y-86461486D01*
X105842412Y-86400000D01*
X106157588Y-86400000D01*
X106466703Y-86461486D01*
X106466703Y-86461486D01*
G37*
G36*
X104850000Y-85350000D02*
X103150000Y-85350000D01*
X103150000Y-83650000D01*
X104850000Y-83650000D01*
X104850000Y-85350000D01*
X104850000Y-85350000D01*
G37*
G36*
X101626630Y-83662299D02*
X101786855Y-83710903D01*
X101934520Y-83789831D01*
X102063949Y-83896051D01*
X102170169Y-84025480D01*
X102249097Y-84173145D01*
X102297701Y-84333370D01*
X102314112Y-84500000D01*
X102297701Y-84666630D01*
X102249097Y-84826855D01*
X102170169Y-84974520D01*
X102063949Y-85103949D01*
X101934520Y-85210169D01*
X101786855Y-85289097D01*
X101626630Y-85337701D01*
X101501752Y-85350000D01*
X101418248Y-85350000D01*
X101293370Y-85337701D01*
X101133145Y-85289097D01*
X100985480Y-85210169D01*
X100856051Y-85103949D01*
X100749831Y-84974520D01*
X100670903Y-84826855D01*
X100622299Y-84666630D01*
X100605888Y-84500000D01*
X100622299Y-84333370D01*
X100670903Y-84173145D01*
X100749831Y-84025480D01*
X100856051Y-83896051D01*
X100985480Y-83789831D01*
X101133145Y-83710903D01*
X101293370Y-83662299D01*
X101418248Y-83650000D01*
X101501752Y-83650000D01*
X101626630Y-83662299D01*
X101626630Y-83662299D01*
G37*
G36*
X99086630Y-83662299D02*
X99246855Y-83710903D01*
X99394520Y-83789831D01*
X99523949Y-83896051D01*
X99630169Y-84025480D01*
X99709097Y-84173145D01*
X99757701Y-84333370D01*
X99774112Y-84500000D01*
X99757701Y-84666630D01*
X99709097Y-84826855D01*
X99630169Y-84974520D01*
X99523949Y-85103949D01*
X99394520Y-85210169D01*
X99246855Y-85289097D01*
X99086630Y-85337701D01*
X98961752Y-85350000D01*
X98878248Y-85350000D01*
X98753370Y-85337701D01*
X98593145Y-85289097D01*
X98445480Y-85210169D01*
X98316051Y-85103949D01*
X98209831Y-84974520D01*
X98130903Y-84826855D01*
X98082299Y-84666630D01*
X98065888Y-84500000D01*
X98082299Y-84333370D01*
X98130903Y-84173145D01*
X98209831Y-84025480D01*
X98316051Y-83896051D01*
X98445480Y-83789831D01*
X98593145Y-83710903D01*
X98753370Y-83662299D01*
X98878248Y-83650000D01*
X98961752Y-83650000D01*
X99086630Y-83662299D01*
X99086630Y-83662299D01*
G37*
G36*
X96546630Y-83662299D02*
X96706855Y-83710903D01*
X96854520Y-83789831D01*
X96983949Y-83896051D01*
X97090169Y-84025480D01*
X97169097Y-84173145D01*
X97217701Y-84333370D01*
X97234112Y-84500000D01*
X97217701Y-84666630D01*
X97169097Y-84826855D01*
X97090169Y-84974520D01*
X96983949Y-85103949D01*
X96854520Y-85210169D01*
X96706855Y-85289097D01*
X96546630Y-85337701D01*
X96421752Y-85350000D01*
X96338248Y-85350000D01*
X96213370Y-85337701D01*
X96053145Y-85289097D01*
X95905480Y-85210169D01*
X95776051Y-85103949D01*
X95669831Y-84974520D01*
X95590903Y-84826855D01*
X95542299Y-84666630D01*
X95525888Y-84500000D01*
X95542299Y-84333370D01*
X95590903Y-84173145D01*
X95669831Y-84025480D01*
X95776051Y-83896051D01*
X95905480Y-83789831D01*
X96053145Y-83710903D01*
X96213370Y-83662299D01*
X96338248Y-83650000D01*
X96421752Y-83650000D01*
X96546630Y-83662299D01*
X96546630Y-83662299D01*
G37*
G36*
X91466630Y-83662299D02*
X91626855Y-83710903D01*
X91774520Y-83789831D01*
X91903949Y-83896051D01*
X92010169Y-84025480D01*
X92089097Y-84173145D01*
X92137701Y-84333370D01*
X92154112Y-84500000D01*
X92137701Y-84666630D01*
X92089097Y-84826855D01*
X92010169Y-84974520D01*
X91903949Y-85103949D01*
X91774520Y-85210169D01*
X91626855Y-85289097D01*
X91466630Y-85337701D01*
X91341752Y-85350000D01*
X91258248Y-85350000D01*
X91133370Y-85337701D01*
X90973145Y-85289097D01*
X90825480Y-85210169D01*
X90696051Y-85103949D01*
X90589831Y-84974520D01*
X90510903Y-84826855D01*
X90462299Y-84666630D01*
X90445888Y-84500000D01*
X90462299Y-84333370D01*
X90510903Y-84173145D01*
X90589831Y-84025480D01*
X90696051Y-83896051D01*
X90825480Y-83789831D01*
X90973145Y-83710903D01*
X91133370Y-83662299D01*
X91258248Y-83650000D01*
X91341752Y-83650000D01*
X91466630Y-83662299D01*
X91466630Y-83662299D01*
G37*
G36*
X88926630Y-83662299D02*
X89086855Y-83710903D01*
X89234520Y-83789831D01*
X89363949Y-83896051D01*
X89470169Y-84025480D01*
X89549097Y-84173145D01*
X89597701Y-84333370D01*
X89614112Y-84500000D01*
X89597701Y-84666630D01*
X89549097Y-84826855D01*
X89470169Y-84974520D01*
X89363949Y-85103949D01*
X89234520Y-85210169D01*
X89086855Y-85289097D01*
X88926630Y-85337701D01*
X88801752Y-85350000D01*
X88718248Y-85350000D01*
X88593370Y-85337701D01*
X88433145Y-85289097D01*
X88285480Y-85210169D01*
X88156051Y-85103949D01*
X88049831Y-84974520D01*
X87970903Y-84826855D01*
X87922299Y-84666630D01*
X87905888Y-84500000D01*
X87922299Y-84333370D01*
X87970903Y-84173145D01*
X88049831Y-84025480D01*
X88156051Y-83896051D01*
X88285480Y-83789831D01*
X88433145Y-83710903D01*
X88593370Y-83662299D01*
X88718248Y-83650000D01*
X88801752Y-83650000D01*
X88926630Y-83662299D01*
X88926630Y-83662299D01*
G37*
G36*
X86386630Y-83662299D02*
X86546855Y-83710903D01*
X86694520Y-83789831D01*
X86823949Y-83896051D01*
X86930169Y-84025480D01*
X87009097Y-84173145D01*
X87057701Y-84333370D01*
X87074112Y-84500000D01*
X87057701Y-84666630D01*
X87009097Y-84826855D01*
X86930169Y-84974520D01*
X86823949Y-85103949D01*
X86694520Y-85210169D01*
X86546855Y-85289097D01*
X86386630Y-85337701D01*
X86261752Y-85350000D01*
X86178248Y-85350000D01*
X86053370Y-85337701D01*
X85893145Y-85289097D01*
X85745480Y-85210169D01*
X85616051Y-85103949D01*
X85509831Y-84974520D01*
X85430903Y-84826855D01*
X85382299Y-84666630D01*
X85365888Y-84500000D01*
X85382299Y-84333370D01*
X85430903Y-84173145D01*
X85509831Y-84025480D01*
X85616051Y-83896051D01*
X85745480Y-83789831D01*
X85893145Y-83710903D01*
X86053370Y-83662299D01*
X86178248Y-83650000D01*
X86261752Y-83650000D01*
X86386630Y-83662299D01*
X86386630Y-83662299D01*
G37*
G36*
X94006630Y-83662299D02*
X94166855Y-83710903D01*
X94314520Y-83789831D01*
X94443949Y-83896051D01*
X94550169Y-84025480D01*
X94629097Y-84173145D01*
X94677701Y-84333370D01*
X94694112Y-84500000D01*
X94677701Y-84666630D01*
X94629097Y-84826855D01*
X94550169Y-84974520D01*
X94443949Y-85103949D01*
X94314520Y-85210169D01*
X94166855Y-85289097D01*
X94006630Y-85337701D01*
X93881752Y-85350000D01*
X93798248Y-85350000D01*
X93673370Y-85337701D01*
X93513145Y-85289097D01*
X93365480Y-85210169D01*
X93236051Y-85103949D01*
X93129831Y-84974520D01*
X93050903Y-84826855D01*
X93002299Y-84666630D01*
X92985888Y-84500000D01*
X93002299Y-84333370D01*
X93050903Y-84173145D01*
X93129831Y-84025480D01*
X93236051Y-83896051D01*
X93365480Y-83789831D01*
X93513145Y-83710903D01*
X93673370Y-83662299D01*
X93798248Y-83650000D01*
X93881752Y-83650000D01*
X94006630Y-83662299D01*
X94006630Y-83662299D01*
G37*
G36*
X106125888Y-80454470D02*
X106306274Y-80490350D01*
X106497362Y-80569502D01*
X106669336Y-80684411D01*
X106815589Y-80830664D01*
X106930498Y-81002638D01*
X107009650Y-81193726D01*
X107050000Y-81396584D01*
X107050000Y-81603416D01*
X107009650Y-81806274D01*
X106930498Y-81997362D01*
X106815589Y-82169336D01*
X106669336Y-82315589D01*
X106497362Y-82430498D01*
X106306274Y-82509650D01*
X106125888Y-82545530D01*
X106103417Y-82550000D01*
X105896583Y-82550000D01*
X105874112Y-82545530D01*
X105693726Y-82509650D01*
X105502638Y-82430498D01*
X105330664Y-82315589D01*
X105184411Y-82169336D01*
X105069502Y-81997362D01*
X104990350Y-81806274D01*
X104950000Y-81603416D01*
X104950000Y-81396584D01*
X104990350Y-81193726D01*
X105069502Y-81002638D01*
X105184411Y-80830664D01*
X105330664Y-80684411D01*
X105502638Y-80569502D01*
X105693726Y-80490350D01*
X105874112Y-80454470D01*
X105896583Y-80450000D01*
X106103417Y-80450000D01*
X106125888Y-80454470D01*
X106125888Y-80454470D01*
G37*
G36*
X84125888Y-80454470D02*
X84306274Y-80490350D01*
X84497362Y-80569502D01*
X84669336Y-80684411D01*
X84815589Y-80830664D01*
X84930498Y-81002638D01*
X85009650Y-81193726D01*
X85050000Y-81396584D01*
X85050000Y-81603416D01*
X85009650Y-81806274D01*
X84930498Y-81997362D01*
X84815589Y-82169336D01*
X84669336Y-82315589D01*
X84497362Y-82430498D01*
X84306274Y-82509650D01*
X84125888Y-82545530D01*
X84103417Y-82550000D01*
X83896583Y-82550000D01*
X83874112Y-82545530D01*
X83693726Y-82509650D01*
X83502638Y-82430498D01*
X83330664Y-82315589D01*
X83184411Y-82169336D01*
X83069502Y-81997362D01*
X82990350Y-81806274D01*
X82950000Y-81603416D01*
X82950000Y-81396584D01*
X82990350Y-81193726D01*
X83069502Y-81002638D01*
X83184411Y-80830664D01*
X83330664Y-80684411D01*
X83502638Y-80569502D01*
X83693726Y-80490350D01*
X83874112Y-80454470D01*
X83896583Y-80450000D01*
X84103417Y-80450000D01*
X84125888Y-80454470D01*
X84125888Y-80454470D01*
G37*
G36*
X107803992Y-79016576D02*
X107837883Y-79026857D01*
X107869111Y-79043548D01*
X107896485Y-79066015D01*
X107918952Y-79093389D01*
X107935643Y-79124617D01*
X107945924Y-79158508D01*
X107950000Y-79199891D01*
X107950000Y-79800109D01*
X107945924Y-79841492D01*
X107935643Y-79875383D01*
X107918952Y-79906611D01*
X107896485Y-79933985D01*
X107869111Y-79956452D01*
X107837883Y-79973143D01*
X107803992Y-79983424D01*
X107762609Y-79987500D01*
X106737391Y-79987500D01*
X106696008Y-79983424D01*
X106662117Y-79973143D01*
X106630889Y-79956452D01*
X106603515Y-79933985D01*
X106581048Y-79906611D01*
X106564357Y-79875383D01*
X106554076Y-79841492D01*
X106550000Y-79800109D01*
X106550000Y-79199891D01*
X106554076Y-79158508D01*
X106564357Y-79124617D01*
X106581048Y-79093389D01*
X106603515Y-79066015D01*
X106630889Y-79043548D01*
X106662117Y-79026857D01*
X106696008Y-79016576D01*
X106737391Y-79012500D01*
X107762609Y-79012500D01*
X107803992Y-79016576D01*
X107803992Y-79016576D01*
G37*
G36*
X105303992Y-78954076D02*
X105337883Y-78964357D01*
X105369111Y-78981048D01*
X105396485Y-79003515D01*
X105418952Y-79030889D01*
X105435643Y-79062117D01*
X105445924Y-79096008D01*
X105450000Y-79137391D01*
X105450000Y-79737609D01*
X105445924Y-79778992D01*
X105435643Y-79812883D01*
X105418952Y-79844111D01*
X105396485Y-79871485D01*
X105369111Y-79893952D01*
X105337883Y-79910643D01*
X105303992Y-79920924D01*
X105262609Y-79925000D01*
X104237391Y-79925000D01*
X104196008Y-79920924D01*
X104162117Y-79910643D01*
X104130889Y-79893952D01*
X104103515Y-79871485D01*
X104081048Y-79844111D01*
X104064357Y-79812883D01*
X104054076Y-79778992D01*
X104050000Y-79737609D01*
X104050000Y-79137391D01*
X104054076Y-79096008D01*
X104064357Y-79062117D01*
X104081048Y-79030889D01*
X104103515Y-79003515D01*
X104130889Y-78981048D01*
X104162117Y-78964357D01*
X104196008Y-78954076D01*
X104237391Y-78950000D01*
X105262609Y-78950000D01*
X105303992Y-78954076D01*
X105303992Y-78954076D01*
G37*
G36*
X85278992Y-78304076D02*
X85312883Y-78314357D01*
X85344111Y-78331048D01*
X85371485Y-78353515D01*
X85393952Y-78380889D01*
X85410643Y-78412117D01*
X85420924Y-78446008D01*
X85425000Y-78487391D01*
X85425000Y-79512609D01*
X85420924Y-79553992D01*
X85410643Y-79587883D01*
X85393952Y-79619111D01*
X85371485Y-79646485D01*
X85344111Y-79668952D01*
X85312883Y-79685643D01*
X85278992Y-79695924D01*
X85237609Y-79700000D01*
X84637391Y-79700000D01*
X84596008Y-79695924D01*
X84562117Y-79685643D01*
X84530889Y-79668952D01*
X84503515Y-79646485D01*
X84481048Y-79619111D01*
X84464357Y-79587883D01*
X84454076Y-79553992D01*
X84450000Y-79512609D01*
X84450000Y-78487391D01*
X84454076Y-78446008D01*
X84464357Y-78412117D01*
X84481048Y-78380889D01*
X84503515Y-78353515D01*
X84530889Y-78331048D01*
X84562117Y-78314357D01*
X84596008Y-78304076D01*
X84637391Y-78300000D01*
X85237609Y-78300000D01*
X85278992Y-78304076D01*
X85278992Y-78304076D01*
G37*
G36*
X83403992Y-78304076D02*
X83437883Y-78314357D01*
X83469111Y-78331048D01*
X83496485Y-78353515D01*
X83518952Y-78380889D01*
X83535643Y-78412117D01*
X83545924Y-78446008D01*
X83550000Y-78487391D01*
X83550000Y-79512609D01*
X83545924Y-79553992D01*
X83535643Y-79587883D01*
X83518952Y-79619111D01*
X83496485Y-79646485D01*
X83469111Y-79668952D01*
X83437883Y-79685643D01*
X83403992Y-79695924D01*
X83362609Y-79700000D01*
X82762391Y-79700000D01*
X82721008Y-79695924D01*
X82687117Y-79685643D01*
X82655889Y-79668952D01*
X82628515Y-79646485D01*
X82606048Y-79619111D01*
X82589357Y-79587883D01*
X82579076Y-79553992D01*
X82575000Y-79512609D01*
X82575000Y-78487391D01*
X82579076Y-78446008D01*
X82589357Y-78412117D01*
X82606048Y-78380889D01*
X82628515Y-78353515D01*
X82655889Y-78331048D01*
X82687117Y-78314357D01*
X82721008Y-78304076D01*
X82762391Y-78300000D01*
X83362609Y-78300000D01*
X83403992Y-78304076D01*
X83403992Y-78304076D01*
G37*
G36*
X107803992Y-77141576D02*
X107837883Y-77151857D01*
X107869111Y-77168548D01*
X107896485Y-77191015D01*
X107918952Y-77218389D01*
X107935643Y-77249617D01*
X107945924Y-77283508D01*
X107950000Y-77324891D01*
X107950000Y-77925109D01*
X107945924Y-77966492D01*
X107935643Y-78000383D01*
X107918952Y-78031611D01*
X107896485Y-78058985D01*
X107869111Y-78081452D01*
X107837883Y-78098143D01*
X107803992Y-78108424D01*
X107762609Y-78112500D01*
X106737391Y-78112500D01*
X106696008Y-78108424D01*
X106662117Y-78098143D01*
X106630889Y-78081452D01*
X106603515Y-78058985D01*
X106581048Y-78031611D01*
X106564357Y-78000383D01*
X106554076Y-77966492D01*
X106550000Y-77925109D01*
X106550000Y-77324891D01*
X106554076Y-77283508D01*
X106564357Y-77249617D01*
X106581048Y-77218389D01*
X106603515Y-77191015D01*
X106630889Y-77168548D01*
X106662117Y-77151857D01*
X106696008Y-77141576D01*
X106737391Y-77137500D01*
X107762609Y-77137500D01*
X107803992Y-77141576D01*
X107803992Y-77141576D01*
G37*
G36*
X79550000Y-78050000D02*
X77450000Y-78050000D01*
X77450000Y-75950000D01*
X79550000Y-75950000D01*
X79550000Y-78050000D01*
X79550000Y-78050000D01*
G37*
G36*
X89625888Y-75954470D02*
X89806274Y-75990350D01*
X89997362Y-76069502D01*
X90169336Y-76184411D01*
X90315589Y-76330664D01*
X90430498Y-76502638D01*
X90509650Y-76693726D01*
X90545530Y-76874112D01*
X90550000Y-76896583D01*
X90550000Y-77103417D01*
X90547481Y-77116079D01*
X90509650Y-77306274D01*
X90430498Y-77497362D01*
X90315589Y-77669336D01*
X90169336Y-77815589D01*
X89997362Y-77930498D01*
X89806274Y-78009650D01*
X89626965Y-78045316D01*
X89603417Y-78050000D01*
X89396583Y-78050000D01*
X89373035Y-78045316D01*
X89193726Y-78009650D01*
X89002638Y-77930498D01*
X88830664Y-77815589D01*
X88684411Y-77669336D01*
X88569502Y-77497362D01*
X88490350Y-77306274D01*
X88452519Y-77116079D01*
X88450000Y-77103417D01*
X88450000Y-76896583D01*
X88454470Y-76874112D01*
X88490350Y-76693726D01*
X88569502Y-76502638D01*
X88684411Y-76330664D01*
X88830664Y-76184411D01*
X89002638Y-76069502D01*
X89193726Y-75990350D01*
X89374112Y-75954470D01*
X89396583Y-75950000D01*
X89603417Y-75950000D01*
X89625888Y-75954470D01*
X89625888Y-75954470D01*
G37*
G36*
X105303992Y-77079076D02*
X105337883Y-77089357D01*
X105369111Y-77106048D01*
X105396485Y-77128515D01*
X105418952Y-77155889D01*
X105435643Y-77187117D01*
X105445924Y-77221008D01*
X105450000Y-77262391D01*
X105450000Y-77862609D01*
X105445924Y-77903992D01*
X105435643Y-77937883D01*
X105418952Y-77969111D01*
X105396485Y-77996485D01*
X105369111Y-78018952D01*
X105337883Y-78035643D01*
X105303992Y-78045924D01*
X105262609Y-78050000D01*
X104237391Y-78050000D01*
X104196008Y-78045924D01*
X104162117Y-78035643D01*
X104130889Y-78018952D01*
X104103515Y-77996485D01*
X104081048Y-77969111D01*
X104064357Y-77937883D01*
X104054076Y-77903992D01*
X104050000Y-77862609D01*
X104050000Y-77262391D01*
X104054076Y-77221008D01*
X104064357Y-77187117D01*
X104081048Y-77155889D01*
X104103515Y-77128515D01*
X104130889Y-77106048D01*
X104162117Y-77089357D01*
X104196008Y-77079076D01*
X104237391Y-77075000D01*
X105262609Y-77075000D01*
X105303992Y-77079076D01*
X105303992Y-77079076D01*
G37*
G36*
X101550000Y-78050000D02*
X99450000Y-78050000D01*
X99450000Y-75950000D01*
X101550000Y-75950000D01*
X101550000Y-78050000D01*
X101550000Y-78050000D01*
G37*
G36*
X111625888Y-75954470D02*
X111806274Y-75990350D01*
X111997362Y-76069502D01*
X112169336Y-76184411D01*
X112315589Y-76330664D01*
X112430498Y-76502638D01*
X112509650Y-76693726D01*
X112545530Y-76874112D01*
X112550000Y-76896583D01*
X112550000Y-77103417D01*
X112547481Y-77116079D01*
X112509650Y-77306274D01*
X112430498Y-77497362D01*
X112315589Y-77669336D01*
X112169336Y-77815589D01*
X111997362Y-77930498D01*
X111806274Y-78009650D01*
X111626965Y-78045316D01*
X111603417Y-78050000D01*
X111396583Y-78050000D01*
X111373035Y-78045316D01*
X111193726Y-78009650D01*
X111002638Y-77930498D01*
X110830664Y-77815589D01*
X110684411Y-77669336D01*
X110569502Y-77497362D01*
X110490350Y-77306274D01*
X110452519Y-77116079D01*
X110450000Y-77103417D01*
X110450000Y-76896583D01*
X110454470Y-76874112D01*
X110490350Y-76693726D01*
X110569502Y-76502638D01*
X110684411Y-76330664D01*
X110830664Y-76184411D01*
X111002638Y-76069502D01*
X111193726Y-75990350D01*
X111374112Y-75954470D01*
X111396583Y-75950000D01*
X111603417Y-75950000D01*
X111625888Y-75954470D01*
X111625888Y-75954470D01*
G37*
G36*
X85405522Y-76304039D02*
X85439053Y-76314211D01*
X85469960Y-76330731D01*
X85497043Y-76352957D01*
X85519269Y-76380040D01*
X85535789Y-76410947D01*
X85545961Y-76444478D01*
X85550000Y-76485487D01*
X85550000Y-77514513D01*
X85545961Y-77555522D01*
X85535789Y-77589053D01*
X85519269Y-77619960D01*
X85497043Y-77647043D01*
X85469960Y-77669269D01*
X85439053Y-77685789D01*
X85405522Y-77695961D01*
X85364513Y-77700000D01*
X84585487Y-77700000D01*
X84544478Y-77695961D01*
X84510947Y-77685789D01*
X84480040Y-77669269D01*
X84452957Y-77647043D01*
X84430731Y-77619960D01*
X84414211Y-77589053D01*
X84404039Y-77555522D01*
X84400000Y-77514513D01*
X84400000Y-76485487D01*
X84404039Y-76444478D01*
X84414211Y-76410947D01*
X84430731Y-76380040D01*
X84452957Y-76352957D01*
X84480040Y-76330731D01*
X84510947Y-76314211D01*
X84544478Y-76304039D01*
X84585487Y-76300000D01*
X85364513Y-76300000D01*
X85405522Y-76304039D01*
X85405522Y-76304039D01*
G37*
G36*
X81405522Y-76304039D02*
X81439053Y-76314211D01*
X81469960Y-76330731D01*
X81497043Y-76352957D01*
X81519269Y-76380040D01*
X81535789Y-76410947D01*
X81545961Y-76444478D01*
X81550000Y-76485487D01*
X81550000Y-77514513D01*
X81545961Y-77555522D01*
X81535789Y-77589053D01*
X81519269Y-77619960D01*
X81497043Y-77647043D01*
X81469960Y-77669269D01*
X81439053Y-77685789D01*
X81405522Y-77695961D01*
X81364513Y-77700000D01*
X80585487Y-77700000D01*
X80544478Y-77695961D01*
X80510947Y-77685789D01*
X80480040Y-77669269D01*
X80452957Y-77647043D01*
X80430731Y-77619960D01*
X80414211Y-77589053D01*
X80404039Y-77555522D01*
X80400000Y-77514513D01*
X80400000Y-76485487D01*
X80404039Y-76444478D01*
X80414211Y-76410947D01*
X80430731Y-76380040D01*
X80452957Y-76352957D01*
X80480040Y-76330731D01*
X80510947Y-76314211D01*
X80544478Y-76304039D01*
X80585487Y-76300000D01*
X81364513Y-76300000D01*
X81405522Y-76304039D01*
X81405522Y-76304039D01*
G37*
G36*
X83455522Y-76304039D02*
X83489053Y-76314211D01*
X83519960Y-76330731D01*
X83547043Y-76352957D01*
X83569269Y-76380040D01*
X83585789Y-76410947D01*
X83595961Y-76444478D01*
X83600000Y-76485487D01*
X83600000Y-77514513D01*
X83595961Y-77555522D01*
X83585789Y-77589053D01*
X83569269Y-77619960D01*
X83547043Y-77647043D01*
X83519960Y-77669269D01*
X83489053Y-77685789D01*
X83455522Y-77695961D01*
X83414513Y-77700000D01*
X82635487Y-77700000D01*
X82594478Y-77695961D01*
X82560947Y-77685789D01*
X82530040Y-77669269D01*
X82502957Y-77647043D01*
X82480731Y-77619960D01*
X82464211Y-77589053D01*
X82454039Y-77555522D01*
X82450000Y-77514513D01*
X82450000Y-76485487D01*
X82454039Y-76444478D01*
X82464211Y-76410947D01*
X82480731Y-76380040D01*
X82502957Y-76352957D01*
X82530040Y-76330731D01*
X82560947Y-76314211D01*
X82594478Y-76304039D01*
X82635487Y-76300000D01*
X83414513Y-76300000D01*
X83455522Y-76304039D01*
X83455522Y-76304039D01*
G37*
G36*
X87455522Y-76304039D02*
X87489053Y-76314211D01*
X87519960Y-76330731D01*
X87547043Y-76352957D01*
X87569269Y-76380040D01*
X87585789Y-76410947D01*
X87595961Y-76444478D01*
X87600000Y-76485487D01*
X87600000Y-77514513D01*
X87595961Y-77555522D01*
X87585789Y-77589053D01*
X87569269Y-77619960D01*
X87547043Y-77647043D01*
X87519960Y-77669269D01*
X87489053Y-77685789D01*
X87455522Y-77695961D01*
X87414513Y-77700000D01*
X86635487Y-77700000D01*
X86594478Y-77695961D01*
X86560947Y-77685789D01*
X86530040Y-77669269D01*
X86502957Y-77647043D01*
X86480731Y-77619960D01*
X86464211Y-77589053D01*
X86454039Y-77555522D01*
X86450000Y-77514513D01*
X86450000Y-76485487D01*
X86454039Y-76444478D01*
X86464211Y-76410947D01*
X86480731Y-76380040D01*
X86502957Y-76352957D01*
X86530040Y-76330731D01*
X86560947Y-76314211D01*
X86594478Y-76304039D01*
X86635487Y-76300000D01*
X87414513Y-76300000D01*
X87455522Y-76304039D01*
X87455522Y-76304039D01*
G37*
G36*
X103155522Y-75054039D02*
X103189053Y-75064211D01*
X103219960Y-75080731D01*
X103247043Y-75102957D01*
X103269269Y-75130040D01*
X103285789Y-75160947D01*
X103295961Y-75194478D01*
X103300000Y-75235487D01*
X103300000Y-76264513D01*
X103295961Y-76305522D01*
X103285789Y-76339053D01*
X103269269Y-76369960D01*
X103247043Y-76397043D01*
X103219960Y-76419269D01*
X103189053Y-76435789D01*
X103155522Y-76445961D01*
X103114513Y-76450000D01*
X102335487Y-76450000D01*
X102294478Y-76445961D01*
X102260947Y-76435789D01*
X102230040Y-76419269D01*
X102202957Y-76397043D01*
X102180731Y-76369960D01*
X102164211Y-76339053D01*
X102154039Y-76305522D01*
X102150000Y-76264513D01*
X102150000Y-75235487D01*
X102154039Y-75194478D01*
X102164211Y-75160947D01*
X102180731Y-75130040D01*
X102202957Y-75102957D01*
X102230040Y-75080731D01*
X102260947Y-75064211D01*
X102294478Y-75054039D01*
X102335487Y-75050000D01*
X103114513Y-75050000D01*
X103155522Y-75054039D01*
X103155522Y-75054039D01*
G37*
G36*
X105205522Y-75054039D02*
X105239053Y-75064211D01*
X105269960Y-75080731D01*
X105297043Y-75102957D01*
X105319269Y-75130040D01*
X105335789Y-75160947D01*
X105345961Y-75194478D01*
X105350000Y-75235487D01*
X105350000Y-76264513D01*
X105345961Y-76305522D01*
X105335789Y-76339053D01*
X105319269Y-76369960D01*
X105297043Y-76397043D01*
X105269960Y-76419269D01*
X105239053Y-76435789D01*
X105205522Y-76445961D01*
X105164513Y-76450000D01*
X104385487Y-76450000D01*
X104344478Y-76445961D01*
X104310947Y-76435789D01*
X104280040Y-76419269D01*
X104252957Y-76397043D01*
X104230731Y-76369960D01*
X104214211Y-76339053D01*
X104204039Y-76305522D01*
X104200000Y-76264513D01*
X104200000Y-75235487D01*
X104204039Y-75194478D01*
X104214211Y-75160947D01*
X104230731Y-75130040D01*
X104252957Y-75102957D01*
X104280040Y-75080731D01*
X104310947Y-75064211D01*
X104344478Y-75054039D01*
X104385487Y-75050000D01*
X105164513Y-75050000D01*
X105205522Y-75054039D01*
X105205522Y-75054039D01*
G37*
G36*
X109705522Y-75054039D02*
X109739053Y-75064211D01*
X109769960Y-75080731D01*
X109797043Y-75102957D01*
X109819269Y-75130040D01*
X109835789Y-75160947D01*
X109845961Y-75194478D01*
X109850000Y-75235487D01*
X109850000Y-76264513D01*
X109845961Y-76305522D01*
X109835789Y-76339053D01*
X109819269Y-76369960D01*
X109797043Y-76397043D01*
X109769960Y-76419269D01*
X109739053Y-76435789D01*
X109705522Y-76445961D01*
X109664513Y-76450000D01*
X108885487Y-76450000D01*
X108844478Y-76445961D01*
X108810947Y-76435789D01*
X108780040Y-76419269D01*
X108752957Y-76397043D01*
X108730731Y-76369960D01*
X108714211Y-76339053D01*
X108704039Y-76305522D01*
X108700000Y-76264513D01*
X108700000Y-75235487D01*
X108704039Y-75194478D01*
X108714211Y-75160947D01*
X108730731Y-75130040D01*
X108752957Y-75102957D01*
X108780040Y-75080731D01*
X108810947Y-75064211D01*
X108844478Y-75054039D01*
X108885487Y-75050000D01*
X109664513Y-75050000D01*
X109705522Y-75054039D01*
X109705522Y-75054039D01*
G37*
G36*
X107655522Y-75054039D02*
X107689053Y-75064211D01*
X107719960Y-75080731D01*
X107747043Y-75102957D01*
X107769269Y-75130040D01*
X107785789Y-75160947D01*
X107795961Y-75194478D01*
X107800000Y-75235487D01*
X107800000Y-76264513D01*
X107795961Y-76305522D01*
X107785789Y-76339053D01*
X107769269Y-76369960D01*
X107747043Y-76397043D01*
X107719960Y-76419269D01*
X107689053Y-76435789D01*
X107655522Y-76445961D01*
X107614513Y-76450000D01*
X106835487Y-76450000D01*
X106794478Y-76445961D01*
X106760947Y-76435789D01*
X106730040Y-76419269D01*
X106702957Y-76397043D01*
X106680731Y-76369960D01*
X106664211Y-76339053D01*
X106654039Y-76305522D01*
X106650000Y-76264513D01*
X106650000Y-75235487D01*
X106654039Y-75194478D01*
X106664211Y-75160947D01*
X106680731Y-75130040D01*
X106702957Y-75102957D01*
X106730040Y-75080731D01*
X106760947Y-75064211D01*
X106794478Y-75054039D01*
X106835487Y-75050000D01*
X107614513Y-75050000D01*
X107655522Y-75054039D01*
X107655522Y-75054039D01*
G37*
G36*
X83403992Y-74304076D02*
X83437883Y-74314357D01*
X83469111Y-74331048D01*
X83496485Y-74353515D01*
X83518952Y-74380889D01*
X83535643Y-74412117D01*
X83545924Y-74446008D01*
X83550000Y-74487391D01*
X83550000Y-75512609D01*
X83545924Y-75553992D01*
X83535643Y-75587883D01*
X83518952Y-75619111D01*
X83496485Y-75646485D01*
X83469111Y-75668952D01*
X83437883Y-75685643D01*
X83403992Y-75695924D01*
X83362609Y-75700000D01*
X82762391Y-75700000D01*
X82721008Y-75695924D01*
X82687117Y-75685643D01*
X82655889Y-75668952D01*
X82628515Y-75646485D01*
X82606048Y-75619111D01*
X82589357Y-75587883D01*
X82579076Y-75553992D01*
X82575000Y-75512609D01*
X82575000Y-74487391D01*
X82579076Y-74446008D01*
X82589357Y-74412117D01*
X82606048Y-74380889D01*
X82628515Y-74353515D01*
X82655889Y-74331048D01*
X82687117Y-74314357D01*
X82721008Y-74304076D01*
X82762391Y-74300000D01*
X83362609Y-74300000D01*
X83403992Y-74304076D01*
X83403992Y-74304076D01*
G37*
G36*
X85278992Y-74304076D02*
X85312883Y-74314357D01*
X85344111Y-74331048D01*
X85371485Y-74353515D01*
X85393952Y-74380889D01*
X85410643Y-74412117D01*
X85420924Y-74446008D01*
X85425000Y-74487391D01*
X85425000Y-75512609D01*
X85420924Y-75553992D01*
X85410643Y-75587883D01*
X85393952Y-75619111D01*
X85371485Y-75646485D01*
X85344111Y-75668952D01*
X85312883Y-75685643D01*
X85278992Y-75695924D01*
X85237609Y-75700000D01*
X84637391Y-75700000D01*
X84596008Y-75695924D01*
X84562117Y-75685643D01*
X84530889Y-75668952D01*
X84503515Y-75646485D01*
X84481048Y-75619111D01*
X84464357Y-75587883D01*
X84454076Y-75553992D01*
X84450000Y-75512609D01*
X84450000Y-74487391D01*
X84454076Y-74446008D01*
X84464357Y-74412117D01*
X84481048Y-74380889D01*
X84503515Y-74353515D01*
X84530889Y-74331048D01*
X84562117Y-74314357D01*
X84596008Y-74304076D01*
X84637391Y-74300000D01*
X85237609Y-74300000D01*
X85278992Y-74304076D01*
X85278992Y-74304076D01*
G37*
G36*
X110015888Y-72064470D02*
X110196274Y-72100350D01*
X110387362Y-72179502D01*
X110559336Y-72294411D01*
X110705589Y-72440664D01*
X110820498Y-72612638D01*
X110899650Y-72803726D01*
X110940000Y-73006584D01*
X110940000Y-73213416D01*
X110899650Y-73416274D01*
X110820498Y-73607362D01*
X110705589Y-73779336D01*
X110559336Y-73925589D01*
X110387362Y-74040498D01*
X110196274Y-74119650D01*
X110015888Y-74155530D01*
X109993417Y-74160000D01*
X109786583Y-74160000D01*
X109764112Y-74155530D01*
X109583726Y-74119650D01*
X109392638Y-74040498D01*
X109220664Y-73925589D01*
X109074411Y-73779336D01*
X108959502Y-73607362D01*
X108880350Y-73416274D01*
X108840000Y-73213416D01*
X108840000Y-73006584D01*
X108880350Y-72803726D01*
X108959502Y-72612638D01*
X109074411Y-72440664D01*
X109220664Y-72294411D01*
X109392638Y-72179502D01*
X109583726Y-72100350D01*
X109764112Y-72064470D01*
X109786583Y-72060000D01*
X109993417Y-72060000D01*
X110015888Y-72064470D01*
X110015888Y-72064470D01*
G37*
G36*
X102235888Y-72064470D02*
X102416274Y-72100350D01*
X102607362Y-72179502D01*
X102779336Y-72294411D01*
X102925589Y-72440664D01*
X103040498Y-72612638D01*
X103119650Y-72803726D01*
X103160000Y-73006584D01*
X103160000Y-73213416D01*
X103119650Y-73416274D01*
X103040498Y-73607362D01*
X102925589Y-73779336D01*
X102779336Y-73925589D01*
X102607362Y-74040498D01*
X102416274Y-74119650D01*
X102235888Y-74155530D01*
X102213417Y-74160000D01*
X102006583Y-74160000D01*
X101984112Y-74155530D01*
X101803726Y-74119650D01*
X101612638Y-74040498D01*
X101440664Y-73925589D01*
X101294411Y-73779336D01*
X101179502Y-73607362D01*
X101100350Y-73416274D01*
X101060000Y-73213416D01*
X101060000Y-73006584D01*
X101100350Y-72803726D01*
X101179502Y-72612638D01*
X101294411Y-72440664D01*
X101440664Y-72294411D01*
X101612638Y-72179502D01*
X101803726Y-72100350D01*
X101984112Y-72064470D01*
X102006583Y-72060000D01*
X102213417Y-72060000D01*
X102235888Y-72064470D01*
X102235888Y-72064470D01*
G37*
G36*
X88015888Y-72064470D02*
X88196274Y-72100350D01*
X88387362Y-72179502D01*
X88559336Y-72294411D01*
X88705589Y-72440664D01*
X88820498Y-72612638D01*
X88899650Y-72803726D01*
X88940000Y-73006584D01*
X88940000Y-73213416D01*
X88899650Y-73416274D01*
X88820498Y-73607362D01*
X88705589Y-73779336D01*
X88559336Y-73925589D01*
X88387362Y-74040498D01*
X88196274Y-74119650D01*
X88015888Y-74155530D01*
X87993417Y-74160000D01*
X87786583Y-74160000D01*
X87764112Y-74155530D01*
X87583726Y-74119650D01*
X87392638Y-74040498D01*
X87220664Y-73925589D01*
X87074411Y-73779336D01*
X86959502Y-73607362D01*
X86880350Y-73416274D01*
X86840000Y-73213416D01*
X86840000Y-73006584D01*
X86880350Y-72803726D01*
X86959502Y-72612638D01*
X87074411Y-72440664D01*
X87220664Y-72294411D01*
X87392638Y-72179502D01*
X87583726Y-72100350D01*
X87764112Y-72064470D01*
X87786583Y-72060000D01*
X87993417Y-72060000D01*
X88015888Y-72064470D01*
X88015888Y-72064470D01*
G37*
G36*
X80235888Y-72064470D02*
X80416274Y-72100350D01*
X80607362Y-72179502D01*
X80779336Y-72294411D01*
X80925589Y-72440664D01*
X81040498Y-72612638D01*
X81119650Y-72803726D01*
X81160000Y-73006584D01*
X81160000Y-73213416D01*
X81119650Y-73416274D01*
X81040498Y-73607362D01*
X80925589Y-73779336D01*
X80779336Y-73925589D01*
X80607362Y-74040498D01*
X80416274Y-74119650D01*
X80235888Y-74155530D01*
X80213417Y-74160000D01*
X80006583Y-74160000D01*
X79984112Y-74155530D01*
X79803726Y-74119650D01*
X79612638Y-74040498D01*
X79440664Y-73925589D01*
X79294411Y-73779336D01*
X79179502Y-73607362D01*
X79100350Y-73416274D01*
X79060000Y-73213416D01*
X79060000Y-73006584D01*
X79100350Y-72803726D01*
X79179502Y-72612638D01*
X79294411Y-72440664D01*
X79440664Y-72294411D01*
X79612638Y-72179502D01*
X79803726Y-72100350D01*
X79984112Y-72064470D01*
X80006583Y-72060000D01*
X80213417Y-72060000D01*
X80235888Y-72064470D01*
X80235888Y-72064470D01*
G37*
G36*
X106125888Y-70454470D02*
X106306274Y-70490350D01*
X106497362Y-70569502D01*
X106669336Y-70684411D01*
X106815589Y-70830664D01*
X106930498Y-71002638D01*
X107009650Y-71193726D01*
X107050000Y-71396584D01*
X107050000Y-71603416D01*
X107009650Y-71806274D01*
X106930498Y-71997362D01*
X106815589Y-72169336D01*
X106669336Y-72315589D01*
X106497362Y-72430498D01*
X106306274Y-72509650D01*
X106125888Y-72545530D01*
X106103417Y-72550000D01*
X105896583Y-72550000D01*
X105874112Y-72545530D01*
X105693726Y-72509650D01*
X105502638Y-72430498D01*
X105330664Y-72315589D01*
X105184411Y-72169336D01*
X105069502Y-71997362D01*
X104990350Y-71806274D01*
X104950000Y-71603416D01*
X104950000Y-71396584D01*
X104990350Y-71193726D01*
X105069502Y-71002638D01*
X105184411Y-70830664D01*
X105330664Y-70684411D01*
X105502638Y-70569502D01*
X105693726Y-70490350D01*
X105874112Y-70454470D01*
X105896583Y-70450000D01*
X106103417Y-70450000D01*
X106125888Y-70454470D01*
X106125888Y-70454470D01*
G37*
G36*
X84125888Y-70454470D02*
X84306274Y-70490350D01*
X84497362Y-70569502D01*
X84669336Y-70684411D01*
X84815589Y-70830664D01*
X84930498Y-71002638D01*
X85009650Y-71193726D01*
X85050000Y-71396584D01*
X85050000Y-71603416D01*
X85009650Y-71806274D01*
X84930498Y-71997362D01*
X84815589Y-72169336D01*
X84669336Y-72315589D01*
X84497362Y-72430498D01*
X84306274Y-72509650D01*
X84125888Y-72545530D01*
X84103417Y-72550000D01*
X83896583Y-72550000D01*
X83874112Y-72545530D01*
X83693726Y-72509650D01*
X83502638Y-72430498D01*
X83330664Y-72315589D01*
X83184411Y-72169336D01*
X83069502Y-71997362D01*
X82990350Y-71806274D01*
X82950000Y-71603416D01*
X82950000Y-71396584D01*
X82990350Y-71193726D01*
X83069502Y-71002638D01*
X83184411Y-70830664D01*
X83330664Y-70684411D01*
X83502638Y-70569502D01*
X83693726Y-70490350D01*
X83874112Y-70454470D01*
X83896583Y-70450000D01*
X84103417Y-70450000D01*
X84125888Y-70454470D01*
X84125888Y-70454470D01*
G37*
G36*
X96972521Y-68134586D02*
X97136309Y-68202429D01*
X97283720Y-68300926D01*
X97409074Y-68426280D01*
X97507571Y-68573691D01*
X97575414Y-68737479D01*
X97610000Y-68911356D01*
X97610000Y-69088644D01*
X97575414Y-69262521D01*
X97507571Y-69426309D01*
X97409074Y-69573720D01*
X97283720Y-69699074D01*
X97136309Y-69797571D01*
X96972521Y-69865414D01*
X96798644Y-69900000D01*
X96621356Y-69900000D01*
X96447479Y-69865414D01*
X96283691Y-69797571D01*
X96136280Y-69699074D01*
X96010926Y-69573720D01*
X95912429Y-69426309D01*
X95844586Y-69262521D01*
X95810000Y-69088644D01*
X95810000Y-68911356D01*
X95844586Y-68737479D01*
X95912429Y-68573691D01*
X96010926Y-68426280D01*
X96136280Y-68300926D01*
X96283691Y-68202429D01*
X96447479Y-68134586D01*
X96621356Y-68100000D01*
X96798644Y-68100000D01*
X96972521Y-68134586D01*
X96972521Y-68134586D01*
G37*
G36*
X100150000Y-69900000D02*
X98350000Y-69900000D01*
X98350000Y-68100000D01*
X100150000Y-68100000D01*
X100150000Y-69900000D01*
X100150000Y-69900000D01*
G37*
G36*
X93552521Y-68134586D02*
X93716309Y-68202429D01*
X93863720Y-68300926D01*
X93989074Y-68426280D01*
X94087571Y-68573691D01*
X94155414Y-68737479D01*
X94190000Y-68911356D01*
X94190000Y-69088644D01*
X94155414Y-69262521D01*
X94087571Y-69426309D01*
X93989074Y-69573720D01*
X93863720Y-69699074D01*
X93716309Y-69797571D01*
X93552521Y-69865414D01*
X93378644Y-69900000D01*
X93201356Y-69900000D01*
X93027479Y-69865414D01*
X92863691Y-69797571D01*
X92716280Y-69699074D01*
X92590926Y-69573720D01*
X92492429Y-69426309D01*
X92424586Y-69262521D01*
X92390000Y-69088644D01*
X92390000Y-68911356D01*
X92424586Y-68737479D01*
X92492429Y-68573691D01*
X92590926Y-68426280D01*
X92716280Y-68300926D01*
X92863691Y-68202429D01*
X93027479Y-68134586D01*
X93201356Y-68100000D01*
X93378644Y-68100000D01*
X93552521Y-68134586D01*
X93552521Y-68134586D01*
G37*
G36*
X91650000Y-69900000D02*
X89850000Y-69900000D01*
X89850000Y-68100000D01*
X91650000Y-68100000D01*
X91650000Y-69900000D01*
X91650000Y-69900000D01*
G37*
M02*
