M48
;DRILL file {KiCad 5.0.2+dfsg1-1} date Sun 26 Apr 2020 08:49:00 PM CEST
;FORMAT={-:-/ absolute / inch / decimal}
FMAT,2
INCH,TZ
T1C0.0157
T2C0.0354
T3C0.0394
T4C0.0551
T5C0.1260
%
G90
G05
T1
X3.2382Y-2.9134
X3.2382Y-3.7795
X3.2382Y-4.6457
X3.2382Y-5.5118
X3.6614Y-4.3701
X3.6614Y-4.9016
X3.6614Y-4.9409
X3.7205Y-4.9114
X3.7462Y-5.0079
X3.7795Y-3.7795
X3.8189Y-3.937
X3.8189Y-4.0551
X3.8189Y-4.1732
X3.8976Y-3.7402
X4.0157Y-3.6614
T2
X3.5728Y-3.5827
X3.6728Y-3.5827
X3.5728Y-4.4488
X3.6728Y-4.4488
X3.5728Y-2.7165
X3.6728Y-2.7165
X3.8075Y-5.315
X3.9075Y-5.315
X3.5728Y-5.315
X3.6728Y-5.315
X3.8075Y-3.5827
X3.9075Y-3.5827
X3.8075Y-4.4488
X3.9075Y-4.4488
X3.8075Y-2.7165
X3.9075Y-2.7165
T3
X3.3945Y-3.3268
X3.4945Y-3.3268
X3.5945Y-3.3268
X3.6945Y-3.3268
X3.7945Y-3.3268
X3.8945Y-3.3268
X3.9945Y-3.3268
X4.0945Y-3.3268
X3.3945Y-5.0591
X3.4945Y-5.0591
X3.5945Y-5.0591
X3.6945Y-5.0591
X3.7945Y-5.0591
X3.8945Y-5.0591
X3.9945Y-5.0591
X4.0945Y-5.0591
T4
X3.0906Y-3.0315
X3.1539Y-2.8783
X3.3071Y-2.815
X3.3071Y-3.2087
X3.4602Y-2.8783
X3.5236Y-3.0315
X3.0906Y-4.7638
X3.1539Y-4.6106
X3.3071Y-4.5472
X3.3071Y-4.9409
X3.4602Y-4.6106
X3.5236Y-4.7638
X3.0906Y-3.8976
X3.1539Y-3.7445
X3.3071Y-3.6811
X3.3071Y-4.0748
X3.4602Y-3.7445
X3.5236Y-3.8976
X3.9567Y-4.7638
X4.0201Y-4.6106
X4.1732Y-4.5472
X4.1732Y-4.9409
X4.3264Y-4.6106
X4.3898Y-4.7638
X3.9567Y-3.0315
X4.0201Y-2.8783
X4.1732Y-2.815
X4.1732Y-3.2087
X4.3264Y-2.8783
X4.3898Y-3.0315
X3.9567Y-5.6299
X4.0201Y-5.4768
X4.1732Y-5.4134
X4.1732Y-5.8071
X4.3264Y-5.4768
X4.3898Y-5.6299
X3.0906Y-5.6299
X3.1539Y-5.4768
X3.3071Y-5.4134
X3.3071Y-5.8071
X3.4602Y-5.4768
X3.5236Y-5.6299
X3.9567Y-3.8976
X4.0201Y-3.7445
X4.1732Y-3.6811
X4.1732Y-4.0748
X4.3264Y-3.7445
X4.3898Y-3.8976
T5
X4.1732Y-3.4646
X4.1732Y-5.1969
X3.3071Y-3.4646
X3.3071Y-5.1969
T0
M30
