G04 #@! TF.GenerationSoftware,KiCad,Pcbnew,5.0.2+dfsg1-1*
G04 #@! TF.CreationDate,2020-04-26T20:45:05+02:00*
G04 #@! TF.ProjectId,frontpanel,66726f6e-7470-4616-9e65-6c2e6b696361,rev?*
G04 #@! TF.SameCoordinates,Original*
G04 #@! TF.FileFunction,Legend,Top*
G04 #@! TF.FilePolarity,Positive*
%FSLAX46Y46*%
G04 Gerber Fmt 4.6, Leading zero omitted, Abs format (unit mm)*
G04 Created by KiCad (PCBNEW 5.0.2+dfsg1-1) date Sun 26 Apr 2020 08:45:05 PM CEST*
%MOMM*%
%LPD*%
G01*
G04 APERTURE LIST*
%ADD10C,0.300000*%
%ADD11C,0.250000*%
G04 APERTURE END LIST*
D10*
X10035714Y-195203571D02*
X10035714Y-193703571D01*
X10535714Y-194775000D01*
X11035714Y-193703571D01*
X11035714Y-195203571D01*
X11749999Y-195203571D02*
X11749999Y-193703571D01*
X12464285Y-195203571D02*
X12464285Y-193703571D01*
X12821428Y-193703571D01*
X13035714Y-193775000D01*
X13178571Y-193917857D01*
X13249999Y-194060714D01*
X13321428Y-194346428D01*
X13321428Y-194560714D01*
X13249999Y-194846428D01*
X13178571Y-194989285D01*
X13035714Y-195132142D01*
X12821428Y-195203571D01*
X12464285Y-195203571D01*
X13964285Y-195203571D02*
X13964285Y-193703571D01*
X16678571Y-195203571D02*
X16178571Y-194489285D01*
X15821428Y-195203571D02*
X15821428Y-193703571D01*
X16392857Y-193703571D01*
X16535714Y-193775000D01*
X16607142Y-193846428D01*
X16678571Y-193989285D01*
X16678571Y-194203571D01*
X16607142Y-194346428D01*
X16535714Y-194417857D01*
X16392857Y-194489285D01*
X15821428Y-194489285D01*
X17535714Y-195203571D02*
X17392857Y-195132142D01*
X17321428Y-195060714D01*
X17250000Y-194917857D01*
X17250000Y-194489285D01*
X17321428Y-194346428D01*
X17392857Y-194275000D01*
X17535714Y-194203571D01*
X17750000Y-194203571D01*
X17892857Y-194275000D01*
X17964285Y-194346428D01*
X18035714Y-194489285D01*
X18035714Y-194917857D01*
X17964285Y-195060714D01*
X17892857Y-195132142D01*
X17750000Y-195203571D01*
X17535714Y-195203571D01*
X19321428Y-194203571D02*
X19321428Y-195203571D01*
X18678571Y-194203571D02*
X18678571Y-194989285D01*
X18750000Y-195132142D01*
X18892857Y-195203571D01*
X19107142Y-195203571D01*
X19250000Y-195132142D01*
X19321428Y-195060714D01*
X19821428Y-194203571D02*
X20392857Y-194203571D01*
X20035714Y-193703571D02*
X20035714Y-194989285D01*
X20107142Y-195132142D01*
X20249999Y-195203571D01*
X20392857Y-195203571D01*
X21464285Y-195132142D02*
X21321428Y-195203571D01*
X21035714Y-195203571D01*
X20892857Y-195132142D01*
X20821428Y-194989285D01*
X20821428Y-194417857D01*
X20892857Y-194275000D01*
X21035714Y-194203571D01*
X21321428Y-194203571D01*
X21464285Y-194275000D01*
X21535714Y-194417857D01*
X21535714Y-194560714D01*
X20821428Y-194703571D01*
X22178571Y-195203571D02*
X22178571Y-194203571D01*
X22178571Y-194489285D02*
X22249999Y-194346428D01*
X22321428Y-194275000D01*
X22464285Y-194203571D01*
X22607142Y-194203571D01*
X24749999Y-194417857D02*
X24249999Y-194417857D01*
X24249999Y-195203571D02*
X24249999Y-193703571D01*
X24964285Y-193703571D01*
X25535714Y-195203571D02*
X25535714Y-194203571D01*
X25535714Y-194489285D02*
X25607142Y-194346428D01*
X25678571Y-194275000D01*
X25821428Y-194203571D01*
X25964285Y-194203571D01*
X26678571Y-195203571D02*
X26535714Y-195132142D01*
X26464285Y-195060714D01*
X26392857Y-194917857D01*
X26392857Y-194489285D01*
X26464285Y-194346428D01*
X26535714Y-194275000D01*
X26678571Y-194203571D01*
X26892857Y-194203571D01*
X27035714Y-194275000D01*
X27107142Y-194346428D01*
X27178571Y-194489285D01*
X27178571Y-194917857D01*
X27107142Y-195060714D01*
X27035714Y-195132142D01*
X26892857Y-195203571D01*
X26678571Y-195203571D01*
X27821428Y-194203571D02*
X27821428Y-195203571D01*
X27821428Y-194346428D02*
X27892857Y-194275000D01*
X28035714Y-194203571D01*
X28250000Y-194203571D01*
X28392857Y-194275000D01*
X28464285Y-194417857D01*
X28464285Y-195203571D01*
X28964285Y-194203571D02*
X29535714Y-194203571D01*
X29178571Y-193703571D02*
X29178571Y-194989285D01*
X29250000Y-195132142D01*
X29392857Y-195203571D01*
X29535714Y-195203571D01*
X30035714Y-194203571D02*
X30035714Y-195703571D01*
X30035714Y-194275000D02*
X30178571Y-194203571D01*
X30464285Y-194203571D01*
X30607142Y-194275000D01*
X30678571Y-194346428D01*
X30750000Y-194489285D01*
X30750000Y-194917857D01*
X30678571Y-195060714D01*
X30607142Y-195132142D01*
X30464285Y-195203571D01*
X30178571Y-195203571D01*
X30035714Y-195132142D01*
X32035714Y-195203571D02*
X32035714Y-194417857D01*
X31964285Y-194275000D01*
X31821428Y-194203571D01*
X31535714Y-194203571D01*
X31392857Y-194275000D01*
X32035714Y-195132142D02*
X31892857Y-195203571D01*
X31535714Y-195203571D01*
X31392857Y-195132142D01*
X31321428Y-194989285D01*
X31321428Y-194846428D01*
X31392857Y-194703571D01*
X31535714Y-194632142D01*
X31892857Y-194632142D01*
X32035714Y-194560714D01*
X32750000Y-194203571D02*
X32750000Y-195203571D01*
X32750000Y-194346428D02*
X32821428Y-194275000D01*
X32964285Y-194203571D01*
X33178571Y-194203571D01*
X33321428Y-194275000D01*
X33392857Y-194417857D01*
X33392857Y-195203571D01*
X34678571Y-195132142D02*
X34535714Y-195203571D01*
X34250000Y-195203571D01*
X34107142Y-195132142D01*
X34035714Y-194989285D01*
X34035714Y-194417857D01*
X34107142Y-194275000D01*
X34250000Y-194203571D01*
X34535714Y-194203571D01*
X34678571Y-194275000D01*
X34750000Y-194417857D01*
X34750000Y-194560714D01*
X34035714Y-194703571D01*
X35607142Y-195203571D02*
X35464285Y-195132142D01*
X35392857Y-194989285D01*
X35392857Y-193703571D01*
X5714285Y-196753571D02*
X5714285Y-197967857D01*
X5642857Y-198110714D01*
X5571428Y-198182142D01*
X5428571Y-198253571D01*
X5214285Y-198253571D01*
X5071428Y-198182142D01*
X5714285Y-197682142D02*
X5571428Y-197753571D01*
X5285714Y-197753571D01*
X5142857Y-197682142D01*
X5071428Y-197610714D01*
X5000000Y-197467857D01*
X5000000Y-197039285D01*
X5071428Y-196896428D01*
X5142857Y-196825000D01*
X5285714Y-196753571D01*
X5571428Y-196753571D01*
X5714285Y-196825000D01*
X6428571Y-197753571D02*
X6428571Y-196753571D01*
X6428571Y-196253571D02*
X6357142Y-196325000D01*
X6428571Y-196396428D01*
X6499999Y-196325000D01*
X6428571Y-196253571D01*
X6428571Y-196396428D01*
X6928571Y-196753571D02*
X7499999Y-196753571D01*
X7142857Y-196253571D02*
X7142857Y-197539285D01*
X7214285Y-197682142D01*
X7357142Y-197753571D01*
X7499999Y-197753571D01*
X7999999Y-197753571D02*
X7999999Y-196253571D01*
X8642857Y-197753571D02*
X8642857Y-196967857D01*
X8571428Y-196825000D01*
X8428571Y-196753571D01*
X8214285Y-196753571D01*
X8071428Y-196825000D01*
X7999999Y-196896428D01*
X9999999Y-196753571D02*
X9999999Y-197753571D01*
X9357142Y-196753571D02*
X9357142Y-197539285D01*
X9428571Y-197682142D01*
X9571428Y-197753571D01*
X9785714Y-197753571D01*
X9928571Y-197682142D01*
X9999999Y-197610714D01*
X10714285Y-197753571D02*
X10714285Y-196253571D01*
X10714285Y-196825000D02*
X10857142Y-196753571D01*
X11142857Y-196753571D01*
X11285714Y-196825000D01*
X11357142Y-196896428D01*
X11428571Y-197039285D01*
X11428571Y-197467857D01*
X11357142Y-197610714D01*
X11285714Y-197682142D01*
X11142857Y-197753571D01*
X10857142Y-197753571D01*
X10714285Y-197682142D01*
X12071428Y-197610714D02*
X12142857Y-197682142D01*
X12071428Y-197753571D01*
X11999999Y-197682142D01*
X12071428Y-197610714D01*
X12071428Y-197753571D01*
X13428571Y-197682142D02*
X13285714Y-197753571D01*
X12999999Y-197753571D01*
X12857142Y-197682142D01*
X12785714Y-197610714D01*
X12714285Y-197467857D01*
X12714285Y-197039285D01*
X12785714Y-196896428D01*
X12857142Y-196825000D01*
X12999999Y-196753571D01*
X13285714Y-196753571D01*
X13428571Y-196825000D01*
X14285714Y-197753571D02*
X14142857Y-197682142D01*
X14071428Y-197610714D01*
X13999999Y-197467857D01*
X13999999Y-197039285D01*
X14071428Y-196896428D01*
X14142857Y-196825000D01*
X14285714Y-196753571D01*
X14499999Y-196753571D01*
X14642857Y-196825000D01*
X14714285Y-196896428D01*
X14785714Y-197039285D01*
X14785714Y-197467857D01*
X14714285Y-197610714D01*
X14642857Y-197682142D01*
X14499999Y-197753571D01*
X14285714Y-197753571D01*
X15428571Y-197753571D02*
X15428571Y-196753571D01*
X15428571Y-196896428D02*
X15499999Y-196825000D01*
X15642857Y-196753571D01*
X15857142Y-196753571D01*
X15999999Y-196825000D01*
X16071428Y-196967857D01*
X16071428Y-197753571D01*
X16071428Y-196967857D02*
X16142857Y-196825000D01*
X16285714Y-196753571D01*
X16499999Y-196753571D01*
X16642857Y-196825000D01*
X16714285Y-196967857D01*
X16714285Y-197753571D01*
X18500000Y-196182142D02*
X17214285Y-198110714D01*
X18785714Y-196753571D02*
X19357142Y-196753571D01*
X18999999Y-196253571D02*
X18999999Y-197539285D01*
X19071428Y-197682142D01*
X19214285Y-197753571D01*
X19357142Y-197753571D01*
X20071428Y-197753571D02*
X19928571Y-197682142D01*
X19857142Y-197610714D01*
X19785714Y-197467857D01*
X19785714Y-197039285D01*
X19857142Y-196896428D01*
X19928571Y-196825000D01*
X20071428Y-196753571D01*
X20285714Y-196753571D01*
X20428571Y-196825000D01*
X20499999Y-196896428D01*
X20571428Y-197039285D01*
X20571428Y-197467857D01*
X20499999Y-197610714D01*
X20428571Y-197682142D01*
X20285714Y-197753571D01*
X20071428Y-197753571D01*
X21214285Y-197753571D02*
X21214285Y-196753571D01*
X21214285Y-196896428D02*
X21285714Y-196825000D01*
X21428571Y-196753571D01*
X21642857Y-196753571D01*
X21785714Y-196825000D01*
X21857142Y-196967857D01*
X21857142Y-197753571D01*
X21857142Y-196967857D02*
X21928571Y-196825000D01*
X22071428Y-196753571D01*
X22285714Y-196753571D01*
X22428571Y-196825000D01*
X22499999Y-196967857D01*
X22499999Y-197753571D01*
X23857142Y-197753571D02*
X23857142Y-196967857D01*
X23785714Y-196825000D01*
X23642857Y-196753571D01*
X23357142Y-196753571D01*
X23214285Y-196825000D01*
X23857142Y-197682142D02*
X23714285Y-197753571D01*
X23357142Y-197753571D01*
X23214285Y-197682142D01*
X23142857Y-197539285D01*
X23142857Y-197396428D01*
X23214285Y-197253571D01*
X23357142Y-197182142D01*
X23714285Y-197182142D01*
X23857142Y-197110714D01*
X24571428Y-197753571D02*
X24571428Y-196753571D01*
X24571428Y-197039285D02*
X24642857Y-196896428D01*
X24714285Y-196825000D01*
X24857142Y-196753571D01*
X25000000Y-196753571D01*
X26142857Y-196753571D02*
X26142857Y-197753571D01*
X25500000Y-196753571D02*
X25500000Y-197539285D01*
X25571428Y-197682142D01*
X25714285Y-197753571D01*
X25928571Y-197753571D01*
X26071428Y-197682142D01*
X26142857Y-197610714D01*
X26785714Y-197682142D02*
X26928571Y-197753571D01*
X27214285Y-197753571D01*
X27357142Y-197682142D01*
X27428571Y-197539285D01*
X27428571Y-197467857D01*
X27357142Y-197325000D01*
X27214285Y-197253571D01*
X27000000Y-197253571D01*
X26857142Y-197182142D01*
X26785714Y-197039285D01*
X26785714Y-196967857D01*
X26857142Y-196825000D01*
X27000000Y-196753571D01*
X27214285Y-196753571D01*
X27357142Y-196825000D01*
X29142857Y-196182142D02*
X27857142Y-198110714D01*
X29642857Y-197753571D02*
X29642857Y-196753571D01*
X29642857Y-196896428D02*
X29714285Y-196825000D01*
X29857142Y-196753571D01*
X30071428Y-196753571D01*
X30214285Y-196825000D01*
X30285714Y-196967857D01*
X30285714Y-197753571D01*
X30285714Y-196967857D02*
X30357142Y-196825000D01*
X30499999Y-196753571D01*
X30714285Y-196753571D01*
X30857142Y-196825000D01*
X30928571Y-196967857D01*
X30928571Y-197753571D01*
X31642857Y-197753571D02*
X31642857Y-196753571D01*
X31642857Y-196253571D02*
X31571428Y-196325000D01*
X31642857Y-196396428D01*
X31714285Y-196325000D01*
X31642857Y-196253571D01*
X31642857Y-196396428D01*
X32999999Y-197753571D02*
X32999999Y-196253571D01*
X32999999Y-197682142D02*
X32857142Y-197753571D01*
X32571428Y-197753571D01*
X32428571Y-197682142D01*
X32357142Y-197610714D01*
X32285714Y-197467857D01*
X32285714Y-197039285D01*
X32357142Y-196896428D01*
X32428571Y-196825000D01*
X32571428Y-196753571D01*
X32857142Y-196753571D01*
X32999999Y-196825000D01*
X33714285Y-197753571D02*
X33714285Y-196753571D01*
X33714285Y-196253571D02*
X33642857Y-196325000D01*
X33714285Y-196396428D01*
X33785714Y-196325000D01*
X33714285Y-196253571D01*
X33714285Y-196396428D01*
X34428571Y-197753571D02*
X34428571Y-196753571D01*
X34428571Y-197039285D02*
X34500000Y-196896428D01*
X34571428Y-196825000D01*
X34714285Y-196753571D01*
X34857142Y-196753571D01*
X35571428Y-197753571D02*
X35428571Y-197682142D01*
X35357142Y-197610714D01*
X35285714Y-197467857D01*
X35285714Y-197039285D01*
X35357142Y-196896428D01*
X35428571Y-196825000D01*
X35571428Y-196753571D01*
X35785714Y-196753571D01*
X35928571Y-196825000D01*
X36000000Y-196896428D01*
X36071428Y-197039285D01*
X36071428Y-197467857D01*
X36000000Y-197610714D01*
X35928571Y-197682142D01*
X35785714Y-197753571D01*
X35571428Y-197753571D01*
X37357142Y-196753571D02*
X37357142Y-197753571D01*
X36714285Y-196753571D02*
X36714285Y-197539285D01*
X36785714Y-197682142D01*
X36928571Y-197753571D01*
X37142857Y-197753571D01*
X37285714Y-197682142D01*
X37357142Y-197610714D01*
X37857142Y-196753571D02*
X38428571Y-196753571D01*
X38071428Y-196253571D02*
X38071428Y-197539285D01*
X38142857Y-197682142D01*
X38285714Y-197753571D01*
X38428571Y-197753571D01*
X39500000Y-197682142D02*
X39357142Y-197753571D01*
X39071428Y-197753571D01*
X38928571Y-197682142D01*
X38857142Y-197539285D01*
X38857142Y-196967857D01*
X38928571Y-196825000D01*
X39071428Y-196753571D01*
X39357142Y-196753571D01*
X39500000Y-196825000D01*
X39571428Y-196967857D01*
X39571428Y-197110714D01*
X38857142Y-197253571D01*
X40214285Y-197753571D02*
X40214285Y-196753571D01*
X40214285Y-197039285D02*
X40285714Y-196896428D01*
X40357142Y-196825000D01*
X40500000Y-196753571D01*
X40642857Y-196753571D01*
D11*
X18480952Y-206552380D02*
X18480952Y-207266666D01*
X18433333Y-207409523D01*
X18338095Y-207504761D01*
X18195238Y-207552380D01*
X18100000Y-207552380D01*
X19433333Y-207552380D02*
X18957142Y-207552380D01*
X18957142Y-206552380D01*
X20338095Y-207457142D02*
X20290476Y-207504761D01*
X20147619Y-207552380D01*
X20052380Y-207552380D01*
X19909523Y-207504761D01*
X19814285Y-207409523D01*
X19766666Y-207314285D01*
X19719047Y-207123809D01*
X19719047Y-206980952D01*
X19766666Y-206790476D01*
X19814285Y-206695238D01*
X19909523Y-206600000D01*
X20052380Y-206552380D01*
X20147619Y-206552380D01*
X20290476Y-206600000D01*
X20338095Y-206647619D01*
X21052380Y-206552380D02*
X21052380Y-207266666D01*
X21004761Y-207409523D01*
X20909523Y-207504761D01*
X20766666Y-207552380D01*
X20671428Y-207552380D01*
X22004761Y-207552380D02*
X21528571Y-207552380D01*
X21528571Y-206552380D01*
X22909523Y-207457142D02*
X22861904Y-207504761D01*
X22719047Y-207552380D01*
X22623809Y-207552380D01*
X22480952Y-207504761D01*
X22385714Y-207409523D01*
X22338095Y-207314285D01*
X22290476Y-207123809D01*
X22290476Y-206980952D01*
X22338095Y-206790476D01*
X22385714Y-206695238D01*
X22480952Y-206600000D01*
X22623809Y-206552380D01*
X22719047Y-206552380D01*
X22861904Y-206600000D01*
X22909523Y-206647619D01*
X23623809Y-206552380D02*
X23623809Y-207266666D01*
X23576190Y-207409523D01*
X23480952Y-207504761D01*
X23338095Y-207552380D01*
X23242857Y-207552380D01*
X24576190Y-207552380D02*
X24100000Y-207552380D01*
X24100000Y-206552380D01*
X25480952Y-207457142D02*
X25433333Y-207504761D01*
X25290476Y-207552380D01*
X25195238Y-207552380D01*
X25052380Y-207504761D01*
X24957142Y-207409523D01*
X24909523Y-207314285D01*
X24861904Y-207123809D01*
X24861904Y-206980952D01*
X24909523Y-206790476D01*
X24957142Y-206695238D01*
X25052380Y-206600000D01*
X25195238Y-206552380D01*
X25290476Y-206552380D01*
X25433333Y-206600000D01*
X25480952Y-206647619D01*
X26195238Y-206552380D02*
X26195238Y-207266666D01*
X26147619Y-207409523D01*
X26052380Y-207504761D01*
X25909523Y-207552380D01*
X25814285Y-207552380D01*
X27147619Y-207552380D02*
X26671428Y-207552380D01*
X26671428Y-206552380D01*
X28052380Y-207457142D02*
X28004761Y-207504761D01*
X27861904Y-207552380D01*
X27766666Y-207552380D01*
X27623809Y-207504761D01*
X27528571Y-207409523D01*
X27480952Y-207314285D01*
X27433333Y-207123809D01*
X27433333Y-206980952D01*
X27480952Y-206790476D01*
X27528571Y-206695238D01*
X27623809Y-206600000D01*
X27766666Y-206552380D01*
X27861904Y-206552380D01*
X28004761Y-206600000D01*
X28052380Y-206647619D01*
M02*
