G04 #@! TF.GenerationSoftware,KiCad,Pcbnew,5.0.2+dfsg1-1*
G04 #@! TF.CreationDate,2020-04-26T20:45:05+02:00*
G04 #@! TF.ProjectId,frontpanel,66726f6e-7470-4616-9e65-6c2e6b696361,rev?*
G04 #@! TF.SameCoordinates,Original*
G04 #@! TF.FileFunction,Soldermask,Bot*
G04 #@! TF.FilePolarity,Negative*
%FSLAX46Y46*%
G04 Gerber Fmt 4.6, Leading zero omitted, Abs format (unit mm)*
G04 Created by KiCad (PCBNEW 5.0.2+dfsg1-1) date Sun 26 Apr 2020 08:45:05 PM CEST*
%MOMM*%
%LPD*%
G01*
G04 APERTURE LIST*
%ADD10C,0.100000*%
G04 APERTURE END LIST*
D10*
G36*
X34225256Y-166141298D02*
X34331579Y-166162447D01*
X34632042Y-166286903D01*
X34898852Y-166465180D01*
X34902454Y-166467587D01*
X35132413Y-166697546D01*
X35313098Y-166967960D01*
X35437553Y-167268422D01*
X35501000Y-167587389D01*
X35501000Y-167912611D01*
X35437553Y-168231578D01*
X35313098Y-168532040D01*
X35132413Y-168802454D01*
X34902454Y-169032413D01*
X34902451Y-169032415D01*
X34632042Y-169213097D01*
X34331579Y-169337553D01*
X34225256Y-169358702D01*
X34012611Y-169401000D01*
X33687389Y-169401000D01*
X33474744Y-169358702D01*
X33368421Y-169337553D01*
X33067958Y-169213097D01*
X32797549Y-169032415D01*
X32797546Y-169032413D01*
X32567587Y-168802454D01*
X32386902Y-168532040D01*
X32262447Y-168231578D01*
X32199000Y-167912611D01*
X32199000Y-167587389D01*
X32262447Y-167268422D01*
X32386902Y-166967960D01*
X32567587Y-166697546D01*
X32797546Y-166467587D01*
X32801148Y-166465180D01*
X33067958Y-166286903D01*
X33368421Y-166162447D01*
X33474744Y-166141298D01*
X33687389Y-166099000D01*
X34012611Y-166099000D01*
X34225256Y-166141298D01*
X34225256Y-166141298D01*
G37*
G36*
X12225256Y-166141298D02*
X12331579Y-166162447D01*
X12632042Y-166286903D01*
X12898852Y-166465180D01*
X12902454Y-166467587D01*
X13132413Y-166697546D01*
X13313098Y-166967960D01*
X13437553Y-167268422D01*
X13501000Y-167587389D01*
X13501000Y-167912611D01*
X13437553Y-168231578D01*
X13313098Y-168532040D01*
X13132413Y-168802454D01*
X12902454Y-169032413D01*
X12902451Y-169032415D01*
X12632042Y-169213097D01*
X12331579Y-169337553D01*
X12225256Y-169358702D01*
X12012611Y-169401000D01*
X11687389Y-169401000D01*
X11474744Y-169358702D01*
X11368421Y-169337553D01*
X11067958Y-169213097D01*
X10797549Y-169032415D01*
X10797546Y-169032413D01*
X10567587Y-168802454D01*
X10386902Y-168532040D01*
X10262447Y-168231578D01*
X10199000Y-167912611D01*
X10199000Y-167587389D01*
X10262447Y-167268422D01*
X10386902Y-166967960D01*
X10567587Y-166697546D01*
X10797546Y-166467587D01*
X10801148Y-166465180D01*
X11067958Y-166286903D01*
X11368421Y-166162447D01*
X11474744Y-166141298D01*
X11687389Y-166099000D01*
X12012611Y-166099000D01*
X12225256Y-166141298D01*
X12225256Y-166141298D01*
G37*
G36*
X34225256Y-122141298D02*
X34331579Y-122162447D01*
X34632042Y-122286903D01*
X34898852Y-122465180D01*
X34902454Y-122467587D01*
X35132413Y-122697546D01*
X35313098Y-122967960D01*
X35437553Y-123268422D01*
X35501000Y-123587389D01*
X35501000Y-123912611D01*
X35437553Y-124231578D01*
X35313098Y-124532040D01*
X35132413Y-124802454D01*
X34902454Y-125032413D01*
X34902451Y-125032415D01*
X34632042Y-125213097D01*
X34331579Y-125337553D01*
X34225256Y-125358702D01*
X34012611Y-125401000D01*
X33687389Y-125401000D01*
X33474744Y-125358702D01*
X33368421Y-125337553D01*
X33067958Y-125213097D01*
X32797549Y-125032415D01*
X32797546Y-125032413D01*
X32567587Y-124802454D01*
X32386902Y-124532040D01*
X32262447Y-124231578D01*
X32199000Y-123912611D01*
X32199000Y-123587389D01*
X32262447Y-123268422D01*
X32386902Y-122967960D01*
X32567587Y-122697546D01*
X32797546Y-122467587D01*
X32801148Y-122465180D01*
X33067958Y-122286903D01*
X33368421Y-122162447D01*
X33474744Y-122141298D01*
X33687389Y-122099000D01*
X34012611Y-122099000D01*
X34225256Y-122141298D01*
X34225256Y-122141298D01*
G37*
G36*
X12225256Y-122141298D02*
X12331579Y-122162447D01*
X12632042Y-122286903D01*
X12898852Y-122465180D01*
X12902454Y-122467587D01*
X13132413Y-122697546D01*
X13313098Y-122967960D01*
X13437553Y-123268422D01*
X13501000Y-123587389D01*
X13501000Y-123912611D01*
X13437553Y-124231578D01*
X13313098Y-124532040D01*
X13132413Y-124802454D01*
X12902454Y-125032413D01*
X12902451Y-125032415D01*
X12632042Y-125213097D01*
X12331579Y-125337553D01*
X12225256Y-125358702D01*
X12012611Y-125401000D01*
X11687389Y-125401000D01*
X11474744Y-125358702D01*
X11368421Y-125337553D01*
X11067958Y-125213097D01*
X10797549Y-125032415D01*
X10797546Y-125032413D01*
X10567587Y-124802454D01*
X10386902Y-124532040D01*
X10262447Y-124231578D01*
X10199000Y-123912611D01*
X10199000Y-123587389D01*
X10262447Y-123268422D01*
X10386902Y-122967960D01*
X10567587Y-122697546D01*
X10797546Y-122467587D01*
X10801148Y-122465180D01*
X11067958Y-122286903D01*
X11368421Y-122162447D01*
X11474744Y-122141298D01*
X11687389Y-122099000D01*
X12012611Y-122099000D01*
X12225256Y-122141298D01*
X12225256Y-122141298D01*
G37*
M02*
