G04 #@! TF.GenerationSoftware,KiCad,Pcbnew,5.0.2+dfsg1-1*
G04 #@! TF.CreationDate,2020-04-26T20:45:05+02:00*
G04 #@! TF.ProjectId,frontpanel,66726f6e-7470-4616-9e65-6c2e6b696361,rev?*
G04 #@! TF.SameCoordinates,Original*
G04 #@! TF.FileFunction,Legend,Bot*
G04 #@! TF.FilePolarity,Positive*
%FSLAX46Y46*%
G04 Gerber Fmt 4.6, Leading zero omitted, Abs format (unit mm)*
G04 Created by KiCad (PCBNEW 5.0.2+dfsg1-1) date Sun 26 Apr 2020 08:45:05 PM CEST*
%MOMM*%
%LPD*%
G01*
G04 APERTURE LIST*
%ADD10C,0.300000*%
%ADD11C,0.500000*%
G04 APERTURE END LIST*
D10*
X34535714Y-146428571D02*
X34535714Y-144928571D01*
X33821428Y-146428571D02*
X33821428Y-144928571D01*
X32964285Y-146428571D01*
X32964285Y-144928571D01*
X34535714Y-189928571D02*
X34535714Y-188428571D01*
X33821428Y-189928571D02*
X33821428Y-188428571D01*
X32964285Y-189928571D01*
X32964285Y-188428571D01*
X13250000Y-188428571D02*
X12964285Y-188428571D01*
X12821428Y-188500000D01*
X12678571Y-188642857D01*
X12607142Y-188928571D01*
X12607142Y-189428571D01*
X12678571Y-189714285D01*
X12821428Y-189857142D01*
X12964285Y-189928571D01*
X13250000Y-189928571D01*
X13392857Y-189857142D01*
X13535714Y-189714285D01*
X13607142Y-189428571D01*
X13607142Y-188928571D01*
X13535714Y-188642857D01*
X13392857Y-188500000D01*
X13250000Y-188428571D01*
X11964285Y-188428571D02*
X11964285Y-189642857D01*
X11892857Y-189785714D01*
X11821428Y-189857142D01*
X11678571Y-189928571D01*
X11392857Y-189928571D01*
X11250000Y-189857142D01*
X11178571Y-189785714D01*
X11107142Y-189642857D01*
X11107142Y-188428571D01*
X10607142Y-188428571D02*
X9750000Y-188428571D01*
X10178571Y-189928571D02*
X10178571Y-188428571D01*
X13250000Y-144928571D02*
X12964285Y-144928571D01*
X12821428Y-145000000D01*
X12678571Y-145142857D01*
X12607142Y-145428571D01*
X12607142Y-145928571D01*
X12678571Y-146214285D01*
X12821428Y-146357142D01*
X12964285Y-146428571D01*
X13250000Y-146428571D01*
X13392857Y-146357142D01*
X13535714Y-146214285D01*
X13607142Y-145928571D01*
X13607142Y-145428571D01*
X13535714Y-145142857D01*
X13392857Y-145000000D01*
X13250000Y-144928571D01*
X11964285Y-144928571D02*
X11964285Y-146142857D01*
X11892857Y-146285714D01*
X11821428Y-146357142D01*
X11678571Y-146428571D01*
X11392857Y-146428571D01*
X11250000Y-146357142D01*
X11178571Y-146285714D01*
X11107142Y-146142857D01*
X11107142Y-144928571D01*
X10607142Y-144928571D02*
X9750000Y-144928571D01*
X10178571Y-146428571D02*
X10178571Y-144928571D01*
X34535714Y-102928571D02*
X34535714Y-101428571D01*
X33821428Y-102928571D02*
X33821428Y-101428571D01*
X32964285Y-102928571D01*
X32964285Y-101428571D01*
X13250000Y-101428571D02*
X12964285Y-101428571D01*
X12821428Y-101500000D01*
X12678571Y-101642857D01*
X12607142Y-101928571D01*
X12607142Y-102428571D01*
X12678571Y-102714285D01*
X12821428Y-102857142D01*
X12964285Y-102928571D01*
X13250000Y-102928571D01*
X13392857Y-102857142D01*
X13535714Y-102714285D01*
X13607142Y-102428571D01*
X13607142Y-101928571D01*
X13535714Y-101642857D01*
X13392857Y-101500000D01*
X13250000Y-101428571D01*
X11964285Y-101428571D02*
X11964285Y-102642857D01*
X11892857Y-102785714D01*
X11821428Y-102857142D01*
X11678571Y-102928571D01*
X11392857Y-102928571D01*
X11250000Y-102857142D01*
X11178571Y-102785714D01*
X11107142Y-102642857D01*
X11107142Y-101428571D01*
X10607142Y-101428571D02*
X9750000Y-101428571D01*
X10178571Y-102928571D02*
X10178571Y-101428571D01*
D11*
X30714285Y-86357142D02*
X30714285Y-83357142D01*
X29714285Y-85500000D01*
X28714285Y-83357142D01*
X28714285Y-86357142D01*
X27285714Y-86357142D02*
X27285714Y-83357142D01*
X25857142Y-86357142D02*
X25857142Y-83357142D01*
X25142857Y-83357142D01*
X24714285Y-83500000D01*
X24428571Y-83785714D01*
X24285714Y-84071428D01*
X24142857Y-84642857D01*
X24142857Y-85071428D01*
X24285714Y-85642857D01*
X24428571Y-85928571D01*
X24714285Y-86214285D01*
X25142857Y-86357142D01*
X25857142Y-86357142D01*
X22857142Y-86357142D02*
X22857142Y-83357142D01*
X19428571Y-86357142D02*
X17857142Y-84357142D01*
X19428571Y-84357142D02*
X17857142Y-86357142D01*
X15428571Y-84357142D02*
X15428571Y-86357142D01*
X16142857Y-83214285D02*
X16857142Y-85357142D01*
X15000000Y-85357142D01*
X32928571Y-205357142D02*
X31214285Y-205357142D01*
X32071428Y-208357142D02*
X32071428Y-205357142D01*
X29642857Y-205357142D02*
X29071428Y-205357142D01*
X28785714Y-205500000D01*
X28500000Y-205785714D01*
X28357142Y-206357142D01*
X28357142Y-207357142D01*
X28500000Y-207928571D01*
X28785714Y-208214285D01*
X29071428Y-208357142D01*
X29642857Y-208357142D01*
X29928571Y-208214285D01*
X30214285Y-207928571D01*
X30357142Y-207357142D01*
X30357142Y-206357142D01*
X30214285Y-205785714D01*
X29928571Y-205500000D01*
X29642857Y-205357142D01*
X27071428Y-208357142D02*
X27071428Y-205357142D01*
X26071428Y-207500000D01*
X25071428Y-205357142D01*
X25071428Y-208357142D01*
X23785714Y-207500000D02*
X22357142Y-207500000D01*
X24071428Y-208357142D02*
X23071428Y-205357142D01*
X22071428Y-208357142D01*
X19357142Y-208357142D02*
X20357142Y-206928571D01*
X21071428Y-208357142D02*
X21071428Y-205357142D01*
X19928571Y-205357142D01*
X19642857Y-205500000D01*
X19500000Y-205642857D01*
X19357142Y-205928571D01*
X19357142Y-206357142D01*
X19500000Y-206642857D01*
X19642857Y-206785714D01*
X19928571Y-206928571D01*
X21071428Y-206928571D01*
X18071428Y-205357142D02*
X18071428Y-207785714D01*
X17928571Y-208071428D01*
X17785714Y-208214285D01*
X17500000Y-208357142D01*
X16928571Y-208357142D01*
X16642857Y-208214285D01*
X16500000Y-208071428D01*
X16357142Y-207785714D01*
X16357142Y-205357142D01*
X15071428Y-208214285D02*
X14642857Y-208357142D01*
X13928571Y-208357142D01*
X13642857Y-208214285D01*
X13500000Y-208071428D01*
X13357142Y-207785714D01*
X13357142Y-207500000D01*
X13500000Y-207214285D01*
X13642857Y-207071428D01*
X13928571Y-206928571D01*
X14500000Y-206785714D01*
X14785714Y-206642857D01*
X14928571Y-206500000D01*
X15071428Y-206214285D01*
X15071428Y-205928571D01*
X14928571Y-205642857D01*
X14785714Y-205500000D01*
X14500000Y-205357142D01*
X13785714Y-205357142D01*
X13357142Y-205500000D01*
M02*
