G04 #@! TF.GenerationSoftware,KiCad,Pcbnew,5.0.2+dfsg1-1*
G04 #@! TF.CreationDate,2020-04-26T20:45:05+02:00*
G04 #@! TF.ProjectId,frontpanel,66726f6e-7470-4616-9e65-6c2e6b696361,rev?*
G04 #@! TF.SameCoordinates,Original*
G04 #@! TF.FileFunction,Profile,NP*
%FSLAX46Y46*%
G04 Gerber Fmt 4.6, Leading zero omitted, Abs format (unit mm)*
G04 Created by KiCad (PCBNEW 5.0.2+dfsg1-1) date Sun 26 Apr 2020 08:45:05 PM CEST*
%MOMM*%
%LPD*%
G01*
G04 APERTURE LIST*
%ADD10C,0.200000*%
G04 APERTURE END LIST*
D10*
X41377500Y-137493400D02*
X41110500Y-138138200D01*
X41587400Y-136827800D02*
X41377500Y-137493400D01*
X41738400Y-136146400D02*
X41587400Y-136827800D01*
X41829600Y-135454500D02*
X41738400Y-136146400D01*
X41860000Y-134757200D02*
X41829600Y-135454500D01*
X41829600Y-134060000D02*
X41860000Y-134757200D01*
X41738400Y-133368000D02*
X41829600Y-134060000D01*
X41587400Y-132686700D02*
X41738400Y-133368000D01*
X41377500Y-132021000D02*
X41587400Y-132686700D01*
X41110500Y-131376300D02*
X41377500Y-132021000D01*
X40788200Y-130757200D02*
X41110500Y-131376300D01*
X40413200Y-130168600D02*
X40788200Y-130757200D01*
X39988300Y-129614900D02*
X40413200Y-130168600D01*
X39516800Y-129100400D02*
X39988300Y-129614900D01*
X39002300Y-128628800D02*
X39516800Y-129100400D01*
X38448600Y-128204000D02*
X39002300Y-128628800D01*
X37860000Y-127829000D02*
X38448600Y-128204000D01*
X37240900Y-127506700D02*
X37860000Y-127829000D01*
X36596200Y-127239700D02*
X37240900Y-127506700D01*
X35930500Y-127029800D02*
X36596200Y-127239700D01*
X35249200Y-126878700D02*
X35930500Y-127029800D01*
X34557200Y-126787600D02*
X35249200Y-126878700D01*
X33860000Y-126757200D02*
X34557200Y-126787600D01*
X33162800Y-126787600D02*
X33860000Y-126757200D01*
X39365600Y-86029200D02*
X38919500Y-85801200D01*
X13249200Y-164635700D02*
X12557200Y-164726800D01*
X13930500Y-164484600D02*
X13249200Y-164635700D01*
X14596200Y-164274700D02*
X13930500Y-164484600D01*
X15240900Y-164007700D02*
X14596200Y-164274700D01*
X15860000Y-163685400D02*
X15240900Y-164007700D01*
X16448600Y-163310400D02*
X15860000Y-163685400D01*
X17002300Y-162885600D02*
X16448600Y-163310400D01*
X17516800Y-162414100D02*
X17002300Y-162885600D01*
X17988300Y-161899500D02*
X17516800Y-162414100D01*
X18413200Y-161345800D02*
X17988300Y-161899500D01*
X18788200Y-160757200D02*
X18413200Y-161345800D01*
X19110500Y-160138200D02*
X18788200Y-160757200D01*
X19377500Y-159493400D02*
X19110500Y-160138200D01*
X19587400Y-158827800D02*
X19377500Y-159493400D01*
X19738400Y-158146400D02*
X19587400Y-158827800D01*
X19829500Y-157454500D02*
X19738400Y-158146400D01*
X19860000Y-156757200D02*
X19829500Y-157454500D01*
X19829500Y-156060000D02*
X19860000Y-156757200D01*
X19738400Y-155368000D02*
X19829500Y-156060000D01*
X19587400Y-154686700D02*
X19738400Y-155368000D01*
X19377500Y-154021000D02*
X19587400Y-154686700D01*
X19110500Y-153376300D02*
X19377500Y-154021000D01*
X18788200Y-152757200D02*
X19110500Y-153376300D01*
X18413200Y-152168600D02*
X18788200Y-152757200D01*
X25085000Y-103415200D02*
X25590800Y-103231200D01*
X24672600Y-103761200D02*
X25085000Y-103415200D01*
X24403500Y-104227200D02*
X24672600Y-103761200D01*
X24310000Y-104757200D02*
X24403500Y-104227200D01*
X24403500Y-105287200D02*
X24310000Y-104757200D01*
X24672600Y-105753200D02*
X24403500Y-105287200D01*
X25085000Y-106099200D02*
X24672600Y-105753200D01*
X25590800Y-106283200D02*
X25085000Y-106099200D01*
X7500000Y-86107200D02*
X4299990Y-86107200D01*
X7994420Y-86029200D02*
X7500000Y-86107200D01*
X8440440Y-85801200D02*
X7994420Y-86029200D01*
X8794420Y-85447200D02*
X8440440Y-85801200D01*
X9021680Y-85001200D02*
X8794420Y-85447200D01*
X9099990Y-84507200D02*
X9021680Y-85001200D01*
X9021680Y-84013200D02*
X9099990Y-84507200D01*
X8794420Y-83567200D02*
X9021680Y-84013200D01*
X8440440Y-83213200D02*
X8794420Y-83567200D01*
X7994420Y-82985200D02*
X8440440Y-83213200D01*
X7500000Y-82907200D02*
X7994420Y-82985200D01*
X4299990Y-82907200D02*
X7500000Y-82907200D01*
X3805570Y-82985200D02*
X4299990Y-82907200D01*
X11162800Y-104787200D02*
X11860000Y-104757200D01*
X10470800Y-104879200D02*
X11162800Y-104787200D01*
X9789440Y-105030200D02*
X10470800Y-104879200D01*
X9123830Y-105239200D02*
X9789440Y-105030200D01*
X8479050Y-105507200D02*
X9123830Y-105239200D01*
X7859990Y-105829200D02*
X8479050Y-105507200D01*
X7271380Y-106204200D02*
X7859990Y-105829200D01*
X6717700Y-106629200D02*
X7271380Y-106204200D01*
X6203140Y-107100200D02*
X6717700Y-106629200D01*
X5731640Y-107615200D02*
X6203140Y-107100200D01*
X5306780Y-108168200D02*
X5731640Y-107615200D01*
X4931790Y-108757200D02*
X5306780Y-108168200D01*
X4609530Y-109376200D02*
X4931790Y-108757200D01*
X4342450Y-110021000D02*
X4609530Y-109376200D01*
X4132580Y-110686700D02*
X4342450Y-110021000D01*
X3981540Y-111368000D02*
X4132580Y-110686700D01*
X3890440Y-112060000D02*
X3981540Y-111368000D01*
X3859990Y-112757200D02*
X3890440Y-112060000D01*
X3890440Y-113454500D02*
X3859990Y-112757200D01*
X3981540Y-114146400D02*
X3890440Y-113454500D01*
X4132580Y-114827800D02*
X3981540Y-114146400D01*
X21047400Y-149753500D02*
X20635000Y-150099500D01*
X21316500Y-149287300D02*
X21047400Y-149753500D01*
X21410000Y-148757200D02*
X21316500Y-149287300D01*
X21316500Y-148227100D02*
X21410000Y-148757200D01*
X21047400Y-147760900D02*
X21316500Y-148227100D01*
X20635000Y-147414900D02*
X21047400Y-147760900D01*
X20129200Y-147230800D02*
X20635000Y-147414900D01*
X19590800Y-147230800D02*
X20129200Y-147230800D01*
X19085000Y-147414900D02*
X19590800Y-147230800D01*
X18672600Y-147760900D02*
X19085000Y-147414900D01*
X18403500Y-148227100D02*
X18672600Y-147760900D01*
X18310000Y-148757200D02*
X18403500Y-148227100D01*
X18403500Y-149287300D02*
X18310000Y-148757200D01*
X18672600Y-149753500D02*
X18403500Y-149287300D01*
X19085000Y-150099500D02*
X18672600Y-149753500D01*
X19590800Y-150283700D02*
X19085000Y-150099500D01*
X26129200Y-150283700D02*
X25590800Y-150283700D01*
X26635000Y-150099500D02*
X26129200Y-150283700D01*
X27047400Y-149753500D02*
X26635000Y-150099500D01*
X27316500Y-149287300D02*
X27047400Y-149753500D01*
X27410000Y-148757200D02*
X27316500Y-149287300D01*
X27316500Y-148227100D02*
X27410000Y-148757200D01*
X27047400Y-147760900D02*
X27316500Y-148227100D01*
X26635000Y-147414900D02*
X27047400Y-147760900D01*
X26342500Y-154021000D02*
X26609500Y-153376300D01*
X26132600Y-154686700D02*
X26342500Y-154021000D01*
X25981500Y-155368000D02*
X26132600Y-154686700D01*
X25890400Y-156060000D02*
X25981500Y-155368000D01*
X25860000Y-156757200D02*
X25890400Y-156060000D01*
X25890400Y-157454500D02*
X25860000Y-156757200D01*
X25981500Y-158146400D02*
X25890400Y-157454500D01*
X26132600Y-158827800D02*
X25981500Y-158146400D01*
X26342500Y-159493400D02*
X26132600Y-158827800D01*
X26609500Y-160138200D02*
X26342500Y-159493400D01*
X26931800Y-160757200D02*
X26609500Y-160138200D01*
X27306800Y-161345800D02*
X26931800Y-160757200D01*
X27731600Y-161899500D02*
X27306800Y-161345800D01*
X28203100Y-162414100D02*
X27731600Y-161899500D01*
X28717700Y-162885600D02*
X28203100Y-162414100D01*
X29271400Y-163310400D02*
X28717700Y-162885600D01*
X29860000Y-163685400D02*
X29271400Y-163310400D01*
X30479000Y-164007700D02*
X29860000Y-163685400D01*
X31123800Y-164274700D02*
X30479000Y-164007700D01*
X31789400Y-164484600D02*
X31123800Y-164274700D01*
X32470800Y-164635700D02*
X31789400Y-164484600D01*
X33162800Y-164726800D02*
X32470800Y-164635700D01*
X11860000Y-164757200D02*
X11162800Y-164726800D01*
X12557200Y-164726800D02*
X11860000Y-164757200D01*
X19738400Y-114146400D02*
X19587400Y-114827800D01*
X19829500Y-113454500D02*
X19738400Y-114146400D01*
X19860000Y-112757200D02*
X19829500Y-113454500D01*
X19829500Y-112060000D02*
X19860000Y-112757200D01*
X19738400Y-111368000D02*
X19829500Y-112060000D01*
X19587400Y-110686700D02*
X19738400Y-111368000D01*
X19377500Y-110021000D02*
X19587400Y-110686700D01*
X19110500Y-109376200D02*
X19377500Y-110021000D01*
X18788200Y-108757200D02*
X19110500Y-109376200D01*
X18413200Y-108168200D02*
X18788200Y-108757200D01*
X17988300Y-107615200D02*
X18413200Y-108168200D01*
X17516800Y-107100200D02*
X17988300Y-107615200D01*
X17002300Y-106629200D02*
X17516800Y-107100200D01*
X16448600Y-106204200D02*
X17002300Y-106629200D01*
X15860000Y-105829200D02*
X16448600Y-106204200D01*
X15240900Y-105507200D02*
X15860000Y-105829200D01*
X14596200Y-105239200D02*
X15240900Y-105507200D01*
X13930500Y-105030200D02*
X14596200Y-105239200D01*
X13249200Y-104879200D02*
X13930500Y-105030200D01*
X12557200Y-104787200D02*
X13249200Y-104879200D01*
X11860000Y-104757200D02*
X12557200Y-104787200D01*
X38565600Y-85447200D02*
X38338300Y-85001200D01*
X38338300Y-85001200D02*
X38260000Y-84507200D01*
X39365600Y-82985200D02*
X39860000Y-82907200D01*
X38919500Y-83213200D02*
X39365600Y-82985200D01*
X38565600Y-83567200D02*
X38919500Y-83213200D01*
X38338300Y-84013200D02*
X38565600Y-83567200D01*
X4342450Y-115493400D02*
X4132580Y-114827800D01*
X4609530Y-116138200D02*
X4342450Y-115493400D01*
X4931790Y-116757200D02*
X4609530Y-116138200D01*
X5306780Y-117345800D02*
X4931790Y-116757200D01*
X5731640Y-117899500D02*
X5306780Y-117345800D01*
X6203140Y-118414100D02*
X5731640Y-117899500D01*
X6717700Y-118885600D02*
X6203140Y-118414100D01*
X7271380Y-119310400D02*
X6717700Y-118885600D01*
X7859990Y-119685400D02*
X7271380Y-119310400D01*
X8479050Y-120007700D02*
X7859990Y-119685400D01*
X9123830Y-120274700D02*
X8479050Y-120007700D01*
X9789440Y-120484600D02*
X9123830Y-120274700D01*
X10470800Y-120635700D02*
X9789440Y-120484600D01*
X11162800Y-120726800D02*
X10470800Y-120635700D01*
X20129200Y-106283200D02*
X19590800Y-106283200D01*
X20635000Y-106099200D02*
X20129200Y-106283200D01*
X21047400Y-105753200D02*
X20635000Y-106099200D01*
X21316500Y-105287200D02*
X21047400Y-105753200D01*
X21410000Y-104757200D02*
X21316500Y-105287200D01*
X21316500Y-104227200D02*
X21410000Y-104757200D01*
X21047400Y-103761200D02*
X21316500Y-104227200D01*
X35249200Y-164635700D02*
X34557200Y-164726800D01*
X35930500Y-164484600D02*
X35249200Y-164635700D01*
X36596200Y-164274700D02*
X35930500Y-164484600D01*
X37240900Y-164007700D02*
X36596200Y-164274700D01*
X37860000Y-163685400D02*
X37240900Y-164007700D01*
X38448600Y-163310400D02*
X37860000Y-163685400D01*
X39002300Y-162885600D02*
X38448600Y-163310400D01*
X39516800Y-162414100D02*
X39002300Y-162885600D01*
X39988300Y-161899500D02*
X39516800Y-162414100D01*
X40413200Y-161345800D02*
X39988300Y-161899500D01*
X40788200Y-160757200D02*
X40413200Y-161345800D01*
X41110500Y-160138200D02*
X40788200Y-160757200D01*
X41377500Y-159493400D02*
X41110500Y-160138200D01*
X41587400Y-158827800D02*
X41377500Y-159493400D01*
X41738400Y-158146400D02*
X41587400Y-158827800D01*
X41829600Y-157454500D02*
X41738400Y-158146400D01*
X41860000Y-156757200D02*
X41829600Y-157454500D01*
X41829600Y-156060000D02*
X41860000Y-156757200D01*
X41738400Y-155368000D02*
X41829600Y-156060000D01*
X41587400Y-154686700D02*
X41738400Y-155368000D01*
X41377500Y-154021000D02*
X41587400Y-154686700D01*
X41110500Y-153376300D02*
X41377500Y-154021000D01*
X40788200Y-152757200D02*
X41110500Y-153376300D01*
X40413200Y-152168600D02*
X40788200Y-152757200D01*
X3359540Y-83213200D02*
X3805570Y-82985200D01*
X3005570Y-83567200D02*
X3359540Y-83213200D01*
X2778310Y-84013200D02*
X3005570Y-83567200D01*
X2700000Y-84507200D02*
X2778310Y-84013200D01*
X2778310Y-85001200D02*
X2700000Y-84507200D01*
X3005570Y-85447200D02*
X2778310Y-85001200D01*
X3359540Y-85801200D02*
X3005570Y-85447200D01*
X3805570Y-86029200D02*
X3359540Y-85801200D01*
X4299990Y-86107200D02*
X3805570Y-86029200D01*
X43060000Y-86107200D02*
X39860000Y-86107200D01*
X43554400Y-86029200D02*
X43060000Y-86107200D01*
X44000500Y-85801200D02*
X43554400Y-86029200D01*
X44354400Y-85447200D02*
X44000500Y-85801200D01*
X44581700Y-85001200D02*
X44354400Y-85447200D01*
X43060000Y-82907200D02*
X43554400Y-82985200D01*
X39860000Y-82907200D02*
X43060000Y-82907200D01*
X30479000Y-120007700D02*
X29860000Y-119685400D01*
X31123800Y-120274700D02*
X30479000Y-120007700D01*
X31789400Y-120484600D02*
X31123800Y-120274700D01*
X32470800Y-120635700D02*
X31789400Y-120484600D01*
X33162800Y-120726800D02*
X32470800Y-120635700D01*
X11860000Y-120757200D02*
X11162800Y-120726800D01*
X12557200Y-120726800D02*
X11860000Y-120757200D01*
X13249200Y-120635700D02*
X12557200Y-120726800D01*
X13930500Y-120484600D02*
X13249200Y-120635700D01*
X14596200Y-120274700D02*
X13930500Y-120484600D01*
X15240900Y-120007700D02*
X14596200Y-120274700D01*
X15860000Y-119685400D02*
X15240900Y-120007700D01*
X16448600Y-119310400D02*
X15860000Y-119685400D01*
X17002300Y-118885600D02*
X16448600Y-119310400D01*
X17516800Y-118414100D02*
X17002300Y-118885600D01*
X17988300Y-117899500D02*
X17516800Y-118414100D01*
X18413200Y-117345800D02*
X17988300Y-117899500D01*
X18788200Y-116757200D02*
X18413200Y-117345800D01*
X19110500Y-116138200D02*
X18788200Y-116757200D01*
X19377500Y-115493400D02*
X19110500Y-116138200D01*
X19587400Y-114827800D02*
X19377500Y-115493400D01*
X38260000Y-84507200D02*
X38338300Y-84013200D01*
X44660000Y-84507200D02*
X44581700Y-85001200D01*
X44581700Y-84013200D02*
X44660000Y-84507200D01*
X44354400Y-83567200D02*
X44581700Y-84013200D01*
X44000500Y-83213200D02*
X44354400Y-83567200D01*
X43554400Y-82985200D02*
X44000500Y-83213200D01*
X39988300Y-151614900D02*
X40413200Y-152168600D01*
X39516800Y-151100400D02*
X39988300Y-151614900D01*
X39002300Y-150628800D02*
X39516800Y-151100400D01*
X38448600Y-150204000D02*
X39002300Y-150628800D01*
X37860000Y-149829000D02*
X38448600Y-150204000D01*
X37240900Y-149506700D02*
X37860000Y-149829000D01*
X36596200Y-149239700D02*
X37240900Y-149506700D01*
X35930500Y-149029800D02*
X36596200Y-149239700D01*
X35249200Y-148878700D02*
X35930500Y-149029800D01*
X34557200Y-148787600D02*
X35249200Y-148878700D01*
X33860000Y-148757200D02*
X34557200Y-148787600D01*
X33162800Y-148787600D02*
X33860000Y-148757200D01*
X32470800Y-148878700D02*
X33162800Y-148787600D01*
X31789400Y-149029800D02*
X32470800Y-148878700D01*
X31123800Y-149239700D02*
X31789400Y-149029800D01*
X30479000Y-149506700D02*
X31123800Y-149239700D01*
X29860000Y-149829000D02*
X30479000Y-149506700D01*
X29271400Y-150204000D02*
X29860000Y-149829000D01*
X28717700Y-150628800D02*
X29271400Y-150204000D01*
X28203100Y-151100400D02*
X28717700Y-150628800D01*
X27731600Y-151614900D02*
X28203100Y-151100400D01*
X27306800Y-152168600D02*
X27731600Y-151614900D01*
X26931800Y-152757200D02*
X27306800Y-152168600D01*
X26609500Y-153376300D02*
X26931800Y-152757200D01*
X4342450Y-154021000D02*
X4609530Y-153376300D01*
X4132580Y-154686700D02*
X4342450Y-154021000D01*
X3981540Y-155368000D02*
X4132580Y-154686700D01*
X3890440Y-156060000D02*
X3981540Y-155368000D01*
X3859990Y-156757200D02*
X3890440Y-156060000D01*
X3890440Y-157454500D02*
X3859990Y-156757200D01*
X3981540Y-158146400D02*
X3890440Y-157454500D01*
X4132580Y-158827800D02*
X3981540Y-158146400D01*
X4342450Y-159493400D02*
X4132580Y-158827800D01*
X4609530Y-160138200D02*
X4342450Y-159493400D01*
X4931790Y-160757200D02*
X4609530Y-160138200D01*
X5306780Y-161345800D02*
X4931790Y-160757200D01*
X5731640Y-161899500D02*
X5306780Y-161345800D01*
X6203140Y-162414100D02*
X5731640Y-161899500D01*
X6717700Y-162885600D02*
X6203140Y-162414100D01*
X7271380Y-163310400D02*
X6717700Y-162885600D01*
X7859990Y-163685400D02*
X7271380Y-163310400D01*
X8479050Y-164007700D02*
X7859990Y-163685400D01*
X9123830Y-164274700D02*
X8479050Y-164007700D01*
X9789440Y-164484600D02*
X9123830Y-164274700D01*
X10470800Y-164635700D02*
X9789440Y-164484600D01*
X11162800Y-164726800D02*
X10470800Y-164635700D01*
X20129200Y-150283700D02*
X19590800Y-150283700D01*
X20635000Y-150099500D02*
X20129200Y-150283700D01*
X17988300Y-151614900D02*
X18413200Y-152168600D01*
X17516800Y-151100400D02*
X17988300Y-151614900D01*
X17002300Y-150628800D02*
X17516800Y-151100400D01*
X16448600Y-150204000D02*
X17002300Y-150628800D01*
X15860000Y-149829000D02*
X16448600Y-150204000D01*
X15240900Y-149506700D02*
X15860000Y-149829000D01*
X14596200Y-149239700D02*
X15240900Y-149506700D01*
X13930500Y-149029800D02*
X14596200Y-149239700D01*
X13249200Y-148878700D02*
X13930500Y-149029800D01*
X12557200Y-148787600D02*
X13249200Y-148878700D01*
X11860000Y-148757200D02*
X12557200Y-148787600D01*
X11162800Y-148787600D02*
X11860000Y-148757200D01*
X10470800Y-148878700D02*
X11162800Y-148787600D01*
X9789440Y-149029800D02*
X10470800Y-148878700D01*
X9123830Y-149239700D02*
X9789440Y-149029800D01*
X8479050Y-149506700D02*
X9123830Y-149239700D01*
X7859990Y-149829000D02*
X8479050Y-149506700D01*
X7271380Y-150204000D02*
X7859990Y-149829000D01*
X6717700Y-150628800D02*
X7271380Y-150204000D01*
X6203140Y-151100400D02*
X6717700Y-150628800D01*
X5731640Y-151614900D02*
X6203140Y-151100400D01*
X5306780Y-152168600D02*
X5731640Y-151614900D01*
X4931790Y-152757200D02*
X5306780Y-152168600D01*
X4609530Y-153376300D02*
X4931790Y-152757200D01*
X38338300Y-206512780D02*
X38565600Y-206066760D01*
X38260000Y-207007200D02*
X38338300Y-206512780D01*
X38338300Y-207501630D02*
X38260000Y-207007200D01*
X38565600Y-207947660D02*
X38338300Y-207501630D01*
X38919500Y-208301630D02*
X38565600Y-207947660D01*
X39365600Y-208528900D02*
X38919500Y-208301630D01*
X39860000Y-208607210D02*
X39365600Y-208528900D01*
X33860000Y-186757200D02*
X33162800Y-186726800D01*
X34557200Y-186726800D02*
X33860000Y-186757200D01*
X35249200Y-186635700D02*
X34557200Y-186726800D01*
X35930500Y-186484600D02*
X35249200Y-186635700D01*
X36596200Y-186274700D02*
X35930500Y-186484600D01*
X37240900Y-186007700D02*
X36596200Y-186274700D01*
X37860000Y-185685400D02*
X37240900Y-186007700D01*
X38448600Y-185310400D02*
X37860000Y-185685400D01*
X39002300Y-184885600D02*
X38448600Y-185310400D01*
X39516800Y-184414100D02*
X39002300Y-184885600D01*
X39988300Y-183899500D02*
X39516800Y-184414100D01*
X40413200Y-183345800D02*
X39988300Y-183899500D01*
X40788200Y-182757200D02*
X40413200Y-183345800D01*
X41110500Y-182138200D02*
X40788200Y-182757200D01*
X41377500Y-181493400D02*
X41110500Y-182138200D01*
X41587400Y-180827800D02*
X41377500Y-181493400D01*
X41738400Y-180146400D02*
X41587400Y-180827800D01*
X41829600Y-179454500D02*
X41738400Y-180146400D01*
X19738400Y-177368000D02*
X19829500Y-178060000D01*
X19587400Y-176686700D02*
X19738400Y-177368000D01*
X19377500Y-176021000D02*
X19587400Y-176686700D01*
X19110500Y-175376300D02*
X19377500Y-176021000D01*
X18788200Y-174757200D02*
X19110500Y-175376300D01*
X18413200Y-174168600D02*
X18788200Y-174757200D01*
X17988300Y-173614900D02*
X18413200Y-174168600D01*
X17516800Y-173100400D02*
X17988300Y-173614900D01*
X17002300Y-172628800D02*
X17516800Y-173100400D01*
X16448600Y-172204000D02*
X17002300Y-172628800D01*
X15860000Y-171829000D02*
X16448600Y-172204000D01*
X15240900Y-171506700D02*
X15860000Y-171829000D01*
X14596200Y-171239700D02*
X15240900Y-171506700D01*
X13930500Y-171029800D02*
X14596200Y-171239700D01*
X13249200Y-170878700D02*
X13930500Y-171029800D01*
X12557200Y-170787600D02*
X13249200Y-170878700D01*
X11860000Y-170757200D02*
X12557200Y-170787600D01*
X11162800Y-170787600D02*
X11860000Y-170757200D01*
X10470800Y-170878700D02*
X11162800Y-170787600D01*
X9789440Y-171029800D02*
X10470800Y-170878700D01*
X9123830Y-171239700D02*
X9789440Y-171029800D01*
X8479050Y-171506700D02*
X9123830Y-171239700D01*
X7859990Y-171829000D02*
X8479050Y-171506700D01*
X7271380Y-172204000D02*
X7859990Y-171829000D01*
X21047400Y-171753500D02*
X20635000Y-172099500D01*
X21316500Y-171287300D02*
X21047400Y-171753500D01*
X21410000Y-170757200D02*
X21316500Y-171287300D01*
X21316500Y-170227100D02*
X21410000Y-170757200D01*
X21047400Y-169760900D02*
X21316500Y-170227100D01*
X20635000Y-169414900D02*
X21047400Y-169760900D01*
X20129200Y-169230800D02*
X20635000Y-169414900D01*
X19590800Y-169230800D02*
X20129200Y-169230800D01*
X19085000Y-169414900D02*
X19590800Y-169230800D01*
X18672600Y-169760900D02*
X19085000Y-169414900D01*
X18403500Y-170227100D02*
X18672600Y-169760900D01*
X18310000Y-170757200D02*
X18403500Y-170227100D01*
X18403500Y-171287300D02*
X18310000Y-170757200D01*
X18672600Y-171753500D02*
X18403500Y-171287300D01*
X19085000Y-172099500D02*
X18672600Y-171753500D01*
X19590800Y-172283700D02*
X19085000Y-172099500D01*
X33860000Y-164757200D02*
X33162800Y-164726800D01*
X34557200Y-164726800D02*
X33860000Y-164757200D01*
X0Y-210007200D02*
X45720000Y-210007200D01*
X38919500Y-85801200D02*
X38565600Y-85447200D01*
X28717700Y-106629200D02*
X29271400Y-106204200D01*
X28203100Y-107100200D02*
X28717700Y-106629200D01*
X27731600Y-107615200D02*
X28203100Y-107100200D01*
X27306800Y-108168200D02*
X27731600Y-107615200D01*
X26931800Y-108757200D02*
X27306800Y-108168200D01*
X26609500Y-109376200D02*
X26931800Y-108757200D01*
X26342500Y-110021000D02*
X26609500Y-109376200D01*
X26132600Y-110686700D02*
X26342500Y-110021000D01*
X25981500Y-111368000D02*
X26132600Y-110686700D01*
X25890400Y-112060000D02*
X25981500Y-111368000D01*
X25860000Y-112757200D02*
X25890400Y-112060000D01*
X25890400Y-113454500D02*
X25860000Y-112757200D01*
X25981500Y-114146400D02*
X25890400Y-113454500D01*
X26132600Y-114827800D02*
X25981500Y-114146400D01*
X26342500Y-115493400D02*
X26132600Y-114827800D01*
X26609500Y-116138200D02*
X26342500Y-115493400D01*
X26931800Y-116757200D02*
X26609500Y-116138200D01*
X27306800Y-117345800D02*
X26931800Y-116757200D01*
X27731600Y-117899500D02*
X27306800Y-117345800D01*
X28203100Y-118414100D02*
X27731600Y-117899500D01*
X28717700Y-118885600D02*
X28203100Y-118414100D01*
X29271400Y-119310400D02*
X28717700Y-118885600D01*
X29860000Y-119685400D02*
X29271400Y-119310400D01*
X39860000Y-86107200D02*
X39365600Y-86029200D01*
X5731640Y-139899500D02*
X5306780Y-139345800D01*
X6203140Y-140414100D02*
X5731640Y-139899500D01*
X6717700Y-140885600D02*
X6203140Y-140414100D01*
X7271380Y-141310400D02*
X6717700Y-140885600D01*
X7859990Y-141685400D02*
X7271380Y-141310400D01*
X8479050Y-142007700D02*
X7859990Y-141685400D01*
X9123830Y-142274700D02*
X8479050Y-142007700D01*
X9789440Y-142484600D02*
X9123830Y-142274700D01*
X10470800Y-142635700D02*
X9789440Y-142484600D01*
X11162800Y-142726800D02*
X10470800Y-142635700D01*
X33860000Y-142757200D02*
X33162800Y-142726800D01*
X34557200Y-142726800D02*
X33860000Y-142757200D01*
X35249200Y-142635700D02*
X34557200Y-142726800D01*
X35930500Y-142484600D02*
X35249200Y-142635700D01*
X36596200Y-142274700D02*
X35930500Y-142484600D01*
X37240900Y-142007700D02*
X36596200Y-142274700D01*
X37860000Y-141685400D02*
X37240900Y-142007700D01*
X38448600Y-141310400D02*
X37860000Y-141685400D01*
X39002300Y-140885600D02*
X38448600Y-141310400D01*
X39516800Y-140414100D02*
X39002300Y-140885600D01*
X39988300Y-139899500D02*
X39516800Y-140414100D01*
X40413200Y-139345800D02*
X39988300Y-139899500D01*
X40788200Y-138757200D02*
X40413200Y-139345800D01*
X41110500Y-138138200D02*
X40788200Y-138757200D01*
X27731600Y-139899500D02*
X27306800Y-139345800D01*
X28203100Y-140414100D02*
X27731600Y-139899500D01*
X28717700Y-140885600D02*
X28203100Y-140414100D01*
X29271400Y-141310400D02*
X28717700Y-140885600D01*
X29860000Y-141685400D02*
X29271400Y-141310400D01*
X30479000Y-142007700D02*
X29860000Y-141685400D01*
X31123800Y-142274700D02*
X30479000Y-142007700D01*
X31789400Y-142484600D02*
X31123800Y-142274700D01*
X32470800Y-142635700D02*
X31789400Y-142484600D01*
X33162800Y-142726800D02*
X32470800Y-142635700D01*
X26129200Y-128283700D02*
X25590800Y-128283700D01*
X26635000Y-128099500D02*
X26129200Y-128283700D01*
X27047400Y-127753500D02*
X26635000Y-128099500D01*
X27316500Y-127287300D02*
X27047400Y-127753500D01*
X27410000Y-126757200D02*
X27316500Y-127287300D01*
X27316500Y-126227100D02*
X27410000Y-126757200D01*
X27047400Y-125760900D02*
X27316500Y-126227100D01*
X26635000Y-125414900D02*
X27047400Y-125760900D01*
X26129200Y-125230800D02*
X26635000Y-125414900D01*
X25590800Y-125230800D02*
X26129200Y-125230800D01*
X25085000Y-125414900D02*
X25590800Y-125230800D01*
X24672600Y-125760900D02*
X25085000Y-125414900D01*
X24403500Y-126227100D02*
X24672600Y-125760900D01*
X24310000Y-126757200D02*
X24403500Y-126227100D01*
X24403500Y-127287300D02*
X24310000Y-126757200D01*
X24672600Y-127753500D02*
X24403500Y-127287300D01*
X25085000Y-128099500D02*
X24672600Y-127753500D01*
X25590800Y-128283700D02*
X25085000Y-128099500D01*
X20129200Y-128283700D02*
X19590800Y-128283700D01*
X20635000Y-128099500D02*
X20129200Y-128283700D01*
X21047400Y-127753500D02*
X20635000Y-128099500D01*
X21316500Y-127287300D02*
X21047400Y-127753500D01*
X21410000Y-126757200D02*
X21316500Y-127287300D01*
X21316500Y-126227100D02*
X21410000Y-126757200D01*
X21047400Y-125760900D02*
X21316500Y-126227100D01*
X20635000Y-125414900D02*
X21047400Y-125760900D01*
X20129200Y-125230800D02*
X20635000Y-125414900D01*
X19590800Y-125230800D02*
X20129200Y-125230800D01*
X19085000Y-125414900D02*
X19590800Y-125230800D01*
X18672600Y-125760900D02*
X19085000Y-125414900D01*
X18403500Y-126227100D02*
X18672600Y-125760900D01*
X18310000Y-126757200D02*
X18403500Y-126227100D01*
X18403500Y-127287300D02*
X18310000Y-126757200D01*
X18672600Y-127753500D02*
X18403500Y-127287300D01*
X19085000Y-128099500D02*
X18672600Y-127753500D01*
X19590800Y-128283700D02*
X19085000Y-128099500D01*
X20635000Y-103415200D02*
X21047400Y-103761200D01*
X20129200Y-103231200D02*
X20635000Y-103415200D01*
X19590800Y-103231200D02*
X20129200Y-103231200D01*
X19085000Y-103415200D02*
X19590800Y-103231200D01*
X18672600Y-103761200D02*
X19085000Y-103415200D01*
X18403500Y-104227200D02*
X18672600Y-103761200D01*
X18310000Y-104757200D02*
X18403500Y-104227200D01*
X18403500Y-105287200D02*
X18310000Y-104757200D01*
X18672600Y-105753200D02*
X18403500Y-105287200D01*
X19085000Y-106099200D02*
X18672600Y-105753200D01*
X19590800Y-106283200D02*
X19085000Y-106099200D01*
X26129200Y-106283200D02*
X25590800Y-106283200D01*
X26635000Y-106099200D02*
X26129200Y-106283200D01*
X27047400Y-105753200D02*
X26635000Y-106099200D01*
X27316500Y-105287200D02*
X27047400Y-105753200D01*
X27410000Y-104757200D02*
X27316500Y-105287200D01*
X27316500Y-104227200D02*
X27410000Y-104757200D01*
X27047400Y-103761200D02*
X27316500Y-104227200D01*
X26635000Y-103415200D02*
X27047400Y-103761200D01*
X26129200Y-103231200D02*
X26635000Y-103415200D01*
X25590800Y-103231200D02*
X26129200Y-103231200D01*
X41860000Y-178757200D02*
X41829600Y-179454500D01*
X41829600Y-178060000D02*
X41860000Y-178757200D01*
X41738400Y-177368000D02*
X41829600Y-178060000D01*
X41587400Y-176686700D02*
X41738400Y-177368000D01*
X41377500Y-176021000D02*
X41587400Y-176686700D01*
X41110500Y-175376300D02*
X41377500Y-176021000D01*
X40788200Y-174757200D02*
X41110500Y-175376300D01*
X40413200Y-174168600D02*
X40788200Y-174757200D01*
X39988300Y-173614900D02*
X40413200Y-174168600D01*
X39516800Y-173100400D02*
X39988300Y-173614900D01*
X39002300Y-172628800D02*
X39516800Y-173100400D01*
X38448600Y-172204000D02*
X39002300Y-172628800D01*
X37860000Y-171829000D02*
X38448600Y-172204000D01*
X37240900Y-171506700D02*
X37860000Y-171829000D01*
X36596200Y-171239700D02*
X37240900Y-171506700D01*
X35930500Y-171029800D02*
X36596200Y-171239700D01*
X35249200Y-170878700D02*
X35930500Y-171029800D01*
X34557200Y-170787600D02*
X35249200Y-170878700D01*
X33860000Y-170757200D02*
X34557200Y-170787600D01*
X33162800Y-170787600D02*
X33860000Y-170757200D01*
X32470800Y-170878700D02*
X33162800Y-170787600D01*
X31789400Y-171029800D02*
X32470800Y-170878700D01*
X31123800Y-171239700D02*
X31789400Y-171029800D01*
X30479000Y-171506700D02*
X31123800Y-171239700D01*
X29860000Y-171829000D02*
X30479000Y-171506700D01*
X0Y-81507200D02*
X0Y-210007200D01*
X6717700Y-172628800D02*
X7271380Y-172204000D01*
X6203140Y-173100400D02*
X6717700Y-172628800D01*
X5731640Y-173614900D02*
X6203140Y-173100400D01*
X5306780Y-174168600D02*
X5731640Y-173614900D01*
X4931790Y-174757200D02*
X5306780Y-174168600D01*
X4609530Y-175376300D02*
X4931790Y-174757200D01*
X4342450Y-176021000D02*
X4609530Y-175376300D01*
X4132580Y-176686700D02*
X4342450Y-176021000D01*
X3981540Y-177368000D02*
X4132580Y-176686700D01*
X3890440Y-178060000D02*
X3981540Y-177368000D01*
X3859990Y-178757200D02*
X3890440Y-178060000D01*
X3890440Y-179454500D02*
X3859990Y-178757200D01*
X3981540Y-180146400D02*
X3890440Y-179454500D01*
X4132580Y-180827800D02*
X3981540Y-180146400D01*
X4342450Y-181493400D02*
X4132580Y-180827800D01*
X4609530Y-182138200D02*
X4342450Y-181493400D01*
X4931790Y-182757200D02*
X4609530Y-182138200D01*
X5306780Y-183345800D02*
X4931790Y-182757200D01*
X5731640Y-183899500D02*
X5306780Y-183345800D01*
X6203140Y-184414100D02*
X5731640Y-183899500D01*
X6717700Y-184885600D02*
X6203140Y-184414100D01*
X7271380Y-185310400D02*
X6717700Y-184885600D01*
X7859990Y-185685400D02*
X7271380Y-185310400D01*
X8479050Y-186007700D02*
X7859990Y-185685400D01*
X26129200Y-147230800D02*
X26635000Y-147414900D01*
X25590800Y-147230800D02*
X26129200Y-147230800D01*
X25085000Y-147414900D02*
X25590800Y-147230800D01*
X24672600Y-147760900D02*
X25085000Y-147414900D01*
X24403500Y-148227100D02*
X24672600Y-147760900D01*
X24310000Y-148757200D02*
X24403500Y-148227100D01*
X24403500Y-149287300D02*
X24310000Y-148757200D01*
X24672600Y-149753500D02*
X24403500Y-149287300D01*
X25085000Y-150099500D02*
X24672600Y-149753500D01*
X25590800Y-150283700D02*
X25085000Y-150099500D01*
X11860000Y-142757200D02*
X11162800Y-142726800D01*
X12557200Y-142726800D02*
X11860000Y-142757200D01*
X13249200Y-142635700D02*
X12557200Y-142726800D01*
X13930500Y-142484600D02*
X13249200Y-142635700D01*
X14596200Y-142274700D02*
X13930500Y-142484600D01*
X15240900Y-142007700D02*
X14596200Y-142274700D01*
X15860000Y-141685400D02*
X15240900Y-142007700D01*
X16448600Y-141310400D02*
X15860000Y-141685400D01*
X17002300Y-140885600D02*
X16448600Y-141310400D01*
X17516800Y-140414100D02*
X17002300Y-140885600D01*
X17988300Y-139899500D02*
X17516800Y-140414100D01*
X18413200Y-139345800D02*
X17988300Y-139899500D01*
X18788200Y-138757200D02*
X18413200Y-139345800D01*
X19110500Y-138138200D02*
X18788200Y-138757200D01*
X33860000Y-120757200D02*
X33162800Y-120726800D01*
X34557200Y-120726800D02*
X33860000Y-120757200D01*
X35249200Y-120635700D02*
X34557200Y-120726800D01*
X35930500Y-120484600D02*
X35249200Y-120635700D01*
X36596200Y-120274700D02*
X35930500Y-120484600D01*
X37240900Y-120007700D02*
X36596200Y-120274700D01*
X37860000Y-119685400D02*
X37240900Y-120007700D01*
X38448600Y-119310400D02*
X37860000Y-119685400D01*
X39002300Y-118885600D02*
X38448600Y-119310400D01*
X39516800Y-118414100D02*
X39002300Y-118885600D01*
X39988300Y-117899500D02*
X39516800Y-118414100D01*
X40413200Y-117345800D02*
X39988300Y-117899500D01*
X40788200Y-116757200D02*
X40413200Y-117345800D01*
X41110500Y-116138200D02*
X40788200Y-116757200D01*
X41377500Y-115493400D02*
X41110500Y-116138200D01*
X41587400Y-114827800D02*
X41377500Y-115493400D01*
X41738400Y-114146400D02*
X41587400Y-114827800D01*
X41829600Y-113454500D02*
X41738400Y-114146400D01*
X41860000Y-112757200D02*
X41829600Y-113454500D01*
X41829600Y-112060000D02*
X41860000Y-112757200D01*
X3805570Y-205485520D02*
X4299990Y-205407210D01*
X3359540Y-205712780D02*
X3805570Y-205485520D01*
X3005570Y-206066760D02*
X3359540Y-205712780D01*
X2778310Y-206512780D02*
X3005570Y-206066760D01*
X2700000Y-207007200D02*
X2778310Y-206512780D01*
X2778310Y-207501630D02*
X2700000Y-207007200D01*
X3005570Y-207947660D02*
X2778310Y-207501630D01*
X3359540Y-208301630D02*
X3005570Y-207947660D01*
X3805570Y-208528900D02*
X3359540Y-208301630D01*
X4299990Y-208607210D02*
X3805570Y-208528900D01*
X43060000Y-208607210D02*
X39860000Y-208607210D01*
X43554400Y-208528900D02*
X43060000Y-208607210D01*
X44000500Y-208301630D02*
X43554400Y-208528900D01*
X44354400Y-207947660D02*
X44000500Y-208301630D01*
X44581700Y-207501630D02*
X44354400Y-207947660D01*
X44660000Y-207007200D02*
X44581700Y-207501630D01*
X44581700Y-206512780D02*
X44660000Y-207007200D01*
X44354400Y-206066760D02*
X44581700Y-206512780D01*
X44000500Y-205712780D02*
X44354400Y-206066760D01*
X43554400Y-205485520D02*
X44000500Y-205712780D01*
X43060000Y-205407210D02*
X43554400Y-205485520D01*
X39860000Y-205407210D02*
X43060000Y-205407210D01*
X39365600Y-205485520D02*
X39860000Y-205407210D01*
X38919500Y-205712780D02*
X39365600Y-205485520D01*
X38565600Y-206066760D02*
X38919500Y-205712780D01*
X19377500Y-137493400D02*
X19110500Y-138138200D01*
X19587400Y-136827800D02*
X19377500Y-137493400D01*
X19738400Y-136146400D02*
X19587400Y-136827800D01*
X19829500Y-135454500D02*
X19738400Y-136146400D01*
X19860000Y-134757200D02*
X19829500Y-135454500D01*
X19829500Y-134060000D02*
X19860000Y-134757200D01*
X19738400Y-133368000D02*
X19829500Y-134060000D01*
X19587400Y-132686700D02*
X19738400Y-133368000D01*
X19377500Y-132021000D02*
X19587400Y-132686700D01*
X19110500Y-131376300D02*
X19377500Y-132021000D01*
X18788200Y-130757200D02*
X19110500Y-131376300D01*
X18413200Y-130168600D02*
X18788200Y-130757200D01*
X17988300Y-129614900D02*
X18413200Y-130168600D01*
X17516800Y-129100400D02*
X17988300Y-129614900D01*
X17002300Y-128628800D02*
X17516800Y-129100400D01*
X16448600Y-128204000D02*
X17002300Y-128628800D01*
X15860000Y-127829000D02*
X16448600Y-128204000D01*
X15240900Y-127506700D02*
X15860000Y-127829000D01*
X14596200Y-127239700D02*
X15240900Y-127506700D01*
X13930500Y-127029800D02*
X14596200Y-127239700D01*
X13249200Y-126878700D02*
X13930500Y-127029800D01*
X12557200Y-126787600D02*
X13249200Y-126878700D01*
X11860000Y-126757200D02*
X12557200Y-126787600D01*
X11162800Y-126787600D02*
X11860000Y-126757200D01*
X45720000Y-210007200D02*
X45720000Y-81507200D01*
X29271400Y-172204000D02*
X29860000Y-171829000D01*
X28717700Y-172628800D02*
X29271400Y-172204000D01*
X28203100Y-173100400D02*
X28717700Y-172628800D01*
X27731600Y-173614900D02*
X28203100Y-173100400D01*
X27306800Y-174168600D02*
X27731600Y-173614900D01*
X26931800Y-174757200D02*
X27306800Y-174168600D01*
X26609500Y-175376300D02*
X26931800Y-174757200D01*
X26342500Y-176021000D02*
X26609500Y-175376300D01*
X26132600Y-176686700D02*
X26342500Y-176021000D01*
X25981500Y-177368000D02*
X26132600Y-176686700D01*
X25890400Y-178060000D02*
X25981500Y-177368000D01*
X25860000Y-178757200D02*
X25890400Y-178060000D01*
X25890400Y-179454500D02*
X25860000Y-178757200D01*
X25981500Y-180146400D02*
X25890400Y-179454500D01*
X26132600Y-180827800D02*
X25981500Y-180146400D01*
X26342500Y-181493400D02*
X26132600Y-180827800D01*
X26609500Y-182138200D02*
X26342500Y-181493400D01*
X26931800Y-182757200D02*
X26609500Y-182138200D01*
X27306800Y-183345800D02*
X26931800Y-182757200D01*
X27731600Y-183899500D02*
X27306800Y-183345800D01*
X28203100Y-184414100D02*
X27731600Y-183899500D01*
X28717700Y-184885600D02*
X28203100Y-184414100D01*
X29271400Y-185310400D02*
X28717700Y-184885600D01*
X29860000Y-185685400D02*
X29271400Y-185310400D01*
X30479000Y-186007700D02*
X29860000Y-185685400D01*
X10470800Y-126878700D02*
X11162800Y-126787600D01*
X9789440Y-127029800D02*
X10470800Y-126878700D01*
X9123830Y-127239700D02*
X9789440Y-127029800D01*
X8479050Y-127506700D02*
X9123830Y-127239700D01*
X7859990Y-127829000D02*
X8479050Y-127506700D01*
X7271380Y-128204000D02*
X7859990Y-127829000D01*
X6717700Y-128628800D02*
X7271380Y-128204000D01*
X6203140Y-129100400D02*
X6717700Y-128628800D01*
X5731640Y-129614900D02*
X6203140Y-129100400D01*
X5306780Y-130168600D02*
X5731640Y-129614900D01*
X4931790Y-130757200D02*
X5306780Y-130168600D01*
X4609530Y-131376300D02*
X4931790Y-130757200D01*
X4342450Y-132021000D02*
X4609530Y-131376300D01*
X4132580Y-132686700D02*
X4342450Y-132021000D01*
X3981540Y-133368000D02*
X4132580Y-132686700D01*
X3890440Y-134060000D02*
X3981540Y-133368000D01*
X3859990Y-134757200D02*
X3890440Y-134060000D01*
X3890440Y-135454500D02*
X3859990Y-134757200D01*
X3981540Y-136146400D02*
X3890440Y-135454500D01*
X4132580Y-136827800D02*
X3981540Y-136146400D01*
X4342450Y-137493400D02*
X4132580Y-136827800D01*
X4609530Y-138138200D02*
X4342450Y-137493400D01*
X4931790Y-138757200D02*
X4609530Y-138138200D01*
X5306780Y-139345800D02*
X4931790Y-138757200D01*
X9123830Y-186274700D02*
X8479050Y-186007700D01*
X9789440Y-186484600D02*
X9123830Y-186274700D01*
X10470800Y-186635700D02*
X9789440Y-186484600D01*
X11162800Y-186726800D02*
X10470800Y-186635700D01*
X26129200Y-172283700D02*
X25590800Y-172283700D01*
X26635000Y-172099500D02*
X26129200Y-172283700D01*
X27047400Y-171753500D02*
X26635000Y-172099500D01*
X27316500Y-171287300D02*
X27047400Y-171753500D01*
X27410000Y-170757200D02*
X27316500Y-171287300D01*
X27316500Y-170227100D02*
X27410000Y-170757200D01*
X27047400Y-169760900D02*
X27316500Y-170227100D01*
X26635000Y-169414900D02*
X27047400Y-169760900D01*
X26129200Y-169230800D02*
X26635000Y-169414900D01*
X25590800Y-169230800D02*
X26129200Y-169230800D01*
X25085000Y-169414900D02*
X25590800Y-169230800D01*
X24672600Y-169760900D02*
X25085000Y-169414900D01*
X24403500Y-170227100D02*
X24672600Y-169760900D01*
X24310000Y-170757200D02*
X24403500Y-170227100D01*
X24403500Y-171287300D02*
X24310000Y-170757200D01*
X24672600Y-171753500D02*
X24403500Y-171287300D01*
X25085000Y-172099500D02*
X24672600Y-171753500D01*
X25590800Y-172283700D02*
X25085000Y-172099500D01*
X20129200Y-172283700D02*
X19590800Y-172283700D01*
X20635000Y-172099500D02*
X20129200Y-172283700D01*
X32470800Y-126878700D02*
X33162800Y-126787600D01*
X31789400Y-127029800D02*
X32470800Y-126878700D01*
X31123800Y-127239700D02*
X31789400Y-127029800D01*
X30479000Y-127506700D02*
X31123800Y-127239700D01*
X29860000Y-127829000D02*
X30479000Y-127506700D01*
X29271400Y-128204000D02*
X29860000Y-127829000D01*
X28717700Y-128628800D02*
X29271400Y-128204000D01*
X28203100Y-129100400D02*
X28717700Y-128628800D01*
X27731600Y-129614900D02*
X28203100Y-129100400D01*
X27306800Y-130168600D02*
X27731600Y-129614900D01*
X26931800Y-130757200D02*
X27306800Y-130168600D01*
X26609500Y-131376300D02*
X26931800Y-130757200D01*
X26342500Y-132021000D02*
X26609500Y-131376300D01*
X26132600Y-132686700D02*
X26342500Y-132021000D01*
X25981500Y-133368000D02*
X26132600Y-132686700D01*
X25890400Y-134060000D02*
X25981500Y-133368000D01*
X25860000Y-134757200D02*
X25890400Y-134060000D01*
X25890400Y-135454500D02*
X25860000Y-134757200D01*
X25981500Y-136146400D02*
X25890400Y-135454500D01*
X26132600Y-136827800D02*
X25981500Y-136146400D01*
X26342500Y-137493400D02*
X26132600Y-136827800D01*
X26609500Y-138138200D02*
X26342500Y-137493400D01*
X26931800Y-138757200D02*
X26609500Y-138138200D01*
X27306800Y-139345800D02*
X26931800Y-138757200D01*
X41738400Y-111368000D02*
X41829600Y-112060000D01*
X41587400Y-110686700D02*
X41738400Y-111368000D01*
X41377500Y-110021000D02*
X41587400Y-110686700D01*
X41110500Y-109376200D02*
X41377500Y-110021000D01*
X40788200Y-108757200D02*
X41110500Y-109376200D01*
X40413200Y-108168200D02*
X40788200Y-108757200D01*
X39988300Y-107615200D02*
X40413200Y-108168200D01*
X39516800Y-107100200D02*
X39988300Y-107615200D01*
X39002300Y-106629200D02*
X39516800Y-107100200D01*
X38448600Y-106204200D02*
X39002300Y-106629200D01*
X37860000Y-105829200D02*
X38448600Y-106204200D01*
X37240900Y-105507200D02*
X37860000Y-105829200D01*
X36596200Y-105239200D02*
X37240900Y-105507200D01*
X35930500Y-105030200D02*
X36596200Y-105239200D01*
X35249200Y-104879200D02*
X35930500Y-105030200D01*
X34557200Y-104787200D02*
X35249200Y-104879200D01*
X33860000Y-104757200D02*
X34557200Y-104787200D01*
X33162800Y-104787200D02*
X33860000Y-104757200D01*
X32470800Y-104879200D02*
X33162800Y-104787200D01*
X31789400Y-105030200D02*
X32470800Y-104879200D01*
X31123800Y-105239200D02*
X31789400Y-105030200D01*
X30479000Y-105507200D02*
X31123800Y-105239200D01*
X29860000Y-105829200D02*
X30479000Y-105507200D01*
X29271400Y-106204200D02*
X29860000Y-105829200D01*
X31123800Y-186274700D02*
X30479000Y-186007700D01*
X31789400Y-186484600D02*
X31123800Y-186274700D01*
X32470800Y-186635700D02*
X31789400Y-186484600D01*
X33162800Y-186726800D02*
X32470800Y-186635700D01*
X11860000Y-186757200D02*
X11162800Y-186726800D01*
X12557200Y-186726800D02*
X11860000Y-186757200D01*
X13249200Y-186635700D02*
X12557200Y-186726800D01*
X13930500Y-186484600D02*
X13249200Y-186635700D01*
X14596200Y-186274700D02*
X13930500Y-186484600D01*
X15240900Y-186007700D02*
X14596200Y-186274700D01*
X15860000Y-185685400D02*
X15240900Y-186007700D01*
X16448600Y-185310400D02*
X15860000Y-185685400D01*
X17002300Y-184885600D02*
X16448600Y-185310400D01*
X17516800Y-184414100D02*
X17002300Y-184885600D01*
X17988300Y-183899500D02*
X17516800Y-184414100D01*
X18413200Y-183345800D02*
X17988300Y-183899500D01*
X18788200Y-182757200D02*
X18413200Y-183345800D01*
X19110500Y-182138200D02*
X18788200Y-182757200D01*
X19377500Y-181493400D02*
X19110500Y-182138200D01*
X19587400Y-180827800D02*
X19377500Y-181493400D01*
X19738400Y-180146400D02*
X19587400Y-180827800D01*
X19829500Y-179454500D02*
X19738400Y-180146400D01*
X19860000Y-178757200D02*
X19829500Y-179454500D01*
X19829500Y-178060000D02*
X19860000Y-178757200D01*
X7500000Y-208607210D02*
X4299990Y-208607210D01*
X7994420Y-208528900D02*
X7500000Y-208607210D01*
X8440440Y-208301630D02*
X7994420Y-208528900D01*
X8794420Y-207947660D02*
X8440440Y-208301630D01*
X9021680Y-207501630D02*
X8794420Y-207947660D01*
X9099990Y-207007200D02*
X9021680Y-207501630D01*
X9021680Y-206512780D02*
X9099990Y-207007200D01*
X8794420Y-206066760D02*
X9021680Y-206512780D01*
X8440440Y-205712780D02*
X8794420Y-206066760D01*
X7994420Y-205485520D02*
X8440440Y-205712780D01*
X7500000Y-205407210D02*
X7994420Y-205485520D01*
X4299990Y-205407210D02*
X7500000Y-205407210D01*
X45720000Y-81507200D02*
X0Y-81507200D01*
M02*
