G04 #@! TF.GenerationSoftware,KiCad,Pcbnew,5.0.2+dfsg1-1*
G04 #@! TF.CreationDate,2020-04-26T20:47:29+02:00*
G04 #@! TF.ProjectId,midirouter,6d696469-726f-4757-9465-722e6b696361,rev?*
G04 #@! TF.SameCoordinates,Original*
G04 #@! TF.FileFunction,Copper,L1,Top*
G04 #@! TF.FilePolarity,Positive*
%FSLAX46Y46*%
G04 Gerber Fmt 4.6, Leading zero omitted, Abs format (unit mm)*
G04 Created by KiCad (PCBNEW 5.0.2+dfsg1-1) date Sun 26 Apr 2020 08:47:29 PM CEST*
%MOMM*%
%LPD*%
G01*
G04 APERTURE LIST*
G04 #@! TA.AperFunction,ComponentPad*
%ADD10R,1.727200X1.727200*%
G04 #@! TD*
G04 #@! TA.AperFunction,ComponentPad*
%ADD11O,1.727200X1.727200*%
G04 #@! TD*
G04 #@! TA.AperFunction,ComponentPad*
%ADD12O,1.700000X1.700000*%
G04 #@! TD*
G04 #@! TA.AperFunction,ComponentPad*
%ADD13R,1.700000X1.700000*%
G04 #@! TD*
G04 #@! TA.AperFunction,ComponentPad*
%ADD14R,1.600000X1.600000*%
G04 #@! TD*
G04 #@! TA.AperFunction,ComponentPad*
%ADD15O,1.600000X1.600000*%
G04 #@! TD*
G04 #@! TA.AperFunction,ViaPad*
%ADD16C,0.800000*%
G04 #@! TD*
G04 #@! TA.AperFunction,Conductor*
%ADD17C,0.250000*%
G04 #@! TD*
G04 #@! TA.AperFunction,Conductor*
%ADD18C,0.254000*%
G04 #@! TD*
G04 APERTURE END LIST*
D10*
G04 #@! TO.P,J1,1*
G04 #@! TO.N,Net-(J1-Pad1)*
X30734000Y-72644000D03*
D11*
G04 #@! TO.P,J1,2*
G04 #@! TO.N,Net-(J1-Pad2)*
X33274000Y-72644000D03*
G04 #@! TO.P,J1,3*
G04 #@! TO.N,GND*
X30734000Y-70104000D03*
G04 #@! TO.P,J1,4*
X33274000Y-70104000D03*
G04 #@! TO.P,J1,5*
X30734000Y-67564000D03*
G04 #@! TO.P,J1,6*
X33274000Y-67564000D03*
G04 #@! TO.P,J1,7*
X30734000Y-65024000D03*
G04 #@! TO.P,J1,8*
X33274000Y-65024000D03*
G04 #@! TO.P,J1,9*
G04 #@! TO.N,+12V*
X30734000Y-62484000D03*
G04 #@! TO.P,J1,10*
X33274000Y-62484000D03*
G04 #@! TD*
D12*
G04 #@! TO.P,J2,8*
G04 #@! TO.N,LED1*
X28220000Y-46000000D03*
G04 #@! TO.P,J2,7*
G04 #@! TO.N,LED2*
X30760000Y-46000000D03*
G04 #@! TO.P,J2,6*
G04 #@! TO.N,LED3*
X33300000Y-46000000D03*
G04 #@! TO.P,J2,5*
G04 #@! TO.N,LED4*
X35840000Y-46000000D03*
G04 #@! TO.P,J2,4*
G04 #@! TO.N,MIDI_IN_1*
X38380000Y-46000000D03*
G04 #@! TO.P,J2,3*
G04 #@! TO.N,MIDI_IN_2*
X40920000Y-46000000D03*
G04 #@! TO.P,J2,2*
G04 #@! TO.N,MIDI_IN_3*
X43460000Y-46000000D03*
D13*
G04 #@! TO.P,J2,1*
G04 #@! TO.N,MIDI_IN_4*
X46000000Y-46000000D03*
G04 #@! TD*
G04 #@! TO.P,J3,1*
G04 #@! TO.N,MIDI_IN_8*
X90000000Y-46000000D03*
D12*
G04 #@! TO.P,J3,2*
G04 #@! TO.N,MIDI_IN_7*
X87460000Y-46000000D03*
G04 #@! TO.P,J3,3*
G04 #@! TO.N,MIDI_IN_6*
X84920000Y-46000000D03*
G04 #@! TO.P,J3,4*
G04 #@! TO.N,MIDI_IN_5*
X82380000Y-46000000D03*
G04 #@! TO.P,J3,5*
G04 #@! TO.N,LED8*
X79840000Y-46000000D03*
G04 #@! TO.P,J3,6*
G04 #@! TO.N,LED7*
X77300000Y-46000000D03*
G04 #@! TO.P,J3,7*
G04 #@! TO.N,LED6*
X74760000Y-46000000D03*
G04 #@! TO.P,J3,8*
G04 #@! TO.N,LED5*
X72220000Y-46000000D03*
G04 #@! TD*
D13*
G04 #@! TO.P,J4,1*
G04 #@! TO.N,MIDI_IN_12*
X134000000Y-46000000D03*
D12*
G04 #@! TO.P,J4,2*
G04 #@! TO.N,MIDI_IN_11*
X131460000Y-46000000D03*
G04 #@! TO.P,J4,3*
G04 #@! TO.N,MIDI_IN_10*
X128920000Y-46000000D03*
G04 #@! TO.P,J4,4*
G04 #@! TO.N,MIDI_IN_9*
X126380000Y-46000000D03*
G04 #@! TO.P,J4,5*
G04 #@! TO.N,LED4*
X123840000Y-46000000D03*
G04 #@! TO.P,J4,6*
G04 #@! TO.N,LED3*
X121300000Y-46000000D03*
G04 #@! TO.P,J4,7*
G04 #@! TO.N,LED2*
X118760000Y-46000000D03*
G04 #@! TO.P,J4,8*
G04 #@! TO.N,LED1*
X116220000Y-46000000D03*
G04 #@! TD*
D13*
G04 #@! TO.P,J5,1*
G04 #@! TO.N,MIDI_IN_16*
X178000000Y-46000000D03*
D12*
G04 #@! TO.P,J5,2*
G04 #@! TO.N,MIDI_IN_15*
X175460000Y-46000000D03*
G04 #@! TO.P,J5,3*
G04 #@! TO.N,MIDI_IN_14*
X172920000Y-46000000D03*
G04 #@! TO.P,J5,4*
G04 #@! TO.N,MIDI_IN_13*
X170380000Y-46000000D03*
G04 #@! TO.P,J5,5*
G04 #@! TO.N,LED8*
X167840000Y-46000000D03*
G04 #@! TO.P,J5,6*
G04 #@! TO.N,LED7*
X165300000Y-46000000D03*
G04 #@! TO.P,J5,7*
G04 #@! TO.N,LED6*
X162760000Y-46000000D03*
G04 #@! TO.P,J5,8*
G04 #@! TO.N,LED5*
X160220000Y-46000000D03*
G04 #@! TD*
D13*
G04 #@! TO.P,J6,1*
G04 #@! TO.N,MIDI_OUT_4*
X46000000Y-90000000D03*
D12*
G04 #@! TO.P,J6,2*
G04 #@! TO.N,MIDI_OUT_3*
X43460000Y-90000000D03*
G04 #@! TO.P,J6,3*
G04 #@! TO.N,MIDI_OUT_2*
X40920000Y-90000000D03*
G04 #@! TO.P,J6,4*
G04 #@! TO.N,MIDI_OUT_1*
X38380000Y-90000000D03*
G04 #@! TO.P,J6,5*
G04 #@! TO.N,LEDK2*
X35840000Y-90000000D03*
G04 #@! TO.P,J6,6*
G04 #@! TO.N,LEDK1*
X33300000Y-90000000D03*
G04 #@! TO.P,J6,7*
G04 #@! TO.N,+3V3*
X30760000Y-90000000D03*
G04 #@! TO.P,J6,8*
G04 #@! TO.N,GND*
X28220000Y-90000000D03*
G04 #@! TD*
G04 #@! TO.P,J7,8*
G04 #@! TO.N,GND*
X72220000Y-90000000D03*
G04 #@! TO.P,J7,7*
G04 #@! TO.N,+3V3*
X74760000Y-90000000D03*
G04 #@! TO.P,J7,6*
G04 #@! TO.N,LEDK1*
X77300000Y-90000000D03*
G04 #@! TO.P,J7,5*
G04 #@! TO.N,LEDK2*
X79840000Y-90000000D03*
G04 #@! TO.P,J7,4*
G04 #@! TO.N,MIDI_OUT_5*
X82380000Y-90000000D03*
G04 #@! TO.P,J7,3*
G04 #@! TO.N,MIDI_OUT_6*
X84920000Y-90000000D03*
G04 #@! TO.P,J7,2*
G04 #@! TO.N,MIDI_OUT_7*
X87460000Y-90000000D03*
D13*
G04 #@! TO.P,J7,1*
G04 #@! TO.N,MIDI_OUT_8*
X90000000Y-90000000D03*
G04 #@! TD*
D12*
G04 #@! TO.P,J8,8*
G04 #@! TO.N,GND*
X116220000Y-90000000D03*
G04 #@! TO.P,J8,7*
G04 #@! TO.N,+3V3*
X118760000Y-90000000D03*
G04 #@! TO.P,J8,6*
G04 #@! TO.N,LEDK3*
X121300000Y-90000000D03*
G04 #@! TO.P,J8,5*
G04 #@! TO.N,LEDK4*
X123840000Y-90000000D03*
G04 #@! TO.P,J8,4*
G04 #@! TO.N,MIDI_OUT_9*
X126380000Y-90000000D03*
G04 #@! TO.P,J8,3*
G04 #@! TO.N,MIDI_OUT_10*
X128920000Y-90000000D03*
G04 #@! TO.P,J8,2*
G04 #@! TO.N,MIDI_OUT_11*
X131460000Y-90000000D03*
D13*
G04 #@! TO.P,J8,1*
G04 #@! TO.N,MIDI_OUT_12*
X134000000Y-90000000D03*
G04 #@! TD*
D12*
G04 #@! TO.P,J9,8*
G04 #@! TO.N,GND*
X160220000Y-90000000D03*
G04 #@! TO.P,J9,7*
G04 #@! TO.N,+3V3*
X162760000Y-90000000D03*
G04 #@! TO.P,J9,6*
G04 #@! TO.N,LEDK3*
X165300000Y-90000000D03*
G04 #@! TO.P,J9,5*
G04 #@! TO.N,LEDK4*
X167840000Y-90000000D03*
G04 #@! TO.P,J9,4*
G04 #@! TO.N,MIDI_OUT_13*
X170380000Y-90000000D03*
G04 #@! TO.P,J9,3*
G04 #@! TO.N,MIDI_OUT_14*
X172920000Y-90000000D03*
G04 #@! TO.P,J9,2*
G04 #@! TO.N,MIDI_OUT_15*
X175460000Y-90000000D03*
D13*
G04 #@! TO.P,J9,1*
G04 #@! TO.N,MIDI_OUT_16*
X178000000Y-90000000D03*
G04 #@! TD*
D14*
G04 #@! TO.P,U7,1*
G04 #@! TO.N,MIDI_IN_1*
X75460000Y-60396000D03*
D15*
G04 #@! TO.P,U7,25*
G04 #@! TO.N,GND*
X133880000Y-75636000D03*
G04 #@! TO.P,U7,2*
G04 #@! TO.N,MIDI_IN_2*
X78000000Y-60396000D03*
G04 #@! TO.P,U7,26*
G04 #@! TO.N,Net-(U7-Pad26)*
X131340000Y-75636000D03*
G04 #@! TO.P,U7,3*
G04 #@! TO.N,MIDI_IN_3*
X80540000Y-60396000D03*
G04 #@! TO.P,U7,27*
G04 #@! TO.N,Net-(U7-Pad27)*
X128800000Y-75636000D03*
G04 #@! TO.P,U7,4*
G04 #@! TO.N,MIDI_IN_4*
X83080000Y-60396000D03*
G04 #@! TO.P,U7,28*
G04 #@! TO.N,Net-(U7-Pad28)*
X126260000Y-75636000D03*
G04 #@! TO.P,U7,5*
G04 #@! TO.N,MIDI_IN_5*
X85620000Y-60396000D03*
G04 #@! TO.P,U7,29*
G04 #@! TO.N,Net-(U7-Pad29)*
X123720000Y-75636000D03*
G04 #@! TO.P,U7,6*
G04 #@! TO.N,MIDI_IN_6*
X88160000Y-60396000D03*
G04 #@! TO.P,U7,30*
G04 #@! TO.N,Net-(U5-Pad12)*
X121180000Y-75636000D03*
G04 #@! TO.P,U7,7*
G04 #@! TO.N,MIDI_IN_7*
X90700000Y-60396000D03*
G04 #@! TO.P,U7,31*
G04 #@! TO.N,Net-(U5-Pad11)*
X118640000Y-75636000D03*
G04 #@! TO.P,U7,8*
G04 #@! TO.N,MIDI_IN_8*
X93240000Y-60396000D03*
G04 #@! TO.P,U7,32*
G04 #@! TO.N,Net-(U5-Pad14)*
X116100000Y-75636000D03*
G04 #@! TO.P,U7,9*
G04 #@! TO.N,MIDI_IN_9*
X95780000Y-60396000D03*
G04 #@! TO.P,U7,33*
G04 #@! TO.N,MIDI_OUT_16*
X113560000Y-75636000D03*
G04 #@! TO.P,U7,10*
G04 #@! TO.N,MIDI_IN_10*
X98320000Y-60396000D03*
G04 #@! TO.P,U7,34*
G04 #@! TO.N,MIDI_OUT_15*
X111020000Y-75636000D03*
G04 #@! TO.P,U7,11*
G04 #@! TO.N,MIDI_IN_11*
X100860000Y-60396000D03*
G04 #@! TO.P,U7,35*
G04 #@! TO.N,MIDI_OUT_14*
X108480000Y-75636000D03*
G04 #@! TO.P,U7,12*
G04 #@! TO.N,MIDI_IN_12*
X103400000Y-60396000D03*
G04 #@! TO.P,U7,36*
G04 #@! TO.N,MIDI_OUT_13*
X105940000Y-75636000D03*
G04 #@! TO.P,U7,13*
G04 #@! TO.N,MIDI_IN_13*
X105940000Y-60396000D03*
G04 #@! TO.P,U7,37*
G04 #@! TO.N,MIDI_OUT_12*
X103400000Y-75636000D03*
G04 #@! TO.P,U7,14*
G04 #@! TO.N,MIDI_IN_14*
X108480000Y-60396000D03*
G04 #@! TO.P,U7,38*
G04 #@! TO.N,MIDI_OUT_11*
X100860000Y-75636000D03*
G04 #@! TO.P,U7,15*
G04 #@! TO.N,Net-(U7-Pad15)*
X111020000Y-60396000D03*
G04 #@! TO.P,U7,39*
G04 #@! TO.N,MIDI_OUT_10*
X98320000Y-75636000D03*
G04 #@! TO.P,U7,16*
G04 #@! TO.N,Net-(U7-Pad16)*
X113560000Y-60396000D03*
G04 #@! TO.P,U7,40*
G04 #@! TO.N,MIDI_OUT_9*
X95780000Y-75636000D03*
G04 #@! TO.P,U7,17*
G04 #@! TO.N,MIDI_IN_15*
X116100000Y-60396000D03*
G04 #@! TO.P,U7,41*
G04 #@! TO.N,MIDI_OUT_8*
X93240000Y-75636000D03*
G04 #@! TO.P,U7,18*
G04 #@! TO.N,MIDI_IN_16*
X118640000Y-60396000D03*
G04 #@! TO.P,U7,42*
G04 #@! TO.N,MIDI_OUT_7*
X90700000Y-75636000D03*
G04 #@! TO.P,U7,19*
G04 #@! TO.N,Net-(U7-Pad19)*
X121180000Y-60396000D03*
G04 #@! TO.P,U7,43*
G04 #@! TO.N,MIDI_OUT_6*
X88160000Y-75636000D03*
G04 #@! TO.P,U7,20*
G04 #@! TO.N,Net-(U7-Pad20)*
X123720000Y-60396000D03*
G04 #@! TO.P,U7,44*
G04 #@! TO.N,MIDI_OUT_5*
X85620000Y-75636000D03*
G04 #@! TO.P,U7,21*
G04 #@! TO.N,Net-(U7-Pad21)*
X126260000Y-60396000D03*
G04 #@! TO.P,U7,45*
G04 #@! TO.N,MIDI_OUT_4*
X83080000Y-75636000D03*
G04 #@! TO.P,U7,22*
G04 #@! TO.N,Net-(U7-Pad22)*
X128800000Y-60396000D03*
G04 #@! TO.P,U7,46*
G04 #@! TO.N,MIDI_OUT_3*
X80540000Y-75636000D03*
G04 #@! TO.P,U7,23*
G04 #@! TO.N,Net-(U7-Pad23)*
X131340000Y-60396000D03*
G04 #@! TO.P,U7,47*
G04 #@! TO.N,MIDI_OUT_2*
X78000000Y-75636000D03*
G04 #@! TO.P,U7,24*
G04 #@! TO.N,CA7_VCC*
X133880000Y-60396000D03*
G04 #@! TO.P,U7,48*
G04 #@! TO.N,MIDI_OUT_1*
X75460000Y-75636000D03*
G04 #@! TD*
D16*
G04 #@! TO.N,GND*
X168750000Y-67250000D03*
X167250000Y-62500000D03*
X172250000Y-58750000D03*
X158500000Y-83250000D03*
X163500000Y-83250000D03*
X168500000Y-83250000D03*
X173500000Y-83250000D03*
X162500000Y-62250000D03*
X173250000Y-70750000D03*
X164000000Y-73750000D03*
G04 #@! TO.N,Net-(U5-Pad11)*
X165390542Y-67500008D03*
X167250000Y-66980317D03*
G04 #@! TO.N,Net-(U5-Pad12)*
X168000000Y-65500000D03*
X166250000Y-66024989D03*
G04 #@! TO.N,LEDK1*
X73250000Y-91624980D03*
X121500000Y-85000000D03*
X133500010Y-85000000D03*
G04 #@! TO.N,LEDK2*
X70500000Y-91000000D03*
X120750000Y-84000000D03*
X132750000Y-84000000D03*
G04 #@! TO.N,LEDK3*
X165500000Y-85000000D03*
X161500000Y-90900002D03*
G04 #@! TO.N,LEDK4*
X168000000Y-85000000D03*
X158749992Y-91174969D03*
G04 #@! TO.N,LED2*
X115500000Y-47750000D03*
G04 #@! TO.N,LED3*
X114250000Y-48000000D03*
G04 #@! TO.N,LED4*
X113250006Y-48500000D03*
G04 #@! TO.N,LED5*
X110000000Y-51000000D03*
X115750000Y-51249998D03*
X157010243Y-51674989D03*
G04 #@! TO.N,LED6*
X109250000Y-50000000D03*
X116750002Y-50500000D03*
X159500000Y-50525054D03*
G04 #@! TO.N,LED7*
X107999992Y-50000000D03*
X117820392Y-49928178D03*
X161999991Y-50075043D03*
G04 #@! TO.N,LED8*
X114749982Y-52000000D03*
X111000000Y-51424957D03*
G04 #@! TD*
D17*
G04 #@! TO.N,Net-(U5-Pad11)*
X166684315Y-66980317D02*
X167250000Y-66980317D01*
X165390542Y-67500008D02*
X165910233Y-66980317D01*
X165910233Y-66980317D02*
X166684315Y-66980317D01*
G04 #@! TO.N,Net-(U5-Pad12)*
X166649999Y-65624990D02*
X166250000Y-66024989D01*
X168000000Y-65500000D02*
X166774989Y-65500000D01*
X166774989Y-65500000D02*
X166649999Y-65624990D01*
G04 #@! TO.N,LEDK1*
X75675020Y-91624980D02*
X77300000Y-90000000D01*
X73250000Y-91624980D02*
X75675020Y-91624980D01*
X121500000Y-85000000D02*
X133500010Y-85000000D01*
G04 #@! TO.N,LEDK2*
X79750000Y-90090000D02*
X79840000Y-90000000D01*
X79750000Y-91000000D02*
X79750000Y-90090000D01*
X78280092Y-92469908D02*
X79750000Y-91000000D01*
X70500000Y-91000000D02*
X71969908Y-92469908D01*
X71969908Y-92469908D02*
X78280092Y-92469908D01*
X120750000Y-84000000D02*
X132750000Y-84000000D01*
G04 #@! TO.N,LEDK3*
X165300000Y-90000000D02*
X165300000Y-85200000D01*
X165300000Y-85200000D02*
X165500000Y-85000000D01*
X165300000Y-90000000D02*
X164124999Y-91175001D01*
X164124999Y-91175001D02*
X161774999Y-91175001D01*
X161774999Y-91175001D02*
X161500000Y-90900002D01*
G04 #@! TO.N,LEDK4*
X167840000Y-90000000D02*
X167840000Y-85160000D01*
X167840000Y-85160000D02*
X168000000Y-85000000D01*
X166990001Y-90849999D02*
X167840000Y-90000000D01*
X166214988Y-91625012D02*
X166990001Y-90849999D01*
X158749992Y-91174969D02*
X159200035Y-91625012D01*
X159200035Y-91625012D02*
X166214988Y-91625012D01*
G04 #@! TO.N,LED2*
X118760000Y-46000000D02*
X117010000Y-47750000D01*
X117010000Y-47750000D02*
X116065685Y-47750000D01*
X116065685Y-47750000D02*
X115500000Y-47750000D01*
G04 #@! TO.N,LED3*
X121300000Y-46000000D02*
X118824998Y-48475002D01*
X118824998Y-48475002D02*
X114725002Y-48475002D01*
X114649999Y-48399999D02*
X114250000Y-48000000D01*
X114725002Y-48475002D02*
X114649999Y-48399999D01*
G04 #@! TO.N,LED4*
X114090574Y-48799989D02*
X113549995Y-48799989D01*
X113549995Y-48799989D02*
X113250006Y-48500000D01*
X114215598Y-48925013D02*
X114090574Y-48799989D01*
X120914987Y-48925013D02*
X114215598Y-48925013D01*
X123840000Y-46000000D02*
X120914987Y-48925013D01*
G04 #@! TO.N,LED5*
X115350001Y-50849999D02*
X115750000Y-51249998D01*
X110399999Y-50600001D02*
X115100003Y-50600001D01*
X110000000Y-51000000D02*
X110399999Y-50600001D01*
X115100003Y-50600001D02*
X115350001Y-50849999D01*
X160220000Y-46000000D02*
X160220000Y-48465232D01*
X160220000Y-48465232D02*
X157410242Y-51274990D01*
X157410242Y-51274990D02*
X157010243Y-51674989D01*
G04 #@! TO.N,LED6*
X116350003Y-50100001D02*
X116750002Y-50500000D01*
X109250000Y-50000000D02*
X116250002Y-50000000D01*
X116250002Y-50000000D02*
X116350003Y-50100001D01*
X159899999Y-50125055D02*
X159500000Y-50525054D01*
X162760000Y-47265054D02*
X159899999Y-50125055D01*
X162760000Y-46000000D02*
X162760000Y-47265054D01*
G04 #@! TO.N,LED7*
X117420393Y-49528179D02*
X117820392Y-49928178D01*
X117267238Y-49375024D02*
X117420393Y-49528179D01*
X107999992Y-50000000D02*
X108749992Y-49250000D01*
X114029198Y-49375024D02*
X117267238Y-49375024D01*
X113904174Y-49250000D02*
X114029198Y-49375024D01*
X108749992Y-49250000D02*
X113904174Y-49250000D01*
X161999991Y-49300009D02*
X161999991Y-49509358D01*
X161999991Y-49509358D02*
X161999991Y-50075043D01*
X165300000Y-46000000D02*
X161999991Y-49300009D01*
G04 #@! TO.N,LED8*
X111399999Y-51824956D02*
X111000000Y-51424957D01*
X111575043Y-52000000D02*
X111399999Y-51824956D01*
X114749982Y-52000000D02*
X111575043Y-52000000D01*
G04 #@! TO.N,MIDI_IN_1*
X70250000Y-52250000D02*
X43250000Y-52250000D01*
X38380000Y-47380000D02*
X38380000Y-46000000D01*
X43250000Y-52250000D02*
X38380000Y-47380000D01*
X75460000Y-60396000D02*
X75460000Y-57460000D01*
X75460000Y-57460000D02*
X70250000Y-52250000D01*
G04 #@! TO.N,MIDI_IN_2*
X45299989Y-51799989D02*
X40920000Y-47420000D01*
X40920000Y-47420000D02*
X40920000Y-46000000D01*
X71799989Y-51799989D02*
X45299989Y-51799989D01*
X78000000Y-60396000D02*
X78000000Y-58000000D01*
X78000000Y-58000000D02*
X71799989Y-51799989D01*
G04 #@! TO.N,MIDI_IN_3*
X43500000Y-46040000D02*
X43460000Y-46000000D01*
X43500000Y-47500000D02*
X43500000Y-46040000D01*
X47200011Y-51200011D02*
X43500000Y-47500000D01*
X73700011Y-51200011D02*
X47200011Y-51200011D01*
X80540000Y-60396000D02*
X80540000Y-58040000D01*
X80540000Y-58040000D02*
X73700011Y-51200011D01*
G04 #@! TO.N,MIDI_IN_4*
X46000000Y-47100000D02*
X46000000Y-46000000D01*
X76000000Y-50500000D02*
X48750000Y-50500000D01*
X46000000Y-47750000D02*
X46000000Y-47100000D01*
X48750000Y-50500000D02*
X46000000Y-47750000D01*
X83080000Y-60396000D02*
X83080000Y-57580000D01*
X83080000Y-57580000D02*
X76000000Y-50500000D01*
G04 #@! TO.N,MIDI_IN_8*
X90000000Y-51750000D02*
X90000000Y-46000000D01*
X93240000Y-60396000D02*
X93240000Y-54990000D01*
X93240000Y-54990000D02*
X90000000Y-51750000D01*
G04 #@! TO.N,MIDI_IN_7*
X87460000Y-52710000D02*
X87460000Y-46000000D01*
X90700000Y-60396000D02*
X90700000Y-55950000D01*
X90700000Y-55950000D02*
X87460000Y-52710000D01*
G04 #@! TO.N,MIDI_IN_6*
X84920000Y-52920000D02*
X84920000Y-46000000D01*
X88160000Y-60396000D02*
X88160000Y-56160000D01*
X88160000Y-56160000D02*
X84920000Y-52920000D01*
G04 #@! TO.N,MIDI_IN_5*
X82380000Y-52880000D02*
X82380000Y-46000000D01*
X85620000Y-60396000D02*
X85620000Y-56120000D01*
X85620000Y-56120000D02*
X82380000Y-52880000D01*
G04 #@! TO.N,MIDI_IN_12*
X103400000Y-57100000D02*
X103400000Y-60396000D01*
X106000000Y-54500000D02*
X103400000Y-57100000D01*
X126600000Y-54500000D02*
X106000000Y-54500000D01*
X134000000Y-46000000D02*
X134000000Y-47100000D01*
X134000000Y-47100000D02*
X126600000Y-54500000D01*
G04 #@! TO.N,MIDI_IN_11*
X100860000Y-59264630D02*
X100860000Y-60396000D01*
X100860000Y-57140000D02*
X100860000Y-59264630D01*
X131460000Y-46000000D02*
X123460000Y-54000000D01*
X104000000Y-54000000D02*
X100860000Y-57140000D01*
X123460000Y-54000000D02*
X104000000Y-54000000D01*
G04 #@! TO.N,MIDI_IN_10*
X98320000Y-56930000D02*
X98320000Y-60396000D01*
X101700011Y-53549989D02*
X98320000Y-56930000D01*
X128920000Y-46000000D02*
X121370011Y-53549989D01*
X121370011Y-53549989D02*
X101700011Y-53549989D01*
G04 #@! TO.N,MIDI_IN_9*
X95780000Y-56720000D02*
X95780000Y-59264630D01*
X99400022Y-53099978D02*
X95780000Y-56720000D01*
X95780000Y-59264630D02*
X95780000Y-60396000D01*
X126380000Y-46000000D02*
X119280022Y-53099978D01*
X119280022Y-53099978D02*
X99400022Y-53099978D01*
G04 #@! TO.N,MIDI_IN_16*
X168350000Y-56750000D02*
X178000000Y-47100000D01*
X120750000Y-56750000D02*
X168350000Y-56750000D01*
X118640000Y-60396000D02*
X118640000Y-58860000D01*
X178000000Y-47100000D02*
X178000000Y-46000000D01*
X118640000Y-58860000D02*
X120750000Y-56750000D01*
G04 #@! TO.N,MIDI_IN_15*
X116100000Y-58900000D02*
X116100000Y-60396000D01*
X165160011Y-56299989D02*
X118700011Y-56299989D01*
X118700011Y-56299989D02*
X116100000Y-58900000D01*
X175460000Y-46000000D02*
X165160011Y-56299989D01*
G04 #@! TO.N,MIDI_IN_14*
X108480000Y-58770000D02*
X108480000Y-60396000D01*
X111400022Y-55849978D02*
X108480000Y-58770000D01*
X172920000Y-46000000D02*
X163070022Y-55849978D01*
X163070022Y-55849978D02*
X111400022Y-55849978D01*
G04 #@! TO.N,MIDI_IN_13*
X105940000Y-58560000D02*
X105940000Y-60396000D01*
X109250000Y-55250000D02*
X105940000Y-58560000D01*
X170380000Y-46000000D02*
X161130000Y-55250000D01*
X161130000Y-55250000D02*
X109250000Y-55250000D01*
G04 #@! TD*
D18*
G04 #@! TO.N,GND*
G36*
X37309375Y-47070625D02*
X37620000Y-47278178D01*
X37620000Y-47305153D01*
X37605112Y-47380000D01*
X37620000Y-47454847D01*
X37620000Y-47454851D01*
X37664096Y-47676536D01*
X37832071Y-47927929D01*
X37895530Y-47970331D01*
X42659670Y-52734472D01*
X42702071Y-52797929D01*
X42953463Y-52965904D01*
X43175148Y-53010000D01*
X43175152Y-53010000D01*
X43249999Y-53024888D01*
X43324846Y-53010000D01*
X69935199Y-53010000D01*
X74700001Y-57774803D01*
X74700000Y-58948560D01*
X74660000Y-58948560D01*
X74412235Y-58997843D01*
X74202191Y-59138191D01*
X74061843Y-59348235D01*
X74012560Y-59596000D01*
X74012560Y-61196000D01*
X74061843Y-61443765D01*
X74202191Y-61653809D01*
X74412235Y-61794157D01*
X74660000Y-61843440D01*
X76260000Y-61843440D01*
X76507765Y-61794157D01*
X76717809Y-61653809D01*
X76858157Y-61443765D01*
X76884785Y-61309894D01*
X76965423Y-61430577D01*
X77440091Y-61747740D01*
X77858667Y-61831000D01*
X78141333Y-61831000D01*
X78559909Y-61747740D01*
X79034577Y-61430577D01*
X79270000Y-61078242D01*
X79505423Y-61430577D01*
X79980091Y-61747740D01*
X80398667Y-61831000D01*
X80681333Y-61831000D01*
X81099909Y-61747740D01*
X81574577Y-61430577D01*
X81810000Y-61078242D01*
X82045423Y-61430577D01*
X82520091Y-61747740D01*
X82938667Y-61831000D01*
X83221333Y-61831000D01*
X83639909Y-61747740D01*
X84114577Y-61430577D01*
X84350000Y-61078242D01*
X84585423Y-61430577D01*
X85060091Y-61747740D01*
X85478667Y-61831000D01*
X85761333Y-61831000D01*
X86179909Y-61747740D01*
X86654577Y-61430577D01*
X86890000Y-61078242D01*
X87125423Y-61430577D01*
X87600091Y-61747740D01*
X88018667Y-61831000D01*
X88301333Y-61831000D01*
X88719909Y-61747740D01*
X89194577Y-61430577D01*
X89430000Y-61078242D01*
X89665423Y-61430577D01*
X90140091Y-61747740D01*
X90558667Y-61831000D01*
X90841333Y-61831000D01*
X91259909Y-61747740D01*
X91734577Y-61430577D01*
X91970000Y-61078242D01*
X92205423Y-61430577D01*
X92680091Y-61747740D01*
X93098667Y-61831000D01*
X93381333Y-61831000D01*
X93799909Y-61747740D01*
X94274577Y-61430577D01*
X94510000Y-61078242D01*
X94745423Y-61430577D01*
X95220091Y-61747740D01*
X95638667Y-61831000D01*
X95921333Y-61831000D01*
X96339909Y-61747740D01*
X96814577Y-61430577D01*
X97050000Y-61078242D01*
X97285423Y-61430577D01*
X97760091Y-61747740D01*
X98178667Y-61831000D01*
X98461333Y-61831000D01*
X98879909Y-61747740D01*
X99354577Y-61430577D01*
X99590000Y-61078242D01*
X99825423Y-61430577D01*
X100300091Y-61747740D01*
X100718667Y-61831000D01*
X101001333Y-61831000D01*
X101419909Y-61747740D01*
X101894577Y-61430577D01*
X102130000Y-61078242D01*
X102365423Y-61430577D01*
X102840091Y-61747740D01*
X103258667Y-61831000D01*
X103541333Y-61831000D01*
X103959909Y-61747740D01*
X104434577Y-61430577D01*
X104670000Y-61078242D01*
X104905423Y-61430577D01*
X105380091Y-61747740D01*
X105798667Y-61831000D01*
X106081333Y-61831000D01*
X106499909Y-61747740D01*
X106974577Y-61430577D01*
X107210000Y-61078242D01*
X107445423Y-61430577D01*
X107920091Y-61747740D01*
X108338667Y-61831000D01*
X108621333Y-61831000D01*
X109039909Y-61747740D01*
X109514577Y-61430577D01*
X109750000Y-61078242D01*
X109985423Y-61430577D01*
X110460091Y-61747740D01*
X110878667Y-61831000D01*
X111161333Y-61831000D01*
X111579909Y-61747740D01*
X112054577Y-61430577D01*
X112290000Y-61078242D01*
X112525423Y-61430577D01*
X113000091Y-61747740D01*
X113418667Y-61831000D01*
X113701333Y-61831000D01*
X114119909Y-61747740D01*
X114594577Y-61430577D01*
X114830000Y-61078242D01*
X115065423Y-61430577D01*
X115540091Y-61747740D01*
X115958667Y-61831000D01*
X116241333Y-61831000D01*
X116659909Y-61747740D01*
X117134577Y-61430577D01*
X117370000Y-61078242D01*
X117605423Y-61430577D01*
X118080091Y-61747740D01*
X118498667Y-61831000D01*
X118781333Y-61831000D01*
X119199909Y-61747740D01*
X119674577Y-61430577D01*
X119910000Y-61078242D01*
X120145423Y-61430577D01*
X120620091Y-61747740D01*
X121038667Y-61831000D01*
X121321333Y-61831000D01*
X121739909Y-61747740D01*
X122214577Y-61430577D01*
X122450000Y-61078242D01*
X122685423Y-61430577D01*
X123160091Y-61747740D01*
X123578667Y-61831000D01*
X123861333Y-61831000D01*
X124279909Y-61747740D01*
X124754577Y-61430577D01*
X124990000Y-61078242D01*
X125225423Y-61430577D01*
X125700091Y-61747740D01*
X126118667Y-61831000D01*
X126401333Y-61831000D01*
X126819909Y-61747740D01*
X127294577Y-61430577D01*
X127530000Y-61078242D01*
X127765423Y-61430577D01*
X128240091Y-61747740D01*
X128658667Y-61831000D01*
X128941333Y-61831000D01*
X129359909Y-61747740D01*
X129834577Y-61430577D01*
X130070000Y-61078242D01*
X130305423Y-61430577D01*
X130780091Y-61747740D01*
X131198667Y-61831000D01*
X131481333Y-61831000D01*
X131899909Y-61747740D01*
X132374577Y-61430577D01*
X132610000Y-61078242D01*
X132845423Y-61430577D01*
X133320091Y-61747740D01*
X133738667Y-61831000D01*
X134021333Y-61831000D01*
X134439909Y-61747740D01*
X134914577Y-61430577D01*
X135231740Y-60955909D01*
X135343113Y-60396000D01*
X135231740Y-59836091D01*
X134914577Y-59361423D01*
X134439909Y-59044260D01*
X134021333Y-58961000D01*
X133738667Y-58961000D01*
X133320091Y-59044260D01*
X132845423Y-59361423D01*
X132610000Y-59713758D01*
X132374577Y-59361423D01*
X131899909Y-59044260D01*
X131481333Y-58961000D01*
X131198667Y-58961000D01*
X130780091Y-59044260D01*
X130305423Y-59361423D01*
X130070000Y-59713758D01*
X129834577Y-59361423D01*
X129359909Y-59044260D01*
X128941333Y-58961000D01*
X128658667Y-58961000D01*
X128240091Y-59044260D01*
X127765423Y-59361423D01*
X127530000Y-59713758D01*
X127294577Y-59361423D01*
X126819909Y-59044260D01*
X126401333Y-58961000D01*
X126118667Y-58961000D01*
X125700091Y-59044260D01*
X125225423Y-59361423D01*
X124990000Y-59713758D01*
X124754577Y-59361423D01*
X124279909Y-59044260D01*
X123861333Y-58961000D01*
X123578667Y-58961000D01*
X123160091Y-59044260D01*
X122685423Y-59361423D01*
X122450000Y-59713758D01*
X122214577Y-59361423D01*
X121739909Y-59044260D01*
X121321333Y-58961000D01*
X121038667Y-58961000D01*
X120620091Y-59044260D01*
X120145423Y-59361423D01*
X119910000Y-59713758D01*
X119674577Y-59361423D01*
X119400000Y-59177957D01*
X119400000Y-59174801D01*
X121064802Y-57510000D01*
X168275153Y-57510000D01*
X168350000Y-57524888D01*
X168424847Y-57510000D01*
X168424852Y-57510000D01*
X168646537Y-57465904D01*
X168897929Y-57297929D01*
X168940331Y-57234470D01*
X178484473Y-47690329D01*
X178547929Y-47647929D01*
X178648483Y-47497440D01*
X178850000Y-47497440D01*
X179097765Y-47448157D01*
X179290001Y-47319708D01*
X179290000Y-88680291D01*
X179097765Y-88551843D01*
X178850000Y-88502560D01*
X177150000Y-88502560D01*
X176902235Y-88551843D01*
X176692191Y-88692191D01*
X176551843Y-88902235D01*
X176542816Y-88947619D01*
X176530625Y-88929375D01*
X176039418Y-88601161D01*
X175606256Y-88515000D01*
X175313744Y-88515000D01*
X174880582Y-88601161D01*
X174389375Y-88929375D01*
X174190000Y-89227761D01*
X173990625Y-88929375D01*
X173499418Y-88601161D01*
X173066256Y-88515000D01*
X172773744Y-88515000D01*
X172340582Y-88601161D01*
X171849375Y-88929375D01*
X171650000Y-89227761D01*
X171450625Y-88929375D01*
X170959418Y-88601161D01*
X170526256Y-88515000D01*
X170233744Y-88515000D01*
X169800582Y-88601161D01*
X169309375Y-88929375D01*
X169110000Y-89227761D01*
X168910625Y-88929375D01*
X168600000Y-88721822D01*
X168600000Y-85863711D01*
X168877431Y-85586280D01*
X169035000Y-85205874D01*
X169035000Y-84794126D01*
X168877431Y-84413720D01*
X168586280Y-84122569D01*
X168205874Y-83965000D01*
X167794126Y-83965000D01*
X167413720Y-84122569D01*
X167122569Y-84413720D01*
X166965000Y-84794126D01*
X166965000Y-85205874D01*
X167080001Y-85483511D01*
X167080000Y-88721822D01*
X166769375Y-88929375D01*
X166570000Y-89227761D01*
X166370625Y-88929375D01*
X166060000Y-88721822D01*
X166060000Y-85888317D01*
X166086280Y-85877431D01*
X166377431Y-85586280D01*
X166535000Y-85205874D01*
X166535000Y-84794126D01*
X166377431Y-84413720D01*
X166086280Y-84122569D01*
X165705874Y-83965000D01*
X165294126Y-83965000D01*
X164913720Y-84122569D01*
X164622569Y-84413720D01*
X164465000Y-84794126D01*
X164465000Y-85205874D01*
X164540001Y-85386943D01*
X164540000Y-88721822D01*
X164229375Y-88929375D01*
X164030000Y-89227761D01*
X163830625Y-88929375D01*
X163339418Y-88601161D01*
X162906256Y-88515000D01*
X162613744Y-88515000D01*
X162180582Y-88601161D01*
X161689375Y-88929375D01*
X161476157Y-89248478D01*
X161415183Y-89118642D01*
X160986924Y-88728355D01*
X160576890Y-88558524D01*
X160347000Y-88679845D01*
X160347000Y-89873000D01*
X160367000Y-89873000D01*
X160367000Y-90127000D01*
X160347000Y-90127000D01*
X160347000Y-90147000D01*
X160093000Y-90147000D01*
X160093000Y-90127000D01*
X158899181Y-90127000D01*
X158892374Y-90139969D01*
X158544118Y-90139969D01*
X158163712Y-90297538D01*
X157872561Y-90588689D01*
X157714992Y-90969095D01*
X157714992Y-91380843D01*
X157872561Y-91761249D01*
X158163712Y-92052400D01*
X158544118Y-92209969D01*
X158707522Y-92209969D01*
X158827297Y-92290000D01*
X79534801Y-92290000D01*
X80234473Y-91590329D01*
X80297929Y-91547929D01*
X80394196Y-91403856D01*
X80419418Y-91398839D01*
X80910625Y-91070625D01*
X81110000Y-90772239D01*
X81309375Y-91070625D01*
X81800582Y-91398839D01*
X82233744Y-91485000D01*
X82526256Y-91485000D01*
X82959418Y-91398839D01*
X83450625Y-91070625D01*
X83650000Y-90772239D01*
X83849375Y-91070625D01*
X84340582Y-91398839D01*
X84773744Y-91485000D01*
X85066256Y-91485000D01*
X85499418Y-91398839D01*
X85990625Y-91070625D01*
X86190000Y-90772239D01*
X86389375Y-91070625D01*
X86880582Y-91398839D01*
X87313744Y-91485000D01*
X87606256Y-91485000D01*
X88039418Y-91398839D01*
X88530625Y-91070625D01*
X88542816Y-91052381D01*
X88551843Y-91097765D01*
X88692191Y-91307809D01*
X88902235Y-91448157D01*
X89150000Y-91497440D01*
X90850000Y-91497440D01*
X91097765Y-91448157D01*
X91307809Y-91307809D01*
X91448157Y-91097765D01*
X91497440Y-90850000D01*
X91497440Y-90356892D01*
X114778514Y-90356892D01*
X115024817Y-90881358D01*
X115453076Y-91271645D01*
X115863110Y-91441476D01*
X116093000Y-91320155D01*
X116093000Y-90127000D01*
X114899181Y-90127000D01*
X114778514Y-90356892D01*
X91497440Y-90356892D01*
X91497440Y-89643108D01*
X114778514Y-89643108D01*
X114899181Y-89873000D01*
X116093000Y-89873000D01*
X116093000Y-88679845D01*
X116347000Y-88679845D01*
X116347000Y-89873000D01*
X116367000Y-89873000D01*
X116367000Y-90127000D01*
X116347000Y-90127000D01*
X116347000Y-91320155D01*
X116576890Y-91441476D01*
X116986924Y-91271645D01*
X117415183Y-90881358D01*
X117476157Y-90751522D01*
X117689375Y-91070625D01*
X118180582Y-91398839D01*
X118613744Y-91485000D01*
X118906256Y-91485000D01*
X119339418Y-91398839D01*
X119830625Y-91070625D01*
X120030000Y-90772239D01*
X120229375Y-91070625D01*
X120720582Y-91398839D01*
X121153744Y-91485000D01*
X121446256Y-91485000D01*
X121879418Y-91398839D01*
X122370625Y-91070625D01*
X122570000Y-90772239D01*
X122769375Y-91070625D01*
X123260582Y-91398839D01*
X123693744Y-91485000D01*
X123986256Y-91485000D01*
X124419418Y-91398839D01*
X124910625Y-91070625D01*
X125110000Y-90772239D01*
X125309375Y-91070625D01*
X125800582Y-91398839D01*
X126233744Y-91485000D01*
X126526256Y-91485000D01*
X126959418Y-91398839D01*
X127450625Y-91070625D01*
X127650000Y-90772239D01*
X127849375Y-91070625D01*
X128340582Y-91398839D01*
X128773744Y-91485000D01*
X129066256Y-91485000D01*
X129499418Y-91398839D01*
X129990625Y-91070625D01*
X130190000Y-90772239D01*
X130389375Y-91070625D01*
X130880582Y-91398839D01*
X131313744Y-91485000D01*
X131606256Y-91485000D01*
X132039418Y-91398839D01*
X132530625Y-91070625D01*
X132542816Y-91052381D01*
X132551843Y-91097765D01*
X132692191Y-91307809D01*
X132902235Y-91448157D01*
X133150000Y-91497440D01*
X134850000Y-91497440D01*
X135097765Y-91448157D01*
X135307809Y-91307809D01*
X135448157Y-91097765D01*
X135497440Y-90850000D01*
X135497440Y-89643108D01*
X158778514Y-89643108D01*
X158899181Y-89873000D01*
X160093000Y-89873000D01*
X160093000Y-88679845D01*
X159863110Y-88558524D01*
X159453076Y-88728355D01*
X159024817Y-89118642D01*
X158778514Y-89643108D01*
X135497440Y-89643108D01*
X135497440Y-89150000D01*
X135448157Y-88902235D01*
X135307809Y-88692191D01*
X135097765Y-88551843D01*
X134850000Y-88502560D01*
X133150000Y-88502560D01*
X132902235Y-88551843D01*
X132692191Y-88692191D01*
X132551843Y-88902235D01*
X132542816Y-88947619D01*
X132530625Y-88929375D01*
X132039418Y-88601161D01*
X131606256Y-88515000D01*
X131313744Y-88515000D01*
X130880582Y-88601161D01*
X130389375Y-88929375D01*
X130190000Y-89227761D01*
X129990625Y-88929375D01*
X129499418Y-88601161D01*
X129066256Y-88515000D01*
X128773744Y-88515000D01*
X128340582Y-88601161D01*
X127849375Y-88929375D01*
X127650000Y-89227761D01*
X127450625Y-88929375D01*
X126959418Y-88601161D01*
X126526256Y-88515000D01*
X126233744Y-88515000D01*
X125800582Y-88601161D01*
X125309375Y-88929375D01*
X125110000Y-89227761D01*
X124910625Y-88929375D01*
X124419418Y-88601161D01*
X123986256Y-88515000D01*
X123693744Y-88515000D01*
X123260582Y-88601161D01*
X122769375Y-88929375D01*
X122570000Y-89227761D01*
X122370625Y-88929375D01*
X121879418Y-88601161D01*
X121446256Y-88515000D01*
X121153744Y-88515000D01*
X120720582Y-88601161D01*
X120229375Y-88929375D01*
X120030000Y-89227761D01*
X119830625Y-88929375D01*
X119339418Y-88601161D01*
X118906256Y-88515000D01*
X118613744Y-88515000D01*
X118180582Y-88601161D01*
X117689375Y-88929375D01*
X117476157Y-89248478D01*
X117415183Y-89118642D01*
X116986924Y-88728355D01*
X116576890Y-88558524D01*
X116347000Y-88679845D01*
X116093000Y-88679845D01*
X115863110Y-88558524D01*
X115453076Y-88728355D01*
X115024817Y-89118642D01*
X114778514Y-89643108D01*
X91497440Y-89643108D01*
X91497440Y-89150000D01*
X91448157Y-88902235D01*
X91307809Y-88692191D01*
X91097765Y-88551843D01*
X90850000Y-88502560D01*
X89150000Y-88502560D01*
X88902235Y-88551843D01*
X88692191Y-88692191D01*
X88551843Y-88902235D01*
X88542816Y-88947619D01*
X88530625Y-88929375D01*
X88039418Y-88601161D01*
X87606256Y-88515000D01*
X87313744Y-88515000D01*
X86880582Y-88601161D01*
X86389375Y-88929375D01*
X86190000Y-89227761D01*
X85990625Y-88929375D01*
X85499418Y-88601161D01*
X85066256Y-88515000D01*
X84773744Y-88515000D01*
X84340582Y-88601161D01*
X83849375Y-88929375D01*
X83650000Y-89227761D01*
X83450625Y-88929375D01*
X82959418Y-88601161D01*
X82526256Y-88515000D01*
X82233744Y-88515000D01*
X81800582Y-88601161D01*
X81309375Y-88929375D01*
X81110000Y-89227761D01*
X80910625Y-88929375D01*
X80419418Y-88601161D01*
X79986256Y-88515000D01*
X79693744Y-88515000D01*
X79260582Y-88601161D01*
X78769375Y-88929375D01*
X78570000Y-89227761D01*
X78370625Y-88929375D01*
X77879418Y-88601161D01*
X77446256Y-88515000D01*
X77153744Y-88515000D01*
X76720582Y-88601161D01*
X76229375Y-88929375D01*
X76030000Y-89227761D01*
X75830625Y-88929375D01*
X75339418Y-88601161D01*
X74906256Y-88515000D01*
X74613744Y-88515000D01*
X74180582Y-88601161D01*
X73689375Y-88929375D01*
X73476157Y-89248478D01*
X73415183Y-89118642D01*
X72986924Y-88728355D01*
X72576890Y-88558524D01*
X72347000Y-88679845D01*
X72347000Y-89873000D01*
X72367000Y-89873000D01*
X72367000Y-90127000D01*
X72347000Y-90127000D01*
X72347000Y-90147000D01*
X72093000Y-90147000D01*
X72093000Y-90127000D01*
X72073000Y-90127000D01*
X72073000Y-89873000D01*
X72093000Y-89873000D01*
X72093000Y-88679845D01*
X71863110Y-88558524D01*
X71453076Y-88728355D01*
X71024817Y-89118642D01*
X70778514Y-89643108D01*
X70899180Y-89872998D01*
X70735000Y-89872998D01*
X70735000Y-89977064D01*
X70705874Y-89965000D01*
X70294126Y-89965000D01*
X69913720Y-90122569D01*
X69622569Y-90413720D01*
X69465000Y-90794126D01*
X69465000Y-91205874D01*
X69622569Y-91586280D01*
X69913720Y-91877431D01*
X70294126Y-92035000D01*
X70460199Y-92035000D01*
X70715198Y-92290000D01*
X27210000Y-92290000D01*
X27210000Y-91050122D01*
X27453076Y-91271645D01*
X27863110Y-91441476D01*
X28093000Y-91320155D01*
X28093000Y-90127000D01*
X28073000Y-90127000D01*
X28073000Y-89873000D01*
X28093000Y-89873000D01*
X28093000Y-88679845D01*
X28347000Y-88679845D01*
X28347000Y-89873000D01*
X28367000Y-89873000D01*
X28367000Y-90127000D01*
X28347000Y-90127000D01*
X28347000Y-91320155D01*
X28576890Y-91441476D01*
X28986924Y-91271645D01*
X29415183Y-90881358D01*
X29476157Y-90751522D01*
X29689375Y-91070625D01*
X30180582Y-91398839D01*
X30613744Y-91485000D01*
X30906256Y-91485000D01*
X31339418Y-91398839D01*
X31830625Y-91070625D01*
X32030000Y-90772239D01*
X32229375Y-91070625D01*
X32720582Y-91398839D01*
X33153744Y-91485000D01*
X33446256Y-91485000D01*
X33879418Y-91398839D01*
X34370625Y-91070625D01*
X34570000Y-90772239D01*
X34769375Y-91070625D01*
X35260582Y-91398839D01*
X35693744Y-91485000D01*
X35986256Y-91485000D01*
X36419418Y-91398839D01*
X36910625Y-91070625D01*
X37110000Y-90772239D01*
X37309375Y-91070625D01*
X37800582Y-91398839D01*
X38233744Y-91485000D01*
X38526256Y-91485000D01*
X38959418Y-91398839D01*
X39450625Y-91070625D01*
X39650000Y-90772239D01*
X39849375Y-91070625D01*
X40340582Y-91398839D01*
X40773744Y-91485000D01*
X41066256Y-91485000D01*
X41499418Y-91398839D01*
X41990625Y-91070625D01*
X42190000Y-90772239D01*
X42389375Y-91070625D01*
X42880582Y-91398839D01*
X43313744Y-91485000D01*
X43606256Y-91485000D01*
X44039418Y-91398839D01*
X44530625Y-91070625D01*
X44542816Y-91052381D01*
X44551843Y-91097765D01*
X44692191Y-91307809D01*
X44902235Y-91448157D01*
X45150000Y-91497440D01*
X46850000Y-91497440D01*
X47097765Y-91448157D01*
X47307809Y-91307809D01*
X47448157Y-91097765D01*
X47497440Y-90850000D01*
X47497440Y-89150000D01*
X47448157Y-88902235D01*
X47307809Y-88692191D01*
X47097765Y-88551843D01*
X46850000Y-88502560D01*
X45150000Y-88502560D01*
X44902235Y-88551843D01*
X44692191Y-88692191D01*
X44551843Y-88902235D01*
X44542816Y-88947619D01*
X44530625Y-88929375D01*
X44039418Y-88601161D01*
X43606256Y-88515000D01*
X43313744Y-88515000D01*
X42880582Y-88601161D01*
X42389375Y-88929375D01*
X42190000Y-89227761D01*
X41990625Y-88929375D01*
X41499418Y-88601161D01*
X41066256Y-88515000D01*
X40773744Y-88515000D01*
X40340582Y-88601161D01*
X39849375Y-88929375D01*
X39650000Y-89227761D01*
X39450625Y-88929375D01*
X38959418Y-88601161D01*
X38526256Y-88515000D01*
X38233744Y-88515000D01*
X37800582Y-88601161D01*
X37309375Y-88929375D01*
X37110000Y-89227761D01*
X36910625Y-88929375D01*
X36419418Y-88601161D01*
X35986256Y-88515000D01*
X35693744Y-88515000D01*
X35260582Y-88601161D01*
X34769375Y-88929375D01*
X34570000Y-89227761D01*
X34370625Y-88929375D01*
X33879418Y-88601161D01*
X33446256Y-88515000D01*
X33153744Y-88515000D01*
X32720582Y-88601161D01*
X32229375Y-88929375D01*
X32030000Y-89227761D01*
X31830625Y-88929375D01*
X31339418Y-88601161D01*
X30906256Y-88515000D01*
X30613744Y-88515000D01*
X30180582Y-88601161D01*
X29689375Y-88929375D01*
X29476157Y-89248478D01*
X29415183Y-89118642D01*
X28986924Y-88728355D01*
X28576890Y-88558524D01*
X28347000Y-88679845D01*
X28093000Y-88679845D01*
X27863110Y-88558524D01*
X27453076Y-88728355D01*
X27210000Y-88949878D01*
X27210000Y-83794126D01*
X119715000Y-83794126D01*
X119715000Y-84205874D01*
X119872569Y-84586280D01*
X120163720Y-84877431D01*
X120465000Y-85002225D01*
X120465000Y-85205874D01*
X120622569Y-85586280D01*
X120913720Y-85877431D01*
X121294126Y-86035000D01*
X121705874Y-86035000D01*
X122086280Y-85877431D01*
X122203711Y-85760000D01*
X132796299Y-85760000D01*
X132913730Y-85877431D01*
X133294136Y-86035000D01*
X133705884Y-86035000D01*
X134086290Y-85877431D01*
X134377441Y-85586280D01*
X134535010Y-85205874D01*
X134535010Y-84794126D01*
X134377441Y-84413720D01*
X134086290Y-84122569D01*
X133785000Y-83997771D01*
X133785000Y-83794126D01*
X133627431Y-83413720D01*
X133336280Y-83122569D01*
X132955874Y-82965000D01*
X132544126Y-82965000D01*
X132163720Y-83122569D01*
X132046289Y-83240000D01*
X121453711Y-83240000D01*
X121336280Y-83122569D01*
X120955874Y-82965000D01*
X120544126Y-82965000D01*
X120163720Y-83122569D01*
X119872569Y-83413720D01*
X119715000Y-83794126D01*
X27210000Y-83794126D01*
X27210000Y-75636000D01*
X73996887Y-75636000D01*
X74108260Y-76195909D01*
X74425423Y-76670577D01*
X74900091Y-76987740D01*
X75318667Y-77071000D01*
X75601333Y-77071000D01*
X76019909Y-76987740D01*
X76494577Y-76670577D01*
X76730000Y-76318242D01*
X76965423Y-76670577D01*
X77440091Y-76987740D01*
X77858667Y-77071000D01*
X78141333Y-77071000D01*
X78559909Y-76987740D01*
X79034577Y-76670577D01*
X79270000Y-76318242D01*
X79505423Y-76670577D01*
X79980091Y-76987740D01*
X80398667Y-77071000D01*
X80681333Y-77071000D01*
X81099909Y-76987740D01*
X81574577Y-76670577D01*
X81810000Y-76318242D01*
X82045423Y-76670577D01*
X82520091Y-76987740D01*
X82938667Y-77071000D01*
X83221333Y-77071000D01*
X83639909Y-76987740D01*
X84114577Y-76670577D01*
X84350000Y-76318242D01*
X84585423Y-76670577D01*
X85060091Y-76987740D01*
X85478667Y-77071000D01*
X85761333Y-77071000D01*
X86179909Y-76987740D01*
X86654577Y-76670577D01*
X86890000Y-76318242D01*
X87125423Y-76670577D01*
X87600091Y-76987740D01*
X88018667Y-77071000D01*
X88301333Y-77071000D01*
X88719909Y-76987740D01*
X89194577Y-76670577D01*
X89430000Y-76318242D01*
X89665423Y-76670577D01*
X90140091Y-76987740D01*
X90558667Y-77071000D01*
X90841333Y-77071000D01*
X91259909Y-76987740D01*
X91734577Y-76670577D01*
X91970000Y-76318242D01*
X92205423Y-76670577D01*
X92680091Y-76987740D01*
X93098667Y-77071000D01*
X93381333Y-77071000D01*
X93799909Y-76987740D01*
X94274577Y-76670577D01*
X94510000Y-76318242D01*
X94745423Y-76670577D01*
X95220091Y-76987740D01*
X95638667Y-77071000D01*
X95921333Y-77071000D01*
X96339909Y-76987740D01*
X96814577Y-76670577D01*
X97050000Y-76318242D01*
X97285423Y-76670577D01*
X97760091Y-76987740D01*
X98178667Y-77071000D01*
X98461333Y-77071000D01*
X98879909Y-76987740D01*
X99354577Y-76670577D01*
X99590000Y-76318242D01*
X99825423Y-76670577D01*
X100300091Y-76987740D01*
X100718667Y-77071000D01*
X101001333Y-77071000D01*
X101419909Y-76987740D01*
X101894577Y-76670577D01*
X102130000Y-76318242D01*
X102365423Y-76670577D01*
X102840091Y-76987740D01*
X103258667Y-77071000D01*
X103541333Y-77071000D01*
X103959909Y-76987740D01*
X104434577Y-76670577D01*
X104670000Y-76318242D01*
X104905423Y-76670577D01*
X105380091Y-76987740D01*
X105798667Y-77071000D01*
X106081333Y-77071000D01*
X106499909Y-76987740D01*
X106974577Y-76670577D01*
X107210000Y-76318242D01*
X107445423Y-76670577D01*
X107920091Y-76987740D01*
X108338667Y-77071000D01*
X108621333Y-77071000D01*
X109039909Y-76987740D01*
X109514577Y-76670577D01*
X109750000Y-76318242D01*
X109985423Y-76670577D01*
X110460091Y-76987740D01*
X110878667Y-77071000D01*
X111161333Y-77071000D01*
X111579909Y-76987740D01*
X112054577Y-76670577D01*
X112290000Y-76318242D01*
X112525423Y-76670577D01*
X113000091Y-76987740D01*
X113418667Y-77071000D01*
X113701333Y-77071000D01*
X114119909Y-76987740D01*
X114594577Y-76670577D01*
X114830000Y-76318242D01*
X115065423Y-76670577D01*
X115540091Y-76987740D01*
X115958667Y-77071000D01*
X116241333Y-77071000D01*
X116659909Y-76987740D01*
X117134577Y-76670577D01*
X117370000Y-76318242D01*
X117605423Y-76670577D01*
X118080091Y-76987740D01*
X118498667Y-77071000D01*
X118781333Y-77071000D01*
X119199909Y-76987740D01*
X119674577Y-76670577D01*
X119910000Y-76318242D01*
X120145423Y-76670577D01*
X120620091Y-76987740D01*
X121038667Y-77071000D01*
X121321333Y-77071000D01*
X121739909Y-76987740D01*
X122214577Y-76670577D01*
X122450000Y-76318242D01*
X122685423Y-76670577D01*
X123160091Y-76987740D01*
X123578667Y-77071000D01*
X123861333Y-77071000D01*
X124279909Y-76987740D01*
X124754577Y-76670577D01*
X124990000Y-76318242D01*
X125225423Y-76670577D01*
X125700091Y-76987740D01*
X126118667Y-77071000D01*
X126401333Y-77071000D01*
X126819909Y-76987740D01*
X127294577Y-76670577D01*
X127530000Y-76318242D01*
X127765423Y-76670577D01*
X128240091Y-76987740D01*
X128658667Y-77071000D01*
X128941333Y-77071000D01*
X129359909Y-76987740D01*
X129834577Y-76670577D01*
X130070000Y-76318242D01*
X130305423Y-76670577D01*
X130780091Y-76987740D01*
X131198667Y-77071000D01*
X131481333Y-77071000D01*
X131899909Y-76987740D01*
X132374577Y-76670577D01*
X132630947Y-76286892D01*
X132727611Y-76491134D01*
X133142577Y-76867041D01*
X133530961Y-77027904D01*
X133753000Y-76905915D01*
X133753000Y-75763000D01*
X134007000Y-75763000D01*
X134007000Y-76905915D01*
X134229039Y-77027904D01*
X134617423Y-76867041D01*
X135032389Y-76491134D01*
X135271914Y-75985041D01*
X135150629Y-75763000D01*
X134007000Y-75763000D01*
X133753000Y-75763000D01*
X133733000Y-75763000D01*
X133733000Y-75509000D01*
X133753000Y-75509000D01*
X133753000Y-74366085D01*
X134007000Y-74366085D01*
X134007000Y-75509000D01*
X135150629Y-75509000D01*
X135271914Y-75286959D01*
X135032389Y-74780866D01*
X134617423Y-74404959D01*
X134229039Y-74244096D01*
X134007000Y-74366085D01*
X133753000Y-74366085D01*
X133530961Y-74244096D01*
X133142577Y-74404959D01*
X132727611Y-74780866D01*
X132630947Y-74985108D01*
X132374577Y-74601423D01*
X131899909Y-74284260D01*
X131481333Y-74201000D01*
X131198667Y-74201000D01*
X130780091Y-74284260D01*
X130305423Y-74601423D01*
X130070000Y-74953758D01*
X129834577Y-74601423D01*
X129359909Y-74284260D01*
X128941333Y-74201000D01*
X128658667Y-74201000D01*
X128240091Y-74284260D01*
X127765423Y-74601423D01*
X127530000Y-74953758D01*
X127294577Y-74601423D01*
X126819909Y-74284260D01*
X126401333Y-74201000D01*
X126118667Y-74201000D01*
X125700091Y-74284260D01*
X125225423Y-74601423D01*
X124990000Y-74953758D01*
X124754577Y-74601423D01*
X124279909Y-74284260D01*
X123861333Y-74201000D01*
X123578667Y-74201000D01*
X123160091Y-74284260D01*
X122685423Y-74601423D01*
X122450000Y-74953758D01*
X122214577Y-74601423D01*
X121739909Y-74284260D01*
X121321333Y-74201000D01*
X121038667Y-74201000D01*
X120620091Y-74284260D01*
X120145423Y-74601423D01*
X119910000Y-74953758D01*
X119674577Y-74601423D01*
X119199909Y-74284260D01*
X118781333Y-74201000D01*
X118498667Y-74201000D01*
X118080091Y-74284260D01*
X117605423Y-74601423D01*
X117370000Y-74953758D01*
X117134577Y-74601423D01*
X116659909Y-74284260D01*
X116241333Y-74201000D01*
X115958667Y-74201000D01*
X115540091Y-74284260D01*
X115065423Y-74601423D01*
X114830000Y-74953758D01*
X114594577Y-74601423D01*
X114119909Y-74284260D01*
X113701333Y-74201000D01*
X113418667Y-74201000D01*
X113000091Y-74284260D01*
X112525423Y-74601423D01*
X112290000Y-74953758D01*
X112054577Y-74601423D01*
X111579909Y-74284260D01*
X111161333Y-74201000D01*
X110878667Y-74201000D01*
X110460091Y-74284260D01*
X109985423Y-74601423D01*
X109750000Y-74953758D01*
X109514577Y-74601423D01*
X109039909Y-74284260D01*
X108621333Y-74201000D01*
X108338667Y-74201000D01*
X107920091Y-74284260D01*
X107445423Y-74601423D01*
X107210000Y-74953758D01*
X106974577Y-74601423D01*
X106499909Y-74284260D01*
X106081333Y-74201000D01*
X105798667Y-74201000D01*
X105380091Y-74284260D01*
X104905423Y-74601423D01*
X104670000Y-74953758D01*
X104434577Y-74601423D01*
X103959909Y-74284260D01*
X103541333Y-74201000D01*
X103258667Y-74201000D01*
X102840091Y-74284260D01*
X102365423Y-74601423D01*
X102130000Y-74953758D01*
X101894577Y-74601423D01*
X101419909Y-74284260D01*
X101001333Y-74201000D01*
X100718667Y-74201000D01*
X100300091Y-74284260D01*
X99825423Y-74601423D01*
X99590000Y-74953758D01*
X99354577Y-74601423D01*
X98879909Y-74284260D01*
X98461333Y-74201000D01*
X98178667Y-74201000D01*
X97760091Y-74284260D01*
X97285423Y-74601423D01*
X97050000Y-74953758D01*
X96814577Y-74601423D01*
X96339909Y-74284260D01*
X95921333Y-74201000D01*
X95638667Y-74201000D01*
X95220091Y-74284260D01*
X94745423Y-74601423D01*
X94510000Y-74953758D01*
X94274577Y-74601423D01*
X93799909Y-74284260D01*
X93381333Y-74201000D01*
X93098667Y-74201000D01*
X92680091Y-74284260D01*
X92205423Y-74601423D01*
X91970000Y-74953758D01*
X91734577Y-74601423D01*
X91259909Y-74284260D01*
X90841333Y-74201000D01*
X90558667Y-74201000D01*
X90140091Y-74284260D01*
X89665423Y-74601423D01*
X89430000Y-74953758D01*
X89194577Y-74601423D01*
X88719909Y-74284260D01*
X88301333Y-74201000D01*
X88018667Y-74201000D01*
X87600091Y-74284260D01*
X87125423Y-74601423D01*
X86890000Y-74953758D01*
X86654577Y-74601423D01*
X86179909Y-74284260D01*
X85761333Y-74201000D01*
X85478667Y-74201000D01*
X85060091Y-74284260D01*
X84585423Y-74601423D01*
X84350000Y-74953758D01*
X84114577Y-74601423D01*
X83639909Y-74284260D01*
X83221333Y-74201000D01*
X82938667Y-74201000D01*
X82520091Y-74284260D01*
X82045423Y-74601423D01*
X81810000Y-74953758D01*
X81574577Y-74601423D01*
X81099909Y-74284260D01*
X80681333Y-74201000D01*
X80398667Y-74201000D01*
X79980091Y-74284260D01*
X79505423Y-74601423D01*
X79270000Y-74953758D01*
X79034577Y-74601423D01*
X78559909Y-74284260D01*
X78141333Y-74201000D01*
X77858667Y-74201000D01*
X77440091Y-74284260D01*
X76965423Y-74601423D01*
X76730000Y-74953758D01*
X76494577Y-74601423D01*
X76019909Y-74284260D01*
X75601333Y-74201000D01*
X75318667Y-74201000D01*
X74900091Y-74284260D01*
X74425423Y-74601423D01*
X74108260Y-75076091D01*
X73996887Y-75636000D01*
X27210000Y-75636000D01*
X27210000Y-71780400D01*
X29222960Y-71780400D01*
X29222960Y-73507600D01*
X29272243Y-73755365D01*
X29412591Y-73965409D01*
X29622635Y-74105757D01*
X29870400Y-74155040D01*
X31597600Y-74155040D01*
X31845365Y-74105757D01*
X32055409Y-73965409D01*
X32195757Y-73755365D01*
X32200932Y-73729349D01*
X32689275Y-74055650D01*
X33126402Y-74142600D01*
X33421598Y-74142600D01*
X33858725Y-74055650D01*
X34354430Y-73724430D01*
X34685650Y-73228725D01*
X34801959Y-72644000D01*
X34685650Y-72059275D01*
X34354430Y-71563570D01*
X34052979Y-71362146D01*
X34162490Y-71310821D01*
X34556688Y-70878947D01*
X34728958Y-70463026D01*
X34607817Y-70231000D01*
X33401000Y-70231000D01*
X33401000Y-70251000D01*
X33147000Y-70251000D01*
X33147000Y-70231000D01*
X30861000Y-70231000D01*
X30861000Y-70251000D01*
X30607000Y-70251000D01*
X30607000Y-70231000D01*
X29400183Y-70231000D01*
X29279042Y-70463026D01*
X29451312Y-70878947D01*
X29711936Y-71164480D01*
X29622635Y-71182243D01*
X29412591Y-71322591D01*
X29272243Y-71532635D01*
X29222960Y-71780400D01*
X27210000Y-71780400D01*
X27210000Y-67923026D01*
X29279042Y-67923026D01*
X29451312Y-68338947D01*
X29845510Y-68770821D01*
X29980313Y-68834000D01*
X29845510Y-68897179D01*
X29451312Y-69329053D01*
X29279042Y-69744974D01*
X29400183Y-69977000D01*
X30607000Y-69977000D01*
X30607000Y-67691000D01*
X30861000Y-67691000D01*
X30861000Y-69977000D01*
X33147000Y-69977000D01*
X33147000Y-67691000D01*
X33401000Y-67691000D01*
X33401000Y-69977000D01*
X34607817Y-69977000D01*
X34728958Y-69744974D01*
X34556688Y-69329053D01*
X34162490Y-68897179D01*
X34027687Y-68834000D01*
X34162490Y-68770821D01*
X34556688Y-68338947D01*
X34728958Y-67923026D01*
X34607817Y-67691000D01*
X33401000Y-67691000D01*
X33147000Y-67691000D01*
X30861000Y-67691000D01*
X30607000Y-67691000D01*
X29400183Y-67691000D01*
X29279042Y-67923026D01*
X27210000Y-67923026D01*
X27210000Y-65383026D01*
X29279042Y-65383026D01*
X29451312Y-65798947D01*
X29845510Y-66230821D01*
X29980313Y-66294000D01*
X29845510Y-66357179D01*
X29451312Y-66789053D01*
X29279042Y-67204974D01*
X29400183Y-67437000D01*
X30607000Y-67437000D01*
X30607000Y-65151000D01*
X30861000Y-65151000D01*
X30861000Y-67437000D01*
X33147000Y-67437000D01*
X33147000Y-65151000D01*
X33401000Y-65151000D01*
X33401000Y-67437000D01*
X34607817Y-67437000D01*
X34682407Y-67294134D01*
X164355542Y-67294134D01*
X164355542Y-67705882D01*
X164513111Y-68086288D01*
X164804262Y-68377439D01*
X165184668Y-68535008D01*
X165596416Y-68535008D01*
X165976822Y-68377439D01*
X166267973Y-68086288D01*
X166411279Y-67740317D01*
X166546289Y-67740317D01*
X166663720Y-67857748D01*
X167044126Y-68015317D01*
X167455874Y-68015317D01*
X167836280Y-67857748D01*
X168127431Y-67566597D01*
X168285000Y-67186191D01*
X168285000Y-66774443D01*
X168185820Y-66535000D01*
X168205874Y-66535000D01*
X168586280Y-66377431D01*
X168877431Y-66086280D01*
X169035000Y-65705874D01*
X169035000Y-65294126D01*
X168877431Y-64913720D01*
X168586280Y-64622569D01*
X168205874Y-64465000D01*
X167794126Y-64465000D01*
X167413720Y-64622569D01*
X167296289Y-64740000D01*
X166849837Y-64740000D01*
X166774989Y-64725112D01*
X166700141Y-64740000D01*
X166700137Y-64740000D01*
X166478452Y-64784096D01*
X166227060Y-64952071D01*
X166201724Y-64989989D01*
X166044126Y-64989989D01*
X165663720Y-65147558D01*
X165372569Y-65438709D01*
X165215000Y-65819115D01*
X165215000Y-66230863D01*
X165311986Y-66465008D01*
X165184668Y-66465008D01*
X164804262Y-66622577D01*
X164513111Y-66913728D01*
X164355542Y-67294134D01*
X34682407Y-67294134D01*
X34728958Y-67204974D01*
X34556688Y-66789053D01*
X34162490Y-66357179D01*
X34027687Y-66294000D01*
X34162490Y-66230821D01*
X34556688Y-65798947D01*
X34728958Y-65383026D01*
X34607817Y-65151000D01*
X33401000Y-65151000D01*
X33147000Y-65151000D01*
X30861000Y-65151000D01*
X30607000Y-65151000D01*
X29400183Y-65151000D01*
X29279042Y-65383026D01*
X27210000Y-65383026D01*
X27210000Y-62484000D01*
X29206041Y-62484000D01*
X29322350Y-63068725D01*
X29653570Y-63564430D01*
X29955021Y-63765854D01*
X29845510Y-63817179D01*
X29451312Y-64249053D01*
X29279042Y-64664974D01*
X29400183Y-64897000D01*
X30607000Y-64897000D01*
X30607000Y-64877000D01*
X30861000Y-64877000D01*
X30861000Y-64897000D01*
X33147000Y-64897000D01*
X33147000Y-64877000D01*
X33401000Y-64877000D01*
X33401000Y-64897000D01*
X34607817Y-64897000D01*
X34728958Y-64664974D01*
X34556688Y-64249053D01*
X34162490Y-63817179D01*
X34052979Y-63765854D01*
X34354430Y-63564430D01*
X34685650Y-63068725D01*
X34801959Y-62484000D01*
X34685650Y-61899275D01*
X34354430Y-61403570D01*
X33858725Y-61072350D01*
X33421598Y-60985400D01*
X33126402Y-60985400D01*
X32689275Y-61072350D01*
X32193570Y-61403570D01*
X32004000Y-61687281D01*
X31814430Y-61403570D01*
X31318725Y-61072350D01*
X30881598Y-60985400D01*
X30586402Y-60985400D01*
X30149275Y-61072350D01*
X29653570Y-61403570D01*
X29322350Y-61899275D01*
X29206041Y-62484000D01*
X27210000Y-62484000D01*
X27210000Y-47111133D01*
X27640582Y-47398839D01*
X28073744Y-47485000D01*
X28366256Y-47485000D01*
X28799418Y-47398839D01*
X29290625Y-47070625D01*
X29490000Y-46772239D01*
X29689375Y-47070625D01*
X30180582Y-47398839D01*
X30613744Y-47485000D01*
X30906256Y-47485000D01*
X31339418Y-47398839D01*
X31830625Y-47070625D01*
X32030000Y-46772239D01*
X32229375Y-47070625D01*
X32720582Y-47398839D01*
X33153744Y-47485000D01*
X33446256Y-47485000D01*
X33879418Y-47398839D01*
X34370625Y-47070625D01*
X34570000Y-46772239D01*
X34769375Y-47070625D01*
X35260582Y-47398839D01*
X35693744Y-47485000D01*
X35986256Y-47485000D01*
X36419418Y-47398839D01*
X36910625Y-47070625D01*
X37110000Y-46772239D01*
X37309375Y-47070625D01*
X37309375Y-47070625D01*
G37*
X37309375Y-47070625D02*
X37620000Y-47278178D01*
X37620000Y-47305153D01*
X37605112Y-47380000D01*
X37620000Y-47454847D01*
X37620000Y-47454851D01*
X37664096Y-47676536D01*
X37832071Y-47927929D01*
X37895530Y-47970331D01*
X42659670Y-52734472D01*
X42702071Y-52797929D01*
X42953463Y-52965904D01*
X43175148Y-53010000D01*
X43175152Y-53010000D01*
X43249999Y-53024888D01*
X43324846Y-53010000D01*
X69935199Y-53010000D01*
X74700001Y-57774803D01*
X74700000Y-58948560D01*
X74660000Y-58948560D01*
X74412235Y-58997843D01*
X74202191Y-59138191D01*
X74061843Y-59348235D01*
X74012560Y-59596000D01*
X74012560Y-61196000D01*
X74061843Y-61443765D01*
X74202191Y-61653809D01*
X74412235Y-61794157D01*
X74660000Y-61843440D01*
X76260000Y-61843440D01*
X76507765Y-61794157D01*
X76717809Y-61653809D01*
X76858157Y-61443765D01*
X76884785Y-61309894D01*
X76965423Y-61430577D01*
X77440091Y-61747740D01*
X77858667Y-61831000D01*
X78141333Y-61831000D01*
X78559909Y-61747740D01*
X79034577Y-61430577D01*
X79270000Y-61078242D01*
X79505423Y-61430577D01*
X79980091Y-61747740D01*
X80398667Y-61831000D01*
X80681333Y-61831000D01*
X81099909Y-61747740D01*
X81574577Y-61430577D01*
X81810000Y-61078242D01*
X82045423Y-61430577D01*
X82520091Y-61747740D01*
X82938667Y-61831000D01*
X83221333Y-61831000D01*
X83639909Y-61747740D01*
X84114577Y-61430577D01*
X84350000Y-61078242D01*
X84585423Y-61430577D01*
X85060091Y-61747740D01*
X85478667Y-61831000D01*
X85761333Y-61831000D01*
X86179909Y-61747740D01*
X86654577Y-61430577D01*
X86890000Y-61078242D01*
X87125423Y-61430577D01*
X87600091Y-61747740D01*
X88018667Y-61831000D01*
X88301333Y-61831000D01*
X88719909Y-61747740D01*
X89194577Y-61430577D01*
X89430000Y-61078242D01*
X89665423Y-61430577D01*
X90140091Y-61747740D01*
X90558667Y-61831000D01*
X90841333Y-61831000D01*
X91259909Y-61747740D01*
X91734577Y-61430577D01*
X91970000Y-61078242D01*
X92205423Y-61430577D01*
X92680091Y-61747740D01*
X93098667Y-61831000D01*
X93381333Y-61831000D01*
X93799909Y-61747740D01*
X94274577Y-61430577D01*
X94510000Y-61078242D01*
X94745423Y-61430577D01*
X95220091Y-61747740D01*
X95638667Y-61831000D01*
X95921333Y-61831000D01*
X96339909Y-61747740D01*
X96814577Y-61430577D01*
X97050000Y-61078242D01*
X97285423Y-61430577D01*
X97760091Y-61747740D01*
X98178667Y-61831000D01*
X98461333Y-61831000D01*
X98879909Y-61747740D01*
X99354577Y-61430577D01*
X99590000Y-61078242D01*
X99825423Y-61430577D01*
X100300091Y-61747740D01*
X100718667Y-61831000D01*
X101001333Y-61831000D01*
X101419909Y-61747740D01*
X101894577Y-61430577D01*
X102130000Y-61078242D01*
X102365423Y-61430577D01*
X102840091Y-61747740D01*
X103258667Y-61831000D01*
X103541333Y-61831000D01*
X103959909Y-61747740D01*
X104434577Y-61430577D01*
X104670000Y-61078242D01*
X104905423Y-61430577D01*
X105380091Y-61747740D01*
X105798667Y-61831000D01*
X106081333Y-61831000D01*
X106499909Y-61747740D01*
X106974577Y-61430577D01*
X107210000Y-61078242D01*
X107445423Y-61430577D01*
X107920091Y-61747740D01*
X108338667Y-61831000D01*
X108621333Y-61831000D01*
X109039909Y-61747740D01*
X109514577Y-61430577D01*
X109750000Y-61078242D01*
X109985423Y-61430577D01*
X110460091Y-61747740D01*
X110878667Y-61831000D01*
X111161333Y-61831000D01*
X111579909Y-61747740D01*
X112054577Y-61430577D01*
X112290000Y-61078242D01*
X112525423Y-61430577D01*
X113000091Y-61747740D01*
X113418667Y-61831000D01*
X113701333Y-61831000D01*
X114119909Y-61747740D01*
X114594577Y-61430577D01*
X114830000Y-61078242D01*
X115065423Y-61430577D01*
X115540091Y-61747740D01*
X115958667Y-61831000D01*
X116241333Y-61831000D01*
X116659909Y-61747740D01*
X117134577Y-61430577D01*
X117370000Y-61078242D01*
X117605423Y-61430577D01*
X118080091Y-61747740D01*
X118498667Y-61831000D01*
X118781333Y-61831000D01*
X119199909Y-61747740D01*
X119674577Y-61430577D01*
X119910000Y-61078242D01*
X120145423Y-61430577D01*
X120620091Y-61747740D01*
X121038667Y-61831000D01*
X121321333Y-61831000D01*
X121739909Y-61747740D01*
X122214577Y-61430577D01*
X122450000Y-61078242D01*
X122685423Y-61430577D01*
X123160091Y-61747740D01*
X123578667Y-61831000D01*
X123861333Y-61831000D01*
X124279909Y-61747740D01*
X124754577Y-61430577D01*
X124990000Y-61078242D01*
X125225423Y-61430577D01*
X125700091Y-61747740D01*
X126118667Y-61831000D01*
X126401333Y-61831000D01*
X126819909Y-61747740D01*
X127294577Y-61430577D01*
X127530000Y-61078242D01*
X127765423Y-61430577D01*
X128240091Y-61747740D01*
X128658667Y-61831000D01*
X128941333Y-61831000D01*
X129359909Y-61747740D01*
X129834577Y-61430577D01*
X130070000Y-61078242D01*
X130305423Y-61430577D01*
X130780091Y-61747740D01*
X131198667Y-61831000D01*
X131481333Y-61831000D01*
X131899909Y-61747740D01*
X132374577Y-61430577D01*
X132610000Y-61078242D01*
X132845423Y-61430577D01*
X133320091Y-61747740D01*
X133738667Y-61831000D01*
X134021333Y-61831000D01*
X134439909Y-61747740D01*
X134914577Y-61430577D01*
X135231740Y-60955909D01*
X135343113Y-60396000D01*
X135231740Y-59836091D01*
X134914577Y-59361423D01*
X134439909Y-59044260D01*
X134021333Y-58961000D01*
X133738667Y-58961000D01*
X133320091Y-59044260D01*
X132845423Y-59361423D01*
X132610000Y-59713758D01*
X132374577Y-59361423D01*
X131899909Y-59044260D01*
X131481333Y-58961000D01*
X131198667Y-58961000D01*
X130780091Y-59044260D01*
X130305423Y-59361423D01*
X130070000Y-59713758D01*
X129834577Y-59361423D01*
X129359909Y-59044260D01*
X128941333Y-58961000D01*
X128658667Y-58961000D01*
X128240091Y-59044260D01*
X127765423Y-59361423D01*
X127530000Y-59713758D01*
X127294577Y-59361423D01*
X126819909Y-59044260D01*
X126401333Y-58961000D01*
X126118667Y-58961000D01*
X125700091Y-59044260D01*
X125225423Y-59361423D01*
X124990000Y-59713758D01*
X124754577Y-59361423D01*
X124279909Y-59044260D01*
X123861333Y-58961000D01*
X123578667Y-58961000D01*
X123160091Y-59044260D01*
X122685423Y-59361423D01*
X122450000Y-59713758D01*
X122214577Y-59361423D01*
X121739909Y-59044260D01*
X121321333Y-58961000D01*
X121038667Y-58961000D01*
X120620091Y-59044260D01*
X120145423Y-59361423D01*
X119910000Y-59713758D01*
X119674577Y-59361423D01*
X119400000Y-59177957D01*
X119400000Y-59174801D01*
X121064802Y-57510000D01*
X168275153Y-57510000D01*
X168350000Y-57524888D01*
X168424847Y-57510000D01*
X168424852Y-57510000D01*
X168646537Y-57465904D01*
X168897929Y-57297929D01*
X168940331Y-57234470D01*
X178484473Y-47690329D01*
X178547929Y-47647929D01*
X178648483Y-47497440D01*
X178850000Y-47497440D01*
X179097765Y-47448157D01*
X179290001Y-47319708D01*
X179290000Y-88680291D01*
X179097765Y-88551843D01*
X178850000Y-88502560D01*
X177150000Y-88502560D01*
X176902235Y-88551843D01*
X176692191Y-88692191D01*
X176551843Y-88902235D01*
X176542816Y-88947619D01*
X176530625Y-88929375D01*
X176039418Y-88601161D01*
X175606256Y-88515000D01*
X175313744Y-88515000D01*
X174880582Y-88601161D01*
X174389375Y-88929375D01*
X174190000Y-89227761D01*
X173990625Y-88929375D01*
X173499418Y-88601161D01*
X173066256Y-88515000D01*
X172773744Y-88515000D01*
X172340582Y-88601161D01*
X171849375Y-88929375D01*
X171650000Y-89227761D01*
X171450625Y-88929375D01*
X170959418Y-88601161D01*
X170526256Y-88515000D01*
X170233744Y-88515000D01*
X169800582Y-88601161D01*
X169309375Y-88929375D01*
X169110000Y-89227761D01*
X168910625Y-88929375D01*
X168600000Y-88721822D01*
X168600000Y-85863711D01*
X168877431Y-85586280D01*
X169035000Y-85205874D01*
X169035000Y-84794126D01*
X168877431Y-84413720D01*
X168586280Y-84122569D01*
X168205874Y-83965000D01*
X167794126Y-83965000D01*
X167413720Y-84122569D01*
X167122569Y-84413720D01*
X166965000Y-84794126D01*
X166965000Y-85205874D01*
X167080001Y-85483511D01*
X167080000Y-88721822D01*
X166769375Y-88929375D01*
X166570000Y-89227761D01*
X166370625Y-88929375D01*
X166060000Y-88721822D01*
X166060000Y-85888317D01*
X166086280Y-85877431D01*
X166377431Y-85586280D01*
X166535000Y-85205874D01*
X166535000Y-84794126D01*
X166377431Y-84413720D01*
X166086280Y-84122569D01*
X165705874Y-83965000D01*
X165294126Y-83965000D01*
X164913720Y-84122569D01*
X164622569Y-84413720D01*
X164465000Y-84794126D01*
X164465000Y-85205874D01*
X164540001Y-85386943D01*
X164540000Y-88721822D01*
X164229375Y-88929375D01*
X164030000Y-89227761D01*
X163830625Y-88929375D01*
X163339418Y-88601161D01*
X162906256Y-88515000D01*
X162613744Y-88515000D01*
X162180582Y-88601161D01*
X161689375Y-88929375D01*
X161476157Y-89248478D01*
X161415183Y-89118642D01*
X160986924Y-88728355D01*
X160576890Y-88558524D01*
X160347000Y-88679845D01*
X160347000Y-89873000D01*
X160367000Y-89873000D01*
X160367000Y-90127000D01*
X160347000Y-90127000D01*
X160347000Y-90147000D01*
X160093000Y-90147000D01*
X160093000Y-90127000D01*
X158899181Y-90127000D01*
X158892374Y-90139969D01*
X158544118Y-90139969D01*
X158163712Y-90297538D01*
X157872561Y-90588689D01*
X157714992Y-90969095D01*
X157714992Y-91380843D01*
X157872561Y-91761249D01*
X158163712Y-92052400D01*
X158544118Y-92209969D01*
X158707522Y-92209969D01*
X158827297Y-92290000D01*
X79534801Y-92290000D01*
X80234473Y-91590329D01*
X80297929Y-91547929D01*
X80394196Y-91403856D01*
X80419418Y-91398839D01*
X80910625Y-91070625D01*
X81110000Y-90772239D01*
X81309375Y-91070625D01*
X81800582Y-91398839D01*
X82233744Y-91485000D01*
X82526256Y-91485000D01*
X82959418Y-91398839D01*
X83450625Y-91070625D01*
X83650000Y-90772239D01*
X83849375Y-91070625D01*
X84340582Y-91398839D01*
X84773744Y-91485000D01*
X85066256Y-91485000D01*
X85499418Y-91398839D01*
X85990625Y-91070625D01*
X86190000Y-90772239D01*
X86389375Y-91070625D01*
X86880582Y-91398839D01*
X87313744Y-91485000D01*
X87606256Y-91485000D01*
X88039418Y-91398839D01*
X88530625Y-91070625D01*
X88542816Y-91052381D01*
X88551843Y-91097765D01*
X88692191Y-91307809D01*
X88902235Y-91448157D01*
X89150000Y-91497440D01*
X90850000Y-91497440D01*
X91097765Y-91448157D01*
X91307809Y-91307809D01*
X91448157Y-91097765D01*
X91497440Y-90850000D01*
X91497440Y-90356892D01*
X114778514Y-90356892D01*
X115024817Y-90881358D01*
X115453076Y-91271645D01*
X115863110Y-91441476D01*
X116093000Y-91320155D01*
X116093000Y-90127000D01*
X114899181Y-90127000D01*
X114778514Y-90356892D01*
X91497440Y-90356892D01*
X91497440Y-89643108D01*
X114778514Y-89643108D01*
X114899181Y-89873000D01*
X116093000Y-89873000D01*
X116093000Y-88679845D01*
X116347000Y-88679845D01*
X116347000Y-89873000D01*
X116367000Y-89873000D01*
X116367000Y-90127000D01*
X116347000Y-90127000D01*
X116347000Y-91320155D01*
X116576890Y-91441476D01*
X116986924Y-91271645D01*
X117415183Y-90881358D01*
X117476157Y-90751522D01*
X117689375Y-91070625D01*
X118180582Y-91398839D01*
X118613744Y-91485000D01*
X118906256Y-91485000D01*
X119339418Y-91398839D01*
X119830625Y-91070625D01*
X120030000Y-90772239D01*
X120229375Y-91070625D01*
X120720582Y-91398839D01*
X121153744Y-91485000D01*
X121446256Y-91485000D01*
X121879418Y-91398839D01*
X122370625Y-91070625D01*
X122570000Y-90772239D01*
X122769375Y-91070625D01*
X123260582Y-91398839D01*
X123693744Y-91485000D01*
X123986256Y-91485000D01*
X124419418Y-91398839D01*
X124910625Y-91070625D01*
X125110000Y-90772239D01*
X125309375Y-91070625D01*
X125800582Y-91398839D01*
X126233744Y-91485000D01*
X126526256Y-91485000D01*
X126959418Y-91398839D01*
X127450625Y-91070625D01*
X127650000Y-90772239D01*
X127849375Y-91070625D01*
X128340582Y-91398839D01*
X128773744Y-91485000D01*
X129066256Y-91485000D01*
X129499418Y-91398839D01*
X129990625Y-91070625D01*
X130190000Y-90772239D01*
X130389375Y-91070625D01*
X130880582Y-91398839D01*
X131313744Y-91485000D01*
X131606256Y-91485000D01*
X132039418Y-91398839D01*
X132530625Y-91070625D01*
X132542816Y-91052381D01*
X132551843Y-91097765D01*
X132692191Y-91307809D01*
X132902235Y-91448157D01*
X133150000Y-91497440D01*
X134850000Y-91497440D01*
X135097765Y-91448157D01*
X135307809Y-91307809D01*
X135448157Y-91097765D01*
X135497440Y-90850000D01*
X135497440Y-89643108D01*
X158778514Y-89643108D01*
X158899181Y-89873000D01*
X160093000Y-89873000D01*
X160093000Y-88679845D01*
X159863110Y-88558524D01*
X159453076Y-88728355D01*
X159024817Y-89118642D01*
X158778514Y-89643108D01*
X135497440Y-89643108D01*
X135497440Y-89150000D01*
X135448157Y-88902235D01*
X135307809Y-88692191D01*
X135097765Y-88551843D01*
X134850000Y-88502560D01*
X133150000Y-88502560D01*
X132902235Y-88551843D01*
X132692191Y-88692191D01*
X132551843Y-88902235D01*
X132542816Y-88947619D01*
X132530625Y-88929375D01*
X132039418Y-88601161D01*
X131606256Y-88515000D01*
X131313744Y-88515000D01*
X130880582Y-88601161D01*
X130389375Y-88929375D01*
X130190000Y-89227761D01*
X129990625Y-88929375D01*
X129499418Y-88601161D01*
X129066256Y-88515000D01*
X128773744Y-88515000D01*
X128340582Y-88601161D01*
X127849375Y-88929375D01*
X127650000Y-89227761D01*
X127450625Y-88929375D01*
X126959418Y-88601161D01*
X126526256Y-88515000D01*
X126233744Y-88515000D01*
X125800582Y-88601161D01*
X125309375Y-88929375D01*
X125110000Y-89227761D01*
X124910625Y-88929375D01*
X124419418Y-88601161D01*
X123986256Y-88515000D01*
X123693744Y-88515000D01*
X123260582Y-88601161D01*
X122769375Y-88929375D01*
X122570000Y-89227761D01*
X122370625Y-88929375D01*
X121879418Y-88601161D01*
X121446256Y-88515000D01*
X121153744Y-88515000D01*
X120720582Y-88601161D01*
X120229375Y-88929375D01*
X120030000Y-89227761D01*
X119830625Y-88929375D01*
X119339418Y-88601161D01*
X118906256Y-88515000D01*
X118613744Y-88515000D01*
X118180582Y-88601161D01*
X117689375Y-88929375D01*
X117476157Y-89248478D01*
X117415183Y-89118642D01*
X116986924Y-88728355D01*
X116576890Y-88558524D01*
X116347000Y-88679845D01*
X116093000Y-88679845D01*
X115863110Y-88558524D01*
X115453076Y-88728355D01*
X115024817Y-89118642D01*
X114778514Y-89643108D01*
X91497440Y-89643108D01*
X91497440Y-89150000D01*
X91448157Y-88902235D01*
X91307809Y-88692191D01*
X91097765Y-88551843D01*
X90850000Y-88502560D01*
X89150000Y-88502560D01*
X88902235Y-88551843D01*
X88692191Y-88692191D01*
X88551843Y-88902235D01*
X88542816Y-88947619D01*
X88530625Y-88929375D01*
X88039418Y-88601161D01*
X87606256Y-88515000D01*
X87313744Y-88515000D01*
X86880582Y-88601161D01*
X86389375Y-88929375D01*
X86190000Y-89227761D01*
X85990625Y-88929375D01*
X85499418Y-88601161D01*
X85066256Y-88515000D01*
X84773744Y-88515000D01*
X84340582Y-88601161D01*
X83849375Y-88929375D01*
X83650000Y-89227761D01*
X83450625Y-88929375D01*
X82959418Y-88601161D01*
X82526256Y-88515000D01*
X82233744Y-88515000D01*
X81800582Y-88601161D01*
X81309375Y-88929375D01*
X81110000Y-89227761D01*
X80910625Y-88929375D01*
X80419418Y-88601161D01*
X79986256Y-88515000D01*
X79693744Y-88515000D01*
X79260582Y-88601161D01*
X78769375Y-88929375D01*
X78570000Y-89227761D01*
X78370625Y-88929375D01*
X77879418Y-88601161D01*
X77446256Y-88515000D01*
X77153744Y-88515000D01*
X76720582Y-88601161D01*
X76229375Y-88929375D01*
X76030000Y-89227761D01*
X75830625Y-88929375D01*
X75339418Y-88601161D01*
X74906256Y-88515000D01*
X74613744Y-88515000D01*
X74180582Y-88601161D01*
X73689375Y-88929375D01*
X73476157Y-89248478D01*
X73415183Y-89118642D01*
X72986924Y-88728355D01*
X72576890Y-88558524D01*
X72347000Y-88679845D01*
X72347000Y-89873000D01*
X72367000Y-89873000D01*
X72367000Y-90127000D01*
X72347000Y-90127000D01*
X72347000Y-90147000D01*
X72093000Y-90147000D01*
X72093000Y-90127000D01*
X72073000Y-90127000D01*
X72073000Y-89873000D01*
X72093000Y-89873000D01*
X72093000Y-88679845D01*
X71863110Y-88558524D01*
X71453076Y-88728355D01*
X71024817Y-89118642D01*
X70778514Y-89643108D01*
X70899180Y-89872998D01*
X70735000Y-89872998D01*
X70735000Y-89977064D01*
X70705874Y-89965000D01*
X70294126Y-89965000D01*
X69913720Y-90122569D01*
X69622569Y-90413720D01*
X69465000Y-90794126D01*
X69465000Y-91205874D01*
X69622569Y-91586280D01*
X69913720Y-91877431D01*
X70294126Y-92035000D01*
X70460199Y-92035000D01*
X70715198Y-92290000D01*
X27210000Y-92290000D01*
X27210000Y-91050122D01*
X27453076Y-91271645D01*
X27863110Y-91441476D01*
X28093000Y-91320155D01*
X28093000Y-90127000D01*
X28073000Y-90127000D01*
X28073000Y-89873000D01*
X28093000Y-89873000D01*
X28093000Y-88679845D01*
X28347000Y-88679845D01*
X28347000Y-89873000D01*
X28367000Y-89873000D01*
X28367000Y-90127000D01*
X28347000Y-90127000D01*
X28347000Y-91320155D01*
X28576890Y-91441476D01*
X28986924Y-91271645D01*
X29415183Y-90881358D01*
X29476157Y-90751522D01*
X29689375Y-91070625D01*
X30180582Y-91398839D01*
X30613744Y-91485000D01*
X30906256Y-91485000D01*
X31339418Y-91398839D01*
X31830625Y-91070625D01*
X32030000Y-90772239D01*
X32229375Y-91070625D01*
X32720582Y-91398839D01*
X33153744Y-91485000D01*
X33446256Y-91485000D01*
X33879418Y-91398839D01*
X34370625Y-91070625D01*
X34570000Y-90772239D01*
X34769375Y-91070625D01*
X35260582Y-91398839D01*
X35693744Y-91485000D01*
X35986256Y-91485000D01*
X36419418Y-91398839D01*
X36910625Y-91070625D01*
X37110000Y-90772239D01*
X37309375Y-91070625D01*
X37800582Y-91398839D01*
X38233744Y-91485000D01*
X38526256Y-91485000D01*
X38959418Y-91398839D01*
X39450625Y-91070625D01*
X39650000Y-90772239D01*
X39849375Y-91070625D01*
X40340582Y-91398839D01*
X40773744Y-91485000D01*
X41066256Y-91485000D01*
X41499418Y-91398839D01*
X41990625Y-91070625D01*
X42190000Y-90772239D01*
X42389375Y-91070625D01*
X42880582Y-91398839D01*
X43313744Y-91485000D01*
X43606256Y-91485000D01*
X44039418Y-91398839D01*
X44530625Y-91070625D01*
X44542816Y-91052381D01*
X44551843Y-91097765D01*
X44692191Y-91307809D01*
X44902235Y-91448157D01*
X45150000Y-91497440D01*
X46850000Y-91497440D01*
X47097765Y-91448157D01*
X47307809Y-91307809D01*
X47448157Y-91097765D01*
X47497440Y-90850000D01*
X47497440Y-89150000D01*
X47448157Y-88902235D01*
X47307809Y-88692191D01*
X47097765Y-88551843D01*
X46850000Y-88502560D01*
X45150000Y-88502560D01*
X44902235Y-88551843D01*
X44692191Y-88692191D01*
X44551843Y-88902235D01*
X44542816Y-88947619D01*
X44530625Y-88929375D01*
X44039418Y-88601161D01*
X43606256Y-88515000D01*
X43313744Y-88515000D01*
X42880582Y-88601161D01*
X42389375Y-88929375D01*
X42190000Y-89227761D01*
X41990625Y-88929375D01*
X41499418Y-88601161D01*
X41066256Y-88515000D01*
X40773744Y-88515000D01*
X40340582Y-88601161D01*
X39849375Y-88929375D01*
X39650000Y-89227761D01*
X39450625Y-88929375D01*
X38959418Y-88601161D01*
X38526256Y-88515000D01*
X38233744Y-88515000D01*
X37800582Y-88601161D01*
X37309375Y-88929375D01*
X37110000Y-89227761D01*
X36910625Y-88929375D01*
X36419418Y-88601161D01*
X35986256Y-88515000D01*
X35693744Y-88515000D01*
X35260582Y-88601161D01*
X34769375Y-88929375D01*
X34570000Y-89227761D01*
X34370625Y-88929375D01*
X33879418Y-88601161D01*
X33446256Y-88515000D01*
X33153744Y-88515000D01*
X32720582Y-88601161D01*
X32229375Y-88929375D01*
X32030000Y-89227761D01*
X31830625Y-88929375D01*
X31339418Y-88601161D01*
X30906256Y-88515000D01*
X30613744Y-88515000D01*
X30180582Y-88601161D01*
X29689375Y-88929375D01*
X29476157Y-89248478D01*
X29415183Y-89118642D01*
X28986924Y-88728355D01*
X28576890Y-88558524D01*
X28347000Y-88679845D01*
X28093000Y-88679845D01*
X27863110Y-88558524D01*
X27453076Y-88728355D01*
X27210000Y-88949878D01*
X27210000Y-83794126D01*
X119715000Y-83794126D01*
X119715000Y-84205874D01*
X119872569Y-84586280D01*
X120163720Y-84877431D01*
X120465000Y-85002225D01*
X120465000Y-85205874D01*
X120622569Y-85586280D01*
X120913720Y-85877431D01*
X121294126Y-86035000D01*
X121705874Y-86035000D01*
X122086280Y-85877431D01*
X122203711Y-85760000D01*
X132796299Y-85760000D01*
X132913730Y-85877431D01*
X133294136Y-86035000D01*
X133705884Y-86035000D01*
X134086290Y-85877431D01*
X134377441Y-85586280D01*
X134535010Y-85205874D01*
X134535010Y-84794126D01*
X134377441Y-84413720D01*
X134086290Y-84122569D01*
X133785000Y-83997771D01*
X133785000Y-83794126D01*
X133627431Y-83413720D01*
X133336280Y-83122569D01*
X132955874Y-82965000D01*
X132544126Y-82965000D01*
X132163720Y-83122569D01*
X132046289Y-83240000D01*
X121453711Y-83240000D01*
X121336280Y-83122569D01*
X120955874Y-82965000D01*
X120544126Y-82965000D01*
X120163720Y-83122569D01*
X119872569Y-83413720D01*
X119715000Y-83794126D01*
X27210000Y-83794126D01*
X27210000Y-75636000D01*
X73996887Y-75636000D01*
X74108260Y-76195909D01*
X74425423Y-76670577D01*
X74900091Y-76987740D01*
X75318667Y-77071000D01*
X75601333Y-77071000D01*
X76019909Y-76987740D01*
X76494577Y-76670577D01*
X76730000Y-76318242D01*
X76965423Y-76670577D01*
X77440091Y-76987740D01*
X77858667Y-77071000D01*
X78141333Y-77071000D01*
X78559909Y-76987740D01*
X79034577Y-76670577D01*
X79270000Y-76318242D01*
X79505423Y-76670577D01*
X79980091Y-76987740D01*
X80398667Y-77071000D01*
X80681333Y-77071000D01*
X81099909Y-76987740D01*
X81574577Y-76670577D01*
X81810000Y-76318242D01*
X82045423Y-76670577D01*
X82520091Y-76987740D01*
X82938667Y-77071000D01*
X83221333Y-77071000D01*
X83639909Y-76987740D01*
X84114577Y-76670577D01*
X84350000Y-76318242D01*
X84585423Y-76670577D01*
X85060091Y-76987740D01*
X85478667Y-77071000D01*
X85761333Y-77071000D01*
X86179909Y-76987740D01*
X86654577Y-76670577D01*
X86890000Y-76318242D01*
X87125423Y-76670577D01*
X87600091Y-76987740D01*
X88018667Y-77071000D01*
X88301333Y-77071000D01*
X88719909Y-76987740D01*
X89194577Y-76670577D01*
X89430000Y-76318242D01*
X89665423Y-76670577D01*
X90140091Y-76987740D01*
X90558667Y-77071000D01*
X90841333Y-77071000D01*
X91259909Y-76987740D01*
X91734577Y-76670577D01*
X91970000Y-76318242D01*
X92205423Y-76670577D01*
X92680091Y-76987740D01*
X93098667Y-77071000D01*
X93381333Y-77071000D01*
X93799909Y-76987740D01*
X94274577Y-76670577D01*
X94510000Y-76318242D01*
X94745423Y-76670577D01*
X95220091Y-76987740D01*
X95638667Y-77071000D01*
X95921333Y-77071000D01*
X96339909Y-76987740D01*
X96814577Y-76670577D01*
X97050000Y-76318242D01*
X97285423Y-76670577D01*
X97760091Y-76987740D01*
X98178667Y-77071000D01*
X98461333Y-77071000D01*
X98879909Y-76987740D01*
X99354577Y-76670577D01*
X99590000Y-76318242D01*
X99825423Y-76670577D01*
X100300091Y-76987740D01*
X100718667Y-77071000D01*
X101001333Y-77071000D01*
X101419909Y-76987740D01*
X101894577Y-76670577D01*
X102130000Y-76318242D01*
X102365423Y-76670577D01*
X102840091Y-76987740D01*
X103258667Y-77071000D01*
X103541333Y-77071000D01*
X103959909Y-76987740D01*
X104434577Y-76670577D01*
X104670000Y-76318242D01*
X104905423Y-76670577D01*
X105380091Y-76987740D01*
X105798667Y-77071000D01*
X106081333Y-77071000D01*
X106499909Y-76987740D01*
X106974577Y-76670577D01*
X107210000Y-76318242D01*
X107445423Y-76670577D01*
X107920091Y-76987740D01*
X108338667Y-77071000D01*
X108621333Y-77071000D01*
X109039909Y-76987740D01*
X109514577Y-76670577D01*
X109750000Y-76318242D01*
X109985423Y-76670577D01*
X110460091Y-76987740D01*
X110878667Y-77071000D01*
X111161333Y-77071000D01*
X111579909Y-76987740D01*
X112054577Y-76670577D01*
X112290000Y-76318242D01*
X112525423Y-76670577D01*
X113000091Y-76987740D01*
X113418667Y-77071000D01*
X113701333Y-77071000D01*
X114119909Y-76987740D01*
X114594577Y-76670577D01*
X114830000Y-76318242D01*
X115065423Y-76670577D01*
X115540091Y-76987740D01*
X115958667Y-77071000D01*
X116241333Y-77071000D01*
X116659909Y-76987740D01*
X117134577Y-76670577D01*
X117370000Y-76318242D01*
X117605423Y-76670577D01*
X118080091Y-76987740D01*
X118498667Y-77071000D01*
X118781333Y-77071000D01*
X119199909Y-76987740D01*
X119674577Y-76670577D01*
X119910000Y-76318242D01*
X120145423Y-76670577D01*
X120620091Y-76987740D01*
X121038667Y-77071000D01*
X121321333Y-77071000D01*
X121739909Y-76987740D01*
X122214577Y-76670577D01*
X122450000Y-76318242D01*
X122685423Y-76670577D01*
X123160091Y-76987740D01*
X123578667Y-77071000D01*
X123861333Y-77071000D01*
X124279909Y-76987740D01*
X124754577Y-76670577D01*
X124990000Y-76318242D01*
X125225423Y-76670577D01*
X125700091Y-76987740D01*
X126118667Y-77071000D01*
X126401333Y-77071000D01*
X126819909Y-76987740D01*
X127294577Y-76670577D01*
X127530000Y-76318242D01*
X127765423Y-76670577D01*
X128240091Y-76987740D01*
X128658667Y-77071000D01*
X128941333Y-77071000D01*
X129359909Y-76987740D01*
X129834577Y-76670577D01*
X130070000Y-76318242D01*
X130305423Y-76670577D01*
X130780091Y-76987740D01*
X131198667Y-77071000D01*
X131481333Y-77071000D01*
X131899909Y-76987740D01*
X132374577Y-76670577D01*
X132630947Y-76286892D01*
X132727611Y-76491134D01*
X133142577Y-76867041D01*
X133530961Y-77027904D01*
X133753000Y-76905915D01*
X133753000Y-75763000D01*
X134007000Y-75763000D01*
X134007000Y-76905915D01*
X134229039Y-77027904D01*
X134617423Y-76867041D01*
X135032389Y-76491134D01*
X135271914Y-75985041D01*
X135150629Y-75763000D01*
X134007000Y-75763000D01*
X133753000Y-75763000D01*
X133733000Y-75763000D01*
X133733000Y-75509000D01*
X133753000Y-75509000D01*
X133753000Y-74366085D01*
X134007000Y-74366085D01*
X134007000Y-75509000D01*
X135150629Y-75509000D01*
X135271914Y-75286959D01*
X135032389Y-74780866D01*
X134617423Y-74404959D01*
X134229039Y-74244096D01*
X134007000Y-74366085D01*
X133753000Y-74366085D01*
X133530961Y-74244096D01*
X133142577Y-74404959D01*
X132727611Y-74780866D01*
X132630947Y-74985108D01*
X132374577Y-74601423D01*
X131899909Y-74284260D01*
X131481333Y-74201000D01*
X131198667Y-74201000D01*
X130780091Y-74284260D01*
X130305423Y-74601423D01*
X130070000Y-74953758D01*
X129834577Y-74601423D01*
X129359909Y-74284260D01*
X128941333Y-74201000D01*
X128658667Y-74201000D01*
X128240091Y-74284260D01*
X127765423Y-74601423D01*
X127530000Y-74953758D01*
X127294577Y-74601423D01*
X126819909Y-74284260D01*
X126401333Y-74201000D01*
X126118667Y-74201000D01*
X125700091Y-74284260D01*
X125225423Y-74601423D01*
X124990000Y-74953758D01*
X124754577Y-74601423D01*
X124279909Y-74284260D01*
X123861333Y-74201000D01*
X123578667Y-74201000D01*
X123160091Y-74284260D01*
X122685423Y-74601423D01*
X122450000Y-74953758D01*
X122214577Y-74601423D01*
X121739909Y-74284260D01*
X121321333Y-74201000D01*
X121038667Y-74201000D01*
X120620091Y-74284260D01*
X120145423Y-74601423D01*
X119910000Y-74953758D01*
X119674577Y-74601423D01*
X119199909Y-74284260D01*
X118781333Y-74201000D01*
X118498667Y-74201000D01*
X118080091Y-74284260D01*
X117605423Y-74601423D01*
X117370000Y-74953758D01*
X117134577Y-74601423D01*
X116659909Y-74284260D01*
X116241333Y-74201000D01*
X115958667Y-74201000D01*
X115540091Y-74284260D01*
X115065423Y-74601423D01*
X114830000Y-74953758D01*
X114594577Y-74601423D01*
X114119909Y-74284260D01*
X113701333Y-74201000D01*
X113418667Y-74201000D01*
X113000091Y-74284260D01*
X112525423Y-74601423D01*
X112290000Y-74953758D01*
X112054577Y-74601423D01*
X111579909Y-74284260D01*
X111161333Y-74201000D01*
X110878667Y-74201000D01*
X110460091Y-74284260D01*
X109985423Y-74601423D01*
X109750000Y-74953758D01*
X109514577Y-74601423D01*
X109039909Y-74284260D01*
X108621333Y-74201000D01*
X108338667Y-74201000D01*
X107920091Y-74284260D01*
X107445423Y-74601423D01*
X107210000Y-74953758D01*
X106974577Y-74601423D01*
X106499909Y-74284260D01*
X106081333Y-74201000D01*
X105798667Y-74201000D01*
X105380091Y-74284260D01*
X104905423Y-74601423D01*
X104670000Y-74953758D01*
X104434577Y-74601423D01*
X103959909Y-74284260D01*
X103541333Y-74201000D01*
X103258667Y-74201000D01*
X102840091Y-74284260D01*
X102365423Y-74601423D01*
X102130000Y-74953758D01*
X101894577Y-74601423D01*
X101419909Y-74284260D01*
X101001333Y-74201000D01*
X100718667Y-74201000D01*
X100300091Y-74284260D01*
X99825423Y-74601423D01*
X99590000Y-74953758D01*
X99354577Y-74601423D01*
X98879909Y-74284260D01*
X98461333Y-74201000D01*
X98178667Y-74201000D01*
X97760091Y-74284260D01*
X97285423Y-74601423D01*
X97050000Y-74953758D01*
X96814577Y-74601423D01*
X96339909Y-74284260D01*
X95921333Y-74201000D01*
X95638667Y-74201000D01*
X95220091Y-74284260D01*
X94745423Y-74601423D01*
X94510000Y-74953758D01*
X94274577Y-74601423D01*
X93799909Y-74284260D01*
X93381333Y-74201000D01*
X93098667Y-74201000D01*
X92680091Y-74284260D01*
X92205423Y-74601423D01*
X91970000Y-74953758D01*
X91734577Y-74601423D01*
X91259909Y-74284260D01*
X90841333Y-74201000D01*
X90558667Y-74201000D01*
X90140091Y-74284260D01*
X89665423Y-74601423D01*
X89430000Y-74953758D01*
X89194577Y-74601423D01*
X88719909Y-74284260D01*
X88301333Y-74201000D01*
X88018667Y-74201000D01*
X87600091Y-74284260D01*
X87125423Y-74601423D01*
X86890000Y-74953758D01*
X86654577Y-74601423D01*
X86179909Y-74284260D01*
X85761333Y-74201000D01*
X85478667Y-74201000D01*
X85060091Y-74284260D01*
X84585423Y-74601423D01*
X84350000Y-74953758D01*
X84114577Y-74601423D01*
X83639909Y-74284260D01*
X83221333Y-74201000D01*
X82938667Y-74201000D01*
X82520091Y-74284260D01*
X82045423Y-74601423D01*
X81810000Y-74953758D01*
X81574577Y-74601423D01*
X81099909Y-74284260D01*
X80681333Y-74201000D01*
X80398667Y-74201000D01*
X79980091Y-74284260D01*
X79505423Y-74601423D01*
X79270000Y-74953758D01*
X79034577Y-74601423D01*
X78559909Y-74284260D01*
X78141333Y-74201000D01*
X77858667Y-74201000D01*
X77440091Y-74284260D01*
X76965423Y-74601423D01*
X76730000Y-74953758D01*
X76494577Y-74601423D01*
X76019909Y-74284260D01*
X75601333Y-74201000D01*
X75318667Y-74201000D01*
X74900091Y-74284260D01*
X74425423Y-74601423D01*
X74108260Y-75076091D01*
X73996887Y-75636000D01*
X27210000Y-75636000D01*
X27210000Y-71780400D01*
X29222960Y-71780400D01*
X29222960Y-73507600D01*
X29272243Y-73755365D01*
X29412591Y-73965409D01*
X29622635Y-74105757D01*
X29870400Y-74155040D01*
X31597600Y-74155040D01*
X31845365Y-74105757D01*
X32055409Y-73965409D01*
X32195757Y-73755365D01*
X32200932Y-73729349D01*
X32689275Y-74055650D01*
X33126402Y-74142600D01*
X33421598Y-74142600D01*
X33858725Y-74055650D01*
X34354430Y-73724430D01*
X34685650Y-73228725D01*
X34801959Y-72644000D01*
X34685650Y-72059275D01*
X34354430Y-71563570D01*
X34052979Y-71362146D01*
X34162490Y-71310821D01*
X34556688Y-70878947D01*
X34728958Y-70463026D01*
X34607817Y-70231000D01*
X33401000Y-70231000D01*
X33401000Y-70251000D01*
X33147000Y-70251000D01*
X33147000Y-70231000D01*
X30861000Y-70231000D01*
X30861000Y-70251000D01*
X30607000Y-70251000D01*
X30607000Y-70231000D01*
X29400183Y-70231000D01*
X29279042Y-70463026D01*
X29451312Y-70878947D01*
X29711936Y-71164480D01*
X29622635Y-71182243D01*
X29412591Y-71322591D01*
X29272243Y-71532635D01*
X29222960Y-71780400D01*
X27210000Y-71780400D01*
X27210000Y-67923026D01*
X29279042Y-67923026D01*
X29451312Y-68338947D01*
X29845510Y-68770821D01*
X29980313Y-68834000D01*
X29845510Y-68897179D01*
X29451312Y-69329053D01*
X29279042Y-69744974D01*
X29400183Y-69977000D01*
X30607000Y-69977000D01*
X30607000Y-67691000D01*
X30861000Y-67691000D01*
X30861000Y-69977000D01*
X33147000Y-69977000D01*
X33147000Y-67691000D01*
X33401000Y-67691000D01*
X33401000Y-69977000D01*
X34607817Y-69977000D01*
X34728958Y-69744974D01*
X34556688Y-69329053D01*
X34162490Y-68897179D01*
X34027687Y-68834000D01*
X34162490Y-68770821D01*
X34556688Y-68338947D01*
X34728958Y-67923026D01*
X34607817Y-67691000D01*
X33401000Y-67691000D01*
X33147000Y-67691000D01*
X30861000Y-67691000D01*
X30607000Y-67691000D01*
X29400183Y-67691000D01*
X29279042Y-67923026D01*
X27210000Y-67923026D01*
X27210000Y-65383026D01*
X29279042Y-65383026D01*
X29451312Y-65798947D01*
X29845510Y-66230821D01*
X29980313Y-66294000D01*
X29845510Y-66357179D01*
X29451312Y-66789053D01*
X29279042Y-67204974D01*
X29400183Y-67437000D01*
X30607000Y-67437000D01*
X30607000Y-65151000D01*
X30861000Y-65151000D01*
X30861000Y-67437000D01*
X33147000Y-67437000D01*
X33147000Y-65151000D01*
X33401000Y-65151000D01*
X33401000Y-67437000D01*
X34607817Y-67437000D01*
X34682407Y-67294134D01*
X164355542Y-67294134D01*
X164355542Y-67705882D01*
X164513111Y-68086288D01*
X164804262Y-68377439D01*
X165184668Y-68535008D01*
X165596416Y-68535008D01*
X165976822Y-68377439D01*
X166267973Y-68086288D01*
X166411279Y-67740317D01*
X166546289Y-67740317D01*
X166663720Y-67857748D01*
X167044126Y-68015317D01*
X167455874Y-68015317D01*
X167836280Y-67857748D01*
X168127431Y-67566597D01*
X168285000Y-67186191D01*
X168285000Y-66774443D01*
X168185820Y-66535000D01*
X168205874Y-66535000D01*
X168586280Y-66377431D01*
X168877431Y-66086280D01*
X169035000Y-65705874D01*
X169035000Y-65294126D01*
X168877431Y-64913720D01*
X168586280Y-64622569D01*
X168205874Y-64465000D01*
X167794126Y-64465000D01*
X167413720Y-64622569D01*
X167296289Y-64740000D01*
X166849837Y-64740000D01*
X166774989Y-64725112D01*
X166700141Y-64740000D01*
X166700137Y-64740000D01*
X166478452Y-64784096D01*
X166227060Y-64952071D01*
X166201724Y-64989989D01*
X166044126Y-64989989D01*
X165663720Y-65147558D01*
X165372569Y-65438709D01*
X165215000Y-65819115D01*
X165215000Y-66230863D01*
X165311986Y-66465008D01*
X165184668Y-66465008D01*
X164804262Y-66622577D01*
X164513111Y-66913728D01*
X164355542Y-67294134D01*
X34682407Y-67294134D01*
X34728958Y-67204974D01*
X34556688Y-66789053D01*
X34162490Y-66357179D01*
X34027687Y-66294000D01*
X34162490Y-66230821D01*
X34556688Y-65798947D01*
X34728958Y-65383026D01*
X34607817Y-65151000D01*
X33401000Y-65151000D01*
X33147000Y-65151000D01*
X30861000Y-65151000D01*
X30607000Y-65151000D01*
X29400183Y-65151000D01*
X29279042Y-65383026D01*
X27210000Y-65383026D01*
X27210000Y-62484000D01*
X29206041Y-62484000D01*
X29322350Y-63068725D01*
X29653570Y-63564430D01*
X29955021Y-63765854D01*
X29845510Y-63817179D01*
X29451312Y-64249053D01*
X29279042Y-64664974D01*
X29400183Y-64897000D01*
X30607000Y-64897000D01*
X30607000Y-64877000D01*
X30861000Y-64877000D01*
X30861000Y-64897000D01*
X33147000Y-64897000D01*
X33147000Y-64877000D01*
X33401000Y-64877000D01*
X33401000Y-64897000D01*
X34607817Y-64897000D01*
X34728958Y-64664974D01*
X34556688Y-64249053D01*
X34162490Y-63817179D01*
X34052979Y-63765854D01*
X34354430Y-63564430D01*
X34685650Y-63068725D01*
X34801959Y-62484000D01*
X34685650Y-61899275D01*
X34354430Y-61403570D01*
X33858725Y-61072350D01*
X33421598Y-60985400D01*
X33126402Y-60985400D01*
X32689275Y-61072350D01*
X32193570Y-61403570D01*
X32004000Y-61687281D01*
X31814430Y-61403570D01*
X31318725Y-61072350D01*
X30881598Y-60985400D01*
X30586402Y-60985400D01*
X30149275Y-61072350D01*
X29653570Y-61403570D01*
X29322350Y-61899275D01*
X29206041Y-62484000D01*
X27210000Y-62484000D01*
X27210000Y-47111133D01*
X27640582Y-47398839D01*
X28073744Y-47485000D01*
X28366256Y-47485000D01*
X28799418Y-47398839D01*
X29290625Y-47070625D01*
X29490000Y-46772239D01*
X29689375Y-47070625D01*
X30180582Y-47398839D01*
X30613744Y-47485000D01*
X30906256Y-47485000D01*
X31339418Y-47398839D01*
X31830625Y-47070625D01*
X32030000Y-46772239D01*
X32229375Y-47070625D01*
X32720582Y-47398839D01*
X33153744Y-47485000D01*
X33446256Y-47485000D01*
X33879418Y-47398839D01*
X34370625Y-47070625D01*
X34570000Y-46772239D01*
X34769375Y-47070625D01*
X35260582Y-47398839D01*
X35693744Y-47485000D01*
X35986256Y-47485000D01*
X36419418Y-47398839D01*
X36910625Y-47070625D01*
X37110000Y-46772239D01*
X37309375Y-47070625D01*
G04 #@! TD*
M02*
