G04 #@! TF.GenerationSoftware,KiCad,Pcbnew,5.0.2+dfsg1-1*
G04 #@! TF.CreationDate,2020-04-26T20:47:29+02:00*
G04 #@! TF.ProjectId,midirouter,6d696469-726f-4757-9465-722e6b696361,rev?*
G04 #@! TF.SameCoordinates,Original*
G04 #@! TF.FileFunction,Legend,Bot*
G04 #@! TF.FilePolarity,Positive*
%FSLAX46Y46*%
G04 Gerber Fmt 4.6, Leading zero omitted, Abs format (unit mm)*
G04 Created by KiCad (PCBNEW 5.0.2+dfsg1-1) date Sun 26 Apr 2020 08:47:29 PM CEST*
%MOMM*%
%LPD*%
G01*
G04 APERTURE LIST*
%ADD10C,0.300000*%
%ADD11C,0.150000*%
%ADD12C,0.120000*%
%ADD13C,0.152400*%
G04 APERTURE END LIST*
D10*
X172250000Y-73535714D02*
X172178571Y-73607142D01*
X172250000Y-73678571D01*
X172321428Y-73607142D01*
X172250000Y-73535714D01*
X172250000Y-73678571D01*
X163500000Y-58785714D02*
X163428571Y-58857142D01*
X163500000Y-58928571D01*
X163571428Y-58857142D01*
X163500000Y-58785714D01*
X163500000Y-58928571D01*
D11*
X109321428Y-81802380D02*
X109321428Y-80802380D01*
X108988095Y-81516666D01*
X108654761Y-80802380D01*
X108654761Y-81802380D01*
X108178571Y-81802380D02*
X108178571Y-80802380D01*
X107702380Y-81802380D02*
X107702380Y-80802380D01*
X107464285Y-80802380D01*
X107321428Y-80850000D01*
X107226190Y-80945238D01*
X107178571Y-81040476D01*
X107130952Y-81230952D01*
X107130952Y-81373809D01*
X107178571Y-81564285D01*
X107226190Y-81659523D01*
X107321428Y-81754761D01*
X107464285Y-81802380D01*
X107702380Y-81802380D01*
X106702380Y-81802380D02*
X106702380Y-80802380D01*
X104892857Y-81802380D02*
X105226190Y-81326190D01*
X105464285Y-81802380D02*
X105464285Y-80802380D01*
X105083333Y-80802380D01*
X104988095Y-80850000D01*
X104940476Y-80897619D01*
X104892857Y-80992857D01*
X104892857Y-81135714D01*
X104940476Y-81230952D01*
X104988095Y-81278571D01*
X105083333Y-81326190D01*
X105464285Y-81326190D01*
X104273809Y-80802380D02*
X104083333Y-80802380D01*
X103988095Y-80850000D01*
X103892857Y-80945238D01*
X103845238Y-81135714D01*
X103845238Y-81469047D01*
X103892857Y-81659523D01*
X103988095Y-81754761D01*
X104083333Y-81802380D01*
X104273809Y-81802380D01*
X104369047Y-81754761D01*
X104464285Y-81659523D01*
X104511904Y-81469047D01*
X104511904Y-81135714D01*
X104464285Y-80945238D01*
X104369047Y-80850000D01*
X104273809Y-80802380D01*
X103416666Y-80802380D02*
X103416666Y-81611904D01*
X103369047Y-81707142D01*
X103321428Y-81754761D01*
X103226190Y-81802380D01*
X103035714Y-81802380D01*
X102940476Y-81754761D01*
X102892857Y-81707142D01*
X102845238Y-81611904D01*
X102845238Y-80802380D01*
X102511904Y-80802380D02*
X101940476Y-80802380D01*
X102226190Y-81802380D02*
X102226190Y-80802380D01*
X101607142Y-81278571D02*
X101273809Y-81278571D01*
X101130952Y-81802380D02*
X101607142Y-81802380D01*
X101607142Y-80802380D01*
X101130952Y-80802380D01*
X100130952Y-81802380D02*
X100464285Y-81326190D01*
X100702380Y-81802380D02*
X100702380Y-80802380D01*
X100321428Y-80802380D01*
X100226190Y-80850000D01*
X100178571Y-80897619D01*
X100130952Y-80992857D01*
X100130952Y-81135714D01*
X100178571Y-81230952D01*
X100226190Y-81278571D01*
X100321428Y-81326190D01*
X100702380Y-81326190D01*
X110416666Y-82928571D02*
X110273809Y-82976190D01*
X110226190Y-83023809D01*
X110178571Y-83119047D01*
X110178571Y-83261904D01*
X110226190Y-83357142D01*
X110273809Y-83404761D01*
X110369047Y-83452380D01*
X110750000Y-83452380D01*
X110750000Y-82452380D01*
X110416666Y-82452380D01*
X110321428Y-82500000D01*
X110273809Y-82547619D01*
X110226190Y-82642857D01*
X110226190Y-82738095D01*
X110273809Y-82833333D01*
X110321428Y-82880952D01*
X110416666Y-82928571D01*
X110750000Y-82928571D01*
X109797619Y-83166666D02*
X109321428Y-83166666D01*
X109892857Y-83452380D02*
X109559523Y-82452380D01*
X109226190Y-83452380D01*
X108321428Y-83357142D02*
X108369047Y-83404761D01*
X108511904Y-83452380D01*
X108607142Y-83452380D01*
X108750000Y-83404761D01*
X108845238Y-83309523D01*
X108892857Y-83214285D01*
X108940476Y-83023809D01*
X108940476Y-82880952D01*
X108892857Y-82690476D01*
X108845238Y-82595238D01*
X108750000Y-82500000D01*
X108607142Y-82452380D01*
X108511904Y-82452380D01*
X108369047Y-82500000D01*
X108321428Y-82547619D01*
X107892857Y-83452380D02*
X107892857Y-82452380D01*
X107321428Y-83452380D02*
X107750000Y-82880952D01*
X107321428Y-82452380D02*
X107892857Y-83023809D01*
X106892857Y-83452380D02*
X106892857Y-82452380D01*
X106511904Y-82452380D01*
X106416666Y-82500000D01*
X106369047Y-82547619D01*
X106321428Y-82642857D01*
X106321428Y-82785714D01*
X106369047Y-82880952D01*
X106416666Y-82928571D01*
X106511904Y-82976190D01*
X106892857Y-82976190D01*
X105416666Y-83452380D02*
X105892857Y-83452380D01*
X105892857Y-82452380D01*
X105130952Y-83166666D02*
X104654761Y-83166666D01*
X105226190Y-83452380D02*
X104892857Y-82452380D01*
X104559523Y-83452380D01*
X104226190Y-83452380D02*
X104226190Y-82452380D01*
X103654761Y-83452380D01*
X103654761Y-82452380D01*
X103178571Y-82928571D02*
X102845238Y-82928571D01*
X102702380Y-83452380D02*
X103178571Y-83452380D01*
X103178571Y-82452380D01*
X102702380Y-82452380D01*
X101654761Y-82452380D02*
X101321428Y-83452380D01*
X100988095Y-82452380D01*
X100130952Y-83452380D02*
X100702380Y-83452380D01*
X100416666Y-83452380D02*
X100416666Y-82452380D01*
X100511904Y-82595238D01*
X100607142Y-82690476D01*
X100702380Y-82738095D01*
X99702380Y-83357142D02*
X99654761Y-83404761D01*
X99702380Y-83452380D01*
X99750000Y-83404761D01*
X99702380Y-83357142D01*
X99702380Y-83452380D01*
X99035714Y-82452380D02*
X98940476Y-82452380D01*
X98845238Y-82500000D01*
X98797619Y-82547619D01*
X98750000Y-82642857D01*
X98702380Y-82833333D01*
X98702380Y-83071428D01*
X98750000Y-83261904D01*
X98797619Y-83357142D01*
X98845238Y-83404761D01*
X98940476Y-83452380D01*
X99035714Y-83452380D01*
X99130952Y-83404761D01*
X99178571Y-83357142D01*
X99226190Y-83261904D01*
X99273809Y-83071428D01*
X99273809Y-82833333D01*
X99226190Y-82642857D01*
X99178571Y-82547619D01*
X99130952Y-82500000D01*
X99035714Y-82452380D01*
X116107142Y-84435714D02*
X116107142Y-85245238D01*
X116154761Y-85340476D01*
X116202380Y-85388095D01*
X116297619Y-85435714D01*
X116440476Y-85435714D01*
X116535714Y-85388095D01*
X116107142Y-85054761D02*
X116202380Y-85102380D01*
X116392857Y-85102380D01*
X116488095Y-85054761D01*
X116535714Y-85007142D01*
X116583333Y-84911904D01*
X116583333Y-84626190D01*
X116535714Y-84530952D01*
X116488095Y-84483333D01*
X116392857Y-84435714D01*
X116202380Y-84435714D01*
X116107142Y-84483333D01*
X115630952Y-85102380D02*
X115630952Y-84435714D01*
X115630952Y-84102380D02*
X115678571Y-84150000D01*
X115630952Y-84197619D01*
X115583333Y-84150000D01*
X115630952Y-84102380D01*
X115630952Y-84197619D01*
X115297619Y-84435714D02*
X114916666Y-84435714D01*
X115154761Y-84102380D02*
X115154761Y-84959523D01*
X115107142Y-85054761D01*
X115011904Y-85102380D01*
X114916666Y-85102380D01*
X114583333Y-85102380D02*
X114583333Y-84102380D01*
X114154761Y-85102380D02*
X114154761Y-84578571D01*
X114202380Y-84483333D01*
X114297619Y-84435714D01*
X114440476Y-84435714D01*
X114535714Y-84483333D01*
X114583333Y-84530952D01*
X113250000Y-84435714D02*
X113250000Y-85102380D01*
X113678571Y-84435714D02*
X113678571Y-84959523D01*
X113630952Y-85054761D01*
X113535714Y-85102380D01*
X113392857Y-85102380D01*
X113297619Y-85054761D01*
X113250000Y-85007142D01*
X112773809Y-85102380D02*
X112773809Y-84102380D01*
X112773809Y-84483333D02*
X112678571Y-84435714D01*
X112488095Y-84435714D01*
X112392857Y-84483333D01*
X112345238Y-84530952D01*
X112297619Y-84626190D01*
X112297619Y-84911904D01*
X112345238Y-85007142D01*
X112392857Y-85054761D01*
X112488095Y-85102380D01*
X112678571Y-85102380D01*
X112773809Y-85054761D01*
X111869047Y-85007142D02*
X111821428Y-85054761D01*
X111869047Y-85102380D01*
X111916666Y-85054761D01*
X111869047Y-85007142D01*
X111869047Y-85102380D01*
X110964285Y-85054761D02*
X111059523Y-85102380D01*
X111250000Y-85102380D01*
X111345238Y-85054761D01*
X111392857Y-85007142D01*
X111440476Y-84911904D01*
X111440476Y-84626190D01*
X111392857Y-84530952D01*
X111345238Y-84483333D01*
X111250000Y-84435714D01*
X111059523Y-84435714D01*
X110964285Y-84483333D01*
X110392857Y-85102380D02*
X110488095Y-85054761D01*
X110535714Y-85007142D01*
X110583333Y-84911904D01*
X110583333Y-84626190D01*
X110535714Y-84530952D01*
X110488095Y-84483333D01*
X110392857Y-84435714D01*
X110250000Y-84435714D01*
X110154761Y-84483333D01*
X110107142Y-84530952D01*
X110059523Y-84626190D01*
X110059523Y-84911904D01*
X110107142Y-85007142D01*
X110154761Y-85054761D01*
X110250000Y-85102380D01*
X110392857Y-85102380D01*
X109630952Y-85102380D02*
X109630952Y-84435714D01*
X109630952Y-84530952D02*
X109583333Y-84483333D01*
X109488095Y-84435714D01*
X109345238Y-84435714D01*
X109250000Y-84483333D01*
X109202380Y-84578571D01*
X109202380Y-85102380D01*
X109202380Y-84578571D02*
X109154761Y-84483333D01*
X109059523Y-84435714D01*
X108916666Y-84435714D01*
X108821428Y-84483333D01*
X108773809Y-84578571D01*
X108773809Y-85102380D01*
X107583333Y-84054761D02*
X108440476Y-85340476D01*
X107392857Y-84435714D02*
X107011904Y-84435714D01*
X107250000Y-84102380D02*
X107250000Y-84959523D01*
X107202380Y-85054761D01*
X107107142Y-85102380D01*
X107011904Y-85102380D01*
X106535714Y-85102380D02*
X106630952Y-85054761D01*
X106678571Y-85007142D01*
X106726190Y-84911904D01*
X106726190Y-84626190D01*
X106678571Y-84530952D01*
X106630952Y-84483333D01*
X106535714Y-84435714D01*
X106392857Y-84435714D01*
X106297619Y-84483333D01*
X106250000Y-84530952D01*
X106202380Y-84626190D01*
X106202380Y-84911904D01*
X106250000Y-85007142D01*
X106297619Y-85054761D01*
X106392857Y-85102380D01*
X106535714Y-85102380D01*
X105773809Y-85102380D02*
X105773809Y-84435714D01*
X105773809Y-84530952D02*
X105726190Y-84483333D01*
X105630952Y-84435714D01*
X105488095Y-84435714D01*
X105392857Y-84483333D01*
X105345238Y-84578571D01*
X105345238Y-85102380D01*
X105345238Y-84578571D02*
X105297619Y-84483333D01*
X105202380Y-84435714D01*
X105059523Y-84435714D01*
X104964285Y-84483333D01*
X104916666Y-84578571D01*
X104916666Y-85102380D01*
X104011904Y-85102380D02*
X104011904Y-84578571D01*
X104059523Y-84483333D01*
X104154761Y-84435714D01*
X104345238Y-84435714D01*
X104440476Y-84483333D01*
X104011904Y-85054761D02*
X104107142Y-85102380D01*
X104345238Y-85102380D01*
X104440476Y-85054761D01*
X104488095Y-84959523D01*
X104488095Y-84864285D01*
X104440476Y-84769047D01*
X104345238Y-84721428D01*
X104107142Y-84721428D01*
X104011904Y-84673809D01*
X103535714Y-85102380D02*
X103535714Y-84435714D01*
X103535714Y-84626190D02*
X103488095Y-84530952D01*
X103440476Y-84483333D01*
X103345238Y-84435714D01*
X103250000Y-84435714D01*
X102488095Y-84435714D02*
X102488095Y-85102380D01*
X102916666Y-84435714D02*
X102916666Y-84959523D01*
X102869047Y-85054761D01*
X102773809Y-85102380D01*
X102630952Y-85102380D01*
X102535714Y-85054761D01*
X102488095Y-85007142D01*
X102059523Y-85054761D02*
X101964285Y-85102380D01*
X101773809Y-85102380D01*
X101678571Y-85054761D01*
X101630952Y-84959523D01*
X101630952Y-84911904D01*
X101678571Y-84816666D01*
X101773809Y-84769047D01*
X101916666Y-84769047D01*
X102011904Y-84721428D01*
X102059523Y-84626190D01*
X102059523Y-84578571D01*
X102011904Y-84483333D01*
X101916666Y-84435714D01*
X101773809Y-84435714D01*
X101678571Y-84483333D01*
X100488095Y-84054761D02*
X101345238Y-85340476D01*
X100154761Y-85102380D02*
X100154761Y-84435714D01*
X100154761Y-84530952D02*
X100107142Y-84483333D01*
X100011904Y-84435714D01*
X99869047Y-84435714D01*
X99773809Y-84483333D01*
X99726190Y-84578571D01*
X99726190Y-85102380D01*
X99726190Y-84578571D02*
X99678571Y-84483333D01*
X99583333Y-84435714D01*
X99440476Y-84435714D01*
X99345238Y-84483333D01*
X99297619Y-84578571D01*
X99297619Y-85102380D01*
X98821428Y-85102380D02*
X98821428Y-84435714D01*
X98821428Y-84102380D02*
X98869047Y-84150000D01*
X98821428Y-84197619D01*
X98773809Y-84150000D01*
X98821428Y-84102380D01*
X98821428Y-84197619D01*
X97916666Y-85102380D02*
X97916666Y-84102380D01*
X97916666Y-85054761D02*
X98011904Y-85102380D01*
X98202380Y-85102380D01*
X98297619Y-85054761D01*
X98345238Y-85007142D01*
X98392857Y-84911904D01*
X98392857Y-84626190D01*
X98345238Y-84530952D01*
X98297619Y-84483333D01*
X98202380Y-84435714D01*
X98011904Y-84435714D01*
X97916666Y-84483333D01*
X97440476Y-85102380D02*
X97440476Y-84435714D01*
X97440476Y-84102380D02*
X97488095Y-84150000D01*
X97440476Y-84197619D01*
X97392857Y-84150000D01*
X97440476Y-84102380D01*
X97440476Y-84197619D01*
X96964285Y-85102380D02*
X96964285Y-84435714D01*
X96964285Y-84626190D02*
X96916666Y-84530952D01*
X96869047Y-84483333D01*
X96773809Y-84435714D01*
X96678571Y-84435714D01*
X96202380Y-85102380D02*
X96297619Y-85054761D01*
X96345238Y-85007142D01*
X96392857Y-84911904D01*
X96392857Y-84626190D01*
X96345238Y-84530952D01*
X96297619Y-84483333D01*
X96202380Y-84435714D01*
X96059523Y-84435714D01*
X95964285Y-84483333D01*
X95916666Y-84530952D01*
X95869047Y-84626190D01*
X95869047Y-84911904D01*
X95916666Y-85007142D01*
X95964285Y-85054761D01*
X96059523Y-85102380D01*
X96202380Y-85102380D01*
X95011904Y-84435714D02*
X95011904Y-85102380D01*
X95440476Y-84435714D02*
X95440476Y-84959523D01*
X95392857Y-85054761D01*
X95297619Y-85102380D01*
X95154761Y-85102380D01*
X95059523Y-85054761D01*
X95011904Y-85007142D01*
X94678571Y-84435714D02*
X94297619Y-84435714D01*
X94535714Y-84102380D02*
X94535714Y-84959523D01*
X94488095Y-85054761D01*
X94392857Y-85102380D01*
X94297619Y-85102380D01*
X93583333Y-85054761D02*
X93678571Y-85102380D01*
X93869047Y-85102380D01*
X93964285Y-85054761D01*
X94011904Y-84959523D01*
X94011904Y-84578571D01*
X93964285Y-84483333D01*
X93869047Y-84435714D01*
X93678571Y-84435714D01*
X93583333Y-84483333D01*
X93535714Y-84578571D01*
X93535714Y-84673809D01*
X94011904Y-84769047D01*
X93107142Y-85102380D02*
X93107142Y-84435714D01*
X93107142Y-84626190D02*
X93059523Y-84530952D01*
X93011904Y-84483333D01*
X92916666Y-84435714D01*
X92821428Y-84435714D01*
X170714285Y-51952380D02*
X171047619Y-51476190D01*
X171285714Y-51952380D02*
X171285714Y-50952380D01*
X170904761Y-50952380D01*
X170809523Y-51000000D01*
X170761904Y-51047619D01*
X170714285Y-51142857D01*
X170714285Y-51285714D01*
X170761904Y-51380952D01*
X170809523Y-51428571D01*
X170904761Y-51476190D01*
X171285714Y-51476190D01*
X169761904Y-51952380D02*
X170333333Y-51952380D01*
X170047619Y-51952380D02*
X170047619Y-50952380D01*
X170142857Y-51095238D01*
X170238095Y-51190476D01*
X170333333Y-51238095D01*
X169428571Y-50952380D02*
X168761904Y-50952380D01*
X169190476Y-51952380D01*
X168380952Y-51571428D02*
X167619047Y-51571428D01*
X166571428Y-51952380D02*
X166904761Y-51476190D01*
X167142857Y-51952380D02*
X167142857Y-50952380D01*
X166761904Y-50952380D01*
X166666666Y-51000000D01*
X166619047Y-51047619D01*
X166571428Y-51142857D01*
X166571428Y-51285714D01*
X166619047Y-51380952D01*
X166666666Y-51428571D01*
X166761904Y-51476190D01*
X167142857Y-51476190D01*
X166190476Y-51047619D02*
X166142857Y-51000000D01*
X166047619Y-50952380D01*
X165809523Y-50952380D01*
X165714285Y-51000000D01*
X165666666Y-51047619D01*
X165619047Y-51142857D01*
X165619047Y-51238095D01*
X165666666Y-51380952D01*
X166238095Y-51952380D01*
X165619047Y-51952380D01*
X164761904Y-51285714D02*
X164761904Y-51952380D01*
X165000000Y-50904761D02*
X165238095Y-51619047D01*
X164619047Y-51619047D01*
D12*
G04 #@! TO.C,J1*
X36679000Y-77994000D02*
X36679000Y-57134000D01*
X36679000Y-57134000D02*
X27329000Y-57134000D01*
X27329000Y-57134000D02*
X27329000Y-77994000D01*
X27329000Y-77994000D02*
X36679000Y-77994000D01*
X27079000Y-78244000D02*
X27079000Y-75704000D01*
X27079000Y-78244000D02*
X29619000Y-78244000D01*
D11*
G04 #@! TO.C,U7*
X73174000Y-60396000D02*
X68348000Y-60396000D01*
X68348000Y-60396000D02*
X68348000Y-75636000D01*
X68348000Y-75636000D02*
X73174000Y-75636000D01*
X73174000Y-75636000D02*
X73174000Y-60396000D01*
X135404000Y-65730000D02*
X128800000Y-65730000D01*
X128800000Y-65730000D02*
X128800000Y-70810000D01*
X128800000Y-70810000D02*
X135404000Y-70810000D01*
X135404000Y-70810000D02*
X135404000Y-65730000D01*
X73428000Y-60396000D02*
X135150000Y-60396000D01*
X135150000Y-60396000D02*
X135150000Y-75636000D01*
X135150000Y-75636000D02*
X73428000Y-75636000D01*
X73428000Y-75636000D02*
X73428000Y-60396000D01*
D12*
G04 #@! TO.C,U5*
X173340000Y-58280000D02*
X173340000Y-63080000D01*
X162540000Y-58280000D02*
X162540000Y-63080000D01*
X162940000Y-58280000D02*
X162940000Y-56880000D01*
X162540000Y-58280000D02*
X162940000Y-58280000D01*
G04 #@! TO.C,U6*
X173210000Y-74265000D02*
X172810000Y-74265000D01*
X172810000Y-74265000D02*
X172810000Y-75665000D01*
X173210000Y-74265000D02*
X173210000Y-69465000D01*
X162410000Y-74265000D02*
X162410000Y-69465000D01*
D13*
G04 #@! TO.C,Q1*
X176660400Y-80827600D02*
X175339600Y-80827600D01*
X175339600Y-80827600D02*
X175339600Y-83672400D01*
X175339600Y-83672400D02*
X176660400Y-83672400D01*
X176660400Y-83672400D02*
X176660400Y-80827600D01*
G04 #@! TO.C,Q2*
X171660400Y-83672400D02*
X171660400Y-80827600D01*
X170339600Y-83672400D02*
X171660400Y-83672400D01*
X170339600Y-80827600D02*
X170339600Y-83672400D01*
X171660400Y-80827600D02*
X170339600Y-80827600D01*
G04 #@! TO.C,Q3*
X166660400Y-80827600D02*
X165339600Y-80827600D01*
X165339600Y-80827600D02*
X165339600Y-83672400D01*
X165339600Y-83672400D02*
X166660400Y-83672400D01*
X166660400Y-83672400D02*
X166660400Y-80827600D01*
G04 #@! TO.C,Q4*
X161660400Y-80827600D02*
X160339600Y-80827600D01*
X160339600Y-80827600D02*
X160339600Y-83672400D01*
X160339600Y-83672400D02*
X161660400Y-83672400D01*
X161660400Y-83672400D02*
X161660400Y-80827600D01*
D12*
G04 #@! TO.C,R25*
X161738748Y-79710000D02*
X162261252Y-79710000D01*
X161738748Y-78290000D02*
X162261252Y-78290000D01*
G04 #@! TO.C,R26*
X165738748Y-79710000D02*
X166261252Y-79710000D01*
X165738748Y-78290000D02*
X166261252Y-78290000D01*
G04 #@! TO.C,R27*
X169738748Y-78290000D02*
X170261252Y-78290000D01*
X169738748Y-79710000D02*
X170261252Y-79710000D01*
G04 #@! TO.C,R28*
X173738748Y-79710000D02*
X174261252Y-79710000D01*
X173738748Y-78290000D02*
X174261252Y-78290000D01*
G04 #@! TO.C,R17*
X160290000Y-53738748D02*
X160290000Y-54261252D01*
X161710000Y-53738748D02*
X161710000Y-54261252D01*
G04 #@! TO.C,R18*
X163710000Y-53738748D02*
X163710000Y-54261252D01*
X162290000Y-53738748D02*
X162290000Y-54261252D01*
G04 #@! TO.C,R19*
X164290000Y-53738748D02*
X164290000Y-54261252D01*
X165710000Y-53738748D02*
X165710000Y-54261252D01*
G04 #@! TO.C,R20*
X167710000Y-53738748D02*
X167710000Y-54261252D01*
X166290000Y-53738748D02*
X166290000Y-54261252D01*
G04 #@! TO.C,R21*
X168290000Y-53738748D02*
X168290000Y-54261252D01*
X169710000Y-53738748D02*
X169710000Y-54261252D01*
G04 #@! TO.C,R22*
X171710000Y-53738748D02*
X171710000Y-54261252D01*
X170290000Y-53738748D02*
X170290000Y-54261252D01*
G04 #@! TO.C,R23*
X172290000Y-53738748D02*
X172290000Y-54261252D01*
X173710000Y-53738748D02*
X173710000Y-54261252D01*
G04 #@! TO.C,R24*
X175710000Y-53738748D02*
X175710000Y-54261252D01*
X174290000Y-53738748D02*
X174290000Y-54261252D01*
G04 #@! TO.C,U1*
X54160000Y-60340000D02*
X54160000Y-61600000D01*
X54160000Y-67160000D02*
X54160000Y-65900000D01*
X50400000Y-60340000D02*
X54160000Y-60340000D01*
X48150000Y-67160000D02*
X54160000Y-67160000D01*
G04 #@! TO.C,U2*
X48150000Y-79160000D02*
X54160000Y-79160000D01*
X50400000Y-72340000D02*
X54160000Y-72340000D01*
X54160000Y-79160000D02*
X54160000Y-77900000D01*
X54160000Y-72340000D02*
X54160000Y-73600000D01*
G04 #@! TO.C,D1*
X54150000Y-68100000D02*
X54150000Y-71400000D01*
X54150000Y-71400000D02*
X48750000Y-71400000D01*
X54150000Y-68100000D02*
X48750000Y-68100000D01*
G04 #@! TO.C,D2*
X54150000Y-56350000D02*
X48750000Y-56350000D01*
X54150000Y-59650000D02*
X48750000Y-59650000D01*
X54150000Y-56350000D02*
X54150000Y-59650000D01*
G04 #@! TO.C,C3*
X161960000Y-63258578D02*
X161960000Y-62741422D01*
X160540000Y-63258578D02*
X160540000Y-62741422D01*
G04 #@! TO.C,C4*
X175210000Y-69241422D02*
X175210000Y-69758578D01*
X173790000Y-69241422D02*
X173790000Y-69758578D01*
G04 #@! TO.C,C1*
X45793750Y-68758750D02*
X45793750Y-69546250D01*
X46187500Y-69152500D02*
X45400000Y-69152500D01*
X45160000Y-73345563D02*
X44095563Y-74410000D01*
X45160000Y-68654437D02*
X44095563Y-67590000D01*
X45160000Y-68654437D02*
X45160000Y-69940000D01*
X45160000Y-73345563D02*
X45160000Y-72060000D01*
X44095563Y-74410000D02*
X38340000Y-74410000D01*
X44095563Y-67590000D02*
X38340000Y-67590000D01*
X38340000Y-67590000D02*
X38340000Y-69940000D01*
X38340000Y-74410000D02*
X38340000Y-72060000D01*
G04 #@! TO.C,C2*
X45312500Y-76002500D02*
X45312500Y-76627500D01*
X45625000Y-76315000D02*
X45000000Y-76315000D01*
X44760000Y-79695563D02*
X43695563Y-80760000D01*
X44760000Y-76304437D02*
X43695563Y-75240000D01*
X44760000Y-76304437D02*
X44760000Y-76940000D01*
X44760000Y-79695563D02*
X44760000Y-79060000D01*
X43695563Y-80760000D02*
X39240000Y-80760000D01*
X43695563Y-75240000D02*
X39240000Y-75240000D01*
X39240000Y-75240000D02*
X39240000Y-76940000D01*
X39240000Y-80760000D02*
X39240000Y-79060000D01*
G04 #@! TO.C,C17*
X38340000Y-60410000D02*
X38340000Y-58060000D01*
X38340000Y-53590000D02*
X38340000Y-55940000D01*
X44095563Y-53590000D02*
X38340000Y-53590000D01*
X44095563Y-60410000D02*
X38340000Y-60410000D01*
X45160000Y-59345563D02*
X45160000Y-58060000D01*
X45160000Y-54654437D02*
X45160000Y-55940000D01*
X45160000Y-54654437D02*
X44095563Y-53590000D01*
X45160000Y-59345563D02*
X44095563Y-60410000D01*
X46187500Y-55152500D02*
X45400000Y-55152500D01*
X45793750Y-54758750D02*
X45793750Y-55546250D01*
G04 #@! TO.C,C18*
X39240000Y-66760000D02*
X39240000Y-65060000D01*
X39240000Y-61240000D02*
X39240000Y-62940000D01*
X43695563Y-61240000D02*
X39240000Y-61240000D01*
X43695563Y-66760000D02*
X39240000Y-66760000D01*
X44760000Y-65695563D02*
X44760000Y-65060000D01*
X44760000Y-62304437D02*
X44760000Y-62940000D01*
X44760000Y-62304437D02*
X43695563Y-61240000D01*
X44760000Y-65695563D02*
X43695563Y-66760000D01*
X45625000Y-62315000D02*
X45000000Y-62315000D01*
X45312500Y-62002500D02*
X45312500Y-62627500D01*
G04 #@! TO.C,J1*
D11*
X35893333Y-57618380D02*
X35893333Y-58332666D01*
X35940952Y-58475523D01*
X36036190Y-58570761D01*
X36179047Y-58618380D01*
X36274285Y-58618380D01*
X34893333Y-58618380D02*
X35464761Y-58618380D01*
X35179047Y-58618380D02*
X35179047Y-57618380D01*
X35274285Y-57761238D01*
X35369523Y-57856476D01*
X35464761Y-57904095D01*
G04 #@! TO.C,U7*
X74658380Y-67508095D02*
X75467904Y-67508095D01*
X75563142Y-67555714D01*
X75610761Y-67603333D01*
X75658380Y-67698571D01*
X75658380Y-67889047D01*
X75610761Y-67984285D01*
X75563142Y-68031904D01*
X75467904Y-68079523D01*
X74658380Y-68079523D01*
X74658380Y-68460476D02*
X74658380Y-69127142D01*
X75658380Y-68698571D01*
G04 #@! TO.C,U5*
X173702380Y-60238095D02*
X174511904Y-60238095D01*
X174607142Y-60285714D01*
X174654761Y-60333333D01*
X174702380Y-60428571D01*
X174702380Y-60619047D01*
X174654761Y-60714285D01*
X174607142Y-60761904D01*
X174511904Y-60809523D01*
X173702380Y-60809523D01*
X173702380Y-61761904D02*
X173702380Y-61285714D01*
X174178571Y-61238095D01*
X174130952Y-61285714D01*
X174083333Y-61380952D01*
X174083333Y-61619047D01*
X174130952Y-61714285D01*
X174178571Y-61761904D01*
X174273809Y-61809523D01*
X174511904Y-61809523D01*
X174607142Y-61761904D01*
X174654761Y-61714285D01*
X174702380Y-61619047D01*
X174702380Y-61380952D01*
X174654761Y-61285714D01*
X174607142Y-61238095D01*
G04 #@! TO.C,U6*
X160952380Y-71238095D02*
X161761904Y-71238095D01*
X161857142Y-71285714D01*
X161904761Y-71333333D01*
X161952380Y-71428571D01*
X161952380Y-71619047D01*
X161904761Y-71714285D01*
X161857142Y-71761904D01*
X161761904Y-71809523D01*
X160952380Y-71809523D01*
X160952380Y-72714285D02*
X160952380Y-72523809D01*
X161000000Y-72428571D01*
X161047619Y-72380952D01*
X161190476Y-72285714D01*
X161380952Y-72238095D01*
X161761904Y-72238095D01*
X161857142Y-72285714D01*
X161904761Y-72333333D01*
X161952380Y-72428571D01*
X161952380Y-72619047D01*
X161904761Y-72714285D01*
X161857142Y-72761904D01*
X161761904Y-72809523D01*
X161523809Y-72809523D01*
X161428571Y-72761904D01*
X161380952Y-72714285D01*
X161333333Y-72619047D01*
X161333333Y-72428571D01*
X161380952Y-72333333D01*
X161428571Y-72285714D01*
X161523809Y-72238095D01*
G04 #@! TO.C,Q1*
X175095301Y-85547985D02*
X175190603Y-85500335D01*
X175285905Y-85405033D01*
X175428858Y-85262080D01*
X175524160Y-85214429D01*
X175619462Y-85214429D01*
X175571811Y-85452684D02*
X175667113Y-85405033D01*
X175762415Y-85309731D01*
X175810066Y-85119127D01*
X175810066Y-84785570D01*
X175762415Y-84594966D01*
X175667113Y-84499665D01*
X175571811Y-84452014D01*
X175381207Y-84452014D01*
X175285905Y-84499665D01*
X175190603Y-84594966D01*
X175142952Y-84785570D01*
X175142952Y-85119127D01*
X175190603Y-85309731D01*
X175285905Y-85405033D01*
X175381207Y-85452684D01*
X175571811Y-85452684D01*
X174189933Y-85452684D02*
X174761745Y-85452684D01*
X174475839Y-85452684D02*
X174475839Y-84452014D01*
X174571141Y-84594966D01*
X174666443Y-84690268D01*
X174761745Y-84737919D01*
G04 #@! TO.C,Q2*
X170345301Y-85547985D02*
X170440603Y-85500335D01*
X170535905Y-85405033D01*
X170678858Y-85262080D01*
X170774160Y-85214429D01*
X170869462Y-85214429D01*
X170821811Y-85452684D02*
X170917113Y-85405033D01*
X171012415Y-85309731D01*
X171060066Y-85119127D01*
X171060066Y-84785570D01*
X171012415Y-84594966D01*
X170917113Y-84499665D01*
X170821811Y-84452014D01*
X170631207Y-84452014D01*
X170535905Y-84499665D01*
X170440603Y-84594966D01*
X170392952Y-84785570D01*
X170392952Y-85119127D01*
X170440603Y-85309731D01*
X170535905Y-85405033D01*
X170631207Y-85452684D01*
X170821811Y-85452684D01*
X170011745Y-84547315D02*
X169964094Y-84499665D01*
X169868792Y-84452014D01*
X169630537Y-84452014D01*
X169535235Y-84499665D01*
X169487584Y-84547315D01*
X169439933Y-84642617D01*
X169439933Y-84737919D01*
X169487584Y-84880872D01*
X170059396Y-85452684D01*
X169439933Y-85452684D01*
G04 #@! TO.C,Q3*
X165345301Y-85547985D02*
X165440603Y-85500335D01*
X165535905Y-85405033D01*
X165678858Y-85262080D01*
X165774160Y-85214429D01*
X165869462Y-85214429D01*
X165821811Y-85452684D02*
X165917113Y-85405033D01*
X166012415Y-85309731D01*
X166060066Y-85119127D01*
X166060066Y-84785570D01*
X166012415Y-84594966D01*
X165917113Y-84499665D01*
X165821811Y-84452014D01*
X165631207Y-84452014D01*
X165535905Y-84499665D01*
X165440603Y-84594966D01*
X165392952Y-84785570D01*
X165392952Y-85119127D01*
X165440603Y-85309731D01*
X165535905Y-85405033D01*
X165631207Y-85452684D01*
X165821811Y-85452684D01*
X165059396Y-84452014D02*
X164439933Y-84452014D01*
X164773490Y-84833221D01*
X164630537Y-84833221D01*
X164535235Y-84880872D01*
X164487584Y-84928523D01*
X164439933Y-85023825D01*
X164439933Y-85262080D01*
X164487584Y-85357382D01*
X164535235Y-85405033D01*
X164630537Y-85452684D01*
X164916443Y-85452684D01*
X165011745Y-85405033D01*
X165059396Y-85357382D01*
G04 #@! TO.C,Q4*
X160345301Y-85547985D02*
X160440603Y-85500335D01*
X160535905Y-85405033D01*
X160678858Y-85262080D01*
X160774160Y-85214429D01*
X160869462Y-85214429D01*
X160821811Y-85452684D02*
X160917113Y-85405033D01*
X161012415Y-85309731D01*
X161060066Y-85119127D01*
X161060066Y-84785570D01*
X161012415Y-84594966D01*
X160917113Y-84499665D01*
X160821811Y-84452014D01*
X160631207Y-84452014D01*
X160535905Y-84499665D01*
X160440603Y-84594966D01*
X160392952Y-84785570D01*
X160392952Y-85119127D01*
X160440603Y-85309731D01*
X160535905Y-85405033D01*
X160631207Y-85452684D01*
X160821811Y-85452684D01*
X159535235Y-84785570D02*
X159535235Y-85452684D01*
X159773490Y-84404363D02*
X160011745Y-85119127D01*
X159392282Y-85119127D01*
G04 #@! TO.C,R25*
X162642857Y-77952380D02*
X162976190Y-77476190D01*
X163214285Y-77952380D02*
X163214285Y-76952380D01*
X162833333Y-76952380D01*
X162738095Y-77000000D01*
X162690476Y-77047619D01*
X162642857Y-77142857D01*
X162642857Y-77285714D01*
X162690476Y-77380952D01*
X162738095Y-77428571D01*
X162833333Y-77476190D01*
X163214285Y-77476190D01*
X162261904Y-77047619D02*
X162214285Y-77000000D01*
X162119047Y-76952380D01*
X161880952Y-76952380D01*
X161785714Y-77000000D01*
X161738095Y-77047619D01*
X161690476Y-77142857D01*
X161690476Y-77238095D01*
X161738095Y-77380952D01*
X162309523Y-77952380D01*
X161690476Y-77952380D01*
X160785714Y-76952380D02*
X161261904Y-76952380D01*
X161309523Y-77428571D01*
X161261904Y-77380952D01*
X161166666Y-77333333D01*
X160928571Y-77333333D01*
X160833333Y-77380952D01*
X160785714Y-77428571D01*
X160738095Y-77523809D01*
X160738095Y-77761904D01*
X160785714Y-77857142D01*
X160833333Y-77904761D01*
X160928571Y-77952380D01*
X161166666Y-77952380D01*
X161261904Y-77904761D01*
X161309523Y-77857142D01*
G04 #@! TO.C,R26*
X166642857Y-77952380D02*
X166976190Y-77476190D01*
X167214285Y-77952380D02*
X167214285Y-76952380D01*
X166833333Y-76952380D01*
X166738095Y-77000000D01*
X166690476Y-77047619D01*
X166642857Y-77142857D01*
X166642857Y-77285714D01*
X166690476Y-77380952D01*
X166738095Y-77428571D01*
X166833333Y-77476190D01*
X167214285Y-77476190D01*
X166261904Y-77047619D02*
X166214285Y-77000000D01*
X166119047Y-76952380D01*
X165880952Y-76952380D01*
X165785714Y-77000000D01*
X165738095Y-77047619D01*
X165690476Y-77142857D01*
X165690476Y-77238095D01*
X165738095Y-77380952D01*
X166309523Y-77952380D01*
X165690476Y-77952380D01*
X164833333Y-76952380D02*
X165023809Y-76952380D01*
X165119047Y-77000000D01*
X165166666Y-77047619D01*
X165261904Y-77190476D01*
X165309523Y-77380952D01*
X165309523Y-77761904D01*
X165261904Y-77857142D01*
X165214285Y-77904761D01*
X165119047Y-77952380D01*
X164928571Y-77952380D01*
X164833333Y-77904761D01*
X164785714Y-77857142D01*
X164738095Y-77761904D01*
X164738095Y-77523809D01*
X164785714Y-77428571D01*
X164833333Y-77380952D01*
X164928571Y-77333333D01*
X165119047Y-77333333D01*
X165214285Y-77380952D01*
X165261904Y-77428571D01*
X165309523Y-77523809D01*
G04 #@! TO.C,R27*
X170642857Y-77952380D02*
X170976190Y-77476190D01*
X171214285Y-77952380D02*
X171214285Y-76952380D01*
X170833333Y-76952380D01*
X170738095Y-77000000D01*
X170690476Y-77047619D01*
X170642857Y-77142857D01*
X170642857Y-77285714D01*
X170690476Y-77380952D01*
X170738095Y-77428571D01*
X170833333Y-77476190D01*
X171214285Y-77476190D01*
X170261904Y-77047619D02*
X170214285Y-77000000D01*
X170119047Y-76952380D01*
X169880952Y-76952380D01*
X169785714Y-77000000D01*
X169738095Y-77047619D01*
X169690476Y-77142857D01*
X169690476Y-77238095D01*
X169738095Y-77380952D01*
X170309523Y-77952380D01*
X169690476Y-77952380D01*
X169357142Y-76952380D02*
X168690476Y-76952380D01*
X169119047Y-77952380D01*
G04 #@! TO.C,R28*
X174642857Y-77952380D02*
X174976190Y-77476190D01*
X175214285Y-77952380D02*
X175214285Y-76952380D01*
X174833333Y-76952380D01*
X174738095Y-77000000D01*
X174690476Y-77047619D01*
X174642857Y-77142857D01*
X174642857Y-77285714D01*
X174690476Y-77380952D01*
X174738095Y-77428571D01*
X174833333Y-77476190D01*
X175214285Y-77476190D01*
X174261904Y-77047619D02*
X174214285Y-77000000D01*
X174119047Y-76952380D01*
X173880952Y-76952380D01*
X173785714Y-77000000D01*
X173738095Y-77047619D01*
X173690476Y-77142857D01*
X173690476Y-77238095D01*
X173738095Y-77380952D01*
X174309523Y-77952380D01*
X173690476Y-77952380D01*
X173119047Y-77380952D02*
X173214285Y-77333333D01*
X173261904Y-77285714D01*
X173309523Y-77190476D01*
X173309523Y-77142857D01*
X173261904Y-77047619D01*
X173214285Y-77000000D01*
X173119047Y-76952380D01*
X172928571Y-76952380D01*
X172833333Y-77000000D01*
X172785714Y-77047619D01*
X172738095Y-77142857D01*
X172738095Y-77190476D01*
X172785714Y-77285714D01*
X172833333Y-77333333D01*
X172928571Y-77380952D01*
X173119047Y-77380952D01*
X173214285Y-77428571D01*
X173261904Y-77476190D01*
X173309523Y-77571428D01*
X173309523Y-77761904D01*
X173261904Y-77857142D01*
X173214285Y-77904761D01*
X173119047Y-77952380D01*
X172928571Y-77952380D01*
X172833333Y-77904761D01*
X172785714Y-77857142D01*
X172738095Y-77761904D01*
X172738095Y-77571428D01*
X172785714Y-77476190D01*
X172833333Y-77428571D01*
X172928571Y-77380952D01*
G04 #@! TO.C,U1*
X58511904Y-63202380D02*
X58511904Y-64011904D01*
X58464285Y-64107142D01*
X58416666Y-64154761D01*
X58321428Y-64202380D01*
X58130952Y-64202380D01*
X58035714Y-64154761D01*
X57988095Y-64107142D01*
X57940476Y-64011904D01*
X57940476Y-63202380D01*
X56940476Y-64202380D02*
X57511904Y-64202380D01*
X57226190Y-64202380D02*
X57226190Y-63202380D01*
X57321428Y-63345238D01*
X57416666Y-63440476D01*
X57511904Y-63488095D01*
G04 #@! TO.C,U2*
X58511904Y-75202380D02*
X58511904Y-76011904D01*
X58464285Y-76107142D01*
X58416666Y-76154761D01*
X58321428Y-76202380D01*
X58130952Y-76202380D01*
X58035714Y-76154761D01*
X57988095Y-76107142D01*
X57940476Y-76011904D01*
X57940476Y-75202380D01*
X57511904Y-75297619D02*
X57464285Y-75250000D01*
X57369047Y-75202380D01*
X57130952Y-75202380D01*
X57035714Y-75250000D01*
X56988095Y-75297619D01*
X56940476Y-75392857D01*
X56940476Y-75488095D01*
X56988095Y-75630952D01*
X57559523Y-76202380D01*
X56940476Y-76202380D01*
G04 #@! TO.C,D1*
X55988095Y-70202380D02*
X55988095Y-69202380D01*
X55750000Y-69202380D01*
X55607142Y-69250000D01*
X55511904Y-69345238D01*
X55464285Y-69440476D01*
X55416666Y-69630952D01*
X55416666Y-69773809D01*
X55464285Y-69964285D01*
X55511904Y-70059523D01*
X55607142Y-70154761D01*
X55750000Y-70202380D01*
X55988095Y-70202380D01*
X54464285Y-70202380D02*
X55035714Y-70202380D01*
X54750000Y-70202380D02*
X54750000Y-69202380D01*
X54845238Y-69345238D01*
X54940476Y-69440476D01*
X55035714Y-69488095D01*
G04 #@! TO.C,D2*
X56238095Y-58452380D02*
X56238095Y-57452380D01*
X56000000Y-57452380D01*
X55857142Y-57500000D01*
X55761904Y-57595238D01*
X55714285Y-57690476D01*
X55666666Y-57880952D01*
X55666666Y-58023809D01*
X55714285Y-58214285D01*
X55761904Y-58309523D01*
X55857142Y-58404761D01*
X56000000Y-58452380D01*
X56238095Y-58452380D01*
X55285714Y-57547619D02*
X55238095Y-57500000D01*
X55142857Y-57452380D01*
X54904761Y-57452380D01*
X54809523Y-57500000D01*
X54761904Y-57547619D01*
X54714285Y-57642857D01*
X54714285Y-57738095D01*
X54761904Y-57880952D01*
X55333333Y-58452380D01*
X54714285Y-58452380D01*
G04 #@! TO.C,C3*
X160107142Y-62833333D02*
X160154761Y-62785714D01*
X160202380Y-62642857D01*
X160202380Y-62547619D01*
X160154761Y-62404761D01*
X160059523Y-62309523D01*
X159964285Y-62261904D01*
X159773809Y-62214285D01*
X159630952Y-62214285D01*
X159440476Y-62261904D01*
X159345238Y-62309523D01*
X159250000Y-62404761D01*
X159202380Y-62547619D01*
X159202380Y-62642857D01*
X159250000Y-62785714D01*
X159297619Y-62833333D01*
X159202380Y-63166666D02*
X159202380Y-63785714D01*
X159583333Y-63452380D01*
X159583333Y-63595238D01*
X159630952Y-63690476D01*
X159678571Y-63738095D01*
X159773809Y-63785714D01*
X160011904Y-63785714D01*
X160107142Y-63738095D01*
X160154761Y-63690476D01*
X160202380Y-63595238D01*
X160202380Y-63309523D01*
X160154761Y-63214285D01*
X160107142Y-63166666D01*
G04 #@! TO.C,C4*
X176607142Y-69333333D02*
X176654761Y-69285714D01*
X176702380Y-69142857D01*
X176702380Y-69047619D01*
X176654761Y-68904761D01*
X176559523Y-68809523D01*
X176464285Y-68761904D01*
X176273809Y-68714285D01*
X176130952Y-68714285D01*
X175940476Y-68761904D01*
X175845238Y-68809523D01*
X175750000Y-68904761D01*
X175702380Y-69047619D01*
X175702380Y-69142857D01*
X175750000Y-69285714D01*
X175797619Y-69333333D01*
X176035714Y-70190476D02*
X176702380Y-70190476D01*
X175654761Y-69952380D02*
X176369047Y-69714285D01*
X176369047Y-70333333D01*
G04 #@! TO.C,C1*
X45916666Y-68107142D02*
X45964285Y-68154761D01*
X46107142Y-68202380D01*
X46202380Y-68202380D01*
X46345238Y-68154761D01*
X46440476Y-68059523D01*
X46488095Y-67964285D01*
X46535714Y-67773809D01*
X46535714Y-67630952D01*
X46488095Y-67440476D01*
X46440476Y-67345238D01*
X46345238Y-67250000D01*
X46202380Y-67202380D01*
X46107142Y-67202380D01*
X45964285Y-67250000D01*
X45916666Y-67297619D01*
X44964285Y-68202380D02*
X45535714Y-68202380D01*
X45250000Y-68202380D02*
X45250000Y-67202380D01*
X45345238Y-67345238D01*
X45440476Y-67440476D01*
X45535714Y-67488095D01*
G04 #@! TO.C,C2*
X45416666Y-75607142D02*
X45464285Y-75654761D01*
X45607142Y-75702380D01*
X45702380Y-75702380D01*
X45845238Y-75654761D01*
X45940476Y-75559523D01*
X45988095Y-75464285D01*
X46035714Y-75273809D01*
X46035714Y-75130952D01*
X45988095Y-74940476D01*
X45940476Y-74845238D01*
X45845238Y-74750000D01*
X45702380Y-74702380D01*
X45607142Y-74702380D01*
X45464285Y-74750000D01*
X45416666Y-74797619D01*
X45035714Y-74797619D02*
X44988095Y-74750000D01*
X44892857Y-74702380D01*
X44654761Y-74702380D01*
X44559523Y-74750000D01*
X44511904Y-74797619D01*
X44464285Y-74892857D01*
X44464285Y-74988095D01*
X44511904Y-75130952D01*
X45083333Y-75702380D01*
X44464285Y-75702380D01*
G04 #@! TO.C,C17*
X46892857Y-54357142D02*
X46940476Y-54404761D01*
X47083333Y-54452380D01*
X47178571Y-54452380D01*
X47321428Y-54404761D01*
X47416666Y-54309523D01*
X47464285Y-54214285D01*
X47511904Y-54023809D01*
X47511904Y-53880952D01*
X47464285Y-53690476D01*
X47416666Y-53595238D01*
X47321428Y-53500000D01*
X47178571Y-53452380D01*
X47083333Y-53452380D01*
X46940476Y-53500000D01*
X46892857Y-53547619D01*
X45940476Y-54452380D02*
X46511904Y-54452380D01*
X46226190Y-54452380D02*
X46226190Y-53452380D01*
X46321428Y-53595238D01*
X46416666Y-53690476D01*
X46511904Y-53738095D01*
X45607142Y-53452380D02*
X44940476Y-53452380D01*
X45369047Y-54452380D01*
G04 #@! TO.C,C18*
X46392857Y-61607142D02*
X46440476Y-61654761D01*
X46583333Y-61702380D01*
X46678571Y-61702380D01*
X46821428Y-61654761D01*
X46916666Y-61559523D01*
X46964285Y-61464285D01*
X47011904Y-61273809D01*
X47011904Y-61130952D01*
X46964285Y-60940476D01*
X46916666Y-60845238D01*
X46821428Y-60750000D01*
X46678571Y-60702380D01*
X46583333Y-60702380D01*
X46440476Y-60750000D01*
X46392857Y-60797619D01*
X45440476Y-61702380D02*
X46011904Y-61702380D01*
X45726190Y-61702380D02*
X45726190Y-60702380D01*
X45821428Y-60845238D01*
X45916666Y-60940476D01*
X46011904Y-60988095D01*
X44869047Y-61130952D02*
X44964285Y-61083333D01*
X45011904Y-61035714D01*
X45059523Y-60940476D01*
X45059523Y-60892857D01*
X45011904Y-60797619D01*
X44964285Y-60750000D01*
X44869047Y-60702380D01*
X44678571Y-60702380D01*
X44583333Y-60750000D01*
X44535714Y-60797619D01*
X44488095Y-60892857D01*
X44488095Y-60940476D01*
X44535714Y-61035714D01*
X44583333Y-61083333D01*
X44678571Y-61130952D01*
X44869047Y-61130952D01*
X44964285Y-61178571D01*
X45011904Y-61226190D01*
X45059523Y-61321428D01*
X45059523Y-61511904D01*
X45011904Y-61607142D01*
X44964285Y-61654761D01*
X44869047Y-61702380D01*
X44678571Y-61702380D01*
X44583333Y-61654761D01*
X44535714Y-61607142D01*
X44488095Y-61511904D01*
X44488095Y-61321428D01*
X44535714Y-61226190D01*
X44583333Y-61178571D01*
X44678571Y-61130952D01*
G04 #@! TD*
M02*
