G04 #@! TF.GenerationSoftware,KiCad,Pcbnew,5.0.2+dfsg1-1*
G04 #@! TF.CreationDate,2020-04-26T20:47:29+02:00*
G04 #@! TF.ProjectId,midirouter,6d696469-726f-4757-9465-722e6b696361,rev?*
G04 #@! TF.SameCoordinates,Original*
G04 #@! TF.FileFunction,Legend,Top*
G04 #@! TF.FilePolarity,Positive*
%FSLAX46Y46*%
G04 Gerber Fmt 4.6, Leading zero omitted, Abs format (unit mm)*
G04 Created by KiCad (PCBNEW 5.0.2+dfsg1-1) date Sun 26 Apr 2020 08:47:29 PM CEST*
%MOMM*%
%LPD*%
G01*
G04 APERTURE LIST*
%ADD10C,0.150000*%
%ADD11C,0.120000*%
G04 APERTURE END LIST*
D10*
X97630952Y-89952380D02*
X97630952Y-90666666D01*
X97583333Y-90809523D01*
X97488095Y-90904761D01*
X97345238Y-90952380D01*
X97250000Y-90952380D01*
X98583333Y-90952380D02*
X98107142Y-90952380D01*
X98107142Y-89952380D01*
X99488095Y-90857142D02*
X99440476Y-90904761D01*
X99297619Y-90952380D01*
X99202380Y-90952380D01*
X99059523Y-90904761D01*
X98964285Y-90809523D01*
X98916666Y-90714285D01*
X98869047Y-90523809D01*
X98869047Y-90380952D01*
X98916666Y-90190476D01*
X98964285Y-90095238D01*
X99059523Y-90000000D01*
X99202380Y-89952380D01*
X99297619Y-89952380D01*
X99440476Y-90000000D01*
X99488095Y-90047619D01*
X100202380Y-89952380D02*
X100202380Y-90666666D01*
X100154761Y-90809523D01*
X100059523Y-90904761D01*
X99916666Y-90952380D01*
X99821428Y-90952380D01*
X101154761Y-90952380D02*
X100678571Y-90952380D01*
X100678571Y-89952380D01*
X102059523Y-90857142D02*
X102011904Y-90904761D01*
X101869047Y-90952380D01*
X101773809Y-90952380D01*
X101630952Y-90904761D01*
X101535714Y-90809523D01*
X101488095Y-90714285D01*
X101440476Y-90523809D01*
X101440476Y-90380952D01*
X101488095Y-90190476D01*
X101535714Y-90095238D01*
X101630952Y-90000000D01*
X101773809Y-89952380D01*
X101869047Y-89952380D01*
X102011904Y-90000000D01*
X102059523Y-90047619D01*
X102773809Y-89952380D02*
X102773809Y-90666666D01*
X102726190Y-90809523D01*
X102630952Y-90904761D01*
X102488095Y-90952380D01*
X102392857Y-90952380D01*
X103726190Y-90952380D02*
X103250000Y-90952380D01*
X103250000Y-89952380D01*
X104630952Y-90857142D02*
X104583333Y-90904761D01*
X104440476Y-90952380D01*
X104345238Y-90952380D01*
X104202380Y-90904761D01*
X104107142Y-90809523D01*
X104059523Y-90714285D01*
X104011904Y-90523809D01*
X104011904Y-90380952D01*
X104059523Y-90190476D01*
X104107142Y-90095238D01*
X104202380Y-90000000D01*
X104345238Y-89952380D01*
X104440476Y-89952380D01*
X104583333Y-90000000D01*
X104630952Y-90047619D01*
X105345238Y-89952380D02*
X105345238Y-90666666D01*
X105297619Y-90809523D01*
X105202380Y-90904761D01*
X105059523Y-90952380D01*
X104964285Y-90952380D01*
X106297619Y-90952380D02*
X105821428Y-90952380D01*
X105821428Y-89952380D01*
X107202380Y-90857142D02*
X107154761Y-90904761D01*
X107011904Y-90952380D01*
X106916666Y-90952380D01*
X106773809Y-90904761D01*
X106678571Y-90809523D01*
X106630952Y-90714285D01*
X106583333Y-90523809D01*
X106583333Y-90380952D01*
X106630952Y-90190476D01*
X106678571Y-90095238D01*
X106773809Y-90000000D01*
X106916666Y-89952380D01*
X107011904Y-89952380D01*
X107154761Y-90000000D01*
X107202380Y-90047619D01*
D11*
G04 #@! TO.C,J2*
X47330000Y-46000000D02*
X47330000Y-47330000D01*
X47330000Y-47330000D02*
X46000000Y-47330000D01*
X44730000Y-47330000D02*
X26890000Y-47330000D01*
X26890000Y-44670000D02*
X26890000Y-47330000D01*
X44730000Y-44670000D02*
X26890000Y-44670000D01*
X44730000Y-44670000D02*
X44730000Y-47330000D01*
G04 #@! TO.C,J3*
X88730000Y-44670000D02*
X88730000Y-47330000D01*
X88730000Y-44670000D02*
X70890000Y-44670000D01*
X70890000Y-44670000D02*
X70890000Y-47330000D01*
X88730000Y-47330000D02*
X70890000Y-47330000D01*
X91330000Y-47330000D02*
X90000000Y-47330000D01*
X91330000Y-46000000D02*
X91330000Y-47330000D01*
G04 #@! TO.C,J4*
X132730000Y-44670000D02*
X132730000Y-47330000D01*
X132730000Y-44670000D02*
X114890000Y-44670000D01*
X114890000Y-44670000D02*
X114890000Y-47330000D01*
X132730000Y-47330000D02*
X114890000Y-47330000D01*
X135330000Y-47330000D02*
X134000000Y-47330000D01*
X135330000Y-46000000D02*
X135330000Y-47330000D01*
G04 #@! TO.C,J5*
X176730000Y-44670000D02*
X176730000Y-47330000D01*
X176730000Y-44670000D02*
X158890000Y-44670000D01*
X158890000Y-44670000D02*
X158890000Y-47330000D01*
X176730000Y-47330000D02*
X158890000Y-47330000D01*
X179330000Y-47330000D02*
X178000000Y-47330000D01*
X179330000Y-46000000D02*
X179330000Y-47330000D01*
G04 #@! TO.C,J6*
X44730000Y-88670000D02*
X44730000Y-91330000D01*
X44730000Y-88670000D02*
X26890000Y-88670000D01*
X26890000Y-88670000D02*
X26890000Y-91330000D01*
X44730000Y-91330000D02*
X26890000Y-91330000D01*
X47330000Y-91330000D02*
X46000000Y-91330000D01*
X47330000Y-90000000D02*
X47330000Y-91330000D01*
G04 #@! TO.C,J7*
X91330000Y-90000000D02*
X91330000Y-91330000D01*
X91330000Y-91330000D02*
X90000000Y-91330000D01*
X88730000Y-91330000D02*
X70890000Y-91330000D01*
X70890000Y-88670000D02*
X70890000Y-91330000D01*
X88730000Y-88670000D02*
X70890000Y-88670000D01*
X88730000Y-88670000D02*
X88730000Y-91330000D01*
G04 #@! TO.C,J8*
X135330000Y-90000000D02*
X135330000Y-91330000D01*
X135330000Y-91330000D02*
X134000000Y-91330000D01*
X132730000Y-91330000D02*
X114890000Y-91330000D01*
X114890000Y-88670000D02*
X114890000Y-91330000D01*
X132730000Y-88670000D02*
X114890000Y-88670000D01*
X132730000Y-88670000D02*
X132730000Y-91330000D01*
G04 #@! TO.C,J9*
X179330000Y-90000000D02*
X179330000Y-91330000D01*
X179330000Y-91330000D02*
X178000000Y-91330000D01*
X176730000Y-91330000D02*
X158890000Y-91330000D01*
X158890000Y-88670000D02*
X158890000Y-91330000D01*
X176730000Y-88670000D02*
X158890000Y-88670000D01*
X176730000Y-88670000D02*
X176730000Y-91330000D01*
G04 #@! TD*
M02*
