M48
;DRILL file {KiCad 5.0.2+dfsg1-1} date Sun 26 Apr 2020 08:47:31 PM CEST
;FORMAT={-:-/ absolute / inch / decimal}
FMAT,2
INCH,TZ
T1C0.0157
T2C0.0315
T3C0.0394
T4C0.0400
%
G90
G05
T1
X2.7756Y-3.5827
X2.8839Y-3.6073
X4.252Y-1.9685
X4.3012Y-1.9685
X4.3307Y-2.0079
X4.3701Y-2.0246
X4.4587Y-1.9094
X4.498Y-1.8898
X4.5177Y-2.0472
X4.5472Y-1.8799
X4.5571Y-2.0177
X4.5965Y-1.9882
X4.6386Y-1.9657
X4.7539Y-3.3071
X4.7835Y-3.3465
X5.2264Y-3.3071
X5.2559Y-3.3465
X6.1815Y-2.0344
X6.2402Y-3.2776
X6.25Y-3.5896
X6.2795Y-1.9892
X6.3583Y-3.5787
X6.378Y-1.9715
X6.3976Y-2.4508
X6.437Y-3.2776
X6.4567Y-2.9035
X6.5114Y-2.6575
X6.5157Y-3.3465
X6.5453Y-2.5994
X6.5846Y-2.4606
X6.5846Y-2.637
X6.6142Y-2.5787
X6.6142Y-3.3465
X6.6339Y-3.2776
X6.6437Y-2.6476
X6.7815Y-2.313
X6.8209Y-2.7854
X6.8307Y-3.2776
T2
X2.9709Y-2.3778
X2.9709Y-2.9778
X3.0709Y-2.3778
X3.0709Y-2.9778
X3.1709Y-2.3778
X3.1709Y-2.9778
X3.2709Y-2.3778
X3.2709Y-2.9778
X3.3709Y-2.3778
X3.3709Y-2.9778
X3.4709Y-2.3778
X3.4709Y-2.9778
X3.5709Y-2.3778
X3.5709Y-2.9778
X3.6709Y-2.3778
X3.6709Y-2.9778
X3.7709Y-2.3778
X3.7709Y-2.9778
X3.8709Y-2.3778
X3.8709Y-2.9778
X3.9709Y-2.3778
X3.9709Y-2.9778
X4.0709Y-2.3778
X4.0709Y-2.9778
X4.1709Y-2.3778
X4.1709Y-2.9778
X4.2709Y-2.3778
X4.2709Y-2.9778
X4.3709Y-2.3778
X4.3709Y-2.9778
X4.4709Y-2.3778
X4.4709Y-2.9778
X4.5709Y-2.3778
X4.5709Y-2.9778
X4.6709Y-2.3778
X4.6709Y-2.9778
X4.7709Y-2.3778
X4.7709Y-2.9778
X4.8709Y-2.3778
X4.8709Y-2.9778
X4.9709Y-2.3778
X4.9709Y-2.9778
X5.0709Y-2.3778
X5.0709Y-2.9778
X5.1709Y-2.3778
X5.1709Y-2.9778
X5.2709Y-2.3778
X5.2709Y-2.9778
T3
X1.111Y-1.811
X1.211Y-1.811
X1.311Y-1.811
X1.411Y-1.811
X1.511Y-1.811
X1.611Y-1.811
X1.711Y-1.811
X1.811Y-1.811
X2.8433Y-3.5433
X2.9433Y-3.5433
X3.0433Y-3.5433
X3.1433Y-3.5433
X3.2433Y-3.5433
X3.3433Y-3.5433
X3.4433Y-3.5433
X3.5433Y-3.5433
X6.3079Y-1.811
X6.4079Y-1.811
X6.5079Y-1.811
X6.6079Y-1.811
X6.7079Y-1.811
X6.8079Y-1.811
X6.9079Y-1.811
X7.0079Y-1.811
X1.111Y-3.5433
X1.211Y-3.5433
X1.311Y-3.5433
X1.411Y-3.5433
X1.511Y-3.5433
X1.611Y-3.5433
X1.711Y-3.5433
X1.811Y-3.5433
X4.5756Y-3.5433
X4.6756Y-3.5433
X4.7756Y-3.5433
X4.8756Y-3.5433
X4.9756Y-3.5433
X5.0756Y-3.5433
X5.1756Y-3.5433
X5.2756Y-3.5433
X2.8433Y-1.811
X2.9433Y-1.811
X3.0433Y-1.811
X3.1433Y-1.811
X3.2433Y-1.811
X3.3433Y-1.811
X3.4433Y-1.811
X3.5433Y-1.811
X4.5756Y-1.811
X4.6756Y-1.811
X4.7756Y-1.811
X4.8756Y-1.811
X4.9756Y-1.811
X5.0756Y-1.811
X5.1756Y-1.811
X5.2756Y-1.811
X6.3079Y-3.5433
X6.4079Y-3.5433
X6.5079Y-3.5433
X6.6079Y-3.5433
X6.7079Y-3.5433
X6.8079Y-3.5433
X6.9079Y-3.5433
X7.0079Y-3.5433
T4
X1.21Y-2.46
X1.21Y-2.56
X1.21Y-2.66
X1.21Y-2.76
X1.21Y-2.86
X1.31Y-2.46
X1.31Y-2.56
X1.31Y-2.66
X1.31Y-2.76
X1.31Y-2.86
T0
M30
