G04 #@! TF.GenerationSoftware,KiCad,Pcbnew,5.0.2+dfsg1-1*
G04 #@! TF.CreationDate,2020-04-26T20:47:29+02:00*
G04 #@! TF.ProjectId,midirouter,6d696469-726f-4757-9465-722e6b696361,rev?*
G04 #@! TF.SameCoordinates,Original*
G04 #@! TF.FileFunction,Copper,L2,Bot*
G04 #@! TF.FilePolarity,Positive*
%FSLAX46Y46*%
G04 Gerber Fmt 4.6, Leading zero omitted, Abs format (unit mm)*
G04 Created by KiCad (PCBNEW 5.0.2+dfsg1-1) date Sun 26 Apr 2020 08:47:29 PM CEST*
%MOMM*%
%LPD*%
G01*
G04 APERTURE LIST*
G04 #@! TA.AperFunction,ComponentPad*
%ADD10R,1.727200X1.727200*%
G04 #@! TD*
G04 #@! TA.AperFunction,ComponentPad*
%ADD11O,1.727200X1.727200*%
G04 #@! TD*
G04 #@! TA.AperFunction,ComponentPad*
%ADD12O,1.700000X1.700000*%
G04 #@! TD*
G04 #@! TA.AperFunction,ComponentPad*
%ADD13R,1.700000X1.700000*%
G04 #@! TD*
G04 #@! TA.AperFunction,ComponentPad*
%ADD14R,1.600000X1.600000*%
G04 #@! TD*
G04 #@! TA.AperFunction,ComponentPad*
%ADD15O,1.600000X1.600000*%
G04 #@! TD*
G04 #@! TA.AperFunction,SMDPad,CuDef*
%ADD16R,0.800000X1.300000*%
G04 #@! TD*
G04 #@! TA.AperFunction,SMDPad,CuDef*
%ADD17R,1.400000X1.000000*%
G04 #@! TD*
G04 #@! TA.AperFunction,Conductor*
%ADD18C,0.100000*%
G04 #@! TD*
G04 #@! TA.AperFunction,SMDPad,CuDef*
%ADD19C,1.150000*%
G04 #@! TD*
G04 #@! TA.AperFunction,SMDPad,CuDef*
%ADD20R,2.000000X3.800000*%
G04 #@! TD*
G04 #@! TA.AperFunction,SMDPad,CuDef*
%ADD21R,2.000000X1.500000*%
G04 #@! TD*
G04 #@! TA.AperFunction,SMDPad,CuDef*
%ADD22R,2.500000X1.800000*%
G04 #@! TD*
G04 #@! TA.AperFunction,SMDPad,CuDef*
%ADD23C,0.975000*%
G04 #@! TD*
G04 #@! TA.AperFunction,SMDPad,CuDef*
%ADD24C,1.600000*%
G04 #@! TD*
G04 #@! TA.AperFunction,ViaPad*
%ADD25C,0.800000*%
G04 #@! TD*
G04 #@! TA.AperFunction,Conductor*
%ADD26C,0.500000*%
G04 #@! TD*
G04 #@! TA.AperFunction,Conductor*
%ADD27C,0.250000*%
G04 #@! TD*
G04 APERTURE END LIST*
D10*
G04 #@! TO.P,J1,1*
G04 #@! TO.N,Net-(J1-Pad1)*
X30734000Y-72644000D03*
D11*
G04 #@! TO.P,J1,2*
G04 #@! TO.N,Net-(J1-Pad2)*
X33274000Y-72644000D03*
G04 #@! TO.P,J1,3*
G04 #@! TO.N,GND*
X30734000Y-70104000D03*
G04 #@! TO.P,J1,4*
X33274000Y-70104000D03*
G04 #@! TO.P,J1,5*
X30734000Y-67564000D03*
G04 #@! TO.P,J1,6*
X33274000Y-67564000D03*
G04 #@! TO.P,J1,7*
X30734000Y-65024000D03*
G04 #@! TO.P,J1,8*
X33274000Y-65024000D03*
G04 #@! TO.P,J1,9*
G04 #@! TO.N,+12V*
X30734000Y-62484000D03*
G04 #@! TO.P,J1,10*
X33274000Y-62484000D03*
G04 #@! TD*
D12*
G04 #@! TO.P,J2,8*
G04 #@! TO.N,LED1*
X28220000Y-46000000D03*
G04 #@! TO.P,J2,7*
G04 #@! TO.N,LED2*
X30760000Y-46000000D03*
G04 #@! TO.P,J2,6*
G04 #@! TO.N,LED3*
X33300000Y-46000000D03*
G04 #@! TO.P,J2,5*
G04 #@! TO.N,LED4*
X35840000Y-46000000D03*
G04 #@! TO.P,J2,4*
G04 #@! TO.N,MIDI_IN_1*
X38380000Y-46000000D03*
G04 #@! TO.P,J2,3*
G04 #@! TO.N,MIDI_IN_2*
X40920000Y-46000000D03*
G04 #@! TO.P,J2,2*
G04 #@! TO.N,MIDI_IN_3*
X43460000Y-46000000D03*
D13*
G04 #@! TO.P,J2,1*
G04 #@! TO.N,MIDI_IN_4*
X46000000Y-46000000D03*
G04 #@! TD*
G04 #@! TO.P,J3,1*
G04 #@! TO.N,MIDI_IN_8*
X90000000Y-46000000D03*
D12*
G04 #@! TO.P,J3,2*
G04 #@! TO.N,MIDI_IN_7*
X87460000Y-46000000D03*
G04 #@! TO.P,J3,3*
G04 #@! TO.N,MIDI_IN_6*
X84920000Y-46000000D03*
G04 #@! TO.P,J3,4*
G04 #@! TO.N,MIDI_IN_5*
X82380000Y-46000000D03*
G04 #@! TO.P,J3,5*
G04 #@! TO.N,LED8*
X79840000Y-46000000D03*
G04 #@! TO.P,J3,6*
G04 #@! TO.N,LED7*
X77300000Y-46000000D03*
G04 #@! TO.P,J3,7*
G04 #@! TO.N,LED6*
X74760000Y-46000000D03*
G04 #@! TO.P,J3,8*
G04 #@! TO.N,LED5*
X72220000Y-46000000D03*
G04 #@! TD*
D13*
G04 #@! TO.P,J4,1*
G04 #@! TO.N,MIDI_IN_12*
X134000000Y-46000000D03*
D12*
G04 #@! TO.P,J4,2*
G04 #@! TO.N,MIDI_IN_11*
X131460000Y-46000000D03*
G04 #@! TO.P,J4,3*
G04 #@! TO.N,MIDI_IN_10*
X128920000Y-46000000D03*
G04 #@! TO.P,J4,4*
G04 #@! TO.N,MIDI_IN_9*
X126380000Y-46000000D03*
G04 #@! TO.P,J4,5*
G04 #@! TO.N,LED4*
X123840000Y-46000000D03*
G04 #@! TO.P,J4,6*
G04 #@! TO.N,LED3*
X121300000Y-46000000D03*
G04 #@! TO.P,J4,7*
G04 #@! TO.N,LED2*
X118760000Y-46000000D03*
G04 #@! TO.P,J4,8*
G04 #@! TO.N,LED1*
X116220000Y-46000000D03*
G04 #@! TD*
D13*
G04 #@! TO.P,J5,1*
G04 #@! TO.N,MIDI_IN_16*
X178000000Y-46000000D03*
D12*
G04 #@! TO.P,J5,2*
G04 #@! TO.N,MIDI_IN_15*
X175460000Y-46000000D03*
G04 #@! TO.P,J5,3*
G04 #@! TO.N,MIDI_IN_14*
X172920000Y-46000000D03*
G04 #@! TO.P,J5,4*
G04 #@! TO.N,MIDI_IN_13*
X170380000Y-46000000D03*
G04 #@! TO.P,J5,5*
G04 #@! TO.N,LED8*
X167840000Y-46000000D03*
G04 #@! TO.P,J5,6*
G04 #@! TO.N,LED7*
X165300000Y-46000000D03*
G04 #@! TO.P,J5,7*
G04 #@! TO.N,LED6*
X162760000Y-46000000D03*
G04 #@! TO.P,J5,8*
G04 #@! TO.N,LED5*
X160220000Y-46000000D03*
G04 #@! TD*
D13*
G04 #@! TO.P,J6,1*
G04 #@! TO.N,MIDI_OUT_4*
X46000000Y-90000000D03*
D12*
G04 #@! TO.P,J6,2*
G04 #@! TO.N,MIDI_OUT_3*
X43460000Y-90000000D03*
G04 #@! TO.P,J6,3*
G04 #@! TO.N,MIDI_OUT_2*
X40920000Y-90000000D03*
G04 #@! TO.P,J6,4*
G04 #@! TO.N,MIDI_OUT_1*
X38380000Y-90000000D03*
G04 #@! TO.P,J6,5*
G04 #@! TO.N,LEDK2*
X35840000Y-90000000D03*
G04 #@! TO.P,J6,6*
G04 #@! TO.N,LEDK1*
X33300000Y-90000000D03*
G04 #@! TO.P,J6,7*
G04 #@! TO.N,+3V3*
X30760000Y-90000000D03*
G04 #@! TO.P,J6,8*
G04 #@! TO.N,GND*
X28220000Y-90000000D03*
G04 #@! TD*
G04 #@! TO.P,J7,8*
G04 #@! TO.N,GND*
X72220000Y-90000000D03*
G04 #@! TO.P,J7,7*
G04 #@! TO.N,+3V3*
X74760000Y-90000000D03*
G04 #@! TO.P,J7,6*
G04 #@! TO.N,LEDK1*
X77300000Y-90000000D03*
G04 #@! TO.P,J7,5*
G04 #@! TO.N,LEDK2*
X79840000Y-90000000D03*
G04 #@! TO.P,J7,4*
G04 #@! TO.N,MIDI_OUT_5*
X82380000Y-90000000D03*
G04 #@! TO.P,J7,3*
G04 #@! TO.N,MIDI_OUT_6*
X84920000Y-90000000D03*
G04 #@! TO.P,J7,2*
G04 #@! TO.N,MIDI_OUT_7*
X87460000Y-90000000D03*
D13*
G04 #@! TO.P,J7,1*
G04 #@! TO.N,MIDI_OUT_8*
X90000000Y-90000000D03*
G04 #@! TD*
D12*
G04 #@! TO.P,J8,8*
G04 #@! TO.N,GND*
X116220000Y-90000000D03*
G04 #@! TO.P,J8,7*
G04 #@! TO.N,+3V3*
X118760000Y-90000000D03*
G04 #@! TO.P,J8,6*
G04 #@! TO.N,LEDK3*
X121300000Y-90000000D03*
G04 #@! TO.P,J8,5*
G04 #@! TO.N,LEDK4*
X123840000Y-90000000D03*
G04 #@! TO.P,J8,4*
G04 #@! TO.N,MIDI_OUT_9*
X126380000Y-90000000D03*
G04 #@! TO.P,J8,3*
G04 #@! TO.N,MIDI_OUT_10*
X128920000Y-90000000D03*
G04 #@! TO.P,J8,2*
G04 #@! TO.N,MIDI_OUT_11*
X131460000Y-90000000D03*
D13*
G04 #@! TO.P,J8,1*
G04 #@! TO.N,MIDI_OUT_12*
X134000000Y-90000000D03*
G04 #@! TD*
D12*
G04 #@! TO.P,J9,8*
G04 #@! TO.N,GND*
X160220000Y-90000000D03*
G04 #@! TO.P,J9,7*
G04 #@! TO.N,+3V3*
X162760000Y-90000000D03*
G04 #@! TO.P,J9,6*
G04 #@! TO.N,LEDK3*
X165300000Y-90000000D03*
G04 #@! TO.P,J9,5*
G04 #@! TO.N,LEDK4*
X167840000Y-90000000D03*
G04 #@! TO.P,J9,4*
G04 #@! TO.N,MIDI_OUT_13*
X170380000Y-90000000D03*
G04 #@! TO.P,J9,3*
G04 #@! TO.N,MIDI_OUT_14*
X172920000Y-90000000D03*
G04 #@! TO.P,J9,2*
G04 #@! TO.N,MIDI_OUT_15*
X175460000Y-90000000D03*
D13*
G04 #@! TO.P,J9,1*
G04 #@! TO.N,MIDI_OUT_16*
X178000000Y-90000000D03*
G04 #@! TD*
D14*
G04 #@! TO.P,U7,1*
G04 #@! TO.N,MIDI_IN_1*
X75460000Y-60396000D03*
D15*
G04 #@! TO.P,U7,25*
G04 #@! TO.N,GND*
X133880000Y-75636000D03*
G04 #@! TO.P,U7,2*
G04 #@! TO.N,MIDI_IN_2*
X78000000Y-60396000D03*
G04 #@! TO.P,U7,26*
G04 #@! TO.N,Net-(U7-Pad26)*
X131340000Y-75636000D03*
G04 #@! TO.P,U7,3*
G04 #@! TO.N,MIDI_IN_3*
X80540000Y-60396000D03*
G04 #@! TO.P,U7,27*
G04 #@! TO.N,Net-(U7-Pad27)*
X128800000Y-75636000D03*
G04 #@! TO.P,U7,4*
G04 #@! TO.N,MIDI_IN_4*
X83080000Y-60396000D03*
G04 #@! TO.P,U7,28*
G04 #@! TO.N,Net-(U7-Pad28)*
X126260000Y-75636000D03*
G04 #@! TO.P,U7,5*
G04 #@! TO.N,MIDI_IN_5*
X85620000Y-60396000D03*
G04 #@! TO.P,U7,29*
G04 #@! TO.N,Net-(U7-Pad29)*
X123720000Y-75636000D03*
G04 #@! TO.P,U7,6*
G04 #@! TO.N,MIDI_IN_6*
X88160000Y-60396000D03*
G04 #@! TO.P,U7,30*
G04 #@! TO.N,Net-(U5-Pad12)*
X121180000Y-75636000D03*
G04 #@! TO.P,U7,7*
G04 #@! TO.N,MIDI_IN_7*
X90700000Y-60396000D03*
G04 #@! TO.P,U7,31*
G04 #@! TO.N,Net-(U5-Pad11)*
X118640000Y-75636000D03*
G04 #@! TO.P,U7,8*
G04 #@! TO.N,MIDI_IN_8*
X93240000Y-60396000D03*
G04 #@! TO.P,U7,32*
G04 #@! TO.N,Net-(U5-Pad14)*
X116100000Y-75636000D03*
G04 #@! TO.P,U7,9*
G04 #@! TO.N,MIDI_IN_9*
X95780000Y-60396000D03*
G04 #@! TO.P,U7,33*
G04 #@! TO.N,MIDI_OUT_16*
X113560000Y-75636000D03*
G04 #@! TO.P,U7,10*
G04 #@! TO.N,MIDI_IN_10*
X98320000Y-60396000D03*
G04 #@! TO.P,U7,34*
G04 #@! TO.N,MIDI_OUT_15*
X111020000Y-75636000D03*
G04 #@! TO.P,U7,11*
G04 #@! TO.N,MIDI_IN_11*
X100860000Y-60396000D03*
G04 #@! TO.P,U7,35*
G04 #@! TO.N,MIDI_OUT_14*
X108480000Y-75636000D03*
G04 #@! TO.P,U7,12*
G04 #@! TO.N,MIDI_IN_12*
X103400000Y-60396000D03*
G04 #@! TO.P,U7,36*
G04 #@! TO.N,MIDI_OUT_13*
X105940000Y-75636000D03*
G04 #@! TO.P,U7,13*
G04 #@! TO.N,MIDI_IN_13*
X105940000Y-60396000D03*
G04 #@! TO.P,U7,37*
G04 #@! TO.N,MIDI_OUT_12*
X103400000Y-75636000D03*
G04 #@! TO.P,U7,14*
G04 #@! TO.N,MIDI_IN_14*
X108480000Y-60396000D03*
G04 #@! TO.P,U7,38*
G04 #@! TO.N,MIDI_OUT_11*
X100860000Y-75636000D03*
G04 #@! TO.P,U7,15*
G04 #@! TO.N,Net-(U7-Pad15)*
X111020000Y-60396000D03*
G04 #@! TO.P,U7,39*
G04 #@! TO.N,MIDI_OUT_10*
X98320000Y-75636000D03*
G04 #@! TO.P,U7,16*
G04 #@! TO.N,Net-(U7-Pad16)*
X113560000Y-60396000D03*
G04 #@! TO.P,U7,40*
G04 #@! TO.N,MIDI_OUT_9*
X95780000Y-75636000D03*
G04 #@! TO.P,U7,17*
G04 #@! TO.N,MIDI_IN_15*
X116100000Y-60396000D03*
G04 #@! TO.P,U7,41*
G04 #@! TO.N,MIDI_OUT_8*
X93240000Y-75636000D03*
G04 #@! TO.P,U7,18*
G04 #@! TO.N,MIDI_IN_16*
X118640000Y-60396000D03*
G04 #@! TO.P,U7,42*
G04 #@! TO.N,MIDI_OUT_7*
X90700000Y-75636000D03*
G04 #@! TO.P,U7,19*
G04 #@! TO.N,Net-(U7-Pad19)*
X121180000Y-60396000D03*
G04 #@! TO.P,U7,43*
G04 #@! TO.N,MIDI_OUT_6*
X88160000Y-75636000D03*
G04 #@! TO.P,U7,20*
G04 #@! TO.N,Net-(U7-Pad20)*
X123720000Y-60396000D03*
G04 #@! TO.P,U7,44*
G04 #@! TO.N,MIDI_OUT_5*
X85620000Y-75636000D03*
G04 #@! TO.P,U7,21*
G04 #@! TO.N,Net-(U7-Pad21)*
X126260000Y-60396000D03*
G04 #@! TO.P,U7,45*
G04 #@! TO.N,MIDI_OUT_4*
X83080000Y-75636000D03*
G04 #@! TO.P,U7,22*
G04 #@! TO.N,Net-(U7-Pad22)*
X128800000Y-60396000D03*
G04 #@! TO.P,U7,46*
G04 #@! TO.N,MIDI_OUT_3*
X80540000Y-75636000D03*
G04 #@! TO.P,U7,23*
G04 #@! TO.N,Net-(U7-Pad23)*
X131340000Y-60396000D03*
G04 #@! TO.P,U7,47*
G04 #@! TO.N,MIDI_OUT_2*
X78000000Y-75636000D03*
G04 #@! TO.P,U7,24*
G04 #@! TO.N,CA7_VCC*
X133880000Y-60396000D03*
G04 #@! TO.P,U7,48*
G04 #@! TO.N,MIDI_OUT_1*
X75460000Y-75636000D03*
G04 #@! TD*
D16*
G04 #@! TO.P,U5,16*
G04 #@! TO.N,+3V3*
X163490000Y-63830000D03*
G04 #@! TO.P,U5,15*
G04 #@! TO.N,Net-(R17-Pad2)*
X164770000Y-63830000D03*
G04 #@! TO.P,U5,14*
G04 #@! TO.N,Net-(U5-Pad14)*
X166030000Y-63830000D03*
G04 #@! TO.P,U5,13*
G04 #@! TO.N,GND*
X167300000Y-63830000D03*
G04 #@! TO.P,U5,12*
G04 #@! TO.N,Net-(U5-Pad12)*
X168580000Y-63830000D03*
G04 #@! TO.P,U5,11*
G04 #@! TO.N,Net-(U5-Pad11)*
X169850000Y-63830000D03*
G04 #@! TO.P,U5,10*
G04 #@! TO.N,+3V3*
X171110000Y-63830000D03*
G04 #@! TO.P,U5,9*
G04 #@! TO.N,Net-(U5-Pad9)*
X172390000Y-63830000D03*
G04 #@! TO.P,U5,8*
G04 #@! TO.N,GND*
X172390000Y-57530000D03*
G04 #@! TO.P,U5,7*
G04 #@! TO.N,Net-(R24-Pad2)*
X171110000Y-57530000D03*
G04 #@! TO.P,U5,6*
G04 #@! TO.N,Net-(R23-Pad2)*
X169850000Y-57530000D03*
G04 #@! TO.P,U5,5*
G04 #@! TO.N,Net-(R22-Pad2)*
X168580000Y-57530000D03*
G04 #@! TO.P,U5,4*
G04 #@! TO.N,Net-(R21-Pad2)*
X167300000Y-57530000D03*
G04 #@! TO.P,U5,3*
G04 #@! TO.N,Net-(R20-Pad2)*
X166030000Y-57530000D03*
G04 #@! TO.P,U5,2*
G04 #@! TO.N,Net-(R19-Pad2)*
X164770000Y-57530000D03*
G04 #@! TO.P,U5,1*
G04 #@! TO.N,Net-(R18-Pad2)*
X163490000Y-57530000D03*
G04 #@! TD*
G04 #@! TO.P,U6,1*
G04 #@! TO.N,Net-(R25-Pad2)*
X172260000Y-75015000D03*
G04 #@! TO.P,U6,2*
G04 #@! TO.N,Net-(R26-Pad2)*
X170980000Y-75015000D03*
G04 #@! TO.P,U6,3*
G04 #@! TO.N,Net-(R27-Pad2)*
X169720000Y-75015000D03*
G04 #@! TO.P,U6,4*
G04 #@! TO.N,Net-(R28-Pad2)*
X168450000Y-75015000D03*
G04 #@! TO.P,U6,5*
G04 #@! TO.N,Net-(U6-Pad5)*
X167170000Y-75015000D03*
G04 #@! TO.P,U6,6*
G04 #@! TO.N,Net-(U6-Pad6)*
X165900000Y-75015000D03*
G04 #@! TO.P,U6,7*
G04 #@! TO.N,Net-(U6-Pad7)*
X164640000Y-75015000D03*
G04 #@! TO.P,U6,8*
G04 #@! TO.N,GND*
X163360000Y-75015000D03*
G04 #@! TO.P,U6,9*
G04 #@! TO.N,Net-(U6-Pad9)*
X163360000Y-68715000D03*
G04 #@! TO.P,U6,10*
G04 #@! TO.N,+3V3*
X164640000Y-68715000D03*
G04 #@! TO.P,U6,11*
G04 #@! TO.N,Net-(U5-Pad11)*
X165900000Y-68715000D03*
G04 #@! TO.P,U6,12*
G04 #@! TO.N,Net-(U5-Pad12)*
X167170000Y-68715000D03*
G04 #@! TO.P,U6,13*
G04 #@! TO.N,GND*
X168450000Y-68715000D03*
G04 #@! TO.P,U6,14*
G04 #@! TO.N,Net-(U5-Pad9)*
X169720000Y-68715000D03*
G04 #@! TO.P,U6,15*
G04 #@! TO.N,Net-(U6-Pad15)*
X170980000Y-68715000D03*
G04 #@! TO.P,U6,16*
G04 #@! TO.N,+3V3*
X172260000Y-68715000D03*
G04 #@! TD*
D17*
G04 #@! TO.P,Q1,3*
G04 #@! TO.N,LEDK4*
X177100000Y-82250000D03*
G04 #@! TO.P,Q1,2*
G04 #@! TO.N,Net-(Q1-Pad2)*
X174900000Y-81300000D03*
G04 #@! TO.P,Q1,1*
G04 #@! TO.N,GND*
X174900000Y-83200000D03*
G04 #@! TD*
G04 #@! TO.P,Q2,1*
G04 #@! TO.N,GND*
X169900000Y-83200000D03*
G04 #@! TO.P,Q2,2*
G04 #@! TO.N,Net-(Q2-Pad2)*
X169900000Y-81300000D03*
G04 #@! TO.P,Q2,3*
G04 #@! TO.N,LEDK3*
X172100000Y-82250000D03*
G04 #@! TD*
G04 #@! TO.P,Q3,3*
G04 #@! TO.N,LEDK2*
X167100000Y-82250000D03*
G04 #@! TO.P,Q3,2*
G04 #@! TO.N,Net-(Q3-Pad2)*
X164900000Y-81300000D03*
G04 #@! TO.P,Q3,1*
G04 #@! TO.N,GND*
X164900000Y-83200000D03*
G04 #@! TD*
G04 #@! TO.P,Q4,3*
G04 #@! TO.N,LEDK1*
X162100000Y-82250000D03*
G04 #@! TO.P,Q4,2*
G04 #@! TO.N,Net-(Q4-Pad2)*
X159900000Y-81300000D03*
G04 #@! TO.P,Q4,1*
G04 #@! TO.N,GND*
X159900000Y-83200000D03*
G04 #@! TD*
D18*
G04 #@! TO.N,Net-(Q4-Pad2)*
G04 #@! TO.C,R25*
G36*
X161324505Y-78301204D02*
X161348773Y-78304804D01*
X161372572Y-78310765D01*
X161395671Y-78319030D01*
X161417850Y-78329520D01*
X161438893Y-78342132D01*
X161458599Y-78356747D01*
X161476777Y-78373223D01*
X161493253Y-78391401D01*
X161507868Y-78411107D01*
X161520480Y-78432150D01*
X161530970Y-78454329D01*
X161539235Y-78477428D01*
X161545196Y-78501227D01*
X161548796Y-78525495D01*
X161550000Y-78549999D01*
X161550000Y-79450001D01*
X161548796Y-79474505D01*
X161545196Y-79498773D01*
X161539235Y-79522572D01*
X161530970Y-79545671D01*
X161520480Y-79567850D01*
X161507868Y-79588893D01*
X161493253Y-79608599D01*
X161476777Y-79626777D01*
X161458599Y-79643253D01*
X161438893Y-79657868D01*
X161417850Y-79670480D01*
X161395671Y-79680970D01*
X161372572Y-79689235D01*
X161348773Y-79695196D01*
X161324505Y-79698796D01*
X161300001Y-79700000D01*
X160649999Y-79700000D01*
X160625495Y-79698796D01*
X160601227Y-79695196D01*
X160577428Y-79689235D01*
X160554329Y-79680970D01*
X160532150Y-79670480D01*
X160511107Y-79657868D01*
X160491401Y-79643253D01*
X160473223Y-79626777D01*
X160456747Y-79608599D01*
X160442132Y-79588893D01*
X160429520Y-79567850D01*
X160419030Y-79545671D01*
X160410765Y-79522572D01*
X160404804Y-79498773D01*
X160401204Y-79474505D01*
X160400000Y-79450001D01*
X160400000Y-78549999D01*
X160401204Y-78525495D01*
X160404804Y-78501227D01*
X160410765Y-78477428D01*
X160419030Y-78454329D01*
X160429520Y-78432150D01*
X160442132Y-78411107D01*
X160456747Y-78391401D01*
X160473223Y-78373223D01*
X160491401Y-78356747D01*
X160511107Y-78342132D01*
X160532150Y-78329520D01*
X160554329Y-78319030D01*
X160577428Y-78310765D01*
X160601227Y-78304804D01*
X160625495Y-78301204D01*
X160649999Y-78300000D01*
X161300001Y-78300000D01*
X161324505Y-78301204D01*
X161324505Y-78301204D01*
G37*
D19*
G04 #@! TD*
G04 #@! TO.P,R25,1*
G04 #@! TO.N,Net-(Q4-Pad2)*
X160975000Y-79000000D03*
D18*
G04 #@! TO.N,Net-(R25-Pad2)*
G04 #@! TO.C,R25*
G36*
X163374505Y-78301204D02*
X163398773Y-78304804D01*
X163422572Y-78310765D01*
X163445671Y-78319030D01*
X163467850Y-78329520D01*
X163488893Y-78342132D01*
X163508599Y-78356747D01*
X163526777Y-78373223D01*
X163543253Y-78391401D01*
X163557868Y-78411107D01*
X163570480Y-78432150D01*
X163580970Y-78454329D01*
X163589235Y-78477428D01*
X163595196Y-78501227D01*
X163598796Y-78525495D01*
X163600000Y-78549999D01*
X163600000Y-79450001D01*
X163598796Y-79474505D01*
X163595196Y-79498773D01*
X163589235Y-79522572D01*
X163580970Y-79545671D01*
X163570480Y-79567850D01*
X163557868Y-79588893D01*
X163543253Y-79608599D01*
X163526777Y-79626777D01*
X163508599Y-79643253D01*
X163488893Y-79657868D01*
X163467850Y-79670480D01*
X163445671Y-79680970D01*
X163422572Y-79689235D01*
X163398773Y-79695196D01*
X163374505Y-79698796D01*
X163350001Y-79700000D01*
X162699999Y-79700000D01*
X162675495Y-79698796D01*
X162651227Y-79695196D01*
X162627428Y-79689235D01*
X162604329Y-79680970D01*
X162582150Y-79670480D01*
X162561107Y-79657868D01*
X162541401Y-79643253D01*
X162523223Y-79626777D01*
X162506747Y-79608599D01*
X162492132Y-79588893D01*
X162479520Y-79567850D01*
X162469030Y-79545671D01*
X162460765Y-79522572D01*
X162454804Y-79498773D01*
X162451204Y-79474505D01*
X162450000Y-79450001D01*
X162450000Y-78549999D01*
X162451204Y-78525495D01*
X162454804Y-78501227D01*
X162460765Y-78477428D01*
X162469030Y-78454329D01*
X162479520Y-78432150D01*
X162492132Y-78411107D01*
X162506747Y-78391401D01*
X162523223Y-78373223D01*
X162541401Y-78356747D01*
X162561107Y-78342132D01*
X162582150Y-78329520D01*
X162604329Y-78319030D01*
X162627428Y-78310765D01*
X162651227Y-78304804D01*
X162675495Y-78301204D01*
X162699999Y-78300000D01*
X163350001Y-78300000D01*
X163374505Y-78301204D01*
X163374505Y-78301204D01*
G37*
D19*
G04 #@! TD*
G04 #@! TO.P,R25,2*
G04 #@! TO.N,Net-(R25-Pad2)*
X163025000Y-79000000D03*
D18*
G04 #@! TO.N,Net-(Q3-Pad2)*
G04 #@! TO.C,R26*
G36*
X165324505Y-78301204D02*
X165348773Y-78304804D01*
X165372572Y-78310765D01*
X165395671Y-78319030D01*
X165417850Y-78329520D01*
X165438893Y-78342132D01*
X165458599Y-78356747D01*
X165476777Y-78373223D01*
X165493253Y-78391401D01*
X165507868Y-78411107D01*
X165520480Y-78432150D01*
X165530970Y-78454329D01*
X165539235Y-78477428D01*
X165545196Y-78501227D01*
X165548796Y-78525495D01*
X165550000Y-78549999D01*
X165550000Y-79450001D01*
X165548796Y-79474505D01*
X165545196Y-79498773D01*
X165539235Y-79522572D01*
X165530970Y-79545671D01*
X165520480Y-79567850D01*
X165507868Y-79588893D01*
X165493253Y-79608599D01*
X165476777Y-79626777D01*
X165458599Y-79643253D01*
X165438893Y-79657868D01*
X165417850Y-79670480D01*
X165395671Y-79680970D01*
X165372572Y-79689235D01*
X165348773Y-79695196D01*
X165324505Y-79698796D01*
X165300001Y-79700000D01*
X164649999Y-79700000D01*
X164625495Y-79698796D01*
X164601227Y-79695196D01*
X164577428Y-79689235D01*
X164554329Y-79680970D01*
X164532150Y-79670480D01*
X164511107Y-79657868D01*
X164491401Y-79643253D01*
X164473223Y-79626777D01*
X164456747Y-79608599D01*
X164442132Y-79588893D01*
X164429520Y-79567850D01*
X164419030Y-79545671D01*
X164410765Y-79522572D01*
X164404804Y-79498773D01*
X164401204Y-79474505D01*
X164400000Y-79450001D01*
X164400000Y-78549999D01*
X164401204Y-78525495D01*
X164404804Y-78501227D01*
X164410765Y-78477428D01*
X164419030Y-78454329D01*
X164429520Y-78432150D01*
X164442132Y-78411107D01*
X164456747Y-78391401D01*
X164473223Y-78373223D01*
X164491401Y-78356747D01*
X164511107Y-78342132D01*
X164532150Y-78329520D01*
X164554329Y-78319030D01*
X164577428Y-78310765D01*
X164601227Y-78304804D01*
X164625495Y-78301204D01*
X164649999Y-78300000D01*
X165300001Y-78300000D01*
X165324505Y-78301204D01*
X165324505Y-78301204D01*
G37*
D19*
G04 #@! TD*
G04 #@! TO.P,R26,1*
G04 #@! TO.N,Net-(Q3-Pad2)*
X164975000Y-79000000D03*
D18*
G04 #@! TO.N,Net-(R26-Pad2)*
G04 #@! TO.C,R26*
G36*
X167374505Y-78301204D02*
X167398773Y-78304804D01*
X167422572Y-78310765D01*
X167445671Y-78319030D01*
X167467850Y-78329520D01*
X167488893Y-78342132D01*
X167508599Y-78356747D01*
X167526777Y-78373223D01*
X167543253Y-78391401D01*
X167557868Y-78411107D01*
X167570480Y-78432150D01*
X167580970Y-78454329D01*
X167589235Y-78477428D01*
X167595196Y-78501227D01*
X167598796Y-78525495D01*
X167600000Y-78549999D01*
X167600000Y-79450001D01*
X167598796Y-79474505D01*
X167595196Y-79498773D01*
X167589235Y-79522572D01*
X167580970Y-79545671D01*
X167570480Y-79567850D01*
X167557868Y-79588893D01*
X167543253Y-79608599D01*
X167526777Y-79626777D01*
X167508599Y-79643253D01*
X167488893Y-79657868D01*
X167467850Y-79670480D01*
X167445671Y-79680970D01*
X167422572Y-79689235D01*
X167398773Y-79695196D01*
X167374505Y-79698796D01*
X167350001Y-79700000D01*
X166699999Y-79700000D01*
X166675495Y-79698796D01*
X166651227Y-79695196D01*
X166627428Y-79689235D01*
X166604329Y-79680970D01*
X166582150Y-79670480D01*
X166561107Y-79657868D01*
X166541401Y-79643253D01*
X166523223Y-79626777D01*
X166506747Y-79608599D01*
X166492132Y-79588893D01*
X166479520Y-79567850D01*
X166469030Y-79545671D01*
X166460765Y-79522572D01*
X166454804Y-79498773D01*
X166451204Y-79474505D01*
X166450000Y-79450001D01*
X166450000Y-78549999D01*
X166451204Y-78525495D01*
X166454804Y-78501227D01*
X166460765Y-78477428D01*
X166469030Y-78454329D01*
X166479520Y-78432150D01*
X166492132Y-78411107D01*
X166506747Y-78391401D01*
X166523223Y-78373223D01*
X166541401Y-78356747D01*
X166561107Y-78342132D01*
X166582150Y-78329520D01*
X166604329Y-78319030D01*
X166627428Y-78310765D01*
X166651227Y-78304804D01*
X166675495Y-78301204D01*
X166699999Y-78300000D01*
X167350001Y-78300000D01*
X167374505Y-78301204D01*
X167374505Y-78301204D01*
G37*
D19*
G04 #@! TD*
G04 #@! TO.P,R26,2*
G04 #@! TO.N,Net-(R26-Pad2)*
X167025000Y-79000000D03*
D18*
G04 #@! TO.N,Net-(R27-Pad2)*
G04 #@! TO.C,R27*
G36*
X171374505Y-78301204D02*
X171398773Y-78304804D01*
X171422572Y-78310765D01*
X171445671Y-78319030D01*
X171467850Y-78329520D01*
X171488893Y-78342132D01*
X171508599Y-78356747D01*
X171526777Y-78373223D01*
X171543253Y-78391401D01*
X171557868Y-78411107D01*
X171570480Y-78432150D01*
X171580970Y-78454329D01*
X171589235Y-78477428D01*
X171595196Y-78501227D01*
X171598796Y-78525495D01*
X171600000Y-78549999D01*
X171600000Y-79450001D01*
X171598796Y-79474505D01*
X171595196Y-79498773D01*
X171589235Y-79522572D01*
X171580970Y-79545671D01*
X171570480Y-79567850D01*
X171557868Y-79588893D01*
X171543253Y-79608599D01*
X171526777Y-79626777D01*
X171508599Y-79643253D01*
X171488893Y-79657868D01*
X171467850Y-79670480D01*
X171445671Y-79680970D01*
X171422572Y-79689235D01*
X171398773Y-79695196D01*
X171374505Y-79698796D01*
X171350001Y-79700000D01*
X170699999Y-79700000D01*
X170675495Y-79698796D01*
X170651227Y-79695196D01*
X170627428Y-79689235D01*
X170604329Y-79680970D01*
X170582150Y-79670480D01*
X170561107Y-79657868D01*
X170541401Y-79643253D01*
X170523223Y-79626777D01*
X170506747Y-79608599D01*
X170492132Y-79588893D01*
X170479520Y-79567850D01*
X170469030Y-79545671D01*
X170460765Y-79522572D01*
X170454804Y-79498773D01*
X170451204Y-79474505D01*
X170450000Y-79450001D01*
X170450000Y-78549999D01*
X170451204Y-78525495D01*
X170454804Y-78501227D01*
X170460765Y-78477428D01*
X170469030Y-78454329D01*
X170479520Y-78432150D01*
X170492132Y-78411107D01*
X170506747Y-78391401D01*
X170523223Y-78373223D01*
X170541401Y-78356747D01*
X170561107Y-78342132D01*
X170582150Y-78329520D01*
X170604329Y-78319030D01*
X170627428Y-78310765D01*
X170651227Y-78304804D01*
X170675495Y-78301204D01*
X170699999Y-78300000D01*
X171350001Y-78300000D01*
X171374505Y-78301204D01*
X171374505Y-78301204D01*
G37*
D19*
G04 #@! TD*
G04 #@! TO.P,R27,2*
G04 #@! TO.N,Net-(R27-Pad2)*
X171025000Y-79000000D03*
D18*
G04 #@! TO.N,Net-(Q2-Pad2)*
G04 #@! TO.C,R27*
G36*
X169324505Y-78301204D02*
X169348773Y-78304804D01*
X169372572Y-78310765D01*
X169395671Y-78319030D01*
X169417850Y-78329520D01*
X169438893Y-78342132D01*
X169458599Y-78356747D01*
X169476777Y-78373223D01*
X169493253Y-78391401D01*
X169507868Y-78411107D01*
X169520480Y-78432150D01*
X169530970Y-78454329D01*
X169539235Y-78477428D01*
X169545196Y-78501227D01*
X169548796Y-78525495D01*
X169550000Y-78549999D01*
X169550000Y-79450001D01*
X169548796Y-79474505D01*
X169545196Y-79498773D01*
X169539235Y-79522572D01*
X169530970Y-79545671D01*
X169520480Y-79567850D01*
X169507868Y-79588893D01*
X169493253Y-79608599D01*
X169476777Y-79626777D01*
X169458599Y-79643253D01*
X169438893Y-79657868D01*
X169417850Y-79670480D01*
X169395671Y-79680970D01*
X169372572Y-79689235D01*
X169348773Y-79695196D01*
X169324505Y-79698796D01*
X169300001Y-79700000D01*
X168649999Y-79700000D01*
X168625495Y-79698796D01*
X168601227Y-79695196D01*
X168577428Y-79689235D01*
X168554329Y-79680970D01*
X168532150Y-79670480D01*
X168511107Y-79657868D01*
X168491401Y-79643253D01*
X168473223Y-79626777D01*
X168456747Y-79608599D01*
X168442132Y-79588893D01*
X168429520Y-79567850D01*
X168419030Y-79545671D01*
X168410765Y-79522572D01*
X168404804Y-79498773D01*
X168401204Y-79474505D01*
X168400000Y-79450001D01*
X168400000Y-78549999D01*
X168401204Y-78525495D01*
X168404804Y-78501227D01*
X168410765Y-78477428D01*
X168419030Y-78454329D01*
X168429520Y-78432150D01*
X168442132Y-78411107D01*
X168456747Y-78391401D01*
X168473223Y-78373223D01*
X168491401Y-78356747D01*
X168511107Y-78342132D01*
X168532150Y-78329520D01*
X168554329Y-78319030D01*
X168577428Y-78310765D01*
X168601227Y-78304804D01*
X168625495Y-78301204D01*
X168649999Y-78300000D01*
X169300001Y-78300000D01*
X169324505Y-78301204D01*
X169324505Y-78301204D01*
G37*
D19*
G04 #@! TD*
G04 #@! TO.P,R27,1*
G04 #@! TO.N,Net-(Q2-Pad2)*
X168975000Y-79000000D03*
D18*
G04 #@! TO.N,Net-(Q1-Pad2)*
G04 #@! TO.C,R28*
G36*
X173324505Y-78301204D02*
X173348773Y-78304804D01*
X173372572Y-78310765D01*
X173395671Y-78319030D01*
X173417850Y-78329520D01*
X173438893Y-78342132D01*
X173458599Y-78356747D01*
X173476777Y-78373223D01*
X173493253Y-78391401D01*
X173507868Y-78411107D01*
X173520480Y-78432150D01*
X173530970Y-78454329D01*
X173539235Y-78477428D01*
X173545196Y-78501227D01*
X173548796Y-78525495D01*
X173550000Y-78549999D01*
X173550000Y-79450001D01*
X173548796Y-79474505D01*
X173545196Y-79498773D01*
X173539235Y-79522572D01*
X173530970Y-79545671D01*
X173520480Y-79567850D01*
X173507868Y-79588893D01*
X173493253Y-79608599D01*
X173476777Y-79626777D01*
X173458599Y-79643253D01*
X173438893Y-79657868D01*
X173417850Y-79670480D01*
X173395671Y-79680970D01*
X173372572Y-79689235D01*
X173348773Y-79695196D01*
X173324505Y-79698796D01*
X173300001Y-79700000D01*
X172649999Y-79700000D01*
X172625495Y-79698796D01*
X172601227Y-79695196D01*
X172577428Y-79689235D01*
X172554329Y-79680970D01*
X172532150Y-79670480D01*
X172511107Y-79657868D01*
X172491401Y-79643253D01*
X172473223Y-79626777D01*
X172456747Y-79608599D01*
X172442132Y-79588893D01*
X172429520Y-79567850D01*
X172419030Y-79545671D01*
X172410765Y-79522572D01*
X172404804Y-79498773D01*
X172401204Y-79474505D01*
X172400000Y-79450001D01*
X172400000Y-78549999D01*
X172401204Y-78525495D01*
X172404804Y-78501227D01*
X172410765Y-78477428D01*
X172419030Y-78454329D01*
X172429520Y-78432150D01*
X172442132Y-78411107D01*
X172456747Y-78391401D01*
X172473223Y-78373223D01*
X172491401Y-78356747D01*
X172511107Y-78342132D01*
X172532150Y-78329520D01*
X172554329Y-78319030D01*
X172577428Y-78310765D01*
X172601227Y-78304804D01*
X172625495Y-78301204D01*
X172649999Y-78300000D01*
X173300001Y-78300000D01*
X173324505Y-78301204D01*
X173324505Y-78301204D01*
G37*
D19*
G04 #@! TD*
G04 #@! TO.P,R28,1*
G04 #@! TO.N,Net-(Q1-Pad2)*
X172975000Y-79000000D03*
D18*
G04 #@! TO.N,Net-(R28-Pad2)*
G04 #@! TO.C,R28*
G36*
X175374505Y-78301204D02*
X175398773Y-78304804D01*
X175422572Y-78310765D01*
X175445671Y-78319030D01*
X175467850Y-78329520D01*
X175488893Y-78342132D01*
X175508599Y-78356747D01*
X175526777Y-78373223D01*
X175543253Y-78391401D01*
X175557868Y-78411107D01*
X175570480Y-78432150D01*
X175580970Y-78454329D01*
X175589235Y-78477428D01*
X175595196Y-78501227D01*
X175598796Y-78525495D01*
X175600000Y-78549999D01*
X175600000Y-79450001D01*
X175598796Y-79474505D01*
X175595196Y-79498773D01*
X175589235Y-79522572D01*
X175580970Y-79545671D01*
X175570480Y-79567850D01*
X175557868Y-79588893D01*
X175543253Y-79608599D01*
X175526777Y-79626777D01*
X175508599Y-79643253D01*
X175488893Y-79657868D01*
X175467850Y-79670480D01*
X175445671Y-79680970D01*
X175422572Y-79689235D01*
X175398773Y-79695196D01*
X175374505Y-79698796D01*
X175350001Y-79700000D01*
X174699999Y-79700000D01*
X174675495Y-79698796D01*
X174651227Y-79695196D01*
X174627428Y-79689235D01*
X174604329Y-79680970D01*
X174582150Y-79670480D01*
X174561107Y-79657868D01*
X174541401Y-79643253D01*
X174523223Y-79626777D01*
X174506747Y-79608599D01*
X174492132Y-79588893D01*
X174479520Y-79567850D01*
X174469030Y-79545671D01*
X174460765Y-79522572D01*
X174454804Y-79498773D01*
X174451204Y-79474505D01*
X174450000Y-79450001D01*
X174450000Y-78549999D01*
X174451204Y-78525495D01*
X174454804Y-78501227D01*
X174460765Y-78477428D01*
X174469030Y-78454329D01*
X174479520Y-78432150D01*
X174492132Y-78411107D01*
X174506747Y-78391401D01*
X174523223Y-78373223D01*
X174541401Y-78356747D01*
X174561107Y-78342132D01*
X174582150Y-78329520D01*
X174604329Y-78319030D01*
X174627428Y-78310765D01*
X174651227Y-78304804D01*
X174675495Y-78301204D01*
X174699999Y-78300000D01*
X175350001Y-78300000D01*
X175374505Y-78301204D01*
X175374505Y-78301204D01*
G37*
D19*
G04 #@! TD*
G04 #@! TO.P,R28,2*
G04 #@! TO.N,Net-(R28-Pad2)*
X175025000Y-79000000D03*
D18*
G04 #@! TO.N,LED1*
G04 #@! TO.C,R17*
G36*
X161474505Y-52401204D02*
X161498773Y-52404804D01*
X161522572Y-52410765D01*
X161545671Y-52419030D01*
X161567850Y-52429520D01*
X161588893Y-52442132D01*
X161608599Y-52456747D01*
X161626777Y-52473223D01*
X161643253Y-52491401D01*
X161657868Y-52511107D01*
X161670480Y-52532150D01*
X161680970Y-52554329D01*
X161689235Y-52577428D01*
X161695196Y-52601227D01*
X161698796Y-52625495D01*
X161700000Y-52649999D01*
X161700000Y-53300001D01*
X161698796Y-53324505D01*
X161695196Y-53348773D01*
X161689235Y-53372572D01*
X161680970Y-53395671D01*
X161670480Y-53417850D01*
X161657868Y-53438893D01*
X161643253Y-53458599D01*
X161626777Y-53476777D01*
X161608599Y-53493253D01*
X161588893Y-53507868D01*
X161567850Y-53520480D01*
X161545671Y-53530970D01*
X161522572Y-53539235D01*
X161498773Y-53545196D01*
X161474505Y-53548796D01*
X161450001Y-53550000D01*
X160549999Y-53550000D01*
X160525495Y-53548796D01*
X160501227Y-53545196D01*
X160477428Y-53539235D01*
X160454329Y-53530970D01*
X160432150Y-53520480D01*
X160411107Y-53507868D01*
X160391401Y-53493253D01*
X160373223Y-53476777D01*
X160356747Y-53458599D01*
X160342132Y-53438893D01*
X160329520Y-53417850D01*
X160319030Y-53395671D01*
X160310765Y-53372572D01*
X160304804Y-53348773D01*
X160301204Y-53324505D01*
X160300000Y-53300001D01*
X160300000Y-52649999D01*
X160301204Y-52625495D01*
X160304804Y-52601227D01*
X160310765Y-52577428D01*
X160319030Y-52554329D01*
X160329520Y-52532150D01*
X160342132Y-52511107D01*
X160356747Y-52491401D01*
X160373223Y-52473223D01*
X160391401Y-52456747D01*
X160411107Y-52442132D01*
X160432150Y-52429520D01*
X160454329Y-52419030D01*
X160477428Y-52410765D01*
X160501227Y-52404804D01*
X160525495Y-52401204D01*
X160549999Y-52400000D01*
X161450001Y-52400000D01*
X161474505Y-52401204D01*
X161474505Y-52401204D01*
G37*
D19*
G04 #@! TD*
G04 #@! TO.P,R17,1*
G04 #@! TO.N,LED1*
X161000000Y-52975000D03*
D18*
G04 #@! TO.N,Net-(R17-Pad2)*
G04 #@! TO.C,R17*
G36*
X161474505Y-54451204D02*
X161498773Y-54454804D01*
X161522572Y-54460765D01*
X161545671Y-54469030D01*
X161567850Y-54479520D01*
X161588893Y-54492132D01*
X161608599Y-54506747D01*
X161626777Y-54523223D01*
X161643253Y-54541401D01*
X161657868Y-54561107D01*
X161670480Y-54582150D01*
X161680970Y-54604329D01*
X161689235Y-54627428D01*
X161695196Y-54651227D01*
X161698796Y-54675495D01*
X161700000Y-54699999D01*
X161700000Y-55350001D01*
X161698796Y-55374505D01*
X161695196Y-55398773D01*
X161689235Y-55422572D01*
X161680970Y-55445671D01*
X161670480Y-55467850D01*
X161657868Y-55488893D01*
X161643253Y-55508599D01*
X161626777Y-55526777D01*
X161608599Y-55543253D01*
X161588893Y-55557868D01*
X161567850Y-55570480D01*
X161545671Y-55580970D01*
X161522572Y-55589235D01*
X161498773Y-55595196D01*
X161474505Y-55598796D01*
X161450001Y-55600000D01*
X160549999Y-55600000D01*
X160525495Y-55598796D01*
X160501227Y-55595196D01*
X160477428Y-55589235D01*
X160454329Y-55580970D01*
X160432150Y-55570480D01*
X160411107Y-55557868D01*
X160391401Y-55543253D01*
X160373223Y-55526777D01*
X160356747Y-55508599D01*
X160342132Y-55488893D01*
X160329520Y-55467850D01*
X160319030Y-55445671D01*
X160310765Y-55422572D01*
X160304804Y-55398773D01*
X160301204Y-55374505D01*
X160300000Y-55350001D01*
X160300000Y-54699999D01*
X160301204Y-54675495D01*
X160304804Y-54651227D01*
X160310765Y-54627428D01*
X160319030Y-54604329D01*
X160329520Y-54582150D01*
X160342132Y-54561107D01*
X160356747Y-54541401D01*
X160373223Y-54523223D01*
X160391401Y-54506747D01*
X160411107Y-54492132D01*
X160432150Y-54479520D01*
X160454329Y-54469030D01*
X160477428Y-54460765D01*
X160501227Y-54454804D01*
X160525495Y-54451204D01*
X160549999Y-54450000D01*
X161450001Y-54450000D01*
X161474505Y-54451204D01*
X161474505Y-54451204D01*
G37*
D19*
G04 #@! TD*
G04 #@! TO.P,R17,2*
G04 #@! TO.N,Net-(R17-Pad2)*
X161000000Y-55025000D03*
D18*
G04 #@! TO.N,Net-(R18-Pad2)*
G04 #@! TO.C,R18*
G36*
X163474505Y-54451204D02*
X163498773Y-54454804D01*
X163522572Y-54460765D01*
X163545671Y-54469030D01*
X163567850Y-54479520D01*
X163588893Y-54492132D01*
X163608599Y-54506747D01*
X163626777Y-54523223D01*
X163643253Y-54541401D01*
X163657868Y-54561107D01*
X163670480Y-54582150D01*
X163680970Y-54604329D01*
X163689235Y-54627428D01*
X163695196Y-54651227D01*
X163698796Y-54675495D01*
X163700000Y-54699999D01*
X163700000Y-55350001D01*
X163698796Y-55374505D01*
X163695196Y-55398773D01*
X163689235Y-55422572D01*
X163680970Y-55445671D01*
X163670480Y-55467850D01*
X163657868Y-55488893D01*
X163643253Y-55508599D01*
X163626777Y-55526777D01*
X163608599Y-55543253D01*
X163588893Y-55557868D01*
X163567850Y-55570480D01*
X163545671Y-55580970D01*
X163522572Y-55589235D01*
X163498773Y-55595196D01*
X163474505Y-55598796D01*
X163450001Y-55600000D01*
X162549999Y-55600000D01*
X162525495Y-55598796D01*
X162501227Y-55595196D01*
X162477428Y-55589235D01*
X162454329Y-55580970D01*
X162432150Y-55570480D01*
X162411107Y-55557868D01*
X162391401Y-55543253D01*
X162373223Y-55526777D01*
X162356747Y-55508599D01*
X162342132Y-55488893D01*
X162329520Y-55467850D01*
X162319030Y-55445671D01*
X162310765Y-55422572D01*
X162304804Y-55398773D01*
X162301204Y-55374505D01*
X162300000Y-55350001D01*
X162300000Y-54699999D01*
X162301204Y-54675495D01*
X162304804Y-54651227D01*
X162310765Y-54627428D01*
X162319030Y-54604329D01*
X162329520Y-54582150D01*
X162342132Y-54561107D01*
X162356747Y-54541401D01*
X162373223Y-54523223D01*
X162391401Y-54506747D01*
X162411107Y-54492132D01*
X162432150Y-54479520D01*
X162454329Y-54469030D01*
X162477428Y-54460765D01*
X162501227Y-54454804D01*
X162525495Y-54451204D01*
X162549999Y-54450000D01*
X163450001Y-54450000D01*
X163474505Y-54451204D01*
X163474505Y-54451204D01*
G37*
D19*
G04 #@! TD*
G04 #@! TO.P,R18,2*
G04 #@! TO.N,Net-(R18-Pad2)*
X163000000Y-55025000D03*
D18*
G04 #@! TO.N,LED2*
G04 #@! TO.C,R18*
G36*
X163474505Y-52401204D02*
X163498773Y-52404804D01*
X163522572Y-52410765D01*
X163545671Y-52419030D01*
X163567850Y-52429520D01*
X163588893Y-52442132D01*
X163608599Y-52456747D01*
X163626777Y-52473223D01*
X163643253Y-52491401D01*
X163657868Y-52511107D01*
X163670480Y-52532150D01*
X163680970Y-52554329D01*
X163689235Y-52577428D01*
X163695196Y-52601227D01*
X163698796Y-52625495D01*
X163700000Y-52649999D01*
X163700000Y-53300001D01*
X163698796Y-53324505D01*
X163695196Y-53348773D01*
X163689235Y-53372572D01*
X163680970Y-53395671D01*
X163670480Y-53417850D01*
X163657868Y-53438893D01*
X163643253Y-53458599D01*
X163626777Y-53476777D01*
X163608599Y-53493253D01*
X163588893Y-53507868D01*
X163567850Y-53520480D01*
X163545671Y-53530970D01*
X163522572Y-53539235D01*
X163498773Y-53545196D01*
X163474505Y-53548796D01*
X163450001Y-53550000D01*
X162549999Y-53550000D01*
X162525495Y-53548796D01*
X162501227Y-53545196D01*
X162477428Y-53539235D01*
X162454329Y-53530970D01*
X162432150Y-53520480D01*
X162411107Y-53507868D01*
X162391401Y-53493253D01*
X162373223Y-53476777D01*
X162356747Y-53458599D01*
X162342132Y-53438893D01*
X162329520Y-53417850D01*
X162319030Y-53395671D01*
X162310765Y-53372572D01*
X162304804Y-53348773D01*
X162301204Y-53324505D01*
X162300000Y-53300001D01*
X162300000Y-52649999D01*
X162301204Y-52625495D01*
X162304804Y-52601227D01*
X162310765Y-52577428D01*
X162319030Y-52554329D01*
X162329520Y-52532150D01*
X162342132Y-52511107D01*
X162356747Y-52491401D01*
X162373223Y-52473223D01*
X162391401Y-52456747D01*
X162411107Y-52442132D01*
X162432150Y-52429520D01*
X162454329Y-52419030D01*
X162477428Y-52410765D01*
X162501227Y-52404804D01*
X162525495Y-52401204D01*
X162549999Y-52400000D01*
X163450001Y-52400000D01*
X163474505Y-52401204D01*
X163474505Y-52401204D01*
G37*
D19*
G04 #@! TD*
G04 #@! TO.P,R18,1*
G04 #@! TO.N,LED2*
X163000000Y-52975000D03*
D18*
G04 #@! TO.N,LED3*
G04 #@! TO.C,R19*
G36*
X165474505Y-52401204D02*
X165498773Y-52404804D01*
X165522572Y-52410765D01*
X165545671Y-52419030D01*
X165567850Y-52429520D01*
X165588893Y-52442132D01*
X165608599Y-52456747D01*
X165626777Y-52473223D01*
X165643253Y-52491401D01*
X165657868Y-52511107D01*
X165670480Y-52532150D01*
X165680970Y-52554329D01*
X165689235Y-52577428D01*
X165695196Y-52601227D01*
X165698796Y-52625495D01*
X165700000Y-52649999D01*
X165700000Y-53300001D01*
X165698796Y-53324505D01*
X165695196Y-53348773D01*
X165689235Y-53372572D01*
X165680970Y-53395671D01*
X165670480Y-53417850D01*
X165657868Y-53438893D01*
X165643253Y-53458599D01*
X165626777Y-53476777D01*
X165608599Y-53493253D01*
X165588893Y-53507868D01*
X165567850Y-53520480D01*
X165545671Y-53530970D01*
X165522572Y-53539235D01*
X165498773Y-53545196D01*
X165474505Y-53548796D01*
X165450001Y-53550000D01*
X164549999Y-53550000D01*
X164525495Y-53548796D01*
X164501227Y-53545196D01*
X164477428Y-53539235D01*
X164454329Y-53530970D01*
X164432150Y-53520480D01*
X164411107Y-53507868D01*
X164391401Y-53493253D01*
X164373223Y-53476777D01*
X164356747Y-53458599D01*
X164342132Y-53438893D01*
X164329520Y-53417850D01*
X164319030Y-53395671D01*
X164310765Y-53372572D01*
X164304804Y-53348773D01*
X164301204Y-53324505D01*
X164300000Y-53300001D01*
X164300000Y-52649999D01*
X164301204Y-52625495D01*
X164304804Y-52601227D01*
X164310765Y-52577428D01*
X164319030Y-52554329D01*
X164329520Y-52532150D01*
X164342132Y-52511107D01*
X164356747Y-52491401D01*
X164373223Y-52473223D01*
X164391401Y-52456747D01*
X164411107Y-52442132D01*
X164432150Y-52429520D01*
X164454329Y-52419030D01*
X164477428Y-52410765D01*
X164501227Y-52404804D01*
X164525495Y-52401204D01*
X164549999Y-52400000D01*
X165450001Y-52400000D01*
X165474505Y-52401204D01*
X165474505Y-52401204D01*
G37*
D19*
G04 #@! TD*
G04 #@! TO.P,R19,1*
G04 #@! TO.N,LED3*
X165000000Y-52975000D03*
D18*
G04 #@! TO.N,Net-(R19-Pad2)*
G04 #@! TO.C,R19*
G36*
X165474505Y-54451204D02*
X165498773Y-54454804D01*
X165522572Y-54460765D01*
X165545671Y-54469030D01*
X165567850Y-54479520D01*
X165588893Y-54492132D01*
X165608599Y-54506747D01*
X165626777Y-54523223D01*
X165643253Y-54541401D01*
X165657868Y-54561107D01*
X165670480Y-54582150D01*
X165680970Y-54604329D01*
X165689235Y-54627428D01*
X165695196Y-54651227D01*
X165698796Y-54675495D01*
X165700000Y-54699999D01*
X165700000Y-55350001D01*
X165698796Y-55374505D01*
X165695196Y-55398773D01*
X165689235Y-55422572D01*
X165680970Y-55445671D01*
X165670480Y-55467850D01*
X165657868Y-55488893D01*
X165643253Y-55508599D01*
X165626777Y-55526777D01*
X165608599Y-55543253D01*
X165588893Y-55557868D01*
X165567850Y-55570480D01*
X165545671Y-55580970D01*
X165522572Y-55589235D01*
X165498773Y-55595196D01*
X165474505Y-55598796D01*
X165450001Y-55600000D01*
X164549999Y-55600000D01*
X164525495Y-55598796D01*
X164501227Y-55595196D01*
X164477428Y-55589235D01*
X164454329Y-55580970D01*
X164432150Y-55570480D01*
X164411107Y-55557868D01*
X164391401Y-55543253D01*
X164373223Y-55526777D01*
X164356747Y-55508599D01*
X164342132Y-55488893D01*
X164329520Y-55467850D01*
X164319030Y-55445671D01*
X164310765Y-55422572D01*
X164304804Y-55398773D01*
X164301204Y-55374505D01*
X164300000Y-55350001D01*
X164300000Y-54699999D01*
X164301204Y-54675495D01*
X164304804Y-54651227D01*
X164310765Y-54627428D01*
X164319030Y-54604329D01*
X164329520Y-54582150D01*
X164342132Y-54561107D01*
X164356747Y-54541401D01*
X164373223Y-54523223D01*
X164391401Y-54506747D01*
X164411107Y-54492132D01*
X164432150Y-54479520D01*
X164454329Y-54469030D01*
X164477428Y-54460765D01*
X164501227Y-54454804D01*
X164525495Y-54451204D01*
X164549999Y-54450000D01*
X165450001Y-54450000D01*
X165474505Y-54451204D01*
X165474505Y-54451204D01*
G37*
D19*
G04 #@! TD*
G04 #@! TO.P,R19,2*
G04 #@! TO.N,Net-(R19-Pad2)*
X165000000Y-55025000D03*
D18*
G04 #@! TO.N,Net-(R20-Pad2)*
G04 #@! TO.C,R20*
G36*
X167474505Y-54451204D02*
X167498773Y-54454804D01*
X167522572Y-54460765D01*
X167545671Y-54469030D01*
X167567850Y-54479520D01*
X167588893Y-54492132D01*
X167608599Y-54506747D01*
X167626777Y-54523223D01*
X167643253Y-54541401D01*
X167657868Y-54561107D01*
X167670480Y-54582150D01*
X167680970Y-54604329D01*
X167689235Y-54627428D01*
X167695196Y-54651227D01*
X167698796Y-54675495D01*
X167700000Y-54699999D01*
X167700000Y-55350001D01*
X167698796Y-55374505D01*
X167695196Y-55398773D01*
X167689235Y-55422572D01*
X167680970Y-55445671D01*
X167670480Y-55467850D01*
X167657868Y-55488893D01*
X167643253Y-55508599D01*
X167626777Y-55526777D01*
X167608599Y-55543253D01*
X167588893Y-55557868D01*
X167567850Y-55570480D01*
X167545671Y-55580970D01*
X167522572Y-55589235D01*
X167498773Y-55595196D01*
X167474505Y-55598796D01*
X167450001Y-55600000D01*
X166549999Y-55600000D01*
X166525495Y-55598796D01*
X166501227Y-55595196D01*
X166477428Y-55589235D01*
X166454329Y-55580970D01*
X166432150Y-55570480D01*
X166411107Y-55557868D01*
X166391401Y-55543253D01*
X166373223Y-55526777D01*
X166356747Y-55508599D01*
X166342132Y-55488893D01*
X166329520Y-55467850D01*
X166319030Y-55445671D01*
X166310765Y-55422572D01*
X166304804Y-55398773D01*
X166301204Y-55374505D01*
X166300000Y-55350001D01*
X166300000Y-54699999D01*
X166301204Y-54675495D01*
X166304804Y-54651227D01*
X166310765Y-54627428D01*
X166319030Y-54604329D01*
X166329520Y-54582150D01*
X166342132Y-54561107D01*
X166356747Y-54541401D01*
X166373223Y-54523223D01*
X166391401Y-54506747D01*
X166411107Y-54492132D01*
X166432150Y-54479520D01*
X166454329Y-54469030D01*
X166477428Y-54460765D01*
X166501227Y-54454804D01*
X166525495Y-54451204D01*
X166549999Y-54450000D01*
X167450001Y-54450000D01*
X167474505Y-54451204D01*
X167474505Y-54451204D01*
G37*
D19*
G04 #@! TD*
G04 #@! TO.P,R20,2*
G04 #@! TO.N,Net-(R20-Pad2)*
X167000000Y-55025000D03*
D18*
G04 #@! TO.N,LED4*
G04 #@! TO.C,R20*
G36*
X167474505Y-52401204D02*
X167498773Y-52404804D01*
X167522572Y-52410765D01*
X167545671Y-52419030D01*
X167567850Y-52429520D01*
X167588893Y-52442132D01*
X167608599Y-52456747D01*
X167626777Y-52473223D01*
X167643253Y-52491401D01*
X167657868Y-52511107D01*
X167670480Y-52532150D01*
X167680970Y-52554329D01*
X167689235Y-52577428D01*
X167695196Y-52601227D01*
X167698796Y-52625495D01*
X167700000Y-52649999D01*
X167700000Y-53300001D01*
X167698796Y-53324505D01*
X167695196Y-53348773D01*
X167689235Y-53372572D01*
X167680970Y-53395671D01*
X167670480Y-53417850D01*
X167657868Y-53438893D01*
X167643253Y-53458599D01*
X167626777Y-53476777D01*
X167608599Y-53493253D01*
X167588893Y-53507868D01*
X167567850Y-53520480D01*
X167545671Y-53530970D01*
X167522572Y-53539235D01*
X167498773Y-53545196D01*
X167474505Y-53548796D01*
X167450001Y-53550000D01*
X166549999Y-53550000D01*
X166525495Y-53548796D01*
X166501227Y-53545196D01*
X166477428Y-53539235D01*
X166454329Y-53530970D01*
X166432150Y-53520480D01*
X166411107Y-53507868D01*
X166391401Y-53493253D01*
X166373223Y-53476777D01*
X166356747Y-53458599D01*
X166342132Y-53438893D01*
X166329520Y-53417850D01*
X166319030Y-53395671D01*
X166310765Y-53372572D01*
X166304804Y-53348773D01*
X166301204Y-53324505D01*
X166300000Y-53300001D01*
X166300000Y-52649999D01*
X166301204Y-52625495D01*
X166304804Y-52601227D01*
X166310765Y-52577428D01*
X166319030Y-52554329D01*
X166329520Y-52532150D01*
X166342132Y-52511107D01*
X166356747Y-52491401D01*
X166373223Y-52473223D01*
X166391401Y-52456747D01*
X166411107Y-52442132D01*
X166432150Y-52429520D01*
X166454329Y-52419030D01*
X166477428Y-52410765D01*
X166501227Y-52404804D01*
X166525495Y-52401204D01*
X166549999Y-52400000D01*
X167450001Y-52400000D01*
X167474505Y-52401204D01*
X167474505Y-52401204D01*
G37*
D19*
G04 #@! TD*
G04 #@! TO.P,R20,1*
G04 #@! TO.N,LED4*
X167000000Y-52975000D03*
D18*
G04 #@! TO.N,LED5*
G04 #@! TO.C,R21*
G36*
X169474505Y-52401204D02*
X169498773Y-52404804D01*
X169522572Y-52410765D01*
X169545671Y-52419030D01*
X169567850Y-52429520D01*
X169588893Y-52442132D01*
X169608599Y-52456747D01*
X169626777Y-52473223D01*
X169643253Y-52491401D01*
X169657868Y-52511107D01*
X169670480Y-52532150D01*
X169680970Y-52554329D01*
X169689235Y-52577428D01*
X169695196Y-52601227D01*
X169698796Y-52625495D01*
X169700000Y-52649999D01*
X169700000Y-53300001D01*
X169698796Y-53324505D01*
X169695196Y-53348773D01*
X169689235Y-53372572D01*
X169680970Y-53395671D01*
X169670480Y-53417850D01*
X169657868Y-53438893D01*
X169643253Y-53458599D01*
X169626777Y-53476777D01*
X169608599Y-53493253D01*
X169588893Y-53507868D01*
X169567850Y-53520480D01*
X169545671Y-53530970D01*
X169522572Y-53539235D01*
X169498773Y-53545196D01*
X169474505Y-53548796D01*
X169450001Y-53550000D01*
X168549999Y-53550000D01*
X168525495Y-53548796D01*
X168501227Y-53545196D01*
X168477428Y-53539235D01*
X168454329Y-53530970D01*
X168432150Y-53520480D01*
X168411107Y-53507868D01*
X168391401Y-53493253D01*
X168373223Y-53476777D01*
X168356747Y-53458599D01*
X168342132Y-53438893D01*
X168329520Y-53417850D01*
X168319030Y-53395671D01*
X168310765Y-53372572D01*
X168304804Y-53348773D01*
X168301204Y-53324505D01*
X168300000Y-53300001D01*
X168300000Y-52649999D01*
X168301204Y-52625495D01*
X168304804Y-52601227D01*
X168310765Y-52577428D01*
X168319030Y-52554329D01*
X168329520Y-52532150D01*
X168342132Y-52511107D01*
X168356747Y-52491401D01*
X168373223Y-52473223D01*
X168391401Y-52456747D01*
X168411107Y-52442132D01*
X168432150Y-52429520D01*
X168454329Y-52419030D01*
X168477428Y-52410765D01*
X168501227Y-52404804D01*
X168525495Y-52401204D01*
X168549999Y-52400000D01*
X169450001Y-52400000D01*
X169474505Y-52401204D01*
X169474505Y-52401204D01*
G37*
D19*
G04 #@! TD*
G04 #@! TO.P,R21,1*
G04 #@! TO.N,LED5*
X169000000Y-52975000D03*
D18*
G04 #@! TO.N,Net-(R21-Pad2)*
G04 #@! TO.C,R21*
G36*
X169474505Y-54451204D02*
X169498773Y-54454804D01*
X169522572Y-54460765D01*
X169545671Y-54469030D01*
X169567850Y-54479520D01*
X169588893Y-54492132D01*
X169608599Y-54506747D01*
X169626777Y-54523223D01*
X169643253Y-54541401D01*
X169657868Y-54561107D01*
X169670480Y-54582150D01*
X169680970Y-54604329D01*
X169689235Y-54627428D01*
X169695196Y-54651227D01*
X169698796Y-54675495D01*
X169700000Y-54699999D01*
X169700000Y-55350001D01*
X169698796Y-55374505D01*
X169695196Y-55398773D01*
X169689235Y-55422572D01*
X169680970Y-55445671D01*
X169670480Y-55467850D01*
X169657868Y-55488893D01*
X169643253Y-55508599D01*
X169626777Y-55526777D01*
X169608599Y-55543253D01*
X169588893Y-55557868D01*
X169567850Y-55570480D01*
X169545671Y-55580970D01*
X169522572Y-55589235D01*
X169498773Y-55595196D01*
X169474505Y-55598796D01*
X169450001Y-55600000D01*
X168549999Y-55600000D01*
X168525495Y-55598796D01*
X168501227Y-55595196D01*
X168477428Y-55589235D01*
X168454329Y-55580970D01*
X168432150Y-55570480D01*
X168411107Y-55557868D01*
X168391401Y-55543253D01*
X168373223Y-55526777D01*
X168356747Y-55508599D01*
X168342132Y-55488893D01*
X168329520Y-55467850D01*
X168319030Y-55445671D01*
X168310765Y-55422572D01*
X168304804Y-55398773D01*
X168301204Y-55374505D01*
X168300000Y-55350001D01*
X168300000Y-54699999D01*
X168301204Y-54675495D01*
X168304804Y-54651227D01*
X168310765Y-54627428D01*
X168319030Y-54604329D01*
X168329520Y-54582150D01*
X168342132Y-54561107D01*
X168356747Y-54541401D01*
X168373223Y-54523223D01*
X168391401Y-54506747D01*
X168411107Y-54492132D01*
X168432150Y-54479520D01*
X168454329Y-54469030D01*
X168477428Y-54460765D01*
X168501227Y-54454804D01*
X168525495Y-54451204D01*
X168549999Y-54450000D01*
X169450001Y-54450000D01*
X169474505Y-54451204D01*
X169474505Y-54451204D01*
G37*
D19*
G04 #@! TD*
G04 #@! TO.P,R21,2*
G04 #@! TO.N,Net-(R21-Pad2)*
X169000000Y-55025000D03*
D18*
G04 #@! TO.N,Net-(R22-Pad2)*
G04 #@! TO.C,R22*
G36*
X171474505Y-54451204D02*
X171498773Y-54454804D01*
X171522572Y-54460765D01*
X171545671Y-54469030D01*
X171567850Y-54479520D01*
X171588893Y-54492132D01*
X171608599Y-54506747D01*
X171626777Y-54523223D01*
X171643253Y-54541401D01*
X171657868Y-54561107D01*
X171670480Y-54582150D01*
X171680970Y-54604329D01*
X171689235Y-54627428D01*
X171695196Y-54651227D01*
X171698796Y-54675495D01*
X171700000Y-54699999D01*
X171700000Y-55350001D01*
X171698796Y-55374505D01*
X171695196Y-55398773D01*
X171689235Y-55422572D01*
X171680970Y-55445671D01*
X171670480Y-55467850D01*
X171657868Y-55488893D01*
X171643253Y-55508599D01*
X171626777Y-55526777D01*
X171608599Y-55543253D01*
X171588893Y-55557868D01*
X171567850Y-55570480D01*
X171545671Y-55580970D01*
X171522572Y-55589235D01*
X171498773Y-55595196D01*
X171474505Y-55598796D01*
X171450001Y-55600000D01*
X170549999Y-55600000D01*
X170525495Y-55598796D01*
X170501227Y-55595196D01*
X170477428Y-55589235D01*
X170454329Y-55580970D01*
X170432150Y-55570480D01*
X170411107Y-55557868D01*
X170391401Y-55543253D01*
X170373223Y-55526777D01*
X170356747Y-55508599D01*
X170342132Y-55488893D01*
X170329520Y-55467850D01*
X170319030Y-55445671D01*
X170310765Y-55422572D01*
X170304804Y-55398773D01*
X170301204Y-55374505D01*
X170300000Y-55350001D01*
X170300000Y-54699999D01*
X170301204Y-54675495D01*
X170304804Y-54651227D01*
X170310765Y-54627428D01*
X170319030Y-54604329D01*
X170329520Y-54582150D01*
X170342132Y-54561107D01*
X170356747Y-54541401D01*
X170373223Y-54523223D01*
X170391401Y-54506747D01*
X170411107Y-54492132D01*
X170432150Y-54479520D01*
X170454329Y-54469030D01*
X170477428Y-54460765D01*
X170501227Y-54454804D01*
X170525495Y-54451204D01*
X170549999Y-54450000D01*
X171450001Y-54450000D01*
X171474505Y-54451204D01*
X171474505Y-54451204D01*
G37*
D19*
G04 #@! TD*
G04 #@! TO.P,R22,2*
G04 #@! TO.N,Net-(R22-Pad2)*
X171000000Y-55025000D03*
D18*
G04 #@! TO.N,LED6*
G04 #@! TO.C,R22*
G36*
X171474505Y-52401204D02*
X171498773Y-52404804D01*
X171522572Y-52410765D01*
X171545671Y-52419030D01*
X171567850Y-52429520D01*
X171588893Y-52442132D01*
X171608599Y-52456747D01*
X171626777Y-52473223D01*
X171643253Y-52491401D01*
X171657868Y-52511107D01*
X171670480Y-52532150D01*
X171680970Y-52554329D01*
X171689235Y-52577428D01*
X171695196Y-52601227D01*
X171698796Y-52625495D01*
X171700000Y-52649999D01*
X171700000Y-53300001D01*
X171698796Y-53324505D01*
X171695196Y-53348773D01*
X171689235Y-53372572D01*
X171680970Y-53395671D01*
X171670480Y-53417850D01*
X171657868Y-53438893D01*
X171643253Y-53458599D01*
X171626777Y-53476777D01*
X171608599Y-53493253D01*
X171588893Y-53507868D01*
X171567850Y-53520480D01*
X171545671Y-53530970D01*
X171522572Y-53539235D01*
X171498773Y-53545196D01*
X171474505Y-53548796D01*
X171450001Y-53550000D01*
X170549999Y-53550000D01*
X170525495Y-53548796D01*
X170501227Y-53545196D01*
X170477428Y-53539235D01*
X170454329Y-53530970D01*
X170432150Y-53520480D01*
X170411107Y-53507868D01*
X170391401Y-53493253D01*
X170373223Y-53476777D01*
X170356747Y-53458599D01*
X170342132Y-53438893D01*
X170329520Y-53417850D01*
X170319030Y-53395671D01*
X170310765Y-53372572D01*
X170304804Y-53348773D01*
X170301204Y-53324505D01*
X170300000Y-53300001D01*
X170300000Y-52649999D01*
X170301204Y-52625495D01*
X170304804Y-52601227D01*
X170310765Y-52577428D01*
X170319030Y-52554329D01*
X170329520Y-52532150D01*
X170342132Y-52511107D01*
X170356747Y-52491401D01*
X170373223Y-52473223D01*
X170391401Y-52456747D01*
X170411107Y-52442132D01*
X170432150Y-52429520D01*
X170454329Y-52419030D01*
X170477428Y-52410765D01*
X170501227Y-52404804D01*
X170525495Y-52401204D01*
X170549999Y-52400000D01*
X171450001Y-52400000D01*
X171474505Y-52401204D01*
X171474505Y-52401204D01*
G37*
D19*
G04 #@! TD*
G04 #@! TO.P,R22,1*
G04 #@! TO.N,LED6*
X171000000Y-52975000D03*
D18*
G04 #@! TO.N,LED7*
G04 #@! TO.C,R23*
G36*
X173474505Y-52401204D02*
X173498773Y-52404804D01*
X173522572Y-52410765D01*
X173545671Y-52419030D01*
X173567850Y-52429520D01*
X173588893Y-52442132D01*
X173608599Y-52456747D01*
X173626777Y-52473223D01*
X173643253Y-52491401D01*
X173657868Y-52511107D01*
X173670480Y-52532150D01*
X173680970Y-52554329D01*
X173689235Y-52577428D01*
X173695196Y-52601227D01*
X173698796Y-52625495D01*
X173700000Y-52649999D01*
X173700000Y-53300001D01*
X173698796Y-53324505D01*
X173695196Y-53348773D01*
X173689235Y-53372572D01*
X173680970Y-53395671D01*
X173670480Y-53417850D01*
X173657868Y-53438893D01*
X173643253Y-53458599D01*
X173626777Y-53476777D01*
X173608599Y-53493253D01*
X173588893Y-53507868D01*
X173567850Y-53520480D01*
X173545671Y-53530970D01*
X173522572Y-53539235D01*
X173498773Y-53545196D01*
X173474505Y-53548796D01*
X173450001Y-53550000D01*
X172549999Y-53550000D01*
X172525495Y-53548796D01*
X172501227Y-53545196D01*
X172477428Y-53539235D01*
X172454329Y-53530970D01*
X172432150Y-53520480D01*
X172411107Y-53507868D01*
X172391401Y-53493253D01*
X172373223Y-53476777D01*
X172356747Y-53458599D01*
X172342132Y-53438893D01*
X172329520Y-53417850D01*
X172319030Y-53395671D01*
X172310765Y-53372572D01*
X172304804Y-53348773D01*
X172301204Y-53324505D01*
X172300000Y-53300001D01*
X172300000Y-52649999D01*
X172301204Y-52625495D01*
X172304804Y-52601227D01*
X172310765Y-52577428D01*
X172319030Y-52554329D01*
X172329520Y-52532150D01*
X172342132Y-52511107D01*
X172356747Y-52491401D01*
X172373223Y-52473223D01*
X172391401Y-52456747D01*
X172411107Y-52442132D01*
X172432150Y-52429520D01*
X172454329Y-52419030D01*
X172477428Y-52410765D01*
X172501227Y-52404804D01*
X172525495Y-52401204D01*
X172549999Y-52400000D01*
X173450001Y-52400000D01*
X173474505Y-52401204D01*
X173474505Y-52401204D01*
G37*
D19*
G04 #@! TD*
G04 #@! TO.P,R23,1*
G04 #@! TO.N,LED7*
X173000000Y-52975000D03*
D18*
G04 #@! TO.N,Net-(R23-Pad2)*
G04 #@! TO.C,R23*
G36*
X173474505Y-54451204D02*
X173498773Y-54454804D01*
X173522572Y-54460765D01*
X173545671Y-54469030D01*
X173567850Y-54479520D01*
X173588893Y-54492132D01*
X173608599Y-54506747D01*
X173626777Y-54523223D01*
X173643253Y-54541401D01*
X173657868Y-54561107D01*
X173670480Y-54582150D01*
X173680970Y-54604329D01*
X173689235Y-54627428D01*
X173695196Y-54651227D01*
X173698796Y-54675495D01*
X173700000Y-54699999D01*
X173700000Y-55350001D01*
X173698796Y-55374505D01*
X173695196Y-55398773D01*
X173689235Y-55422572D01*
X173680970Y-55445671D01*
X173670480Y-55467850D01*
X173657868Y-55488893D01*
X173643253Y-55508599D01*
X173626777Y-55526777D01*
X173608599Y-55543253D01*
X173588893Y-55557868D01*
X173567850Y-55570480D01*
X173545671Y-55580970D01*
X173522572Y-55589235D01*
X173498773Y-55595196D01*
X173474505Y-55598796D01*
X173450001Y-55600000D01*
X172549999Y-55600000D01*
X172525495Y-55598796D01*
X172501227Y-55595196D01*
X172477428Y-55589235D01*
X172454329Y-55580970D01*
X172432150Y-55570480D01*
X172411107Y-55557868D01*
X172391401Y-55543253D01*
X172373223Y-55526777D01*
X172356747Y-55508599D01*
X172342132Y-55488893D01*
X172329520Y-55467850D01*
X172319030Y-55445671D01*
X172310765Y-55422572D01*
X172304804Y-55398773D01*
X172301204Y-55374505D01*
X172300000Y-55350001D01*
X172300000Y-54699999D01*
X172301204Y-54675495D01*
X172304804Y-54651227D01*
X172310765Y-54627428D01*
X172319030Y-54604329D01*
X172329520Y-54582150D01*
X172342132Y-54561107D01*
X172356747Y-54541401D01*
X172373223Y-54523223D01*
X172391401Y-54506747D01*
X172411107Y-54492132D01*
X172432150Y-54479520D01*
X172454329Y-54469030D01*
X172477428Y-54460765D01*
X172501227Y-54454804D01*
X172525495Y-54451204D01*
X172549999Y-54450000D01*
X173450001Y-54450000D01*
X173474505Y-54451204D01*
X173474505Y-54451204D01*
G37*
D19*
G04 #@! TD*
G04 #@! TO.P,R23,2*
G04 #@! TO.N,Net-(R23-Pad2)*
X173000000Y-55025000D03*
D18*
G04 #@! TO.N,Net-(R24-Pad2)*
G04 #@! TO.C,R24*
G36*
X175474505Y-54451204D02*
X175498773Y-54454804D01*
X175522572Y-54460765D01*
X175545671Y-54469030D01*
X175567850Y-54479520D01*
X175588893Y-54492132D01*
X175608599Y-54506747D01*
X175626777Y-54523223D01*
X175643253Y-54541401D01*
X175657868Y-54561107D01*
X175670480Y-54582150D01*
X175680970Y-54604329D01*
X175689235Y-54627428D01*
X175695196Y-54651227D01*
X175698796Y-54675495D01*
X175700000Y-54699999D01*
X175700000Y-55350001D01*
X175698796Y-55374505D01*
X175695196Y-55398773D01*
X175689235Y-55422572D01*
X175680970Y-55445671D01*
X175670480Y-55467850D01*
X175657868Y-55488893D01*
X175643253Y-55508599D01*
X175626777Y-55526777D01*
X175608599Y-55543253D01*
X175588893Y-55557868D01*
X175567850Y-55570480D01*
X175545671Y-55580970D01*
X175522572Y-55589235D01*
X175498773Y-55595196D01*
X175474505Y-55598796D01*
X175450001Y-55600000D01*
X174549999Y-55600000D01*
X174525495Y-55598796D01*
X174501227Y-55595196D01*
X174477428Y-55589235D01*
X174454329Y-55580970D01*
X174432150Y-55570480D01*
X174411107Y-55557868D01*
X174391401Y-55543253D01*
X174373223Y-55526777D01*
X174356747Y-55508599D01*
X174342132Y-55488893D01*
X174329520Y-55467850D01*
X174319030Y-55445671D01*
X174310765Y-55422572D01*
X174304804Y-55398773D01*
X174301204Y-55374505D01*
X174300000Y-55350001D01*
X174300000Y-54699999D01*
X174301204Y-54675495D01*
X174304804Y-54651227D01*
X174310765Y-54627428D01*
X174319030Y-54604329D01*
X174329520Y-54582150D01*
X174342132Y-54561107D01*
X174356747Y-54541401D01*
X174373223Y-54523223D01*
X174391401Y-54506747D01*
X174411107Y-54492132D01*
X174432150Y-54479520D01*
X174454329Y-54469030D01*
X174477428Y-54460765D01*
X174501227Y-54454804D01*
X174525495Y-54451204D01*
X174549999Y-54450000D01*
X175450001Y-54450000D01*
X175474505Y-54451204D01*
X175474505Y-54451204D01*
G37*
D19*
G04 #@! TD*
G04 #@! TO.P,R24,2*
G04 #@! TO.N,Net-(R24-Pad2)*
X175000000Y-55025000D03*
D18*
G04 #@! TO.N,LED8*
G04 #@! TO.C,R24*
G36*
X175474505Y-52401204D02*
X175498773Y-52404804D01*
X175522572Y-52410765D01*
X175545671Y-52419030D01*
X175567850Y-52429520D01*
X175588893Y-52442132D01*
X175608599Y-52456747D01*
X175626777Y-52473223D01*
X175643253Y-52491401D01*
X175657868Y-52511107D01*
X175670480Y-52532150D01*
X175680970Y-52554329D01*
X175689235Y-52577428D01*
X175695196Y-52601227D01*
X175698796Y-52625495D01*
X175700000Y-52649999D01*
X175700000Y-53300001D01*
X175698796Y-53324505D01*
X175695196Y-53348773D01*
X175689235Y-53372572D01*
X175680970Y-53395671D01*
X175670480Y-53417850D01*
X175657868Y-53438893D01*
X175643253Y-53458599D01*
X175626777Y-53476777D01*
X175608599Y-53493253D01*
X175588893Y-53507868D01*
X175567850Y-53520480D01*
X175545671Y-53530970D01*
X175522572Y-53539235D01*
X175498773Y-53545196D01*
X175474505Y-53548796D01*
X175450001Y-53550000D01*
X174549999Y-53550000D01*
X174525495Y-53548796D01*
X174501227Y-53545196D01*
X174477428Y-53539235D01*
X174454329Y-53530970D01*
X174432150Y-53520480D01*
X174411107Y-53507868D01*
X174391401Y-53493253D01*
X174373223Y-53476777D01*
X174356747Y-53458599D01*
X174342132Y-53438893D01*
X174329520Y-53417850D01*
X174319030Y-53395671D01*
X174310765Y-53372572D01*
X174304804Y-53348773D01*
X174301204Y-53324505D01*
X174300000Y-53300001D01*
X174300000Y-52649999D01*
X174301204Y-52625495D01*
X174304804Y-52601227D01*
X174310765Y-52577428D01*
X174319030Y-52554329D01*
X174329520Y-52532150D01*
X174342132Y-52511107D01*
X174356747Y-52491401D01*
X174373223Y-52473223D01*
X174391401Y-52456747D01*
X174411107Y-52442132D01*
X174432150Y-52429520D01*
X174454329Y-52419030D01*
X174477428Y-52410765D01*
X174501227Y-52404804D01*
X174525495Y-52401204D01*
X174549999Y-52400000D01*
X175450001Y-52400000D01*
X175474505Y-52401204D01*
X175474505Y-52401204D01*
G37*
D19*
G04 #@! TD*
G04 #@! TO.P,R24,1*
G04 #@! TO.N,LED8*
X175000000Y-52975000D03*
D20*
G04 #@! TO.P,U1,2*
G04 #@! TO.N,Net-(C18-Pad1)*
X55400000Y-63750000D03*
D21*
X49100000Y-63750000D03*
G04 #@! TO.P,U1,3*
G04 #@! TO.N,Net-(C17-Pad1)*
X49100000Y-61450000D03*
G04 #@! TO.P,U1,1*
G04 #@! TO.N,GND*
X49100000Y-66050000D03*
G04 #@! TD*
G04 #@! TO.P,U2,1*
G04 #@! TO.N,GND*
X49100000Y-78050000D03*
G04 #@! TO.P,U2,3*
G04 #@! TO.N,CA7_VCC*
X49100000Y-73450000D03*
G04 #@! TO.P,U2,2*
G04 #@! TO.N,+3V3*
X49100000Y-75750000D03*
D20*
X55400000Y-75750000D03*
G04 #@! TD*
D22*
G04 #@! TO.P,D1,1*
G04 #@! TO.N,CA7_VCC*
X52750000Y-69750000D03*
G04 #@! TO.P,D1,2*
G04 #@! TO.N,Net-(C18-Pad1)*
X48750000Y-69750000D03*
G04 #@! TD*
G04 #@! TO.P,D2,2*
G04 #@! TO.N,+12V*
X48750000Y-58000000D03*
G04 #@! TO.P,D2,1*
G04 #@! TO.N,Net-(C17-Pad1)*
X52750000Y-58000000D03*
G04 #@! TD*
D18*
G04 #@! TO.N,+3V3*
G04 #@! TO.C,C3*
G36*
X161730142Y-63451174D02*
X161753803Y-63454684D01*
X161777007Y-63460496D01*
X161799529Y-63468554D01*
X161821153Y-63478782D01*
X161841670Y-63491079D01*
X161860883Y-63505329D01*
X161878607Y-63521393D01*
X161894671Y-63539117D01*
X161908921Y-63558330D01*
X161921218Y-63578847D01*
X161931446Y-63600471D01*
X161939504Y-63622993D01*
X161945316Y-63646197D01*
X161948826Y-63669858D01*
X161950000Y-63693750D01*
X161950000Y-64181250D01*
X161948826Y-64205142D01*
X161945316Y-64228803D01*
X161939504Y-64252007D01*
X161931446Y-64274529D01*
X161921218Y-64296153D01*
X161908921Y-64316670D01*
X161894671Y-64335883D01*
X161878607Y-64353607D01*
X161860883Y-64369671D01*
X161841670Y-64383921D01*
X161821153Y-64396218D01*
X161799529Y-64406446D01*
X161777007Y-64414504D01*
X161753803Y-64420316D01*
X161730142Y-64423826D01*
X161706250Y-64425000D01*
X160793750Y-64425000D01*
X160769858Y-64423826D01*
X160746197Y-64420316D01*
X160722993Y-64414504D01*
X160700471Y-64406446D01*
X160678847Y-64396218D01*
X160658330Y-64383921D01*
X160639117Y-64369671D01*
X160621393Y-64353607D01*
X160605329Y-64335883D01*
X160591079Y-64316670D01*
X160578782Y-64296153D01*
X160568554Y-64274529D01*
X160560496Y-64252007D01*
X160554684Y-64228803D01*
X160551174Y-64205142D01*
X160550000Y-64181250D01*
X160550000Y-63693750D01*
X160551174Y-63669858D01*
X160554684Y-63646197D01*
X160560496Y-63622993D01*
X160568554Y-63600471D01*
X160578782Y-63578847D01*
X160591079Y-63558330D01*
X160605329Y-63539117D01*
X160621393Y-63521393D01*
X160639117Y-63505329D01*
X160658330Y-63491079D01*
X160678847Y-63478782D01*
X160700471Y-63468554D01*
X160722993Y-63460496D01*
X160746197Y-63454684D01*
X160769858Y-63451174D01*
X160793750Y-63450000D01*
X161706250Y-63450000D01*
X161730142Y-63451174D01*
X161730142Y-63451174D01*
G37*
D23*
G04 #@! TD*
G04 #@! TO.P,C3,1*
G04 #@! TO.N,+3V3*
X161250000Y-63937500D03*
D18*
G04 #@! TO.N,GND*
G04 #@! TO.C,C3*
G36*
X161730142Y-61576174D02*
X161753803Y-61579684D01*
X161777007Y-61585496D01*
X161799529Y-61593554D01*
X161821153Y-61603782D01*
X161841670Y-61616079D01*
X161860883Y-61630329D01*
X161878607Y-61646393D01*
X161894671Y-61664117D01*
X161908921Y-61683330D01*
X161921218Y-61703847D01*
X161931446Y-61725471D01*
X161939504Y-61747993D01*
X161945316Y-61771197D01*
X161948826Y-61794858D01*
X161950000Y-61818750D01*
X161950000Y-62306250D01*
X161948826Y-62330142D01*
X161945316Y-62353803D01*
X161939504Y-62377007D01*
X161931446Y-62399529D01*
X161921218Y-62421153D01*
X161908921Y-62441670D01*
X161894671Y-62460883D01*
X161878607Y-62478607D01*
X161860883Y-62494671D01*
X161841670Y-62508921D01*
X161821153Y-62521218D01*
X161799529Y-62531446D01*
X161777007Y-62539504D01*
X161753803Y-62545316D01*
X161730142Y-62548826D01*
X161706250Y-62550000D01*
X160793750Y-62550000D01*
X160769858Y-62548826D01*
X160746197Y-62545316D01*
X160722993Y-62539504D01*
X160700471Y-62531446D01*
X160678847Y-62521218D01*
X160658330Y-62508921D01*
X160639117Y-62494671D01*
X160621393Y-62478607D01*
X160605329Y-62460883D01*
X160591079Y-62441670D01*
X160578782Y-62421153D01*
X160568554Y-62399529D01*
X160560496Y-62377007D01*
X160554684Y-62353803D01*
X160551174Y-62330142D01*
X160550000Y-62306250D01*
X160550000Y-61818750D01*
X160551174Y-61794858D01*
X160554684Y-61771197D01*
X160560496Y-61747993D01*
X160568554Y-61725471D01*
X160578782Y-61703847D01*
X160591079Y-61683330D01*
X160605329Y-61664117D01*
X160621393Y-61646393D01*
X160639117Y-61630329D01*
X160658330Y-61616079D01*
X160678847Y-61603782D01*
X160700471Y-61593554D01*
X160722993Y-61585496D01*
X160746197Y-61579684D01*
X160769858Y-61576174D01*
X160793750Y-61575000D01*
X161706250Y-61575000D01*
X161730142Y-61576174D01*
X161730142Y-61576174D01*
G37*
D23*
G04 #@! TD*
G04 #@! TO.P,C3,2*
G04 #@! TO.N,GND*
X161250000Y-62062500D03*
D18*
G04 #@! TO.N,GND*
G04 #@! TO.C,C4*
G36*
X174980142Y-69951174D02*
X175003803Y-69954684D01*
X175027007Y-69960496D01*
X175049529Y-69968554D01*
X175071153Y-69978782D01*
X175091670Y-69991079D01*
X175110883Y-70005329D01*
X175128607Y-70021393D01*
X175144671Y-70039117D01*
X175158921Y-70058330D01*
X175171218Y-70078847D01*
X175181446Y-70100471D01*
X175189504Y-70122993D01*
X175195316Y-70146197D01*
X175198826Y-70169858D01*
X175200000Y-70193750D01*
X175200000Y-70681250D01*
X175198826Y-70705142D01*
X175195316Y-70728803D01*
X175189504Y-70752007D01*
X175181446Y-70774529D01*
X175171218Y-70796153D01*
X175158921Y-70816670D01*
X175144671Y-70835883D01*
X175128607Y-70853607D01*
X175110883Y-70869671D01*
X175091670Y-70883921D01*
X175071153Y-70896218D01*
X175049529Y-70906446D01*
X175027007Y-70914504D01*
X175003803Y-70920316D01*
X174980142Y-70923826D01*
X174956250Y-70925000D01*
X174043750Y-70925000D01*
X174019858Y-70923826D01*
X173996197Y-70920316D01*
X173972993Y-70914504D01*
X173950471Y-70906446D01*
X173928847Y-70896218D01*
X173908330Y-70883921D01*
X173889117Y-70869671D01*
X173871393Y-70853607D01*
X173855329Y-70835883D01*
X173841079Y-70816670D01*
X173828782Y-70796153D01*
X173818554Y-70774529D01*
X173810496Y-70752007D01*
X173804684Y-70728803D01*
X173801174Y-70705142D01*
X173800000Y-70681250D01*
X173800000Y-70193750D01*
X173801174Y-70169858D01*
X173804684Y-70146197D01*
X173810496Y-70122993D01*
X173818554Y-70100471D01*
X173828782Y-70078847D01*
X173841079Y-70058330D01*
X173855329Y-70039117D01*
X173871393Y-70021393D01*
X173889117Y-70005329D01*
X173908330Y-69991079D01*
X173928847Y-69978782D01*
X173950471Y-69968554D01*
X173972993Y-69960496D01*
X173996197Y-69954684D01*
X174019858Y-69951174D01*
X174043750Y-69950000D01*
X174956250Y-69950000D01*
X174980142Y-69951174D01*
X174980142Y-69951174D01*
G37*
D23*
G04 #@! TD*
G04 #@! TO.P,C4,2*
G04 #@! TO.N,GND*
X174500000Y-70437500D03*
D18*
G04 #@! TO.N,+3V3*
G04 #@! TO.C,C4*
G36*
X174980142Y-68076174D02*
X175003803Y-68079684D01*
X175027007Y-68085496D01*
X175049529Y-68093554D01*
X175071153Y-68103782D01*
X175091670Y-68116079D01*
X175110883Y-68130329D01*
X175128607Y-68146393D01*
X175144671Y-68164117D01*
X175158921Y-68183330D01*
X175171218Y-68203847D01*
X175181446Y-68225471D01*
X175189504Y-68247993D01*
X175195316Y-68271197D01*
X175198826Y-68294858D01*
X175200000Y-68318750D01*
X175200000Y-68806250D01*
X175198826Y-68830142D01*
X175195316Y-68853803D01*
X175189504Y-68877007D01*
X175181446Y-68899529D01*
X175171218Y-68921153D01*
X175158921Y-68941670D01*
X175144671Y-68960883D01*
X175128607Y-68978607D01*
X175110883Y-68994671D01*
X175091670Y-69008921D01*
X175071153Y-69021218D01*
X175049529Y-69031446D01*
X175027007Y-69039504D01*
X175003803Y-69045316D01*
X174980142Y-69048826D01*
X174956250Y-69050000D01*
X174043750Y-69050000D01*
X174019858Y-69048826D01*
X173996197Y-69045316D01*
X173972993Y-69039504D01*
X173950471Y-69031446D01*
X173928847Y-69021218D01*
X173908330Y-69008921D01*
X173889117Y-68994671D01*
X173871393Y-68978607D01*
X173855329Y-68960883D01*
X173841079Y-68941670D01*
X173828782Y-68921153D01*
X173818554Y-68899529D01*
X173810496Y-68877007D01*
X173804684Y-68853803D01*
X173801174Y-68830142D01*
X173800000Y-68806250D01*
X173800000Y-68318750D01*
X173801174Y-68294858D01*
X173804684Y-68271197D01*
X173810496Y-68247993D01*
X173818554Y-68225471D01*
X173828782Y-68203847D01*
X173841079Y-68183330D01*
X173855329Y-68164117D01*
X173871393Y-68146393D01*
X173889117Y-68130329D01*
X173908330Y-68116079D01*
X173928847Y-68103782D01*
X173950471Y-68093554D01*
X173972993Y-68085496D01*
X173996197Y-68079684D01*
X174019858Y-68076174D01*
X174043750Y-68075000D01*
X174956250Y-68075000D01*
X174980142Y-68076174D01*
X174980142Y-68076174D01*
G37*
D23*
G04 #@! TD*
G04 #@! TO.P,C4,1*
G04 #@! TO.N,+3V3*
X174500000Y-68562500D03*
D18*
G04 #@! TO.N,GND*
G04 #@! TO.C,C1*
G36*
X40574504Y-70201204D02*
X40598773Y-70204804D01*
X40622571Y-70210765D01*
X40645671Y-70219030D01*
X40667849Y-70229520D01*
X40688893Y-70242133D01*
X40708598Y-70256747D01*
X40726777Y-70273223D01*
X40743253Y-70291402D01*
X40757867Y-70311107D01*
X40770480Y-70332151D01*
X40780970Y-70354329D01*
X40789235Y-70377429D01*
X40795196Y-70401227D01*
X40798796Y-70425496D01*
X40800000Y-70450000D01*
X40800000Y-71550000D01*
X40798796Y-71574504D01*
X40795196Y-71598773D01*
X40789235Y-71622571D01*
X40780970Y-71645671D01*
X40770480Y-71667849D01*
X40757867Y-71688893D01*
X40743253Y-71708598D01*
X40726777Y-71726777D01*
X40708598Y-71743253D01*
X40688893Y-71757867D01*
X40667849Y-71770480D01*
X40645671Y-71780970D01*
X40622571Y-71789235D01*
X40598773Y-71795196D01*
X40574504Y-71798796D01*
X40550000Y-71800000D01*
X37550000Y-71800000D01*
X37525496Y-71798796D01*
X37501227Y-71795196D01*
X37477429Y-71789235D01*
X37454329Y-71780970D01*
X37432151Y-71770480D01*
X37411107Y-71757867D01*
X37391402Y-71743253D01*
X37373223Y-71726777D01*
X37356747Y-71708598D01*
X37342133Y-71688893D01*
X37329520Y-71667849D01*
X37319030Y-71645671D01*
X37310765Y-71622571D01*
X37304804Y-71598773D01*
X37301204Y-71574504D01*
X37300000Y-71550000D01*
X37300000Y-70450000D01*
X37301204Y-70425496D01*
X37304804Y-70401227D01*
X37310765Y-70377429D01*
X37319030Y-70354329D01*
X37329520Y-70332151D01*
X37342133Y-70311107D01*
X37356747Y-70291402D01*
X37373223Y-70273223D01*
X37391402Y-70256747D01*
X37411107Y-70242133D01*
X37432151Y-70229520D01*
X37454329Y-70219030D01*
X37477429Y-70210765D01*
X37501227Y-70204804D01*
X37525496Y-70201204D01*
X37550000Y-70200000D01*
X40550000Y-70200000D01*
X40574504Y-70201204D01*
X40574504Y-70201204D01*
G37*
D24*
G04 #@! TD*
G04 #@! TO.P,C1,2*
G04 #@! TO.N,GND*
X39050000Y-71000000D03*
D18*
G04 #@! TO.N,CA7_VCC*
G04 #@! TO.C,C1*
G36*
X45974504Y-70201204D02*
X45998773Y-70204804D01*
X46022571Y-70210765D01*
X46045671Y-70219030D01*
X46067849Y-70229520D01*
X46088893Y-70242133D01*
X46108598Y-70256747D01*
X46126777Y-70273223D01*
X46143253Y-70291402D01*
X46157867Y-70311107D01*
X46170480Y-70332151D01*
X46180970Y-70354329D01*
X46189235Y-70377429D01*
X46195196Y-70401227D01*
X46198796Y-70425496D01*
X46200000Y-70450000D01*
X46200000Y-71550000D01*
X46198796Y-71574504D01*
X46195196Y-71598773D01*
X46189235Y-71622571D01*
X46180970Y-71645671D01*
X46170480Y-71667849D01*
X46157867Y-71688893D01*
X46143253Y-71708598D01*
X46126777Y-71726777D01*
X46108598Y-71743253D01*
X46088893Y-71757867D01*
X46067849Y-71770480D01*
X46045671Y-71780970D01*
X46022571Y-71789235D01*
X45998773Y-71795196D01*
X45974504Y-71798796D01*
X45950000Y-71800000D01*
X42950000Y-71800000D01*
X42925496Y-71798796D01*
X42901227Y-71795196D01*
X42877429Y-71789235D01*
X42854329Y-71780970D01*
X42832151Y-71770480D01*
X42811107Y-71757867D01*
X42791402Y-71743253D01*
X42773223Y-71726777D01*
X42756747Y-71708598D01*
X42742133Y-71688893D01*
X42729520Y-71667849D01*
X42719030Y-71645671D01*
X42710765Y-71622571D01*
X42704804Y-71598773D01*
X42701204Y-71574504D01*
X42700000Y-71550000D01*
X42700000Y-70450000D01*
X42701204Y-70425496D01*
X42704804Y-70401227D01*
X42710765Y-70377429D01*
X42719030Y-70354329D01*
X42729520Y-70332151D01*
X42742133Y-70311107D01*
X42756747Y-70291402D01*
X42773223Y-70273223D01*
X42791402Y-70256747D01*
X42811107Y-70242133D01*
X42832151Y-70229520D01*
X42854329Y-70219030D01*
X42877429Y-70210765D01*
X42901227Y-70204804D01*
X42925496Y-70201204D01*
X42950000Y-70200000D01*
X45950000Y-70200000D01*
X45974504Y-70201204D01*
X45974504Y-70201204D01*
G37*
D24*
G04 #@! TD*
G04 #@! TO.P,C1,1*
G04 #@! TO.N,CA7_VCC*
X44450000Y-71000000D03*
D18*
G04 #@! TO.N,GND*
G04 #@! TO.C,C2*
G36*
X41074504Y-77201204D02*
X41098773Y-77204804D01*
X41122571Y-77210765D01*
X41145671Y-77219030D01*
X41167849Y-77229520D01*
X41188893Y-77242133D01*
X41208598Y-77256747D01*
X41226777Y-77273223D01*
X41243253Y-77291402D01*
X41257867Y-77311107D01*
X41270480Y-77332151D01*
X41280970Y-77354329D01*
X41289235Y-77377429D01*
X41295196Y-77401227D01*
X41298796Y-77425496D01*
X41300000Y-77450000D01*
X41300000Y-78550000D01*
X41298796Y-78574504D01*
X41295196Y-78598773D01*
X41289235Y-78622571D01*
X41280970Y-78645671D01*
X41270480Y-78667849D01*
X41257867Y-78688893D01*
X41243253Y-78708598D01*
X41226777Y-78726777D01*
X41208598Y-78743253D01*
X41188893Y-78757867D01*
X41167849Y-78770480D01*
X41145671Y-78780970D01*
X41122571Y-78789235D01*
X41098773Y-78795196D01*
X41074504Y-78798796D01*
X41050000Y-78800000D01*
X38550000Y-78800000D01*
X38525496Y-78798796D01*
X38501227Y-78795196D01*
X38477429Y-78789235D01*
X38454329Y-78780970D01*
X38432151Y-78770480D01*
X38411107Y-78757867D01*
X38391402Y-78743253D01*
X38373223Y-78726777D01*
X38356747Y-78708598D01*
X38342133Y-78688893D01*
X38329520Y-78667849D01*
X38319030Y-78645671D01*
X38310765Y-78622571D01*
X38304804Y-78598773D01*
X38301204Y-78574504D01*
X38300000Y-78550000D01*
X38300000Y-77450000D01*
X38301204Y-77425496D01*
X38304804Y-77401227D01*
X38310765Y-77377429D01*
X38319030Y-77354329D01*
X38329520Y-77332151D01*
X38342133Y-77311107D01*
X38356747Y-77291402D01*
X38373223Y-77273223D01*
X38391402Y-77256747D01*
X38411107Y-77242133D01*
X38432151Y-77229520D01*
X38454329Y-77219030D01*
X38477429Y-77210765D01*
X38501227Y-77204804D01*
X38525496Y-77201204D01*
X38550000Y-77200000D01*
X41050000Y-77200000D01*
X41074504Y-77201204D01*
X41074504Y-77201204D01*
G37*
D24*
G04 #@! TD*
G04 #@! TO.P,C2,2*
G04 #@! TO.N,GND*
X39800000Y-78000000D03*
D18*
G04 #@! TO.N,+3V3*
G04 #@! TO.C,C2*
G36*
X45474504Y-77201204D02*
X45498773Y-77204804D01*
X45522571Y-77210765D01*
X45545671Y-77219030D01*
X45567849Y-77229520D01*
X45588893Y-77242133D01*
X45608598Y-77256747D01*
X45626777Y-77273223D01*
X45643253Y-77291402D01*
X45657867Y-77311107D01*
X45670480Y-77332151D01*
X45680970Y-77354329D01*
X45689235Y-77377429D01*
X45695196Y-77401227D01*
X45698796Y-77425496D01*
X45700000Y-77450000D01*
X45700000Y-78550000D01*
X45698796Y-78574504D01*
X45695196Y-78598773D01*
X45689235Y-78622571D01*
X45680970Y-78645671D01*
X45670480Y-78667849D01*
X45657867Y-78688893D01*
X45643253Y-78708598D01*
X45626777Y-78726777D01*
X45608598Y-78743253D01*
X45588893Y-78757867D01*
X45567849Y-78770480D01*
X45545671Y-78780970D01*
X45522571Y-78789235D01*
X45498773Y-78795196D01*
X45474504Y-78798796D01*
X45450000Y-78800000D01*
X42950000Y-78800000D01*
X42925496Y-78798796D01*
X42901227Y-78795196D01*
X42877429Y-78789235D01*
X42854329Y-78780970D01*
X42832151Y-78770480D01*
X42811107Y-78757867D01*
X42791402Y-78743253D01*
X42773223Y-78726777D01*
X42756747Y-78708598D01*
X42742133Y-78688893D01*
X42729520Y-78667849D01*
X42719030Y-78645671D01*
X42710765Y-78622571D01*
X42704804Y-78598773D01*
X42701204Y-78574504D01*
X42700000Y-78550000D01*
X42700000Y-77450000D01*
X42701204Y-77425496D01*
X42704804Y-77401227D01*
X42710765Y-77377429D01*
X42719030Y-77354329D01*
X42729520Y-77332151D01*
X42742133Y-77311107D01*
X42756747Y-77291402D01*
X42773223Y-77273223D01*
X42791402Y-77256747D01*
X42811107Y-77242133D01*
X42832151Y-77229520D01*
X42854329Y-77219030D01*
X42877429Y-77210765D01*
X42901227Y-77204804D01*
X42925496Y-77201204D01*
X42950000Y-77200000D01*
X45450000Y-77200000D01*
X45474504Y-77201204D01*
X45474504Y-77201204D01*
G37*
D24*
G04 #@! TD*
G04 #@! TO.P,C2,1*
G04 #@! TO.N,+3V3*
X44200000Y-78000000D03*
D18*
G04 #@! TO.N,Net-(C17-Pad1)*
G04 #@! TO.C,C17*
G36*
X45974504Y-56201204D02*
X45998773Y-56204804D01*
X46022571Y-56210765D01*
X46045671Y-56219030D01*
X46067849Y-56229520D01*
X46088893Y-56242133D01*
X46108598Y-56256747D01*
X46126777Y-56273223D01*
X46143253Y-56291402D01*
X46157867Y-56311107D01*
X46170480Y-56332151D01*
X46180970Y-56354329D01*
X46189235Y-56377429D01*
X46195196Y-56401227D01*
X46198796Y-56425496D01*
X46200000Y-56450000D01*
X46200000Y-57550000D01*
X46198796Y-57574504D01*
X46195196Y-57598773D01*
X46189235Y-57622571D01*
X46180970Y-57645671D01*
X46170480Y-57667849D01*
X46157867Y-57688893D01*
X46143253Y-57708598D01*
X46126777Y-57726777D01*
X46108598Y-57743253D01*
X46088893Y-57757867D01*
X46067849Y-57770480D01*
X46045671Y-57780970D01*
X46022571Y-57789235D01*
X45998773Y-57795196D01*
X45974504Y-57798796D01*
X45950000Y-57800000D01*
X42950000Y-57800000D01*
X42925496Y-57798796D01*
X42901227Y-57795196D01*
X42877429Y-57789235D01*
X42854329Y-57780970D01*
X42832151Y-57770480D01*
X42811107Y-57757867D01*
X42791402Y-57743253D01*
X42773223Y-57726777D01*
X42756747Y-57708598D01*
X42742133Y-57688893D01*
X42729520Y-57667849D01*
X42719030Y-57645671D01*
X42710765Y-57622571D01*
X42704804Y-57598773D01*
X42701204Y-57574504D01*
X42700000Y-57550000D01*
X42700000Y-56450000D01*
X42701204Y-56425496D01*
X42704804Y-56401227D01*
X42710765Y-56377429D01*
X42719030Y-56354329D01*
X42729520Y-56332151D01*
X42742133Y-56311107D01*
X42756747Y-56291402D01*
X42773223Y-56273223D01*
X42791402Y-56256747D01*
X42811107Y-56242133D01*
X42832151Y-56229520D01*
X42854329Y-56219030D01*
X42877429Y-56210765D01*
X42901227Y-56204804D01*
X42925496Y-56201204D01*
X42950000Y-56200000D01*
X45950000Y-56200000D01*
X45974504Y-56201204D01*
X45974504Y-56201204D01*
G37*
D24*
G04 #@! TD*
G04 #@! TO.P,C17,1*
G04 #@! TO.N,Net-(C17-Pad1)*
X44450000Y-57000000D03*
D18*
G04 #@! TO.N,GND*
G04 #@! TO.C,C17*
G36*
X40574504Y-56201204D02*
X40598773Y-56204804D01*
X40622571Y-56210765D01*
X40645671Y-56219030D01*
X40667849Y-56229520D01*
X40688893Y-56242133D01*
X40708598Y-56256747D01*
X40726777Y-56273223D01*
X40743253Y-56291402D01*
X40757867Y-56311107D01*
X40770480Y-56332151D01*
X40780970Y-56354329D01*
X40789235Y-56377429D01*
X40795196Y-56401227D01*
X40798796Y-56425496D01*
X40800000Y-56450000D01*
X40800000Y-57550000D01*
X40798796Y-57574504D01*
X40795196Y-57598773D01*
X40789235Y-57622571D01*
X40780970Y-57645671D01*
X40770480Y-57667849D01*
X40757867Y-57688893D01*
X40743253Y-57708598D01*
X40726777Y-57726777D01*
X40708598Y-57743253D01*
X40688893Y-57757867D01*
X40667849Y-57770480D01*
X40645671Y-57780970D01*
X40622571Y-57789235D01*
X40598773Y-57795196D01*
X40574504Y-57798796D01*
X40550000Y-57800000D01*
X37550000Y-57800000D01*
X37525496Y-57798796D01*
X37501227Y-57795196D01*
X37477429Y-57789235D01*
X37454329Y-57780970D01*
X37432151Y-57770480D01*
X37411107Y-57757867D01*
X37391402Y-57743253D01*
X37373223Y-57726777D01*
X37356747Y-57708598D01*
X37342133Y-57688893D01*
X37329520Y-57667849D01*
X37319030Y-57645671D01*
X37310765Y-57622571D01*
X37304804Y-57598773D01*
X37301204Y-57574504D01*
X37300000Y-57550000D01*
X37300000Y-56450000D01*
X37301204Y-56425496D01*
X37304804Y-56401227D01*
X37310765Y-56377429D01*
X37319030Y-56354329D01*
X37329520Y-56332151D01*
X37342133Y-56311107D01*
X37356747Y-56291402D01*
X37373223Y-56273223D01*
X37391402Y-56256747D01*
X37411107Y-56242133D01*
X37432151Y-56229520D01*
X37454329Y-56219030D01*
X37477429Y-56210765D01*
X37501227Y-56204804D01*
X37525496Y-56201204D01*
X37550000Y-56200000D01*
X40550000Y-56200000D01*
X40574504Y-56201204D01*
X40574504Y-56201204D01*
G37*
D24*
G04 #@! TD*
G04 #@! TO.P,C17,2*
G04 #@! TO.N,GND*
X39050000Y-57000000D03*
D18*
G04 #@! TO.N,Net-(C18-Pad1)*
G04 #@! TO.C,C18*
G36*
X45474504Y-63201204D02*
X45498773Y-63204804D01*
X45522571Y-63210765D01*
X45545671Y-63219030D01*
X45567849Y-63229520D01*
X45588893Y-63242133D01*
X45608598Y-63256747D01*
X45626777Y-63273223D01*
X45643253Y-63291402D01*
X45657867Y-63311107D01*
X45670480Y-63332151D01*
X45680970Y-63354329D01*
X45689235Y-63377429D01*
X45695196Y-63401227D01*
X45698796Y-63425496D01*
X45700000Y-63450000D01*
X45700000Y-64550000D01*
X45698796Y-64574504D01*
X45695196Y-64598773D01*
X45689235Y-64622571D01*
X45680970Y-64645671D01*
X45670480Y-64667849D01*
X45657867Y-64688893D01*
X45643253Y-64708598D01*
X45626777Y-64726777D01*
X45608598Y-64743253D01*
X45588893Y-64757867D01*
X45567849Y-64770480D01*
X45545671Y-64780970D01*
X45522571Y-64789235D01*
X45498773Y-64795196D01*
X45474504Y-64798796D01*
X45450000Y-64800000D01*
X42950000Y-64800000D01*
X42925496Y-64798796D01*
X42901227Y-64795196D01*
X42877429Y-64789235D01*
X42854329Y-64780970D01*
X42832151Y-64770480D01*
X42811107Y-64757867D01*
X42791402Y-64743253D01*
X42773223Y-64726777D01*
X42756747Y-64708598D01*
X42742133Y-64688893D01*
X42729520Y-64667849D01*
X42719030Y-64645671D01*
X42710765Y-64622571D01*
X42704804Y-64598773D01*
X42701204Y-64574504D01*
X42700000Y-64550000D01*
X42700000Y-63450000D01*
X42701204Y-63425496D01*
X42704804Y-63401227D01*
X42710765Y-63377429D01*
X42719030Y-63354329D01*
X42729520Y-63332151D01*
X42742133Y-63311107D01*
X42756747Y-63291402D01*
X42773223Y-63273223D01*
X42791402Y-63256747D01*
X42811107Y-63242133D01*
X42832151Y-63229520D01*
X42854329Y-63219030D01*
X42877429Y-63210765D01*
X42901227Y-63204804D01*
X42925496Y-63201204D01*
X42950000Y-63200000D01*
X45450000Y-63200000D01*
X45474504Y-63201204D01*
X45474504Y-63201204D01*
G37*
D24*
G04 #@! TD*
G04 #@! TO.P,C18,1*
G04 #@! TO.N,Net-(C18-Pad1)*
X44200000Y-64000000D03*
D18*
G04 #@! TO.N,GND*
G04 #@! TO.C,C18*
G36*
X41074504Y-63201204D02*
X41098773Y-63204804D01*
X41122571Y-63210765D01*
X41145671Y-63219030D01*
X41167849Y-63229520D01*
X41188893Y-63242133D01*
X41208598Y-63256747D01*
X41226777Y-63273223D01*
X41243253Y-63291402D01*
X41257867Y-63311107D01*
X41270480Y-63332151D01*
X41280970Y-63354329D01*
X41289235Y-63377429D01*
X41295196Y-63401227D01*
X41298796Y-63425496D01*
X41300000Y-63450000D01*
X41300000Y-64550000D01*
X41298796Y-64574504D01*
X41295196Y-64598773D01*
X41289235Y-64622571D01*
X41280970Y-64645671D01*
X41270480Y-64667849D01*
X41257867Y-64688893D01*
X41243253Y-64708598D01*
X41226777Y-64726777D01*
X41208598Y-64743253D01*
X41188893Y-64757867D01*
X41167849Y-64770480D01*
X41145671Y-64780970D01*
X41122571Y-64789235D01*
X41098773Y-64795196D01*
X41074504Y-64798796D01*
X41050000Y-64800000D01*
X38550000Y-64800000D01*
X38525496Y-64798796D01*
X38501227Y-64795196D01*
X38477429Y-64789235D01*
X38454329Y-64780970D01*
X38432151Y-64770480D01*
X38411107Y-64757867D01*
X38391402Y-64743253D01*
X38373223Y-64726777D01*
X38356747Y-64708598D01*
X38342133Y-64688893D01*
X38329520Y-64667849D01*
X38319030Y-64645671D01*
X38310765Y-64622571D01*
X38304804Y-64598773D01*
X38301204Y-64574504D01*
X38300000Y-64550000D01*
X38300000Y-63450000D01*
X38301204Y-63425496D01*
X38304804Y-63401227D01*
X38310765Y-63377429D01*
X38319030Y-63354329D01*
X38329520Y-63332151D01*
X38342133Y-63311107D01*
X38356747Y-63291402D01*
X38373223Y-63273223D01*
X38391402Y-63256747D01*
X38411107Y-63242133D01*
X38432151Y-63229520D01*
X38454329Y-63219030D01*
X38477429Y-63210765D01*
X38501227Y-63204804D01*
X38525496Y-63201204D01*
X38550000Y-63200000D01*
X41050000Y-63200000D01*
X41074504Y-63201204D01*
X41074504Y-63201204D01*
G37*
D24*
G04 #@! TD*
G04 #@! TO.P,C18,2*
G04 #@! TO.N,GND*
X39800000Y-64000000D03*
D25*
G04 #@! TO.N,GND*
X168750000Y-67250000D03*
X167250000Y-62500000D03*
X172250000Y-58750000D03*
X158500000Y-83250000D03*
X163500000Y-83250000D03*
X168500000Y-83250000D03*
X173500000Y-83250000D03*
X162500000Y-62250000D03*
X173250000Y-70750000D03*
X164000000Y-73750000D03*
G04 #@! TO.N,Net-(U5-Pad11)*
X165390542Y-67500008D03*
X167250000Y-66980317D03*
G04 #@! TO.N,Net-(U5-Pad12)*
X168000000Y-65500000D03*
X166250000Y-66024989D03*
G04 #@! TO.N,LEDK1*
X73250000Y-91624980D03*
X121500000Y-85000000D03*
X133500010Y-85000000D03*
G04 #@! TO.N,LEDK2*
X70500000Y-91000000D03*
X120750000Y-84000000D03*
X132750000Y-84000000D03*
G04 #@! TO.N,LEDK3*
X165500000Y-85000000D03*
X161500000Y-90900002D03*
G04 #@! TO.N,LEDK4*
X168000000Y-85000000D03*
X158749992Y-91174969D03*
G04 #@! TO.N,LED2*
X115500000Y-47750000D03*
G04 #@! TO.N,LED3*
X114250000Y-48000000D03*
G04 #@! TO.N,LED4*
X113250006Y-48500000D03*
G04 #@! TO.N,LED5*
X110000000Y-51000000D03*
X115750000Y-51249998D03*
X157010243Y-51674989D03*
G04 #@! TO.N,LED6*
X109250000Y-50000000D03*
X116750002Y-50500000D03*
X159500000Y-50525054D03*
G04 #@! TO.N,LED7*
X107999992Y-50000000D03*
X117820392Y-49928178D03*
X161999991Y-50075043D03*
G04 #@! TO.N,LED8*
X114749982Y-52000000D03*
X111000000Y-51424957D03*
G04 #@! TD*
D26*
G04 #@! TO.N,GND*
X30734000Y-65024000D02*
X30734000Y-67564000D01*
X30734000Y-67564000D02*
X33274000Y-67564000D01*
X33274000Y-70104000D02*
X33274000Y-67564000D01*
X30734000Y-70104000D02*
X30734000Y-67564000D01*
X30734000Y-70104000D02*
X33274000Y-70104000D01*
X33274000Y-65024000D02*
X30734000Y-65024000D01*
X33274000Y-67564000D02*
X33274000Y-65024000D01*
X33274000Y-64998859D02*
X33274000Y-65024000D01*
X33276859Y-70104000D02*
X33274000Y-70104000D01*
X168450000Y-68715000D02*
X168450000Y-67550000D01*
X168450000Y-67550000D02*
X168750000Y-67250000D01*
X167300000Y-63830000D02*
X167300000Y-62550000D01*
X167300000Y-62550000D02*
X167250000Y-62500000D01*
X172390000Y-57530000D02*
X172390000Y-58610000D01*
X172390000Y-58610000D02*
X172250000Y-58750000D01*
X159900000Y-83200000D02*
X158550000Y-83200000D01*
X158550000Y-83200000D02*
X158500000Y-83250000D01*
X164900000Y-83200000D02*
X163550000Y-83200000D01*
X163550000Y-83200000D02*
X163500000Y-83250000D01*
X169900000Y-83200000D02*
X168550000Y-83200000D01*
X168550000Y-83200000D02*
X168500000Y-83250000D01*
X174900000Y-83200000D02*
X173550000Y-83200000D01*
X173550000Y-83200000D02*
X173500000Y-83250000D01*
X33298000Y-65000000D02*
X33274000Y-65024000D01*
X49100000Y-66050000D02*
X48850000Y-66050000D01*
X161250000Y-62062500D02*
X162312500Y-62062500D01*
X162312500Y-62062500D02*
X162500000Y-62250000D01*
X174500000Y-70437500D02*
X173562500Y-70437500D01*
X173562500Y-70437500D02*
X173250000Y-70750000D01*
X163360000Y-75015000D02*
X163360000Y-74390000D01*
X163360000Y-74390000D02*
X164000000Y-73750000D01*
X39300000Y-57000000D02*
X38429290Y-57870710D01*
X38776000Y-65024000D02*
X33274000Y-65024000D01*
X39800000Y-64000000D02*
X38776000Y-65024000D01*
X34300000Y-66050000D02*
X33274000Y-65024000D01*
X49100000Y-66050000D02*
X34300000Y-66050000D01*
X35614000Y-67564000D02*
X33274000Y-67564000D01*
X39050000Y-71000000D02*
X35614000Y-67564000D01*
X39800000Y-76630000D02*
X33274000Y-70104000D01*
X39800000Y-78000000D02*
X39800000Y-76630000D01*
X40670710Y-78870710D02*
X39800000Y-78000000D01*
X41300000Y-79500000D02*
X40670710Y-78870710D01*
X49100000Y-78050000D02*
X47600000Y-78050000D01*
X46150000Y-79500000D02*
X41300000Y-79500000D01*
X47600000Y-78050000D02*
X46150000Y-79500000D01*
X39050000Y-59248000D02*
X39050000Y-57000000D01*
X33274000Y-65024000D02*
X39050000Y-59248000D01*
D27*
G04 #@! TO.N,Net-(Q1-Pad2)*
X174700000Y-81300000D02*
X172975000Y-79575000D01*
X172975000Y-79575000D02*
X172975000Y-79000000D01*
X174900000Y-81300000D02*
X174700000Y-81300000D01*
G04 #@! TO.N,Net-(Q2-Pad2)*
X169900000Y-79925000D02*
X168975000Y-79000000D01*
X169900000Y-81300000D02*
X169900000Y-79925000D01*
G04 #@! TO.N,Net-(Q3-Pad2)*
X164900000Y-79075000D02*
X164975000Y-79000000D01*
X164900000Y-81300000D02*
X164900000Y-79075000D01*
G04 #@! TO.N,Net-(Q4-Pad2)*
X159900000Y-80075000D02*
X160975000Y-79000000D01*
X159900000Y-81300000D02*
X159900000Y-80075000D01*
D26*
G04 #@! TO.N,+3V3*
X52250000Y-75750000D02*
X49100000Y-75750000D01*
X55400000Y-75750000D02*
X52250000Y-75750000D01*
X118760000Y-91990000D02*
X118750000Y-92000000D01*
X118760000Y-90000000D02*
X118760000Y-91990000D01*
X74750000Y-91212081D02*
X74750000Y-92000000D01*
X74760000Y-91202081D02*
X74750000Y-91212081D01*
X74760000Y-90000000D02*
X74760000Y-91202081D01*
X162750000Y-90010000D02*
X162760000Y-90000000D01*
X172260000Y-68715000D02*
X173160000Y-68715000D01*
X162760000Y-91990000D02*
X162750000Y-92000000D01*
X162760000Y-90000000D02*
X162760000Y-91990000D01*
X173240001Y-62819999D02*
X172670002Y-62250000D01*
X173240001Y-68634999D02*
X173240001Y-62819999D01*
X173160000Y-68715000D02*
X173240001Y-68634999D01*
X172670002Y-62250000D02*
X171000000Y-62250000D01*
X171110000Y-62360000D02*
X171000000Y-62250000D01*
X171110000Y-63830000D02*
X171110000Y-62360000D01*
X172260000Y-69740000D02*
X172260000Y-68715000D01*
X171750000Y-70250000D02*
X172260000Y-69740000D01*
X165250000Y-70250000D02*
X171750000Y-70250000D01*
X164640000Y-68715000D02*
X164640000Y-69640000D01*
X164640000Y-69640000D02*
X165250000Y-70250000D01*
X163490000Y-62680000D02*
X164520002Y-61649998D01*
X164520002Y-61649998D02*
X170399998Y-61649998D01*
X170399998Y-61649998D02*
X171000000Y-62250000D01*
X163490000Y-63830000D02*
X163490000Y-62680000D01*
X118750000Y-92000000D02*
X125191399Y-92000000D01*
X125191399Y-92000000D02*
X125666390Y-92474990D01*
X162275010Y-92474990D02*
X162750000Y-92000000D01*
X125666390Y-92474990D02*
X162275010Y-92474990D01*
X74750000Y-92000000D02*
X74750000Y-92250000D01*
X30760000Y-90000000D02*
X33234990Y-92474990D01*
X33234990Y-92474990D02*
X74750000Y-92474990D01*
X118275010Y-92474990D02*
X118750000Y-92000000D01*
X74974990Y-92474990D02*
X118275010Y-92474990D01*
X163382500Y-63937500D02*
X163490000Y-63830000D01*
X161250000Y-63937500D02*
X163382500Y-63937500D01*
X173312500Y-68562500D02*
X174500000Y-68562500D01*
X173160000Y-68715000D02*
X173312500Y-68562500D01*
X179300001Y-91210001D02*
X178510002Y-92000000D01*
X179300001Y-70550001D02*
X179300001Y-91210001D01*
X174500000Y-68562500D02*
X177312500Y-68562500D01*
X178510002Y-92000000D02*
X162750000Y-92000000D01*
X177312500Y-68562500D02*
X179300001Y-70550001D01*
X46450000Y-75750000D02*
X49100000Y-75750000D01*
X44200000Y-78000000D02*
X46450000Y-75750000D01*
X53900000Y-75750000D02*
X55400000Y-75750000D01*
X52250000Y-78500000D02*
X52250000Y-75750000D01*
X50549989Y-80200011D02*
X52250000Y-78500000D01*
X39049989Y-80200011D02*
X50549989Y-80200011D01*
X30760000Y-90000000D02*
X30760000Y-88490000D01*
X30760000Y-88490000D02*
X39049989Y-80200011D01*
D27*
G04 #@! TO.N,Net-(R17-Pad2)*
X164770000Y-64080000D02*
X164770000Y-63830000D01*
X161000000Y-55700000D02*
X160000000Y-56700000D01*
X161000000Y-55025000D02*
X161000000Y-55700000D01*
X160000000Y-64500000D02*
X160500000Y-65000000D01*
X160000000Y-56700000D02*
X160000000Y-64500000D01*
X160500000Y-65000000D02*
X163850000Y-65000000D01*
X163850000Y-65000000D02*
X164770000Y-64080000D01*
G04 #@! TO.N,Net-(R18-Pad2)*
X163000000Y-57040000D02*
X163490000Y-57530000D01*
X163000000Y-55025000D02*
X163000000Y-57040000D01*
G04 #@! TO.N,Net-(R19-Pad2)*
X165000000Y-57300000D02*
X164770000Y-57530000D01*
X165000000Y-55025000D02*
X165000000Y-57300000D01*
G04 #@! TO.N,Net-(R20-Pad2)*
X166030000Y-55995000D02*
X166030000Y-57530000D01*
X167000000Y-55025000D02*
X166030000Y-55995000D01*
G04 #@! TO.N,Net-(R21-Pad2)*
X167300000Y-56725000D02*
X167300000Y-57530000D01*
X169000000Y-55025000D02*
X167300000Y-56725000D01*
G04 #@! TO.N,Net-(R22-Pad2)*
X170211628Y-55648372D02*
X168580000Y-57280000D01*
X168580000Y-57280000D02*
X168580000Y-57530000D01*
X170376628Y-55648372D02*
X170211628Y-55648372D01*
X171000000Y-55025000D02*
X170376628Y-55648372D01*
G04 #@! TO.N,Net-(R23-Pad2)*
X172105218Y-55648372D02*
X171198591Y-56554999D01*
X172376628Y-55648372D02*
X172105218Y-55648372D01*
X171198591Y-56554999D02*
X170575001Y-56554999D01*
X173000000Y-55025000D02*
X172376628Y-55648372D01*
X170575001Y-56554999D02*
X169850000Y-57280000D01*
X169850000Y-57280000D02*
X169850000Y-57530000D01*
G04 #@! TO.N,Net-(R24-Pad2)*
X175000000Y-55700000D02*
X174145001Y-56554999D01*
X171110000Y-57280000D02*
X171110000Y-57530000D01*
X174145001Y-56554999D02*
X171835001Y-56554999D01*
X171835001Y-56554999D02*
X171110000Y-57280000D01*
X175000000Y-55025000D02*
X175000000Y-55700000D01*
G04 #@! TO.N,Net-(R25-Pad2)*
X170975011Y-76549989D02*
X172260000Y-75265000D01*
X163025000Y-79000000D02*
X165475011Y-76549989D01*
X172260000Y-75265000D02*
X172260000Y-75015000D01*
X165475011Y-76549989D02*
X170975011Y-76549989D01*
G04 #@! TO.N,Net-(R26-Pad2)*
X170980000Y-73770000D02*
X171250000Y-73500000D01*
X169025000Y-77000000D02*
X167025000Y-79000000D01*
X174250000Y-73500000D02*
X174500000Y-73750000D01*
X173000000Y-77000000D02*
X169025000Y-77000000D01*
X170980000Y-75015000D02*
X170980000Y-73770000D01*
X171250000Y-73500000D02*
X174250000Y-73500000D01*
X174500000Y-75500000D02*
X173000000Y-77000000D01*
X174500000Y-73750000D02*
X174500000Y-75500000D01*
G04 #@! TO.N,Net-(R27-Pad2)*
X169720000Y-74030000D02*
X169720000Y-75015000D01*
X170750000Y-73000000D02*
X169720000Y-74030000D01*
X173186400Y-77450011D02*
X174950011Y-75686400D01*
X174950011Y-75686400D02*
X174950011Y-73563600D01*
X171025000Y-79000000D02*
X172574989Y-77450011D01*
X172574989Y-77450011D02*
X173186400Y-77450011D01*
X174950011Y-73563600D02*
X174386411Y-73000000D01*
X174386411Y-73000000D02*
X170750000Y-73000000D01*
G04 #@! TO.N,Net-(R28-Pad2)*
X168450000Y-74115000D02*
X168450000Y-75015000D01*
X170065000Y-72500000D02*
X168450000Y-74115000D01*
X174750000Y-78725000D02*
X174750000Y-76750000D01*
X174750000Y-76750000D02*
X175500000Y-76000000D01*
X175025000Y-79000000D02*
X174750000Y-78725000D01*
X175500000Y-76000000D02*
X175500000Y-73477178D01*
X175500000Y-73477178D02*
X174522822Y-72500000D01*
X174522822Y-72500000D02*
X170065000Y-72500000D01*
G04 #@! TO.N,Net-(U5-Pad9)*
X172390000Y-65145000D02*
X172390000Y-64730000D01*
X169720000Y-67815000D02*
X172390000Y-65145000D01*
X172390000Y-64730000D02*
X172390000Y-63830000D01*
X169720000Y-68715000D02*
X169720000Y-67815000D01*
G04 #@! TO.N,Net-(U5-Pad11)*
X167605013Y-66324987D02*
X168255013Y-66324987D01*
X169850000Y-64730000D02*
X169850000Y-63830000D01*
X168255013Y-66324987D02*
X169850000Y-64730000D01*
X165900000Y-68715000D02*
X165900000Y-67815000D01*
X165585008Y-67500008D02*
X165390542Y-67500008D01*
X165900000Y-67815000D02*
X165585008Y-67500008D01*
X167649999Y-66580318D02*
X167250000Y-66980317D01*
X167649999Y-66369973D02*
X167649999Y-66580318D01*
X167605013Y-66324987D02*
X167649999Y-66369973D01*
X165001974Y-66200011D02*
X165901998Y-65299987D01*
X166580013Y-65299987D02*
X167605013Y-66324987D01*
X125226011Y-69049989D02*
X160336422Y-69049989D01*
X163186399Y-66200011D02*
X165001974Y-66200011D01*
X160336422Y-69049989D02*
X163186399Y-66200011D01*
X165901998Y-65299987D02*
X166580013Y-65299987D01*
X118640000Y-75636000D02*
X125226011Y-69049989D01*
G04 #@! TO.N,Net-(U5-Pad12)*
X168580000Y-64920000D02*
X168580000Y-63830000D01*
X168000000Y-65500000D02*
X168580000Y-64920000D01*
X166250000Y-66590674D02*
X166250000Y-66024989D01*
X166348002Y-66774998D02*
X166250000Y-66676996D01*
X166250000Y-66676996D02*
X166250000Y-66590674D01*
X166348002Y-67643002D02*
X167170000Y-68465000D01*
X166348002Y-66774998D02*
X166348002Y-67643002D01*
X167170000Y-68465000D02*
X167170000Y-68715000D01*
X163247823Y-66774998D02*
X166348002Y-66774998D01*
X121180000Y-75636000D02*
X127316000Y-69500000D01*
X160522822Y-69500000D02*
X163247823Y-66774998D01*
X127316000Y-69500000D02*
X160522822Y-69500000D01*
G04 #@! TO.N,Net-(U5-Pad14)*
X166030000Y-64080000D02*
X166030000Y-63830000D01*
X164360000Y-65750000D02*
X166030000Y-64080000D01*
X116100000Y-75636000D02*
X123136022Y-68599978D01*
X123136022Y-68599978D02*
X160150022Y-68599978D01*
X160150022Y-68599978D02*
X163000000Y-65750000D01*
X163000000Y-65750000D02*
X164360000Y-65750000D01*
G04 #@! TO.N,LEDK1*
X72409316Y-91899979D02*
X72684315Y-91624980D01*
X35199979Y-91899979D02*
X72409316Y-91899979D01*
X72684315Y-91624980D02*
X73250000Y-91624980D01*
X33300000Y-90000000D02*
X35199979Y-91899979D01*
X118636410Y-85000000D02*
X120934315Y-85000000D01*
X120934315Y-85000000D02*
X121500000Y-85000000D01*
X111886410Y-91750000D02*
X118636410Y-85000000D01*
X79050000Y-91750000D02*
X111886410Y-91750000D01*
X77300000Y-90000000D02*
X79050000Y-91750000D01*
X162100000Y-82250000D02*
X162100000Y-83000000D01*
X162100000Y-83000000D02*
X160100000Y-85000000D01*
X134065695Y-85000000D02*
X133500010Y-85000000D01*
X160100000Y-85000000D02*
X134065695Y-85000000D01*
G04 #@! TO.N,LED1*
X116220000Y-46000000D02*
X116220000Y-47202081D01*
X28220000Y-47202081D02*
X28220000Y-46000000D01*
X33600033Y-53100033D02*
X28220000Y-47720000D01*
X116220000Y-47202081D02*
X116225001Y-47207082D01*
X112176988Y-53500000D02*
X109017763Y-53500000D01*
X108617796Y-53100033D02*
X33600033Y-53100033D01*
X28220000Y-47720000D02*
X28220000Y-47202081D01*
X116225001Y-47207082D02*
X116225001Y-49451987D01*
X116225001Y-49451987D02*
X112176988Y-53500000D01*
X109017763Y-53500000D02*
X108617796Y-53100033D01*
X162423035Y-49350033D02*
X156997805Y-49350033D01*
X156997805Y-49350033D02*
X156047849Y-50299989D01*
X116275085Y-47202081D02*
X116220000Y-47202081D01*
X162725001Y-49651999D02*
X162423035Y-49350033D01*
X162725001Y-51249999D02*
X162725001Y-49651999D01*
X156047849Y-50299989D02*
X119372993Y-50299989D01*
X119372993Y-50299989D02*
X116275085Y-47202081D01*
X161000000Y-52975000D02*
X162725001Y-51249999D01*
G04 #@! TO.N,LEDK2*
X35840000Y-90000000D02*
X35840000Y-90340000D01*
X35840000Y-90340000D02*
X36750000Y-91250000D01*
X36750000Y-91250000D02*
X70250000Y-91250000D01*
X70250000Y-91250000D02*
X70500000Y-91000000D01*
X120184315Y-84000000D02*
X120750000Y-84000000D01*
X81015001Y-91175001D02*
X111824999Y-91175001D01*
X79840000Y-90000000D02*
X81015001Y-91175001D01*
X111824999Y-91175001D02*
X119000000Y-84000000D01*
X119000000Y-84000000D02*
X120184315Y-84000000D01*
X133149999Y-83600001D02*
X132750000Y-84000000D01*
X134500000Y-82250000D02*
X133149999Y-83600001D01*
X163060001Y-81424999D02*
X161139999Y-81424999D01*
X163885002Y-82250000D02*
X163060001Y-81424999D01*
X161000000Y-81564998D02*
X161000000Y-82000000D01*
X161000000Y-82000000D02*
X160750000Y-82250000D01*
X161139999Y-81424999D02*
X161000000Y-81564998D01*
X167100000Y-82250000D02*
X163885002Y-82250000D01*
X160750000Y-82250000D02*
X134500000Y-82250000D01*
G04 #@! TO.N,LEDK3*
X172100000Y-83000000D02*
X172100000Y-82250000D01*
X170850000Y-84250000D02*
X172100000Y-83000000D01*
X165500000Y-85000000D02*
X166250000Y-84250000D01*
X166250000Y-84250000D02*
X170850000Y-84250000D01*
X121300000Y-90000000D02*
X122475001Y-91175001D01*
X122475001Y-91175001D02*
X125179589Y-91175001D01*
X160500023Y-91899979D02*
X161100001Y-91300001D01*
X161100001Y-91300001D02*
X161500000Y-90900002D01*
X125904567Y-91899979D02*
X160500023Y-91899979D01*
X125179589Y-91175001D02*
X125904567Y-91899979D01*
G04 #@! TO.N,LEDK4*
X177100000Y-83000000D02*
X177100000Y-82250000D01*
X177100000Y-83400000D02*
X177100000Y-83000000D01*
X175500000Y-85000000D02*
X177100000Y-83400000D01*
X168000000Y-85000000D02*
X175500000Y-85000000D01*
X158474993Y-91449968D02*
X158749992Y-91174969D01*
X126090966Y-91449968D02*
X158474993Y-91449968D01*
X123840000Y-90000000D02*
X124640998Y-90000000D01*
X124640998Y-90000000D02*
X126090966Y-91449968D01*
G04 #@! TO.N,LED2*
X115500000Y-49345826D02*
X115500000Y-48315685D01*
X111795837Y-53049989D02*
X115500000Y-49345826D01*
X115500000Y-48315685D02*
X115500000Y-47750000D01*
X109204163Y-53049989D02*
X111795837Y-53049989D01*
X108804196Y-52650022D02*
X109204163Y-53049989D01*
X37410022Y-52650022D02*
X108804196Y-52650022D01*
X30760000Y-46000000D02*
X37410022Y-52650022D01*
X122609978Y-49849978D02*
X119609999Y-46849999D01*
X163000000Y-52975000D02*
X163623372Y-52351628D01*
X156811405Y-48900022D02*
X155861449Y-49849978D01*
X162609435Y-48900022D02*
X156811405Y-48900022D01*
X163623372Y-52351628D02*
X163623372Y-49913959D01*
X163623372Y-49913959D02*
X162609435Y-48900022D01*
X155861449Y-49849978D02*
X122609978Y-49849978D01*
X119609999Y-46849999D02*
X118760000Y-46000000D01*
G04 #@! TO.N,LED3*
X114250000Y-49959415D02*
X114250000Y-48565685D01*
X33300000Y-46000000D02*
X39500011Y-52200011D01*
X114250000Y-48565685D02*
X114250000Y-48000000D01*
X39500011Y-52200011D02*
X108990596Y-52200011D01*
X111609437Y-52599978D02*
X114250000Y-49959415D01*
X108990596Y-52200011D02*
X109390563Y-52599978D01*
X109390563Y-52599978D02*
X111609437Y-52599978D01*
X165000000Y-52300000D02*
X165000000Y-52975000D01*
X123497886Y-49399967D02*
X155675049Y-49399967D01*
X155675049Y-49399967D02*
X156625005Y-48450011D01*
X121300000Y-47202081D02*
X123497886Y-49399967D01*
X162795835Y-48450011D02*
X165000000Y-50654176D01*
X156625005Y-48450011D02*
X162795835Y-48450011D01*
X121300000Y-46000000D02*
X121300000Y-47202081D01*
X165000000Y-50654176D02*
X165000000Y-52300000D01*
G04 #@! TO.N,LED4*
X35840000Y-46000000D02*
X41590000Y-51750000D01*
X113250006Y-49065685D02*
X113250006Y-48500000D01*
X109576963Y-52149967D02*
X111423037Y-52149967D01*
X111423037Y-52149967D02*
X113250006Y-50322998D01*
X109176996Y-51750000D02*
X109576963Y-52149967D01*
X113250006Y-50322998D02*
X113250006Y-49065685D01*
X41590000Y-51750000D02*
X109176996Y-51750000D01*
X167000000Y-52975000D02*
X167000000Y-52017765D01*
X167000000Y-52017765D02*
X162982235Y-48000000D01*
X123840000Y-47202081D02*
X123840000Y-46000000D01*
X124699956Y-48949956D02*
X123840000Y-48090000D01*
X156438605Y-48000000D02*
X155488649Y-48949956D01*
X155488649Y-48949956D02*
X124699956Y-48949956D01*
X162982235Y-48000000D02*
X156438605Y-48000000D01*
X123840000Y-48090000D02*
X123840000Y-47202081D01*
G04 #@! TO.N,LED5*
X109434315Y-51000000D02*
X110000000Y-51000000D01*
X72220000Y-46000000D02*
X77489291Y-51269291D01*
X109165024Y-51269291D02*
X109434315Y-51000000D01*
X77489291Y-51269291D02*
X109165024Y-51269291D01*
X160220000Y-46000000D02*
X161694955Y-47474955D01*
X161694955Y-47474955D02*
X163499955Y-47474955D01*
X163499955Y-47474955D02*
X168376628Y-52351628D01*
X168376628Y-52351628D02*
X169000000Y-52975000D01*
X116250002Y-51750000D02*
X156935232Y-51750000D01*
X115750000Y-51249998D02*
X116250002Y-51750000D01*
X156935232Y-51750000D02*
X157010243Y-51674989D01*
G04 #@! TO.N,LED6*
X171000000Y-52975000D02*
X168574989Y-50549989D01*
X168574989Y-50549989D02*
X167309989Y-50549989D01*
X167309989Y-50549989D02*
X163609999Y-46849999D01*
X163609999Y-46849999D02*
X162760000Y-46000000D01*
X79485002Y-50725002D02*
X108598002Y-50725002D01*
X74760000Y-46000000D02*
X79485002Y-50725002D01*
X109250000Y-50073004D02*
X109250000Y-50000000D01*
X108598002Y-50725002D02*
X109250000Y-50073004D01*
X158934315Y-50525054D02*
X159500000Y-50525054D01*
X116750002Y-50500000D02*
X117500002Y-51250000D01*
X117500002Y-51250000D02*
X156370660Y-51250000D01*
X156370660Y-51250000D02*
X157095606Y-50525054D01*
X157095606Y-50525054D02*
X158934315Y-50525054D01*
G04 #@! TO.N,LED7*
X171250000Y-50000000D02*
X173000000Y-51750000D01*
X173000000Y-52300000D02*
X173000000Y-52975000D01*
X173000000Y-51750000D02*
X173000000Y-52300000D01*
X168097919Y-50000000D02*
X171250000Y-50000000D01*
X165300000Y-46000000D02*
X165300000Y-47202081D01*
X165300000Y-47202081D02*
X168097919Y-50000000D01*
X77300000Y-46000000D02*
X81300000Y-50000000D01*
X107434307Y-50000000D02*
X107999992Y-50000000D01*
X81300000Y-50000000D02*
X107434307Y-50000000D01*
X117820392Y-49928178D02*
X118642214Y-50750000D01*
X156234249Y-50750000D02*
X157184205Y-49800044D01*
X161434306Y-50075043D02*
X161999991Y-50075043D01*
X161159307Y-49800044D02*
X161434306Y-50075043D01*
X157184205Y-49800044D02*
X161159307Y-49800044D01*
X118642214Y-50750000D02*
X156234249Y-50750000D01*
G04 #@! TO.N,LED8*
X167840000Y-48590000D02*
X167840000Y-46000000D01*
X168500000Y-49250000D02*
X167840000Y-48590000D01*
X173250000Y-49250000D02*
X168500000Y-49250000D01*
X175000000Y-52975000D02*
X175000000Y-51000000D01*
X175000000Y-51000000D02*
X173250000Y-49250000D01*
X111000000Y-50859272D02*
X111000000Y-51424957D01*
X82984911Y-49144911D02*
X109467915Y-49144911D01*
X111000000Y-50676996D02*
X111000000Y-50859272D01*
X109467915Y-49144911D02*
X111000000Y-50676996D01*
X79840000Y-46000000D02*
X82984911Y-49144911D01*
X158649999Y-52399999D02*
X115149981Y-52399999D01*
X175000000Y-52975000D02*
X173850010Y-54124990D01*
X160374990Y-54124990D02*
X158649999Y-52399999D01*
X173850010Y-54124990D02*
X160374990Y-54124990D01*
X115149981Y-52399999D02*
X114749982Y-52000000D01*
D26*
G04 #@! TO.N,+12V*
X33274000Y-62484000D02*
X30734000Y-62484000D01*
X33274000Y-61262686D02*
X33274000Y-62484000D01*
X33274000Y-59226000D02*
X33274000Y-61262686D01*
X47650000Y-55500000D02*
X37000000Y-55500000D01*
X37000000Y-55500000D02*
X33274000Y-59226000D01*
X48750000Y-58000000D02*
X48750000Y-56600000D01*
X48750000Y-56600000D02*
X47650000Y-55500000D01*
D27*
G04 #@! TO.N,MIDI_OUT_4*
X83080000Y-75636000D02*
X76365967Y-82350033D01*
X46000000Y-85000000D02*
X46000000Y-88900000D01*
X48649967Y-82350033D02*
X46000000Y-85000000D01*
X46000000Y-88900000D02*
X46000000Y-90000000D01*
X76365967Y-82350033D02*
X48649967Y-82350033D01*
G04 #@! TO.N,MIDI_OUT_3*
X46599978Y-81900022D02*
X43460000Y-85040000D01*
X43460000Y-88797919D02*
X43460000Y-90000000D01*
X74275978Y-81900022D02*
X46599978Y-81900022D01*
X80540000Y-75636000D02*
X74275978Y-81900022D01*
X43460000Y-85040000D02*
X43460000Y-88797919D01*
G04 #@! TO.N,MIDI_OUT_2*
X40920000Y-88797919D02*
X40920000Y-90000000D01*
X44549989Y-81450011D02*
X40920000Y-85080000D01*
X40920000Y-85080000D02*
X40920000Y-88797919D01*
X72185989Y-81450011D02*
X44549989Y-81450011D01*
X78000000Y-75636000D02*
X72185989Y-81450011D01*
G04 #@! TO.N,MIDI_OUT_1*
X38380000Y-85120000D02*
X38380000Y-88797919D01*
X42500000Y-81000000D02*
X38380000Y-85120000D01*
X70096000Y-81000000D02*
X42500000Y-81000000D01*
X75460000Y-75636000D02*
X70096000Y-81000000D01*
X38380000Y-88797919D02*
X38380000Y-90000000D01*
G04 #@! TO.N,MIDI_OUT_5*
X85620000Y-77380000D02*
X85620000Y-75636000D01*
X81530001Y-81469999D02*
X85620000Y-77380000D01*
X82380000Y-90000000D02*
X81530001Y-89150001D01*
X81530001Y-89150001D02*
X81530001Y-81469999D01*
G04 #@! TO.N,MIDI_OUT_6*
X88160000Y-77090000D02*
X88160000Y-75636000D01*
X84070001Y-81179999D02*
X88160000Y-77090000D01*
X84920000Y-90000000D02*
X84070001Y-89150001D01*
X84070001Y-89150001D02*
X84070001Y-81179999D01*
G04 #@! TO.N,MIDI_OUT_7*
X90700000Y-77550000D02*
X90700000Y-75636000D01*
X86610001Y-81639999D02*
X90700000Y-77550000D01*
X87460000Y-90000000D02*
X86610001Y-89150001D01*
X86610001Y-89150001D02*
X86610001Y-81639999D01*
G04 #@! TO.N,MIDI_OUT_8*
X93250000Y-77500000D02*
X93240000Y-77490000D01*
X93240000Y-77490000D02*
X93240000Y-75636000D01*
X93250000Y-78250000D02*
X93250000Y-77500000D01*
X90000000Y-90000000D02*
X90000000Y-81500000D01*
X90000000Y-81500000D02*
X93250000Y-78250000D01*
G04 #@! TO.N,MIDI_OUT_9*
X96579999Y-76435999D02*
X95780000Y-75636000D01*
X101144000Y-81000000D02*
X96579999Y-76435999D01*
X119000000Y-81000000D02*
X101144000Y-81000000D01*
X126380000Y-90000000D02*
X126380000Y-88380000D01*
X126380000Y-88380000D02*
X119000000Y-81000000D01*
G04 #@! TO.N,MIDI_OUT_10*
X99119999Y-76435999D02*
X98320000Y-75636000D01*
X128920000Y-90000000D02*
X128920000Y-88920000D01*
X127000000Y-87000000D02*
X125636411Y-87000000D01*
X128920000Y-88920000D02*
X127000000Y-87000000D01*
X125636411Y-87000000D02*
X119186400Y-80549989D01*
X119186400Y-80549989D02*
X103233989Y-80549989D01*
X103233989Y-80549989D02*
X99119999Y-76435999D01*
G04 #@! TO.N,MIDI_OUT_11*
X125822810Y-86549989D02*
X119372800Y-80099978D01*
X128009989Y-86549989D02*
X125822810Y-86549989D01*
X119372800Y-80099978D02*
X105323978Y-80099978D01*
X131460000Y-90000000D02*
X128009989Y-86549989D01*
X105323978Y-80099978D02*
X101659999Y-76435999D01*
X101659999Y-76435999D02*
X100860000Y-75636000D01*
G04 #@! TO.N,MIDI_OUT_12*
X104199999Y-76435999D02*
X103400000Y-75636000D01*
X125909222Y-85999995D02*
X124854786Y-84945555D01*
X107413967Y-79649967D02*
X104199999Y-76435999D01*
X129999995Y-85999995D02*
X125909222Y-85999995D01*
X124854786Y-84945555D02*
X119559200Y-79649967D01*
X119559200Y-79649967D02*
X107413967Y-79649967D01*
X134000000Y-90000000D02*
X129999995Y-85999995D01*
G04 #@! TO.N,MIDI_OUT_13*
X167730033Y-87350033D02*
X132440800Y-87350033D01*
X132440800Y-87350033D02*
X130640758Y-85549989D01*
X130640758Y-85549989D02*
X126095624Y-85549986D01*
X125304796Y-84759155D02*
X119745600Y-79199956D01*
X119745600Y-79199956D02*
X109503956Y-79199956D01*
X109503956Y-79199956D02*
X106739999Y-76435999D01*
X170380000Y-90000000D02*
X167730033Y-87350033D01*
X126095624Y-85549986D02*
X125304796Y-84759155D01*
X106739999Y-76435999D02*
X105940000Y-75636000D01*
G04 #@! TO.N,MIDI_OUT_14*
X109279999Y-76435999D02*
X108480000Y-75636000D01*
X125754806Y-84572755D02*
X119932000Y-78749945D01*
X126282026Y-85099977D02*
X125754806Y-84572755D01*
X119932000Y-78749945D02*
X111593945Y-78749945D01*
X130827158Y-85099978D02*
X126282026Y-85099977D01*
X132627200Y-86900022D02*
X130827158Y-85099978D01*
X169820022Y-86900022D02*
X132627200Y-86900022D01*
X172920000Y-90000000D02*
X169820022Y-86900022D01*
X111593945Y-78749945D02*
X109279999Y-76435999D01*
G04 #@! TO.N,MIDI_OUT_15*
X132813600Y-86450011D02*
X131013557Y-84649967D01*
X126204816Y-84386355D02*
X120118400Y-78299934D01*
X171910011Y-86450011D02*
X132813600Y-86450011D01*
X131013557Y-84649967D02*
X126468427Y-84649967D01*
X126468427Y-84649967D02*
X126204816Y-84386355D01*
X111819999Y-76435999D02*
X111020000Y-75636000D01*
X175460000Y-90000000D02*
X171910011Y-86450011D01*
X113683934Y-78299934D02*
X111819999Y-76435999D01*
X120118400Y-78299934D02*
X113683934Y-78299934D01*
G04 #@! TO.N,MIDI_OUT_16*
X114359999Y-76435999D02*
X113560000Y-75636000D01*
X120304800Y-77849923D02*
X115773923Y-77849923D01*
X126654827Y-84199956D02*
X120304800Y-77849923D01*
X131199956Y-84199956D02*
X126654827Y-84199956D01*
X175100000Y-86000000D02*
X133000000Y-86000000D01*
X115773923Y-77849923D02*
X114359999Y-76435999D01*
X133000000Y-86000000D02*
X131199956Y-84199956D01*
X178000000Y-88900000D02*
X175100000Y-86000000D01*
X178000000Y-90000000D02*
X178000000Y-88900000D01*
D26*
G04 #@! TO.N,Net-(C17-Pad1)*
X50600000Y-61450000D02*
X49100000Y-61450000D01*
X52750000Y-59400000D02*
X50700000Y-61450000D01*
X50700000Y-61450000D02*
X50600000Y-61450000D01*
X52750000Y-58000000D02*
X52750000Y-59400000D01*
X44700000Y-57300000D02*
X44700000Y-57000000D01*
X49100000Y-61450000D02*
X48850000Y-61450000D01*
X48900000Y-61450000D02*
X49100000Y-61450000D01*
X44450000Y-57000000D02*
X48900000Y-61450000D01*
G04 #@! TO.N,CA7_VCC*
X48850000Y-73450000D02*
X49100000Y-73450000D01*
X49100000Y-73050000D02*
X49100000Y-73450000D01*
X52400000Y-69750000D02*
X49100000Y-73050000D01*
X52750000Y-69750000D02*
X52400000Y-69750000D01*
X126276000Y-68000000D02*
X133880000Y-60396000D01*
X122750000Y-68000000D02*
X126276000Y-68000000D01*
X46900000Y-73450000D02*
X44450000Y-71000000D01*
X49100000Y-73450000D02*
X46900000Y-73450000D01*
X121000000Y-69750000D02*
X52750000Y-69750000D01*
X122750000Y-68000000D02*
X121000000Y-69750000D01*
G04 #@! TO.N,Net-(C18-Pad1)*
X49100000Y-63750000D02*
X52250000Y-63750000D01*
X52250000Y-63750000D02*
X55400000Y-63750000D01*
X48750000Y-69750000D02*
X48400000Y-69750000D01*
X55100000Y-63750000D02*
X55400000Y-63750000D01*
X49100000Y-69750000D02*
X55100000Y-63750000D01*
X48750000Y-69750000D02*
X49100000Y-69750000D01*
X48850000Y-64000000D02*
X49100000Y-63750000D01*
X44200000Y-64000000D02*
X48850000Y-64000000D01*
G04 #@! TD*
M02*
